<?xml version="1.0" encoding="UTF-8" standalone="no"?>
<!-- Created with Inkscape (http://www.inkscape.org/) -->

<svg
   width="69.999786mm"
   height="119.99983mm"
   viewBox="0 0 69.999786 119.99983"
   version="1.1"
   id="svg1"
   inkscape:version="1.3 (0e150ed, 2023-07-21)"
   sodipodi:docname="engrave_NoVectorizedText.svg"
   xmlns:inkscape="http://www.inkscape.org/namespaces/inkscape"
   xmlns:sodipodi="http://sodipodi.sourceforge.net/DTD/sodipodi-0.dtd"
   xmlns="http://www.w3.org/2000/svg"
   xmlns:svg="http://www.w3.org/2000/svg">
  <sodipodi:namedview
     id="namedview1"
     pagecolor="#ffffff"
     bordercolor="#666666"
     borderopacity="1.0"
     inkscape:showpageshadow="2"
     inkscape:pageopacity="0.0"
     inkscape:pagecheckerboard="0"
     inkscape:deskcolor="#d1d1d1"
     inkscape:document-units="mm"
     inkscape:zoom="2.5796911"
     inkscape:cx="132.18637"
     inkscape:cy="226.77134"
     inkscape:current-layer="layer14" />
  <defs
     id="defs1" />
  <g
     inkscape:label="Capa 1"
     inkscape:groupmode="layer"
     id="layer1"
     transform="translate(-3.938848e-5,-3.999848e-5)">
    <path
       id="rect10964"
       style="display:inline;fill:none;fill-opacity:1;stroke:#000000;stroke-width:0.064;stroke-miterlimit:10;stroke-dasharray:none"
       inkscape:label="White Acrylic"
       d="m 10.032979,0.03204 v 4.99711 c 1.17e-4,2.7599 -2.2385475,4.99746 -5.0002112,4.99763 H 0.03203939 v 99.94687 H 5.0327678 c 2.7616637,1.7e-4 5.0003282,2.23732 5.0002112,4.99711 v 4.99711 h 49.933903 v -4.99711 c -1.15e-4,-2.75979 2.238556,-4.99694 5.000212,-4.99711 h 5.000728 V 10.02678 H 64.967094 C 62.205438,10.02661 59.966767,7.78905 59.966882,5.02915 V 0.03204 Z M 25.500769,10.8226 H 44.500643 V 29.82247 H 25.500769 Z M 4.7506144,13.06329 a 1.6,1.6 0 0 1 1.5999024,1.5999 1.6,1.6 0 0 1 -1.5999024,1.5999 1.6,1.6 0 0 1 -1.5999023,-1.5999 1.6,1.6 0 0 1 1.5999023,-1.5999 z m 60.5001836,0 a 1.6,1.6 0 0 1 1.599902,1.5999 1.6,1.6 0 0 1 -1.599902,1.5999 1.6,1.6 0 0 1 -1.599903,-1.5999 1.6,1.6 0 0 1 1.599903,-1.5999 z M 2.5006226,37.61631 H 21.500497 V 56.61618 H 2.5006226 Z m 23.0125494,0 H 44.513045 V 56.61618 H 25.513172 Z m 32.487422,0.18862 a 7.7499995,7.7499995 0 0 1 7.749915,7.75043 7.7499995,7.7499995 0 0 1 -7.749915,7.74991 7.7499995,7.7499995 0 0 1 -7.749914,-7.74991 7.7499995,7.7499995 0 0 1 7.749914,-7.75043 z M 2.5006226,65.34278 H 21.500497 V 84.34266 H 2.5006226 Z m 23.0125494,0 H 44.513045 V 84.34266 H 25.513172 Z m 23.012548,0 H 67.525594 V 84.34266 H 48.52572 Z m -23.024951,22.6751 h 18.999874 v 18.99988 H 25.500769 Z M 4.7506144,103.73734 a 1.6,1.6 0 0 1 1.5999024,1.5999 1.6,1.6 0 0 1 -1.5999024,1.5999 1.6,1.6 0 0 1 -1.5999023,-1.5999 1.6,1.6 0 0 1 1.5999023,-1.5999 z m 60.5001836,0 a 1.6,1.6 0 0 1 1.599902,1.5999 1.6,1.6 0 0 1 -1.599902,1.5999 1.6,1.6 0 0 1 -1.599903,-1.5999 1.6,1.6 0 0 1 1.599903,-1.5999 z" />
    <g
       inkscape:groupmode="layer"
       id="layer14"
       inkscape:label="Front Text"
       style="display:inline;fill:#000000"
       transform="translate(7.2530718e-4,-176.99973)">
      <text
         id="text14794"
         y="233.64207"
         x="58.182877"
         style="font-style:normal;font-weight:normal;font-size:2.82222px;line-height:1.25;font-family:sans-serif;text-align:center;letter-spacing:0px;word-spacing:0px;text-anchor:middle;display:inline;fill:#000000;fill-opacity:1;stroke:none;stroke-width:0.264583"
         xml:space="preserve"
         inkscape:label="Power Text"><tspan
           id="tspan1586"
           style="font-style:normal;font-variant:normal;font-weight:normal;font-stretch:normal;font-size:2.82222px;font-family:'MS 33558';-inkscape-font-specification:'MS 33558, ';text-align:center;text-anchor:middle;fill:#000000;stroke-width:0.264583"
           y="233.64207"
           x="58.182877"
           sodipodi:role="line">POWER</tspan></text>
      <text
         id="text2078"
         y="213.57816"
         x="35.182873"
         style="font-style:normal;font-weight:normal;font-size:2.82222px;line-height:1.25;font-family:sans-serif;text-align:center;letter-spacing:0px;word-spacing:0px;text-anchor:middle;display:inline;fill:#000000;fill-opacity:1;stroke:none;stroke-width:0.264583"
         xml:space="preserve"
         inkscape:label="Laser Text"><tspan
           style="font-style:normal;font-variant:normal;font-weight:normal;font-stretch:normal;font-size:2.82222px;font-family:'MS 33558';-inkscape-font-specification:'MS 33558, ';text-align:center;text-anchor:middle;fill:#000000;stroke-width:0.264583"
           y="213.57816"
           x="35.182873"
           id="tspan2074"
           sodipodi:role="line">LASER</tspan><tspan
           id="tspan2076"
           y="217.10593"
           x="35.182873"
           sodipodi:role="line" /></text>
      <text
         xml:space="preserve"
         style="font-style:normal;font-weight:normal;font-size:4.93889px;line-height:1.25;font-family:sans-serif;letter-spacing:0px;word-spacing:0px;display:inline;fill:#000000;fill-opacity:1;stroke:none;stroke-width:0.264583"
         x="26.069965"
         y="184.58022"
         id="text12344-7"
         inkscape:label="Title"><tspan
           sodipodi:role="line"
           id="tspan12342-5"
           x="26.069965"
           y="184.58022"
           style="font-style:normal;font-variant:normal;font-weight:normal;font-stretch:normal;font-size:4.93889px;font-family:'MS 33558';-inkscape-font-specification:'MS 33558, ';fill:#000000;stroke-width:0.264583">MINING</tspan></text>
      <text
         id="text14353"
         y="241.31494"
         x="29.607664"
         style="font-style:normal;font-weight:normal;font-size:2.82222px;line-height:1.25;font-family:sans-serif;letter-spacing:0px;word-spacing:0px;display:inline;fill:#000000;fill-opacity:1;stroke:none;stroke-width:0.264583"
         xml:space="preserve"
         inkscape:label="Slots Text"><tspan
           style="font-style:normal;font-variant:normal;font-weight:normal;font-stretch:normal;font-size:2.82222px;font-family:'MS 33558';-inkscape-font-specification:'MS 33558, ';fill:#000000;stroke-width:0.264583"
           y="241.31494"
           x="29.607664"
           id="tspan14351"
           sodipodi:role="line">SLOTS</tspan></text>
    </g>
  </g>
</svg>
