<?xml version="1.0" encoding="UTF-8" standalone="no"?>
<!-- Created with Inkscape (http://www.inkscape.org/) -->

<svg
   width="59.999992mm"
   height="119.99995mm"
   viewBox="0 0 59.999992 119.99995"
   version="1.1"
   id="svg70623"
   inkscape:version="1.2.2 (b0a8486, 2022-12-01)"
   sodipodi:docname="2mm-White-Front_Leyer.svg"
   xmlns:inkscape="http://www.inkscape.org/namespaces/inkscape"
   xmlns:sodipodi="http://sodipodi.sourceforge.net/DTD/sodipodi-0.dtd"
   xmlns="http://www.w3.org/2000/svg"
   xmlns:svg="http://www.w3.org/2000/svg">
  <sodipodi:namedview
     id="namedview70625"
     pagecolor="#ffffff"
     bordercolor="#666666"
     borderopacity="1.0"
     inkscape:showpageshadow="2"
     inkscape:pageopacity="0.0"
     inkscape:pagecheckerboard="0"
     inkscape:deskcolor="#d1d1d1"
     inkscape:document-units="mm"
     showgrid="false"
     inkscape:zoom="1.8194381"
     inkscape:cx="113.22177"
     inkscape:cy="227.26797"
     inkscape:current-layer="layer1" />
  <defs
     id="defs70620" />
  <g
     inkscape:label="Capa 1"
     inkscape:groupmode="layer"
     id="layer1"
     transform="translate(32.891914,-121.3233)">
    <path
       id="rect3678"
       style="display:inline;fill:none;fill-opacity:1;stroke:#000000;stroke-width:0.076;stroke-linecap:round;stroke-miterlimit:4;stroke-dasharray:none"
       d="m -22.860725,121.3613 v 4.99659 c -1.66e-4,2.75964 -2.237572,4.99672 -4.997111,4.9966 h -4.996078 v 99.93705 h 4.996078 c 2.759539,-1.2e-4 4.996945,2.23696 4.997111,4.9966 v 4.99711 h 39.937097 v -4.99711 c 1.66e-4,-2.75964 2.237574,-4.99672 4.997111,-4.9966 h 4.996594 v -99.93705 h -4.996594 c -2.759537,1.2e-4 -4.996945,-2.23696 -4.997111,-4.9966 v -4.99659 z m -1.456759,12.70827 a 1.6,1.6 0 0 1 1.599903,1.5999 1.6,1.6 0 0 1 -1.599903,1.5999 1.6,1.6 0 0 1 -1.599902,-1.5999 1.6,1.6 0 0 1 1.599902,-1.5999 z m 42.96637,0 a 1.6,1.6 0 0 1 1.599902,1.5999 1.6,1.6 0 0 1 -1.599902,1.5999 1.6,1.6 0 0 1 -1.599903,-1.5999 1.6,1.6 0 0 1 1.599903,-1.5999 z M 9.47942,148.9622 a 8.1999998,8.1999998 0 0 1 8.200016,8.20002 8.1999998,8.1999998 0 0 1 -8.200016,8.20001 8.1999998,8.1999998 0 0 1 -8.200017,-8.20001 8.1999998,8.1999998 0 0 1 8.200017,-8.20002 z m -27.570411,2.30012 a 5.8999996,5.8999996 0 0 1 5.299935,3.30781 v 5.18211 a 5.8999996,5.8999996 0 0 1 -5.299935,3.30987 5.8999996,5.8999996 0 0 1 -5.299934,-3.3109 v -5.1785 a 5.8999996,5.8999996 0 0 1 5.299934,-3.31039 z m -8.719364,24.24503 h 19.000391 v 18.99987 h -19.000391 z m 28.951721,0 H 21.14124 v 18.99987 H 2.141366 Z m -31.22135,21.34805 a 1.6,1.6 0 0 1 1.599903,1.5999 1.6,1.6 0 0 1 -1.599903,1.59991 1.6,1.6 0 0 1 -1.599902,-1.59991 1.6,1.6 0 0 1 1.599902,-1.5999 z m 6.362919,7.98866 c 3.323991,0 6.000151,2.67615 6.000151,6.00015 v 9.99991 c 0,3.32397 -2.67616,6.00015 -6.000151,6.00015 -3.323989,0 -6.00015,-2.67618 -6.00015,-6.00015 v -9.99991 c 0,-3.324 2.676161,-6.00015 6.00015,-6.00015 z m 19.000391,0 c 3.323988,0 6.00015,2.67615 6.00015,6.00015 v 9.99991 c 0,3.32396 -2.676162,6.00015 -6.00015,6.00015 -3.323988,0 -6.000151,-2.67619 -6.000151,-6.00015 v -9.99991 c 0,-3.324 2.676163,-6.00015 6.000151,-6.00015 z m 20.043221,3.44992 a 7.5500002,7.5500002 0 0 1 7.550443,7.54993 7.5500002,7.5500002 0 0 1 -7.550443,7.55044 7.5500002,7.5500002 0 0 1 -7.549927,-7.55044 7.5500002,7.5500002 0 0 1 7.549927,-7.54993 z m 6.980452,17.66559 a 1.6,1.6 0 0 1 1.599903,1.5999 1.6,1.6 0 0 1 -1.599903,1.5999 1.6,1.6 0 0 1 -1.600419,-1.5999 1.6,1.6 0 0 1 1.600419,-1.5999 z" />
  </g>
</svg>
