<?xml version="1.0" encoding="UTF-8" standalone="no"?>
<!-- Created with Inkscape (http://www.inkscape.org/) -->

<svg
   width="59.999989mm"
   height="119.99995mm"
   viewBox="0 0 59.999989 119.99995"
   version="1.1"
   id="svg19965"
   inkscape:version="1.2.2 (b0a8486, 2022-12-01)"
   sodipodi:docname="2mm-White-Front_Leyer.svg"
   xmlns:inkscape="http://www.inkscape.org/namespaces/inkscape"
   xmlns:sodipodi="http://sodipodi.sourceforge.net/DTD/sodipodi-0.dtd"
   xmlns="http://www.w3.org/2000/svg"
   xmlns:svg="http://www.w3.org/2000/svg">
  <sodipodi:namedview
     id="namedview19967"
     pagecolor="#ffffff"
     bordercolor="#666666"
     borderopacity="1.0"
     inkscape:showpageshadow="2"
     inkscape:pageopacity="0.0"
     inkscape:pagecheckerboard="0"
     inkscape:deskcolor="#d1d1d1"
     inkscape:document-units="mm"
     showgrid="false"
     inkscape:zoom="2.5730741"
     inkscape:cx="113.48294"
     inkscape:cy="226.77155"
     inkscape:current-layer="layer1" />
  <defs
     id="defs19962" />
  <g
     inkscape:label="Capa 1"
     inkscape:groupmode="layer"
     id="layer1"
     transform="translate(-2.4056122e-4,-2.4000122e-4)">
    <path
       id="rect3678"
       style="display:inline;fill:none;fill-opacity:1;stroke:#000000;stroke-width:0.076;stroke-linecap:round;stroke-miterlimit:4;stroke-dasharray:none"
       d="m 10.031429,0.03824 v 4.99659 c -1.66e-4,2.75964 -2.2375803,4.99672 -4.997111,4.9966 H 0.03824056 v 99.93705 H 5.034318 c 2.7595307,-1.2e-4 4.996945,2.23696 4.997111,4.9966 v 4.99711 h 39.937097 v -4.99711 c 1.66e-4,-2.75964 2.237583,-4.99672 4.997111,-4.9966 h 4.996594 V 10.03143 h -4.996594 c -2.759528,1.2e-4 -4.996945,-2.23696 -4.997111,-4.9966 V 0.03824 Z M 8.5746704,12.74651 c 0.8835759,5e-5 1.5998476,0.71632 1.5999026,1.5999 -5.5e-5,0.88358 -0.7163267,1.59985 -1.5999026,1.5999 -0.8835757,-5e-5 -1.5998472,-0.71632 -1.5999024,-1.5999 5.52e-5,-0.88358 0.7163267,-1.59985 1.5999024,-1.5999 z m 42.9663696,0 c 0.883575,5e-5 1.599847,0.71632 1.599902,1.5999 -5.5e-5,0.88358 -0.716327,1.59985 -1.599902,1.5999 -0.883576,-5e-5 -1.599848,-0.71632 -1.599903,-1.5999 5.5e-5,-0.88358 0.716327,-1.59985 1.599903,-1.5999 z M 29.931506,17.28732 H 54.811641 V 56.46735 H 54.033394 V 73.18416 H 35.03352 V 56.46735 H 29.931506 Z M 14.801163,27.83913 a 8,8 0 0 1 8.000029,8.00003 8,8 0 0 1 -8.000029,8.00002 8,8 0 0 1 -8.0000278,-8.00002 8,8 0 0 1 8.0000278,-8.00003 z M 6.0817993,54.18429 H 25.08219 V 73.18416 H 6.0817993 Z M 3.8121704,75.53234 c 0.8835757,5e-5 1.5998471,0.71632 1.5999023,1.5999 -4.97e-5,0.88358 -0.7163227,1.59986 -1.5999023,1.59991 -0.8835796,-5e-5 -1.5998527,-0.71633 -1.5999024,-1.59991 5.52e-5,-0.88358 0.7163267,-1.59985 1.5999024,-1.5999 z M 10.175089,83.521 c 3.323982,0 6.000151,2.67615 6.000151,6.00015 v 9.99991 c 0,3.32394 -2.676169,6.00015 -6.000151,6.00015 -3.3239782,0 -6.0001501,-2.67621 -6.0001501,-6.00015 v -9.99991 c 0,-3.324 2.6761719,-6.00015 6.0001501,-6.00015 z m 19.000391,0 c 3.323979,0 6.00015,2.67615 6.00015,6.00015 v 9.99991 c 0,3.32393 -2.676171,6.00015 -6.00015,6.00015 -3.323979,0 -6.000151,-2.67622 -6.000151,-6.00015 v -9.99991 c 0,-3.324 2.676172,-6.00015 6.000151,-6.00015 z m 20.043221,3.24993 c 4.280336,-2.4e-4 7.750387,3.46958 7.750431,7.74992 2.38e-4,4.28052 -3.469896,7.75067 -7.750431,7.75043 -4.280334,-5e-5 -7.750153,-3.47011 -7.749915,-7.75043 4.4e-5,-4.28014 3.469781,-7.74987 7.749915,-7.74992 z m 6.980452,17.86558 c 0.883579,5e-5 1.599848,0.71632 1.599903,1.5999 -5.5e-5,0.88358 -0.716324,1.59985 -1.599903,1.5999 -0.883777,2.3e-4 -1.600364,-0.71612 -1.600419,-1.5999 5.5e-5,-0.88378 0.716642,-1.60013 1.600419,-1.5999 z" />
  </g>
</svg>
