<?xml version="1.0" encoding="UTF-8" standalone="no"?>
<!-- Created with Inkscape (http://www.inkscape.org/) -->

<svg
   width="59.999889mm"
   height="119.99983mm"
   viewBox="0 0 59.999889 119.99983"
   version="1.1"
   id="svg58631"
   inkscape:version="1.2.2 (b0a8486, 2022-12-01)"
   sodipodi:docname="3mm-Black-Back_Layer.svg"
   xmlns:inkscape="http://www.inkscape.org/namespaces/inkscape"
   xmlns:sodipodi="http://sodipodi.sourceforge.net/DTD/sodipodi-0.dtd"
   xmlns="http://www.w3.org/2000/svg"
   xmlns:svg="http://www.w3.org/2000/svg">
  <sodipodi:namedview
     id="namedview58633"
     pagecolor="#ffffff"
     bordercolor="#666666"
     borderopacity="1.0"
     inkscape:showpageshadow="2"
     inkscape:pageopacity="0.0"
     inkscape:pagecheckerboard="0"
     inkscape:deskcolor="#d1d1d1"
     inkscape:document-units="mm"
     showgrid="false"
     inkscape:zoom="1.8194399"
     inkscape:cx="113.22166"
     inkscape:cy="227.81737"
     inkscape:current-layer="layer1" />
  <defs
     id="defs58628" />
  <g
     inkscape:label="Capa 1"
     inkscape:groupmode="layer"
     id="layer1"
     transform="translate(81.186896,-120.16659)">
    <path
       id="rect11527"
       style="display:inline;fill:none;fill-opacity:1;stroke:#000000;stroke-width:0.0588447;stroke-linecap:round;stroke-miterlimit:4;stroke-dasharray:none"
       d="M -81.157474,120.19601 V 240.137 H -21.21643 V 120.19601 Z m 4.720642,3.44681 a 1.6,1.6 0 0 1 1.599903,1.59991 1.6,1.6 0 0 1 -1.599903,1.5999 1.6,1.6 0 0 1 -1.600419,-1.5999 1.6,1.6 0 0 1 1.600419,-1.59991 z m 50.500277,0 a 1.6,1.6 0 0 1 1.599902,1.59991 1.6,1.6 0 0 1 -1.599902,1.5999 1.6,1.6 0 0 1 -1.600419,-1.5999 1.6,1.6 0 0 1 1.600419,-1.59991 z m -46.675704,9.27024 a 1.6,1.6 0 0 1 1.599903,1.5999 1.6,1.6 0 0 1 -1.599903,1.5999 1.6,1.6 0 0 1 -1.599902,-1.5999 1.6,1.6 0 0 1 1.599902,-1.5999 z m 42.96637,0 a 1.6,1.6 0 0 1 1.599902,1.5999 1.6,1.6 0 0 1 -1.599902,1.5999 1.6,1.6 0 0 1 -1.599903,-1.5999 1.6,1.6 0 0 1 1.599903,-1.5999 z m -9.169466,14.89263 a 8.1999998,8.1999998 0 0 1 8.200016,8.20002 8.1999998,8.1999998 0 0 1 -8.200016,8.20001 8.1999998,8.1999998 0 0 1 -8.200017,-8.20001 8.1999998,8.1999998 0 0 1 8.200017,-8.20002 z m -27.570411,2.30012 a 5.8999996,5.8999996 0 0 1 5.299935,3.30781 v 5.18211 a 5.8999996,5.8999996 0 0 1 -5.299935,3.30987 5.8999996,5.8999996 0 0 1 -5.299934,-3.3109 v -5.1785 a 5.8999996,5.8999996 0 0 1 5.299934,-3.31039 z m -6.219258,26.74514 h 14.000179 v 14.00017 h -14.000179 z m 28.951721,0 h 13.999662 v 14.00017 h -13.999662 z m -33.721456,18.84794 a 1.6,1.6 0 0 1 1.599903,1.5999 1.6,1.6 0 0 1 -1.599903,1.59991 1.6,1.6 0 0 1 -1.599902,-1.59991 1.6,1.6 0 0 1 1.599902,-1.5999 z m 6.362919,12.98835 a 6,6 0 0 1 6.000151,6.00016 6,6 0 0 1 -5.000212,5.91643 v -0.91622 h -1.999878 v 0.91622 a 6,6 0 0 1 -5.000211,-5.91643 6,6 0 0 1 6.00015,-6.00016 z m 19.000391,0 a 6,6 0 0 1 6.00015,6.00016 6,6 0 0 1 -5.000211,5.91643 v -0.91622 h -1.999878 v 0.91622 a 6,6 0 0 1 -5.000212,-5.91643 6,6 0 0 1 6.000151,-6.00016 z m 20.043221,2.7001 a 3.5,3.5 0 0 1 3.500045,3.50004 3.5,3.5 0 0 1 -3.500045,3.50005 3.5,3.5 0 0 1 -3.499528,-3.50005 3.5,3.5 0 0 1 3.499528,-3.50004 z m -0.999939,9.30021 h 2.000395 v 0.99994 h -2.000395 z m 7.980391,4.11551 a 1.6,1.6 0 0 1 1.599903,1.5999 1.6,1.6 0 0 1 -1.599903,1.5999 1.6,1.6 0 0 1 -1.600419,-1.5999 1.6,1.6 0 0 1 1.600419,-1.5999 z m -51.449056,8.83925 a 1.6,1.6 0 0 1 1.599903,1.60042 1.6,1.6 0 0 1 -1.599903,1.5999 1.6,1.6 0 0 1 -1.600419,-1.5999 1.6,1.6 0 0 1 1.600419,-1.60042 z m 50.500277,0 a 1.6,1.6 0 0 1 1.599902,1.60042 1.6,1.6 0 0 1 -1.599902,1.5999 1.6,1.6 0 0 1 -1.600419,-1.5999 1.6,1.6 0 0 1 1.600419,-1.60042 z" />
  </g>
</svg>
