<?xml version="1.0" encoding="UTF-8" standalone="no"?>
<!-- Created with Inkscape (http://www.inkscape.org/) -->

<svg
   width="59.999992mm"
   height="119.99995mm"
   viewBox="0 0 59.999992 119.99995"
   version="1.1"
   id="svg64627"
   inkscape:version="1.2.2 (b0a8486, 2022-12-01)"
   sodipodi:docname="3mm-Translucent-Middle_Layer.svg"
   xmlns:inkscape="http://www.inkscape.org/namespaces/inkscape"
   xmlns:sodipodi="http://sodipodi.sourceforge.net/DTD/sodipodi-0.dtd"
   xmlns="http://www.w3.org/2000/svg"
   xmlns:svg="http://www.w3.org/2000/svg">
  <sodipodi:namedview
     id="namedview64629"
     pagecolor="#ffffff"
     bordercolor="#666666"
     borderopacity="1.0"
     inkscape:showpageshadow="2"
     inkscape:pageopacity="0.0"
     inkscape:pagecheckerboard="0"
     inkscape:deskcolor="#d1d1d1"
     inkscape:document-units="mm"
     showgrid="false"
     inkscape:zoom="1.8194381"
     inkscape:cx="113.22177"
     inkscape:cy="227.26797"
     inkscape:current-layer="layer1" />
  <defs
     id="defs64624" />
  <g
     inkscape:label="Capa 1"
     inkscape:groupmode="layer"
     id="layer1"
     transform="translate(49.954231,-110.6232)">
    <path
       id="rect3678-3"
       style="display:inline;fill:none;fill-opacity:1;stroke:#000000;stroke-width:0.076;stroke-linecap:round;stroke-miterlimit:4;stroke-dasharray:none"
       d="m -39.91219,110.6612 v 4.99659 c -1.66e-4,2.75964 -2.23976,4.99672 -5.002279,4.9966 h -5.001762 v 99.93705 h 5.001762 c 2.762519,-1.2e-4 5.002113,2.23696 5.002279,4.9966 v 4.99711 H 0.003203 v -4.99711 c 1.66e-4,-2.75964 2.239752,-4.99672 5.002279,-4.9966 H 10.00776 V 120.65439 H 5.005482 c -2.762527,1.2e-4 -5.002113,-2.23696 -5.002279,-4.9966 v -4.99659 z m -1.467611,12.70827 a 1.6,1.6 0 0 1 1.599903,1.5999 1.6,1.6 0 0 1 -1.599903,1.5999 1.6,1.6 0 0 1 -1.599902,-1.5999 1.6,1.6 0 0 1 1.599902,-1.5999 z m 42.96637,0 a 1.6,1.6 0 0 1 1.599902,1.5999 1.6,1.6 0 0 1 -1.599902,1.5999 1.6,1.6 0 0 1 -1.599903,-1.5999 1.6,1.6 0 0 1 1.599903,-1.5999 z m -9.169466,14.89263 a 8.1999998,8.1999998 0 0 1 8.200016,8.20002 8.1999998,8.1999998 0 0 1 -8.200016,8.20001 8.1999998,8.1999998 0 0 1 -8.200017,-8.20001 8.1999998,8.1999998 0 0 1 8.200017,-8.20002 z m -27.570411,2.30012 a 5.8999996,5.8999996 0 0 1 5.299935,3.30781 v 5.18211 a 5.8999996,5.8999996 0 0 1 -5.299935,3.30987 5.8999996,5.8999996 0 0 1 -5.299934,-3.3109 v -5.1785 a 5.8999996,5.8999996 0 0 1 5.299934,-3.31039 z m -8.719364,24.24503 h 19.000391 v 18.99987 h -19.000391 z m 28.951721,0 H 4.078923 v 18.99987 h -18.999874 z m -31.22135,21.34805 a 1.6,1.6 0 0 1 1.599902,1.5999 1.6,1.6 0 0 1 -1.599902,1.59991 1.6,1.6 0 0 1 -1.599902,-1.59991 1.6,1.6 0 0 1 1.599902,-1.5999 z m 5.492171,7.98866 h 1.741496 c 4.226508,0 7.629509,3.01088 7.629509,6.75101 v 8.49767 c 0,3.74013 -3.403001,6.75153 -7.629509,6.75153 h -1.741496 c -4.226507,0 -7.628991,-3.0114 -7.628991,-6.75153 v -8.49767 c 0,-3.74013 3.402484,-6.75101 7.628991,-6.75101 z m 19.000391,0 h 1.741496 c 4.226512,0 7.629508,3.01088 7.629508,6.75101 v 8.49767 c 0,3.74013 -3.402996,6.75153 -7.629508,6.75153 h -1.741496 c -4.226512,0 -7.628992,-3.0114 -7.628992,-6.75153 v -8.49767 c 0,-3.74013 3.40248,-6.75101 7.628992,-6.75101 z m 20.913969,3.44992 a 7.5500002,7.5500002 0 0 1 7.550443,7.54993 7.5500002,7.5500002 0 0 1 -7.550443,7.55044 7.5500002,7.5500002 0 0 1 -7.549927,-7.55044 7.5500002,7.5500002 0 0 1 7.549927,-7.54993 z m 6.980452,17.66559 a 1.6,1.6 0 0 1 1.599903,1.5999 1.6,1.6 0 0 1 -1.599903,1.5999 1.6,1.6 0 0 1 -1.600419,-1.5999 1.6,1.6 0 0 1 1.600419,-1.5999 z" />
  </g>
</svg>
