<?xml version="1.0" encoding="UTF-8" standalone="no"?>
<!-- Created with Inkscape (http://www.inkscape.org/) -->

<svg
   width="59.999889mm"
   height="98.000153mm"
   viewBox="0 0 59.999889 98.000153"
   version="1.1"
   id="svg38505"
   inkscape:version="1.2.2 (b0a8486, 2022-12-01)"
   sodipodi:docname="3mm-Black-Microcontroller_Layer.svg"
   xmlns:inkscape="http://www.inkscape.org/namespaces/inkscape"
   xmlns:sodipodi="http://sodipodi.sourceforge.net/DTD/sodipodi-0.dtd"
   xmlns="http://www.w3.org/2000/svg"
   xmlns:svg="http://www.w3.org/2000/svg">
  <sodipodi:namedview
     id="namedview38507"
     pagecolor="#ffffff"
     bordercolor="#666666"
     borderopacity="1.0"
     inkscape:showpageshadow="2"
     inkscape:pageopacity="0.0"
     inkscape:pagecheckerboard="0"
     inkscape:deskcolor="#d1d1d1"
     inkscape:document-units="mm"
     showgrid="false"
     inkscape:zoom="3.1506966"
     inkscape:cx="113.30828"
     inkscape:cy="185.19714"
     inkscape:current-layer="layer1" />
  <defs
     id="defs38502" />
  <g
     inkscape:label="Capa 1"
     inkscape:groupmode="layer"
     id="layer1"
     transform="translate(-3.2819303e-5,-10.999877)">
    <path
       id="rect11527-5"
       style="display:inline;fill:none;fill-opacity:1;stroke:#000000;stroke-width:0.0588455;stroke-linecap:round;stroke-miterlimit:4;stroke-dasharray:none"
       d="m 0.02945557,11.0293 v 97.94131 H 41.57679 v -2.47066 a 2.5,2.5 0 0 1 2.500106,-2.5001 2.5,2.5 0 0 1 2.500106,2.5001 v 2.47066 H 59.9705 V 11.0293 Z M 8.5746704,12.746507 A 1.6,1.6 0 0 1 10.174573,14.34641 1.6,1.6 0 0 1 8.5746704,15.946312 1.6,1.6 0 0 1 6.9747681,14.34641 1.6,1.6 0 0 1 8.5746704,12.746507 Z m 42.9663696,0 a 1.6,1.6 0 0 1 1.599902,1.599903 1.6,1.6 0 0 1 -1.599902,1.599902 1.6,1.6 0 0 1 -1.599902,-1.599902 1.6,1.6 0 0 1 1.599902,-1.599903 z m -21.50308,1.3193 a 1.6,1.6 0 0 1 1.599902,1.600419 1.6,1.6 0 0 1 -1.599902,1.599902 1.6,1.6 0 0 1 -1.599903,-1.599902 1.6,1.6 0 0 1 1.599903,-1.600419 z M 3.8121704,75.532339 A 1.6,1.6 0 0 1 5.4120728,77.132242 1.6,1.6 0 0 1 3.8121704,78.732144 1.6,1.6 0 0 1 2.2122681,77.132242 1.6,1.6 0 0 1 3.8121704,75.532339 Z M 30.03796,102.88571 a 1.6,1.6 0 0 1 1.599902,1.60041 1.6,1.6 0 0 1 -1.599902,1.59991 1.6,1.6 0 0 1 -1.599903,-1.59991 1.6,1.6 0 0 1 1.599903,-1.60041 z m 26.161194,1.75079 a 1.6,1.6 0 0 1 1.599902,1.59991 1.6,1.6 0 0 1 -1.599902,1.5999 1.6,1.6 0 0 1 -1.600419,-1.5999 1.6,1.6 0 0 1 1.600419,-1.59991 z" />
  </g>
</svg>
