<?xml version="1.0" encoding="UTF-8" standalone="no"?>
<!-- Created with Inkscape (http://www.inkscape.org/) -->

<svg
   width="50.000004mm"
   height="119.99987mm"
   viewBox="0 0 50.000004 119.99987"
   version="1.1"
   id="svg26731"
   inkscape:version="1.2.2 (b0a8486, 2022-12-01)"
   sodipodi:docname="3mm-Black-Back_Layer.svg"
   xmlns:inkscape="http://www.inkscape.org/namespaces/inkscape"
   xmlns:sodipodi="http://sodipodi.sourceforge.net/DTD/sodipodi-0.dtd"
   xmlns="http://www.w3.org/2000/svg"
   xmlns:svg="http://www.w3.org/2000/svg">
  <sodipodi:namedview
     id="namedview26733"
     pagecolor="#ffffff"
     bordercolor="#666666"
     borderopacity="1.0"
     inkscape:showpageshadow="2"
     inkscape:pageopacity="0.0"
     inkscape:pagecheckerboard="0"
     inkscape:deskcolor="#d1d1d1"
     inkscape:document-units="mm"
     showgrid="false"
     inkscape:zoom="2.632607"
     inkscape:cx="94.58305"
     inkscape:cy="226.77141"
     inkscape:current-layer="layer1" />
  <defs
     id="defs26728" />
  <g
     inkscape:label="Capa 1"
     inkscape:groupmode="layer"
     id="layer1"
     transform="translate(-2.2150445e-5,-2.1660445e-5)">
    <path
       id="rect11527"
       style="display:inline;fill:none;fill-opacity:1;stroke:#000000;stroke-width:0.0536992;stroke-linecap:round;stroke-miterlimit:4;stroke-dasharray:none"
       d="M 0.02687175,0.02687126 V 119.97304 H 49.973177 V 0.02687126 Z M 4.7878215,3.4380302 A 1.6,1.6 0 0 1 6.3877238,5.0379365 1.6,1.6 0 0 1 4.7878215,6.6378429 1.6,1.6 0 0 1 3.1879191,5.0379365 1.6,1.6 0 0 1 4.7878215,3.4380302 Z m 40.5003705,0 A 1.6,1.6 0 0 1 46.888094,5.0379365 1.6,1.6 0 0 1 45.288192,6.6378429 1.6,1.6 0 0 1 43.688289,5.0379365 1.6,1.6 0 0 1 45.288192,3.4380302 Z M 4.7247762,12.571844 A 1.6,1.6 0 0 1 6.3246785,14.17175 1.6,1.6 0 0 1 4.7247762,15.771646 1.6,1.6 0 0 1 3.1248739,14.17175 1.6,1.6 0 0 1 4.7247762,12.571844 Z m 40.5003708,0 a 1.6,1.6 0 0 1 1.599902,1.599906 1.6,1.6 0 0 1 -1.599902,1.599896 1.6,1.6 0 0 1 -1.60042,-1.599896 1.6,1.6 0 0 1 1.60042,-1.599906 z M 17.999935,31.992879 H 32.000114 V 45.99306 H 17.999935 Z m 0,42.013973 h 14.000179 v 14.00018 H 17.999935 Z M 4.7247762,104.30423 a 1.6,1.6 0 0 1 1.5999023,1.5999 1.6,1.6 0 0 1 -1.5999023,1.5999 1.6,1.6 0 0 1 -1.5999023,-1.5999 1.6,1.6 0 0 1 1.5999023,-1.5999 z m 40.5003708,0 a 1.6,1.6 0 0 1 1.599902,1.5999 1.6,1.6 0 0 1 -1.599902,1.5999 1.6,1.6 0 0 1 -1.60042,-1.5999 1.6,1.6 0 0 1 1.60042,-1.5999 z m -40.4373255,9.13381 a 1.6,1.6 0 0 1 1.5999023,1.5999 1.6,1.6 0 0 1 -1.5999023,1.5999 1.6,1.6 0 0 1 -1.5999024,-1.5999 1.6,1.6 0 0 1 1.5999024,-1.5999 z m 40.5003705,0 a 1.6,1.6 0 0 1 1.599902,1.5999 1.6,1.6 0 0 1 -1.599902,1.5999 1.6,1.6 0 0 1 -1.599903,-1.5999 1.6,1.6 0 0 1 1.599903,-1.5999 z" />
  </g>
</svg>
