<?xml version="1.0" encoding="UTF-8" standalone="no"?>
<!-- Created with Inkscape (http://www.inkscape.org/) -->

<svg
   width="50.000004mm"
   height="100.00006mm"
   viewBox="0 0 50.000004 100.00006"
   version="1.1"
   id="svg20868"
   inkscape:version="1.2.2 (b0a8486, 2022-12-01)"
   sodipodi:docname="3mm-Black-Microcontroller_Layer.svg"
   xmlns:inkscape="http://www.inkscape.org/namespaces/inkscape"
   xmlns:sodipodi="http://sodipodi.sourceforge.net/DTD/sodipodi-0.dtd"
   xmlns="http://www.w3.org/2000/svg"
   xmlns:svg="http://www.w3.org/2000/svg">
  <sodipodi:namedview
     id="namedview20870"
     pagecolor="#ffffff"
     bordercolor="#666666"
     borderopacity="1.0"
     inkscape:showpageshadow="2"
     inkscape:pageopacity="0.0"
     inkscape:pagecheckerboard="0"
     inkscape:deskcolor="#d1d1d1"
     inkscape:document-units="mm"
     showgrid="false"
     inkscape:zoom="3.1591231"
     inkscape:cx="94.329975"
     inkscape:cy="188.97649"
     inkscape:current-layer="layer1" />
  <defs
     id="defs20865" />
  <g
     inkscape:label="Capa 1"
     inkscape:groupmode="layer"
     id="layer1"
     transform="translate(-2.3349988e-5,-9.9999296)">
    <path
       id="rect11527-5"
       style="display:inline;fill:none;fill-opacity:1;stroke:#000000;stroke-width:0.0536968;stroke-linecap:round;stroke-miterlimit:4;stroke-dasharray:none"
       d="M 0.02687175,10.026778 V 109.97314 H 32.829004 v -2.47324 a 2.5,2.5 0 0 1 2.500106,-2.5001 2.5,2.5 0 0 1 2.500106,2.5001 v 2.47324 H 49.973177 V 10.026778 Z m 4.69790445,2.545064 a 1.6,1.6 0 0 1 1.5999023,1.599902 1.6,1.6 0 0 1 -1.5999023,1.599903 1.6,1.6 0 0 1 -1.5999024,-1.599903 1.6,1.6 0 0 1 1.5999024,-1.599902 z m 40.5003708,0 a 1.6,1.6 0 0 1 1.599902,1.599902 1.6,1.6 0 0 1 -1.599902,1.599903 1.6,1.6 0 0 1 -1.600419,-1.599903 1.6,1.6 0 0 1 1.600419,-1.599902 z m -20.225122,1.418001 a 1.6,1.6 0 0 1 1.599902,1.600419 1.6,1.6 0 0 1 -1.599902,1.599903 1.6,1.6 0 0 1 -1.599903,-1.599903 1.6,1.6 0 0 1 1.599903,-1.600419 z m 0,88.819907 a 1.6,1.6 0 0 1 1.599902,1.60042 1.6,1.6 0 0 1 -1.599902,1.5999 1.6,1.6 0 0 1 -1.599903,-1.5999 1.6,1.6 0 0 1 1.599903,-1.60042 z m -20.2752488,1.49448 a 1.6,1.6 0 0 1 1.5999023,1.5999 1.6,1.6 0 0 1 -1.5999023,1.59991 1.6,1.6 0 0 1 -1.5999024,-1.59991 1.6,1.6 0 0 1 1.5999024,-1.5999 z m 40.5003708,0 a 1.6,1.6 0 0 1 1.599902,1.5999 1.6,1.6 0 0 1 -1.599902,1.59991 1.6,1.6 0 0 1 -1.600419,-1.59991 1.6,1.6 0 0 1 1.600419,-1.5999 z" />
  </g>
</svg>
