<?xml version="1.0" encoding="UTF-8" standalone="no"?>
<!-- Created with Inkscape (http://www.inkscape.org/) -->

<svg
   width="99.999619mm"
   height="119.99995mm"
   viewBox="0 0 99.999619 119.99995"
   version="1.1"
   id="svg82367"
   inkscape:version="1.2.2 (b0a8486, 2022-12-01)"
   sodipodi:docname="2mm-White-Front_Leyer.svg"
   xmlns:inkscape="http://www.inkscape.org/namespaces/inkscape"
   xmlns:sodipodi="http://sodipodi.sourceforge.net/DTD/sodipodi-0.dtd"
   xmlns="http://www.w3.org/2000/svg"
   xmlns:svg="http://www.w3.org/2000/svg">
  <sodipodi:namedview
     id="namedview82369"
     pagecolor="#ffffff"
     bordercolor="#666666"
     borderopacity="1.0"
     inkscape:showpageshadow="2"
     inkscape:pageopacity="0.0"
     inkscape:pagecheckerboard="0"
     inkscape:deskcolor="#d1d1d1"
     inkscape:document-units="mm"
     showgrid="false"
     inkscape:zoom="2.5730741"
     inkscape:cx="188.87913"
     inkscape:cy="226.77155"
     inkscape:current-layer="layer1" />
  <defs
     id="defs82364" />
  <g
     inkscape:label="Capa 1"
     inkscape:groupmode="layer"
     id="layer1"
     transform="translate(-51.50652,-88.500025)">
    <path
       id="rect3678"
       style="display:inline;fill:none;fill-opacity:1;stroke:#000000;stroke-width:0.076;stroke-linecap:round;stroke-miterlimit:4;stroke-dasharray:none"
       d="m 61.536675,88.538025 v 4.99659 c -1.31e-4,2.75974 -2.237244,4.99682 -4.996594,4.9966 H 51.54452 v 99.937045 h 4.995561 c 2.75935,-2.2e-4 4.996463,2.23686 4.996594,4.9966 v 4.99712 h 79.939305 v -4.99712 c 1.3e-4,-2.75974 2.23725,-4.99682 4.9966,-4.9966 h 4.99556 V 98.531215 h -4.99556 c -2.75935,2.2e-4 -4.99647,-2.23686 -4.9966,-4.9966 v -4.99659 z m -1.612821,13.417795 h 18.999874 v 18.99987 H 59.923854 Z m 21.388358,0 h 18.999878 v 18.99987 H 81.312212 Z m 21.388358,0 h 18.99988 v 18.99987 h -18.99988 z m 21.38836,0 h 18.99987 v 18.99987 h -18.99987 z m -67.832553,0.16433 c 0.883567,4e-5 1.599848,0.71632 1.599903,1.5999 -5.5e-5,0.88357 -0.716336,1.59985 -1.599903,1.59989 -0.883768,2.3e-4 -1.600364,-0.71611 -1.600419,-1.59989 5.5e-5,-0.88379 0.716651,-1.60014 1.600419,-1.5999 z m 90.499903,0 c 0.88377,-2.3e-4 1.60036,0.71611 1.60042,1.5999 -6e-5,0.88378 -0.71665,1.60013 -1.60042,1.59989 -0.88357,-4e-5 -1.59985,-0.71632 -1.5999,-1.59989 5e-5,-0.88358 0.71633,-1.59986 1.5999,-1.5999 z M 92.006133,126.86643 H 111.00652 V 145.8663 H 92.006133 Z M 59.923854,150.6345 h 18.999874 v 18.99987 H 59.923854 Z m 32.082279,0 h 19.000387 v 18.99987 H 92.006133 Z m 32.082797,0 h 18.99987 v 18.99987 h -18.99987 z m -64.165076,27.88976 h 18.999874 v 18.99987 H 59.923854 Z m 40.163956,0 h 19.00039 v 18.99987 h -19.00039 z m 35.06246,1.94975 a 7.5500002,7.5500002 0 0 1 7.54993,7.55044 7.5500002,7.5500002 0 0 1 -7.54993,7.54993 7.5500002,7.5500002 0 0 1 -7.54993,-7.54993 7.5500002,7.5500002 0 0 1 7.54993,-7.55044 z m -78.893893,9.48263 c 0.88377,5e-5 1.600135,0.71664 1.599903,1.60042 -5.5e-5,0.88345 -0.716336,1.59985 -1.599903,1.5999 -0.883768,2.3e-4 -1.600364,-0.71625 -1.600419,-1.5999 -2.32e-4,-0.88398 0.716448,-1.60064 1.600419,-1.60042 z m 90.499903,0 c 0.88397,-2.2e-4 1.60065,0.71644 1.60042,1.60042 -6e-5,0.88365 -0.71665,1.60013 -1.60042,1.5999 -0.88357,-5e-5 -1.59985,-0.71645 -1.5999,-1.5999 -2.4e-4,-0.88378 0.71613,-1.60037 1.5999,-1.60042 z" />
  </g>
</svg>
