<?xml version="1.0" encoding="UTF-8" standalone="no"?>
<!-- Created with Inkscape (http://www.inkscape.org/) -->

<svg
   width="99.999619mm"
   height="119.99995mm"
   viewBox="0 0 99.999619 119.99995"
   version="1.1"
   id="svg78186"
   inkscape:version="1.2.2 (b0a8486, 2022-12-01)"
   sodipodi:docname="3mm-Translucent-Middle_Layer.svg"
   xmlns:inkscape="http://www.inkscape.org/namespaces/inkscape"
   xmlns:sodipodi="http://sodipodi.sourceforge.net/DTD/sodipodi-0.dtd"
   xmlns="http://www.w3.org/2000/svg"
   xmlns:svg="http://www.w3.org/2000/svg">
  <sodipodi:namedview
     id="namedview78188"
     pagecolor="#ffffff"
     bordercolor="#666666"
     borderopacity="1.0"
     inkscape:showpageshadow="2"
     inkscape:pageopacity="0.0"
     inkscape:pagecheckerboard="0"
     inkscape:deskcolor="#d1d1d1"
     inkscape:document-units="mm"
     showgrid="false"
     inkscape:zoom="2.5730741"
     inkscape:cx="188.87913"
     inkscape:cy="226.77155"
     inkscape:current-layer="layer1" />
  <defs
     id="defs78183" />
  <g
     inkscape:label="Capa 1"
     inkscape:groupmode="layer"
     id="layer1"
     transform="translate(-26.346832,-180.31843)">
    <path
       id="rect3678-3"
       style="display:inline;fill:none;fill-opacity:1;stroke:#000000;stroke-width:0.076;stroke-linecap:round;stroke-miterlimit:4;stroke-dasharray:none"
       d="m 36.376987,180.35643 v 4.99659 c -1.31e-4,2.75974 -2.237249,4.99682 -4.996594,4.9966 h -4.995561 v 99.93705 h 4.995561 c 2.759345,-2.2e-4 4.996463,2.23686 4.996594,4.9966 v 4.99711 h 79.939303 v -4.99711 c 1.3e-4,-2.75974 2.23726,-4.99682 4.9966,-4.9966 h 4.99556 v -99.93705 h -4.99556 c -2.75934,2.2e-4 -4.99647,-2.23686 -4.9966,-4.9966 v -4.99659 z m -1.612821,13.41779 H 53.76404 v 18.99987 H 34.764166 Z m 21.388358,0 h 18.999874 v 18.99987 H 56.152524 Z m 21.388359,0 h 18.999874 v 18.99987 H 77.540883 Z m 21.388358,0 h 18.999869 v 18.99987 H 98.929241 Z m -67.832552,0.16433 c 0.883565,5e-5 1.599848,0.71632 1.599903,1.5999 -5.5e-5,0.88358 -0.716338,1.59985 -1.599903,1.5999 -0.883766,2.3e-4 -1.600364,-0.71612 -1.600419,-1.5999 5.5e-5,-0.88378 0.716653,-1.60013 1.600419,-1.5999 z m 90.499901,0 c 0.88377,-2.3e-4 1.60037,0.71612 1.60042,1.5999 -5e-5,0.88378 -0.71665,1.60013 -1.60042,1.5999 -0.88356,-5e-5 -1.59985,-0.71632 -1.5999,-1.5999 5e-5,-0.88358 0.71634,-1.59985 1.5999,-1.5999 z m -54.750145,24.74629 h 19.000391 v 18.99987 H 66.846445 Z M 34.764166,242.4529 H 53.76404 v 18.99987 H 34.764166 Z m 32.082279,0 h 19.000391 v 18.99987 H 66.846445 Z m 32.082796,0 h 18.999879 v 18.99987 H 98.929241 Z M 34.764166,270.34267 H 53.76404 v 18.99987 H 34.764166 Z m 40.163957,0 h 19.00039 v 18.99987 h -19.00039 z m 35.062457,1.94975 a 7.5500002,7.5500002 0 0 1 7.54993,7.55044 7.5500002,7.5500002 0 0 1 -7.54993,7.54993 7.5500002,7.5500002 0 0 1 -7.54992,-7.54993 7.5500002,7.5500002 0 0 1 7.54992,-7.55044 z m -78.893891,9.48263 c 0.883768,5e-5 1.600135,0.71664 1.599903,1.60042 -5.5e-5,0.88343 -0.716338,1.59985 -1.599903,1.5999 -0.883766,2.3e-4 -1.600364,-0.71627 -1.600419,-1.5999 -2.32e-4,-0.88398 0.71645,-1.60065 1.600419,-1.60042 z m 90.499901,0 c 0.88397,-2.3e-4 1.60065,0.71644 1.60042,1.60042 -5e-5,0.88363 -0.71665,1.60013 -1.60042,1.5999 -0.88356,-5e-5 -1.59985,-0.71647 -1.5999,-1.5999 -2.3e-4,-0.88378 0.71614,-1.60037 1.5999,-1.60042 z" />
  </g>
</svg>
