<?xml version="1.0" encoding="UTF-8" standalone="no"?>
<!-- Created with Inkscape (http://www.inkscape.org/) -->

<svg
   width="99.999619mm"
   height="97.999733mm"
   viewBox="0 0 99.999619 97.999733"
   version="1.1"
   id="svg12256"
   inkscape:version="1.2.2 (b0a8486, 2022-12-01)"
   sodipodi:docname="3mm-Black-Microcontroller_Layer.svg"
   xmlns:inkscape="http://www.inkscape.org/namespaces/inkscape"
   xmlns:sodipodi="http://sodipodi.sourceforge.net/DTD/sodipodi-0.dtd"
   xmlns="http://www.w3.org/2000/svg"
   xmlns:svg="http://www.w3.org/2000/svg">
  <sodipodi:namedview
     id="namedview12258"
     pagecolor="#ffffff"
     bordercolor="#666666"
     borderopacity="1.0"
     inkscape:showpageshadow="2"
     inkscape:pageopacity="0.0"
     inkscape:pagecheckerboard="0"
     inkscape:deskcolor="#d1d1d1"
     inkscape:document-units="mm"
     showgrid="false"
     inkscape:zoom="3.1507101"
     inkscape:cx="188.84632"
     inkscape:cy="185.19635"
     inkscape:current-layer="layer1" />
  <defs
     id="defs12253" />
  <g
     inkscape:label="Capa 1"
     inkscape:groupmode="layer"
     id="layer1"
     transform="translate(-2.4056122e-4,-11.000086)">
    <path
       id="rect11527-5"
       style="display:inline;fill:none;fill-opacity:1;stroke:#000000;stroke-width:0.076;stroke-linecap:round;stroke-miterlimit:4;stroke-dasharray:none"
       d="M 0.03824056,11.038086 V 108.96182 H 99.961857 V 11.038086 Z M 4.7500977,13.620357 A 1.6,1.6 0 0 1 6.35,15.22026 1.6,1.6 0 0 1 4.7500977,16.820162 1.6,1.6 0 0 1 3.1496785,15.22026 1.6,1.6 0 0 1 4.7500977,13.620357 Z m 90.4999023,0 A 1.6,1.6 0 0 1 96.850419,15.22026 1.6,1.6 0 0 1 95.25,16.820162 1.6,1.6 0 0 1 93.650098,15.22026 1.6,1.6 0 0 1 95.25,13.620357 Z m -45.249951,0.369487 a 1.6,1.6 0 0 1 1.599902,1.600419 1.6,1.6 0 0 1 -1.599902,1.599902 1.6,1.6 0 0 1 -1.599903,-1.599902 1.6,1.6 0 0 1 1.599903,-1.600419 z M 76.856291,85.966329 H 94.856226 V 95.966752 H 76.856291 Z M 4.7500977,101.45686 A 1.6,1.6 0 0 1 6.35,103.05728 a 1.6,1.6 0 0 1 -1.5999023,1.5999 1.6,1.6 0 0 1 -1.6004192,-1.5999 1.6,1.6 0 0 1 1.6004192,-1.60042 z m 90.4999023,0 a 1.6,1.6 0 0 1 1.600419,1.60042 1.6,1.6 0 0 1 -1.600419,1.5999 1.6,1.6 0 0 1 -1.599902,-1.5999 1.6,1.6 0 0 1 1.599902,-1.60042 z m -45.249951,1.35289 a 1.6,1.6 0 0 1 1.599902,1.60041 1.6,1.6 0 0 1 -1.599902,1.59991 1.6,1.6 0 0 1 -1.599903,-1.59991 1.6,1.6 0 0 1 1.599903,-1.60041 z" />
  </g>
</svg>
