<?xml version="1.0" encoding="UTF-8" standalone="no"?>
<!-- Created with Inkscape (http://www.inkscape.org/) -->

<svg
   width="99.999619mm"
   height="119.99995mm"
   viewBox="0 0 99.999619 119.99995"
   version="1.1"
   id="svg9501"
   inkscape:version="1.2.2 (b0a8486, 2022-12-01)"
   sodipodi:docname="3mm-Translucent-Middle_Layer.svg"
   xmlns:inkscape="http://www.inkscape.org/namespaces/inkscape"
   xmlns:sodipodi="http://sodipodi.sourceforge.net/DTD/sodipodi-0.dtd"
   xmlns="http://www.w3.org/2000/svg"
   xmlns:svg="http://www.w3.org/2000/svg">
  <sodipodi:namedview
     id="namedview9503"
     pagecolor="#ffffff"
     bordercolor="#666666"
     borderopacity="1.0"
     inkscape:showpageshadow="2"
     inkscape:pageopacity="0.0"
     inkscape:pagecheckerboard="0"
     inkscape:deskcolor="#d1d1d1"
     inkscape:document-units="mm"
     showgrid="false"
     inkscape:zoom="2.5730741"
     inkscape:cx="188.87913"
     inkscape:cy="226.77155"
     inkscape:current-layer="layer1" />
  <defs
     id="defs9498" />
  <g
     inkscape:label="Capa 1"
     inkscape:groupmode="layer"
     id="layer1"
     transform="translate(-2.4056122e-4,-2.4000122e-4)">
    <path
       id="rect3678-3"
       style="display:inline;fill:none;fill-opacity:1;stroke:#000000;stroke-width:0.076;stroke-linecap:round;stroke-miterlimit:4;stroke-dasharray:none"
       d="m 10.030395,0.03824 v 4.99659 c -1.31e-4,2.75974 -2.2372515,4.99682 -4.9965938,4.9966 H 0.03824056 v 99.93705 H 5.0338012 c 2.7593423,-2.2e-4 4.9964628,2.23686 4.9965938,4.9966 v 4.99711 h 79.939307 v -4.99711 c 1.31e-4,-2.75974 2.237256,-4.99682 4.996594,-4.9966 h 4.995561 V 10.03143 h -4.995561 c -2.759338,2.2e-4 -4.996463,-2.23686 -4.996594,-4.9966 V 0.03824 Z M 8.417574,13.45603 H 27.417448 V 32.4559 H 8.417574 Z m 21.388358,0 H 48.805806 V 32.4559 H 29.805932 Z m 21.388359,0 H 70.194165 V 32.4559 H 51.194291 Z m 21.388358,0 H 91.582523 V 32.4559 H 72.582649 Z M 4.7500976,13.62036 c 0.883564,5e-5 1.5998472,0.71632 1.5999024,1.5999 -5.52e-5,0.88358 -0.7163384,1.59985 -1.5999024,1.5999 -0.8837658,2.3e-4 -1.6003639,-0.71612 -1.6004191,-1.5999 5.52e-5,-0.88378 0.7166533,-1.60013 1.6004191,-1.5999 z m 90.4999024,0 c 0.883764,-2.3e-4 1.600364,0.71612 1.600419,1.5999 -5.5e-5,0.88378 -0.716655,1.60013 -1.600419,1.5999 -0.883563,-5e-5 -1.599848,-0.71632 -1.599903,-1.5999 5.5e-5,-0.88358 0.71634,-1.59985 1.599903,-1.5999 z M 40.499853,38.36665 H 59.500244 V 57.36652 H 40.499853 Z M 8.417574,62.13471 H 27.417448 V 81.13458 H 8.417574 Z m 32.082279,0 H 59.500244 V 81.13458 H 40.499853 Z m 32.082796,0 H 91.582523 V 81.13458 H 72.582649 Z M 8.417574,90.02448 h 18.999874 v 18.99987 H 8.417574 Z m 40.163957,0 h 19.00039 v 18.99987 h -19.00039 z m 35.062459,1.74976 a 7.7499995,7.7499995 0 0 1 7.749914,7.75043 7.7499995,7.7499995 0 0 1 -7.749914,7.74992 7.7499995,7.7499995 0 0 1 -7.749915,-7.74992 7.7499995,7.7499995 0 0 1 7.749915,-7.75043 z m -78.8938924,9.68262 c 0.8837671,5e-5 1.6001344,0.71664 1.5999024,1.60042 -5.52e-5,0.88342 -0.7163384,1.59985 -1.5999024,1.5999 -0.8837658,2.3e-4 -1.6003639,-0.71628 -1.6004191,-1.5999 -2.321e-4,-0.88398 0.7164502,-1.60065 1.6004191,-1.60042 z m 90.4999024,0 c 0.883967,-2.3e-4 1.600651,0.71644 1.600419,1.60042 -5.5e-5,0.88362 -0.716655,1.60013 -1.600419,1.5999 -0.883563,-5e-5 -1.599848,-0.71648 -1.599903,-1.5999 -2.32e-4,-0.88378 0.716137,-1.60037 1.599903,-1.60042 z" />
  </g>
</svg>
