<?xml version="1.0" encoding="UTF-8" standalone="no"?>
<!-- Created with Inkscape (http://www.inkscape.org/) -->

<svg
   width="99.999619mm"
   height="97.999741mm"
   viewBox="0 0 99.999619 97.999741"
   version="1.1"
   id="svg67246"
   inkscape:version="1.2.2 (b0a8486, 2022-12-01)"
   sodipodi:docname="3mm-Black-Microcontroller_Layer.svg"
   xmlns:inkscape="http://www.inkscape.org/namespaces/inkscape"
   xmlns:sodipodi="http://sodipodi.sourceforge.net/DTD/sodipodi-0.dtd"
   xmlns="http://www.w3.org/2000/svg"
   xmlns:svg="http://www.w3.org/2000/svg">
  <sodipodi:namedview
     id="namedview67248"
     pagecolor="#ffffff"
     bordercolor="#666666"
     borderopacity="1.0"
     inkscape:showpageshadow="2"
     inkscape:pageopacity="0.0"
     inkscape:pagecheckerboard="0"
     inkscape:deskcolor="#d1d1d1"
     inkscape:document-units="mm"
     showgrid="false"
     inkscape:zoom="3.1507099"
     inkscape:cx="188.84633"
     inkscape:cy="185.19636"
     inkscape:current-layer="layer1" />
  <defs
     id="defs67243" />
  <g
     inkscape:label="Capa 1"
     inkscape:groupmode="layer"
     id="layer1"
     transform="translate(-51.506521,-99.500133)">
    <path
       id="rect11527-5"
       style="display:inline;fill:none;fill-opacity:1;stroke:#000000;stroke-width:0.076;stroke-linecap:round;stroke-miterlimit:4;stroke-dasharray:none"
       d="M 51.544521,99.538133 V 197.46187 H 151.46814 V 99.538133 Z m 4.711857,2.582267 a 1.6,1.6 0 0 1 1.599902,1.59991 1.6,1.6 0 0 1 -1.599902,1.5999 1.6,1.6 0 0 1 -1.60042,-1.5999 1.6,1.6 0 0 1 1.60042,-1.59991 z m 90.499902,0 a 1.6,1.6 0 0 1 1.60042,1.59991 1.6,1.6 0 0 1 -1.60042,1.5999 1.6,1.6 0 0 1 -1.5999,-1.5999 1.6,1.6 0 0 1 1.5999,-1.59991 z m -45.24995,0.36949 a 1.6,1.6 0 0 1 1.5999,1.60042 1.6,1.6 0 0 1 -1.5999,1.5999 1.6,1.6 0 0 1 -1.599904,-1.5999 1.6,1.6 0 0 1 1.599904,-1.60042 z m -45.249952,87.46702 a 1.6,1.6 0 0 1 1.599902,1.60042 1.6,1.6 0 0 1 -1.599902,1.5999 1.6,1.6 0 0 1 -1.60042,-1.5999 1.6,1.6 0 0 1 1.60042,-1.60042 z m 90.499902,0 a 1.6,1.6 0 0 1 1.60042,1.60042 1.6,1.6 0 0 1 -1.60042,1.5999 1.6,1.6 0 0 1 -1.5999,-1.5999 1.6,1.6 0 0 1 1.5999,-1.60042 z m -45.24995,1.35289 a 1.6,1.6 0 0 1 1.5999,1.60041 1.6,1.6 0 0 1 -1.5999,1.59991 1.6,1.6 0 0 1 -1.599904,-1.59991 1.6,1.6 0 0 1 1.599904,-1.60041 z" />
  </g>
</svg>
