<?xml version="1.0" encoding="UTF-8" standalone="no"?>
<!-- Created with Inkscape (http://www.inkscape.org/) -->

<svg
   width="99.999619mm"
   height="119.99995mm"
   viewBox="0 0 99.999619 119.99995"
   version="1.1"
   id="svg74731"
   inkscape:version="1.2.2 (b0a8486, 2022-12-01)"
   sodipodi:docname="3mm-Black-Back_Layer.svg"
   xmlns:inkscape="http://www.inkscape.org/namespaces/inkscape"
   xmlns:sodipodi="http://sodipodi.sourceforge.net/DTD/sodipodi-0.dtd"
   xmlns="http://www.w3.org/2000/svg"
   xmlns:svg="http://www.w3.org/2000/svg">
  <sodipodi:namedview
     id="namedview74733"
     pagecolor="#ffffff"
     bordercolor="#666666"
     borderopacity="1.0"
     inkscape:showpageshadow="2"
     inkscape:pageopacity="0.0"
     inkscape:pagecheckerboard="0"
     inkscape:deskcolor="#d1d1d1"
     inkscape:document-units="mm"
     showgrid="false"
     inkscape:zoom="2.5730739"
     inkscape:cx="188.87915"
     inkscape:cy="226.77157"
     inkscape:current-layer="layer1" />
  <defs
     id="defs74728" />
  <g
     inkscape:label="Capa 1"
     inkscape:groupmode="layer"
     id="layer1"
     transform="translate(-51.50652,-88.500025)">
    <path
       id="rect11527"
       style="display:inline;fill:none;fill-opacity:1;stroke:#000000;stroke-width:0.076;stroke-linecap:round;stroke-miterlimit:4;stroke-dasharray:none"
       d="M 51.54452,88.538025 V 208.46198 h 99.92362 V 88.538025 Z m 4.711857,3.36155 c 0.07609,9e-5 0.152075,0.006 0.227377,0.0165 0.151093,0.0216 0.298317,0.0648 0.437182,0.12816 0.06918,0.0317 0.136017,0.0683 0.199988,0.10955 0.06416,0.0412 0.1253,0.087 0.182935,0.13694 0.05749,0.0497 0.111371,0.10339 0.16123,0.16072 l 5.17e-4,5.1e-4 5.17e-4,5.2e-4 c 0.09929,0.1147 0.181766,0.24294 0.244946,0.38086 l 5.17e-4,0.002 5.16e-4,0.002 c 0.03134,0.0688 0.05776,0.13981 0.07906,0.21239 0.02149,0.0732 0.03772,0.14776 0.04858,0.22324 0.01094,0.0755 0.01646,0.15164 0.01654,0.2279 -3.53e-4,0.20873 -0.04161,0.4157 -0.121439,0.60874 -10e-4,0.002 -0.0021,0.005 -0.0031,0.007 -0.07966,0.19061 -0.195484,0.36399 -0.341065,0.51056 -0.0026,0.003 -0.0052,0.005 -0.0078,0.008 -0.146982,0.14593 -0.320912,0.26194 -0.512113,0.34158 -0.0017,0.001 -0.0034,0.002 -0.0052,0.003 -0.193202,0.0799 -0.400197,0.12116 -0.609265,0.12144 -0.209069,-2.8e-4 -0.416065,-0.0415 -0.609265,-0.12144 -0.0021,-10e-4 -0.0041,-0.002 -0.0062,-0.003 -0.191018,-0.0797 -0.364766,-0.1957 -0.511597,-0.34158 -0.0026,-0.003 -0.0052,-0.005 -0.0078,-0.008 -0.145581,-0.14657 -0.261405,-0.31995 -0.341065,-0.51056 -10e-4,-0.002 -0.0021,-0.005 -0.0031,-0.007 -0.07983,-0.19304 -0.121086,-0.40001 -0.121439,-0.60874 1.49e-4,-0.20942 0.04141,-0.41677 0.121439,-0.6103 6.88e-4,-10e-4 0.0014,-0.003 0.0021,-0.004 0.07986,-0.19207 0.19642,-0.36672 0.343132,-0.51418 0.0017,-0.002 0.0034,-0.003 0.0052,-0.005 0.147457,-0.14671 0.322115,-0.26326 0.51418,-0.34313 0.0014,-6.7e-4 0.0028,-10e-4 0.0041,-0.002 0.193524,-0.08 0.400883,-0.12129 0.610299,-0.12144 z m 90.499903,0 c 0.0763,6e-5 0.15242,0.006 0.22789,0.0165 0.15054,0.0216 0.29723,0.0646 0.43563,0.12764 l 0.001,5.2e-4 0.002,5.1e-4 c 0.0686,0.0316 0.13495,0.068 0.19844,0.10904 0.19301,0.12402 0.35709,0.2881 0.48111,0.48111 0.041,0.0635 0.0774,0.1298 0.10904,0.19844 l 5.1e-4,0.002 5.2e-4,0.002 c 0.063,0.13841 0.10601,0.28509 0.12764,0.43563 0.0109,0.0755 0.0165,0.15164 0.0165,0.2279 -3.5e-4,0.20873 -0.0416,0.4157 -0.12144,0.60874 -0.001,0.002 -0.002,0.005 -0.003,0.007 -0.0797,0.19061 -0.19548,0.36399 -0.34106,0.51056 -0.003,0.003 -0.005,0.005 -0.008,0.008 -0.14684,0.14588 -0.32058,0.26188 -0.5116,0.34158 -0.002,0.001 -0.004,0.002 -0.006,0.003 -0.1932,0.0799 -0.40019,0.12116 -0.60927,0.12144 -0.20907,-2.8e-4 -0.41608,-0.0415 -0.60926,-0.12144 -0.002,-10e-4 -0.004,-0.002 -0.005,-0.003 -0.19121,-0.0796 -0.36515,-0.19565 -0.51211,-0.34158 -0.003,-0.003 -0.005,-0.005 -0.008,-0.008 -0.14559,-0.14657 -0.26141,-0.31995 -0.34107,-0.51056 -0.001,-0.002 -0.002,-0.005 -0.003,-0.007 -0.0798,-0.19304 -0.12109,-0.40001 -0.12144,-0.60874 2.9e-4,-0.20907 0.0415,-0.41606 0.12144,-0.60927 8.6e-4,-0.002 0.002,-0.004 0.003,-0.006 0.0797,-0.19102 0.1957,-0.36477 0.34158,-0.5116 0.003,-0.003 0.005,-0.005 0.008,-0.008 0.14693,-0.14612 0.32087,-0.26231 0.51212,-0.3421 0.002,-6.7e-4 0.004,-10e-4 0.005,-0.002 0.19313,-0.0802 0.40012,-0.12192 0.60926,-0.12248 z M 56.256377,102.12015 c 0.883563,4e-5 1.599848,0.71632 1.599903,1.5999 -5.5e-5,0.88357 -0.71634,1.59985 -1.599903,1.59989 -0.883765,2.3e-4 -1.600364,-0.71611 -1.600419,-1.59989 5.5e-5,-0.88379 0.716654,-1.60014 1.600419,-1.5999 z m 90.499903,0 c 0.88376,-2.3e-4 1.60036,0.71611 1.60042,1.5999 -6e-5,0.88378 -0.71666,1.60013 -1.60042,1.59989 -0.88356,-4e-5 -1.59985,-0.71632 -1.5999,-1.59989 5e-5,-0.88358 0.71634,-1.59986 1.5999,-1.5999 z m -84.33232,2.33577 h 13.999662 v 13.99966 H 62.42396 Z m 21.388358,0 H 97.81198 v 13.99966 H 83.812318 Z m 21.388362,0 h 13.99966 v 13.99966 h -13.99966 z m 21.38835,0 h 13.99967 v 13.99966 h -13.99967 z m -32.082791,24.9101 H 108.50642 V 143.3662 H 94.506239 Z M 62.42396,153.13459 h 13.999662 v 14.00018 H 62.42396 Z m 32.082279,0 h 14.000181 v 14.00018 H 94.506239 Z m 32.082791,0 h 13.99967 v 14.00018 h -13.99967 z m -64.16507,27.88978 h 13.999662 v 13.99966 H 62.42396 Z m 40.16396,0 h 14.00018 v 13.99966 h -14.00018 z m 32.56235,3.70004 a 3.5,3.5 0 0 1 3.50004,3.50004 3.5,3.5 0 0 1 -3.50004,3.50005 3.5,3.5 0 0 1 -3.50005,-3.50005 3.5,3.5 0 0 1 3.50005,-3.50004 z m -78.893893,5.23223 c 0.883767,5e-5 1.600135,0.71664 1.599903,1.60042 -5.5e-5,0.88342 -0.71634,1.59985 -1.599903,1.5999 -0.883765,2.3e-4 -1.600364,-0.71629 -1.600419,-1.5999 -2.32e-4,-0.88398 0.716451,-1.60064 1.600419,-1.60042 z m 90.499903,0 c 0.88397,-2.2e-4 1.60065,0.71644 1.60042,1.60042 -6e-5,0.88361 -0.71666,1.60013 -1.60042,1.5999 -0.88356,-5e-5 -1.59985,-0.71649 -1.5999,-1.5999 -2.4e-4,-0.88378 0.71613,-1.60037 1.5999,-1.60042 z m -12.60595,4.06746 h 1.99988 v 0.99993 h -1.99988 z m -77.893953,7.87549 c 0.07332,3.1e-4 0.146527,0.006 0.219108,0.016 0.0038,3.2e-4 0.0076,7.7e-4 0.01137,0.001 0.07089,0.0106 0.140982,0.026 0.209807,0.046 0.0052,9.9e-4 0.01034,0.003 0.0155,0.004 0.0659,0.0198 0.130459,0.0437 0.19327,0.0718 0.0083,0.004 0.01657,0.007 0.02481,0.0109 0.06254,0.0291 0.123124,0.0623 0.181384,0.0992 0.0052,0.003 0.01035,0.007 0.0155,0.01 0.05811,0.0379 0.113692,0.0795 0.166398,0.12454 0.0062,0.005 0.01244,0.0106 0.0186,0.016 0.05029,0.0442 0.09775,0.0915 0.14211,0.14159 0.0075,0.009 0.01491,0.0174 0.02222,0.0263 0.04367,0.0513 0.08406,0.10534 0.120923,0.16175 0.0033,0.005 0.0066,0.0103 0.0098,0.0155 0.03695,0.0583 0.07009,0.11885 0.09922,0.18139 0.0037,0.008 0.0073,0.0165 0.01085,0.0248 0.02807,0.0628 0.05207,0.12737 0.07183,0.19327 0.0014,0.005 0.0028,0.0103 0.0041,0.0155 0.02001,0.0688 0.03538,0.13891 0.04599,0.20979 3.57e-4,0.004 7.15e-4,0.008 10e-4,0.0114 0.01035,0.0726 0.01571,0.14579 0.01602,0.21911 -4.3e-5,0.21015 -0.04149,0.41823 -0.121956,0.61236 -0.08035,0.19421 -0.198179,0.3707 -0.346749,0.51935 -0.299998,0.30005 -0.706906,0.46864 -1.131197,0.46871 -0.209417,-1.5e-4 -0.416776,-0.0414 -0.610299,-0.12144 -0.0014,-6.6e-4 -0.0027,-0.001 -0.0041,-0.002 -0.192065,-0.0799 -0.366723,-0.19642 -0.514181,-0.34313 -0.0017,-0.002 -0.0034,-0.003 -0.0052,-0.005 -0.146711,-0.14746 -0.263267,-0.32211 -0.343131,-0.51418 -6.92e-4,-0.001 -0.0014,-0.003 -0.0021,-0.004 -0.08003,-0.19352 -0.121289,-0.40087 -0.12144,-0.61029 2.84e-4,-0.20907 0.04154,-0.41606 0.12144,-0.60927 6.87e-4,-0.002 0.0014,-0.003 0.0021,-0.005 0.07979,-0.19125 0.19598,-0.36517 0.342098,-0.51211 0.0026,-0.003 0.0052,-0.005 0.0078,-0.008 0.146831,-0.14588 0.320579,-0.26188 0.511597,-0.34158 0.0021,-0.001 0.0041,-0.002 0.0062,-0.003 0.1932,-0.0799 0.400196,-0.12116 0.609265,-0.12144 z m 90.499903,0 c 0.0763,6e-5 0.15242,0.006 0.22789,0.0165 0.0744,0.0108 0.14798,0.0269 0.22014,0.0481 l 0.003,5.1e-4 0.002,5.2e-4 c 0.0684,0.0203 0.13541,0.0452 0.20051,0.0744 0.006,0.003 0.0121,0.005 0.0181,0.008 0.0622,0.029 0.12241,0.062 0.18035,0.0987 0.007,0.005 0.0148,0.0105 0.0222,0.0155 0.0581,0.0379 0.11369,0.0795 0.1664,0.12455 0.005,0.004 0.009,0.008 0.0139,0.0119 0.0526,0.0461 0.10217,0.0957 0.14831,0.14831 0.004,0.005 0.009,0.0105 0.0129,0.0155 0.0457,0.0533 0.0878,0.1096 0.12609,0.16846 0.003,0.005 0.007,0.0103 0.01,0.0155 0.0374,0.0587 0.0709,0.11932 0.10025,0.18242 0.003,0.007 0.006,0.0146 0.009,0.0217 0.0283,0.0635 0.0525,0.12871 0.0724,0.19533 0.001,0.005 0.003,0.0103 0.004,0.0155 0.02,0.069 0.0354,0.13926 0.046,0.21032 l 5.2e-4,0.003 c 1.7e-4,0.002 3.5e-4,0.005 5.1e-4,0.007 0.0104,0.0731 0.0158,0.14683 0.016,0.22066 -4e-5,0.21015 -0.0415,0.41825 -0.12195,0.61237 -0.0803,0.19421 -0.1982,0.37069 -0.34675,0.51935 -0.14866,0.14857 -0.32514,0.2664 -0.51935,0.34675 -0.19411,0.0805 -0.40221,0.12191 -0.61236,0.12195 -0.20908,-2.8e-4 -0.41608,-0.0415 -0.60927,-0.12144 -0.002,-6.6e-4 -0.004,-0.001 -0.005,-0.002 -0.19125,-0.0798 -0.36519,-0.19598 -0.51211,-0.3421 -0.003,-0.003 -0.005,-0.005 -0.008,-0.008 -0.14588,-0.14683 -0.26189,-0.32058 -0.34158,-0.5116 -8.7e-4,-0.002 -0.002,-0.004 -0.003,-0.006 -0.0799,-0.19321 -0.12116,-0.4002 -0.12144,-0.60927 2.8e-4,-0.20907 0.0415,-0.41606 0.12144,-0.60926 8.6e-4,-0.002 0.002,-0.003 0.003,-0.005 0.0796,-0.1912 0.19564,-0.36513 0.34158,-0.51211 0.003,-0.003 0.005,-0.005 0.008,-0.008 0.14697,-0.14593 0.32091,-0.26195 0.51211,-0.34159 0.002,-9.9e-4 0.004,-0.002 0.005,-0.003 0.19311,-0.0803 0.40012,-0.12185 0.60927,-0.12248 z" />
  </g>
</svg>
