<?xml version="1.0" encoding="UTF-8" standalone="no"?>
<!-- Created with Inkscape (http://www.inkscape.org/) -->

<svg
   width="49.99958mm"
   height="119.99996mm"
   viewBox="0 0 49.99958 119.99996"
   version="1.1"
   id="svg1615"
   inkscape:version="1.2.2 (b0a8486, 2022-12-01)"
   sodipodi:docname="engrave_NoVectorizedText.svg"
   xmlns:inkscape="http://www.inkscape.org/namespaces/inkscape"
   xmlns:sodipodi="http://sodipodi.sourceforge.net/DTD/sodipodi-0.dtd"
   xmlns="http://www.w3.org/2000/svg"
   xmlns:svg="http://www.w3.org/2000/svg">
  <sodipodi:namedview
     id="namedview1617"
     pagecolor="#ffffff"
     bordercolor="#666666"
     borderopacity="1.0"
     inkscape:showpageshadow="2"
     inkscape:pageopacity="0.0"
     inkscape:pagecheckerboard="0"
     inkscape:deskcolor="#d1d1d1"
     inkscape:document-units="mm"
     showgrid="false"
     inkscape:zoom="2.5730737"
     inkscape:cx="94.439579"
     inkscape:cy="226.77158"
     inkscape:current-layer="layer14" />
  <defs
     id="defs1612" />
  <g
     inkscape:label="Capa 1"
     inkscape:groupmode="layer"
     id="layer1"
     transform="translate(-2.3336024e-4,-2.3280024e-4)">
    <path
       id="rect3678"
       style="display:inline;fill:none;fill-opacity:1;stroke:#000000;stroke-width:0.0760144;stroke-linecap:round;stroke-miterlimit:4;stroke-dasharray:none"
       d="m 10.047965,0.03824 v 4.99659 c -1.68e-4,2.75964 -2.2412139,4.99671 -5.0053788,4.9966 H 0.03824056 v 99.93705 H 5.0425862 c 2.7641643,-1.1e-4 5.0052098,2.23695 5.0053788,4.9966 v 4.99711 h 29.904118 v -4.99711 c 1.71e-4,-2.75965 2.241215,-4.99671 5.005379,-4.9966 h 5.004346 V 10.03143 h -5.004346 c -2.764164,1.1e-4 -5.005208,-2.23696 -5.005379,-4.9966 V 0.03824 Z m -5.3231888,12.5336 a 1.6,1.6 0 0 1 1.5999023,1.5999 1.6,1.6 0 0 1 -1.5999023,1.59991 1.6,1.6 0 0 1 -1.5999024,-1.59991 1.6,1.6 0 0 1 1.5999024,-1.5999 z m 40.5003698,0 a 1.6,1.6 0 0 1 1.599903,1.5999 1.6,1.6 0 0 1 -1.599903,1.59991 1.6,1.6 0 0 1 -1.600419,-1.59991 1.6,1.6 0 0 1 1.600419,-1.5999 z M 6.2497478,19.99154 H 43.749784 V 57.49158 H 6.2497477 Z M 25.000024,74.31846 c 3.323997,0 6.000151,2.67615 6.000151,6.00015 v 9.99991 c 0,3.32399 -2.676154,5.99963 -6.000151,5.99963 -3.323997,0 -6.00015,-2.67564 -6.00015,-5.99963 v -9.99991 c 0,-3.324 2.676153,-6.00015 6.00015,-6.00015 z M 4.7247762,104.30423 a 1.6,1.6 0 0 1 1.5999023,1.5999 1.6,1.6 0 0 1 -1.5999023,1.5999 1.6,1.6 0 0 1 -1.5999023,-1.5999 1.6,1.6 0 0 1 1.5999023,-1.5999 z m 40.5003698,0 a 1.6,1.6 0 0 1 1.599903,1.5999 1.6,1.6 0 0 1 -1.599903,1.5999 1.6,1.6 0 0 1 -1.600419,-1.5999 1.6,1.6 0 0 1 1.600419,-1.5999 z" />
    <g
       inkscape:groupmode="layer"
       id="layer14"
       inkscape:label="Front Text"
       style="display:inline;fill:#000000"
       transform="translate(0.03800025,-176.962)">
      <text
         xml:space="preserve"
         style="font-style:normal;font-weight:normal;font-size:4.58611px;line-height:1.25;font-family:sans-serif;letter-spacing:0px;word-spacing:0px;fill:#000000;fill-opacity:1;stroke:none;stroke-width:0.264583"
         x="10.794984"
         y="184.46634"
         id="text12344"
         inkscape:label="Title Text"><tspan
           sodipodi:role="line"
           id="tspan12342"
           x="10.794984"
           y="184.46634"
           style="font-style:normal;font-variant:normal;font-weight:normal;font-stretch:normal;font-size:4.58611px;font-family:'MS 33558';-inkscape-font-specification:'MS 33558, ';fill:#000000;stroke-width:0.264583">MOVEMENT</tspan></text>
      <text
         id="text14353"
         y="245.45406"
         x="12.070411"
         style="font-style:normal;font-weight:normal;font-size:2.82222px;line-height:1.25;font-family:sans-serif;letter-spacing:0px;word-spacing:0px;fill:#000000;fill-opacity:1;stroke:none;stroke-width:0.264583"
         xml:space="preserve"
         inkscape:label="Configuration Text"><tspan
           style="font-style:normal;font-variant:normal;font-weight:normal;font-stretch:normal;font-size:2.82222px;font-family:'MS 33558';-inkscape-font-specification:'MS 33558, ';fill:#000000;stroke-width:0.264583"
           y="245.45406"
           x="12.070411"
           id="tspan14351"
           sodipodi:role="line">Configuration</tspan></text>
      <text
         xml:space="preserve"
         style="font-style:normal;font-weight:normal;font-size:2.82222px;line-height:1.25;font-family:sans-serif;letter-spacing:0px;word-spacing:0px;fill:#000000;fill-opacity:1;stroke:none;stroke-width:0.264583"
         x="18.37636"
         y="250.38828"
         id="text14794"
         inkscape:label="Expand Configuration Text"><tspan
           sodipodi:role="line"
           id="tspan14792"
           x="18.37636"
           y="250.38828"
           style="font-style:normal;font-variant:normal;font-weight:normal;font-stretch:normal;font-size:2.82222px;font-family:'MS 33558';-inkscape-font-specification:'MS 33558, ';fill:#000000;stroke-width:0.264583">Expand</tspan></text>
      <text
         xml:space="preserve"
         style="font-style:normal;font-weight:normal;font-size:2.82222px;line-height:1.25;font-family:sans-serif;letter-spacing:0px;word-spacing:0px;fill:#000000;fill-opacity:1;stroke:none;stroke-width:0.264583"
         x="17.388992"
         y="276.99393"
         id="text11965"
         inkscape:label="Retract Configuration Text"><tspan
           sodipodi:role="line"
           id="tspan11963"
           x="17.388992"
           y="276.99393"
           style="font-style:normal;font-variant:normal;font-weight:normal;font-stretch:normal;font-size:2.82222px;font-family:'MS 33558';-inkscape-font-specification:'MS 33558, ';fill:#000000;stroke-width:0.264583">Retract</tspan></text>
    </g>
  </g>
</svg>
