<?xml version="1.0" encoding="UTF-8" standalone="no"?>
<!-- Created with Inkscape (http://www.inkscape.org/) -->

<svg
   width="99.999619mm"
   height="119.99995mm"
   viewBox="0 0 99.999619 119.99995"
   version="1.1"
   id="svg3340"
   inkscape:version="1.2.2 (b0a8486, 2022-12-01)"
   sodipodi:docname="engrave_NoVectorizedText.svg"
   xmlns:inkscape="http://www.inkscape.org/namespaces/inkscape"
   xmlns:sodipodi="http://sodipodi.sourceforge.net/DTD/sodipodi-0.dtd"
   xmlns="http://www.w3.org/2000/svg"
   xmlns:svg="http://www.w3.org/2000/svg">
  <sodipodi:namedview
     id="namedview3342"
     pagecolor="#ffffff"
     bordercolor="#666666"
     borderopacity="1.0"
     inkscape:showpageshadow="2"
     inkscape:pageopacity="0.0"
     inkscape:pagecheckerboard="0"
     inkscape:deskcolor="#d1d1d1"
     inkscape:document-units="mm"
     showgrid="false"
     inkscape:zoom="2.5730741"
     inkscape:cx="188.87913"
     inkscape:cy="226.77155"
     inkscape:current-layer="layer1" />
  <defs
     id="defs3337" />
  <g
     inkscape:label="Capa 1"
     inkscape:groupmode="layer"
     id="layer1"
     transform="translate(-2.4056122e-4,-2.4000122e-4)">
    <path
       id="rect3678"
       style="display:inline;fill:none;fill-opacity:1;stroke:#000000;stroke-width:0.076;stroke-linecap:round;stroke-miterlimit:4;stroke-dasharray:none"
       d="m 10.030395,0.03824 v 4.99659 c -1.31e-4,2.75974 -2.2372433,4.99682 -4.9965938,4.9966 H 0.03824056 v 99.93705 H 5.0338012 c 2.7593505,-2.2e-4 4.9964628,2.23686 4.9965938,4.9966 v 4.99711 h 79.939307 v -4.99711 c 1.31e-4,-2.75974 2.237247,-4.99682 4.996594,-4.9966 h 4.995561 V 10.03143 h -4.995561 c -2.759347,2.2e-4 -4.996463,-2.23686 -4.996594,-4.9966 V 0.03824 Z M 8.417574,13.45603 H 27.417448 V 32.4559 H 8.417574 Z m 21.388358,0 H 48.805806 V 32.4559 H 29.805932 Z m 21.388359,0 H 70.194165 V 32.4559 H 51.194291 Z m 21.388358,0 H 91.582523 V 32.4559 H 72.582649 Z M 4.7500976,13.62036 c 0.8835667,5e-5 1.5998472,0.71632 1.5999024,1.5999 -5.52e-5,0.88358 -0.7163357,1.59985 -1.5999024,1.5999 -0.8837685,2.3e-4 -1.6003639,-0.71612 -1.6004191,-1.5999 5.52e-5,-0.88378 0.7166506,-1.60013 1.6004191,-1.5999 z m 90.4999024,0 c 0.883767,-2.3e-4 1.600364,0.71612 1.600419,1.5999 -5.5e-5,0.88378 -0.716652,1.60013 -1.600419,1.5999 -0.883566,-5e-5 -1.599848,-0.71632 -1.599903,-1.5999 5.5e-5,-0.88358 0.716337,-1.59985 1.599903,-1.5999 z M 40.499853,38.36665 H 59.500244 V 57.36652 H 40.499853 Z M 8.417574,62.13471 H 27.417448 V 81.13458 H 8.417574 Z m 32.082279,0 H 59.500244 V 81.13458 H 40.499853 Z m 32.082796,0 H 91.582523 V 81.13458 H 72.582649 Z M 8.417574,90.02448 h 18.999874 v 18.99987 H 8.417574 Z m 40.163957,0 h 19.00039 v 18.99987 h -19.00039 z m 35.062459,1.94975 a 7.5500002,7.5500002 0 0 1 7.549927,7.55044 7.5500002,7.5500002 0 0 1 -7.549927,7.54993 7.5500002,7.5500002 0 0 1 -7.549927,-7.54993 7.5500002,7.5500002 0 0 1 7.549927,-7.55044 z m -78.8938924,9.48263 c 0.8837698,5e-5 1.6001344,0.71664 1.5999024,1.60042 -5.52e-5,0.88345 -0.7163357,1.59985 -1.5999024,1.5999 -0.8837685,2.3e-4 -1.6003639,-0.71625 -1.6004191,-1.5999 -2.321e-4,-0.88398 0.7164475,-1.60065 1.6004191,-1.60042 z m 90.4999024,0 c 0.88397,-2.3e-4 1.600651,0.71644 1.600419,1.60042 -5.5e-5,0.88365 -0.716652,1.60013 -1.600419,1.5999 -0.883566,-5e-5 -1.599848,-0.71645 -1.599903,-1.5999 -2.32e-4,-0.88378 0.716134,-1.60037 1.599903,-1.60042 z" />
    <text
       xml:space="preserve"
       style="font-style:normal;font-weight:normal;font-size:4.93889px;line-height:1.25;font-family:sans-serif;letter-spacing:0px;word-spacing:0px;display:inline;fill:#000000;fill-opacity:1;stroke:none;stroke-width:0.264583"
       x="38.731991"
       y="7.4663391"
       id="text12344"><tspan
         sodipodi:role="line"
         id="tspan12342"
         x="38.731991"
         y="7.4663391"
         style="font-style:normal;font-variant:normal;font-weight:normal;font-stretch:normal;font-size:4.93889px;font-family:'MS 33558';-inkscape-font-specification:'MS 33558, ';fill:#000000;stroke-width:0.264583">TORRET</tspan></text>
    <text
       xml:space="preserve"
       style="font-style:normal;font-weight:normal;font-size:2.82222px;line-height:1.25;font-family:sans-serif;letter-spacing:0px;word-spacing:0px;display:inline;fill:#000000;fill-opacity:1;stroke:none;stroke-width:0.264583"
       x="60.851665"
       y="88.374298"
       id="text3013"><tspan
         sodipodi:role="line"
         id="tspan3011"
         x="60.851665"
         y="88.374298"
         style="font-style:normal;font-variant:normal;font-weight:normal;font-stretch:normal;font-size:2.82222px;font-family:'MS 33558';-inkscape-font-specification:'MS 33558, ';fill:#000000;stroke-width:0.264583">SPEED LIMIT</tspan></text>
    <text
       id="text3017"
       y="88.37381"
       x="8.3069124"
       style="font-style:normal;font-weight:normal;font-size:2.82222px;line-height:1.25;font-family:sans-serif;letter-spacing:0px;word-spacing:0px;display:inline;fill:#000000;fill-opacity:1;stroke:none;stroke-width:0.264583"
       xml:space="preserve"><tspan
         style="font-style:normal;font-variant:normal;font-weight:normal;font-stretch:normal;font-size:2.82222px;font-family:'MS 33558';-inkscape-font-specification:'MS 33558, ';fill:#000000;stroke-width:0.264583"
         y="88.37381"
         x="8.3069124"
         id="tspan3015"
         sodipodi:role="line">FIRE MODE</tspan></text>
  </g>
</svg>
