<?xml version="1.0" encoding="UTF-8" standalone="no"?>
<!-- Created with Inkscape (http://www.inkscape.org/) -->

<svg
   width="49.999569mm"
   height="119.99995mm"
   viewBox="0 0 49.999569 119.99995"
   version="1.1"
   id="svg20017"
   inkscape:version="1.2.2 (b0a8486, 2022-12-01)"
   sodipodi:docname="engrave_NoVectorizedText.svg"
   xmlns:inkscape="http://www.inkscape.org/namespaces/inkscape"
   xmlns:sodipodi="http://sodipodi.sourceforge.net/DTD/sodipodi-0.dtd"
   xmlns="http://www.w3.org/2000/svg"
   xmlns:svg="http://www.w3.org/2000/svg">
  <sodipodi:namedview
     id="namedview20019"
     pagecolor="#ffffff"
     bordercolor="#666666"
     borderopacity="1.0"
     inkscape:showpageshadow="2"
     inkscape:pageopacity="0.0"
     inkscape:pagecheckerboard="0"
     inkscape:deskcolor="#d1d1d1"
     inkscape:document-units="mm"
     showgrid="false"
     inkscape:zoom="2.5730741"
     inkscape:cx="94.439567"
     inkscape:cy="226.77155"
     inkscape:current-layer="layer1" />
  <defs
     id="defs20014" />
  <g
     inkscape:label="Capa 1"
     inkscape:groupmode="layer"
     id="layer1"
     transform="translate(-2.4056122e-4,-2.4000122e-4)">
    <path
       id="rect3678"
       style="display:inline;fill:none;fill-opacity:1;stroke:#000000;stroke-width:0.076;stroke-linecap:round;stroke-miterlimit:4;stroke-dasharray:none"
       d="m 10.047966,0.03824 v 4.99659 c -1.71e-4,2.75964 -2.2412374,4.99671 -5.0053797,4.9966 H 0.03824056 v 99.93705 H 5.0425863 c 2.7641417,-1.1e-4 5.0052077,2.23696 5.0053797,4.9966 v 4.99711 h 29.904118 v -4.99711 c 1.7e-4,-2.75964 2.241241,-4.99671 5.005379,-4.9966 h 5.004346 V 10.03143 h -5.004346 c -2.764138,1.1e-4 -5.005209,-2.23696 -5.005379,-4.9966 V 0.03824 Z m -5.3231898,12.5336 c 0.8835775,5e-5 1.5998471,0.71633 1.5999023,1.5999 -4.97e-5,0.88358 -0.7163209,1.59986 -1.5999023,1.59991 -0.8837832,2.3e-4 -1.6003694,-0.71613 -1.6004191,-1.59991 5.52e-5,-0.88377 0.7166398,-1.60013 1.6004191,-1.5999 z m 40.4998538,0 c 0.883779,-2.3e-4 1.600364,0.71613 1.600419,1.5999 -5e-5,0.88378 -0.716636,1.60014 -1.600419,1.59991 -0.883581,-5e-5 -1.599852,-0.71633 -1.599902,-1.59991 5.5e-5,-0.88357 0.716325,-1.59985 1.599902,-1.5999 z M 13.200745,33.66461 c 3.323997,0 6.000151,2.67616 6.000151,6.00015 v 9.99991 c 0,3.324 -2.676154,6.00015 -6.000151,6.00015 -3.323997,0 -6.0001509,-2.67615 -6.0001509,-6.00015 v -9.99991 c 0,-3.32399 2.6761539,-6.00015 6.0001509,-6.00015 z m 14.048238,3.22513 H 46.248857 V 93.88936 H 27.248983 Z M 3.7005493,59.9829 H 22.70094 V 98.41415 H 3.7005493 Z m 1.0242269,44.32133 c 0.8835775,5e-5 1.5998471,0.71632 1.5999023,1.5999 -5.52e-5,0.88358 -0.7163248,1.59985 -1.5999023,1.5999 -0.8837793,2.3e-4 -1.6003639,-0.71612 -1.6004191,-1.5999 5.52e-5,-0.88378 0.7166398,-1.60013 1.6004191,-1.5999 z m 40.4998538,0 c 0.883779,-2.3e-4 1.600364,0.71612 1.600419,1.5999 -5.5e-5,0.88378 -0.71664,1.60013 -1.600419,1.5999 -0.883577,-5e-5 -1.599847,-0.71632 -1.599902,-1.5999 5.5e-5,-0.88358 0.716325,-1.59985 1.599902,-1.5999 z" />
    <g
       inkscape:groupmode="layer"
       id="layer14"
       inkscape:label="Front Text"
       style="display:inline;fill:#000000"
       transform="translate(0.03798648,-176.96201)">
      <text
         xml:space="preserve"
         style="font-style:normal;font-weight:normal;font-size:4.93889px;line-height:1.25;font-family:sans-serif;text-align:center;letter-spacing:0px;word-spacing:0px;text-anchor:middle;fill:#000000;fill-opacity:1;stroke:none;stroke-width:0.264583"
         x="25.233379"
         y="184.46634"
         id="text12344"
         inkscape:label="Title Text"><tspan
           sodipodi:role="line"
           id="tspan12342"
           x="25.233379"
           y="184.46634"
           style="font-style:normal;font-variant:normal;font-weight:normal;font-stretch:normal;font-size:4.93889px;font-family:'MS 33558';-inkscape-font-specification:'MS 33558, ';text-align:center;text-anchor:middle;fill:#000000;stroke-width:0.264583">DOCKING</tspan><tspan
           sodipodi:role="line"
           x="25.233379"
           y="191.28528"
           style="font-style:normal;font-variant:normal;font-weight:normal;font-stretch:normal;font-size:4.93889px;font-family:'MS 33558';-inkscape-font-specification:'MS 33558, ';text-align:center;text-anchor:middle;fill:#000000;stroke-width:0.264583"
           id="tspan54639">LANDING</tspan></text>
      <text
         id="text25587"
         y="212.00694"
         x="29.783722"
         style="font-style:normal;font-weight:normal;font-size:2.82222px;line-height:1.25;font-family:sans-serif;letter-spacing:0px;word-spacing:0px;display:inline;opacity:1;fill:#000000;fill-opacity:1;stroke:none;stroke-width:0.264583"
         xml:space="preserve"
         inkscape:label="Landing Sytem Text"><tspan
           style="font-style:normal;font-variant:normal;font-weight:normal;font-stretch:normal;font-size:2.82222px;font-family:'MS 33558';-inkscape-font-specification:'MS 33558, ';fill:#000000;stroke-width:0.264583"
           y="212.00694"
           x="29.783722"
           sodipodi:role="line"
           id="tspan25585">DOCKING</tspan></text>
      <text
         xml:space="preserve"
         style="font-style:normal;font-weight:normal;font-size:2.82222px;line-height:1.25;font-family:sans-serif;text-align:center;letter-spacing:0px;word-spacing:0px;text-anchor:middle;display:inline;opacity:1;fill:#000000;fill-opacity:1;stroke:none;stroke-width:0.264583"
         x="13.360466"
         y="210.26126"
         id="text23464"
         inkscape:label="Down  LandingText"><tspan
           sodipodi:role="line"
           x="13.360466"
           y="210.26126"
           style="font-style:normal;font-variant:normal;font-weight:normal;font-stretch:normal;font-size:2.82222px;font-family:'MS 33558';-inkscape-font-specification:'MS 33558, ';text-align:center;text-anchor:middle;fill:#000000;stroke-width:0.264583"
           id="tspan23462">Retract</tspan></text>
      <text
         xml:space="preserve"
         style="font-style:normal;font-weight:normal;font-size:2.82222px;line-height:1.25;font-family:sans-serif;text-align:center;letter-spacing:0px;word-spacing:0px;text-anchor:middle;display:inline;opacity:1;fill:#000000;fill-opacity:1;stroke:none;stroke-width:0.264583"
         x="13.360466"
         y="235.81317"
         id="text17587"
         inkscape:label="Down  LandingText"><tspan
           sodipodi:role="line"
           x="13.360466"
           y="235.81317"
           style="font-style:normal;font-variant:normal;font-weight:normal;font-stretch:normal;font-size:2.82222px;font-family:'MS 33558';-inkscape-font-specification:'MS 33558, ';text-align:center;text-anchor:middle;fill:#000000;stroke-width:0.264583"
           id="tspan17585">Deploy</tspan></text>
      <text
         id="text16855"
         y="201.95291"
         x="6.2356424"
         style="font-style:normal;font-weight:normal;font-size:2.82222px;line-height:1.25;font-family:sans-serif;letter-spacing:0px;word-spacing:0px;display:inline;opacity:1;fill:#000000;fill-opacity:1;stroke:none;stroke-width:0.264583"
         xml:space="preserve"
         inkscape:label="Landing Sytem Text"><tspan
           style="font-style:normal;font-variant:normal;font-weight:normal;font-stretch:normal;font-size:2.82222px;font-family:'MS 33558';-inkscape-font-specification:'MS 33558, ';fill:#000000;stroke-width:0.264583"
           y="201.95291"
           x="6.2356424"
           id="tspan16853"
           sodipodi:role="line">Landing</tspan><tspan
           style="font-style:normal;font-variant:normal;font-weight:normal;font-stretch:normal;font-size:2.82222px;font-family:'MS 33558';-inkscape-font-specification:'MS 33558, ';fill:#000000;stroke-width:0.264583"
           y="205.84944"
           x="6.2356424"
           sodipodi:role="line"
           id="tspan17583">System</tspan></text>
    </g>
  </g>
</svg>
