<?xml version="1.0" encoding="UTF-8" standalone="no"?>
<!-- Generator: Adobe Illustrator 13.0.2, SVG Export Plug-In . SVG Version: 6.00 Build 14948)  -->
<svg xmlns:inkscape="http://www.inkscape.org/namespaces/inkscape" xmlns:rdf="http://www.w3.org/1999/02/22-rdf-syntax-ns#" xmlns="http://www.w3.org/2000/svg" xmlns:cc="http://creativecommons.org/ns#" xmlns:dc="http://purl.org/dc/elements/1.1/" xmlns:sodipodi="http://sodipodi.sourceforge.net/DTD/sodipodi-0.dtd" xmlns:svg="http://www.w3.org/2000/svg" xmlns:ns1="http://sozi.baierouge.fr" xmlns:xlink="http://www.w3.org/1999/xlink" id="svg2" style="enable-background:new 0 0 427.049 566.555" sodipodi:docname="odaibanet_Mixer_knobs.svg" xml:space="preserve" viewBox="0 0 427.049 566.555" sodipodi:version="0.32" version="1.0" inkscape:output_extension="org.inkscape.output.svg.inkscape" y="0px" x="0px" inkscape:version="0.45+devel" sodipodi:docbase="D:\Mis Documentos">
<sodipodi:namedview id="base" bordercolor="#666666" inkscape:window-x="0" inkscape:guide-bbox="true" guidetolerance="10" pagecolor="#ffffff" gridtolerance="10000" inkscape:zoom="0.67960281" objecttolerance="10" inkscape:pageshadow="2" showgrid="false" borderopacity="1.0" inkscape:current-layer="layer1" inkscape:cx="195.8617" inkscape:window-y="0" inkscape:cy="92.519142" inkscape:document-units="px" inkscape:window-height="719" inkscape:pageopacity="0.0" inkscape:window-width="1280" showguides="true">
	</sodipodi:namedview>
<g id="layer1" inkscape:label="Layer 1" inkscape:groupmode="layer" transform="translate(-48.458 -131.08)">
	<g id="g7207" transform="translate(-91.23 -45.615)">
		<g id="g4232" transform="translate(0 -33.137)">
			<path id="path2160" style="stroke:#000000;fill:#0000FF" d="m192.84 211.88c-1.383 0-2.732 0.123-4.062 0.312l-0.094 2.938c-1.695 0.276-3.339 0.722-4.906 1.312l-1.562-2.5c-2.551 1.023-4.935 2.388-7.062 4.062l1.406 2.625c-1.308 1.074-2.52 2.285-3.594 3.594l-2.625-1.406c-1.668 2.12-3.041 4.49-4.062 7.031l2.5 1.562c-0.596 1.575-1.035 3.233-1.312 4.938l-2.938 0.094c-0.19 1.331-0.312 2.68-0.312 4.062s0.123 2.732 0.312 4.062l2.938 0.094c0.278 1.705 0.717 3.362 1.312 4.938l-2.5 1.562c1.022 2.541 2.394 4.912 4.062 7.031l2.625-1.406c1.074 1.308 2.286 2.52 3.594 3.594l-1.41 2.66c2.127 1.675 4.511 3.04 7.062 4.062l1.562-2.5c1.567 0.591 3.211 1.036 4.906 1.312l0.094 2.938c1.331 0.189 2.68 0.312 4.062 0.312s2.732-0.123 4.062-0.312l0.094-2.938c1.705-0.278 3.363-0.717 4.938-1.312l1.562 2.5c2.541-1.022 4.912-2.394 7.031-4.062l-1.406-2.625c1.309-1.074 2.52-2.286 3.594-3.594l2.625 1.406c1.669-2.12 3.041-4.491 4.062-7.031l-2.5-1.562c0.596-1.575 1.035-3.233 1.312-4.938l2.938-0.094c0.19-1.331 0.312-2.68 0.312-4.062s-0.123-2.732-0.312-4.062l-2.938-0.094c-0.277-1.705-0.716-3.363-1.312-4.938l2.5-1.562c-1.021-2.541-2.394-4.912-4.062-7.031l-2.625 1.406c-1.074-1.309-2.285-2.52-3.594-3.594l1.406-2.625c-2.12-1.669-4.49-3.041-7.031-4.062l-1.562 2.5c-1.575-0.596-3.233-1.035-4.938-1.312l-0.094-2.938c-1.32-0.23-2.67-0.35-4.06-0.35z"/>
			<rect id="rect2291" style="stroke:#000000;fill:#808080" height="21.966" width="8.624" y="211.2" x="188.44"/>
		</g>
		<g id="g4236" transform="translate(0 56.927)">
			<path id="path4238" style="stroke:#000000;fill:#0000FF" d="m192.84 211.88c-1.383 0-2.732 0.123-4.062 0.312l-0.094 2.938c-1.695 0.276-3.339 0.722-4.906 1.312l-1.562-2.5c-2.551 1.022-4.935 2.388-7.062 4.062l1.406 2.625c-1.308 1.074-2.52 2.285-3.594 3.594l-2.625-1.406c-1.668 2.119-3.041 4.49-4.062 7.031l2.5 1.562c-0.596 1.575-1.035 3.232-1.312 4.938l-2.938 0.094c-0.19 1.331-0.312 2.68-0.312 4.062s0.123 2.731 0.312 4.062l2.938 0.094c0.278 1.705 0.717 3.362 1.312 4.938l-2.5 1.562c1.022 2.541 2.394 4.911 4.062 7.031l2.625-1.406c1.074 1.308 2.286 2.52 3.594 3.594l-1.41 2.66c2.127 1.674 4.511 3.04 7.062 4.062l1.562-2.5c1.567 0.59 3.211 1.036 4.906 1.312l0.094 2.938c1.331 0.189 2.68 0.312 4.062 0.312s2.732-0.123 4.062-0.312l0.094-2.938c1.705-0.278 3.363-0.717 4.938-1.312l1.562 2.5c2.541-1.022 4.912-2.394 7.031-4.062l-1.406-2.625c1.309-1.074 2.52-2.286 3.594-3.594l2.625 1.406c1.669-2.12 3.041-4.491 4.062-7.031l-2.5-1.562c0.596-1.575 1.035-3.233 1.312-4.938l2.938-0.094c0.19-1.331 0.312-2.68 0.312-4.062s-0.123-2.732-0.312-4.062l-2.938-0.094c-0.277-1.705-0.716-3.363-1.312-4.938l2.5-1.562c-1.021-2.541-2.394-4.912-4.062-7.031l-2.625 1.406c-1.074-1.309-2.285-2.52-3.594-3.594l1.406-2.625c-2.12-1.669-4.49-3.041-7.031-4.062l-1.562 2.5c-1.575-0.596-3.233-1.035-4.938-1.312l-0.094-2.938c-1.32-0.23-2.67-0.35-4.06-0.35z"/>
			<rect id="rect4240" style="stroke:#000000;fill:#808080" height="21.966" width="8.624" y="211.2" x="188.44"/>
		</g>
		<g id="g4242" transform="translate(0 146.99)">
			<path id="path4244" style="stroke:#000000;fill:#0000FF" d="m192.84 211.88c-1.383 0-2.732 0.123-4.062 0.312l-0.094 2.938c-1.695 0.276-3.339 0.722-4.906 1.312l-1.562-2.5c-2.551 1.023-4.935 2.388-7.062 4.062l1.406 2.625c-1.308 1.074-2.52 2.286-3.594 3.594l-2.625-1.406c-1.668 2.12-3.041 4.491-4.062 7.031l2.5 1.562c-0.596 1.575-1.035 3.233-1.312 4.938l-2.938 0.094c-0.19 1.331-0.312 2.68-0.312 4.062s0.123 2.732 0.312 4.062l2.938 0.094c0.278 1.705 0.717 3.363 1.312 4.938l-2.5 1.562c1.022 2.541 2.394 4.912 4.062 7.031l2.625-1.406c1.074 1.308 2.286 2.52 3.594 3.594l-1.41 2.66c2.127 1.675 4.511 3.04 7.062 4.062l1.562-2.5c1.567 0.591 3.211 1.037 4.906 1.312l0.094 2.938c1.331 0.19 2.68 0.312 4.062 0.312s2.732-0.123 4.062-0.312l0.094-2.938c1.705-0.278 3.363-0.716 4.938-1.312l1.562 2.5c2.541-1.022 4.912-2.394 7.031-4.062l-1.406-2.625c1.309-1.074 2.52-2.286 3.594-3.594l2.625 1.406c1.669-2.12 3.041-4.49 4.062-7.031l-2.5-1.562c0.596-1.575 1.035-3.233 1.312-4.938l2.938-0.094c0.19-1.331 0.312-2.68 0.312-4.062s-0.123-2.732-0.312-4.062l-2.938-0.094c-0.277-1.705-0.716-3.363-1.312-4.938l2.5-1.562c-1.021-2.541-2.394-4.912-4.062-7.031l-2.625 1.406c-1.074-1.308-2.285-2.52-3.594-3.594l1.406-2.625c-2.12-1.668-4.49-3.041-7.031-4.062l-1.562 2.5c-1.575-0.596-3.233-1.035-4.938-1.312l-0.094-2.938c-1.32-0.23-2.67-0.35-4.06-0.35z"/>
			<rect id="rect4246" style="stroke:#000000;fill:#808080" height="21.965" width="8.624" y="211.2" x="188.44"/>
		</g>
		<g id="g6228">
			<path id="path4250" style="stroke:#000000;fill:#800000" d="m192.84 444.68c-1.383 0-2.732 0.123-4.062 0.312l-0.094 2.938c-1.695 0.276-3.339 0.722-4.906 1.312l-1.562-2.5c-2.551 1.023-4.935 2.388-7.062 4.062l1.406 2.625c-1.308 1.074-2.52 2.286-3.594 3.594l-2.625-1.406c-1.668 2.12-3.041 4.491-4.062 7.031l2.5 1.562c-0.596 1.575-1.035 3.233-1.312 4.938l-2.938 0.094c-0.19 1.331-0.312 2.68-0.312 4.062s0.123 2.731 0.312 4.062l2.938 0.094c0.278 1.704 0.717 3.362 1.312 4.938l-2.5 1.562c1.022 2.541 2.394 4.911 4.062 7.031l2.625-1.406c1.074 1.309 2.286 2.521 3.594 3.594l-1.406 2.625c2.127 1.675 4.511 3.04 7.062 4.062l1.562-2.5c1.567 0.591 3.211 1.036 4.906 1.312l0.094 2.938c1.331 0.19 2.68 0.312 4.062 0.312s2.732-0.122 4.062-0.312l0.094-2.938c1.705-0.277 3.363-0.716 4.938-1.312l1.562 2.5c2.541-1.021 4.912-2.394 7.031-4.062l-1.406-2.625c1.309-1.073 2.52-2.285 3.594-3.594l2.625 1.406c1.669-2.12 3.041-4.49 4.062-7.031l-2.5-1.562c0.596-1.575 1.035-3.233 1.312-4.938l2.938-0.094c0.19-1.331 0.312-2.68 0.312-4.062s-0.123-2.731-0.312-4.062l-2.938-0.094c-0.277-1.704-0.716-3.362-1.312-4.938l2.5-1.562c-1.021-2.541-2.394-4.912-4.062-7.031l-2.625 1.406c-1.074-1.308-2.285-2.52-3.594-3.594l1.406-2.625c-2.12-1.668-4.49-3.041-7.031-4.062l-1.562 2.5c-1.575-0.596-3.233-1.035-4.938-1.312l-0.094-2.938c-1.32-0.18-2.67-0.31-4.06-0.31z"/>
			<rect id="rect4252" style="stroke:#000000;fill:#808080" height="21.966" width="8.624" y="444.01" x="188.44"/>
		</g>
		<g id="g6222">
			<path id="path4256" style="stroke:#000000;fill:#1A1A1A" d="m192.84 534.75c-1.383 0-2.732 0.122-4.062 0.312l-0.094 2.938c-1.695 0.276-3.339 0.722-4.906 1.312l-1.562-2.5c-2.551 1.022-4.935 2.388-7.062 4.062l1.406 2.625c-1.308 1.074-2.52 2.286-3.594 3.594l-2.625-1.406c-1.668 2.12-3.041 4.491-4.062 7.031l2.5 1.562c-0.596 1.575-1.035 3.233-1.312 4.938l-2.938 0.094c-0.19 1.331-0.312 2.68-0.312 4.062s0.123 2.731 0.312 4.062l2.938 0.094c0.278 1.704 0.717 3.362 1.312 4.938l-2.5 1.562c1.022 2.541 2.394 4.912 4.062 7.031l2.625-1.406c1.074 1.309 2.286 2.52 3.594 3.594l-1.406 2.625c2.127 1.675 4.511 3.04 7.062 4.062l1.562-2.5c1.567 0.591 3.211 1.036 4.906 1.312l0.094 2.938c1.331 0.189 2.68 0.312 4.062 0.312s2.732-0.123 4.062-0.312l0.094-2.938c1.705-0.277 3.363-0.717 4.938-1.312l1.562 2.5c2.541-1.021 4.912-2.394 7.031-4.062l-1.406-2.625c1.309-1.074 2.52-2.285 3.594-3.594l2.625 1.406c1.669-2.119 3.041-4.49 4.062-7.031l-2.5-1.562c0.596-1.575 1.035-3.233 1.312-4.938l2.938-0.094c0.19-1.331 0.312-2.68 0.312-4.062s-0.123-2.731-0.312-4.062l-2.938-0.094c-0.277-1.704-0.716-3.362-1.312-4.938l2.5-1.562c-1.021-2.54-2.394-4.911-4.062-7.031l-2.625 1.406c-1.074-1.308-2.285-2.52-3.594-3.594l1.406-2.625c-2.12-1.669-4.49-3.04-7.031-4.062l-1.562 2.5c-1.575-0.596-3.233-1.034-4.938-1.312l-0.094-2.938c-1.32-0.2-2.67-0.32-4.06-0.32z"/>
			<rect id="rect4258" style="stroke:#000000;fill:#808080" height="21.965" width="8.624" y="534.07" x="188.44"/>
		</g>
		<g id="g6216">
			<path id="path4262" style="stroke:#000000;stroke-width:1.2884;fill:#E6E6E6" d="m192.84 616.65c-1.781 0-3.52 0.158-5.234 0.402l-0.121 3.785c-2.184 0.355-4.303 0.93-6.321 1.69l-2.013-3.221c-3.287 1.317-6.359 3.076-9.1 5.234l1.812 3.382c-1.686 1.384-3.247 2.944-4.63 4.63l-3.382-1.812c-2.15 2.73-3.918 5.785-5.234 9.059l3.221 2.014c-0.768 2.028-1.333 4.165-1.691 6.361l-3.785 0.121c-0.245 1.714-0.403 3.452-0.403 5.233 0 1.782 0.158 3.52 0.403 5.234l3.785 0.121c0.358 2.196 0.923 4.332 1.691 6.361l-3.221 2.013c1.316 3.273 3.084 6.328 5.234 9.06l3.382-1.812c1.384 1.686 2.945 3.247 4.63 4.631l-1.812 3.382c2.741 2.157 5.812 3.916 9.1 5.234l2.013-3.222c2.018 0.762 4.137 1.336 6.321 1.691l0.121 3.785c1.714 0.244 3.453 0.402 5.234 0.402 1.782 0 3.52-0.158 5.234-0.402l0.121-3.785c2.196-0.357 4.333-0.923 6.361-1.691l2.013 3.222c3.273-1.316 6.328-3.085 9.059-5.234l-1.812-3.382c1.686-1.384 3.246-2.945 4.63-4.631l3.382 1.812c2.15-2.731 3.917-5.786 5.234-9.06l-3.221-2.013c0.768-2.029 1.333-4.165 1.691-6.361l3.785-0.121c0.245-1.715 0.402-3.452 0.402-5.234 0-1.781-0.158-3.52-0.402-5.233l-3.785-0.121c-0.358-2.196-0.923-4.333-1.691-6.361l3.221-2.014c-1.316-3.273-3.084-6.328-5.234-9.059l-3.382 1.812c-1.384-1.686-2.944-3.246-4.63-4.63l1.812-3.382c-2.731-2.15-5.786-3.918-9.059-5.234l-2.013 3.221c-2.029-0.768-4.165-1.333-6.361-1.69l-0.121-3.785c-1.71-0.25-3.45-0.41-5.23-0.41z"/>
				<rect id="rect4264" style="stroke:#000000;stroke-width:1.2884;fill:#808080" height="28.3" width="11.111" y="615.79" x="187.17"/>
		</g>
		<path id="path4266" sodipodi:nodetypes="cc" style="stroke:#000000;stroke-width:1.8;fill:none" d="m140.59 177.59v564.75"/>
		<path id="rect5239" style="stroke:#000000;stroke-width:1.8" d="m146.97 707.71h90.261c2.155 0 3.902 1.747 3.902 3.902v14.046c0 2.155-1.747 3.902-3.902 3.902h-90.261c-2.155 0-3.902-1.747-3.902-3.902v-14.046c-0.01-2.16 1.74-3.9 3.9-3.9z"/>
		<path id="text6210" style="fill:#FFFFFF" d="m196.61 709.9v16.02h-4.427v-10.497c-0.716 0.545-1.411 0.985-2.084 1.322-0.666 0.336-1.504 0.658-2.514 0.967v-3.589c1.49-0.479 2.646-1.057 3.47-1.729 0.824-0.674 1.469-1.505 1.934-2.493h3.62"/>
		<path id="path6234" style="stroke:#000000;stroke-width:1.4;fill:none" d="m147.14 435.46h84.976"/>
		<path id="path7205" style="stroke:#000000;stroke-width:1.4;fill:none" d="m147.14 523.74h84.976"/>
	</g>
	<g id="g7235" transform="translate(15.695 -78.752)">
		<path id="path7237" style="stroke:#000000;fill:#0000FF" d="m192.84 211.88c-1.383 0-2.732 0.123-4.062 0.312l-0.094 2.938c-1.695 0.276-3.34 0.722-4.906 1.312l-1.562-2.5c-2.551 1.022-4.935 2.388-7.062 4.062l1.406 2.625c-1.308 1.074-2.52 2.285-3.594 3.594l-2.625-1.406c-1.668 2.12-3.041 4.49-4.062 7.031l2.5 1.562c-0.596 1.575-1.035 3.232-1.312 4.938l-2.938 0.094c-0.19 1.331-0.312 2.68-0.312 4.062s0.123 2.731 0.312 4.062l2.938 0.094c0.278 1.705 0.717 3.362 1.312 4.938l-2.5 1.562c1.022 2.541 2.394 4.912 4.062 7.031l2.625-1.406c1.074 1.308 2.286 2.52 3.594 3.594l-1.41 2.66c2.127 1.674 4.511 3.04 7.062 4.062l1.562-2.5c1.566 0.59 3.211 1.036 4.906 1.312l0.094 2.938c1.331 0.189 2.68 0.312 4.062 0.312s2.732-0.123 4.062-0.312l0.094-2.938c1.705-0.278 3.363-0.717 4.938-1.312l1.562 2.5c2.541-1.022 4.912-2.394 7.031-4.062l-1.406-2.625c1.308-1.074 2.52-2.286 3.594-3.594l2.625 1.406c1.669-2.12 3.041-4.491 4.062-7.031l-2.5-1.562c0.596-1.575 1.035-3.233 1.312-4.938l2.938-0.094c0.19-1.331 0.312-2.68 0.312-4.062s-0.123-2.732-0.312-4.062l-2.938-0.094c-0.278-1.705-0.717-3.363-1.312-4.938l2.5-1.562c-1.021-2.541-2.394-4.912-4.062-7.031l-2.625 1.406c-1.074-1.309-2.286-2.52-3.594-3.594l1.406-2.625c-2.12-1.669-4.49-3.041-7.031-4.062l-1.562 2.5c-1.575-0.596-3.233-1.035-4.938-1.312l-0.094-2.938c-1.32-0.23-2.67-0.35-4.06-0.35z"/>
		<rect id="rect7239" style="stroke:#000000;fill:#808080" height="21.966" width="8.624" y="211.2" x="188.44"/>
	</g>
	<g id="g7241" transform="translate(15.695 11.313)">
		<path id="path7243" style="stroke:#000000;fill:#0000FF" d="m192.84 211.88c-1.383 0-2.732 0.123-4.062 0.312l-0.094 2.938c-1.695 0.276-3.34 0.722-4.906 1.312l-1.562-2.5c-2.551 1.023-4.935 2.388-7.062 4.062l1.406 2.625c-1.308 1.074-2.52 2.286-3.594 3.594l-2.625-1.406c-1.668 2.12-3.041 4.491-4.062 7.031l2.5 1.562c-0.596 1.575-1.035 3.233-1.312 4.938l-2.938 0.094c-0.19 1.331-0.312 2.68-0.312 4.062s0.123 2.732 0.312 4.062l2.938 0.094c0.278 1.705 0.717 3.363 1.312 4.938l-2.5 1.562c1.022 2.541 2.394 4.912 4.062 7.031l2.625-1.406c1.074 1.309 2.286 2.52 3.594 3.594l-1.41 2.66c2.127 1.675 4.511 3.04 7.062 4.062l1.562-2.5c1.566 0.591 3.211 1.037 4.906 1.312l0.094 2.938c1.331 0.19 2.68 0.312 4.062 0.312s2.732-0.123 4.062-0.312l0.094-2.938c1.705-0.278 3.363-0.716 4.938-1.312l1.562 2.5c2.541-1.021 4.912-2.394 7.031-4.062l-1.406-2.625c1.308-1.074 2.52-2.285 3.594-3.594l2.625 1.406c1.669-2.12 3.041-4.49 4.062-7.031l-2.5-1.562c0.596-1.575 1.035-3.233 1.312-4.938l2.938-0.094c0.19-1.331 0.312-2.68 0.312-4.062s-0.123-2.732-0.312-4.062l-2.938-0.094c-0.278-1.705-0.717-3.362-1.312-4.938l2.5-1.562c-1.021-2.541-2.394-4.912-4.062-7.031l-2.625 1.406c-1.074-1.308-2.286-2.52-3.594-3.594l1.406-2.625c-2.12-1.668-4.49-3.041-7.031-4.062l-1.562 2.5c-1.575-0.596-3.233-1.035-4.938-1.312l-0.094-2.938c-1.32-0.23-2.67-0.35-4.06-0.35z"/>
		<rect id="rect7245" style="stroke:#000000;fill:#808080" height="21.966" width="8.624" y="211.2" x="188.44"/>
	</g>
	<g id="g7247" transform="translate(15.695 101.38)">
		<path id="path7249" style="stroke:#000000;fill:#0000FF" d="m192.84 211.88c-1.383 0-2.732 0.123-4.062 0.312l-0.094 2.938c-1.695 0.276-3.34 0.722-4.906 1.312l-1.562-2.5c-2.551 1.023-4.935 2.388-7.062 4.062l1.406 2.625c-1.308 1.074-2.52 2.286-3.594 3.594l-2.625-1.406c-1.668 2.12-3.041 4.491-4.062 7.031l2.5 1.562c-0.596 1.575-1.035 3.233-1.312 4.938l-2.938 0.094c-0.19 1.331-0.312 2.68-0.312 4.062s0.123 2.732 0.312 4.062l2.938 0.094c0.278 1.705 0.717 3.363 1.312 4.938l-2.5 1.562c1.022 2.541 2.394 4.912 4.062 7.031l2.625-1.406c1.074 1.308 2.286 2.52 3.594 3.594l-1.41 2.66c2.127 1.675 4.511 3.04 7.062 4.062l1.562-2.5c1.566 0.591 3.211 1.037 4.906 1.312l0.094 2.938c1.331 0.19 2.68 0.312 4.062 0.312s2.732-0.123 4.062-0.312l0.094-2.938c1.705-0.278 3.363-0.716 4.938-1.312l1.562 2.5c2.541-1.022 4.912-2.394 7.031-4.062l-1.406-2.625c1.308-1.074 2.52-2.286 3.594-3.594l2.625 1.406c1.669-2.12 3.041-4.49 4.062-7.031l-2.5-1.562c0.596-1.575 1.035-3.233 1.312-4.938l2.938-0.094c0.19-1.331 0.312-2.68 0.312-4.062s-0.123-2.732-0.312-4.062l-2.938-0.094c-0.278-1.705-0.717-3.363-1.312-4.938l2.5-1.562c-1.021-2.541-2.394-4.912-4.062-7.031l-2.625 1.406c-1.074-1.308-2.286-2.52-3.594-3.594l1.406-2.625c-2.12-1.668-4.49-3.041-7.031-4.062l-1.562 2.5c-1.575-0.596-3.233-1.035-4.938-1.312l-0.094-2.938c-1.32-0.23-2.67-0.35-4.06-0.35z"/>
		<rect id="rect7251" style="stroke:#000000;fill:#808080" height="21.965" width="8.624" y="211.2" x="188.44"/>
	</g>
	<g id="g7253" transform="translate(15.695 -45.615)">
		<path id="path7255" style="stroke:#000000;fill:#800000" d="m192.84 444.68c-1.383 0-2.732 0.123-4.062 0.312l-0.094 2.938c-1.695 0.276-3.34 0.722-4.906 1.312l-1.562-2.5c-2.551 1.023-4.935 2.388-7.062 4.062l1.406 2.625c-1.308 1.074-2.52 2.286-3.594 3.594l-2.625-1.406c-1.668 2.12-3.041 4.491-4.062 7.031l2.5 1.562c-0.596 1.575-1.035 3.233-1.312 4.938l-2.938 0.094c-0.19 1.331-0.312 2.68-0.312 4.062s0.123 2.731 0.312 4.062l2.938 0.094c0.278 1.704 0.717 3.362 1.312 4.938l-2.5 1.562c1.022 2.541 2.394 4.911 4.062 7.031l2.625-1.406c1.074 1.309 2.286 2.521 3.594 3.594l-1.406 2.625c2.127 1.675 4.511 3.04 7.062 4.062l1.562-2.5c1.566 0.591 3.211 1.036 4.906 1.312l0.094 2.938c1.331 0.19 2.68 0.312 4.062 0.312s2.732-0.122 4.062-0.312l0.094-2.938c1.705-0.277 3.363-0.716 4.938-1.312l1.562 2.5c2.541-1.021 4.912-2.394 7.031-4.062l-1.406-2.625c1.308-1.073 2.52-2.285 3.594-3.594l2.625 1.406c1.669-2.12 3.041-4.49 4.062-7.031l-2.5-1.562c0.596-1.575 1.035-3.233 1.312-4.938l2.938-0.094c0.19-1.331 0.312-2.68 0.312-4.062s-0.123-2.731-0.312-4.062l-2.938-0.094c-0.278-1.704-0.717-3.362-1.312-4.938l2.5-1.562c-1.021-2.541-2.394-4.912-4.062-7.031l-2.625 1.406c-1.074-1.308-2.286-2.52-3.594-3.594l1.406-2.625c-2.12-1.668-4.49-3.041-7.031-4.062l-1.562 2.5c-1.575-0.596-3.233-1.035-4.938-1.312l-0.094-2.938c-1.32-0.18-2.67-0.31-4.06-0.31z"/>
		<rect id="rect7257" style="stroke:#000000;fill:#808080" height="21.966" width="8.624" y="444.01" x="188.44"/>
	</g>
	<g id="g7259" transform="translate(15.695 -45.615)">
		<path id="path7261" style="stroke:#000000;fill:#1A1A1A" d="m192.84 534.75c-1.383 0-2.732 0.122-4.062 0.312l-0.094 2.938c-1.695 0.276-3.34 0.722-4.906 1.312l-1.562-2.5c-2.551 1.022-4.935 2.388-7.062 4.062l1.406 2.625c-1.308 1.074-2.52 2.286-3.594 3.594l-2.625-1.406c-1.668 2.12-3.041 4.491-4.062 7.031l2.5 1.562c-0.596 1.575-1.035 3.233-1.312 4.938l-2.938 0.094c-0.19 1.331-0.312 2.68-0.312 4.062s0.123 2.731 0.312 4.062l2.938 0.094c0.278 1.704 0.717 3.362 1.312 4.938l-2.5 1.562c1.022 2.541 2.394 4.912 4.062 7.031l2.625-1.406c1.074 1.309 2.286 2.52 3.594 3.594l-1.406 2.625c2.127 1.675 4.511 3.04 7.062 4.062l1.562-2.5c1.566 0.591 3.211 1.036 4.906 1.312l0.094 2.938c1.331 0.189 2.68 0.312 4.062 0.312s2.732-0.123 4.062-0.312l0.094-2.938c1.705-0.277 3.363-0.717 4.938-1.312l1.562 2.5c2.541-1.021 4.912-2.394 7.031-4.062l-1.406-2.625c1.308-1.074 2.52-2.285 3.594-3.594l2.625 1.406c1.669-2.119 3.041-4.49 4.062-7.031l-2.5-1.562c0.596-1.575 1.035-3.233 1.312-4.938l2.938-0.094c0.19-1.331 0.312-2.68 0.312-4.062s-0.123-2.731-0.312-4.062l-2.938-0.094c-0.278-1.704-0.717-3.362-1.312-4.938l2.5-1.562c-1.021-2.54-2.394-4.911-4.062-7.031l-2.625 1.406c-1.074-1.308-2.286-2.52-3.594-3.594l1.406-2.625c-2.12-1.669-4.49-3.04-7.031-4.062l-1.562 2.5c-1.575-0.596-3.233-1.034-4.938-1.312l-0.094-2.938c-1.32-0.2-2.67-0.32-4.06-0.32z"/>
		<rect id="rect7263" style="stroke:#000000;fill:#808080" height="21.965" width="8.624" y="534.07" x="188.44"/>
	</g>
	<g id="g7265" transform="translate(15.695 -45.615)">
		<path id="path7267" style="stroke:#000000;stroke-width:1.2884;fill:#E6E6E6" d="m192.84 616.65c-1.782 0-3.52 0.158-5.234 0.402l-0.121 3.785c-2.184 0.355-4.303 0.93-6.321 1.69l-2.013-3.221c-3.287 1.317-6.359 3.076-9.1 5.234l1.812 3.382c-1.686 1.384-3.247 2.944-4.63 4.63l-3.382-1.812c-2.15 2.73-3.918 5.785-5.234 9.059l3.221 2.014c-0.768 2.028-1.333 4.165-1.691 6.361l-3.785 0.121c-0.245 1.714-0.403 3.452-0.403 5.233 0 1.782 0.158 3.52 0.403 5.234l3.785 0.121c0.357 2.196 0.923 4.332 1.691 6.361l-3.221 2.013c1.316 3.273 3.084 6.328 5.234 9.06l3.382-1.812c1.384 1.686 2.945 3.247 4.63 4.631l-1.812 3.382c2.741 2.157 5.812 3.916 9.1 5.234l2.013-3.222c2.019 0.762 4.138 1.336 6.321 1.691l0.121 3.785c1.714 0.244 3.452 0.402 5.234 0.402s3.52-0.158 5.234-0.402l0.121-3.785c2.196-0.357 4.333-0.923 6.361-1.691l2.013 3.222c3.273-1.316 6.328-3.085 9.059-5.234l-1.812-3.382c1.686-1.384 3.247-2.945 4.63-4.631l3.382 1.812c2.15-2.731 3.918-5.786 5.234-9.06l-3.221-2.013c0.768-2.029 1.333-4.165 1.691-6.361l3.784-0.121c0.245-1.715 0.403-3.452 0.403-5.234 0-1.781-0.158-3.52-0.403-5.233l-3.784-0.121c-0.358-2.196-0.923-4.333-1.691-6.361l3.221-2.014c-1.316-3.273-3.084-6.328-5.234-9.059l-3.382 1.812c-1.384-1.686-2.945-3.246-4.63-4.63l1.812-3.382c-2.731-2.15-5.786-3.918-9.059-5.234l-2.013 3.221c-2.029-0.768-4.165-1.333-6.361-1.69l-0.121-3.785c-1.71-0.25-3.45-0.41-5.23-0.41z"/>
			<rect id="rect7269" style="stroke:#000000;stroke-width:1.2884;fill:#808080" height="28.3" width="11.111" y="615.79" x="187.17"/>
	</g>
	<path id="path7271" sodipodi:nodetypes="cc" style="stroke:#000000;stroke-width:1.8;fill:none" d="m156.28 131.98v564.75"/>
	<path id="rect7273" style="stroke:#000000;stroke-width:1.8" d="m162.66 662.09h90.261c2.155 0 3.901 1.747 3.901 3.902v14.046c0 2.155-1.747 3.902-3.901 3.902h-90.261c-2.155 0-3.901-1.747-3.901-3.902v-14.046c0-2.15 1.75-3.9 3.9-3.9z"/>
	<path id="text7275" style="fill:#FFFFFF" d="m215.2 680.3h-13.129c0.15-1.296 0.605-2.514 1.365-3.652 0.766-1.146 2.199-2.496 4.297-4.051 1.282-0.953 2.103-1.676 2.46-2.17 0.358-0.495 0.538-0.964 0.538-1.408 0-0.479-0.179-0.888-0.538-1.225-0.351-0.344-0.795-0.516-1.332-0.516-0.559 0-1.017 0.176-1.375 0.526-0.351 0.351-0.587 0.971-0.709 1.858l-4.384-0.354c0.172-1.231 0.487-2.191 0.946-2.879 0.458-0.695 1.103-1.226 1.934-1.591 0.838-0.372 1.995-0.559 3.47-0.559 1.54 0 2.736 0.176 3.588 0.526 0.86 0.352 1.533 0.893 2.02 1.623 0.494 0.724 0.741 1.536 0.741 2.438 0 0.96-0.283 1.877-0.849 2.751-0.559 0.874-1.58 1.833-3.062 2.879-0.881 0.609-1.472 1.035-1.773 1.278-0.293 0.244-0.641 0.562-1.042 0.957h6.833v3.55"/>
	<path id="path7279" style="stroke:#000000;stroke-width:1.4;fill:none" d="m162.84 389.84h84.976"/>
	<path id="path7281" style="stroke:#000000;stroke-width:1.4;fill:none" d="m162.84 478.13h84.976"/>
	<g id="g7285" transform="translate(122.62 -78.752)">
		<path id="path7287" style="stroke:#000000;fill:#0000FF" d="m192.84 211.88c-1.383 0-2.732 0.123-4.062 0.312l-0.094 2.938c-1.695 0.276-3.34 0.722-4.906 1.312l-1.562-2.5c-2.552 1.022-4.936 2.388-7.062 4.062l1.406 2.625c-1.309 1.074-2.521 2.285-3.594 3.594l-2.625-1.406c-1.669 2.12-3.041 4.49-4.062 7.031l2.5 1.562c-0.596 1.575-1.035 3.232-1.312 4.938l-2.938 0.094c-0.19 1.331-0.312 2.68-0.312 4.062s0.122 2.731 0.312 4.062l2.938 0.094c0.277 1.705 0.717 3.362 1.312 4.938l-2.5 1.562c1.021 2.541 2.394 4.912 4.062 7.031l2.625-1.406c1.073 1.308 2.285 2.52 3.594 3.594l-1.41 2.66c2.127 1.674 4.511 3.04 7.062 4.062l1.562-2.5c1.566 0.59 3.211 1.036 4.906 1.312l0.094 2.938c1.33 0.189 2.68 0.312 4.062 0.312s2.731-0.123 4.062-0.312l0.094-2.938c1.704-0.278 3.362-0.717 4.938-1.312l1.562 2.5c2.54-1.022 4.911-2.394 7.031-4.062l-1.406-2.625c1.308-1.074 2.52-2.286 3.594-3.594l2.625 1.406c1.668-2.12 3.04-4.491 4.062-7.031l-2.5-1.562c0.596-1.575 1.034-3.233 1.312-4.938l2.938-0.094c0.189-1.331 0.312-2.68 0.312-4.062s-0.123-2.732-0.312-4.062l-2.938-0.094c-0.278-1.705-0.717-3.363-1.312-4.938l2.5-1.562c-1.022-2.541-2.395-4.912-4.062-7.031l-2.625 1.406c-1.074-1.309-2.286-2.52-3.594-3.594l1.406-2.625c-2.12-1.669-4.491-3.041-7.031-4.062l-1.562 2.5c-1.575-0.596-3.233-1.035-4.938-1.312l-0.094-2.938c-1.32-0.23-2.67-0.35-4.06-0.35z"/>
		<rect id="rect7289" style="stroke:#000000;fill:#808080" height="21.966" width="8.623" y="211.2" x="188.44"/>
	</g>
	<g id="g7291" transform="translate(122.62 11.313)">
		<path id="path7293" style="stroke:#000000;fill:#0000FF" d="m192.84 211.88c-1.383 0-2.732 0.123-4.062 0.312l-0.094 2.938c-1.695 0.276-3.34 0.722-4.906 1.312l-1.562-2.5c-2.552 1.023-4.936 2.388-7.062 4.062l1.406 2.625c-1.309 1.074-2.521 2.286-3.594 3.594l-2.625-1.406c-1.669 2.12-3.041 4.491-4.062 7.031l2.5 1.562c-0.596 1.575-1.035 3.233-1.312 4.938l-2.938 0.094c-0.19 1.331-0.312 2.68-0.312 4.062s0.122 2.732 0.312 4.062l2.938 0.094c0.277 1.705 0.717 3.363 1.312 4.938l-2.5 1.562c1.021 2.541 2.394 4.912 4.062 7.031l2.625-1.406c1.073 1.309 2.285 2.52 3.594 3.594l-1.41 2.66c2.127 1.675 4.511 3.04 7.062 4.062l1.562-2.5c1.566 0.591 3.211 1.037 4.906 1.312l0.094 2.938c1.33 0.19 2.68 0.312 4.062 0.312s2.731-0.123 4.062-0.312l0.094-2.938c1.704-0.278 3.362-0.716 4.938-1.312l1.562 2.5c2.54-1.021 4.911-2.394 7.031-4.062l-1.406-2.625c1.308-1.074 2.52-2.285 3.594-3.594l2.625 1.406c1.668-2.12 3.04-4.49 4.062-7.031l-2.5-1.562c0.596-1.575 1.034-3.233 1.312-4.938l2.938-0.094c0.189-1.331 0.312-2.68 0.312-4.062s-0.123-2.732-0.312-4.062l-2.938-0.094c-0.278-1.705-0.717-3.362-1.312-4.938l2.5-1.562c-1.022-2.541-2.395-4.912-4.062-7.031l-2.625 1.406c-1.074-1.308-2.286-2.52-3.594-3.594l1.406-2.625c-2.12-1.668-4.491-3.041-7.031-4.062l-1.562 2.5c-1.575-0.596-3.233-1.035-4.938-1.312l-0.094-2.938c-1.32-0.23-2.67-0.35-4.06-0.35z"/>
		<rect id="rect7295" style="stroke:#000000;fill:#808080" height="21.966" width="8.623" y="211.2" x="188.44"/>
	</g>
	<g id="g7297" transform="translate(122.62 101.38)">
		<path id="path7299" style="stroke:#000000;fill:#0000FF" d="m192.84 211.88c-1.383 0-2.732 0.123-4.062 0.312l-0.094 2.938c-1.695 0.276-3.34 0.722-4.906 1.312l-1.562-2.5c-2.552 1.023-4.936 2.388-7.062 4.062l1.406 2.625c-1.309 1.074-2.521 2.286-3.594 3.594l-2.625-1.406c-1.669 2.12-3.041 4.491-4.062 7.031l2.5 1.562c-0.596 1.575-1.035 3.233-1.312 4.938l-2.938 0.094c-0.19 1.331-0.312 2.68-0.312 4.062s0.122 2.732 0.312 4.062l2.938 0.094c0.277 1.705 0.717 3.363 1.312 4.938l-2.5 1.562c1.021 2.541 2.394 4.912 4.062 7.031l2.625-1.406c1.073 1.308 2.285 2.52 3.594 3.594l-1.41 2.66c2.127 1.675 4.511 3.04 7.062 4.062l1.562-2.5c1.566 0.591 3.211 1.037 4.906 1.312l0.094 2.938c1.33 0.19 2.68 0.312 4.062 0.312s2.731-0.123 4.062-0.312l0.094-2.938c1.704-0.278 3.362-0.716 4.938-1.312l1.562 2.5c2.54-1.022 4.911-2.394 7.031-4.062l-1.406-2.625c1.308-1.074 2.52-2.286 3.594-3.594l2.625 1.406c1.668-2.12 3.04-4.49 4.062-7.031l-2.5-1.562c0.596-1.575 1.034-3.233 1.312-4.938l2.938-0.094c0.189-1.331 0.312-2.68 0.312-4.062s-0.123-2.732-0.312-4.062l-2.938-0.094c-0.278-1.705-0.717-3.363-1.312-4.938l2.5-1.562c-1.022-2.541-2.395-4.912-4.062-7.031l-2.625 1.406c-1.074-1.308-2.286-2.52-3.594-3.594l1.406-2.625c-2.12-1.668-4.491-3.041-7.031-4.062l-1.562 2.5c-1.575-0.596-3.233-1.035-4.938-1.312l-0.094-2.938c-1.32-0.23-2.67-0.35-4.06-0.35z"/>
		<rect id="rect7301" style="stroke:#000000;fill:#808080" height="21.965" width="8.623" y="211.2" x="188.44"/>
	</g>
	<g id="g7303" transform="translate(122.62 -45.615)">
		<path id="path7305" style="stroke:#000000;fill:#800000" d="m192.84 444.68c-1.383 0-2.732 0.123-4.062 0.312l-0.094 2.938c-1.695 0.276-3.34 0.722-4.906 1.312l-1.562-2.5c-2.552 1.023-4.936 2.388-7.062 4.062l1.406 2.625c-1.309 1.074-2.521 2.286-3.594 3.594l-2.625-1.406c-1.669 2.12-3.041 4.491-4.062 7.031l2.5 1.562c-0.596 1.575-1.035 3.233-1.312 4.938l-2.938 0.094c-0.19 1.331-0.312 2.68-0.312 4.062s0.122 2.731 0.312 4.062l2.938 0.094c0.277 1.704 0.717 3.362 1.312 4.938l-2.5 1.562c1.021 2.541 2.394 4.911 4.062 7.031l2.625-1.406c1.073 1.309 2.285 2.521 3.594 3.594l-1.406 2.625c2.127 1.675 4.511 3.04 7.062 4.062l1.562-2.5c1.566 0.591 3.211 1.036 4.906 1.312l0.094 2.938c1.33 0.19 2.68 0.312 4.062 0.312s2.731-0.122 4.062-0.312l0.094-2.938c1.704-0.277 3.362-0.716 4.938-1.312l1.562 2.5c2.54-1.021 4.911-2.394 7.031-4.062l-1.406-2.625c1.308-1.073 2.52-2.285 3.594-3.594l2.625 1.406c1.668-2.12 3.04-4.49 4.062-7.031l-2.5-1.562c0.596-1.575 1.034-3.233 1.312-4.938l2.938-0.094c0.189-1.331 0.312-2.68 0.312-4.062s-0.123-2.731-0.312-4.062l-2.938-0.094c-0.278-1.704-0.717-3.362-1.312-4.938l2.5-1.562c-1.022-2.541-2.395-4.912-4.062-7.031l-2.625 1.406c-1.074-1.308-2.286-2.52-3.594-3.594l1.406-2.625c-2.12-1.668-4.491-3.041-7.031-4.062l-1.562 2.5c-1.575-0.596-3.233-1.035-4.938-1.312l-0.094-2.938c-1.32-0.18-2.67-0.31-4.06-0.31z"/>
		<rect id="rect7307" style="stroke:#000000;fill:#808080" height="21.966" width="8.623" y="444.01" x="188.44"/>
	</g>
	<g id="g7309" transform="translate(122.62 -45.615)">
		<path id="path7311" style="stroke:#000000;fill:#1A1A1A" d="m192.84 534.75c-1.383 0-2.732 0.122-4.062 0.312l-0.094 2.938c-1.695 0.276-3.34 0.722-4.906 1.312l-1.562-2.5c-2.552 1.022-4.936 2.388-7.062 4.062l1.406 2.625c-1.309 1.074-2.521 2.286-3.594 3.594l-2.625-1.406c-1.669 2.12-3.041 4.491-4.062 7.031l2.5 1.562c-0.596 1.575-1.035 3.233-1.312 4.938l-2.938 0.094c-0.19 1.331-0.312 2.68-0.312 4.062s0.122 2.731 0.312 4.062l2.938 0.094c0.277 1.704 0.717 3.362 1.312 4.938l-2.5 1.562c1.021 2.541 2.394 4.912 4.062 7.031l2.625-1.406c1.073 1.309 2.285 2.52 3.594 3.594l-1.406 2.625c2.127 1.675 4.511 3.04 7.062 4.062l1.562-2.5c1.566 0.591 3.211 1.036 4.906 1.312l0.094 2.938c1.33 0.189 2.68 0.312 4.062 0.312s2.731-0.123 4.062-0.312l0.094-2.938c1.704-0.277 3.362-0.717 4.938-1.312l1.562 2.5c2.54-1.021 4.911-2.394 7.031-4.062l-1.406-2.625c1.308-1.074 2.52-2.285 3.594-3.594l2.625 1.406c1.668-2.119 3.04-4.49 4.062-7.031l-2.5-1.562c0.596-1.575 1.034-3.233 1.312-4.938l2.938-0.094c0.189-1.331 0.312-2.68 0.312-4.062s-0.123-2.731-0.312-4.062l-2.938-0.094c-0.278-1.704-0.717-3.362-1.312-4.938l2.5-1.562c-1.022-2.54-2.395-4.911-4.062-7.031l-2.625 1.406c-1.074-1.308-2.286-2.52-3.594-3.594l1.406-2.625c-2.12-1.669-4.491-3.04-7.031-4.062l-1.562 2.5c-1.575-0.596-3.233-1.034-4.938-1.312l-0.094-2.938c-1.32-0.2-2.67-0.32-4.06-0.32z"/>
		<rect id="rect7313" style="stroke:#000000;fill:#808080" height="21.965" width="8.623" y="534.07" x="188.44"/>
	</g>
	<g id="g7315" transform="translate(122.62 -45.615)">
		<path id="path7317" style="stroke:#000000;stroke-width:1.2884;fill:#E6E6E6" d="m192.84 616.65c-1.782 0-3.521 0.158-5.234 0.402l-0.121 3.785c-2.184 0.355-4.303 0.93-6.321 1.69l-2.013-3.221c-3.287 1.317-6.359 3.076-9.1 5.234l1.812 3.382c-1.686 1.384-3.247 2.944-4.631 4.63l-3.382-1.812c-2.149 2.73-3.918 5.785-5.234 9.059l3.222 2.014c-0.769 2.028-1.334 4.165-1.691 6.361l-3.785 0.121c-0.244 1.714-0.402 3.452-0.402 5.233 0 1.782 0.158 3.52 0.402 5.234l3.785 0.121c0.357 2.196 0.923 4.332 1.691 6.361l-3.222 2.013c1.316 3.273 3.085 6.328 5.234 9.06l3.382-1.812c1.384 1.686 2.945 3.247 4.631 4.631l-1.812 3.382c2.74 2.157 5.812 3.916 9.1 5.234l2.013-3.222c2.019 0.762 4.138 1.336 6.321 1.691l0.121 3.785c1.714 0.244 3.452 0.402 5.234 0.402 1.781 0 3.52-0.158 5.233-0.402l0.121-3.785c2.196-0.357 4.333-0.923 6.361-1.691l2.013 3.222c3.273-1.316 6.328-3.085 9.06-5.234l-1.812-3.382c1.686-1.384 3.246-2.945 4.63-4.631l3.382 1.812c2.15-2.731 3.918-5.786 5.234-9.06l-3.221-2.013c0.768-2.029 1.333-4.165 1.69-6.361l3.784-0.121c0.245-1.715 0.403-3.452 0.403-5.234 0-1.781-0.158-3.52-0.403-5.233l-3.784-0.121c-0.357-2.196-0.923-4.333-1.69-6.361l3.221-2.014c-1.316-3.273-3.084-6.328-5.234-9.059l-3.382 1.812c-1.384-1.686-2.944-3.246-4.63-4.63l1.812-3.382c-2.731-2.15-5.786-3.918-9.06-5.234l-2.013 3.221c-2.028-0.768-4.165-1.333-6.361-1.69l-0.121-3.785c-1.71-0.25-3.44-0.41-5.23-0.41z"/>
			<rect id="rect7319" style="stroke:#000000;stroke-width:1.2884;fill:#808080" height="28.3" width="11.11" y="615.79" x="187.17"/>
	</g>
	<path id="path7321" sodipodi:nodetypes="cc" style="stroke:#000000;stroke-width:1.8;fill:none" d="m263.21 131.98v564.75"/>
	<path id="rect7323" style="stroke:#000000;stroke-width:1.8" d="m269.59 662.09h90.261c2.155 0 3.902 1.747 3.902 3.902v14.046c0 2.155-1.747 3.902-3.902 3.902h-90.261c-2.155 0-3.901-1.747-3.901-3.902v-14.046c0-2.15 1.74-3.9 3.9-3.9z"/>
	<path id="text7325" style="fill:#FFFFFF" d="m313.56 669.1l-4.137-0.741c0.344-1.317 1.004-2.328 1.978-3.03 0.981-0.701 2.367-1.053 4.158-1.053 2.056 0 3.542 0.384 4.458 1.15 0.918 0.766 1.376 1.729 1.376 2.89 0 0.681-0.187 1.297-0.559 1.848-0.372 0.552-0.935 1.035-1.687 1.451 0.608 0.15 1.074 0.325 1.396 0.526 0.522 0.322 0.928 0.748 1.214 1.278 0.294 0.522 0.44 1.149 0.44 1.88 0 0.917-0.24 1.798-0.72 2.644-0.479 0.838-1.171 1.486-2.073 1.944-0.902 0.451-2.088 0.677-3.557 0.677-1.433 0-2.564-0.168-3.396-0.505-0.823-0.336-1.504-0.827-2.041-1.472-0.53-0.651-0.938-1.469-1.226-2.449l4.373-0.581c0.172 0.882 0.438 1.494 0.795 1.838 0.365 0.337 0.828 0.505 1.387 0.505 0.588 0 1.074-0.215 1.461-0.645 0.395-0.43 0.592-1.003 0.592-1.72 0-0.73-0.19-1.296-0.57-1.697-0.372-0.401-0.881-0.602-1.525-0.602-0.344 0-0.816 0.086-1.418 0.258l0.225-3.127c0.244 0.036 0.434 0.055 0.57 0.055 0.572 0 1.049-0.184 1.429-0.549 0.387-0.365 0.58-0.798 0.58-1.3 0-0.479-0.144-0.863-0.43-1.149-0.286-0.287-0.681-0.43-1.182-0.43-0.517 0-0.935 0.157-1.257 0.473-0.3 0.32-0.52 0.86-0.63 1.64"/>
	<path id="path7329" style="stroke:#000000;stroke-width:1.4;fill:none" d="m269.77 389.84h84.976"/>
	<path id="path7331" style="stroke:#000000;stroke-width:1.4;fill:none" d="m269.77 478.13h84.976"/>
	<g id="g7335" transform="translate(229.55 -78.752)">
		<path id="path7337" style="stroke:#000000;fill:#0000FF" d="m192.84 211.88c-1.383 0-2.732 0.123-4.062 0.312l-0.094 2.938c-1.695 0.276-3.34 0.722-4.906 1.312l-1.562-2.5c-2.552 1.022-4.936 2.388-7.062 4.062l1.406 2.625c-1.309 1.074-2.52 2.285-3.594 3.594l-2.625-1.406c-1.669 2.12-3.041 4.49-4.062 7.031l2.5 1.562c-0.596 1.575-1.035 3.232-1.312 4.938l-2.938 0.094c-0.19 1.331-0.312 2.68-0.312 4.062s0.122 2.731 0.312 4.062l2.938 0.094c0.277 1.705 0.717 3.362 1.312 4.938l-2.5 1.562c1.021 2.541 2.394 4.912 4.062 7.031l2.625-1.406c1.074 1.308 2.285 2.52 3.594 3.594l-1.41 2.66c2.127 1.674 4.511 3.04 7.062 4.062l1.562-2.5c1.566 0.59 3.211 1.036 4.906 1.312l0.094 2.938c1.33 0.189 2.68 0.312 4.062 0.312s2.731-0.123 4.062-0.312l0.094-2.938c1.704-0.278 3.362-0.717 4.938-1.312l1.562 2.5c2.541-1.022 4.911-2.394 7.031-4.062l-1.406-2.625c1.309-1.074 2.52-2.286 3.594-3.594l2.625 1.406c1.669-2.12 3.041-4.491 4.062-7.031l-2.5-1.562c0.596-1.575 1.035-3.233 1.312-4.938l2.938-0.094c0.189-1.331 0.312-2.68 0.312-4.062s-0.123-2.732-0.312-4.062l-2.938-0.094c-0.277-1.705-0.717-3.363-1.312-4.938l2.5-1.562c-1.021-2.541-2.394-4.912-4.062-7.031l-2.625 1.406c-1.074-1.309-2.285-2.52-3.594-3.594l1.406-2.625c-2.12-1.669-4.49-3.041-7.031-4.062l-1.562 2.5c-1.575-0.596-3.233-1.035-4.938-1.312l-0.094-2.938c-1.32-0.23-2.67-0.35-4.06-0.35z"/>
		<rect id="rect7339" style="stroke:#000000;fill:#808080" height="21.966" width="8.624" y="211.2" x="188.44"/>
	</g>
	<g id="g7341" transform="translate(229.55 11.313)">
		<path id="path7343" style="stroke:#000000;fill:#0000FF" d="m192.84 211.88c-1.383 0-2.732 0.123-4.062 0.312l-0.094 2.938c-1.695 0.276-3.34 0.722-4.906 1.312l-1.562-2.5c-2.552 1.023-4.936 2.388-7.062 4.062l1.406 2.625c-1.309 1.074-2.52 2.286-3.594 3.594l-2.625-1.406c-1.669 2.12-3.041 4.491-4.062 7.031l2.5 1.562c-0.596 1.575-1.035 3.233-1.312 4.938l-2.938 0.094c-0.19 1.331-0.312 2.68-0.312 4.062s0.122 2.732 0.312 4.062l2.938 0.094c0.277 1.705 0.717 3.363 1.312 4.938l-2.5 1.562c1.021 2.541 2.394 4.912 4.062 7.031l2.625-1.406c1.074 1.309 2.285 2.52 3.594 3.594l-1.41 2.66c2.127 1.675 4.511 3.04 7.062 4.062l1.562-2.5c1.566 0.591 3.211 1.037 4.906 1.312l0.094 2.938c1.33 0.19 2.68 0.312 4.062 0.312s2.731-0.123 4.062-0.312l0.094-2.938c1.704-0.278 3.362-0.716 4.938-1.312l1.562 2.5c2.541-1.021 4.911-2.394 7.031-4.062l-1.406-2.625c1.309-1.074 2.52-2.285 3.594-3.594l2.625 1.406c1.669-2.12 3.041-4.49 4.062-7.031l-2.5-1.562c0.596-1.575 1.035-3.233 1.312-4.938l2.938-0.094c0.189-1.331 0.312-2.68 0.312-4.062s-0.123-2.732-0.312-4.062l-2.938-0.094c-0.277-1.705-0.717-3.362-1.312-4.938l2.5-1.562c-1.021-2.541-2.394-4.912-4.062-7.031l-2.625 1.406c-1.074-1.308-2.285-2.52-3.594-3.594l1.406-2.625c-2.12-1.668-4.49-3.041-7.031-4.062l-1.562 2.5c-1.575-0.596-3.233-1.035-4.938-1.312l-0.094-2.938c-1.32-0.23-2.67-0.35-4.06-0.35z"/>
		<rect id="rect7345" style="stroke:#000000;fill:#808080" height="21.966" width="8.624" y="211.2" x="188.44"/>
	</g>
	<g id="g7347" transform="translate(229.55 101.38)">
		<path id="path7349" style="stroke:#000000;fill:#0000FF" d="m192.84 211.88c-1.383 0-2.732 0.123-4.062 0.312l-0.094 2.938c-1.695 0.276-3.34 0.722-4.906 1.312l-1.562-2.5c-2.552 1.023-4.936 2.388-7.062 4.062l1.406 2.625c-1.309 1.074-2.52 2.286-3.594 3.594l-2.625-1.406c-1.669 2.12-3.041 4.491-4.062 7.031l2.5 1.562c-0.596 1.575-1.035 3.233-1.312 4.938l-2.938 0.094c-0.19 1.331-0.312 2.68-0.312 4.062s0.122 2.732 0.312 4.062l2.938 0.094c0.277 1.705 0.717 3.363 1.312 4.938l-2.5 1.562c1.021 2.541 2.394 4.912 4.062 7.031l2.625-1.406c1.074 1.308 2.285 2.52 3.594 3.594l-1.41 2.66c2.127 1.675 4.511 3.04 7.062 4.062l1.562-2.5c1.566 0.591 3.211 1.037 4.906 1.312l0.094 2.938c1.33 0.19 2.68 0.312 4.062 0.312s2.731-0.123 4.062-0.312l0.094-2.938c1.704-0.278 3.362-0.716 4.938-1.312l1.562 2.5c2.541-1.022 4.911-2.394 7.031-4.062l-1.406-2.625c1.309-1.074 2.52-2.286 3.594-3.594l2.625 1.406c1.669-2.12 3.041-4.49 4.062-7.031l-2.5-1.562c0.596-1.575 1.035-3.233 1.312-4.938l2.938-0.094c0.189-1.331 0.312-2.68 0.312-4.062s-0.123-2.732-0.312-4.062l-2.938-0.094c-0.277-1.705-0.717-3.363-1.312-4.938l2.5-1.562c-1.021-2.541-2.394-4.912-4.062-7.031l-2.625 1.406c-1.074-1.308-2.285-2.52-3.594-3.594l1.406-2.625c-2.12-1.668-4.49-3.041-7.031-4.062l-1.562 2.5c-1.575-0.596-3.233-1.035-4.938-1.312l-0.094-2.938c-1.32-0.23-2.67-0.35-4.06-0.35z"/>
		<rect id="rect7351" style="stroke:#000000;fill:#808080" height="21.965" width="8.624" y="211.2" x="188.44"/>
	</g>
	<g id="g7353" transform="translate(229.55 -45.615)">
		<path id="path7355" style="stroke:#000000;fill:#800000" d="m192.84 444.68c-1.383 0-2.732 0.123-4.062 0.312l-0.094 2.938c-1.695 0.276-3.34 0.722-4.906 1.312l-1.562-2.5c-2.552 1.023-4.936 2.388-7.062 4.062l1.406 2.625c-1.309 1.074-2.52 2.286-3.594 3.594l-2.625-1.406c-1.669 2.12-3.041 4.491-4.062 7.031l2.5 1.562c-0.596 1.575-1.035 3.233-1.312 4.938l-2.938 0.094c-0.19 1.331-0.312 2.68-0.312 4.062s0.122 2.731 0.312 4.062l2.938 0.094c0.277 1.704 0.717 3.362 1.312 4.938l-2.5 1.562c1.021 2.541 2.394 4.911 4.062 7.031l2.625-1.406c1.074 1.309 2.285 2.521 3.594 3.594l-1.406 2.625c2.127 1.675 4.511 3.04 7.062 4.062l1.562-2.5c1.566 0.591 3.211 1.036 4.906 1.312l0.094 2.938c1.33 0.19 2.68 0.312 4.062 0.312s2.731-0.122 4.062-0.312l0.094-2.938c1.704-0.277 3.362-0.716 4.938-1.312l1.562 2.5c2.541-1.021 4.911-2.394 7.031-4.062l-1.406-2.625c1.309-1.073 2.52-2.285 3.594-3.594l2.625 1.406c1.669-2.12 3.041-4.49 4.062-7.031l-2.5-1.562c0.596-1.575 1.035-3.233 1.312-4.938l2.938-0.094c0.189-1.331 0.312-2.68 0.312-4.062s-0.123-2.731-0.312-4.062l-2.938-0.094c-0.277-1.704-0.717-3.362-1.312-4.938l2.5-1.562c-1.021-2.541-2.394-4.912-4.062-7.031l-2.625 1.406c-1.074-1.308-2.285-2.52-3.594-3.594l1.406-2.625c-2.12-1.668-4.49-3.041-7.031-4.062l-1.562 2.5c-1.575-0.596-3.233-1.035-4.938-1.312l-0.094-2.938c-1.32-0.18-2.67-0.31-4.06-0.31z"/>
		<rect id="rect7357" style="stroke:#000000;fill:#808080" height="21.966" width="8.624" y="444.01" x="188.44"/>
	</g>
	<g id="g7359" transform="translate(229.55 -45.615)">
		<path id="path7361" style="stroke:#000000;fill:#1A1A1A" d="m192.84 534.75c-1.383 0-2.732 0.122-4.062 0.312l-0.094 2.938c-1.695 0.276-3.34 0.722-4.906 1.312l-1.562-2.5c-2.552 1.022-4.936 2.388-7.062 4.062l1.406 2.625c-1.309 1.074-2.52 2.286-3.594 3.594l-2.625-1.406c-1.669 2.12-3.041 4.491-4.062 7.031l2.5 1.562c-0.596 1.575-1.035 3.233-1.312 4.938l-2.938 0.094c-0.19 1.331-0.312 2.68-0.312 4.062s0.122 2.731 0.312 4.062l2.938 0.094c0.277 1.704 0.717 3.362 1.312 4.938l-2.5 1.562c1.021 2.541 2.394 4.912 4.062 7.031l2.625-1.406c1.074 1.309 2.285 2.52 3.594 3.594l-1.406 2.625c2.127 1.675 4.511 3.04 7.062 4.062l1.562-2.5c1.566 0.591 3.211 1.036 4.906 1.312l0.094 2.938c1.33 0.189 2.68 0.312 4.062 0.312s2.731-0.123 4.062-0.312l0.094-2.938c1.704-0.277 3.362-0.717 4.938-1.312l1.562 2.5c2.541-1.021 4.911-2.394 7.031-4.062l-1.406-2.625c1.309-1.074 2.52-2.285 3.594-3.594l2.625 1.406c1.669-2.119 3.041-4.49 4.062-7.031l-2.5-1.562c0.596-1.575 1.035-3.233 1.312-4.938l2.938-0.094c0.189-1.331 0.312-2.68 0.312-4.062s-0.123-2.731-0.312-4.062l-2.938-0.094c-0.277-1.704-0.717-3.362-1.312-4.938l2.5-1.562c-1.021-2.54-2.394-4.911-4.062-7.031l-2.625 1.406c-1.074-1.308-2.285-2.52-3.594-3.594l1.406-2.625c-2.12-1.669-4.49-3.04-7.031-4.062l-1.562 2.5c-1.575-0.596-3.233-1.034-4.938-1.312l-0.094-2.938c-1.32-0.2-2.67-0.32-4.06-0.32z"/>
		<rect id="rect7363" style="stroke:#000000;fill:#808080" height="21.965" width="8.624" y="534.07" x="188.44"/>
	</g>
	<g id="g7365" transform="translate(229.55 -45.615)">
		<path id="path7367" style="stroke:#000000;stroke-width:1.2884;fill:#E6E6E6" d="m192.84 616.65c-1.781 0-3.52 0.158-5.234 0.402l-0.121 3.785c-2.184 0.355-4.303 0.93-6.32 1.69l-2.014-3.221c-3.287 1.317-6.358 3.076-9.1 5.234l1.812 3.382c-1.686 1.384-3.247 2.944-4.631 4.63l-3.382-1.812c-2.149 2.73-3.918 5.785-5.234 9.059l3.222 2.014c-0.768 2.028-1.333 4.165-1.691 6.361l-3.784 0.121c-0.245 1.714-0.403 3.452-0.403 5.233 0 1.782 0.158 3.52 0.403 5.234l3.784 0.121c0.358 2.196 0.924 4.332 1.691 6.361l-3.222 2.013c1.316 3.273 3.085 6.328 5.234 9.06l3.382-1.812c1.384 1.686 2.945 3.247 4.631 4.631l-1.812 3.382c2.741 2.157 5.812 3.916 9.1 5.234l2.014-3.222c2.018 0.762 4.137 1.336 6.32 1.691l0.121 3.785c1.715 0.244 3.453 0.402 5.234 0.402s3.52-0.158 5.234-0.402l0.12-3.785c2.196-0.357 4.333-0.923 6.361-1.691l2.014 3.222c3.273-1.316 6.328-3.085 9.059-5.234l-1.812-3.382c1.686-1.384 3.246-2.945 4.63-4.631l3.383 1.812c2.149-2.731 3.917-5.786 5.233-9.06l-3.221-2.013c0.768-2.029 1.333-4.165 1.691-6.361l3.784-0.121c0.245-1.715 0.402-3.452 0.402-5.234 0-1.781-0.157-3.52-0.402-5.233l-3.784-0.121c-0.358-2.196-0.924-4.333-1.691-6.361l3.221-2.014c-1.316-3.273-3.084-6.328-5.233-9.059l-3.383 1.812c-1.384-1.686-2.944-3.246-4.63-4.63l1.812-3.382c-2.73-2.15-5.785-3.918-9.059-5.234l-2.014 3.221c-2.028-0.768-4.165-1.333-6.361-1.69l-0.12-3.785c-1.71-0.25-3.45-0.41-5.23-0.41z"/>
			<rect id="rect7369" style="stroke:#000000;stroke-width:1.2884;fill:#808080" height="28.3" width="11.111" y="615.79" x="187.17"/>
	</g>
	<path id="path7371" sodipodi:nodetypes="cc" style="stroke:#000000;stroke-width:1.8;fill:none" d="m370.13 131.98v564.75"/>
	<path id="rect7373" style="stroke:#000000;stroke-width:1.8" d="m376.51 662.09h90.261c2.154 0 3.901 1.747 3.901 3.902v14.046c0 2.155-1.747 3.902-3.901 3.902h-90.261c-2.155 0-3.902-1.747-3.902-3.902v-14.046c0-2.15 1.75-3.9 3.9-3.9z"/>
	<path id="text7375" style="fill:#FFFFFF" d="m423.76 677.36h-7.972v-3.6l7.972-9.477h3.814v9.681h1.978v3.396h-1.978v2.943h-3.814v-2.94m0-3.4v-4.953l-4.211 4.953h4.21"/>
	<path id="path7379" style="stroke:#000000;stroke-width:1.4;fill:none" d="m376.69 389.84h84.977"/>
	<path id="path7381" style="stroke:#000000;stroke-width:1.4;fill:none" d="m376.69 478.13h84.977"/>
	<path id="path7455" sodipodi:nodetypes="cc" style="stroke:#000000;stroke-width:1.8;fill:none" d="m474.61 131.98v564.75"/>
</g>
<metadata><rdf:RDF><cc:Work><dc:format>image/svg+xml</dc:format><dc:type rdf:resource="http://purl.org/dc/dcmitype/StillImage"/><cc:license rdf:resource="http://creativecommons.org/licenses/publicdomain/"/><dc:publisher><cc:Agent rdf:about="http://openclipart.org/"><dc:title>Openclipart</dc:title></cc:Agent></dc:publisher><dc:title>Mixer knobs</dc:title><dc:date>2008-02-14T23:25:11</dc:date><dc:description>knobs for a mixer</dc:description><dc:source>https://openclipart.org/detail/15859/mixer-knobs-by-odaibanet</dc:source><dc:creator><cc:Agent><dc:title>odaibanet</dc:title></cc:Agent></dc:creator><dc:subject><rdf:Bag><rdf:li>colour</rdf:li><rdf:li>knob</rdf:li><rdf:li>mixer</rdf:li><rdf:li>outline</rdf:li><rdf:li>sound</rdf:li></rdf:Bag></dc:subject></cc:Work><cc:License rdf:about="http://creativecommons.org/licenses/publicdomain/"><cc:permits rdf:resource="http://creativecommons.org/ns#Reproduction"/><cc:permits rdf:resource="http://creativecommons.org/ns#Distribution"/><cc:permits rdf:resource="http://creativecommons.org/ns#DerivativeWorks"/></cc:License></rdf:RDF></metadata></svg>