<?xml version="1.0" encoding="UTF-8"?>
<svg xmlns:rdf="http://www.w3.org/1999/02/22-rdf-syntax-ns#" xmlns="http://www.w3.org/2000/svg" xmlns:cc="http://creativecommons.org/ns#" xmlns:xlink="http://www.w3.org/1999/xlink" xmlns:dc="http://purl.org/dc/elements/1.1/" xmlns:svg="http://www.w3.org/2000/svg" xmlns:inkscape="http://www.inkscape.org/namespaces/inkscape" xmlns:sodipodi="http://sodipodi.sourceforge.net/DTD/sodipodi-0.dtd" xmlns:ns1="http://sozi.baierouge.fr" id="svg2985" viewBox="0 0 436.25 618.25" version="1.1">
  <title id="title4005">Switched On</title>
  <defs id="defs2987">
    <linearGradient id="linearGradient3093" y2="350.99" gradientUnits="userSpaceOnUse" x2="229.87" gradientTransform="matrix(-1.1691 0 0 -.85539 485.39 664.08)" y1="745.62" x1="229.87">
      <stop id="stop3704" stop-color="#fff" offset="0"/>
      <stop id="stop3706" stop-color="#fff" stop-opacity="0" offset="1"/>
    </linearGradient>
  </defs>
  <g id="g4100">
    <rect id="rect3141" stroke-linejoin="round" rx="29.358" ry="29.358" height="610.25" width="428.25" stroke="#666" y="4" x="4" stroke-width="8" fill="#3c3c3c"/>
    <path id="rect2818" stroke-width="10" d="m362.09 593.21h-286.9c-8.864 0-16-7.136-16-16 0 0-35-158.74-35-267.46s35-267.46 35-267.46c0-8.864 7.136-16 16-16h286.9c8.864 0 16 7.136 16 16 0 0 35 158.74 35 267.46s-35 267.46-35 267.46c0 8.864-7.136 16-16 16z"/>
    <path id="path2821" d="m362.09 458.93h-286.9c-8.864 0-11.959-3.678-16-12.21 0 0-27-55.937-27-135.5 0-79.558 27-272.73 27-272.73 0-6.7644 7.136-12.21 16-12.21h286.9c8.864 0 16 5.4457 16 12.21 0 0 27 193.17 27 272.73 0 79.558-27 135.5-27 135.5 0 6.7644-7.136 12.21-16 12.21z" stroke-width="10" fill="#3c3c3c"/>
    <path id="rect2829" opacity=".142" d="m364.67 591.22h-290.86c-6.5105 0-11.429-4.9315-11.429-11.429l6-107.14c0-6.2486 5.1866-11.429 11.429-11.429h278.86c6.242 0 11.428 5.18 11.428 11.429l6 107.14c0 6.4971-4.918 11.429-11.428 11.429z" stroke-width="10" fill="#fff"/>
    <path id="path3697" opacity=".27907" d="m38.047 295.85c136.83 0 262.76-22.686 362.82-60.75-7.6-87.903-22.79-196.59-22.79-196.59 0-6.7644-7.13-12.219-16-12.219h-286.9c-8.87 0-16 5.4543-16 12.219 0 0-23.87 170.79-26.72 257.31 1.87 0.008 3.72 0.031 5.59 0.031z" stroke-width="10" fill="url(#linearGradient3093)"/>
    <rect id="svg_15" height="126" width="21" y="77.759" x="207.62" stroke-width="0" fill="#fff"/>
    <rect id="svg_18" height="0" width="1" y="475.76" x="-105.36" stroke-width="0" fill="#4c4c4c"/>
    <path id="path3679-1" d="m374.57 567.97c-1.624-37.086-2.905-70.912-4.4399-108.01 0.40698-2.602 0.42395-2.93 1.83-4.286 7.4769-8.621 13.98-26.167 17.469-41.469 0.005-0.022 0.026-0.041 0.031-0.063 0.006-0.019-0.006-0.043 0-0.062 17.867-55.232 18.446-113.96 12.875-170.97-0.00098-0.01 0.00097-0.021 0-0.031-3.621-43.919-8.613-87.694-14-131.41 11.768 66.002 20.803 132.5 21.125 199.47-0.00098 0.068-0.00098 0.078 0 0.031-1.939 87.508-16.455 171.01-33.801 256.76-0.15197 0.867-1.0289 0.763-1.089 0.03z" stroke-width="10" fill="#cccccf"/>
    <path id="path2825" style="color:#000000" d="m-1168.6-19.066a41.429 42.857 0 1 1 -82.857 0 41.429 42.857 0 1 1 82.857 0z" transform="matrix(1.9617 0 0 1.7787 2591.7 387.81)" stroke="#fff" stroke-width="10" fill="none"/>
  </g>
  <metadata>
    <rdf:RDF>
      <cc:Work>
        <dc:format>image/svg+xml</dc:format>
        <dc:type rdf:resource="http://purl.org/dc/dcmitype/StillImage"/>
        <cc:license rdf:resource="http://creativecommons.org/licenses/publicdomain/"/>
        <dc:publisher>
          <cc:Agent rdf:about="http://openclipart.org/">
            <dc:title>Openclipart</dc:title>
          </cc:Agent>
        </dc:publisher>
        <dc:title>Switch On</dc:title>
        <dc:date>2013-07-08T11:16:08</dc:date>
        <dc:description>A click switch (toggle switch) turned to the on position.</dc:description>
        <dc:source>https://openclipart.org/detail/180085/switch-on-by-gr8dan-180085</dc:source>
        <dc:creator>
          <cc:Agent>
            <dc:title>GR8DAN</dc:title>
          </cc:Agent>
        </dc:creator>
        <dc:subject>
          <rdf:Bag>
            <rdf:li>button</rdf:li>
            <rdf:li>click</rdf:li>
            <rdf:li>off</rdf:li>
            <rdf:li>on</rdf:li>
            <rdf:li>one</rdf:li>
            <rdf:li>plastic</rdf:li>
            <rdf:li>power</rdf:li>
            <rdf:li>switch</rdf:li>
            <rdf:li>toggle</rdf:li>
            <rdf:li>zero</rdf:li>
          </rdf:Bag>
        </dc:subject>
      </cc:Work>
      <cc:License rdf:about="http://creativecommons.org/licenses/publicdomain/">
        <cc:permits rdf:resource="http://creativecommons.org/ns#Reproduction"/>
        <cc:permits rdf:resource="http://creativecommons.org/ns#Distribution"/>
        <cc:permits rdf:resource="http://creativecommons.org/ns#DerivativeWorks"/>
      </cc:License>
    </rdf:RDF>
  </metadata>
</svg>