<?xml version="1.0" encoding="UTF-8" standalone="no"?>
<!-- Created with Inkscape (http://www.inkscape.org/) -->

<svg
   width="69.999786mm"
   height="119.99983mm"
   viewBox="0 0 69.999786 119.99983"
   version="1.1"
   id="svg118252"
   inkscape:version="1.2.2 (b0a8486, 2022-12-01)"
   sodipodi:docname="2mm-White-Front_Leyer.svg"
   xmlns:inkscape="http://www.inkscape.org/namespaces/inkscape"
   xmlns:sodipodi="http://sodipodi.sourceforge.net/DTD/sodipodi-0.dtd"
   xmlns="http://www.w3.org/2000/svg"
   xmlns:svg="http://www.w3.org/2000/svg">
  <sodipodi:namedview
     id="namedview118254"
     pagecolor="#ffffff"
     bordercolor="#666666"
     borderopacity="1.0"
     inkscape:showpageshadow="2"
     inkscape:pageopacity="0.0"
     inkscape:pagecheckerboard="0"
     inkscape:deskcolor="#d1d1d1"
     inkscape:document-units="mm"
     showgrid="false"
     inkscape:zoom="2.5730765"
     inkscape:cx="132.13754"
     inkscape:cy="226.77134"
     inkscape:current-layer="layer1" />
  <defs
     id="defs118249" />
  <g
     inkscape:label="Capa 1"
     inkscape:groupmode="layer"
     id="layer1"
     transform="translate(-3.938848e-5,-3.999848e-5)">
    <path
       id="rect10964"
       style="display:inline;fill:none;fill-opacity:1;stroke:#000000;stroke-width:0.064;stroke-miterlimit:10;stroke-dasharray:none"
       inkscape:label="White Acrylic"
       d="m 10.032979,0.03204 v 4.99711 c 1.17e-4,2.7599 -2.2385475,4.99746 -5.0002112,4.99763 H 0.03203939 v 99.94687 H 5.0327678 c 2.7616637,1.7e-4 5.0003282,2.23732 5.0002112,4.99711 v 4.99711 h 49.933903 v -4.99711 c -1.15e-4,-2.75979 2.238556,-4.99694 5.000212,-4.99711 h 5.000728 V 10.02678 H 64.967094 C 62.205438,10.02661 59.966767,7.78905 59.966882,5.02915 V 0.03204 Z M 25.500769,10.8226 H 44.500643 V 29.82247 H 25.500769 Z M 4.7506144,13.06329 a 1.6,1.6 0 0 1 1.5999024,1.5999 1.6,1.6 0 0 1 -1.5999024,1.5999 1.6,1.6 0 0 1 -1.5999023,-1.5999 1.6,1.6 0 0 1 1.5999023,-1.5999 z m 60.5001836,0 a 1.6,1.6 0 0 1 1.599902,1.5999 1.6,1.6 0 0 1 -1.599902,1.5999 1.6,1.6 0 0 1 -1.599903,-1.5999 1.6,1.6 0 0 1 1.599903,-1.5999 z M 2.5006226,37.61631 H 21.500497 V 56.61618 H 2.5006226 Z m 23.0125494,0 H 44.513045 V 56.61618 H 25.513172 Z m 32.487422,0.18862 a 7.7499995,7.7499995 0 0 1 7.749915,7.75043 7.7499995,7.7499995 0 0 1 -7.749915,7.74991 7.7499995,7.7499995 0 0 1 -7.749914,-7.74991 7.7499995,7.7499995 0 0 1 7.749914,-7.75043 z M 2.5006226,65.34278 H 21.500497 V 84.34266 H 2.5006226 Z m 23.0125494,0 H 44.513045 V 84.34266 H 25.513172 Z m 23.012548,0 H 67.525594 V 84.34266 H 48.52572 Z m -23.024951,22.6751 h 18.999874 v 18.99988 H 25.500769 Z M 4.7506144,103.73734 a 1.6,1.6 0 0 1 1.5999024,1.5999 1.6,1.6 0 0 1 -1.5999024,1.5999 1.6,1.6 0 0 1 -1.5999023,-1.5999 1.6,1.6 0 0 1 1.5999023,-1.5999 z m 60.5001836,0 a 1.6,1.6 0 0 1 1.599902,1.5999 1.6,1.6 0 0 1 -1.599902,1.5999 1.6,1.6 0 0 1 -1.599903,-1.5999 1.6,1.6 0 0 1 1.599903,-1.5999 z" />
  </g>
</svg>
