<?xml version="1.0" encoding="UTF-8" standalone="no"?>
<!-- Created with Inkscape (http://www.inkscape.org/) -->

<svg
   width="60.03978mm"
   height="120.0759mm"
   viewBox="0 0 60.03978 120.0759"
   version="1.1"
   id="svg65349"
   inkscape:version="1.2.2 (b0a8486, 2022-12-01)"
   sodipodi:docname="2mm-White-Front_Leyer.svg"
   xmlns:inkscape="http://www.inkscape.org/namespaces/inkscape"
   xmlns:sodipodi="http://sodipodi.sourceforge.net/DTD/sodipodi-0.dtd"
   xmlns="http://www.w3.org/2000/svg"
   xmlns:svg="http://www.w3.org/2000/svg">
  <sodipodi:namedview
     id="namedview65351"
     pagecolor="#ffffff"
     bordercolor="#666666"
     borderopacity="1.0"
     inkscape:showpageshadow="2"
     inkscape:pageopacity="0.0"
     inkscape:pagecheckerboard="0"
     inkscape:deskcolor="#d1d1d1"
     inkscape:document-units="mm"
     showgrid="false"
     inkscape:zoom="2.5714465"
     inkscape:cx="113.55476"
     inkscape:cy="226.91508"
     inkscape:current-layer="layer1" />
  <defs
     id="defs65346" />
  <g
     inkscape:label="Capa 1"
     inkscape:groupmode="layer"
     id="layer1"
     transform="translate(-71.486439,-88.462045)">
    <path
       id="rect3678"
       style="display:inline;fill:none;fill-opacity:1;stroke:#000000;stroke-width:0.076;stroke-linecap:round;stroke-miterlimit:4;stroke-dasharray:none"
       d="m 81.524345,88.500045 v 5.00021 c -1.66e-4,2.76139 -2.238876,4.99983 -5.000212,4.9997 H 71.524439 V 198.50004 h 4.999694 c 2.761336,-1.1e-4 5.000046,2.23832 5.000212,4.99971 v 5.0002 h 39.963965 v -5.0002 c 1.7e-4,-2.76139 2.23889,-4.99982 5.00022,-4.99971 h 4.99969 V 98.499955 h -4.99969 c -2.76133,1.3e-4 -5.00005,-2.23832 -5.00022,-4.9997 v -5.00021 z m 10.539925,10.8226 h 18.99987 V 118.32252 H 92.06427 Z m -16.494084,1.647965 c 0.883781,5e-5 1.600135,0.71664 1.599903,1.60042 -5.5e-5,0.88357 -0.716325,1.59985 -1.599903,1.5999 -0.883577,-5e-5 -1.599847,-0.71633 -1.599902,-1.5999 -2.32e-4,-0.88378 0.716122,-1.60037 1.599902,-1.60042 z m 51.987524,0 c 0.88398,-2.3e-4 1.60065,0.71644 1.60042,1.60042 -6e-5,0.88377 -0.71664,1.60013 -1.60042,1.5999 -0.88358,-5e-5 -1.59985,-0.71633 -1.5999,-1.5999 -2.3e-4,-0.88378 0.71612,-1.60037 1.5999,-1.60042 z m -7.47965,25.05066 a 7.5500002,7.5500002 0 0 1 7.54993,7.55045 7.5500002,7.5500002 0 0 1 -7.54993,7.54992 7.5500002,7.5500002 0 0 1 -7.55044,-7.54992 7.5500002,7.5500002 0 0 1 7.55044,-7.55045 z m -46.527905,0.0951 h 37.513985 v 18.99987 H 73.550155 Z m 0,27.72647 h 56.027585 v 18.99987 H 73.550155 Z m 18.514115,22.6751 h 18.99987 v 18.99988 H 92.06427 Z m -16.494084,16.61861 c 0.883578,5e-5 1.599848,0.71632 1.599903,1.5999 -5.5e-5,0.88358 -0.716325,1.59985 -1.599903,1.5999 -0.883577,-5e-5 -1.599847,-0.71632 -1.599902,-1.5999 5.5e-5,-0.88358 0.716325,-1.59985 1.599902,-1.5999 z m 51.987524,0 c 0.88378,-2.3e-4 1.60036,0.71612 1.60042,1.5999 -6e-5,0.88378 -0.71664,1.60013 -1.60042,1.5999 -0.88358,-5e-5 -1.59985,-0.71632 -1.5999,-1.5999 5e-5,-0.88358 0.71632,-1.59985 1.5999,-1.5999 z" />
  </g>
</svg>
