<?xml version="1.0" encoding="UTF-8" standalone="no"?>
<!-- Created with Inkscape (http://www.inkscape.org/) -->

<svg
   width="59.999989mm"
   height="119.99995mm"
   viewBox="0 0 59.999989 119.99995"
   version="1.1"
   id="svg35041"
   inkscape:version="1.2.2 (b0a8486, 2022-12-01)"
   sodipodi:docname="3mm-Translucent-Middle_Layer.svg"
   xmlns:inkscape="http://www.inkscape.org/namespaces/inkscape"
   xmlns:sodipodi="http://sodipodi.sourceforge.net/DTD/sodipodi-0.dtd"
   xmlns="http://www.w3.org/2000/svg"
   xmlns:svg="http://www.w3.org/2000/svg">
  <sodipodi:namedview
     id="namedview35043"
     pagecolor="#ffffff"
     bordercolor="#666666"
     borderopacity="1.0"
     inkscape:showpageshadow="2"
     inkscape:pageopacity="0.0"
     inkscape:pagecheckerboard="0"
     inkscape:deskcolor="#d1d1d1"
     inkscape:document-units="mm"
     showgrid="false"
     inkscape:zoom="2.5730741"
     inkscape:cx="113.48294"
     inkscape:cy="226.77155"
     inkscape:current-layer="layer1" />
  <defs
     id="defs35038" />
  <g
     inkscape:label="Capa 1"
     inkscape:groupmode="layer"
     id="layer1"
     transform="translate(-2.4056122e-4,-2.4000122e-4)">
    <path
       id="rect3678-3"
       style="display:inline;fill:none;fill-opacity:1;stroke:#000000;stroke-width:0.076;stroke-linecap:round;stroke-miterlimit:4;stroke-dasharray:none"
       d="m 10.042281,0.03824 v 4.99659 c -1.68e-4,2.75955 -2.2397823,4.99672 -5.0022786,4.9966 H 0.03824056 v 99.93705 H 5.0400024 c 2.7624963,-1.2e-4 5.0021106,2.23705 5.0022786,4.9966 v 4.99711 h 39.915393 v -4.99711 c 1.66e-4,-2.75955 2.239775,-4.99672 5.002279,-4.9966 h 5.002278 V 10.03143 H 54.959953 C 52.197449,10.03155 49.95784,7.79438 49.957674,5.03483 V 0.03824 Z M 20.557918,10.8226 H 39.557792 V 29.82247 H 20.557918 Z M 4.0638346,12.47056 c 0.8837797,5e-5 1.6001343,0.71664 1.5999023,1.60042 -5.52e-5,0.88356 -0.7163257,1.59985 -1.5999023,1.5999 -0.8835766,-5e-5 -1.5998471,-0.71634 -1.5999023,-1.5999 -2.32e-4,-0.88378 0.7161226,-1.60037 1.5999023,-1.60042 z m 51.9875244,0 c 0.883981,-2.3e-4 1.600651,0.71644 1.600419,1.60042 -5.5e-5,0.88376 -0.716641,1.60013 -1.600419,1.5999 -0.883577,-5e-5 -1.599848,-0.71634 -1.599903,-1.5999 -2.32e-4,-0.88378 0.716123,-1.60037 1.599903,-1.60042 z m -7.479647,24.85068 a 7.7499995,7.7499995 0 0 1 7.749915,7.75043 7.7499995,7.7499995 0 0 1 -7.749915,7.74991 7.7499995,7.7499995 0 0 1 -7.750431,-7.74991 7.7499995,7.7499995 0 0 1 7.750431,-7.75043 z M 2.0438029,37.61631 H 39.557792 V 56.61618 H 2.0438029 Z m 0,27.72647 H 58.071391 V 84.34266 H 2.0438029 Z m 18.5141151,22.6751 h 18.999874 v 18.99988 H 20.557918 Z M 4.0638346,104.63651 c 0.8835766,5e-5 1.5998471,0.71632 1.5999023,1.5999 -5.52e-5,0.88358 -0.7163257,1.59985 -1.5999023,1.5999 -0.8835766,-5e-5 -1.5998471,-0.71632 -1.5999023,-1.5999 5.52e-5,-0.88358 0.7163257,-1.59985 1.5999023,-1.5999 z m 51.9875244,0 c 0.883778,-2.3e-4 1.600364,0.71612 1.600419,1.5999 -5.5e-5,0.88378 -0.716641,1.60013 -1.600419,1.5999 -0.883577,-5e-5 -1.599848,-0.71632 -1.599903,-1.5999 5.5e-5,-0.88358 0.716326,-1.59985 1.599903,-1.5999 z" />
  </g>
</svg>
