<?xml version="1.0" encoding="UTF-8" standalone="no"?>
<!-- Created with Inkscape (http://www.inkscape.org/) -->

<svg
   width="59.974667mm"
   height="120.0759mm"
   viewBox="0 0 59.974667 120.0759"
   version="1.1"
   id="svg32658"
   inkscape:version="1.2.2 (b0a8486, 2022-12-01)"
   sodipodi:docname="3mm-Translucent-Middle_Layer.svg"
   xmlns:inkscape="http://www.inkscape.org/namespaces/inkscape"
   xmlns:sodipodi="http://sodipodi.sourceforge.net/DTD/sodipodi-0.dtd"
   xmlns="http://www.w3.org/2000/svg"
   xmlns:svg="http://www.w3.org/2000/svg">
  <sodipodi:namedview
     id="namedview32660"
     pagecolor="#ffffff"
     bordercolor="#666666"
     borderopacity="1.0"
     inkscape:showpageshadow="2"
     inkscape:pageopacity="0.0"
     inkscape:pagecheckerboard="0"
     inkscape:deskcolor="#d1d1d1"
     inkscape:document-units="mm"
     showgrid="false"
     inkscape:zoom="2.5714465"
     inkscape:cx="113.16588"
     inkscape:cy="226.91508"
     inkscape:current-layer="layer1" />
  <defs
     id="defs32655" />
  <g
     inkscape:label="Capa 1"
     inkscape:groupmode="layer"
     id="layer1"
     transform="translate(-71.518994,-88.462045)">
    <path
       id="rect3678-3"
       style="display:inline;fill:none;fill-opacity:1;stroke:#000000;stroke-width:0.076;stroke-linecap:round;stroke-miterlimit:4;stroke-dasharray:none"
       d="m 81.556901,88.500045 v 5.00022 c -1.68e-4,2.7613 -2.238847,4.99981 -5.000212,4.99969 H 71.556994 V 198.50005 h 4.999695 c 2.761365,-1.2e-4 5.000044,2.23839 5.000212,4.99969 v 5.00021 h 39.898859 v -5.00021 c 1.6e-4,-2.7613 2.23885,-4.99981 5.00021,-4.99969 h 4.99969 V 98.499955 h -4.99969 c -2.76136,1.2e-4 -5.00005,-2.23839 -5.00021,-4.99969 v -5.00022 z m 10.519771,10.74664 H 111.07655 V 118.24655 H 92.076672 Z m -16.494084,1.647955 c 0.883779,5e-5 1.600135,0.71664 1.599903,1.60042 -5.6e-5,0.88356 -0.716327,1.59986 -1.599903,1.5999 -0.883575,-4e-5 -1.599847,-0.71635 -1.599902,-1.5999 -2.32e-4,-0.88378 0.716124,-1.60036 1.599902,-1.60042 z m 51.987522,0 c 0.88398,-2.3e-4 1.60065,0.71644 1.60042,1.60042 -5e-5,0.88375 -0.71664,1.60014 -1.60042,1.5999 -0.88357,-4e-5 -1.59985,-0.71635 -1.5999,-1.5999 -2.3e-4,-0.88378 0.71612,-1.60036 1.5999,-1.60042 z m -7.47964,25.05066 a 7.5500002,7.5500002 0 0 1 7.54992,7.55045 7.5500002,7.5500002 0 0 1 -7.54992,7.54992 7.5500002,7.5500002 0 0 1 -7.55045,-7.54992 7.5500002,7.5500002 0 0 1 7.55045,-7.55045 z m -46.527913,0.0951 h 37.513993 v 18.99987 H 73.562557 Z m 0,27.72647 h 56.027583 v 18.99988 H 73.562557 Z m 18.514115,22.6751 h 18.999878 v 18.99988 H 92.076672 Z m -16.494084,16.61862 c 0.883576,5e-5 1.599847,0.71632 1.599903,1.5999 -5.6e-5,0.88358 -0.716327,1.59985 -1.599903,1.5999 -0.883575,-5e-5 -1.599847,-0.71632 -1.599902,-1.5999 5.5e-5,-0.88358 0.716327,-1.59985 1.599902,-1.5999 z m 51.987522,0 c 0.88378,-2.3e-4 1.60037,0.71612 1.60042,1.5999 -5e-5,0.88378 -0.71664,1.60013 -1.60042,1.5999 -0.88357,-5e-5 -1.59985,-0.71632 -1.5999,-1.5999 6e-5,-0.88358 0.71633,-1.59985 1.5999,-1.5999 z" />
  </g>
</svg>
