<?xml version="1.0" encoding="UTF-8" standalone="no"?>
<!-- Created with Inkscape (http://www.inkscape.org/) -->

<svg
   width="59.999989mm"
   height="119.99995mm"
   viewBox="0 0 59.999989 119.99995"
   version="1.1"
   id="svg61142"
   inkscape:version="1.2.2 (b0a8486, 2022-12-01)"
   sodipodi:docname="3mm-Translucent-Middle_Layer.svg"
   xmlns:inkscape="http://www.inkscape.org/namespaces/inkscape"
   xmlns:sodipodi="http://sodipodi.sourceforge.net/DTD/sodipodi-0.dtd"
   xmlns="http://www.w3.org/2000/svg"
   xmlns:svg="http://www.w3.org/2000/svg">
  <sodipodi:namedview
     id="namedview61144"
     pagecolor="#ffffff"
     bordercolor="#666666"
     borderopacity="1.0"
     inkscape:showpageshadow="2"
     inkscape:pageopacity="0.0"
     inkscape:pagecheckerboard="0"
     inkscape:deskcolor="#d1d1d1"
     inkscape:document-units="mm"
     showgrid="false"
     inkscape:zoom="2.5730741"
     inkscape:cx="113.48294"
     inkscape:cy="226.77155"
     inkscape:current-layer="layer1" />
  <defs
     id="defs61139" />
  <g
     inkscape:label="Capa 1"
     inkscape:groupmode="layer"
     id="layer1"
     transform="translate(-71.506333,-88.500025)">
    <path
       id="rect3678-3"
       style="display:inline;fill:none;fill-opacity:1;stroke:#000000;stroke-width:0.076;stroke-linecap:round;stroke-miterlimit:4;stroke-dasharray:none"
       d="m 81.548374,88.538025 v 4.99659 c -1.68e-4,2.75955 -2.23978,4.99672 -5.002279,4.9966 h -5.001762 v 99.937045 h 5.001762 c 2.762499,-1.1e-4 5.002111,2.23706 5.002279,4.9966 v 4.99712 h 39.915396 v -4.99712 c 1.6e-4,-2.75954 2.23977,-4.99671 5.00228,-4.9966 h 5.00227 V 98.531215 h -5.00227 c -2.76251,1.2e-4 -5.00212,-2.23705 -5.00228,-4.9966 v -4.99659 z m 10.515637,10.78436 H 111.06389 V 118.32226 H 92.064011 Z m -16.494084,1.647965 c 0.883781,4e-5 1.600135,0.71664 1.599903,1.60042 -5.5e-5,0.88357 -0.716325,1.59985 -1.599903,1.5999 -0.883577,-5e-5 -1.599847,-0.71633 -1.599902,-1.5999 -2.32e-4,-0.88378 0.716122,-1.60037 1.599902,-1.60042 z m 51.987523,0 c 0.88398,-2.3e-4 1.60065,0.71644 1.60042,1.60042 -5e-5,0.88377 -0.71664,1.60013 -1.60042,1.5999 -0.88358,-5e-5 -1.59985,-0.71633 -1.5999,-1.5999 -2.3e-4,-0.88378 0.71612,-1.60037 1.5999,-1.60042 z m -7.47964,25.05066 a 7.5500002,7.5500002 0 0 1 7.54992,7.55045 7.5500002,7.5500002 0 0 1 -7.54992,7.54992 7.5500002,7.5500002 0 0 1 -7.55045,-7.54992 7.5500002,7.5500002 0 0 1 7.55045,-7.55045 z m -46.527914,0.0951 h 37.513994 v 18.99986 H 73.549896 Z m 0,27.72646 h 56.027584 v 18.99988 H 73.549896 Z m 18.514115,22.67511 h 18.999879 v 18.99988 H 92.064011 Z m -16.494084,16.61861 c 0.883578,5e-5 1.599848,0.71632 1.599903,1.5999 -5.5e-5,0.88358 -0.716325,1.59985 -1.599903,1.5999 -0.883577,-5e-5 -1.599847,-0.71632 -1.599902,-1.5999 5.5e-5,-0.88358 0.716325,-1.59985 1.599902,-1.5999 z m 51.987523,0 c 0.88378,-2.3e-4 1.60037,0.71612 1.60042,1.5999 -5e-5,0.88378 -0.71664,1.60013 -1.60042,1.5999 -0.88358,-5e-5 -1.59985,-0.71632 -1.5999,-1.5999 5e-5,-0.88358 0.71632,-1.59985 1.5999,-1.5999 z" />
  </g>
</svg>
