<?xml version="1.0" encoding="UTF-8" standalone="no"?>
<!-- Created with Inkscape (http://www.inkscape.org/) -->

<svg
   width="70.000359mm"
   height="120.00041mm"
   viewBox="0 0 70.000359 120.00041"
   version="1.1"
   id="svg109546"
   inkscape:version="1.2.2 (b0a8486, 2022-12-01)"
   sodipodi:docname="3mm-Black-Back_Layer.svg"
   xmlns:inkscape="http://www.inkscape.org/namespaces/inkscape"
   xmlns:sodipodi="http://sodipodi.sourceforge.net/DTD/sodipodi-0.dtd"
   xmlns="http://www.w3.org/2000/svg"
   xmlns:svg="http://www.w3.org/2000/svg">
  <sodipodi:namedview
     id="namedview109548"
     pagecolor="#ffffff"
     bordercolor="#666666"
     borderopacity="1.0"
     inkscape:showpageshadow="2"
     inkscape:pageopacity="0.0"
     inkscape:pagecheckerboard="0"
     inkscape:deskcolor="#d1d1d1"
     inkscape:document-units="mm"
     showgrid="false"
     inkscape:zoom="2.5730641"
     inkscape:cx="132.13818"
     inkscape:cy="226.77243"
     inkscape:current-layer="layer1" />
  <defs
     id="defs109543" />
  <g
     inkscape:label="Capa 1"
     inkscape:groupmode="layer"
     id="layer1"
     transform="translate(-2.6913831e-4,2.5025169e-4)">
    <path
       id="rect11527"
       style="display:inline;fill:none;fill-opacity:1;stroke:#000000;stroke-width:0.0635405;stroke-linecap:round;stroke-miterlimit:4;stroke-dasharray:none"
       d="M 0.03203939,0.03152 V 119.96839 H 69.968856 V 0.03152 Z M 4.7506144,3.40031 c 0.075655,0 0.1498678,0.005 0.2227255,0.0155 a 1.6,1.6 0 0 1 0.00982,0.002 c 0.1519606,0.0222 0.297058,0.0659 0.432015,0.12764 0.068592,0.0314 0.1349461,0.0671 0.1979207,0.10749 a 1.6,1.6 0 0 1 0.00258,0.002 c 6.043e-4,3.9e-4 9.466e-4,0.001 0.00155,0.002 0.063322,0.0409 0.1235952,0.0857 0.1803508,0.13488 a 1.6,1.6 0 0 1 5.167e-4,5.1e-4 c 0.057665,0.05 0.1117495,0.10409 0.1617473,0.16175 1.59e-4,1.8e-4 3.578e-4,3.3e-4 5.167e-4,5.2e-4 0.049164,0.0567 0.093988,0.11703 0.1348755,0.18035 a 1.6,1.6 0 0 1 0.00155,0.002 c 5.452e-4,8.4e-4 0.00101,0.002 0.00155,0.003 0.040375,0.063 0.076109,0.12933 0.107487,0.19792 0.061736,0.13496 0.1054796,0.28006 0.1276408,0.43202 a 1.6,1.6 0 0 1 0.00155,0.01 c 0.010162,0.0728 0.015498,0.14707 0.015503,0.22272 C 6.3504858,5.4444 6.1713309,5.84429 5.8818081,6.13381 5.7344618,6.28115 5.5584872,6.39998 5.3629768,6.48107 5.1743263,6.55927 4.9675577,6.6025 4.750611,6.60251 4.5336647,6.6025 4.3268957,6.55931 4.1382453,6.48107 3.9427349,6.39997 3.7667604,6.28115 3.6194139,6.13381 3.4720675,5.98646 3.3532408,5.81049 3.2721483,5.61498 3.1939013,5.42633 3.1507222,5.21956 3.1507087,5.00261 3.1507222,4.78566 3.1939007,4.5789 3.2721483,4.39025 3.3532413,4.19473 3.4720675,4.01876 3.6194139,3.87141 3.9089368,3.58189 4.3088295,3.40273 4.750611,3.40271 Z m 60.5001836,0 c 0.07565,0 0.149867,0.005 0.222725,0.0155 a 1.6,1.6 0 0 1 0.0098,0.002 c 0.151959,0.0222 0.297058,0.0659 0.432015,0.12764 0.06859,0.0314 0.134946,0.0671 0.19792,0.10749 a 1.6,1.6 0 0 1 0.0026,0.002 c 7.26e-4,4.7e-4 0.0013,0.001 0.0021,0.002 0.06226,0.0402 0.121334,0.0846 0.17725,0.13281 8.33e-4,7.2e-4 0.0018,10e-4 0.0026,0.002 a 1.6,1.6 0 0 1 10e-4,5.1e-4 c 0.0011,9.6e-4 0.002,0.002 0.0031,0.003 0.05632,0.0491 0.109171,0.10218 0.15813,0.15865 l 5.17e-4,5.2e-4 c 0.04916,0.0567 0.09399,0.11703 0.134875,0.18035 a 1.6,1.6 0 0 1 0.0016,0.002 c 5.45e-4,8.4e-4 10e-4,0.002 0.0015,0.003 0.03988,0.0622 0.07535,0.12766 0.106453,0.19534 a 1.6,1.6 0 0 1 0.0016,0.003 c 9.37e-4,0.002 0.0017,0.004 0.0026,0.006 0.06021,0.13316 0.102726,0.27624 0.12454,0.42582 a 1.6,1.6 0 0 1 0.0016,0.01 c 0.01016,0.0728 0.0155,0.14707 0.0155,0.22272 -1.4e-5,0.21695 -0.04319,0.42372 -0.12144,0.61237 -0.08109,0.19551 -0.199919,0.37148 -0.347265,0.51883 -0.147347,0.14734 -0.323321,0.26617 -0.518832,0.34726 -0.188649,0.0782 -0.39542,0.12143 -0.612365,0.12144 -0.216946,-1e-5 -0.423716,-0.0432 -0.612366,-0.12144 C 64.443044,6.40002 64.267069,6.2812 64.119724,6.13386 63.8302,5.84434 63.651046,5.44445 63.651018,5.00266 63.651046,4.56087 63.8302,4.16099 64.119724,3.87146 64.409246,3.58194 64.80914,3.40278 65.250921,3.40276 Z M 4.7506144,13.06329 a 1.6,1.6 0 0 1 1.5999024,1.5999 1.6,1.6 0 0 1 -1.5999024,1.5999 1.6,1.6 0 0 1 -1.5999023,-1.5999 1.6,1.6 0 0 1 1.5999023,-1.5999 z m 60.5001836,0 a 1.6,1.6 0 0 1 1.599902,1.5999 1.6,1.6 0 0 1 -1.599902,1.5999 1.6,1.6 0 0 1 -1.599903,-1.5999 1.6,1.6 0 0 1 1.599903,-1.5999 z M 28.000875,13.3227 H 42.000537 V 27.32236 H 28.000875 Z M 5.0007284,40.11641 H 19.000908 V 54.11659 H 5.0007284 Z m 23.0125486,0 H 42.01294 V 54.11659 H 28.013277 Z m 29.987317,2.13889 a 3.5,3.5 0 0 1 3.500045,3.50005 3.5,3.5 0 0 1 -3.500045,3.49952 3.5,3.5 0 0 1 -3.500045,-3.49952 3.5,3.5 0 0 1 3.500045,-3.50005 z m -0.999939,9.29969 h 1.999878 v 0.99994 H 57.000655 Z M 5.0007284,67.84289 H 19.000908 V 81.84307 H 5.0007284 Z m 23.0125486,0 H 42.01294 V 81.84307 H 28.013277 Z m 23.012549,0 H 65.025488 V 81.84307 H 51.025826 Z m -23.024951,22.6751 h 13.999662 v 13.99966 H 28.000875 Z M 4.7506144,103.73734 a 1.6,1.6 0 0 1 1.5999024,1.5999 1.6,1.6 0 0 1 -1.5999024,1.5999 1.6,1.6 0 0 1 -1.5999023,-1.5999 1.6,1.6 0 0 1 1.5999023,-1.5999 z m 60.5001836,0 a 1.6,1.6 0 0 1 1.599902,1.5999 1.6,1.6 0 0 1 -1.599902,1.5999 1.6,1.6 0 0 1 -1.599903,-1.5999 1.6,1.6 0 0 1 1.599903,-1.5999 z m -60.5001836,9.66297 c 0.075656,10e-6 0.1498669,0.005 0.2227255,0.0155 a 1.6,1.6 0 0 1 0.00982,0.002 c 0.15196,0.0222 0.2970585,0.0659 0.432015,0.12764 0.068592,0.0314 0.1349472,0.0671 0.1979207,0.10748 a 1.6,1.6 0 0 1 0.00258,0.002 c 6.043e-4,3.9e-4 9.466e-4,0.001 0.00155,0.002 0.063321,0.0409 0.1235953,0.0857 0.1803508,0.13488 a 1.6,1.6 0 0 1 5.167e-4,5.2e-4 c 0.056467,0.049 0.1095233,0.10181 0.1586467,0.15813 a 1.6,1.6 0 0 1 0.0031,0.003 c 9.644e-4,10e-4 0.00162,0.002 0.00258,0.004 0.048236,0.0559 0.092582,0.11499 0.1328084,0.17726 a 1.6,1.6 0 0 1 0.00155,0.002 c 5.452e-4,8.5e-4 0.00101,0.002 0.00155,0.003 0.040375,0.063 0.07611,0.12932 0.107487,0.19792 0.061734,0.13495 0.1054806,0.28005 0.1276408,0.43201 a 1.6,1.6 0 0 1 0.00155,0.01 c 0.010161,0.0729 0.015499,0.14707 0.015503,0.22273 -2.76e-5,0.44177 -0.1791861,0.84167 -0.4687053,1.13119 -0.2895179,0.28953 -0.6894147,0.46868 -1.1311971,0.46871 -0.4417809,-3e-5 -0.8416791,-0.17918 -1.1311971,-0.46871 -0.1473433,-0.14735 -0.2661752,-0.32332 -0.3472656,-0.51883 -0.078245,-0.18865 -0.1214261,-0.39542 -0.1214396,-0.61236 1.22e-5,-0.21695 0.043195,-0.42372 0.1214396,-0.61237 0.08109,-0.19551 0.1999222,-0.37148 0.3472656,-0.51883 0.1473447,-0.14735 0.3233222,-0.26618 0.5188314,-0.34727 0.1886491,-0.0782 0.3954194,-0.12142 0.6123657,-0.12144 z m 60.5001836,0 c 0.07566,10e-6 0.149866,0.005 0.222725,0.0155 a 1.6,1.6 0 0 1 0.0098,0.002 c 0.07448,0.0109 0.147297,0.0268 0.218074,0.0475 0.147037,0.0431 0.285708,0.1067 0.411861,0.18758 a 1.6,1.6 0 0 1 0.0026,0.002 c 7.26e-4,4.7e-4 0.0013,0.001 0.0021,0.002 0.06226,0.0402 0.121334,0.0846 0.17725,0.13281 8.33e-4,7.2e-4 0.0018,0.001 0.0026,0.002 a 1.6,1.6 0 0 1 10e-4,5.2e-4 c 0.0011,9.5e-4 0.002,0.002 0.0031,0.003 0.05513,0.0481 0.106949,0.0999 0.15503,0.15503 a 1.6,1.6 0 0 1 0.0031,0.003 c 9.65e-4,0.001 0.0016,0.002 0.0026,0.004 0.04824,0.0559 0.09258,0.11499 0.132808,0.17726 a 1.6,1.6 0 0 1 0.0016,0.002 c 5.45e-4,8.5e-4 10e-4,0.002 0.0015,0.003 0.03988,0.0622 0.07535,0.12765 0.106453,0.19533 a 1.6,1.6 0 0 1 0.0016,0.003 c 9.37e-4,0.002 0.0017,0.004 0.0026,0.006 0.03029,0.067 0.05605,0.13622 0.077,0.20774 0.02077,0.0709 0.0367,0.14395 0.04754,0.21859 a 1.6,1.6 0 0 1 0.0016,0.009 c 0.01019,0.0729 0.0155,0.1475 0.0155,0.22325 -1.4e-5,0.21695 -0.04319,0.42371 -0.12144,0.61236 -0.08109,0.19551 -0.19992,0.37149 -0.347265,0.51883 -0.289521,0.28952 -0.689424,0.46868 -1.131197,0.46871 -0.441789,-3e-5 -0.841692,-0.17919 -1.131197,-0.46871 -0.289522,-0.28952 -0.468678,-0.6894 -0.468706,-1.13119 2.5e-5,-0.44179 0.179184,-0.84168 0.468706,-1.1312 0.147329,-0.14735 0.323319,-0.26618 0.518831,-0.34727 0.188652,-0.0782 0.395415,-0.12142 0.612366,-0.12144 z" />
  </g>
</svg>
