<?xml version="1.0" encoding="UTF-8" standalone="no"?>
<!-- Created with Inkscape (http://www.inkscape.org/) -->

<svg
   width="60.000408mm"
   height="119.99983mm"
   viewBox="0 0 60.000408 119.99983"
   version="1.1"
   id="svg56216"
   inkscape:version="1.2.2 (b0a8486, 2022-12-01)"
   sodipodi:docname="3mm-Black-Back_Layer.svg"
   xmlns:inkscape="http://www.inkscape.org/namespaces/inkscape"
   xmlns:sodipodi="http://sodipodi.sourceforge.net/DTD/sodipodi-0.dtd"
   xmlns="http://www.w3.org/2000/svg"
   xmlns:svg="http://www.w3.org/2000/svg">
  <sodipodi:namedview
     id="namedview56218"
     pagecolor="#ffffff"
     bordercolor="#666666"
     borderopacity="1.0"
     inkscape:showpageshadow="2"
     inkscape:pageopacity="0.0"
     inkscape:pagecheckerboard="0"
     inkscape:deskcolor="#d1d1d1"
     inkscape:document-units="mm"
     showgrid="false"
     inkscape:zoom="2.5730765"
     inkscape:cx="113.48283"
     inkscape:cy="226.77134"
     inkscape:current-layer="layer1" />
  <defs
     id="defs56213" />
  <g
     inkscape:label="Capa 1"
     inkscape:groupmode="layer"
     id="layer1"
     transform="translate(-71.506126,-88.500083)">
    <path
       id="rect11527"
       style="display:inline;fill:none;fill-opacity:1;stroke:#000000;stroke-width:0.0588447;stroke-linecap:round;stroke-miterlimit:4;stroke-dasharray:none"
       d="M 71.535548,88.529505 V 208.47049 H 131.47711 V 88.529505 Z m 4.720642,3.44681 a 1.6,1.6 0 0 1 1.599903,1.59991 1.6,1.6 0 0 1 -1.599903,1.5999 1.6,1.6 0 0 1 -1.600419,-1.5999 1.6,1.6 0 0 1 1.600419,-1.59991 z m 50.50028,0 a 1.6,1.6 0 0 1 1.5999,1.59991 1.6,1.6 0 0 1 -1.5999,1.5999 1.6,1.6 0 0 1 -1.60042,-1.5999 1.6,1.6 0 0 1 1.60042,-1.59991 z m -51.186543,8.994295 a 1.6,1.6 0 0 1 1.599903,1.60042 1.6,1.6 0 0 1 -1.599903,1.5999 1.6,1.6 0 0 1 -1.599902,-1.5999 1.6,1.6 0 0 1 1.599902,-1.60042 z m 51.987523,0 a 1.6,1.6 0 0 1 1.60042,1.60042 1.6,1.6 0 0 1 -1.60042,1.5999 1.6,1.6 0 0 1 -1.5999,-1.5999 1.6,1.6 0 0 1 1.5999,-1.60042 z m -32.99385,0.85162 h 14.00018 v 14.00018 H 94.5636 Z M 76.050002,128.61646 H 90.05018 v 13.99966 H 76.050002 Z m 18.513598,0 h 14.00018 v 13.99966 H 94.5636 Z m 25.51421,1.65519 a 3.5,3.5 0 0 1 3.50004,3.50005 3.5,3.5 0 0 1 -3.50004,3.49953 3.5,3.5 0 0 1 -3.50005,-3.49953 3.5,3.5 0 0 1 3.50005,-3.50005 z m -0.99994,9.29969 h 1.99987 v 0.99995 h -1.99987 z M 76.050002,156.34293 H 90.05018 v 13.99966 H 76.050002 Z m 18.513598,0 h 14.00018 v 13.99966 H 94.5636 Z m 18.51412,0 h 13.99966 v 13.99966 H 113.07772 Z M 94.5636,179.01751 h 14.00018 v 14.00018 H 94.5636 Z m -18.993673,14.11904 a 1.6,1.6 0 0 1 1.599903,1.5999 1.6,1.6 0 0 1 -1.599903,1.5999 1.6,1.6 0 0 1 -1.599902,-1.5999 1.6,1.6 0 0 1 1.599902,-1.5999 z m 51.987523,0 a 1.6,1.6 0 0 1 1.60042,1.5999 1.6,1.6 0 0 1 -1.60042,1.5999 1.6,1.6 0 0 1 -1.5999,-1.5999 1.6,1.6 0 0 1 1.5999,-1.5999 z m -51.30126,8.83925 a 1.6,1.6 0 0 1 1.599903,1.60042 1.6,1.6 0 0 1 -1.599903,1.5999 1.6,1.6 0 0 1 -1.600419,-1.5999 1.6,1.6 0 0 1 1.600419,-1.60042 z m 50.50028,0 a 1.6,1.6 0 0 1 1.5999,1.60042 1.6,1.6 0 0 1 -1.5999,1.5999 1.6,1.6 0 0 1 -1.60042,-1.5999 1.6,1.6 0 0 1 1.60042,-1.60042 z" />
  </g>
</svg>
