<?xml version="1.0" encoding="UTF-8" standalone="no"?>
<!-- Created with Inkscape (http://www.inkscape.org/) -->

<svg
   width="69.999786mm"
   height="98.000122mm"
   viewBox="0 0 69.999786 98.000122"
   version="1.1"
   id="svg106508"
   inkscape:version="1.2.2 (b0a8486, 2022-12-01)"
   sodipodi:docname="3mm-Black-Microcontroller_Layer.svg"
   xmlns:inkscape="http://www.inkscape.org/namespaces/inkscape"
   xmlns:sodipodi="http://sodipodi.sourceforge.net/DTD/sodipodi-0.dtd"
   xmlns="http://www.w3.org/2000/svg"
   xmlns:svg="http://www.w3.org/2000/svg">
  <sodipodi:namedview
     id="namedview106510"
     pagecolor="#ffffff"
     bordercolor="#666666"
     borderopacity="1.0"
     inkscape:showpageshadow="2"
     inkscape:pageopacity="0.0"
     inkscape:pagecheckerboard="0"
     inkscape:deskcolor="#d1d1d1"
     inkscape:document-units="mm"
     showgrid="false"
     inkscape:zoom="3.1506976"
     inkscape:cx="132.35164"
     inkscape:cy="185.19708"
     inkscape:current-layer="layer1" />
  <defs
     id="defs106505" />
  <g
     inkscape:label="Capa 1"
     inkscape:groupmode="layer"
     id="layer1"
     transform="translate(-3.938848e-5,-10.999388)">
    <path
       id="rect11527-5"
       style="display:inline;fill:none;fill-opacity:1;stroke:#000000;stroke-width:0.064;stroke-linecap:round;stroke-miterlimit:4;stroke-dasharray:none"
       d="m 0.03203939,11.031388 v 97.904622 c 9.00025451,0.002 17.97247461,0.009 26.95236061,0.0139 v 0.0176 h 23.986133 v -2.46807 a 2.5,2.5 0 0 1 2.500105,-2.5001 2.5,2.5 0 0 1 2.500106,2.5001 v 2.46807 H 69.967823 V 108.93601 74.650244 11.031388 Z M 4.7506144,13.063305 A 1.6,1.6 0 0 1 6.3505167,14.663208 1.6,1.6 0 0 1 4.7506144,16.26311 1.6,1.6 0 0 1 3.150712,14.663208 1.6,1.6 0 0 1 4.7506144,13.063305 Z m 60.5001836,0 a 1.6,1.6 0 0 1 1.599902,1.599903 1.6,1.6 0 0 1 -1.599902,1.599902 1.6,1.6 0 0 1 -1.599902,-1.599902 1.6,1.6 0 0 1 1.599902,-1.599903 z m -30.25035,0.927076 a 1.6,1.6 0 0 1 1.600419,1.599902 1.6,1.6 0 0 1 -1.600419,1.599902 1.6,1.6 0 0 1 -1.599902,-1.599902 1.6,1.6 0 0 1 1.599902,-1.599902 z m 0,88.819899 a 1.6,1.6 0 0 1 1.600419,1.59991 1.6,1.6 0 0 1 -1.600419,1.5999 1.6,1.6 0 0 1 -1.599902,-1.5999 1.6,1.6 0 0 1 1.599902,-1.59991 z m -30.2498336,0.92708 a 1.6,1.6 0 0 1 1.5999023,1.5999 1.6,1.6 0 0 1 -1.5999023,1.5999 1.6,1.6 0 0 1 -1.5999024,-1.5999 1.6,1.6 0 0 1 1.5999024,-1.5999 z m 60.5001836,0 a 1.6,1.6 0 0 1 1.599902,1.5999 1.6,1.6 0 0 1 -1.599902,1.5999 1.6,1.6 0 0 1 -1.599902,-1.5999 1.6,1.6 0 0 1 1.599902,-1.5999 z" />
  </g>
</svg>
