<?xml version="1.0" encoding="UTF-8" standalone="no"?>
<!-- Created with Inkscape (http://www.inkscape.org/) -->

<svg
   width="60.000404mm"
   height="120.07581mm"
   viewBox="0 0 60.000404 120.07581"
   version="1.1"
   id="svg29098"
   inkscape:version="1.2.2 (b0a8486, 2022-12-01)"
   sodipodi:docname="3mm-Black-Back_Layer.svg"
   xmlns:inkscape="http://www.inkscape.org/namespaces/inkscape"
   xmlns:sodipodi="http://sodipodi.sourceforge.net/DTD/sodipodi-0.dtd"
   xmlns="http://www.w3.org/2000/svg"
   xmlns:svg="http://www.w3.org/2000/svg">
  <sodipodi:namedview
     id="namedview29100"
     pagecolor="#ffffff"
     bordercolor="#666666"
     borderopacity="1.0"
     inkscape:showpageshadow="2"
     inkscape:pageopacity="0.0"
     inkscape:pagecheckerboard="0"
     inkscape:deskcolor="#d1d1d1"
     inkscape:document-units="mm"
     showgrid="false"
     inkscape:zoom="2.5714483"
     inkscape:cx="113.55468"
     inkscape:cy="226.91492"
     inkscape:current-layer="layer1" />
  <defs
     id="defs29095" />
  <g
     inkscape:label="Capa 1"
     inkscape:groupmode="layer"
     id="layer1"
     transform="translate(-71.506127,-88.462098)">
    <path
       id="rect11527"
       style="display:inline;fill:none;fill-opacity:1;stroke:#000000;stroke-width:0.0588447;stroke-linecap:round;stroke-miterlimit:4;stroke-dasharray:none"
       d="M 71.535549,88.49152 V 208.50848 H 131.47711 V 88.49152 Z m 4.720642,3.44681 a 1.6,1.6 0 0 1 1.599903,1.59991 1.6,1.6 0 0 1 -1.599903,1.5999 1.6,1.6 0 0 1 -1.599902,-1.5999 1.6,1.6 0 0 1 1.599902,-1.59991 z m 50.500279,0 a 1.6,1.6 0 0 1 1.5999,1.59991 1.6,1.6 0 0 1 -1.5999,1.5999 1.6,1.6 0 0 1 -1.5999,-1.5999 1.6,1.6 0 0 1 1.5999,-1.59991 z m -51.224266,8.99429 a 1.6,1.6 0 0 1 1.599903,1.60042 1.6,1.6 0 0 1 -1.599903,1.5999 1.6,1.6 0 0 1 -1.599902,-1.5999 1.6,1.6 0 0 1 1.599902,-1.60042 z m 51.987526,0 a 1.6,1.6 0 0 1 1.60042,1.60042 1.6,1.6 0 0 1 -1.60042,1.5999 1.6,1.6 0 0 1 -1.5999,-1.5999 1.6,1.6 0 0 1 1.5999,-1.60042 z m -32.993853,0.85162 h 14.000183 v 14.00018 H 94.525877 Z m -18.513598,26.79423 h 14.000178 v 13.99967 H 76.012279 Z m 18.513598,0 h 14.000183 v 13.99967 H 94.525877 Z m 25.514203,1.6552 a 3.5,3.5 0 0 1 3.50005,3.50005 3.5,3.5 0 0 1 -3.50005,3.49952 3.5,3.5 0 0 1 -3.50004,-3.49952 3.5,3.5 0 0 1 3.50004,-3.50005 z m -0.99994,9.29969 h 1.99988 v 0.99994 h -1.99988 z m -43.027861,16.77159 h 14.000178 v 13.99966 H 76.012279 Z m 18.513598,0 h 14.000183 v 13.99966 H 94.525877 Z m 18.514113,0 h 13.99967 v 13.99966 h -13.99967 z m -18.514113,22.67458 h 14.000183 v 14.00018 H 94.525877 Z m -18.993673,14.11904 a 1.6,1.6 0 0 1 1.599903,1.5999 1.6,1.6 0 0 1 -1.599903,1.5999 1.6,1.6 0 0 1 -1.599902,-1.5999 1.6,1.6 0 0 1 1.599902,-1.5999 z m 51.987526,0 a 1.6,1.6 0 0 1 1.60042,1.5999 1.6,1.6 0 0 1 -1.60042,1.5999 1.6,1.6 0 0 1 -1.5999,-1.5999 1.6,1.6 0 0 1 1.5999,-1.5999 z m -51.263539,8.83925 a 1.6,1.6 0 0 1 1.599903,1.60042 1.6,1.6 0 0 1 -1.599903,1.5999 1.6,1.6 0 0 1 -1.599902,-1.5999 1.6,1.6 0 0 1 1.599902,-1.60042 z m 50.500279,0 a 1.6,1.6 0 0 1 1.5999,1.60042 1.6,1.6 0 0 1 -1.5999,1.5999 1.6,1.6 0 0 1 -1.5999,-1.5999 1.6,1.6 0 0 1 1.5999,-1.60042 z" />
  </g>
</svg>
