<?xml version="1.0" encoding="UTF-8" standalone="no"?>
<!-- Created with Inkscape (http://www.inkscape.org/) -->

<svg
   width="59.999989mm"
   height="119.99994mm"
   viewBox="0 0 59.999989 119.99994"
   version="1.1"
   id="svg46126"
   inkscape:version="1.2.2 (b0a8486, 2022-12-01)"
   sodipodi:docname="3mm-Black-Back_Layer.svg"
   xmlns:inkscape="http://www.inkscape.org/namespaces/inkscape"
   xmlns:sodipodi="http://sodipodi.sourceforge.net/DTD/sodipodi-0.dtd"
   xmlns="http://www.w3.org/2000/svg"
   xmlns:svg="http://www.w3.org/2000/svg">
  <sodipodi:namedview
     id="namedview46128"
     pagecolor="#ffffff"
     bordercolor="#666666"
     borderopacity="1.0"
     inkscape:showpageshadow="2"
     inkscape:pageopacity="0.0"
     inkscape:pagecheckerboard="0"
     inkscape:deskcolor="#d1d1d1"
     inkscape:document-units="mm"
     showgrid="false"
     inkscape:zoom="2.5730742"
     inkscape:cx="113.48293"
     inkscape:cy="226.77154"
     inkscape:current-layer="layer1" />
  <defs
     id="defs46123" />
  <g
     inkscape:label="Capa 1"
     inkscape:groupmode="layer"
     id="layer1"
     transform="translate(-2.4056122e-4,-2.4000122e-4)">
    <path
       id="rect11527"
       style="display:inline;fill:none;fill-opacity:1;stroke:#000000;stroke-width:0.076;stroke-linecap:round;stroke-miterlimit:4;stroke-dasharray:none"
       d="M 0.03824056,0.03824 V 119.96218 H 59.962231 V 0.03824 Z M 4.7878214,3.47627 a 1.6,1.6 0 0 1 1.5999024,1.5999 1.6,1.6 0 0 1 -1.5999024,1.5999 1.6,1.6 0 0 1 -1.5999023,-1.5999 1.6,1.6 0 0 1 1.5999023,-1.5999 z m 50.5002766,0 a 1.6,1.6 0 0 1 1.599902,1.5999 1.6,1.6 0 0 1 -1.599902,1.5999 1.6,1.6 0 0 1 -1.599902,-1.5999 1.6,1.6 0 0 1 1.599902,-1.5999 z M 3.8664306,12.84934 a 1.6,1.6 0 0 1 1.5999024,1.5999 1.6,1.6 0 0 1 -1.5999024,1.59991 1.6,1.6 0 0 1 -1.5999023,-1.59991 1.6,1.6 0 0 1 1.5999023,-1.5999 z m 52.3828494,0 a 1.6,1.6 0 0 1 1.599902,1.5999 1.6,1.6 0 0 1 -1.599902,1.59991 1.6,1.6 0 0 1 -1.599903,-1.59991 1.6,1.6 0 0 1 1.599903,-1.5999 z M 22.710241,13.0514 H 36.71042 V 27.05157 H 22.710241 Z m 0,22.23326 H 36.71042 V 49.28484 H 22.710241 Z M 39.257035,68.31314 H 53.257214 V 82.31332 H 39.257035 Z m -27.07535,3.70003 a 3.5,3.5 0 0 1 3.500045,3.50005 3.5,3.5 0 0 1 -3.500045,3.50004 3.5,3.5 0 0 1 -3.5000444,-3.50004 3.5,3.5 0 0 1 3.5000444,-3.50005 z m -0.999939,9.29969 h 1.999878 v 1.00046 h -1.999878 z m 18.528585,16.55661 a 3.5,3.5 0 0 1 3.500045,3.50005 3.5,3.5 0 0 1 -3.500045,3.50004 3.5,3.5 0 0 1 -3.500045,-3.50004 3.5,3.5 0 0 1 3.500045,-3.50005 z m -25.8439004,6.15725 a 1.6,1.6 0 0 1 1.5999024,1.5999 1.6,1.6 0 0 1 -1.5999024,1.59991 1.6,1.6 0 0 1 -1.5999023,-1.59991 1.6,1.6 0 0 1 1.5999023,-1.5999 z m 52.3828494,0 a 1.6,1.6 0 0 1 1.599902,1.5999 1.6,1.6 0 0 1 -1.599902,1.59991 1.6,1.6 0 0 1 -1.599903,-1.59991 1.6,1.6 0 0 1 1.599903,-1.5999 z m -27.538888,3.14296 h 1.999878 v 0.99994 h -1.999878 z m -23.9225706,6.30608 a 1.6,1.6 0 0 1 1.5999024,1.60042 1.6,1.6 0 0 1 -1.5999024,1.5999 1.6,1.6 0 0 1 -1.5999023,-1.5999 1.6,1.6 0 0 1 1.5999023,-1.60042 z m 50.5002766,0 a 1.6,1.6 0 0 1 1.599902,1.60042 1.6,1.6 0 0 1 -1.599902,1.5999 1.6,1.6 0 0 1 -1.599902,-1.5999 1.6,1.6 0 0 1 1.599902,-1.60042 z" />
  </g>
</svg>
