<?xml version="1.0" encoding="UTF-8" standalone="no"?>
<!-- Created with Inkscape (http://www.inkscape.org/) -->

<svg
   width="59.999989mm"
   height="97.999733mm"
   viewBox="0 0 59.999989 97.999733"
   version="1.1"
   id="svg43371"
   inkscape:version="1.2.2 (b0a8486, 2022-12-01)"
   sodipodi:docname="3mm-Black-Microcontroller_Layer.svg"
   xmlns:inkscape="http://www.inkscape.org/namespaces/inkscape"
   xmlns:sodipodi="http://sodipodi.sourceforge.net/DTD/sodipodi-0.dtd"
   xmlns="http://www.w3.org/2000/svg"
   xmlns:svg="http://www.w3.org/2000/svg">
  <sodipodi:namedview
     id="namedview43373"
     pagecolor="#ffffff"
     bordercolor="#666666"
     borderopacity="1.0"
     inkscape:showpageshadow="2"
     inkscape:pageopacity="0.0"
     inkscape:pagecheckerboard="0"
     inkscape:deskcolor="#d1d1d1"
     inkscape:document-units="mm"
     showgrid="false"
     inkscape:zoom="3.1507101"
     inkscape:cx="113.30779"
     inkscape:cy="185.19635"
     inkscape:current-layer="layer1" />
  <defs
     id="defs43368" />
  <g
     inkscape:label="Capa 1"
     inkscape:groupmode="layer"
     id="layer1"
     transform="translate(-2.4056122e-4,-11.000087)">
    <path
       id="rect11527-5"
       style="display:inline;fill:none;fill-opacity:1;stroke:#000000;stroke-width:0.076;stroke-linecap:round;stroke-miterlimit:4;stroke-dasharray:none"
       d="M 0.03824056,11.038087 V 108.96182 H 41.523564 v -2.46186 c -6.1e-5,-1.3808 1.119311,-2.50017 2.500105,-2.50011 1.380795,-6e-5 2.500167,1.11931 2.500106,2.50011 v 2.46186 H 59.962231 V 11.038087 Z M 3.8664307,12.849346 A 1.6,1.6 0 0 1 5.466333,14.449248 1.6,1.6 0 0 1 3.8664307,16.04915 1.6,1.6 0 0 1 2.2665283,14.449248 1.6,1.6 0 0 1 3.8664307,12.849346 Z m 52.3828493,0 c 0.883578,5.4e-5 1.599848,0.716324 1.599902,1.599902 -5.4e-5,0.883578 -0.716324,1.599848 -1.599902,1.599902 -0.883578,-5.4e-5 -1.599849,-0.716324 -1.599903,-1.599902 5.4e-5,-0.883578 0.716325,-1.599848 1.599903,-1.599902 z m -26.21132,1.216463 c 0.88378,5.4e-5 1.600133,0.716639 1.599902,1.600419 -5.4e-5,0.883578 -0.716324,1.599848 -1.599902,1.599902 -0.883578,-5.4e-5 -1.599849,-0.716324 -1.599903,-1.599902 -2.31e-4,-0.88378 0.716123,-1.600365 1.599903,-1.600419 z m 0,88.820411 c 0.883581,5e-5 1.599852,0.71633 1.599902,1.59991 -5.5e-5,0.88357 -0.716325,1.59985 -1.599902,1.5999 -0.883578,-5e-5 -1.599848,-0.71633 -1.599903,-1.5999 5e-5,-0.88358 0.716321,-1.59986 1.599903,-1.59991 z m -26.1715293,1.1405 c 0.8835775,5e-5 1.5998471,0.71633 1.5999023,1.5999 2.32e-4,0.88378 -0.7161217,1.60037 -1.5999023,1.60042 -0.8837807,-5e-5 -1.6001344,-0.71664 -1.5999024,-1.60042 5.52e-5,-0.88357 0.7163248,-1.59985 1.5999024,-1.5999 z m 52.3828493,0 c 0.883577,5e-5 1.599847,0.71633 1.599902,1.5999 2.32e-4,0.88378 -0.716122,1.60037 -1.599902,1.60042 -0.883781,-5e-5 -1.600135,-0.71664 -1.599903,-1.60042 5.5e-5,-0.88357 0.716325,-1.59985 1.599903,-1.5999 z" />
  </g>
</svg>
