999
"DXF R12 Output" (www.mydxf.blogspot.com)
 0 
SECTION
 2 
HEADER
 9 
$ACADVER
 1 
AC1009
 9 
$EXTMIN
 10 
 0 
 20 
 0 
 9 
$EXTMAX
 10 
 8.5 
 20 
 11 
 0 
ENDSEC
 0 
SECTION
 2 
ENTITIES
0
LINE
8
Capa 1
10
10.037900
20
119.962000
11
10.037900
21
114.965000
0
LINE
8
Capa 1
10
10.037900
20
114.965000
11
9.936256
21
113.957979
0
LINE
8
Capa 1
10
9.936256
20
113.957979
11
9.644856
21
113.020041
0
LINE
8
Capa 1
10
9.644856
20
113.020041
11
9.183810
21
112.171280
0
LINE
8
Capa 1
10
9.183810
20
112.171280
11
8.573226
21
111.431790
0
LINE
8
Capa 1
10
8.573226
20
111.431790
11
7.833214
21
110.821663
0
LINE
8
Capa 1
10
7.833214
20
110.821663
11
6.983881
21
110.360994
0
LINE
8
Capa 1
10
6.983881
20
110.360994
11
6.045337
21
110.069875
0
LINE
8
Capa 1
10
6.045337
20
110.069875
11
5.037690
21
109.968400
0
LINE
8
Capa 1
10
5.037690
20
109.968400
11
0.037989
21
109.969000
0
LINE
8
Capa 1
10
0.037989
20
109.969000
11
0.037989
21
10.031700
0
LINE
8
Capa 1
10
0.037989
20
10.031700
11
5.037680
21
10.031700
0
LINE
8
Capa 1
10
5.037680
20
10.031700
11
6.045327
21
9.930222
0
LINE
8
Capa 1
10
6.045327
20
9.930222
11
6.983871
21
9.639101
0
LINE
8
Capa 1
10
6.983871
20
9.639101
11
7.833204
21
9.178430
0
LINE
8
Capa 1
10
7.833204
20
9.178430
11
8.573216
21
8.568303
0
LINE
8
Capa 1
10
8.573216
20
8.568303
11
9.183800
21
7.828813
0
LINE
8
Capa 1
10
9.183800
20
7.828813
11
9.644846
21
6.980053
0
LINE
8
Capa 1
10
9.644846
20
6.980053
11
9.936246
21
6.042118
0
LINE
8
Capa 1
10
9.936246
20
6.042118
11
10.037890
21
5.035100
0
LINE
8
Capa 1
10
10.037890
20
5.035100
11
10.037900
21
0.038020
0
LINE
8
Capa 1
10
10.037900
20
0.038020
11
115.000000
21
0.038020
0
LINE
8
Capa 1
10
115.000000
20
0.038020
11
115.000000
21
5.035140
0
LINE
8
Capa 1
10
115.000000
20
5.035140
11
115.101641
21
6.042158
0
LINE
8
Capa 1
10
115.101641
20
6.042158
11
115.393034
21
6.980093
0
LINE
8
Capa 1
10
115.393034
20
6.980093
11
115.854072
21
7.828852
0
LINE
8
Capa 1
10
115.854072
20
7.828852
11
116.464647
21
8.568342
0
LINE
8
Capa 1
10
116.464647
20
8.568342
11
117.204656
21
9.178470
0
LINE
8
Capa 1
10
117.204656
20
9.178470
11
118.053990
21
9.639141
0
LINE
8
Capa 1
10
118.053990
20
9.639141
11
118.992543
21
9.930262
0
LINE
8
Capa 1
10
118.992543
20
9.930262
11
120.000210
21
10.031740
0
LINE
8
Capa 1
10
120.000210
20
10.031740
11
125.000000
21
10.031700
0
LINE
8
Capa 1
10
125.000000
20
10.031700
11
125.000000
21
109.969000
0
LINE
8
Capa 1
10
125.000000
20
109.969000
11
120.000000
21
109.969000
0
LINE
8
Capa 1
10
120.000000
20
109.969000
11
118.992333
21
110.070475
0
LINE
8
Capa 1
10
118.992333
20
110.070475
11
118.053780
21
110.361594
0
LINE
8
Capa 1
10
118.053780
20
110.361594
11
117.204446
21
110.822263
0
LINE
8
Capa 1
10
117.204446
20
110.822263
11
116.464438
21
111.432390
0
LINE
8
Capa 1
10
116.464438
20
111.432390
11
115.853862
21
112.171880
0
LINE
8
Capa 1
10
115.853862
20
112.171880
11
115.392824
21
113.020641
0
LINE
8
Capa 1
10
115.392824
20
113.020641
11
115.101431
21
113.958579
0
LINE
8
Capa 1
10
115.101431
20
113.958579
11
114.999790
21
114.965600
0
LINE
8
Capa 1
10
114.999790
20
114.965600
11
115.000000
21
119.962000
0
LINE
8
Capa 1
10
115.000000
20
119.962000
11
10.037900
21
119.962000
0
LINE
8
Capa 1
10
24.740900
20
106.937500
11
25.353260
21
106.815638
0
LINE
8
Capa 1
10
25.353260
20
106.815638
11
25.872355
21
106.468687
0
LINE
8
Capa 1
10
25.872355
20
106.468687
11
26.219137
21
105.949479
0
LINE
8
Capa 1
10
26.219137
20
105.949479
11
26.340800
21
105.337080
0
LINE
8
Capa 1
10
26.340800
20
105.337080
11
26.215045
21
104.714344
0
LINE
8
Capa 1
10
26.215045
20
104.714344
11
25.872171
21
104.205809
0
LINE
8
Capa 1
10
25.872171
20
104.205809
11
25.363636
21
103.862935
0
LINE
8
Capa 1
10
25.363636
20
103.862935
11
24.740900
21
103.737180
0
LINE
8
Capa 1
10
24.740900
20
103.737180
11
24.118164
21
103.862935
0
LINE
8
Capa 1
10
24.118164
20
103.862935
11
23.609629
21
104.205809
0
LINE
8
Capa 1
10
23.609629
20
104.205809
11
23.266755
21
104.714344
0
LINE
8
Capa 1
10
23.266755
20
104.714344
11
23.141000
21
105.337080
0
LINE
8
Capa 1
10
23.141000
20
105.337080
11
23.262663
21
105.949479
0
LINE
8
Capa 1
10
23.262663
20
105.949479
11
23.609445
21
106.468687
0
LINE
8
Capa 1
10
23.609445
20
106.468687
11
24.128540
21
106.815638
0
LINE
8
Capa 1
10
24.128540
20
106.815638
11
24.740900
21
106.937500
0
LINE
8
Capa 1
10
24.740900
20
106.937500
11
24.740900
21
106.937500
0
LINE
8
Capa 1
10
99.506900
20
106.937500
11
100.119420
21
106.815788
0
LINE
8
Capa 1
10
100.119420
20
106.815788
11
100.638691
21
106.468871
0
LINE
8
Capa 1
10
100.638691
20
106.468871
11
100.985608
21
105.949600
0
LINE
8
Capa 1
10
100.985608
20
105.949600
11
101.107320
21
105.337080
0
LINE
8
Capa 1
10
101.107320
20
105.337080
11
100.985458
21
104.724720
0
LINE
8
Capa 1
10
100.985458
20
104.724720
11
100.638507
21
104.205625
0
LINE
8
Capa 1
10
100.638507
20
104.205625
11
100.119299
21
103.858843
0
LINE
8
Capa 1
10
100.119299
20
103.858843
11
99.506900
21
103.737180
0
LINE
8
Capa 1
10
99.506900
20
103.737180
11
98.884164
21
103.862935
0
LINE
8
Capa 1
10
98.884164
20
103.862935
11
98.375629
21
104.205809
0
LINE
8
Capa 1
10
98.375629
20
104.205809
11
98.032755
21
104.714344
0
LINE
8
Capa 1
10
98.032755
20
104.714344
11
97.907000
21
105.337080
0
LINE
8
Capa 1
10
97.907000
20
105.337080
11
98.028663
21
105.949479
0
LINE
8
Capa 1
10
98.028663
20
105.949479
11
98.375445
21
106.468687
0
LINE
8
Capa 1
10
98.375445
20
106.468687
11
98.894540
21
106.815638
0
LINE
8
Capa 1
10
98.894540
20
106.815638
11
99.506900
21
106.937500
0
LINE
8
Capa 1
10
99.506900
20
106.937500
11
99.506900
21
106.937500
0
LINE
8
Capa 1
10
12.763900
20
103.903070
11
13.976053
21
103.781587
0
LINE
8
Capa 1
10
13.976053
20
103.781587
11
15.103711
21
103.432983
0
LINE
8
Capa 1
10
15.103711
20
103.432983
11
16.123101
21
102.881028
0
LINE
8
Capa 1
10
16.123101
20
102.881028
11
17.010453
21
102.149491
0
LINE
8
Capa 1
10
17.010453
20
102.149491
11
17.741995
21
101.262143
0
LINE
8
Capa 1
10
17.741995
20
101.262143
11
18.293956
21
100.242752
0
LINE
8
Capa 1
10
18.293956
20
100.242752
11
18.642565
21
99.115088
0
LINE
8
Capa 1
10
18.642565
20
99.115088
11
18.764050
21
97.902920
0
LINE
8
Capa 1
10
18.764050
20
97.902920
11
18.764000
21
87.902900
0
LINE
8
Capa 1
10
18.764000
20
87.902900
11
18.642515
21
86.690784
0
LINE
8
Capa 1
10
18.642515
20
86.690784
11
18.293906
21
85.563144
0
LINE
8
Capa 1
10
18.293906
20
85.563144
11
17.741945
21
84.543756
0
LINE
8
Capa 1
10
17.741945
20
84.543756
11
17.010402
21
83.656396
0
LINE
8
Capa 1
10
17.010402
20
83.656396
11
16.123051
21
82.924840
0
LINE
8
Capa 1
10
16.123051
20
82.924840
11
15.103661
21
82.372863
0
LINE
8
Capa 1
10
15.103661
20
82.372863
11
13.976003
21
82.024241
0
LINE
8
Capa 1
10
13.976003
20
82.024241
11
12.763850
21
81.902750
0
LINE
8
Capa 1
10
12.763850
20
81.902750
11
11.551722
21
82.024241
0
LINE
8
Capa 1
10
11.551722
20
82.024241
11
10.424125
21
82.372863
0
LINE
8
Capa 1
10
10.424125
20
82.372863
11
9.404818
21
82.924840
0
LINE
8
Capa 1
10
9.404818
20
82.924840
11
8.517561
21
83.656396
0
LINE
8
Capa 1
10
8.517561
20
83.656396
11
7.786114
21
84.543756
0
LINE
8
Capa 1
10
7.786114
20
84.543756
11
7.234235
21
85.563144
0
LINE
8
Capa 1
10
7.234235
20
85.563144
11
6.885684
21
86.690784
0
LINE
8
Capa 1
10
6.885684
20
86.690784
11
6.764220
21
87.902900
0
LINE
8
Capa 1
10
6.764220
20
87.902900
11
6.764190
21
97.902900
0
LINE
8
Capa 1
10
6.764190
20
97.902900
11
6.885654
21
99.115071
0
LINE
8
Capa 1
10
6.885654
20
99.115071
11
7.234205
21
100.242736
0
LINE
8
Capa 1
10
7.234205
20
100.242736
11
7.786084
21
101.262127
0
LINE
8
Capa 1
10
7.786084
20
101.262127
11
8.517531
21
102.149475
0
LINE
8
Capa 1
10
8.517531
20
102.149475
11
9.404788
21
102.881010
0
LINE
8
Capa 1
10
9.404788
20
102.881010
11
10.424095
21
103.432964
0
LINE
8
Capa 1
10
10.424095
20
103.432964
11
11.551692
21
103.781567
0
LINE
8
Capa 1
10
11.551692
20
103.781567
11
12.763820
21
103.903050
0
LINE
8
Capa 1
10
12.763820
20
103.903050
11
12.763900
21
103.903070
0
LINE
8
Capa 1
10
37.641500
20
103.903070
11
38.853650
21
103.781587
0
LINE
8
Capa 1
10
38.853650
20
103.781587
11
39.981306
21
103.432983
0
LINE
8
Capa 1
10
39.981306
20
103.432983
11
41.000696
21
102.881028
0
LINE
8
Capa 1
10
41.000696
20
102.881028
11
41.888049
21
102.149491
0
LINE
8
Capa 1
10
41.888049
20
102.149491
11
42.619592
21
101.262143
0
LINE
8
Capa 1
10
42.619592
20
101.262143
11
43.171554
21
100.242752
0
LINE
8
Capa 1
10
43.171554
20
100.242752
11
43.520164
21
99.115088
0
LINE
8
Capa 1
10
43.520164
20
99.115088
11
43.641650
21
97.902920
0
LINE
8
Capa 1
10
43.641650
20
97.902920
11
43.641500
21
87.902900
0
LINE
8
Capa 1
10
43.641500
20
87.902900
11
43.520014
21
86.690781
0
LINE
8
Capa 1
10
43.520014
20
86.690781
11
43.171404
21
85.563140
0
LINE
8
Capa 1
10
43.171404
20
85.563140
11
42.619442
21
84.543752
0
LINE
8
Capa 1
10
42.619442
20
84.543752
11
41.887899
21
83.656393
0
LINE
8
Capa 1
10
41.887899
20
83.656393
11
41.000546
21
82.924837
0
LINE
8
Capa 1
10
41.000546
20
82.924837
11
39.981156
21
82.372861
0
LINE
8
Capa 1
10
39.981156
20
82.372861
11
38.853500
21
82.024240
0
LINE
8
Capa 1
10
38.853500
20
82.024240
11
37.641350
21
81.902750
0
LINE
8
Capa 1
10
37.641350
20
81.902750
11
36.429194
21
82.024240
0
LINE
8
Capa 1
10
36.429194
20
82.024240
11
35.301535
21
82.372861
0
LINE
8
Capa 1
10
35.301535
20
82.372861
11
34.282145
21
82.924837
0
LINE
8
Capa 1
10
34.282145
20
82.924837
11
33.394794
21
83.656393
0
LINE
8
Capa 1
10
33.394794
20
83.656393
11
32.663253
21
84.543752
0
LINE
8
Capa 1
10
32.663253
20
84.543752
11
32.111293
21
85.563140
0
LINE
8
Capa 1
10
32.111293
20
85.563140
11
31.762685
21
86.690781
0
LINE
8
Capa 1
10
31.762685
20
86.690781
11
31.641200
21
87.902900
0
LINE
8
Capa 1
10
31.641200
20
87.902900
11
31.641200
21
97.902900
0
LINE
8
Capa 1
10
31.641200
20
97.902900
11
31.762685
21
99.115071
0
LINE
8
Capa 1
10
31.762685
20
99.115071
11
32.111293
21
100.242736
0
LINE
8
Capa 1
10
32.111293
20
100.242736
11
32.663253
21
101.262127
0
LINE
8
Capa 1
10
32.663253
20
101.262127
11
33.394794
21
102.149475
0
LINE
8
Capa 1
10
33.394794
20
102.149475
11
34.282145
21
102.881010
0
LINE
8
Capa 1
10
34.282145
20
102.881010
11
35.301535
21
103.432964
0
LINE
8
Capa 1
10
35.301535
20
103.432964
11
36.429194
21
103.781567
0
LINE
8
Capa 1
10
36.429194
20
103.781567
11
37.641350
21
103.903050
0
LINE
8
Capa 1
10
37.641350
20
103.903050
11
37.641500
21
103.903070
0
LINE
8
Capa 1
10
62.519100
20
103.903070
11
63.731234
21
103.781587
0
LINE
8
Capa 1
10
63.731234
20
103.781587
11
64.858834
21
103.432983
0
LINE
8
Capa 1
10
64.858834
20
103.432983
11
65.878141
21
102.881028
0
LINE
8
Capa 1
10
65.878141
20
102.881028
11
66.765396
21
102.149491
0
LINE
8
Capa 1
10
66.765396
20
102.149491
11
67.496842
21
101.262143
0
LINE
8
Capa 1
10
67.496842
20
101.262143
11
68.048718
21
100.242752
0
LINE
8
Capa 1
10
68.048718
20
100.242752
11
68.397267
21
99.115088
0
LINE
8
Capa 1
10
68.397267
20
99.115088
11
68.518730
21
97.902920
0
LINE
8
Capa 1
10
68.518730
20
97.902920
11
68.518600
21
87.902900
0
LINE
8
Capa 1
10
68.518600
20
87.902900
11
68.397137
21
86.690778
0
LINE
8
Capa 1
10
68.397137
20
86.690778
11
68.048588
21
85.563136
0
LINE
8
Capa 1
10
68.048588
20
85.563136
11
67.496712
21
84.543748
0
LINE
8
Capa 1
10
67.496712
20
84.543748
11
66.765266
21
83.656389
0
LINE
8
Capa 1
10
66.765266
20
83.656389
11
65.878011
21
82.924834
0
LINE
8
Capa 1
10
65.878011
20
82.924834
11
64.858704
21
82.372860
0
LINE
8
Capa 1
10
64.858704
20
82.372860
11
63.731104
21
82.024240
0
LINE
8
Capa 1
10
63.731104
20
82.024240
11
62.518970
21
81.902750
0
LINE
8
Capa 1
10
62.518970
20
81.902750
11
61.306814
21
82.024240
0
LINE
8
Capa 1
10
61.306814
20
82.024240
11
60.179155
21
82.372860
0
LINE
8
Capa 1
10
60.179155
20
82.372860
11
59.159765
21
82.924834
0
LINE
8
Capa 1
10
59.159765
20
82.924834
11
58.272414
21
83.656389
0
LINE
8
Capa 1
10
58.272414
20
83.656389
11
57.540873
21
84.543748
0
LINE
8
Capa 1
10
57.540873
20
84.543748
11
56.988913
21
85.563136
0
LINE
8
Capa 1
10
56.988913
20
85.563136
11
56.640305
21
86.690778
0
LINE
8
Capa 1
10
56.640305
20
86.690778
11
56.518820
21
87.902900
0
LINE
8
Capa 1
10
56.518820
20
87.902900
11
56.518800
21
97.902900
0
LINE
8
Capa 1
10
56.518800
20
97.902900
11
56.640285
21
99.115071
0
LINE
8
Capa 1
10
56.640285
20
99.115071
11
56.988893
21
100.242736
0
LINE
8
Capa 1
10
56.988893
20
100.242736
11
57.540853
21
101.262127
0
LINE
8
Capa 1
10
57.540853
20
101.262127
11
58.272394
21
102.149475
0
LINE
8
Capa 1
10
58.272394
20
102.149475
11
59.159745
21
102.881010
0
LINE
8
Capa 1
10
59.159745
20
102.881010
11
60.179135
21
103.432964
0
LINE
8
Capa 1
10
60.179135
20
103.432964
11
61.306794
21
103.781567
0
LINE
8
Capa 1
10
61.306794
20
103.781567
11
62.518950
21
103.903050
0
LINE
8
Capa 1
10
62.518950
20
103.903050
11
62.519100
21
103.903070
0
LINE
8
Capa 1
10
87.396100
20
103.903070
11
88.608259
21
103.781587
0
LINE
8
Capa 1
10
88.608259
20
103.781587
11
89.735919
21
103.432983
0
LINE
8
Capa 1
10
89.735919
20
103.432983
11
90.755310
21
102.881028
0
LINE
8
Capa 1
10
90.755310
20
102.881028
11
91.642660
21
102.149491
0
LINE
8
Capa 1
10
91.642660
20
102.149491
11
92.374200
21
101.262143
0
LINE
8
Capa 1
10
92.374200
20
101.262143
11
92.926158
21
100.242752
0
LINE
8
Capa 1
10
92.926158
20
100.242752
11
93.274765
21
99.115088
0
LINE
8
Capa 1
10
93.274765
20
99.115088
11
93.396250
21
97.902920
0
LINE
8
Capa 1
10
93.396250
20
97.902920
11
93.396100
21
87.902900
0
LINE
8
Capa 1
10
93.396100
20
87.902900
11
93.274615
21
86.690775
0
LINE
8
Capa 1
10
93.274615
20
86.690775
11
92.926008
21
85.563132
0
LINE
8
Capa 1
10
92.926008
20
85.563132
11
92.374050
21
84.543743
0
LINE
8
Capa 1
10
92.374050
20
84.543743
11
91.642510
21
83.656385
0
LINE
8
Capa 1
10
91.642510
20
83.656385
11
90.755160
21
82.924832
0
LINE
8
Capa 1
10
90.755160
20
82.924832
11
89.735769
21
82.372858
0
LINE
8
Capa 1
10
89.735769
20
82.372858
11
88.608109
21
82.024240
0
LINE
8
Capa 1
10
88.608109
20
82.024240
11
87.395950
21
81.902750
0
LINE
8
Capa 1
10
87.395950
20
81.902750
11
86.183822
21
82.024240
0
LINE
8
Capa 1
10
86.183822
20
82.024240
11
85.056225
21
82.372858
0
LINE
8
Capa 1
10
85.056225
20
82.372858
11
84.036918
21
82.924832
0
LINE
8
Capa 1
10
84.036918
20
82.924832
11
83.149661
21
83.656385
0
LINE
8
Capa 1
10
83.149661
20
83.656385
11
82.418214
21
84.543743
0
LINE
8
Capa 1
10
82.418214
20
84.543743
11
81.866335
21
85.563132
0
LINE
8
Capa 1
10
81.866335
20
85.563132
11
81.517784
21
86.690775
0
LINE
8
Capa 1
10
81.517784
20
86.690775
11
81.396320
21
87.902900
0
LINE
8
Capa 1
10
81.396320
20
87.902900
11
81.396300
21
97.902900
0
LINE
8
Capa 1
10
81.396300
20
97.902900
11
81.517764
21
99.115071
0
LINE
8
Capa 1
10
81.517764
20
99.115071
11
81.866315
21
100.242736
0
LINE
8
Capa 1
10
81.866315
20
100.242736
11
82.418194
21
101.262127
0
LINE
8
Capa 1
10
82.418194
20
101.262127
11
83.149641
21
102.149475
0
LINE
8
Capa 1
10
83.149641
20
102.149475
11
84.036898
21
102.881010
0
LINE
8
Capa 1
10
84.036898
20
102.881010
11
85.056205
21
103.432964
0
LINE
8
Capa 1
10
85.056205
20
103.432964
11
86.183802
21
103.781567
0
LINE
8
Capa 1
10
86.183802
20
103.781567
11
87.395930
21
103.903050
0
LINE
8
Capa 1
10
87.395930
20
103.903050
11
87.396100
21
103.903070
0
LINE
8
Capa 1
10
112.273700
20
103.903070
11
113.485827
21
103.781587
0
LINE
8
Capa 1
10
113.485827
20
103.781587
11
114.613473
21
103.432983
0
LINE
8
Capa 1
10
114.613473
20
103.432983
11
115.632861
21
102.881028
0
LINE
8
Capa 1
10
115.632861
20
102.881028
11
116.520219
21
102.149491
0
LINE
8
Capa 1
10
116.520219
20
102.149491
11
117.251771
21
101.262143
0
LINE
8
Capa 1
10
117.251771
20
101.262143
11
117.803743
21
100.242752
0
LINE
8
Capa 1
10
117.803743
20
100.242752
11
118.152361
21
99.115088
0
LINE
8
Capa 1
10
118.152361
20
99.115088
11
118.273850
21
97.902920
0
LINE
8
Capa 1
10
118.273850
20
97.902920
11
118.274000
21
87.902900
0
LINE
8
Capa 1
10
118.274000
20
87.902900
11
118.152511
21
86.690773
0
LINE
8
Capa 1
10
118.152511
20
86.690773
11
117.803893
21
85.563127
0
LINE
8
Capa 1
10
117.803893
20
85.563127
11
117.251921
21
84.543739
0
LINE
8
Capa 1
10
117.251921
20
84.543739
11
116.520369
21
83.656381
0
LINE
8
Capa 1
10
116.520369
20
83.656381
11
115.633011
21
82.924829
0
LINE
8
Capa 1
10
115.633011
20
82.924829
11
114.613623
21
82.372857
0
LINE
8
Capa 1
10
114.613623
20
82.372857
11
113.485977
21
82.024239
0
LINE
8
Capa 1
10
113.485977
20
82.024239
11
112.273850
21
81.902750
0
LINE
8
Capa 1
10
112.273850
20
81.902750
11
111.061679
21
82.024239
0
LINE
8
Capa 1
10
111.061679
20
82.024239
11
109.934014
21
82.372857
0
LINE
8
Capa 1
10
109.934014
20
82.372857
11
108.914623
21
82.924829
0
LINE
8
Capa 1
10
108.914623
20
82.924829
11
108.027275
21
83.656381
0
LINE
8
Capa 1
10
108.027275
20
83.656381
11
107.295740
21
84.543739
0
LINE
8
Capa 1
10
107.295740
20
84.543739
11
106.743786
21
85.563127
0
LINE
8
Capa 1
10
106.743786
20
85.563127
11
106.395183
21
86.690773
0
LINE
8
Capa 1
10
106.395183
20
86.690773
11
106.273700
21
87.902900
0
LINE
8
Capa 1
10
106.273700
20
87.902900
11
106.273000
21
97.902900
0
LINE
8
Capa 1
10
106.273000
20
97.902900
11
106.394483
21
99.115071
0
LINE
8
Capa 1
10
106.394483
20
99.115071
11
106.743086
21
100.242736
0
LINE
8
Capa 1
10
106.743086
20
100.242736
11
107.295040
21
101.262127
0
LINE
8
Capa 1
10
107.295040
20
101.262127
11
108.026575
21
102.149475
0
LINE
8
Capa 1
10
108.026575
20
102.149475
11
108.913923
21
102.881010
0
LINE
8
Capa 1
10
108.913923
20
102.881010
11
109.933314
21
103.432964
0
LINE
8
Capa 1
10
109.933314
20
103.432964
11
111.060979
21
103.781567
0
LINE
8
Capa 1
10
111.060979
20
103.781567
11
112.273150
21
103.903050
0
LINE
8
Capa 1
10
112.273150
20
103.903050
11
112.273700
21
103.903070
0
LINE
8
Capa 1
10
12.764000
20
70.570170
11
14.285568
21
70.416771
0
LINE
8
Capa 1
10
14.285568
20
70.416771
11
15.702761
21
69.976841
0
LINE
8
Capa 1
10
15.702761
20
69.976841
11
16.985220
21
69.280739
0
LINE
8
Capa 1
10
16.985220
20
69.280739
11
18.102586
21
68.358826
0
LINE
8
Capa 1
10
18.102586
20
68.358826
11
19.024499
21
67.241460
0
LINE
8
Capa 1
10
19.024499
20
67.241460
11
19.720601
21
65.959001
0
LINE
8
Capa 1
10
19.720601
20
65.959001
11
20.160531
21
64.541808
0
LINE
8
Capa 1
10
20.160531
20
64.541808
11
20.313930
21
63.020240
0
LINE
8
Capa 1
10
20.313930
20
63.020240
11
20.160529
21
61.498674
0
LINE
8
Capa 1
10
20.160529
20
61.498674
11
19.720598
21
60.081482
0
LINE
8
Capa 1
10
19.720598
20
60.081482
11
19.024496
21
58.799024
0
LINE
8
Capa 1
10
19.024496
20
58.799024
11
18.102583
21
57.681660
0
LINE
8
Capa 1
10
18.102583
20
57.681660
11
16.985217
21
56.759749
0
LINE
8
Capa 1
10
16.985217
20
56.759749
11
15.702759
21
56.063648
0
LINE
8
Capa 1
10
15.702759
20
56.063648
11
14.285567
21
55.623719
0
LINE
8
Capa 1
10
14.285567
20
55.623719
11
12.764000
21
55.470320
0
LINE
8
Capa 1
10
12.764000
20
55.470320
11
11.242433
21
55.623719
0
LINE
8
Capa 1
10
11.242433
20
55.623719
11
9.825241
21
56.063648
0
LINE
8
Capa 1
10
9.825241
20
56.063648
11
8.542783
21
56.759749
0
LINE
8
Capa 1
10
8.542783
20
56.759749
11
7.425417
21
57.681660
0
LINE
8
Capa 1
10
7.425417
20
57.681660
11
6.503504
21
58.799024
0
LINE
8
Capa 1
10
6.503504
20
58.799024
11
5.807402
21
60.081482
0
LINE
8
Capa 1
10
5.807402
20
60.081482
11
5.367471
21
61.498674
0
LINE
8
Capa 1
10
5.367471
20
61.498674
11
5.214070
21
63.020240
0
LINE
8
Capa 1
10
5.214070
20
63.020240
11
5.367469
21
64.541808
0
LINE
8
Capa 1
10
5.367469
20
64.541808
11
5.807399
21
65.959001
0
LINE
8
Capa 1
10
5.807399
20
65.959001
11
6.503501
21
67.241460
0
LINE
8
Capa 1
10
6.503501
20
67.241460
11
7.425414
21
68.358826
0
LINE
8
Capa 1
10
7.425414
20
68.358826
11
8.542780
21
69.280739
0
LINE
8
Capa 1
10
8.542780
20
69.280739
11
9.825239
21
69.976841
0
LINE
8
Capa 1
10
9.825239
20
69.976841
11
11.242432
21
70.416771
0
LINE
8
Capa 1
10
11.242432
20
70.416771
11
12.764000
21
70.570170
0
LINE
8
Capa 1
10
12.764000
20
70.570170
11
12.764000
21
70.570170
0
LINE
8
Capa 1
10
37.641600
20
70.570170
11
39.163168
21
70.416771
0
LINE
8
Capa 1
10
39.163168
20
70.416771
11
40.580361
21
69.976841
0
LINE
8
Capa 1
10
40.580361
20
69.976841
11
41.862820
21
69.280739
0
LINE
8
Capa 1
10
41.862820
20
69.280739
11
42.980186
21
68.358826
0
LINE
8
Capa 1
10
42.980186
20
68.358826
11
43.902099
21
67.241460
0
LINE
8
Capa 1
10
43.902099
20
67.241460
11
44.598201
21
65.959001
0
LINE
8
Capa 1
10
44.598201
20
65.959001
11
45.038131
21
64.541808
0
LINE
8
Capa 1
10
45.038131
20
64.541808
11
45.191530
21
63.020240
0
LINE
8
Capa 1
10
45.191530
20
63.020240
11
45.038129
21
61.498674
0
LINE
8
Capa 1
10
45.038129
20
61.498674
11
44.598198
21
60.081482
0
LINE
8
Capa 1
10
44.598198
20
60.081482
11
43.902096
21
58.799024
0
LINE
8
Capa 1
10
43.902096
20
58.799024
11
42.980183
21
57.681660
0
LINE
8
Capa 1
10
42.980183
20
57.681660
11
41.862817
21
56.759749
0
LINE
8
Capa 1
10
41.862817
20
56.759749
11
40.580359
21
56.063648
0
LINE
8
Capa 1
10
40.580359
20
56.063648
11
39.163167
21
55.623719
0
LINE
8
Capa 1
10
39.163167
20
55.623719
11
37.641600
21
55.470320
0
LINE
8
Capa 1
10
37.641600
20
55.470320
11
36.120033
21
55.623719
0
LINE
8
Capa 1
10
36.120033
20
55.623719
11
34.702841
21
56.063648
0
LINE
8
Capa 1
10
34.702841
20
56.063648
11
33.420383
21
56.759749
0
LINE
8
Capa 1
10
33.420383
20
56.759749
11
32.303017
21
57.681660
0
LINE
8
Capa 1
10
32.303017
20
57.681660
11
31.381104
21
58.799024
0
LINE
8
Capa 1
10
31.381104
20
58.799024
11
30.685002
21
60.081482
0
LINE
8
Capa 1
10
30.685002
20
60.081482
11
30.245071
21
61.498674
0
LINE
8
Capa 1
10
30.245071
20
61.498674
11
30.091670
21
63.020240
0
LINE
8
Capa 1
10
30.091670
20
63.020240
11
30.245069
21
64.541808
0
LINE
8
Capa 1
10
30.245069
20
64.541808
11
30.684999
21
65.959001
0
LINE
8
Capa 1
10
30.684999
20
65.959001
11
31.381101
21
67.241460
0
LINE
8
Capa 1
10
31.381101
20
67.241460
11
32.303014
21
68.358826
0
LINE
8
Capa 1
10
32.303014
20
68.358826
11
33.420380
21
69.280739
0
LINE
8
Capa 1
10
33.420380
20
69.280739
11
34.702839
21
69.976841
0
LINE
8
Capa 1
10
34.702839
20
69.976841
11
36.120032
21
70.416771
0
LINE
8
Capa 1
10
36.120032
20
70.416771
11
37.641600
21
70.570170
0
LINE
8
Capa 1
10
37.641600
20
70.570170
11
37.641600
21
70.570170
0
LINE
8
Capa 1
10
62.519200
20
70.570170
11
64.040768
21
70.416771
0
LINE
8
Capa 1
10
64.040768
20
70.416771
11
65.457961
21
69.976841
0
LINE
8
Capa 1
10
65.457961
20
69.976841
11
66.740420
21
69.280739
0
LINE
8
Capa 1
10
66.740420
20
69.280739
11
67.857786
21
68.358826
0
LINE
8
Capa 1
10
67.857786
20
68.358826
11
68.779699
21
67.241460
0
LINE
8
Capa 1
10
68.779699
20
67.241460
11
69.475801
21
65.959001
0
LINE
8
Capa 1
10
69.475801
20
65.959001
11
69.915731
21
64.541808
0
LINE
8
Capa 1
10
69.915731
20
64.541808
11
70.069130
21
63.020240
0
LINE
8
Capa 1
10
70.069130
20
63.020240
11
69.915729
21
61.498674
0
LINE
8
Capa 1
10
69.915729
20
61.498674
11
69.475798
21
60.081482
0
LINE
8
Capa 1
10
69.475798
20
60.081482
11
68.779696
21
58.799024
0
LINE
8
Capa 1
10
68.779696
20
58.799024
11
67.857783
21
57.681660
0
LINE
8
Capa 1
10
67.857783
20
57.681660
11
66.740417
21
56.759749
0
LINE
8
Capa 1
10
66.740417
20
56.759749
11
65.457959
21
56.063648
0
LINE
8
Capa 1
10
65.457959
20
56.063648
11
64.040767
21
55.623719
0
LINE
8
Capa 1
10
64.040767
20
55.623719
11
62.519200
21
55.470320
0
LINE
8
Capa 1
10
62.519200
20
55.470320
11
61.039337
21
55.616654
0
LINE
8
Capa 1
10
61.039337
20
55.616654
11
59.629823
21
56.044896
0
LINE
8
Capa 1
10
59.629823
20
56.044896
11
58.330270
21
56.738639
0
LINE
8
Capa 1
10
58.330270
20
56.738639
11
57.180288
21
57.681480
0
LINE
8
Capa 1
10
57.180288
20
57.681480
11
56.237368
21
58.831398
0
LINE
8
Capa 1
10
56.237368
20
58.831398
11
55.543535
21
60.130903
0
LINE
8
Capa 1
10
55.543535
20
60.130903
11
55.115196
21
61.540387
0
LINE
8
Capa 1
10
55.115196
20
61.540387
11
54.968760
21
63.020240
0
LINE
8
Capa 1
10
54.968760
20
63.020240
11
55.115194
21
64.500095
0
LINE
8
Capa 1
10
55.115194
20
64.500095
11
55.543532
21
65.909580
0
LINE
8
Capa 1
10
55.543532
20
65.909580
11
56.237364
21
67.209087
0
LINE
8
Capa 1
10
56.237364
20
67.209087
11
57.180284
21
68.359007
0
LINE
8
Capa 1
10
57.180284
20
68.359007
11
58.330267
21
69.301849
0
LINE
8
Capa 1
10
58.330267
20
69.301849
11
59.629821
21
69.995593
0
LINE
8
Capa 1
10
59.629821
20
69.995593
11
61.039335
21
70.423835
0
LINE
8
Capa 1
10
61.039335
20
70.423835
11
62.519200
21
70.570170
0
LINE
8
Capa 1
10
62.519200
20
70.570170
11
62.519200
21
70.570170
0
LINE
8
Capa 1
10
87.396200
20
70.570170
11
88.917768
21
70.416771
0
LINE
8
Capa 1
10
88.917768
20
70.416771
11
90.334961
21
69.976841
0
LINE
8
Capa 1
10
90.334961
20
69.976841
11
91.617420
21
69.280739
0
LINE
8
Capa 1
10
91.617420
20
69.280739
11
92.734786
21
68.358826
0
LINE
8
Capa 1
10
92.734786
20
68.358826
11
93.656699
21
67.241460
0
LINE
8
Capa 1
10
93.656699
20
67.241460
11
94.352801
21
65.959001
0
LINE
8
Capa 1
10
94.352801
20
65.959001
11
94.792731
21
64.541808
0
LINE
8
Capa 1
10
94.792731
20
64.541808
11
94.946130
21
63.020240
0
LINE
8
Capa 1
10
94.946130
20
63.020240
11
94.792729
21
61.498674
0
LINE
8
Capa 1
10
94.792729
20
61.498674
11
94.352798
21
60.081482
0
LINE
8
Capa 1
10
94.352798
20
60.081482
11
93.656696
21
58.799024
0
LINE
8
Capa 1
10
93.656696
20
58.799024
11
92.734783
21
57.681660
0
LINE
8
Capa 1
10
92.734783
20
57.681660
11
91.617417
21
56.759749
0
LINE
8
Capa 1
10
91.617417
20
56.759749
11
90.334959
21
56.063648
0
LINE
8
Capa 1
10
90.334959
20
56.063648
11
88.917767
21
55.623719
0
LINE
8
Capa 1
10
88.917767
20
55.623719
11
87.396200
21
55.470320
0
LINE
8
Capa 1
10
87.396200
20
55.470320
11
85.874635
21
55.623721
0
LINE
8
Capa 1
10
85.874635
20
55.623721
11
84.457444
21
56.063651
0
LINE
8
Capa 1
10
84.457444
20
56.063651
11
83.174988
21
56.759752
0
LINE
8
Capa 1
10
83.174988
20
56.759752
11
82.057624
21
57.681664
0
LINE
8
Capa 1
10
82.057624
20
57.681664
11
81.135712
21
58.799028
0
LINE
8
Capa 1
10
81.135712
20
58.799028
11
80.439611
21
60.081484
0
LINE
8
Capa 1
10
80.439611
20
60.081484
11
79.999681
21
61.498675
0
LINE
8
Capa 1
10
79.999681
20
61.498675
11
79.846280
21
63.020240
0
LINE
8
Capa 1
10
79.846280
20
63.020240
11
79.999679
21
64.541807
0
LINE
8
Capa 1
10
79.999679
20
64.541807
11
80.439608
21
65.958999
0
LINE
8
Capa 1
10
80.439608
20
65.958999
11
81.135709
21
67.241457
0
LINE
8
Capa 1
10
81.135709
20
67.241457
11
82.057620
21
68.358823
0
LINE
8
Capa 1
10
82.057620
20
68.358823
11
83.174984
21
69.280736
0
LINE
8
Capa 1
10
83.174984
20
69.280736
11
84.457442
21
69.976838
0
LINE
8
Capa 1
10
84.457442
20
69.976838
11
85.874634
21
70.416769
0
LINE
8
Capa 1
10
85.874634
20
70.416769
11
87.396200
21
70.570170
0
LINE
8
Capa 1
10
87.396200
20
70.570170
11
87.396200
21
70.570170
0
LINE
8
Capa 1
10
112.273800
20
70.570170
11
113.795366
21
70.416769
0
LINE
8
Capa 1
10
113.795366
20
70.416769
11
115.212558
21
69.976838
0
LINE
8
Capa 1
10
115.212558
20
69.976838
11
116.495016
21
69.280736
0
LINE
8
Capa 1
10
116.495016
20
69.280736
11
117.612380
21
68.358823
0
LINE
8
Capa 1
10
117.612380
20
68.358823
11
118.534291
21
67.241457
0
LINE
8
Capa 1
10
118.534291
20
67.241457
11
119.230392
21
65.958999
0
LINE
8
Capa 1
10
119.230392
20
65.958999
11
119.670321
21
64.541807
0
LINE
8
Capa 1
10
119.670321
20
64.541807
11
119.823720
21
63.020240
0
LINE
8
Capa 1
10
119.823720
20
63.020240
11
119.670319
21
61.498675
0
LINE
8
Capa 1
10
119.670319
20
61.498675
11
119.230389
21
60.081484
0
LINE
8
Capa 1
10
119.230389
20
60.081484
11
118.534288
21
58.799028
0
LINE
8
Capa 1
10
118.534288
20
58.799028
11
117.612376
21
57.681664
0
LINE
8
Capa 1
10
117.612376
20
57.681664
11
116.495012
21
56.759752
0
LINE
8
Capa 1
10
116.495012
20
56.759752
11
115.212556
21
56.063651
0
LINE
8
Capa 1
10
115.212556
20
56.063651
11
113.795365
21
55.623721
0
LINE
8
Capa 1
10
113.795365
20
55.623721
11
112.273800
21
55.470320
0
LINE
8
Capa 1
10
112.273800
20
55.470320
11
110.752233
21
55.623719
0
LINE
8
Capa 1
10
110.752233
20
55.623719
11
109.335041
21
56.063648
0
LINE
8
Capa 1
10
109.335041
20
56.063648
11
108.052583
21
56.759749
0
LINE
8
Capa 1
10
108.052583
20
56.759749
11
106.935217
21
57.681660
0
LINE
8
Capa 1
10
106.935217
20
57.681660
11
106.013304
21
58.799024
0
LINE
8
Capa 1
10
106.013304
20
58.799024
11
105.317202
21
60.081482
0
LINE
8
Capa 1
10
105.317202
20
60.081482
11
104.877271
21
61.498674
0
LINE
8
Capa 1
10
104.877271
20
61.498674
11
104.723870
21
63.020240
0
LINE
8
Capa 1
10
104.723870
20
63.020240
11
104.877269
21
64.541808
0
LINE
8
Capa 1
10
104.877269
20
64.541808
11
105.317199
21
65.959001
0
LINE
8
Capa 1
10
105.317199
20
65.959001
11
106.013301
21
67.241460
0
LINE
8
Capa 1
10
106.013301
20
67.241460
11
106.935214
21
68.358826
0
LINE
8
Capa 1
10
106.935214
20
68.358826
11
108.052580
21
69.280739
0
LINE
8
Capa 1
10
108.052580
20
69.280739
11
109.335039
21
69.976841
0
LINE
8
Capa 1
10
109.335039
20
69.976841
11
110.752232
21
70.416771
0
LINE
8
Capa 1
10
110.752232
20
70.416771
11
112.273800
21
70.570170
0
LINE
8
Capa 1
10
112.273800
20
70.570170
11
112.273800
21
70.570170
0
LINE
8
Capa 1
10
28.141500
20
53.593470
11
47.141600
21
53.593400
0
LINE
8
Capa 1
10
47.141600
20
53.593400
11
47.141600
21
34.593500
0
LINE
8
Capa 1
10
47.141600
20
34.593500
11
28.141200
21
34.593500
0
LINE
8
Capa 1
10
28.141200
20
34.593500
11
28.141500
21
53.593470
0
LINE
8
Capa 1
10
53.029900
20
53.593470
11
72.030000
21
53.593400
0
LINE
8
Capa 1
10
72.030000
20
53.593400
11
72.030000
21
34.593500
0
LINE
8
Capa 1
10
72.030000
20
34.593500
11
53.029600
21
34.593500
0
LINE
8
Capa 1
10
53.029600
20
34.593500
11
53.029900
21
53.593470
0
LINE
8
Capa 1
10
77.918800
20
53.593470
11
96.918400
21
53.593400
0
LINE
8
Capa 1
10
96.918400
20
53.593400
11
96.918400
21
34.593500
0
LINE
8
Capa 1
10
96.918400
20
34.593500
11
77.918500
21
34.593500
0
LINE
8
Capa 1
10
77.918500
20
34.593500
11
77.918800
21
53.593470
0
LINE
8
Capa 1
10
102.807200
20
53.593470
11
121.807000
21
53.593400
0
LINE
8
Capa 1
10
121.807000
20
53.593400
11
121.807000
21
34.593500
0
LINE
8
Capa 1
10
121.807000
20
34.593500
11
102.807000
21
34.593500
0
LINE
8
Capa 1
10
102.807000
20
34.593500
11
102.807200
21
53.593470
0
LINE
8
Capa 1
10
3.264400
20
42.748170
11
22.264000
21
42.748100
0
LINE
8
Capa 1
10
22.264000
20
42.748100
11
22.264000
21
23.748200
0
LINE
8
Capa 1
10
22.264000
20
23.748200
11
3.264150
21
23.748200
0
LINE
8
Capa 1
10
3.264150
20
23.748200
11
3.264400
21
42.748170
0
LINE
8
Capa 1
10
28.141400
20
31.886270
11
47.141600
21
31.886200
0
LINE
8
Capa 1
10
47.141600
20
31.886200
11
47.141600
21
12.886300
0
LINE
8
Capa 1
10
47.141600
20
12.886300
11
28.141200
21
12.886300
0
LINE
8
Capa 1
10
28.141200
20
12.886300
11
28.141400
21
31.886270
0
LINE
8
Capa 1
10
53.029800
20
31.886270
11
72.030000
21
31.886200
0
LINE
8
Capa 1
10
72.030000
20
31.886200
11
72.030000
21
12.886300
0
LINE
8
Capa 1
10
72.030000
20
12.886300
11
53.029600
21
12.886300
0
LINE
8
Capa 1
10
53.029600
20
12.886300
11
53.029800
21
31.886270
0
LINE
8
Capa 1
10
77.918700
20
31.886270
11
96.918400
21
31.886200
0
LINE
8
Capa 1
10
96.918400
20
31.886200
11
96.918400
21
12.886300
0
LINE
8
Capa 1
10
96.918400
20
12.886300
11
77.918500
21
12.886300
0
LINE
8
Capa 1
10
77.918500
20
12.886300
11
77.918700
21
31.886270
0
LINE
8
Capa 1
10
102.807100
20
31.886270
11
121.807000
21
31.886200
0
LINE
8
Capa 1
10
121.807000
20
31.886200
11
121.807000
21
12.886300
0
LINE
8
Capa 1
10
121.807000
20
12.886300
11
102.807000
21
12.886300
0
LINE
8
Capa 1
10
102.807000
20
12.886300
11
102.807100
21
31.886270
0
LINE
8
Capa 1
10
24.740900
20
16.263400
11
25.353260
21
16.141538
0
LINE
8
Capa 1
10
25.353260
20
16.141538
11
25.872355
21
15.794587
0
LINE
8
Capa 1
10
25.872355
20
15.794587
11
26.219137
21
15.275379
0
LINE
8
Capa 1
10
26.219137
20
15.275379
11
26.340800
21
14.662980
0
LINE
8
Capa 1
10
26.340800
20
14.662980
11
26.215045
21
14.040244
0
LINE
8
Capa 1
10
26.215045
20
14.040244
11
25.872171
21
13.531709
0
LINE
8
Capa 1
10
25.872171
20
13.531709
11
25.363636
21
13.188835
0
LINE
8
Capa 1
10
25.363636
20
13.188835
11
24.740900
21
13.063080
0
LINE
8
Capa 1
10
24.740900
20
13.063080
11
24.118164
21
13.188835
0
LINE
8
Capa 1
10
24.118164
20
13.188835
11
23.609629
21
13.531709
0
LINE
8
Capa 1
10
23.609629
20
13.531709
11
23.266755
21
14.040244
0
LINE
8
Capa 1
10
23.266755
20
14.040244
11
23.141000
21
14.662980
0
LINE
8
Capa 1
10
23.141000
20
14.662980
11
23.262663
21
15.275379
0
LINE
8
Capa 1
10
23.262663
20
15.275379
11
23.609445
21
15.794587
0
LINE
8
Capa 1
10
23.609445
20
15.794587
11
24.128540
21
16.141538
0
LINE
8
Capa 1
10
24.128540
20
16.141538
11
24.740900
21
16.263400
0
LINE
8
Capa 1
10
24.740900
20
16.263400
11
24.740900
21
16.263400
0
LINE
8
Capa 1
10
99.506900
20
16.263400
11
100.119420
21
16.141688
0
LINE
8
Capa 1
10
100.119420
20
16.141688
11
100.638691
21
15.794771
0
LINE
8
Capa 1
10
100.638691
20
15.794771
11
100.985608
21
15.275500
0
LINE
8
Capa 1
10
100.985608
20
15.275500
11
101.107320
21
14.662980
0
LINE
8
Capa 1
10
101.107320
20
14.662980
11
100.985458
21
14.050620
0
LINE
8
Capa 1
10
100.985458
20
14.050620
11
100.638507
21
13.531525
0
LINE
8
Capa 1
10
100.638507
20
13.531525
11
100.119299
21
13.184743
0
LINE
8
Capa 1
10
100.119299
20
13.184743
11
99.506900
21
13.063080
0
LINE
8
Capa 1
10
99.506900
20
13.063080
11
98.884164
21
13.188835
0
LINE
8
Capa 1
10
98.884164
20
13.188835
11
98.375629
21
13.531709
0
LINE
8
Capa 1
10
98.375629
20
13.531709
11
98.032755
21
14.040244
0
LINE
8
Capa 1
10
98.032755
20
14.040244
11
97.907000
21
14.662980
0
LINE
8
Capa 1
10
97.907000
20
14.662980
11
98.028663
21
15.275379
0
LINE
8
Capa 1
10
98.028663
20
15.275379
11
98.375445
21
15.794587
0
LINE
8
Capa 1
10
98.375445
20
15.794587
11
98.894540
21
16.141538
0
LINE
8
Capa 1
10
98.894540
20
16.141538
11
99.506900
21
16.263400
0
LINE
8
Capa 1
10
99.506900
20
16.263400
11
99.506900
21
16.263400
 0 
ENDSEC
 0 
EOF