999
"DXF R12 Output" (www.mydxf.blogspot.com)
 0 
SECTION
 2 
HEADER
 9 
$ACADVER
 1 
AC1009
 9 
$EXTMIN
 10 
 0 
 20 
 0 
 9 
$EXTMAX
 10 
 8.5 
 20 
 11 
 0 
ENDSEC
 0 
SECTION
 2 
ENTITIES
0
LINE
8
Capa 1
10
10.037900
20
119.962000
11
10.037900
21
114.965000
0
LINE
8
Capa 1
10
10.037900
20
114.965000
11
9.936255
21
113.957979
0
LINE
8
Capa 1
10
9.936255
20
113.957979
11
9.644853
21
113.020041
0
LINE
8
Capa 1
10
9.644853
20
113.020041
11
9.183805
21
112.171280
0
LINE
8
Capa 1
10
9.183805
20
112.171280
11
8.573219
21
111.431790
0
LINE
8
Capa 1
10
8.573219
20
111.431790
11
7.833205
21
110.821663
0
LINE
8
Capa 1
10
7.833205
20
110.821663
11
6.983872
21
110.360994
0
LINE
8
Capa 1
10
6.983872
20
110.360994
11
6.045331
21
110.069875
0
LINE
8
Capa 1
10
6.045331
20
110.069875
11
5.037690
21
109.968400
0
LINE
8
Capa 1
10
5.037690
20
109.968400
11
0.037954
21
109.969000
0
LINE
8
Capa 1
10
0.037954
20
109.969000
11
0.037954
21
10.031700
0
LINE
8
Capa 1
10
0.037954
20
10.031700
11
5.037650
21
10.031700
0
LINE
8
Capa 1
10
5.037650
20
10.031700
11
6.045291
21
9.930222
0
LINE
8
Capa 1
10
6.045291
20
9.930222
11
6.983832
21
9.639101
0
LINE
8
Capa 1
10
6.983832
20
9.639101
11
7.833165
21
9.178430
0
LINE
8
Capa 1
10
7.833165
20
9.178430
11
8.573179
21
8.568303
0
LINE
8
Capa 1
10
8.573179
20
8.568303
11
9.183765
21
7.828813
0
LINE
8
Capa 1
10
9.183765
20
7.828813
11
9.644813
21
6.980053
0
LINE
8
Capa 1
10
9.644813
20
6.980053
11
9.936215
21
6.042118
0
LINE
8
Capa 1
10
9.936215
20
6.042118
11
10.037860
21
5.035100
0
LINE
8
Capa 1
10
10.037860
20
5.035100
11
10.037900
21
0.038020
0
LINE
8
Capa 1
10
10.037900
20
0.038020
11
109.962000
21
0.038020
0
LINE
8
Capa 1
10
109.962000
20
0.038020
11
109.962000
21
5.035140
0
LINE
8
Capa 1
10
109.962000
20
5.035140
11
110.063641
21
6.042158
0
LINE
8
Capa 1
10
110.063641
20
6.042158
11
110.355034
21
6.980093
0
LINE
8
Capa 1
10
110.355034
20
6.980093
11
110.816072
21
7.828852
0
LINE
8
Capa 1
10
110.816072
20
7.828852
11
111.426648
21
8.568342
0
LINE
8
Capa 1
10
111.426648
20
8.568342
11
112.166656
21
9.178470
0
LINE
8
Capa 1
10
112.166656
20
9.178470
11
113.015990
21
9.639141
0
LINE
8
Capa 1
10
113.015990
20
9.639141
11
113.954543
21
9.930262
0
LINE
8
Capa 1
10
113.954543
20
9.930262
11
114.962210
21
10.031740
0
LINE
8
Capa 1
10
114.962210
20
10.031740
11
119.962000
21
10.031700
0
LINE
8
Capa 1
10
119.962000
20
10.031700
11
119.962000
21
109.969000
0
LINE
8
Capa 1
10
119.962000
20
109.969000
11
114.962000
21
109.969000
0
LINE
8
Capa 1
10
114.962000
20
109.969000
11
113.954333
21
110.070475
0
LINE
8
Capa 1
10
113.954333
20
110.070475
11
113.015780
21
110.361594
0
LINE
8
Capa 1
10
113.015780
20
110.361594
11
112.166446
21
110.822263
0
LINE
8
Capa 1
10
112.166446
20
110.822263
11
111.426438
21
111.432390
0
LINE
8
Capa 1
10
111.426438
20
111.432390
11
110.815862
21
112.171880
0
LINE
8
Capa 1
10
110.815862
20
112.171880
11
110.354824
21
113.020641
0
LINE
8
Capa 1
10
110.354824
20
113.020641
11
110.063431
21
113.958579
0
LINE
8
Capa 1
10
110.063431
20
113.958579
11
109.961790
21
114.965600
0
LINE
8
Capa 1
10
109.961790
20
114.965600
11
109.962000
21
119.962000
0
LINE
8
Capa 1
10
109.962000
20
119.962000
11
10.037900
21
119.962000
0
LINE
8
Capa 1
10
22.546700
20
107.466600
11
23.159060
21
107.344738
0
LINE
8
Capa 1
10
23.159060
20
107.344738
11
23.678155
21
106.997787
0
LINE
8
Capa 1
10
23.678155
20
106.997787
11
24.024937
21
106.478579
0
LINE
8
Capa 1
10
24.024937
20
106.478579
11
24.146600
21
105.866180
0
LINE
8
Capa 1
10
24.146600
20
105.866180
11
24.020845
21
105.243444
0
LINE
8
Capa 1
10
24.020845
20
105.243444
11
23.677971
21
104.734909
0
LINE
8
Capa 1
10
23.677971
20
104.734909
11
23.169436
21
104.392035
0
LINE
8
Capa 1
10
23.169436
20
104.392035
11
22.546700
21
104.266280
0
LINE
8
Capa 1
10
22.546700
20
104.266280
11
21.923964
21
104.392035
0
LINE
8
Capa 1
10
21.923964
20
104.392035
11
21.415429
21
104.734909
0
LINE
8
Capa 1
10
21.415429
20
104.734909
11
21.072555
21
105.243444
0
LINE
8
Capa 1
10
21.072555
20
105.243444
11
20.946800
21
105.866180
0
LINE
8
Capa 1
10
20.946800
20
105.866180
11
21.068463
21
106.478579
0
LINE
8
Capa 1
10
21.068463
20
106.478579
11
21.415245
21
106.997787
0
LINE
8
Capa 1
10
21.415245
20
106.997787
11
21.934340
21
107.344738
0
LINE
8
Capa 1
10
21.934340
20
107.344738
11
22.546700
21
107.466600
0
LINE
8
Capa 1
10
22.546700
20
107.466600
11
22.546700
21
107.466600
0
LINE
8
Capa 1
10
97.453200
20
107.466600
11
98.065560
21
107.344738
0
LINE
8
Capa 1
10
98.065560
20
107.344738
11
98.584655
21
106.997787
0
LINE
8
Capa 1
10
98.584655
20
106.997787
11
98.931437
21
106.478579
0
LINE
8
Capa 1
10
98.931437
20
106.478579
11
99.053100
21
105.866180
0
LINE
8
Capa 1
10
99.053100
20
105.866180
11
98.927345
21
105.243444
0
LINE
8
Capa 1
10
98.927345
20
105.243444
11
98.584471
21
104.734909
0
LINE
8
Capa 1
10
98.584471
20
104.734909
11
98.075936
21
104.392035
0
LINE
8
Capa 1
10
98.075936
20
104.392035
11
97.453200
21
104.266280
0
LINE
8
Capa 1
10
97.453200
20
104.266280
11
96.830461
21
104.392032
0
LINE
8
Capa 1
10
96.830461
20
104.392032
11
96.321923
21
104.734906
0
LINE
8
Capa 1
10
96.321923
20
104.734906
11
95.979046
21
105.243442
0
LINE
8
Capa 1
10
95.979046
20
105.243442
11
95.853290
21
105.866180
0
LINE
8
Capa 1
10
95.853290
20
105.866180
11
95.974954
21
106.478582
0
LINE
8
Capa 1
10
95.974954
20
106.478582
11
96.321739
21
106.997791
0
LINE
8
Capa 1
10
96.321739
20
106.997791
11
96.840837
21
107.344741
0
LINE
8
Capa 1
10
96.840837
20
107.344741
11
97.453200
21
107.466600
0
LINE
8
Capa 1
10
97.453200
20
107.466600
11
97.453200
21
107.466600
0
LINE
8
Capa 1
10
10.245100
20
100.728000
11
11.457242
21
100.606517
0
LINE
8
Capa 1
10
11.457242
20
100.606517
11
12.584894
21
100.257914
0
LINE
8
Capa 1
10
12.584894
20
100.257914
11
13.604283
21
99.705961
0
LINE
8
Capa 1
10
13.604283
20
99.705961
11
14.491637
21
98.974426
0
LINE
8
Capa 1
10
14.491637
20
98.974426
11
15.223184
21
98.087080
0
LINE
8
Capa 1
10
15.223184
20
98.087080
11
15.775150
21
97.067690
0
LINE
8
Capa 1
10
15.775150
20
97.067690
11
16.123763
21
95.940027
0
LINE
8
Capa 1
10
16.123763
20
95.940027
11
16.245250
21
94.727860
0
LINE
8
Capa 1
10
16.245250
20
94.727860
11
16.245200
21
84.727900
0
LINE
8
Capa 1
10
16.245200
20
84.727900
11
16.123713
21
83.515824
0
LINE
8
Capa 1
10
16.123713
20
83.515824
11
15.775100
21
82.388203
0
LINE
8
Capa 1
10
15.775100
20
82.388203
11
15.223134
21
81.368818
0
LINE
8
Capa 1
10
15.223134
20
81.368818
11
14.491588
21
80.481449
0
LINE
8
Capa 1
10
14.491588
20
80.481449
11
13.604233
21
79.749877
0
LINE
8
Capa 1
10
13.604233
20
79.749877
11
12.584844
21
79.197882
0
LINE
8
Capa 1
10
12.584844
20
79.197882
11
11.457192
21
78.849247
0
LINE
8
Capa 1
10
11.457192
20
78.849247
11
10.245050
21
78.727750
0
LINE
8
Capa 1
10
10.245050
20
78.727750
11
9.032911
21
78.849247
0
LINE
8
Capa 1
10
9.032911
20
78.849247
11
7.905260
21
79.197882
0
LINE
8
Capa 1
10
7.905260
20
79.197882
11
6.885871
21
79.749877
0
LINE
8
Capa 1
10
6.885871
20
79.749877
11
5.998516
21
80.481449
0
LINE
8
Capa 1
10
5.998516
20
80.481449
11
5.266969
21
81.368818
0
LINE
8
Capa 1
10
5.266969
20
81.368818
11
4.715001
21
82.388203
0
LINE
8
Capa 1
10
4.715001
20
82.388203
11
4.366388
21
83.515824
0
LINE
8
Capa 1
10
4.366388
20
83.515824
11
4.244900
21
84.727900
0
LINE
8
Capa 1
10
4.244900
20
84.727900
11
4.244930
21
94.727900
0
LINE
8
Capa 1
10
4.244930
20
94.727900
11
4.366418
21
95.940070
0
LINE
8
Capa 1
10
4.366418
20
95.940070
11
4.715031
21
97.067734
0
LINE
8
Capa 1
10
4.715031
20
97.067734
11
5.266999
21
98.087124
0
LINE
8
Capa 1
10
5.266999
20
98.087124
11
5.998546
21
98.974470
0
LINE
8
Capa 1
10
5.998546
20
98.974470
11
6.885901
21
99.706004
0
LINE
8
Capa 1
10
6.885901
20
99.706004
11
7.905290
21
100.257956
0
LINE
8
Capa 1
10
7.905290
20
100.257956
11
9.032941
21
100.606557
0
LINE
8
Capa 1
10
9.032941
20
100.606557
11
10.245080
21
100.728040
0
LINE
8
Capa 1
10
10.245080
20
100.728040
11
10.245100
21
100.728000
0
LINE
8
Capa 1
10
35.122700
20
100.728000
11
36.334819
21
100.606517
0
LINE
8
Capa 1
10
36.334819
20
100.606517
11
37.462412
21
100.257914
0
LINE
8
Capa 1
10
37.462412
20
100.257914
11
38.481719
21
99.705961
0
LINE
8
Capa 1
10
38.481719
20
99.705961
11
39.368978
21
98.974426
0
LINE
8
Capa 1
10
39.368978
20
98.974426
11
40.100429
21
98.087080
0
LINE
8
Capa 1
10
40.100429
20
98.087080
11
40.652311
21
97.067690
0
LINE
8
Capa 1
10
40.652311
20
97.067690
11
41.000865
21
95.940027
0
LINE
8
Capa 1
10
41.000865
20
95.940027
11
41.122330
21
94.727860
0
LINE
8
Capa 1
10
41.122330
20
94.727860
11
41.122300
21
84.727900
0
LINE
8
Capa 1
10
41.122300
20
84.727900
11
41.000835
21
83.515821
0
LINE
8
Capa 1
10
41.000835
20
83.515821
11
40.652281
21
82.388199
0
LINE
8
Capa 1
10
40.652281
20
82.388199
11
40.100399
21
81.368813
0
LINE
8
Capa 1
10
40.100399
20
81.368813
11
39.368948
21
80.481445
0
LINE
8
Capa 1
10
39.368948
20
80.481445
11
38.481689
21
79.749874
0
LINE
8
Capa 1
10
38.481689
20
79.749874
11
37.462383
21
79.197881
0
LINE
8
Capa 1
10
37.462383
20
79.197881
11
36.334789
21
78.849246
0
LINE
8
Capa 1
10
36.334789
20
78.849246
11
35.122670
21
78.727750
0
LINE
8
Capa 1
10
35.122670
20
78.727750
11
33.910537
21
78.849246
0
LINE
8
Capa 1
10
33.910537
20
78.849246
11
32.782889
21
79.197881
0
LINE
8
Capa 1
10
32.782889
20
79.197881
11
31.763500
21
79.749874
0
LINE
8
Capa 1
10
31.763500
20
79.749874
11
30.876144
21
80.481445
0
LINE
8
Capa 1
10
30.876144
20
80.481445
11
30.144594
21
81.368813
0
LINE
8
Capa 1
10
30.144594
20
81.368813
11
29.592624
21
82.388199
0
LINE
8
Capa 1
10
29.592624
20
82.388199
11
29.244008
21
83.515821
0
LINE
8
Capa 1
10
29.244008
20
83.515821
11
29.122520
21
84.727900
0
LINE
8
Capa 1
10
29.122520
20
84.727900
11
29.122500
21
94.727900
0
LINE
8
Capa 1
10
29.122500
20
94.727900
11
29.243988
21
95.940070
0
LINE
8
Capa 1
10
29.243988
20
95.940070
11
29.592604
21
97.067734
0
LINE
8
Capa 1
10
29.592604
20
97.067734
11
30.144574
21
98.087124
0
LINE
8
Capa 1
10
30.144574
20
98.087124
11
30.876124
21
98.974470
0
LINE
8
Capa 1
10
30.876124
20
98.974470
11
31.763480
21
99.706004
0
LINE
8
Capa 1
10
31.763480
20
99.706004
11
32.782869
21
100.257956
0
LINE
8
Capa 1
10
32.782869
20
100.257956
11
33.910517
21
100.606557
0
LINE
8
Capa 1
10
33.910517
20
100.606557
11
35.122650
21
100.728040
0
LINE
8
Capa 1
10
35.122650
20
100.728040
11
35.122700
21
100.728000
0
LINE
8
Capa 1
10
59.999700
20
100.728000
11
61.211833
21
100.606517
0
LINE
8
Capa 1
10
61.211833
20
100.606517
11
62.339481
21
100.257914
0
LINE
8
Capa 1
10
62.339481
20
100.257914
11
63.358870
21
99.705961
0
LINE
8
Capa 1
10
63.358870
20
99.705961
11
64.246226
21
98.974426
0
LINE
8
Capa 1
10
64.246226
20
98.974426
11
64.977776
21
98.087080
0
LINE
8
Capa 1
10
64.977776
20
98.087080
11
65.529746
21
97.067690
0
LINE
8
Capa 1
10
65.529746
20
97.067690
11
65.878362
21
95.940027
0
LINE
8
Capa 1
10
65.878362
20
95.940027
11
65.999850
21
94.727860
0
LINE
8
Capa 1
10
65.999850
20
94.727860
11
65.999800
21
84.727900
0
LINE
8
Capa 1
10
65.999800
20
84.727900
11
65.878312
21
83.515818
0
LINE
8
Capa 1
10
65.878312
20
83.515818
11
65.529696
21
82.388195
0
LINE
8
Capa 1
10
65.529696
20
82.388195
11
64.977726
21
81.368809
0
LINE
8
Capa 1
10
64.977726
20
81.368809
11
64.246176
21
80.481441
0
LINE
8
Capa 1
10
64.246176
20
80.481441
11
63.358820
21
79.749871
0
LINE
8
Capa 1
10
63.358820
20
79.749871
11
62.339431
21
79.197880
0
LINE
8
Capa 1
10
62.339431
20
79.197880
11
61.211783
21
78.849246
0
LINE
8
Capa 1
10
61.211783
20
78.849246
11
59.999650
21
78.727750
0
LINE
8
Capa 1
10
59.999650
20
78.727750
11
58.787528
21
78.849246
0
LINE
8
Capa 1
10
58.787528
20
78.849246
11
57.659933
21
79.197880
0
LINE
8
Capa 1
10
57.659933
20
79.197880
11
56.640627
21
79.749871
0
LINE
8
Capa 1
10
56.640627
20
79.749871
11
55.753369
21
80.481441
0
LINE
8
Capa 1
10
55.753369
20
80.481441
11
55.021919
21
81.368809
0
LINE
8
Capa 1
10
55.021919
20
81.368809
11
54.470037
21
82.388195
0
LINE
8
Capa 1
10
54.470037
20
82.388195
11
54.121484
21
83.515818
0
LINE
8
Capa 1
10
54.121484
20
83.515818
11
54.000020
21
84.727900
0
LINE
8
Capa 1
10
54.000020
20
84.727900
11
54.000000
21
94.727900
0
LINE
8
Capa 1
10
54.000000
20
94.727900
11
54.121465
21
95.940070
0
LINE
8
Capa 1
10
54.121465
20
95.940070
11
54.470019
21
97.067734
0
LINE
8
Capa 1
10
54.470019
20
97.067734
11
55.021901
21
98.087124
0
LINE
8
Capa 1
10
55.021901
20
98.087124
11
55.753352
21
98.974470
0
LINE
8
Capa 1
10
55.753352
20
98.974470
11
56.640611
21
99.706004
0
LINE
8
Capa 1
10
56.640611
20
99.706004
11
57.659918
21
100.257956
0
LINE
8
Capa 1
10
57.659918
20
100.257956
11
58.787511
21
100.606557
0
LINE
8
Capa 1
10
58.787511
20
100.606557
11
59.999630
21
100.728040
0
LINE
8
Capa 1
10
59.999630
20
100.728040
11
59.999700
21
100.728000
0
LINE
8
Capa 1
10
84.877200
20
100.728000
11
86.089345
21
100.606517
0
LINE
8
Capa 1
10
86.089345
20
100.606517
11
87.216998
21
100.257914
0
LINE
8
Capa 1
10
87.216998
20
100.257914
11
88.236388
21
99.705961
0
LINE
8
Capa 1
10
88.236388
20
99.705961
11
89.123741
21
98.974426
0
LINE
8
Capa 1
10
89.123741
20
98.974426
11
89.855287
21
98.087080
0
LINE
8
Capa 1
10
89.855287
20
98.087080
11
90.407251
21
97.067690
0
LINE
8
Capa 1
10
90.407251
20
97.067690
11
90.755863
21
95.940027
0
LINE
8
Capa 1
10
90.755863
20
95.940027
11
90.877350
21
94.727860
0
LINE
8
Capa 1
10
90.877350
20
94.727860
11
90.877400
21
84.727900
0
LINE
8
Capa 1
10
90.877400
20
84.727900
11
90.755913
21
83.515816
0
LINE
8
Capa 1
10
90.755913
20
83.515816
11
90.407301
21
82.388191
0
LINE
8
Capa 1
10
90.407301
20
82.388191
11
89.855337
21
81.368805
0
LINE
8
Capa 1
10
89.855337
20
81.368805
11
89.123791
21
80.481437
0
LINE
8
Capa 1
10
89.123791
20
80.481437
11
88.236438
21
79.749869
0
LINE
8
Capa 1
10
88.236438
20
79.749869
11
87.217048
21
79.197878
0
LINE
8
Capa 1
10
87.217048
20
79.197878
11
86.089395
21
78.849245
0
LINE
8
Capa 1
10
86.089395
20
78.849245
11
84.877250
21
78.727750
0
LINE
8
Capa 1
10
84.877250
20
78.727750
11
83.665105
21
78.849245
0
LINE
8
Capa 1
10
83.665105
20
78.849245
11
82.537452
21
79.197878
0
LINE
8
Capa 1
10
82.537452
20
79.197878
11
81.518062
21
79.749869
0
LINE
8
Capa 1
10
81.518062
20
79.749869
11
80.630709
21
80.481437
0
LINE
8
Capa 1
10
80.630709
20
80.481437
11
79.899163
21
81.368805
0
LINE
8
Capa 1
10
79.899163
20
81.368805
11
79.347199
21
82.388191
0
LINE
8
Capa 1
10
79.347199
20
82.388191
11
78.998587
21
83.515816
0
LINE
8
Capa 1
10
78.998587
20
83.515816
11
78.877100
21
84.727900
0
LINE
8
Capa 1
10
78.877100
20
84.727900
11
78.877100
21
94.727900
0
LINE
8
Capa 1
10
78.877100
20
94.727900
11
78.998587
21
95.940070
0
LINE
8
Capa 1
10
78.998587
20
95.940070
11
79.347199
21
97.067734
0
LINE
8
Capa 1
10
79.347199
20
97.067734
11
79.899163
21
98.087124
0
LINE
8
Capa 1
10
79.899163
20
98.087124
11
80.630709
21
98.974470
0
LINE
8
Capa 1
10
80.630709
20
98.974470
11
81.518062
21
99.706004
0
LINE
8
Capa 1
10
81.518062
20
99.706004
11
82.537452
21
100.257956
0
LINE
8
Capa 1
10
82.537452
20
100.257956
11
83.665105
21
100.606557
0
LINE
8
Capa 1
10
83.665105
20
100.606557
11
84.877250
21
100.728040
0
LINE
8
Capa 1
10
84.877250
20
100.728040
11
84.877200
21
100.728000
0
LINE
8
Capa 1
10
109.754700
20
100.728000
11
110.966765
21
100.606517
0
LINE
8
Capa 1
10
110.966765
20
100.606517
11
112.094332
21
100.257914
0
LINE
8
Capa 1
10
112.094332
20
100.257914
11
113.113635
21
99.705961
0
LINE
8
Capa 1
10
113.113635
20
99.705961
11
114.000906
21
98.974426
0
LINE
8
Capa 1
10
114.000906
20
98.974426
11
114.732378
21
98.087080
0
LINE
8
Capa 1
10
114.732378
20
98.087080
11
115.284285
21
97.067690
0
LINE
8
Capa 1
10
115.284285
20
97.067690
11
115.632857
21
95.940027
0
LINE
8
Capa 1
10
115.632857
20
95.940027
11
115.754330
21
94.727860
0
LINE
8
Capa 1
10
115.754330
20
94.727860
11
115.754000
21
84.727900
0
LINE
8
Capa 1
10
115.754000
20
84.727900
11
115.632527
21
83.515810
0
LINE
8
Capa 1
10
115.632527
20
83.515810
11
115.283955
21
82.388182
0
LINE
8
Capa 1
10
115.283955
20
82.388182
11
114.732048
21
81.368796
0
LINE
8
Capa 1
10
114.732048
20
81.368796
11
114.000576
21
80.481430
0
LINE
8
Capa 1
10
114.000576
20
80.481430
11
113.113305
21
79.749863
0
LINE
8
Capa 1
10
113.113305
20
79.749863
11
112.094002
21
79.197875
0
LINE
8
Capa 1
10
112.094002
20
79.197875
11
110.966435
21
78.849244
0
LINE
8
Capa 1
10
110.966435
20
78.849244
11
109.754370
21
78.727750
0
LINE
8
Capa 1
10
109.754370
20
78.727750
11
108.542199
21
78.849245
0
LINE
8
Capa 1
10
108.542199
20
78.849245
11
107.414534
21
79.197877
0
LINE
8
Capa 1
10
107.414534
20
79.197877
11
106.395143
21
79.749866
0
LINE
8
Capa 1
10
106.395143
20
79.749866
11
105.507795
21
80.481434
0
LINE
8
Capa 1
10
105.507795
20
80.481434
11
104.776260
21
81.368800
0
LINE
8
Capa 1
10
104.776260
20
81.368800
11
104.224306
21
82.388186
0
LINE
8
Capa 1
10
104.224306
20
82.388186
11
103.875703
21
83.515813
0
LINE
8
Capa 1
10
103.875703
20
83.515813
11
103.754220
21
84.727900
0
LINE
8
Capa 1
10
103.754220
20
84.727900
11
103.755000
21
94.727900
0
LINE
8
Capa 1
10
103.755000
20
94.727900
11
103.876483
21
95.940070
0
LINE
8
Capa 1
10
103.876483
20
95.940070
11
104.225086
21
97.067734
0
LINE
8
Capa 1
10
104.225086
20
97.067734
11
104.777040
21
98.087124
0
LINE
8
Capa 1
10
104.777040
20
98.087124
11
105.508575
21
98.974470
0
LINE
8
Capa 1
10
105.508575
20
98.974470
11
106.395923
21
99.706004
0
LINE
8
Capa 1
10
106.395923
20
99.706004
11
107.415314
21
100.257956
0
LINE
8
Capa 1
10
107.415314
20
100.257956
11
108.542979
21
100.606557
0
LINE
8
Capa 1
10
108.542979
20
100.606557
11
109.755150
21
100.728040
0
LINE
8
Capa 1
10
109.755150
20
100.728040
11
109.754700
21
100.728000
0
LINE
8
Capa 1
10
10.245000
20
70.570200
11
11.766568
21
70.416801
0
LINE
8
Capa 1
10
11.766568
20
70.416801
11
13.183761
21
69.976871
0
LINE
8
Capa 1
10
13.183761
20
69.976871
11
14.466220
21
69.280769
0
LINE
8
Capa 1
10
14.466220
20
69.280769
11
15.583586
21
68.358856
0
LINE
8
Capa 1
10
15.583586
20
68.358856
11
16.505499
21
67.241490
0
LINE
8
Capa 1
10
16.505499
20
67.241490
11
17.201601
21
65.959031
0
LINE
8
Capa 1
10
17.201601
20
65.959031
11
17.641531
21
64.541838
0
LINE
8
Capa 1
10
17.641531
20
64.541838
11
17.794930
21
63.020270
0
LINE
8
Capa 1
10
17.794930
20
63.020270
11
17.641529
21
61.498704
0
LINE
8
Capa 1
10
17.641529
20
61.498704
11
17.201598
21
60.081512
0
LINE
8
Capa 1
10
17.201598
20
60.081512
11
16.505496
21
58.799054
0
LINE
8
Capa 1
10
16.505496
20
58.799054
11
15.583583
21
57.681690
0
LINE
8
Capa 1
10
15.583583
20
57.681690
11
14.466217
21
56.759779
0
LINE
8
Capa 1
10
14.466217
20
56.759779
11
13.183759
21
56.063678
0
LINE
8
Capa 1
10
13.183759
20
56.063678
11
11.766567
21
55.623749
0
LINE
8
Capa 1
10
11.766567
20
55.623749
11
10.245000
21
55.470350
0
LINE
8
Capa 1
10
10.245000
20
55.470350
11
8.723433
21
55.623749
0
LINE
8
Capa 1
10
8.723433
20
55.623749
11
7.306241
21
56.063678
0
LINE
8
Capa 1
10
7.306241
20
56.063678
11
6.023783
21
56.759779
0
LINE
8
Capa 1
10
6.023783
20
56.759779
11
4.906417
21
57.681690
0
LINE
8
Capa 1
10
4.906417
20
57.681690
11
3.984504
21
58.799054
0
LINE
8
Capa 1
10
3.984504
20
58.799054
11
3.288402
21
60.081512
0
LINE
8
Capa 1
10
3.288402
20
60.081512
11
2.848471
21
61.498704
0
LINE
8
Capa 1
10
2.848471
20
61.498704
11
2.695070
21
63.020270
0
LINE
8
Capa 1
10
2.695070
20
63.020270
11
2.848469
21
64.541838
0
LINE
8
Capa 1
10
2.848469
20
64.541838
11
3.288399
21
65.959031
0
LINE
8
Capa 1
10
3.288399
20
65.959031
11
3.984501
21
67.241490
0
LINE
8
Capa 1
10
3.984501
20
67.241490
11
4.906414
21
68.358856
0
LINE
8
Capa 1
10
4.906414
20
68.358856
11
6.023780
21
69.280769
0
LINE
8
Capa 1
10
6.023780
20
69.280769
11
7.306239
21
69.976871
0
LINE
8
Capa 1
10
7.306239
20
69.976871
11
8.723432
21
70.416801
0
LINE
8
Capa 1
10
8.723432
20
70.416801
11
10.245000
21
70.570200
0
LINE
8
Capa 1
10
10.245000
20
70.570200
11
10.245000
21
70.570200
0
LINE
8
Capa 1
10
35.122600
20
70.570200
11
36.644168
21
70.416801
0
LINE
8
Capa 1
10
36.644168
20
70.416801
11
38.061361
21
69.976871
0
LINE
8
Capa 1
10
38.061361
20
69.976871
11
39.343820
21
69.280769
0
LINE
8
Capa 1
10
39.343820
20
69.280769
11
40.461186
21
68.358856
0
LINE
8
Capa 1
10
40.461186
20
68.358856
11
41.383099
21
67.241490
0
LINE
8
Capa 1
10
41.383099
20
67.241490
11
42.079201
21
65.959031
0
LINE
8
Capa 1
10
42.079201
20
65.959031
11
42.519131
21
64.541838
0
LINE
8
Capa 1
10
42.519131
20
64.541838
11
42.672530
21
63.020270
0
LINE
8
Capa 1
10
42.672530
20
63.020270
11
42.519129
21
61.498704
0
LINE
8
Capa 1
10
42.519129
20
61.498704
11
42.079198
21
60.081512
0
LINE
8
Capa 1
10
42.079198
20
60.081512
11
41.383096
21
58.799054
0
LINE
8
Capa 1
10
41.383096
20
58.799054
11
40.461183
21
57.681690
0
LINE
8
Capa 1
10
40.461183
20
57.681690
11
39.343817
21
56.759779
0
LINE
8
Capa 1
10
39.343817
20
56.759779
11
38.061359
21
56.063678
0
LINE
8
Capa 1
10
38.061359
20
56.063678
11
36.644167
21
55.623749
0
LINE
8
Capa 1
10
36.644167
20
55.623749
11
35.122600
21
55.470350
0
LINE
8
Capa 1
10
35.122600
20
55.470350
11
33.642737
21
55.616684
0
LINE
8
Capa 1
10
33.642737
20
55.616684
11
32.233223
21
56.044926
0
LINE
8
Capa 1
10
32.233223
20
56.044926
11
30.933670
21
56.738669
0
LINE
8
Capa 1
10
30.933670
20
56.738669
11
29.783688
21
57.681510
0
LINE
8
Capa 1
10
29.783688
20
57.681510
11
28.840768
21
58.831428
0
LINE
8
Capa 1
10
28.840768
20
58.831428
11
28.146935
21
60.130933
0
LINE
8
Capa 1
10
28.146935
20
60.130933
11
27.718596
21
61.540417
0
LINE
8
Capa 1
10
27.718596
20
61.540417
11
27.572160
21
63.020270
0
LINE
8
Capa 1
10
27.572160
20
63.020270
11
27.718594
21
64.500125
0
LINE
8
Capa 1
10
27.718594
20
64.500125
11
28.146932
21
65.909610
0
LINE
8
Capa 1
10
28.146932
20
65.909610
11
28.840764
21
67.209117
0
LINE
8
Capa 1
10
28.840764
20
67.209117
11
29.783684
21
68.359037
0
LINE
8
Capa 1
10
29.783684
20
68.359037
11
30.933667
21
69.301879
0
LINE
8
Capa 1
10
30.933667
20
69.301879
11
32.233221
21
69.995623
0
LINE
8
Capa 1
10
32.233221
20
69.995623
11
33.642735
21
70.423865
0
LINE
8
Capa 1
10
33.642735
20
70.423865
11
35.122600
21
70.570200
0
LINE
8
Capa 1
10
35.122600
20
70.570200
11
35.122600
21
70.570200
0
LINE
8
Capa 1
10
59.999600
20
70.570200
11
61.521168
21
70.416801
0
LINE
8
Capa 1
10
61.521168
20
70.416801
11
62.938361
21
69.976871
0
LINE
8
Capa 1
10
62.938361
20
69.976871
11
64.220820
21
69.280769
0
LINE
8
Capa 1
10
64.220820
20
69.280769
11
65.338186
21
68.358856
0
LINE
8
Capa 1
10
65.338186
20
68.358856
11
66.260099
21
67.241490
0
LINE
8
Capa 1
10
66.260099
20
67.241490
11
66.956201
21
65.959031
0
LINE
8
Capa 1
10
66.956201
20
65.959031
11
67.396131
21
64.541838
0
LINE
8
Capa 1
10
67.396131
20
64.541838
11
67.549530
21
63.020270
0
LINE
8
Capa 1
10
67.549530
20
63.020270
11
67.396129
21
61.498704
0
LINE
8
Capa 1
10
67.396129
20
61.498704
11
66.956198
21
60.081512
0
LINE
8
Capa 1
10
66.956198
20
60.081512
11
66.260096
21
58.799054
0
LINE
8
Capa 1
10
66.260096
20
58.799054
11
65.338183
21
57.681690
0
LINE
8
Capa 1
10
65.338183
20
57.681690
11
64.220817
21
56.759779
0
LINE
8
Capa 1
10
64.220817
20
56.759779
11
62.938359
21
56.063678
0
LINE
8
Capa 1
10
62.938359
20
56.063678
11
61.521167
21
55.623749
0
LINE
8
Capa 1
10
61.521167
20
55.623749
11
59.999600
21
55.470350
0
LINE
8
Capa 1
10
59.999600
20
55.470350
11
58.478033
21
55.623749
0
LINE
8
Capa 1
10
58.478033
20
55.623749
11
57.060841
21
56.063678
0
LINE
8
Capa 1
10
57.060841
20
56.063678
11
55.778383
21
56.759779
0
LINE
8
Capa 1
10
55.778383
20
56.759779
11
54.661017
21
57.681690
0
LINE
8
Capa 1
10
54.661017
20
57.681690
11
53.739104
21
58.799054
0
LINE
8
Capa 1
10
53.739104
20
58.799054
11
53.043002
21
60.081512
0
LINE
8
Capa 1
10
53.043002
20
60.081512
11
52.603071
21
61.498704
0
LINE
8
Capa 1
10
52.603071
20
61.498704
11
52.449670
21
63.020270
0
LINE
8
Capa 1
10
52.449670
20
63.020270
11
52.603069
21
64.541838
0
LINE
8
Capa 1
10
52.603069
20
64.541838
11
53.042999
21
65.959031
0
LINE
8
Capa 1
10
53.042999
20
65.959031
11
53.739101
21
67.241490
0
LINE
8
Capa 1
10
53.739101
20
67.241490
11
54.661014
21
68.358856
0
LINE
8
Capa 1
10
54.661014
20
68.358856
11
55.778380
21
69.280769
0
LINE
8
Capa 1
10
55.778380
20
69.280769
11
57.060839
21
69.976871
0
LINE
8
Capa 1
10
57.060839
20
69.976871
11
58.478032
21
70.416801
0
LINE
8
Capa 1
10
58.478032
20
70.416801
11
59.999600
21
70.570200
0
LINE
8
Capa 1
10
59.999600
20
70.570200
11
59.999600
21
70.570200
0
LINE
8
Capa 1
10
84.877100
20
70.570200
11
86.398668
21
70.416801
0
LINE
8
Capa 1
10
86.398668
20
70.416801
11
87.815861
21
69.976871
0
LINE
8
Capa 1
10
87.815861
20
69.976871
11
89.098320
21
69.280769
0
LINE
8
Capa 1
10
89.098320
20
69.280769
11
90.215686
21
68.358856
0
LINE
8
Capa 1
10
90.215686
20
68.358856
11
91.137599
21
67.241490
0
LINE
8
Capa 1
10
91.137599
20
67.241490
11
91.833701
21
65.959031
0
LINE
8
Capa 1
10
91.833701
20
65.959031
11
92.273631
21
64.541838
0
LINE
8
Capa 1
10
92.273631
20
64.541838
11
92.427030
21
63.020270
0
LINE
8
Capa 1
10
92.427030
20
63.020270
11
92.273629
21
61.498704
0
LINE
8
Capa 1
10
92.273629
20
61.498704
11
91.833698
21
60.081512
0
LINE
8
Capa 1
10
91.833698
20
60.081512
11
91.137596
21
58.799054
0
LINE
8
Capa 1
10
91.137596
20
58.799054
11
90.215683
21
57.681690
0
LINE
8
Capa 1
10
90.215683
20
57.681690
11
89.098317
21
56.759779
0
LINE
8
Capa 1
10
89.098317
20
56.759779
11
87.815859
21
56.063678
0
LINE
8
Capa 1
10
87.815859
20
56.063678
11
86.398667
21
55.623749
0
LINE
8
Capa 1
10
86.398667
20
55.623749
11
84.877100
21
55.470350
0
LINE
8
Capa 1
10
84.877100
20
55.470350
11
83.355533
21
55.623749
0
LINE
8
Capa 1
10
83.355533
20
55.623749
11
81.938341
21
56.063678
0
LINE
8
Capa 1
10
81.938341
20
56.063678
11
80.655883
21
56.759779
0
LINE
8
Capa 1
10
80.655883
20
56.759779
11
79.538517
21
57.681690
0
LINE
8
Capa 1
10
79.538517
20
57.681690
11
78.616604
21
58.799054
0
LINE
8
Capa 1
10
78.616604
20
58.799054
11
77.920502
21
60.081512
0
LINE
8
Capa 1
10
77.920502
20
60.081512
11
77.480571
21
61.498704
0
LINE
8
Capa 1
10
77.480571
20
61.498704
11
77.327170
21
63.020270
0
LINE
8
Capa 1
10
77.327170
20
63.020270
11
77.480569
21
64.541838
0
LINE
8
Capa 1
10
77.480569
20
64.541838
11
77.920499
21
65.959031
0
LINE
8
Capa 1
10
77.920499
20
65.959031
11
78.616601
21
67.241490
0
LINE
8
Capa 1
10
78.616601
20
67.241490
11
79.538514
21
68.358856
0
LINE
8
Capa 1
10
79.538514
20
68.358856
11
80.655880
21
69.280769
0
LINE
8
Capa 1
10
80.655880
20
69.280769
11
81.938339
21
69.976871
0
LINE
8
Capa 1
10
81.938339
20
69.976871
11
83.355532
21
70.416801
0
LINE
8
Capa 1
10
83.355532
20
70.416801
11
84.877100
21
70.570200
0
LINE
8
Capa 1
10
84.877100
20
70.570200
11
84.877100
21
70.570200
0
LINE
8
Capa 1
10
109.754600
20
70.570200
11
111.276166
21
70.416799
0
LINE
8
Capa 1
10
111.276166
20
70.416799
11
112.693358
21
69.976868
0
LINE
8
Capa 1
10
112.693358
20
69.976868
11
113.975816
21
69.280766
0
LINE
8
Capa 1
10
113.975816
20
69.280766
11
115.093180
21
68.358853
0
LINE
8
Capa 1
10
115.093180
20
68.358853
11
116.015091
21
67.241487
0
LINE
8
Capa 1
10
116.015091
20
67.241487
11
116.711192
21
65.959029
0
LINE
8
Capa 1
10
116.711192
20
65.959029
11
117.151121
21
64.541837
0
LINE
8
Capa 1
10
117.151121
20
64.541837
11
117.304520
21
63.020270
0
LINE
8
Capa 1
10
117.304520
20
63.020270
11
117.151119
21
61.498705
0
LINE
8
Capa 1
10
117.151119
20
61.498705
11
116.711189
21
60.081514
0
LINE
8
Capa 1
10
116.711189
20
60.081514
11
116.015088
21
58.799058
0
LINE
8
Capa 1
10
116.015088
20
58.799058
11
115.093176
21
57.681694
0
LINE
8
Capa 1
10
115.093176
20
57.681694
11
113.975812
21
56.759782
0
LINE
8
Capa 1
10
113.975812
20
56.759782
11
112.693356
21
56.063681
0
LINE
8
Capa 1
10
112.693356
20
56.063681
11
111.276165
21
55.623751
0
LINE
8
Capa 1
10
111.276165
20
55.623751
11
109.754600
21
55.470350
0
LINE
8
Capa 1
10
109.754600
20
55.470350
11
108.274735
21
55.616683
0
LINE
8
Capa 1
10
108.274735
20
55.616683
11
106.865220
21
56.044923
0
LINE
8
Capa 1
10
106.865220
20
56.044923
11
105.565666
21
56.738666
0
LINE
8
Capa 1
10
105.565666
20
56.738666
11
104.415681
21
57.681506
0
LINE
8
Capa 1
10
104.415681
20
57.681506
11
103.472760
21
58.831425
0
LINE
8
Capa 1
10
103.472760
20
58.831425
11
102.778926
21
60.130931
0
LINE
8
Capa 1
10
102.778926
20
60.130931
11
102.350586
21
61.540415
0
LINE
8
Capa 1
10
102.350586
20
61.540415
11
102.204150
21
63.020270
0
LINE
8
Capa 1
10
102.204150
20
63.020270
11
102.350585
21
64.500126
0
LINE
8
Capa 1
10
102.350585
20
64.500126
11
102.778923
21
65.909612
0
LINE
8
Capa 1
10
102.778923
20
65.909612
11
103.472756
21
67.209120
0
LINE
8
Capa 1
10
103.472756
20
67.209120
11
104.415678
21
68.359040
0
LINE
8
Capa 1
10
104.415678
20
68.359040
11
105.565663
21
69.301882
0
LINE
8
Capa 1
10
105.565663
20
69.301882
11
106.865218
21
69.995626
0
LINE
8
Capa 1
10
106.865218
20
69.995626
11
108.274734
21
70.423867
0
LINE
8
Capa 1
10
108.274734
20
70.423867
11
109.754600
21
70.570200
0
LINE
8
Capa 1
10
109.754600
20
70.570200
11
109.754600
21
70.570200
0
LINE
8
Capa 1
10
25.622300
20
54.651800
11
44.622300
21
54.651700
0
LINE
8
Capa 1
10
44.622300
20
54.651700
11
44.622300
21
35.651900
0
LINE
8
Capa 1
10
44.622300
20
35.651900
11
25.622400
21
35.651900
0
LINE
8
Capa 1
10
25.622400
20
35.651900
11
25.622300
21
54.651800
0
LINE
8
Capa 1
10
50.499900
20
54.651800
11
69.499900
21
54.651700
0
LINE
8
Capa 1
10
69.499900
20
54.651700
11
69.499900
21
35.651900
0
LINE
8
Capa 1
10
69.499900
20
35.651900
11
50.500000
21
35.651900
0
LINE
8
Capa 1
10
50.500000
20
35.651900
11
50.499900
21
54.651800
0
LINE
8
Capa 1
10
75.376900
20
54.651800
11
94.377400
21
54.651700
0
LINE
8
Capa 1
10
94.377400
20
54.651700
11
94.377400
21
35.651900
0
LINE
8
Capa 1
10
94.377400
20
35.651900
11
75.377000
21
35.651900
0
LINE
8
Capa 1
10
75.377000
20
35.651900
11
75.376900
21
54.651800
0
LINE
8
Capa 1
10
100.254400
20
54.651800
11
119.254000
21
54.651700
0
LINE
8
Capa 1
10
119.254000
20
54.651700
11
119.254000
21
35.651900
0
LINE
8
Capa 1
10
119.254000
20
35.651900
11
100.255000
21
35.651900
0
LINE
8
Capa 1
10
100.255000
20
35.651900
11
100.254400
21
54.651800
0
LINE
8
Capa 1
10
0.744700
20
44.600200
11
19.745300
21
44.600200
0
LINE
8
Capa 1
10
19.745300
20
44.600200
11
19.745300
21
25.600300
0
LINE
8
Capa 1
10
19.745300
20
25.600300
11
0.744888
21
25.600300
0
LINE
8
Capa 1
10
0.744888
20
25.600300
11
0.744700
21
44.600200
0
LINE
8
Capa 1
10
100.254400
20
35.048850
11
119.254000
21
35.048800
0
LINE
8
Capa 1
10
119.254000
20
35.048800
11
119.254000
21
16.048400
0
LINE
8
Capa 1
10
119.254000
20
16.048400
11
100.255000
21
16.048400
0
LINE
8
Capa 1
10
100.255000
20
16.048400
11
100.254400
21
35.048850
0
LINE
8
Capa 1
10
25.622300
20
34.548620
11
44.622300
21
34.548600
0
LINE
8
Capa 1
10
44.622300
20
34.548600
11
44.622300
21
15.548700
0
LINE
8
Capa 1
10
44.622300
20
15.548700
11
25.622400
21
15.548700
0
LINE
8
Capa 1
10
25.622400
20
15.548700
11
25.622300
21
34.548620
0
LINE
8
Capa 1
10
50.499900
20
34.548620
11
69.499900
21
34.548600
0
LINE
8
Capa 1
10
69.499900
20
34.548600
11
69.499900
21
15.548700
0
LINE
8
Capa 1
10
69.499900
20
15.548700
11
50.500000
21
15.548700
0
LINE
8
Capa 1
10
50.500000
20
15.548700
11
50.499900
21
34.548620
0
LINE
8
Capa 1
10
75.376900
20
34.548620
11
94.377400
21
34.548600
0
LINE
8
Capa 1
10
94.377400
20
34.548600
11
94.377400
21
15.548700
0
LINE
8
Capa 1
10
94.377400
20
15.548700
11
75.377000
21
15.548700
0
LINE
8
Capa 1
10
75.377000
20
15.548700
11
75.376900
21
34.548620
0
LINE
8
Capa 1
10
22.546500
20
15.734220
11
23.158860
21
15.612358
0
LINE
8
Capa 1
10
23.158860
20
15.612358
11
23.677955
21
15.265407
0
LINE
8
Capa 1
10
23.677955
20
15.265407
11
24.024737
21
14.746199
0
LINE
8
Capa 1
10
24.024737
20
14.746199
11
24.146400
21
14.133800
0
LINE
8
Capa 1
10
24.146400
20
14.133800
11
24.020645
21
13.511064
0
LINE
8
Capa 1
10
24.020645
20
13.511064
11
23.677771
21
13.002529
0
LINE
8
Capa 1
10
23.677771
20
13.002529
11
23.169236
21
12.659655
0
LINE
8
Capa 1
10
23.169236
20
12.659655
11
22.546500
21
12.533900
0
LINE
8
Capa 1
10
22.546500
20
12.533900
11
21.923764
21
12.659655
0
LINE
8
Capa 1
10
21.923764
20
12.659655
11
21.415229
21
13.002529
0
LINE
8
Capa 1
10
21.415229
20
13.002529
11
21.072355
21
13.511064
0
LINE
8
Capa 1
10
21.072355
20
13.511064
11
20.946600
21
14.133800
0
LINE
8
Capa 1
10
20.946600
20
14.133800
11
21.068263
21
14.746199
0
LINE
8
Capa 1
10
21.068263
20
14.746199
11
21.415045
21
15.265407
0
LINE
8
Capa 1
10
21.415045
20
15.265407
11
21.934140
21
15.612358
0
LINE
8
Capa 1
10
21.934140
20
15.612358
11
22.546500
21
15.734220
0
LINE
8
Capa 1
10
22.546500
20
15.734220
11
22.546500
21
15.734220
0
LINE
8
Capa 1
10
97.453000
20
15.734220
11
98.065360
21
15.612358
0
LINE
8
Capa 1
10
98.065360
20
15.612358
11
98.584455
21
15.265407
0
LINE
8
Capa 1
10
98.584455
20
15.265407
11
98.931237
21
14.746199
0
LINE
8
Capa 1
10
98.931237
20
14.746199
11
99.052900
21
14.133800
0
LINE
8
Capa 1
10
99.052900
20
14.133800
11
98.927145
21
13.511064
0
LINE
8
Capa 1
10
98.927145
20
13.511064
11
98.584271
21
13.002529
0
LINE
8
Capa 1
10
98.584271
20
13.002529
11
98.075736
21
12.659655
0
LINE
8
Capa 1
10
98.075736
20
12.659655
11
97.453000
21
12.533900
0
LINE
8
Capa 1
10
97.453000
20
12.533900
11
96.830261
21
12.659652
0
LINE
8
Capa 1
10
96.830261
20
12.659652
11
96.321723
21
13.002526
0
LINE
8
Capa 1
10
96.321723
20
13.002526
11
95.978846
21
13.511062
0
LINE
8
Capa 1
10
95.978846
20
13.511062
11
95.853090
21
14.133800
0
LINE
8
Capa 1
10
95.853090
20
14.133800
11
95.974754
21
14.746202
0
LINE
8
Capa 1
10
95.974754
20
14.746202
11
96.321539
21
15.265411
0
LINE
8
Capa 1
10
96.321539
20
15.265411
11
96.840637
21
15.612361
0
LINE
8
Capa 1
10
96.840637
20
15.612361
11
97.453000
21
15.734220
0
LINE
8
Capa 1
10
97.453000
20
15.734220
11
97.453000
21
15.734220
 0 
ENDSEC
 0 
EOF