999
"DXF R12 Output" (www.mydxf.blogspot.com)
 0 
SECTION
 2 
HEADER
 9 
$ACADVER
 1 
AC1009
 9 
$EXTMIN
 10 
 0 
 20 
 0 
 9 
$EXTMAX
 10 
 8.5 
 20 
 11 
 0 
ENDSEC
 0 
SECTION
 2 
ENTITIES
0
LINE
8
Capa 1
10
0.041615
20
119.958000
11
0.041615
21
0.041650
0
LINE
8
Capa 1
10
0.041615
20
0.041650
11
119.959000
21
0.041650
0
LINE
8
Capa 1
10
119.959000
20
0.041650
11
119.959000
21
119.958000
0
LINE
8
Capa 1
10
119.959000
20
119.958000
11
0.041615
21
119.958000
0
LINE
8
Capa 1
10
4.750375
20
116.600070
11
5.362735
21
116.478208
0
LINE
8
Capa 1
10
5.362735
20
116.478208
11
5.881830
21
116.131257
0
LINE
8
Capa 1
10
5.881830
20
116.131257
11
6.228612
21
115.612049
0
LINE
8
Capa 1
10
6.228612
20
115.612049
11
6.350275
21
114.999650
0
LINE
8
Capa 1
10
6.350275
20
114.999650
11
6.224520
21
114.376914
0
LINE
8
Capa 1
10
6.224520
20
114.376914
11
5.881646
21
113.868379
0
LINE
8
Capa 1
10
5.881646
20
113.868379
11
5.373111
21
113.525505
0
LINE
8
Capa 1
10
5.373111
20
113.525505
11
4.750375
21
113.399750
0
LINE
8
Capa 1
10
4.750375
20
113.399750
11
4.137976
21
113.521413
0
LINE
8
Capa 1
10
4.137976
20
113.521413
11
3.618768
21
113.868195
0
LINE
8
Capa 1
10
3.618768
20
113.868195
11
3.271817
21
114.387290
0
LINE
8
Capa 1
10
3.271817
20
114.387290
11
3.149955
21
114.999650
0
LINE
8
Capa 1
10
3.149955
20
114.999650
11
3.271667
21
115.612170
0
LINE
8
Capa 1
10
3.271667
20
115.612170
11
3.618584
21
116.131441
0
LINE
8
Capa 1
10
3.618584
20
116.131441
11
4.137855
21
116.478358
0
LINE
8
Capa 1
10
4.137855
20
116.478358
11
4.750375
21
116.600070
0
LINE
8
Capa 1
10
4.750375
20
116.600070
11
4.750375
21
116.600070
0
LINE
8
Capa 1
10
115.250375
20
116.600070
11
115.862735
21
116.478208
0
LINE
8
Capa 1
10
115.862735
20
116.478208
11
116.381830
21
116.131257
0
LINE
8
Capa 1
10
116.381830
20
116.131257
11
116.728612
21
115.612049
0
LINE
8
Capa 1
10
116.728612
20
115.612049
11
116.850275
21
114.999650
0
LINE
8
Capa 1
10
116.850275
20
114.999650
11
116.724520
21
114.376914
0
LINE
8
Capa 1
10
116.724520
20
114.376914
11
116.381646
21
113.868379
0
LINE
8
Capa 1
10
116.381646
20
113.868379
11
115.873111
21
113.525505
0
LINE
8
Capa 1
10
115.873111
20
113.525505
11
115.250375
21
113.399750
0
LINE
8
Capa 1
10
115.250375
20
113.399750
11
114.637976
21
113.521413
0
LINE
8
Capa 1
10
114.637976
20
113.521413
11
114.118768
21
113.868195
0
LINE
8
Capa 1
10
114.118768
20
113.868195
11
113.771817
21
114.387290
0
LINE
8
Capa 1
10
113.771817
20
114.387290
11
113.649955
21
114.999650
0
LINE
8
Capa 1
10
113.649955
20
114.999650
11
113.771667
21
115.612170
0
LINE
8
Capa 1
10
113.771667
20
115.612170
11
114.118584
21
116.131441
0
LINE
8
Capa 1
10
114.118584
20
116.131441
11
114.637855
21
116.478358
0
LINE
8
Capa 1
10
114.637855
20
116.478358
11
115.250375
21
116.600070
0
LINE
8
Capa 1
10
115.250375
20
116.600070
11
115.250375
21
116.600070
0
LINE
8
Capa 1
10
22.546975
20
107.466260
11
23.041518
21
107.387660
0
LINE
8
Capa 1
10
23.041518
20
107.387660
11
23.272512
21
107.292060
0
LINE
8
Capa 1
10
23.272512
20
107.292060
11
23.273512
21
107.291540
0
LINE
8
Capa 1
10
23.273512
20
107.291540
11
23.274029
21
107.291030
0
LINE
8
Capa 1
10
23.274029
20
107.291030
11
23.487453
21
107.160280
0
LINE
8
Capa 1
10
23.487453
20
107.160280
11
23.678139
21
106.997500
0
LINE
8
Capa 1
10
23.678139
20
106.997500
11
23.841436
21
106.806300
0
LINE
8
Capa 1
10
23.841436
20
106.806300
11
23.972178
21
106.592880
0
LINE
8
Capa 1
10
23.972178
20
106.592880
11
23.972695
21
106.592360
0
LINE
8
Capa 1
10
23.972695
20
106.592360
11
23.972695
21
106.591840
0
LINE
8
Capa 1
10
23.972695
20
106.591840
11
24.068295
21
106.361880
0
LINE
8
Capa 1
10
24.068295
20
106.361880
11
24.068812
21
106.359880
0
LINE
8
Capa 1
10
24.068812
20
106.359880
11
24.068812
21
106.359360
0
LINE
8
Capa 1
10
24.068812
20
106.359360
11
24.068812
21
106.358840
0
LINE
8
Capa 1
10
24.068812
20
106.358840
11
24.126692
21
106.118550
0
LINE
8
Capa 1
10
24.126692
20
106.118550
11
24.127209
21
106.115550
0
LINE
8
Capa 1
10
24.127209
20
106.115550
11
24.127726
21
106.111550
0
LINE
8
Capa 1
10
24.127726
20
106.111550
11
24.146846
21
105.865060
0
LINE
8
Capa 1
10
24.146846
20
105.865060
11
24.026440
21
105.257860
0
LINE
8
Capa 1
10
24.026440
20
105.257860
11
24.021740
21
105.247860
0
LINE
8
Capa 1
10
24.021740
20
105.247860
11
23.681192
21
104.738330
0
LINE
8
Capa 1
10
23.681192
20
104.738330
11
23.673392
21
104.730330
0
LINE
8
Capa 1
10
23.673392
20
104.730330
11
23.162829
21
104.389260
0
LINE
8
Capa 1
10
23.162829
20
104.389260
11
23.155629
21
104.386260
0
LINE
8
Capa 1
10
23.155629
20
104.386260
11
22.546881
21
104.264810
0
LINE
8
Capa 1
10
22.546881
20
104.264810
11
21.938132
21
104.386260
0
LINE
8
Capa 1
10
21.938132
20
104.386260
11
21.930932
21
104.389260
0
LINE
8
Capa 1
10
21.930932
20
104.389260
11
21.420369
21
104.730330
0
LINE
8
Capa 1
10
21.420369
20
104.730330
11
21.412569
21
104.738330
0
LINE
8
Capa 1
10
21.412569
20
104.738330
11
21.070988
21
105.250440
0
LINE
8
Capa 1
10
21.070988
20
105.250440
11
21.068388
21
105.255440
0
LINE
8
Capa 1
10
21.068388
20
105.255440
11
20.946948
21
105.864710
0
LINE
8
Capa 1
10
20.946948
20
105.864710
11
21.068388
21
106.473970
0
LINE
8
Capa 1
10
21.068388
20
106.473970
11
21.070988
21
106.479970
0
LINE
8
Capa 1
10
21.070988
20
106.479970
11
21.412569
21
106.991560
0
LINE
8
Capa 1
10
21.412569
20
106.991560
11
21.420369
21
106.999560
0
LINE
8
Capa 1
10
21.420369
20
106.999560
11
21.930932
21
107.340620
0
LINE
8
Capa 1
10
21.930932
20
107.340620
11
21.938132
21
107.343620
0
LINE
8
Capa 1
10
21.938132
20
107.343620
11
22.546881
21
107.465060
0
LINE
8
Capa 1
10
22.546881
20
107.465060
11
22.546975
21
107.466260
0
LINE
8
Capa 1
10
97.453475
20
107.466260
11
97.948015
21
107.387660
0
LINE
8
Capa 1
10
97.948015
20
107.387660
11
98.179525
21
107.291560
0
LINE
8
Capa 1
10
98.179525
20
107.291560
11
98.393985
21
107.160300
0
LINE
8
Capa 1
10
98.393985
20
107.160300
11
98.584665
21
106.997520
0
LINE
8
Capa 1
10
98.584665
20
106.997520
11
98.747965
21
106.806320
0
LINE
8
Capa 1
10
98.747965
20
106.806320
11
98.878705
21
106.592900
0
LINE
8
Capa 1
10
98.878705
20
106.592900
11
98.879225
21
106.592380
0
LINE
8
Capa 1
10
98.879225
20
106.592380
11
98.879225
21
106.591860
0
LINE
8
Capa 1
10
98.879225
20
106.591860
11
99.033215
21
106.118510
0
LINE
8
Capa 1
10
99.033215
20
106.118510
11
99.033735
21
106.116510
0
LINE
8
Capa 1
10
99.033735
20
106.116510
11
99.034255
21
106.112510
0
LINE
8
Capa 1
10
99.034255
20
106.112510
11
99.053355
21
105.866010
0
LINE
8
Capa 1
10
99.053355
20
105.866010
11
98.931915
21
105.256740
0
LINE
8
Capa 1
10
98.931915
20
105.256740
11
98.928915
21
105.251740
0
LINE
8
Capa 1
10
98.928915
20
105.251740
11
98.587335
21
104.739630
0
LINE
8
Capa 1
10
98.587335
20
104.739630
11
98.579335
21
104.731630
0
LINE
8
Capa 1
10
98.579335
20
104.731630
11
98.068765
21
104.390570
0
LINE
8
Capa 1
10
98.068765
20
104.390570
11
98.061765
21
104.387570
0
LINE
8
Capa 1
10
98.061765
20
104.387570
11
97.453025
21
104.266130
0
LINE
8
Capa 1
10
97.453025
20
104.266130
11
96.844275
21
104.387570
0
LINE
8
Capa 1
10
96.844275
20
104.387570
11
96.837275
21
104.390570
0
LINE
8
Capa 1
10
96.837275
20
104.390570
11
96.327745
21
104.730600
0
LINE
8
Capa 1
10
96.327745
20
104.730600
11
96.317445
21
104.740900
0
LINE
8
Capa 1
10
96.317445
20
104.740900
11
95.978445
21
105.248880
0
LINE
8
Capa 1
10
95.978445
20
105.248880
11
95.973445
21
105.258880
0
LINE
8
Capa 1
10
95.973445
20
105.258880
11
95.853035
21
105.866080
0
LINE
8
Capa 1
10
95.853035
20
105.866080
11
95.973445
21
106.473280
0
LINE
8
Capa 1
10
95.973445
20
106.473280
11
95.978445
21
106.483580
0
LINE
8
Capa 1
10
95.978445
20
106.483580
11
96.317445
21
106.991560
0
LINE
8
Capa 1
10
96.317445
20
106.991560
11
96.327745
21
107.001860
0
LINE
8
Capa 1
10
96.327745
20
107.001860
11
96.837275
21
107.341890
0
LINE
8
Capa 1
10
96.837275
20
107.341890
11
96.844275
21
107.344890
0
LINE
8
Capa 1
10
96.844275
20
107.344890
11
97.453025
21
107.466330
0
LINE
8
Capa 1
10
97.453025
20
107.466330
11
97.453475
21
107.466260
0
LINE
8
Capa 1
10
10.245375
20
95.727460
11
11.454594
21
95.605583
0
LINE
8
Capa 1
10
11.454594
20
95.605583
11
12.580881
21
95.255978
0
LINE
8
Capa 1
10
12.580881
20
95.255978
11
13.600101
21
94.702774
0
LINE
8
Capa 1
10
13.600101
20
94.702774
11
14.488121
21
93.970101
0
LINE
8
Capa 1
10
14.488121
20
93.970101
11
15.220807
21
93.082089
0
LINE
8
Capa 1
10
15.220807
20
93.082089
11
15.774026
21
92.062867
0
LINE
8
Capa 1
10
15.774026
20
92.062867
11
16.123643
21
90.936564
0
LINE
8
Capa 1
10
16.123643
20
90.936564
11
16.245525
21
89.727310
0
LINE
8
Capa 1
10
16.245525
20
89.727310
11
16.149128
21
88.652438
0
LINE
8
Capa 1
10
16.149128
20
88.652438
11
15.870289
21
87.636219
0
LINE
8
Capa 1
10
15.870289
20
87.636219
11
15.424710
21
86.697229
0
LINE
8
Capa 1
10
15.424710
20
86.697229
11
14.828093
21
85.854045
0
LINE
8
Capa 1
10
14.828093
20
85.854045
11
14.096142
21
85.125241
0
LINE
8
Capa 1
10
14.096142
20
85.125241
11
13.244560
21
84.529394
0
LINE
8
Capa 1
10
13.244560
20
84.529394
11
12.289050
21
84.085078
0
LINE
8
Capa 1
10
12.289050
20
84.085078
11
11.245315
21
83.810870
0
LINE
8
Capa 1
10
11.245315
20
83.810870
11
11.245600
21
84.727400
0
LINE
8
Capa 1
10
11.245600
20
84.727400
11
9.245700
21
84.727400
0
LINE
8
Capa 1
10
9.245700
20
84.727400
11
9.245700
21
83.811200
0
LINE
8
Capa 1
10
9.245700
20
83.811200
11
8.201965
21
84.085408
0
LINE
8
Capa 1
10
8.201965
20
84.085408
11
7.246454
21
84.529724
0
LINE
8
Capa 1
10
7.246454
20
84.529724
11
6.394872
21
85.125571
0
LINE
8
Capa 1
10
6.394872
20
85.125571
11
5.662921
21
85.854375
0
LINE
8
Capa 1
10
5.662921
20
85.854375
11
5.066305
21
86.697559
0
LINE
8
Capa 1
10
5.066305
20
86.697559
11
4.620725
21
87.636549
0
LINE
8
Capa 1
10
4.620725
20
87.636549
11
4.341886
21
88.652767
0
LINE
8
Capa 1
10
4.341886
20
88.652767
11
4.245490
21
89.727640
0
LINE
8
Capa 1
10
4.245490
20
89.727640
11
4.367372
21
90.936894
0
LINE
8
Capa 1
10
4.367372
20
90.936894
11
4.716991
21
92.063197
0
LINE
8
Capa 1
10
4.716991
20
92.063197
11
5.270212
21
93.082419
0
LINE
8
Capa 1
10
5.270212
20
93.082419
11
6.002900
21
93.970431
0
LINE
8
Capa 1
10
6.002900
20
93.970431
11
6.890922
21
94.703104
0
LINE
8
Capa 1
10
6.890922
20
94.703104
11
7.910142
21
95.256308
0
LINE
8
Capa 1
10
7.910142
20
95.256308
11
9.036426
21
95.605913
0
LINE
8
Capa 1
10
9.036426
20
95.605913
11
10.245640
21
95.727790
0
LINE
8
Capa 1
10
10.245640
20
95.727790
11
10.245375
21
95.727460
0
LINE
8
Capa 1
10
35.122975
20
95.727460
11
36.332194
21
95.605583
0
LINE
8
Capa 1
10
36.332194
20
95.605583
11
37.458481
21
95.255978
0
LINE
8
Capa 1
10
37.458481
20
95.255978
11
38.477701
21
94.702774
0
LINE
8
Capa 1
10
38.477701
20
94.702774
11
39.365721
21
93.970101
0
LINE
8
Capa 1
10
39.365721
20
93.970101
11
40.098407
21
93.082089
0
LINE
8
Capa 1
10
40.098407
20
93.082089
11
40.651626
21
92.062867
0
LINE
8
Capa 1
10
40.651626
20
92.062867
11
41.001243
21
90.936564
0
LINE
8
Capa 1
10
41.001243
20
90.936564
11
41.123125
21
89.727310
0
LINE
8
Capa 1
10
41.123125
20
89.727310
11
41.026728
21
88.652438
0
LINE
8
Capa 1
10
41.026728
20
88.652438
11
40.747888
21
87.636219
0
LINE
8
Capa 1
10
40.747888
20
87.636219
11
40.302307
21
86.697229
0
LINE
8
Capa 1
10
40.302307
20
86.697229
11
39.705689
21
85.854045
0
LINE
8
Capa 1
10
39.705689
20
85.854045
11
38.973738
21
85.125241
0
LINE
8
Capa 1
10
38.973738
20
85.125241
11
38.122156
21
84.529394
0
LINE
8
Capa 1
10
38.122156
20
84.529394
11
37.166648
21
84.085078
0
LINE
8
Capa 1
10
37.166648
20
84.085078
11
36.122915
21
83.810870
0
LINE
8
Capa 1
10
36.122915
20
83.810870
11
36.123100
21
84.727400
0
LINE
8
Capa 1
10
36.123100
20
84.727400
11
34.123300
21
84.727400
0
LINE
8
Capa 1
10
34.123300
20
84.727400
11
34.123300
21
83.811200
0
LINE
8
Capa 1
10
34.123300
20
83.811200
11
33.079565
21
84.085408
0
LINE
8
Capa 1
10
33.079565
20
84.085408
11
32.124054
21
84.529724
0
LINE
8
Capa 1
10
32.124054
20
84.529724
11
31.272472
21
85.125571
0
LINE
8
Capa 1
10
31.272472
20
85.125571
11
30.540521
21
85.854375
0
LINE
8
Capa 1
10
30.540521
20
85.854375
11
29.943905
21
86.697559
0
LINE
8
Capa 1
10
29.943905
20
86.697559
11
29.498325
21
87.636549
0
LINE
8
Capa 1
10
29.498325
20
87.636549
11
29.219486
21
88.652767
0
LINE
8
Capa 1
10
29.219486
20
88.652767
11
29.123090
21
89.727640
0
LINE
8
Capa 1
10
29.123090
20
89.727640
11
29.244973
21
90.936894
0
LINE
8
Capa 1
10
29.244973
20
90.936894
11
29.594594
21
92.063197
0
LINE
8
Capa 1
10
29.594594
20
92.063197
11
30.147817
21
93.082419
0
LINE
8
Capa 1
10
30.147817
20
93.082419
11
30.880508
21
93.970431
0
LINE
8
Capa 1
10
30.880508
20
93.970431
11
31.768531
21
94.703104
0
LINE
8
Capa 1
10
31.768531
20
94.703104
11
32.787750
21
95.256308
0
LINE
8
Capa 1
10
32.787750
20
95.256308
11
33.914032
21
95.605913
0
LINE
8
Capa 1
10
33.914032
20
95.605913
11
35.123240
21
95.727790
0
LINE
8
Capa 1
10
35.123240
20
95.727790
11
35.122975
21
95.727460
0
LINE
8
Capa 1
10
59.999975
20
95.727460
11
61.209183
21
95.605583
0
LINE
8
Capa 1
10
61.209183
20
95.605583
11
62.335464
21
95.255978
0
LINE
8
Capa 1
10
62.335464
20
95.255978
11
63.354684
21
94.702774
0
LINE
8
Capa 1
10
63.354684
20
94.702774
11
64.242706
21
93.970101
0
LINE
8
Capa 1
10
64.242706
20
93.970101
11
64.975397
21
93.082089
0
LINE
8
Capa 1
10
64.975397
20
93.082089
11
65.528620
21
92.062867
0
LINE
8
Capa 1
10
65.528620
20
92.062867
11
65.878241
21
90.936564
0
LINE
8
Capa 1
10
65.878241
20
90.936564
11
66.000125
21
89.727310
0
LINE
8
Capa 1
10
66.000125
20
89.727310
11
65.903729
21
88.652438
0
LINE
8
Capa 1
10
65.903729
20
88.652438
11
65.624890
21
87.636219
0
LINE
8
Capa 1
10
65.624890
20
87.636219
11
65.179310
21
86.697229
0
LINE
8
Capa 1
10
65.179310
20
86.697229
11
64.582694
21
85.854045
0
LINE
8
Capa 1
10
64.582694
20
85.854045
11
63.850743
21
85.125241
0
LINE
8
Capa 1
10
63.850743
20
85.125241
11
62.999161
21
84.529394
0
LINE
8
Capa 1
10
62.999161
20
84.529394
11
62.043650
21
84.085078
0
LINE
8
Capa 1
10
62.043650
20
84.085078
11
60.999915
21
83.810870
0
LINE
8
Capa 1
10
60.999915
20
83.810870
11
61.000200
21
84.727400
0
LINE
8
Capa 1
10
61.000200
20
84.727400
11
59.000300
21
84.727400
0
LINE
8
Capa 1
10
59.000300
20
84.727400
11
59.000300
21
83.811200
0
LINE
8
Capa 1
10
59.000300
20
83.811200
11
57.956565
21
84.085408
0
LINE
8
Capa 1
10
57.956565
20
84.085408
11
57.001054
21
84.529724
0
LINE
8
Capa 1
10
57.001054
20
84.529724
11
56.149472
21
85.125571
0
LINE
8
Capa 1
10
56.149472
20
85.125571
11
55.417521
21
85.854375
0
LINE
8
Capa 1
10
55.417521
20
85.854375
11
54.820905
21
86.697559
0
LINE
8
Capa 1
10
54.820905
20
86.697559
11
54.375325
21
87.636549
0
LINE
8
Capa 1
10
54.375325
20
87.636549
11
54.096486
21
88.652767
0
LINE
8
Capa 1
10
54.096486
20
88.652767
11
54.000090
21
89.727640
0
LINE
8
Capa 1
10
54.000090
20
89.727640
11
54.121972
21
90.936894
0
LINE
8
Capa 1
10
54.121972
20
90.936894
11
54.471589
21
92.063197
0
LINE
8
Capa 1
10
54.471589
20
92.063197
11
55.024809
21
93.082419
0
LINE
8
Capa 1
10
55.024809
20
93.082419
11
55.757496
21
93.970431
0
LINE
8
Capa 1
10
55.757496
20
93.970431
11
56.645517
21
94.703104
0
LINE
8
Capa 1
10
56.645517
20
94.703104
11
57.664738
21
95.256308
0
LINE
8
Capa 1
10
57.664738
20
95.256308
11
58.791023
21
95.605913
0
LINE
8
Capa 1
10
58.791023
20
95.605913
11
60.000240
21
95.727790
0
LINE
8
Capa 1
10
60.000240
20
95.727790
11
59.999975
21
95.727460
0
LINE
8
Capa 1
10
84.877475
20
95.727460
11
86.086694
21
95.605583
0
LINE
8
Capa 1
10
86.086694
20
95.605583
11
87.212981
21
95.255978
0
LINE
8
Capa 1
10
87.212981
20
95.255978
11
88.232201
21
94.702774
0
LINE
8
Capa 1
10
88.232201
20
94.702774
11
89.120221
21
93.970101
0
LINE
8
Capa 1
10
89.120221
20
93.970101
11
89.852907
21
93.082089
0
LINE
8
Capa 1
10
89.852907
20
93.082089
11
90.406126
21
92.062867
0
LINE
8
Capa 1
10
90.406126
20
92.062867
11
90.755743
21
90.936564
0
LINE
8
Capa 1
10
90.755743
20
90.936564
11
90.877625
21
89.727310
0
LINE
8
Capa 1
10
90.877625
20
89.727310
11
90.781229
21
88.652438
0
LINE
8
Capa 1
10
90.781229
20
88.652438
11
90.502390
21
87.636219
0
LINE
8
Capa 1
10
90.502390
20
87.636219
11
90.056810
21
86.697229
0
LINE
8
Capa 1
10
90.056810
20
86.697229
11
89.460194
21
85.854045
0
LINE
8
Capa 1
10
89.460194
20
85.854045
11
88.728243
21
85.125241
0
LINE
8
Capa 1
10
88.728243
20
85.125241
11
87.876661
21
84.529394
0
LINE
8
Capa 1
10
87.876661
20
84.529394
11
86.921150
21
84.085078
0
LINE
8
Capa 1
10
86.921150
20
84.085078
11
85.877415
21
83.810870
0
LINE
8
Capa 1
10
85.877415
20
83.810870
11
85.877700
21
84.727400
0
LINE
8
Capa 1
10
85.877700
20
84.727400
11
83.877800
21
84.727400
0
LINE
8
Capa 1
10
83.877800
20
84.727400
11
83.877800
21
83.811200
0
LINE
8
Capa 1
10
83.877800
20
83.811200
11
82.834065
21
84.085408
0
LINE
8
Capa 1
10
82.834065
20
84.085408
11
81.878554
21
84.529724
0
LINE
8
Capa 1
10
81.878554
20
84.529724
11
81.026972
21
85.125571
0
LINE
8
Capa 1
10
81.026972
20
85.125571
11
80.295021
21
85.854375
0
LINE
8
Capa 1
10
80.295021
20
85.854375
11
79.698405
21
86.697559
0
LINE
8
Capa 1
10
79.698405
20
86.697559
11
79.252825
21
87.636549
0
LINE
8
Capa 1
10
79.252825
20
87.636549
11
78.973986
21
88.652767
0
LINE
8
Capa 1
10
78.973986
20
88.652767
11
78.877590
21
89.727640
0
LINE
8
Capa 1
10
78.877590
20
89.727640
11
78.999472
21
90.936894
0
LINE
8
Capa 1
10
78.999472
20
90.936894
11
79.349089
21
92.063197
0
LINE
8
Capa 1
10
79.349089
20
92.063197
11
79.902308
21
93.082419
0
LINE
8
Capa 1
10
79.902308
20
93.082419
11
80.634994
21
93.970431
0
LINE
8
Capa 1
10
80.634994
20
93.970431
11
81.523014
21
94.703104
0
LINE
8
Capa 1
10
81.523014
20
94.703104
11
82.542234
21
95.256308
0
LINE
8
Capa 1
10
82.542234
20
95.256308
11
83.668521
21
95.605913
0
LINE
8
Capa 1
10
83.668521
20
95.605913
11
84.877740
21
95.727790
0
LINE
8
Capa 1
10
84.877740
20
95.727790
11
84.877475
21
95.727460
0
LINE
8
Capa 1
10
109.754975
20
95.727460
11
110.964114
21
95.605583
0
LINE
8
Capa 1
10
110.964114
20
95.605583
11
112.090363
21
95.255978
0
LINE
8
Capa 1
10
112.090363
20
95.255978
11
113.109578
21
94.702774
0
LINE
8
Capa 1
10
113.109578
20
94.702774
11
113.997616
21
93.970101
0
LINE
8
Capa 1
10
113.997616
20
93.970101
11
114.730333
21
93.082089
0
LINE
8
Capa 1
10
114.730333
20
93.082089
11
115.283586
21
92.062867
0
LINE
8
Capa 1
10
115.283586
20
92.062867
11
115.633231
21
90.936564
0
LINE
8
Capa 1
10
115.633231
20
90.936564
11
115.755125
21
89.727310
0
LINE
8
Capa 1
10
115.755125
20
89.727310
11
115.658718
21
88.652438
0
LINE
8
Capa 1
10
115.658718
20
88.652438
11
115.379850
21
87.636219
0
LINE
8
Capa 1
10
115.379850
20
87.636219
11
114.934237
21
86.697229
0
LINE
8
Capa 1
10
114.934237
20
86.697229
11
114.337589
21
85.854045
0
LINE
8
Capa 1
10
114.337589
20
85.854045
11
113.605620
21
85.125241
0
LINE
8
Capa 1
10
113.605620
20
85.125241
11
112.754043
21
84.529394
0
LINE
8
Capa 1
10
112.754043
20
84.529394
11
111.798570
21
84.085078
0
LINE
8
Capa 1
10
111.798570
20
84.085078
11
110.754915
21
83.810870
0
LINE
8
Capa 1
10
110.754915
20
83.810870
11
110.755000
21
84.727400
0
LINE
8
Capa 1
10
110.755000
20
84.727400
11
108.755000
21
84.727400
0
LINE
8
Capa 1
10
108.755000
20
84.727400
11
108.755000
21
83.811200
0
LINE
8
Capa 1
10
108.755000
20
83.811200
11
107.711230
21
84.085408
0
LINE
8
Capa 1
10
107.711230
20
84.085408
11
106.755704
21
84.529724
0
LINE
8
Capa 1
10
106.755704
20
84.529724
11
105.904119
21
85.125571
0
LINE
8
Capa 1
10
105.904119
20
85.125571
11
105.172176
21
85.854375
0
LINE
8
Capa 1
10
105.172176
20
85.854375
11
104.575573
21
86.697559
0
LINE
8
Capa 1
10
104.575573
20
86.697559
11
104.130008
21
87.636549
0
LINE
8
Capa 1
10
104.130008
20
87.636549
11
103.851181
21
88.652767
0
LINE
8
Capa 1
10
103.851181
20
88.652767
11
103.754790
21
89.727640
0
LINE
8
Capa 1
10
103.754790
20
89.727640
11
103.876667
21
90.936894
0
LINE
8
Capa 1
10
103.876667
20
90.936894
11
104.226272
21
92.063197
0
LINE
8
Capa 1
10
104.226272
20
92.063197
11
104.779476
21
93.082419
0
LINE
8
Capa 1
10
104.779476
20
93.082419
11
105.512149
21
93.970431
0
LINE
8
Capa 1
10
105.512149
20
93.970431
11
106.400161
21
94.703104
0
LINE
8
Capa 1
10
106.400161
20
94.703104
11
107.419383
21
95.256308
0
LINE
8
Capa 1
10
107.419383
20
95.256308
11
108.545686
21
95.605913
0
LINE
8
Capa 1
10
108.545686
20
95.605913
11
109.754940
21
95.727790
0
LINE
8
Capa 1
10
109.754940
20
95.727790
11
109.754975
21
95.727460
0
LINE
8
Capa 1
10
10.245275
20
66.319960
11
11.584692
21
66.053549
0
LINE
8
Capa 1
10
11.584692
20
66.053549
11
12.720195
21
65.294837
0
LINE
8
Capa 1
10
12.720195
20
65.294837
11
13.478910
21
64.159336
0
LINE
8
Capa 1
10
13.478910
20
64.159336
11
13.745325
21
62.819920
0
LINE
8
Capa 1
10
13.745325
20
62.819920
11
13.478913
21
61.480501
0
LINE
8
Capa 1
10
13.478913
20
61.480501
11
12.720199
21
60.344996
0
LINE
8
Capa 1
10
12.720199
20
60.344996
11
11.584694
21
59.586282
0
LINE
8
Capa 1
10
11.584694
20
59.586282
11
10.245275
21
59.319870
0
LINE
8
Capa 1
10
10.245275
20
59.319870
11
8.905856
21
59.586282
0
LINE
8
Capa 1
10
8.905856
20
59.586282
11
7.770351
21
60.344996
0
LINE
8
Capa 1
10
7.770351
20
60.344996
11
7.011637
21
61.480501
0
LINE
8
Capa 1
10
7.011637
20
61.480501
11
6.745225
21
62.819920
0
LINE
8
Capa 1
10
6.745225
20
62.819920
11
7.011640
21
64.159336
0
LINE
8
Capa 1
10
7.011640
20
64.159336
11
7.770355
21
65.294837
0
LINE
8
Capa 1
10
7.770355
20
65.294837
11
8.905858
21
66.053549
0
LINE
8
Capa 1
10
8.905858
20
66.053549
11
10.245275
21
66.319960
0
LINE
8
Capa 1
10
10.245275
20
66.319960
11
10.245275
21
66.319960
0
LINE
8
Capa 1
10
35.122875
20
66.319960
11
36.462292
21
66.053549
0
LINE
8
Capa 1
10
36.462292
20
66.053549
11
37.597795
21
65.294837
0
LINE
8
Capa 1
10
37.597795
20
65.294837
11
38.356510
21
64.159336
0
LINE
8
Capa 1
10
38.356510
20
64.159336
11
38.622925
21
62.819920
0
LINE
8
Capa 1
10
38.622925
20
62.819920
11
38.356513
21
61.480501
0
LINE
8
Capa 1
10
38.356513
20
61.480501
11
37.597799
21
60.344996
0
LINE
8
Capa 1
10
37.597799
20
60.344996
11
36.462294
21
59.586282
0
LINE
8
Capa 1
10
36.462294
20
59.586282
11
35.122875
21
59.319870
0
LINE
8
Capa 1
10
35.122875
20
59.319870
11
33.783459
21
59.586285
0
LINE
8
Capa 1
10
33.783459
20
59.586285
11
32.647958
21
60.345000
0
LINE
8
Capa 1
10
32.647958
20
60.345000
11
31.889246
21
61.480503
0
LINE
8
Capa 1
10
31.889246
20
61.480503
11
31.622835
21
62.819920
0
LINE
8
Capa 1
10
31.622835
20
62.819920
11
31.889249
21
64.159334
0
LINE
8
Capa 1
10
31.889249
20
64.159334
11
32.647961
21
65.294834
0
LINE
8
Capa 1
10
32.647961
20
65.294834
11
33.783461
21
66.053546
0
LINE
8
Capa 1
10
33.783461
20
66.053546
11
35.122875
21
66.319960
0
LINE
8
Capa 1
10
35.122875
20
66.319960
11
35.122875
21
66.319960
0
LINE
8
Capa 1
10
59.999875
20
66.319960
11
61.339289
21
66.053546
0
LINE
8
Capa 1
10
61.339289
20
66.053546
11
62.474789
21
65.294834
0
LINE
8
Capa 1
10
62.474789
20
65.294834
11
63.233501
21
64.159334
0
LINE
8
Capa 1
10
63.233501
20
64.159334
11
63.499915
21
62.819920
0
LINE
8
Capa 1
10
63.499915
20
62.819920
11
63.233504
21
61.480503
0
LINE
8
Capa 1
10
63.233504
20
61.480503
11
62.474792
21
60.345000
0
LINE
8
Capa 1
10
62.474792
20
60.345000
11
61.339291
21
59.586285
0
LINE
8
Capa 1
10
61.339291
20
59.586285
11
59.999875
21
59.319870
0
LINE
8
Capa 1
10
59.999875
20
59.319870
11
58.660456
21
59.586282
0
LINE
8
Capa 1
10
58.660456
20
59.586282
11
57.524951
21
60.344996
0
LINE
8
Capa 1
10
57.524951
20
60.344996
11
56.766237
21
61.480501
0
LINE
8
Capa 1
10
56.766237
20
61.480501
11
56.499825
21
62.819920
0
LINE
8
Capa 1
10
56.499825
20
62.819920
11
56.766240
21
64.159336
0
LINE
8
Capa 1
10
56.766240
20
64.159336
11
57.524955
21
65.294837
0
LINE
8
Capa 1
10
57.524955
20
65.294837
11
58.660458
21
66.053549
0
LINE
8
Capa 1
10
58.660458
20
66.053549
11
59.999875
21
66.319960
0
LINE
8
Capa 1
10
59.999875
20
66.319960
11
59.999875
21
66.319960
0
LINE
8
Capa 1
10
84.877375
20
66.319960
11
86.216789
21
66.053546
0
LINE
8
Capa 1
10
86.216789
20
66.053546
11
87.352289
21
65.294834
0
LINE
8
Capa 1
10
87.352289
20
65.294834
11
88.111001
21
64.159334
0
LINE
8
Capa 1
10
88.111001
20
64.159334
11
88.377415
21
62.819920
0
LINE
8
Capa 1
10
88.377415
20
62.819920
11
88.111004
21
61.480503
0
LINE
8
Capa 1
10
88.111004
20
61.480503
11
87.352292
21
60.345000
0
LINE
8
Capa 1
10
87.352292
20
60.345000
11
86.216791
21
59.586285
0
LINE
8
Capa 1
10
86.216791
20
59.586285
11
84.877375
21
59.319870
0
LINE
8
Capa 1
10
84.877375
20
59.319870
11
83.537959
21
59.586285
0
LINE
8
Capa 1
10
83.537959
20
59.586285
11
82.402458
21
60.345000
0
LINE
8
Capa 1
10
82.402458
20
60.345000
11
81.643746
21
61.480503
0
LINE
8
Capa 1
10
81.643746
20
61.480503
11
81.377335
21
62.819920
0
LINE
8
Capa 1
10
81.377335
20
62.819920
11
81.643749
21
64.159334
0
LINE
8
Capa 1
10
81.643749
20
64.159334
11
82.402461
21
65.294834
0
LINE
8
Capa 1
10
82.402461
20
65.294834
11
83.537961
21
66.053546
0
LINE
8
Capa 1
10
83.537961
20
66.053546
11
84.877375
21
66.319960
0
LINE
8
Capa 1
10
84.877375
20
66.319960
11
84.877375
21
66.319960
0
LINE
8
Capa 1
10
109.754875
20
66.319960
11
111.094289
21
66.053546
0
LINE
8
Capa 1
10
111.094289
20
66.053546
11
112.229789
21
65.294834
0
LINE
8
Capa 1
10
112.229789
20
65.294834
11
112.988501
21
64.159334
0
LINE
8
Capa 1
10
112.988501
20
64.159334
11
113.254915
21
62.819920
0
LINE
8
Capa 1
10
113.254915
20
62.819920
11
112.988504
21
61.480503
0
LINE
8
Capa 1
10
112.988504
20
61.480503
11
112.229792
21
60.345000
0
LINE
8
Capa 1
10
112.229792
20
60.345000
11
111.094291
21
59.586285
0
LINE
8
Capa 1
10
111.094291
20
59.586285
11
109.754875
21
59.319870
0
LINE
8
Capa 1
10
109.754875
20
59.319870
11
108.415456
21
59.586282
0
LINE
8
Capa 1
10
108.415456
20
59.586282
11
107.279951
21
60.344996
0
LINE
8
Capa 1
10
107.279951
20
60.344996
11
106.521237
21
61.480501
0
LINE
8
Capa 1
10
106.521237
20
61.480501
11
106.254825
21
62.819920
0
LINE
8
Capa 1
10
106.254825
20
62.819920
11
106.521240
21
64.159336
0
LINE
8
Capa 1
10
106.521240
20
64.159336
11
107.279955
21
65.294837
0
LINE
8
Capa 1
10
107.279955
20
65.294837
11
108.415458
21
66.053549
0
LINE
8
Capa 1
10
108.415458
20
66.053549
11
109.754875
21
66.319960
0
LINE
8
Capa 1
10
109.754875
20
66.319960
11
109.754875
21
66.319960
0
LINE
8
Capa 1
10
9.244875
20
57.019760
11
11.245600
21
57.020100
0
LINE
8
Capa 1
10
11.245600
20
57.020100
11
11.245600
21
56.020100
0
LINE
8
Capa 1
10
11.245600
20
56.020100
11
9.245700
21
56.020100
0
LINE
8
Capa 1
10
9.245700
20
56.020100
11
9.244875
21
57.019760
0
LINE
8
Capa 1
10
34.121875
20
57.019760
11
36.123100
21
57.020100
0
LINE
8
Capa 1
10
36.123100
20
57.020100
11
36.123100
21
56.020100
0
LINE
8
Capa 1
10
36.123100
20
56.020100
11
34.122700
21
56.020100
0
LINE
8
Capa 1
10
34.122700
20
56.020100
11
34.121875
21
57.019760
0
LINE
8
Capa 1
10
58.999475
20
57.019760
11
61.000200
21
57.020100
0
LINE
8
Capa 1
10
61.000200
20
57.020100
11
61.000200
21
56.020100
0
LINE
8
Capa 1
10
61.000200
20
56.020100
11
59.000300
21
56.020100
0
LINE
8
Capa 1
10
59.000300
20
56.020100
11
58.999475
21
57.019760
0
LINE
8
Capa 1
10
83.876975
20
57.019760
11
85.877700
21
57.020100
0
LINE
8
Capa 1
10
85.877700
20
57.020100
11
85.877700
21
56.020100
0
LINE
8
Capa 1
10
85.877700
20
56.020100
11
83.877800
21
56.020100
0
LINE
8
Capa 1
10
83.877800
20
56.020100
11
83.876975
21
57.019760
0
LINE
8
Capa 1
10
108.754475
20
57.019760
11
110.755000
21
57.020100
0
LINE
8
Capa 1
10
110.755000
20
57.020100
11
110.755000
21
56.020100
0
LINE
8
Capa 1
10
110.755000
20
56.020100
11
108.755000
21
56.020100
0
LINE
8
Capa 1
10
108.755000
20
56.020100
11
108.754475
21
57.019760
0
LINE
8
Capa 1
10
28.122175
20
52.151330
11
42.122800
21
52.151700
0
LINE
8
Capa 1
10
42.122800
20
52.151700
11
42.122800
21
38.152000
0
LINE
8
Capa 1
10
42.122800
20
38.152000
11
28.123100
21
38.152000
0
LINE
8
Capa 1
10
28.123100
20
38.152000
11
28.122175
21
52.151330
0
LINE
8
Capa 1
10
52.999175
20
52.151330
11
67.000300
21
52.151700
0
LINE
8
Capa 1
10
67.000300
20
52.151700
11
67.000300
21
38.152000
0
LINE
8
Capa 1
10
67.000300
20
38.152000
11
53.000100
21
38.152000
0
LINE
8
Capa 1
10
53.000100
20
38.152000
11
52.999175
21
52.151330
0
LINE
8
Capa 1
10
77.876775
20
52.151330
11
91.877900
21
52.151700
0
LINE
8
Capa 1
10
91.877900
20
52.151700
11
91.877900
21
38.152000
0
LINE
8
Capa 1
10
91.877900
20
38.152000
11
77.877700
21
38.152000
0
LINE
8
Capa 1
10
77.877700
20
38.152000
11
77.876775
21
52.151330
0
LINE
8
Capa 1
10
102.754275
20
52.151330
11
116.755000
21
52.151700
0
LINE
8
Capa 1
10
116.755000
20
52.151700
11
116.755000
21
38.152000
0
LINE
8
Capa 1
10
116.755000
20
38.152000
11
102.755000
21
38.152000
0
LINE
8
Capa 1
10
102.755000
20
38.152000
11
102.754275
21
52.151330
0
LINE
8
Capa 1
10
3.245550
20
42.100100
11
17.245700
21
42.100100
0
LINE
8
Capa 1
10
17.245700
20
42.100100
11
17.245700
21
28.100400
0
LINE
8
Capa 1
10
17.245700
20
28.100400
11
3.245550
21
28.100400
0
LINE
8
Capa 1
10
3.245550
20
28.100400
11
3.245550
21
42.100100
0
LINE
8
Capa 1
10
28.123150
20
32.048500
11
42.122800
21
32.048500
0
LINE
8
Capa 1
10
42.122800
20
32.048500
11
42.122800
21
18.048800
0
LINE
8
Capa 1
10
42.122800
20
18.048800
11
28.123100
21
18.048800
0
LINE
8
Capa 1
10
28.123100
20
18.048800
11
28.123150
21
32.048500
0
LINE
8
Capa 1
10
53.000150
20
32.048500
11
67.000300
21
32.048500
0
LINE
8
Capa 1
10
67.000300
20
32.048500
11
67.000300
21
18.048800
0
LINE
8
Capa 1
10
67.000300
20
18.048800
11
53.000100
21
18.048800
0
LINE
8
Capa 1
10
53.000100
20
18.048800
11
53.000150
21
32.048500
0
LINE
8
Capa 1
10
77.877750
20
32.048500
11
91.877900
21
32.048500
0
LINE
8
Capa 1
10
91.877900
20
32.048500
11
91.877900
21
18.048800
0
LINE
8
Capa 1
10
91.877900
20
18.048800
11
77.877700
21
18.048800
0
LINE
8
Capa 1
10
77.877700
20
18.048800
11
77.877750
21
32.048500
0
LINE
8
Capa 1
10
102.755250
20
32.048500
11
116.755000
21
32.048500
0
LINE
8
Capa 1
10
116.755000
20
32.048500
11
116.755000
21
18.048800
0
LINE
8
Capa 1
10
116.755000
20
18.048800
11
102.755000
21
18.048800
0
LINE
8
Capa 1
10
102.755000
20
18.048800
11
102.755250
21
32.048500
0
LINE
8
Capa 1
10
22.547250
20
15.734200
11
22.793746
21
15.715100
0
LINE
8
Capa 1
10
22.793746
20
15.715100
11
22.797846
21
15.714590
0
LINE
8
Capa 1
10
22.797846
20
15.714590
11
22.799946
21
15.714070
0
LINE
8
Capa 1
10
22.799946
20
15.714070
11
23.041792
21
15.655670
0
LINE
8
Capa 1
10
23.041792
20
15.655670
11
23.272786
21
15.560070
0
LINE
8
Capa 1
10
23.272786
20
15.560070
11
23.273786
21
15.559560
0
LINE
8
Capa 1
10
23.273786
20
15.559560
11
23.274303
21
15.559040
0
LINE
8
Capa 1
10
23.274303
20
15.559040
11
23.487727
21
15.428300
0
LINE
8
Capa 1
10
23.487727
20
15.428300
11
23.678413
21
15.265520
0
LINE
8
Capa 1
10
23.678413
20
15.265520
11
23.841710
21
15.074310
0
LINE
8
Capa 1
10
23.841710
20
15.074310
11
23.972452
21
14.860890
0
LINE
8
Capa 1
10
23.972452
20
14.860890
11
23.972969
21
14.860370
0
LINE
8
Capa 1
10
23.972969
20
14.860370
11
23.972969
21
14.859860
0
LINE
8
Capa 1
10
23.972969
20
14.859860
11
24.068569
21
14.629890
0
LINE
8
Capa 1
10
24.068569
20
14.629890
11
24.069086
21
14.627890
0
LINE
8
Capa 1
10
24.069086
20
14.627890
11
24.069086
21
14.627370
0
LINE
8
Capa 1
10
24.069086
20
14.627370
11
24.069086
21
14.626860
0
LINE
8
Capa 1
10
24.069086
20
14.626860
11
24.126966
21
14.386560
0
LINE
8
Capa 1
10
24.126966
20
14.386560
11
24.127483
21
14.383560
0
LINE
8
Capa 1
10
24.127483
20
14.383560
11
24.128000
21
14.379560
0
LINE
8
Capa 1
10
24.128000
20
14.379560
11
24.147120
21
14.133070
0
LINE
8
Capa 1
10
24.147120
20
14.133070
11
24.026714
21
13.525880
0
LINE
8
Capa 1
10
24.026714
20
13.525880
11
24.022014
21
13.515580
0
LINE
8
Capa 1
10
24.022014
20
13.515580
11
23.681466
21
13.006050
0
LINE
8
Capa 1
10
23.681466
20
13.006050
11
23.673666
21
12.998050
0
LINE
8
Capa 1
10
23.673666
20
12.998050
11
23.163103
21
12.656990
0
LINE
8
Capa 1
10
23.163103
20
12.656990
11
23.155903
21
12.653990
0
LINE
8
Capa 1
10
23.155903
20
12.653990
11
22.547155
21
12.532550
0
LINE
8
Capa 1
10
22.547155
20
12.532550
11
21.938406
21
12.653990
0
LINE
8
Capa 1
10
21.938406
20
12.653990
11
21.931206
21
12.656990
0
LINE
8
Capa 1
10
21.931206
20
12.656990
11
21.420643
21
12.998050
0
LINE
8
Capa 1
10
21.420643
20
12.998050
11
21.412843
21
13.006050
0
LINE
8
Capa 1
10
21.412843
20
13.006050
11
21.071262
21
13.518170
0
LINE
8
Capa 1
10
21.071262
20
13.518170
11
21.068662
21
13.523170
0
LINE
8
Capa 1
10
21.068662
20
13.523170
11
20.947222
21
14.132430
0
LINE
8
Capa 1
10
20.947222
20
14.132430
11
21.068662
21
14.741700
0
LINE
8
Capa 1
10
21.068662
20
14.741700
11
21.071262
21
14.747700
0
LINE
8
Capa 1
10
21.071262
20
14.747700
11
21.412843
21
15.259290
0
LINE
8
Capa 1
10
21.412843
20
15.259290
11
21.420643
21
15.267290
0
LINE
8
Capa 1
10
21.420643
20
15.267290
11
21.931206
21
15.608360
0
LINE
8
Capa 1
10
21.931206
20
15.608360
11
21.938406
21
15.611360
0
LINE
8
Capa 1
10
21.938406
20
15.611360
11
22.547155
21
15.732800
0
LINE
8
Capa 1
10
22.547155
20
15.732800
11
22.547250
21
15.734200
0
LINE
8
Capa 1
10
97.453750
20
15.734200
11
97.700240
21
15.715100
0
LINE
8
Capa 1
10
97.700240
20
15.715100
11
97.704240
21
15.714590
0
LINE
8
Capa 1
10
97.704240
20
15.714590
11
97.705240
21
15.714070
0
LINE
8
Capa 1
10
97.705240
20
15.714070
11
97.948640
21
15.655670
0
LINE
8
Capa 1
10
97.948640
20
15.655670
11
98.180150
21
15.559570
0
LINE
8
Capa 1
10
98.180150
20
15.559570
11
98.394610
21
15.428310
0
LINE
8
Capa 1
10
98.394610
20
15.428310
11
98.585290
21
15.265530
0
LINE
8
Capa 1
10
98.585290
20
15.265530
11
98.748590
21
15.074320
0
LINE
8
Capa 1
10
98.748590
20
15.074320
11
98.879330
21
14.860900
0
LINE
8
Capa 1
10
98.879330
20
14.860900
11
98.879850
21
14.860380
0
LINE
8
Capa 1
10
98.879850
20
14.860380
11
98.879850
21
14.859870
0
LINE
8
Capa 1
10
98.879850
20
14.859870
11
99.033840
21
14.386510
0
LINE
8
Capa 1
10
99.033840
20
14.386510
11
99.034360
21
14.384510
0
LINE
8
Capa 1
10
99.034360
20
14.384510
11
99.034880
21
14.380510
0
LINE
8
Capa 1
10
99.034880
20
14.380510
11
99.053980
21
14.134010
0
LINE
8
Capa 1
10
99.053980
20
14.134010
11
98.932540
21
13.524750
0
LINE
8
Capa 1
10
98.932540
20
13.524750
11
98.929540
21
13.519750
0
LINE
8
Capa 1
10
98.929540
20
13.519750
11
98.587960
21
13.007630
0
LINE
8
Capa 1
10
98.587960
20
13.007630
11
98.579960
21
12.999630
0
LINE
8
Capa 1
10
98.579960
20
12.999630
11
98.069390
21
12.658560
0
LINE
8
Capa 1
10
98.069390
20
12.658560
11
98.062390
21
12.655560
0
LINE
8
Capa 1
10
98.062390
20
12.655560
11
97.453640
21
12.534120
0
LINE
8
Capa 1
10
97.453640
20
12.534120
11
96.844900
21
12.655560
0
LINE
8
Capa 1
10
96.844900
20
12.655560
11
96.837900
21
12.658560
0
LINE
8
Capa 1
10
96.837900
20
12.658560
11
96.328370
21
12.998590
0
LINE
8
Capa 1
10
96.328370
20
12.998590
11
96.318070
21
13.008890
0
LINE
8
Capa 1
10
96.318070
20
13.008890
11
95.979070
21
13.516870
0
LINE
8
Capa 1
10
95.979070
20
13.516870
11
95.974070
21
13.527170
0
LINE
8
Capa 1
10
95.974070
20
13.527170
11
95.853660
21
14.134370
0
LINE
8
Capa 1
10
95.853660
20
14.134370
11
95.974070
21
14.741570
0
LINE
8
Capa 1
10
95.974070
20
14.741570
11
95.979070
21
14.751570
0
LINE
8
Capa 1
10
95.979070
20
14.751570
11
96.318070
21
15.259550
0
LINE
8
Capa 1
10
96.318070
20
15.259550
11
96.328370
21
15.269850
0
LINE
8
Capa 1
10
96.328370
20
15.269850
11
96.837900
21
15.609880
0
LINE
8
Capa 1
10
96.837900
20
15.609880
11
96.844900
21
15.612880
0
LINE
8
Capa 1
10
96.844900
20
15.612880
11
97.453640
21
15.734320
0
LINE
8
Capa 1
10
97.453640
20
15.734320
11
97.453750
21
15.734200
0
LINE
8
Capa 1
10
4.750350
20
6.600380
11
5.373086
21
6.474625
0
LINE
8
Capa 1
10
5.373086
20
6.474625
11
5.881621
21
6.131751
0
LINE
8
Capa 1
10
5.881621
20
6.131751
11
6.224495
21
5.623216
0
LINE
8
Capa 1
10
6.224495
20
5.623216
11
6.350250
21
5.000480
0
LINE
8
Capa 1
10
6.350250
20
5.000480
11
6.228585
21
4.388084
0
LINE
8
Capa 1
10
6.228585
20
4.388084
11
5.881801
21
3.868879
0
LINE
8
Capa 1
10
5.881801
20
3.868879
11
5.362707
21
3.521931
0
LINE
8
Capa 1
10
5.362707
20
3.521931
11
4.750350
21
3.400070
0
LINE
8
Capa 1
10
4.750350
20
3.400070
11
4.137833
21
3.521781
0
LINE
8
Capa 1
10
4.137833
20
3.521781
11
3.618563
21
3.868696
0
LINE
8
Capa 1
10
3.618563
20
3.868696
11
3.271645
21
4.387964
0
LINE
8
Capa 1
10
3.271645
20
4.387964
11
3.149930
21
5.000480
0
LINE
8
Capa 1
10
3.149930
20
5.000480
11
3.271792
21
5.612840
0
LINE
8
Capa 1
10
3.271792
20
5.612840
11
3.618743
21
6.131935
0
LINE
8
Capa 1
10
3.618743
20
6.131935
11
4.137951
21
6.478717
0
LINE
8
Capa 1
10
4.137951
20
6.478717
11
4.750350
21
6.600380
0
LINE
8
Capa 1
10
4.750350
20
6.600380
11
4.750350
21
6.600380
0
LINE
8
Capa 1
10
115.250350
20
6.600380
11
115.862710
21
6.478518
0
LINE
8
Capa 1
10
115.862710
20
6.478518
11
116.381805
21
6.131567
0
LINE
8
Capa 1
10
116.381805
20
6.131567
11
116.728587
21
5.612359
0
LINE
8
Capa 1
10
116.728587
20
5.612359
11
116.850250
21
4.999960
0
LINE
8
Capa 1
10
116.850250
20
4.999960
11
116.724493
21
4.377227
0
LINE
8
Capa 1
10
116.724493
20
4.377227
11
116.381617
21
3.868696
0
LINE
8
Capa 1
10
116.381617
20
3.868696
11
115.873083
21
3.525824
0
LINE
8
Capa 1
10
115.873083
20
3.525824
11
115.250350
21
3.400070
0
LINE
8
Capa 1
10
115.250350
20
3.400070
11
114.637953
21
3.521732
0
LINE
8
Capa 1
10
114.637953
20
3.521732
11
114.118747
21
3.868512
0
LINE
8
Capa 1
10
114.118747
20
3.868512
11
113.771794
21
4.387603
0
LINE
8
Capa 1
10
113.771794
20
4.387603
11
113.649930
21
4.999960
0
LINE
8
Capa 1
10
113.649930
20
4.999960
11
113.771642
21
5.612480
0
LINE
8
Capa 1
10
113.771642
20
5.612480
11
114.118559
21
6.131751
0
LINE
8
Capa 1
10
114.118559
20
6.131751
11
114.637830
21
6.478668
0
LINE
8
Capa 1
10
114.637830
20
6.478668
11
115.250350
21
6.600380
0
LINE
8
Capa 1
10
115.250350
20
6.600380
11
115.250350
21
6.600380
 0 
ENDSEC
 0 
EOF