999
"DXF R12 Output" (www.mydxf.blogspot.com)
 0 
SECTION
 2 
HEADER
 9 
$ACADVER
 1 
AC1009
 9 
$EXTMIN
 10 
 0 
 20 
 0 
 9 
$EXTMAX
 10 
 8.5 
 20 
 11 
 0 
ENDSEC
 0 
SECTION
 2 
ENTITIES
0
LINE
8
Capa 1
10
0.041470
20
97.958600
11
0.041470
21
0.041547
0
LINE
8
Capa 1
10
0.041470
20
0.041547
11
119.959000
21
0.041547
0
LINE
8
Capa 1
10
119.959000
20
0.041547
11
119.959000
21
97.958600
0
LINE
8
Capa 1
10
119.959000
20
97.958600
11
0.041470
21
97.958600
0
LINE
8
Capa 1
10
22.546570
20
96.466700
11
23.158933
21
96.344841
0
LINE
8
Capa 1
10
23.158933
20
96.344841
11
23.678031
21
95.997891
0
LINE
8
Capa 1
10
23.678031
20
95.997891
11
24.024816
21
95.478682
0
LINE
8
Capa 1
10
24.024816
20
95.478682
11
24.146480
21
94.866280
0
LINE
8
Capa 1
10
24.146480
20
94.866280
11
24.020724
21
94.243542
0
LINE
8
Capa 1
10
24.020724
20
94.243542
11
23.677847
21
93.735006
0
LINE
8
Capa 1
10
23.677847
20
93.735006
11
23.169309
21
93.392132
0
LINE
8
Capa 1
10
23.169309
20
93.392132
11
22.546570
21
93.266380
0
LINE
8
Capa 1
10
22.546570
20
93.266380
11
21.923834
21
93.392135
0
LINE
8
Capa 1
10
21.923834
20
93.392135
11
21.415299
21
93.735009
0
LINE
8
Capa 1
10
21.415299
20
93.735009
11
21.072425
21
94.243544
0
LINE
8
Capa 1
10
21.072425
20
94.243544
11
20.946670
21
94.866280
0
LINE
8
Capa 1
10
20.946670
20
94.866280
11
21.068333
21
95.478679
0
LINE
8
Capa 1
10
21.068333
20
95.478679
11
21.415115
21
95.997887
0
LINE
8
Capa 1
10
21.415115
20
95.997887
11
21.934210
21
96.344838
0
LINE
8
Capa 1
10
21.934210
20
96.344838
11
22.546570
21
96.466700
0
LINE
8
Capa 1
10
22.546570
20
96.466700
11
22.546570
21
96.466700
0
LINE
8
Capa 1
10
97.453070
20
96.466700
11
98.065430
21
96.344838
0
LINE
8
Capa 1
10
98.065430
20
96.344838
11
98.584525
21
95.997887
0
LINE
8
Capa 1
10
98.584525
20
95.997887
11
98.931307
21
95.478679
0
LINE
8
Capa 1
10
98.931307
20
95.478679
11
99.052970
21
94.866280
0
LINE
8
Capa 1
10
99.052970
20
94.866280
11
98.927215
21
94.243544
0
LINE
8
Capa 1
10
98.927215
20
94.243544
11
98.584341
21
93.735009
0
LINE
8
Capa 1
10
98.584341
20
93.735009
11
98.075806
21
93.392135
0
LINE
8
Capa 1
10
98.075806
20
93.392135
11
97.453070
21
93.266380
0
LINE
8
Capa 1
10
97.453070
20
93.266380
11
96.830334
21
93.392135
0
LINE
8
Capa 1
10
96.830334
20
93.392135
11
96.321799
21
93.735009
0
LINE
8
Capa 1
10
96.321799
20
93.735009
11
95.978925
21
94.243544
0
LINE
8
Capa 1
10
95.978925
20
94.243544
11
95.853170
21
94.866280
0
LINE
8
Capa 1
10
95.853170
20
94.866280
11
95.974833
21
95.478679
0
LINE
8
Capa 1
10
95.974833
20
95.478679
11
96.321615
21
95.997887
0
LINE
8
Capa 1
10
96.321615
20
95.997887
11
96.840710
21
96.344838
0
LINE
8
Capa 1
10
96.840710
20
96.344838
11
97.453070
21
96.466700
0
LINE
8
Capa 1
10
97.453070
20
96.466700
11
97.453070
21
96.466700
0
LINE
8
Capa 1
10
60.000070
20
94.089580
11
60.612429
21
93.970158
0
LINE
8
Capa 1
10
60.612429
20
93.970158
11
61.131524
21
93.630153
0
LINE
8
Capa 1
10
61.131524
20
93.630153
11
61.478307
21
93.121339
0
LINE
8
Capa 1
10
61.478307
20
93.121339
11
61.599970
21
92.521200
0
LINE
8
Capa 1
10
61.599970
20
92.521200
11
61.474212
21
91.910934
0
LINE
8
Capa 1
10
61.474212
20
91.910934
11
61.131337
21
91.412584
0
LINE
8
Capa 1
10
61.131337
20
91.412584
11
60.622803
21
91.076576
0
LINE
8
Capa 1
10
60.622803
20
91.076576
11
60.000070
21
90.953340
0
LINE
8
Capa 1
10
60.000070
20
90.953340
11
59.377337
21
91.076576
0
LINE
8
Capa 1
10
59.377337
20
91.076576
11
58.868803
21
91.412584
0
LINE
8
Capa 1
10
58.868803
20
91.412584
11
58.525928
21
91.910934
0
LINE
8
Capa 1
10
58.525928
20
91.910934
11
58.400170
21
92.521200
0
LINE
8
Capa 1
10
58.400170
20
92.521200
11
58.521833
21
93.121339
0
LINE
8
Capa 1
10
58.521833
20
93.121339
11
58.868616
21
93.630153
0
LINE
8
Capa 1
10
58.868616
20
93.630153
11
59.387711
21
93.970158
0
LINE
8
Capa 1
10
59.387711
20
93.970158
11
60.000070
21
94.089580
0
LINE
8
Capa 1
10
60.000070
20
94.089580
11
60.000070
21
94.089580
0
LINE
8
Capa 1
10
60.000070
20
7.047380
11
60.612429
21
6.927958
0
LINE
8
Capa 1
10
60.612429
20
6.927958
11
61.131524
21
6.587953
0
LINE
8
Capa 1
10
61.131524
20
6.587953
11
61.478307
21
6.079139
0
LINE
8
Capa 1
10
61.478307
20
6.079139
11
61.599970
21
5.479000
0
LINE
8
Capa 1
10
61.599970
20
5.479000
11
61.474212
21
4.868734
0
LINE
8
Capa 1
10
61.474212
20
4.868734
11
61.131337
21
4.370384
0
LINE
8
Capa 1
10
61.131337
20
4.370384
11
60.622803
21
4.034376
0
LINE
8
Capa 1
10
60.622803
20
4.034376
11
60.000070
21
3.911140
0
LINE
8
Capa 1
10
60.000070
20
3.911140
11
59.377337
21
4.034376
0
LINE
8
Capa 1
10
59.377337
20
4.034376
11
58.868803
21
4.370384
0
LINE
8
Capa 1
10
58.868803
20
4.370384
11
58.525928
21
4.868734
0
LINE
8
Capa 1
10
58.525928
20
4.868734
11
58.400170
21
5.479000
0
LINE
8
Capa 1
10
58.400170
20
5.479000
11
58.521833
21
6.079139
0
LINE
8
Capa 1
10
58.521833
20
6.079139
11
58.868616
21
6.587953
0
LINE
8
Capa 1
10
58.868616
20
6.587953
11
59.387711
21
6.927958
0
LINE
8
Capa 1
10
59.387711
20
6.927958
11
60.000070
21
7.047380
0
LINE
8
Capa 1
10
60.000070
20
7.047380
11
60.000070
21
7.047380
0
LINE
8
Capa 1
10
22.546570
20
4.734340
11
23.158933
21
4.612481
0
LINE
8
Capa 1
10
23.158933
20
4.612481
11
23.678031
21
4.265531
0
LINE
8
Capa 1
10
23.678031
20
4.265531
11
24.024816
21
3.746322
0
LINE
8
Capa 1
10
24.024816
20
3.746322
11
24.146480
21
3.133920
0
LINE
8
Capa 1
10
24.146480
20
3.133920
11
24.020724
21
2.511182
0
LINE
8
Capa 1
10
24.020724
20
2.511182
11
23.677847
21
2.002646
0
LINE
8
Capa 1
10
23.677847
20
2.002646
11
23.169309
21
1.659772
0
LINE
8
Capa 1
10
23.169309
20
1.659772
11
22.546570
21
1.534020
0
LINE
8
Capa 1
10
22.546570
20
1.534020
11
21.923834
21
1.659775
0
LINE
8
Capa 1
10
21.923834
20
1.659775
11
21.415299
21
2.002649
0
LINE
8
Capa 1
10
21.415299
20
2.002649
11
21.072425
21
2.511184
0
LINE
8
Capa 1
10
21.072425
20
2.511184
11
20.946670
21
3.133920
0
LINE
8
Capa 1
10
20.946670
20
3.133920
11
21.068333
21
3.746319
0
LINE
8
Capa 1
10
21.068333
20
3.746319
11
21.415115
21
4.265527
0
LINE
8
Capa 1
10
21.415115
20
4.265527
11
21.934210
21
4.612478
0
LINE
8
Capa 1
10
21.934210
20
4.612478
11
22.546570
21
4.734340
0
LINE
8
Capa 1
10
22.546570
20
4.734340
11
22.546570
21
4.734340
0
LINE
8
Capa 1
10
97.453070
20
4.734340
11
98.065430
21
4.612478
0
LINE
8
Capa 1
10
98.065430
20
4.612478
11
98.584525
21
4.265527
0
LINE
8
Capa 1
10
98.584525
20
4.265527
11
98.931307
21
3.746319
0
LINE
8
Capa 1
10
98.931307
20
3.746319
11
99.052970
21
3.133920
0
LINE
8
Capa 1
10
99.052970
20
3.133920
11
98.927215
21
2.511184
0
LINE
8
Capa 1
10
98.927215
20
2.511184
11
98.584341
21
2.002649
0
LINE
8
Capa 1
10
98.584341
20
2.002649
11
98.075806
21
1.659775
0
LINE
8
Capa 1
10
98.075806
20
1.659775
11
97.453070
21
1.534020
0
LINE
8
Capa 1
10
97.453070
20
1.534020
11
96.830334
21
1.659775
0
LINE
8
Capa 1
10
96.830334
20
1.659775
11
96.321799
21
2.002649
0
LINE
8
Capa 1
10
96.321799
20
2.002649
11
95.978925
21
2.511184
0
LINE
8
Capa 1
10
95.978925
20
2.511184
11
95.853170
21
3.133920
0
LINE
8
Capa 1
10
95.853170
20
3.133920
11
95.974833
21
3.746319
0
LINE
8
Capa 1
10
95.974833
20
3.746319
11
96.321615
21
4.265527
0
LINE
8
Capa 1
10
96.321615
20
4.265527
11
96.840710
21
4.612478
0
LINE
8
Capa 1
10
96.840710
20
4.612478
11
97.453070
21
4.734340
0
LINE
8
Capa 1
10
97.453070
20
4.734340
11
97.453070
21
4.734340
 0 
ENDSEC
 0 
EOF