999
"DXF R12 Output" (www.mydxf.blogspot.com)
 0 
SECTION
 2 
HEADER
 9 
$ACADVER
 1 
AC1009
 9 
$EXTMIN
 10 
 0 
 20 
 0 
 9 
$EXTMAX
 10 
 8.5 
 20 
 11 
 0 
ENDSEC
 0 
SECTION
 2 
ENTITIES
0
LINE
8
Capa 1
10
10.035300
20
119.962000
11
10.035300
21
114.965000
0
LINE
8
Capa 1
10
10.035300
20
114.965000
11
9.933672
21
113.957979
0
LINE
8
Capa 1
10
9.933672
20
113.957979
11
9.642320
21
113.020041
0
LINE
8
Capa 1
10
9.642320
20
113.020041
11
9.181353
21
112.171280
0
LINE
8
Capa 1
10
9.181353
20
112.171280
11
8.570880
21
111.431790
0
LINE
8
Capa 1
10
8.570880
20
111.431790
11
7.831011
21
110.821663
0
LINE
8
Capa 1
10
7.831011
20
110.821663
11
6.981855
21
110.360994
0
LINE
8
Capa 1
10
6.981855
20
110.360994
11
6.043522
21
110.069875
0
LINE
8
Capa 1
10
6.043522
20
110.069875
11
5.036120
21
109.968400
0
LINE
8
Capa 1
10
5.036120
20
109.968400
11
0.038009
21
109.969000
0
LINE
8
Capa 1
10
0.038009
20
109.969000
11
0.038009
21
10.031700
0
LINE
8
Capa 1
10
0.038009
20
10.031700
11
5.036150
21
10.031700
0
LINE
8
Capa 1
10
5.036150
20
10.031700
11
6.043551
21
9.930222
0
LINE
8
Capa 1
10
6.043551
20
9.930222
11
6.981885
21
9.639101
0
LINE
8
Capa 1
10
6.981885
20
9.639101
11
7.831040
21
9.178430
0
LINE
8
Capa 1
10
7.831040
20
9.178430
11
8.570909
21
8.568303
0
LINE
8
Capa 1
10
8.570909
20
8.568303
11
9.181381
21
7.828813
0
LINE
8
Capa 1
10
9.181381
20
7.828813
11
9.642349
21
6.980053
0
LINE
8
Capa 1
10
9.642349
20
6.980053
11
9.933701
21
6.042118
0
LINE
8
Capa 1
10
9.933701
20
6.042118
11
10.035330
21
5.035100
0
LINE
8
Capa 1
10
10.035330
20
5.035100
11
10.035300
21
0.038020
0
LINE
8
Capa 1
10
10.035300
20
0.038020
11
114.964000
21
0.038020
0
LINE
8
Capa 1
10
114.964000
20
0.038020
11
114.964000
21
5.035140
0
LINE
8
Capa 1
10
114.964000
20
5.035140
11
115.065623
21
6.042158
0
LINE
8
Capa 1
10
115.065623
20
6.042158
11
115.356969
21
6.980093
0
LINE
8
Capa 1
10
115.356969
20
6.980093
11
115.817928
21
7.828852
0
LINE
8
Capa 1
10
115.817928
20
7.828852
11
116.428395
21
8.568342
0
LINE
8
Capa 1
10
116.428395
20
8.568342
11
117.168261
21
9.178470
0
LINE
8
Capa 1
10
117.168261
20
9.178470
11
118.017419
21
9.639141
0
LINE
8
Capa 1
10
118.017419
20
9.639141
11
118.955761
21
9.930262
0
LINE
8
Capa 1
10
118.955761
20
9.930262
11
119.963180
21
10.031740
0
LINE
8
Capa 1
10
119.963180
20
10.031740
11
124.962000
21
10.031700
0
LINE
8
Capa 1
10
124.962000
20
10.031700
11
124.962000
21
109.969000
0
LINE
8
Capa 1
10
124.962000
20
109.969000
11
119.964000
21
109.969000
0
LINE
8
Capa 1
10
119.964000
20
109.969000
11
118.956581
21
110.070475
0
LINE
8
Capa 1
10
118.956581
20
110.070475
11
118.018239
21
110.361594
0
LINE
8
Capa 1
10
118.018239
20
110.361594
11
117.169081
21
110.822263
0
LINE
8
Capa 1
10
117.169081
20
110.822263
11
116.429215
21
111.432390
0
LINE
8
Capa 1
10
116.429215
20
111.432390
11
115.818748
21
112.171880
0
LINE
8
Capa 1
10
115.818748
20
112.171880
11
115.357789
21
113.020641
0
LINE
8
Capa 1
10
115.357789
20
113.020641
11
115.066443
21
113.958579
0
LINE
8
Capa 1
10
115.066443
20
113.958579
11
114.964820
21
114.965600
0
LINE
8
Capa 1
10
114.964820
20
114.965600
11
114.964000
21
119.962000
0
LINE
8
Capa 1
10
114.964000
20
119.962000
11
10.035300
21
119.962000
0
LINE
8
Capa 1
10
24.740900
20
106.937500
11
25.353260
21
106.815638
0
LINE
8
Capa 1
10
25.353260
20
106.815638
11
25.872355
21
106.468687
0
LINE
8
Capa 1
10
25.872355
20
106.468687
11
26.219137
21
105.949479
0
LINE
8
Capa 1
10
26.219137
20
105.949479
11
26.340800
21
105.337080
0
LINE
8
Capa 1
10
26.340800
20
105.337080
11
26.215045
21
104.714344
0
LINE
8
Capa 1
10
26.215045
20
104.714344
11
25.872171
21
104.205809
0
LINE
8
Capa 1
10
25.872171
20
104.205809
11
25.363636
21
103.862935
0
LINE
8
Capa 1
10
25.363636
20
103.862935
11
24.740900
21
103.737180
0
LINE
8
Capa 1
10
24.740900
20
103.737180
11
24.118164
21
103.862935
0
LINE
8
Capa 1
10
24.118164
20
103.862935
11
23.609629
21
104.205809
0
LINE
8
Capa 1
10
23.609629
20
104.205809
11
23.266755
21
104.714344
0
LINE
8
Capa 1
10
23.266755
20
104.714344
11
23.141000
21
105.337080
0
LINE
8
Capa 1
10
23.141000
20
105.337080
11
23.262663
21
105.949479
0
LINE
8
Capa 1
10
23.262663
20
105.949479
11
23.609445
21
106.468687
0
LINE
8
Capa 1
10
23.609445
20
106.468687
11
24.128540
21
106.815638
0
LINE
8
Capa 1
10
24.128540
20
106.815638
11
24.740900
21
106.937500
0
LINE
8
Capa 1
10
24.740900
20
106.937500
11
24.740900
21
106.937500
0
LINE
8
Capa 1
10
99.506900
20
106.937500
11
100.119420
21
106.815788
0
LINE
8
Capa 1
10
100.119420
20
106.815788
11
100.638691
21
106.468871
0
LINE
8
Capa 1
10
100.638691
20
106.468871
11
100.985608
21
105.949600
0
LINE
8
Capa 1
10
100.985608
20
105.949600
11
101.107320
21
105.337080
0
LINE
8
Capa 1
10
101.107320
20
105.337080
11
100.985458
21
104.724720
0
LINE
8
Capa 1
10
100.985458
20
104.724720
11
100.638507
21
104.205625
0
LINE
8
Capa 1
10
100.638507
20
104.205625
11
100.119299
21
103.858843
0
LINE
8
Capa 1
10
100.119299
20
103.858843
11
99.506900
21
103.737180
0
LINE
8
Capa 1
10
99.506900
20
103.737180
11
98.884164
21
103.862935
0
LINE
8
Capa 1
10
98.884164
20
103.862935
11
98.375629
21
104.205809
0
LINE
8
Capa 1
10
98.375629
20
104.205809
11
98.032755
21
104.714344
0
LINE
8
Capa 1
10
98.032755
20
104.714344
11
97.907000
21
105.337080
0
LINE
8
Capa 1
10
97.907000
20
105.337080
11
98.028663
21
105.949479
0
LINE
8
Capa 1
10
98.028663
20
105.949479
11
98.375445
21
106.468687
0
LINE
8
Capa 1
10
98.375445
20
106.468687
11
98.894540
21
106.815638
0
LINE
8
Capa 1
10
98.894540
20
106.815638
11
99.506900
21
106.937500
0
LINE
8
Capa 1
10
99.506900
20
106.937500
11
99.506900
21
106.937500
0
LINE
8
Capa 1
10
11.893100
20
103.903070
11
13.635100
21
103.903000
0
LINE
8
Capa 1
10
13.635100
20
103.903000
11
15.176362
21
103.766291
0
LINE
8
Capa 1
10
15.176362
20
103.766291
11
16.610163
21
103.374003
0
LINE
8
Capa 1
10
16.610163
20
103.374003
11
17.906287
21
102.752891
0
LINE
8
Capa 1
10
17.906287
20
102.752891
11
19.034514
21
101.929714
0
LINE
8
Capa 1
10
19.034514
20
101.929714
11
19.964626
21
100.931227
0
LINE
8
Capa 1
10
19.964626
20
100.931227
11
20.666405
21
99.784188
0
LINE
8
Capa 1
10
20.666405
20
99.784188
11
21.109632
21
98.515353
0
LINE
8
Capa 1
10
21.109632
20
98.515353
11
21.264090
21
97.151480
0
LINE
8
Capa 1
10
21.264090
20
97.151480
11
21.264100
21
88.653800
0
LINE
8
Capa 1
10
21.264100
20
88.653800
11
21.109642
21
87.289945
0
LINE
8
Capa 1
10
21.109642
20
87.289945
11
20.666415
21
86.021166
0
LINE
8
Capa 1
10
20.666415
20
86.021166
11
19.964636
21
84.874207
0
LINE
8
Capa 1
10
19.964636
20
84.874207
11
19.034524
21
83.875812
0
LINE
8
Capa 1
10
19.034524
20
83.875812
11
17.906297
21
83.052728
0
LINE
8
Capa 1
10
17.906297
20
83.052728
11
16.610173
21
82.431698
0
LINE
8
Capa 1
10
16.610173
20
82.431698
11
15.176372
21
82.039467
0
LINE
8
Capa 1
10
15.176372
20
82.039467
11
13.635110
21
81.902780
0
LINE
8
Capa 1
10
13.635110
20
81.902780
11
11.893100
21
81.902800
0
LINE
8
Capa 1
10
11.893100
20
81.902800
11
10.351841
21
82.039487
0
LINE
8
Capa 1
10
10.351841
20
82.039487
11
8.918041
21
82.431716
0
LINE
8
Capa 1
10
8.918041
20
82.431716
11
7.621918
21
83.052745
0
LINE
8
Capa 1
10
7.621918
20
83.052745
11
6.493690
21
83.875829
0
LINE
8
Capa 1
10
6.493690
20
83.875829
11
5.563577
21
84.874222
0
LINE
8
Capa 1
10
5.563577
20
84.874222
11
4.861797
21
86.021182
0
LINE
8
Capa 1
10
4.861797
20
86.021182
11
4.418568
21
87.289962
0
LINE
8
Capa 1
10
4.418568
20
87.289962
11
4.264110
21
88.653820
0
LINE
8
Capa 1
10
4.264110
20
88.653820
11
4.264110
21
97.151500
0
LINE
8
Capa 1
10
4.264110
20
97.151500
11
4.418568
21
98.515373
0
LINE
8
Capa 1
10
4.418568
20
98.515373
11
4.861798
21
99.784208
0
LINE
8
Capa 1
10
4.861798
20
99.784208
11
5.563579
21
100.931247
0
LINE
8
Capa 1
10
5.563579
20
100.931247
11
6.493694
21
101.929734
0
LINE
8
Capa 1
10
6.493694
20
101.929734
11
7.621922
21
102.752911
0
LINE
8
Capa 1
10
7.621922
20
102.752911
11
8.918045
21
103.374023
0
LINE
8
Capa 1
10
8.918045
20
103.374023
11
10.351844
21
103.766311
0
LINE
8
Capa 1
10
10.351844
20
103.766311
11
11.893100
21
103.903020
0
LINE
8
Capa 1
10
11.893100
20
103.903020
11
11.893100
21
103.903070
0
LINE
8
Capa 1
10
36.770700
20
103.903070
11
38.512100
21
103.903000
0
LINE
8
Capa 1
10
38.512100
20
103.903000
11
40.053362
21
103.766292
0
LINE
8
Capa 1
10
40.053362
20
103.766292
11
41.487163
21
103.374004
0
LINE
8
Capa 1
10
41.487163
20
103.374004
11
42.783287
21
102.752894
0
LINE
8
Capa 1
10
42.783287
20
102.752894
11
43.911514
21
101.929718
0
LINE
8
Capa 1
10
43.911514
20
101.929718
11
44.841626
21
100.931231
0
LINE
8
Capa 1
10
44.841626
20
100.931231
11
45.543405
21
99.784192
0
LINE
8
Capa 1
10
45.543405
20
99.784192
11
45.986632
21
98.515356
0
LINE
8
Capa 1
10
45.986632
20
98.515356
11
46.141090
21
97.151480
0
LINE
8
Capa 1
10
46.141090
20
97.151480
11
46.141100
21
88.653800
0
LINE
8
Capa 1
10
46.141100
20
88.653800
11
45.986642
21
87.289942
0
LINE
8
Capa 1
10
45.986642
20
87.289942
11
45.543415
21
86.021162
0
LINE
8
Capa 1
10
45.543415
20
86.021162
11
44.841636
21
84.874202
0
LINE
8
Capa 1
10
44.841636
20
84.874202
11
43.911524
21
83.875809
0
LINE
8
Capa 1
10
43.911524
20
83.875809
11
42.783297
21
83.052725
0
LINE
8
Capa 1
10
42.783297
20
83.052725
11
41.487173
21
82.431696
0
LINE
8
Capa 1
10
41.487173
20
82.431696
11
40.053372
21
82.039467
0
LINE
8
Capa 1
10
40.053372
20
82.039467
11
38.512110
21
81.902780
0
LINE
8
Capa 1
10
38.512110
20
81.902780
11
36.770700
21
81.902800
0
LINE
8
Capa 1
10
36.770700
20
81.902800
11
35.229416
21
82.039486
0
LINE
8
Capa 1
10
35.229416
20
82.039486
11
33.795555
21
82.431715
0
LINE
8
Capa 1
10
33.795555
20
82.431715
11
32.499349
21
83.052743
0
LINE
8
Capa 1
10
32.499349
20
83.052743
11
31.371026
21
83.875825
0
LINE
8
Capa 1
10
31.371026
20
83.875825
11
30.440819
21
84.874218
0
LINE
8
Capa 1
10
30.440819
20
84.874218
11
29.738956
21
86.021177
0
LINE
8
Capa 1
10
29.738956
20
86.021177
11
29.295670
21
87.289960
0
LINE
8
Capa 1
10
29.295670
20
87.289960
11
29.141190
21
88.653820
0
LINE
8
Capa 1
10
29.141190
20
88.653820
11
29.141100
21
97.151500
0
LINE
8
Capa 1
10
29.141100
20
97.151500
11
29.295580
21
98.515376
0
LINE
8
Capa 1
10
29.295580
20
98.515376
11
29.738866
21
99.784212
0
LINE
8
Capa 1
10
29.738866
20
99.784212
11
30.440729
21
100.931251
0
LINE
8
Capa 1
10
30.440729
20
100.931251
11
31.370936
21
101.929738
0
LINE
8
Capa 1
10
31.370936
20
101.929738
11
32.499259
21
102.752914
0
LINE
8
Capa 1
10
32.499259
20
102.752914
11
33.795465
21
103.374024
0
LINE
8
Capa 1
10
33.795465
20
103.374024
11
35.229326
21
103.766312
0
LINE
8
Capa 1
10
35.229326
20
103.766312
11
36.770610
21
103.903020
0
LINE
8
Capa 1
10
36.770610
20
103.903020
11
36.770700
21
103.903070
0
LINE
8
Capa 1
10
61.647700
20
103.903070
11
63.389700
21
103.903000
0
LINE
8
Capa 1
10
63.389700
20
103.903000
11
64.930962
21
103.766292
0
LINE
8
Capa 1
10
64.930962
20
103.766292
11
66.364763
21
103.374007
0
LINE
8
Capa 1
10
66.364763
20
103.374007
11
67.660887
21
102.752899
0
LINE
8
Capa 1
10
67.660887
20
102.752899
11
68.789114
21
101.929725
0
LINE
8
Capa 1
10
68.789114
20
101.929725
11
69.719226
21
100.931240
0
LINE
8
Capa 1
10
69.719226
20
100.931240
11
70.421005
21
99.784201
0
LINE
8
Capa 1
10
70.421005
20
99.784201
11
70.864232
21
98.515362
0
LINE
8
Capa 1
10
70.864232
20
98.515362
11
71.018690
21
97.151480
0
LINE
8
Capa 1
10
71.018690
20
97.151480
11
71.018700
21
88.653800
0
LINE
8
Capa 1
10
71.018700
20
88.653800
11
70.864242
21
87.289940
0
LINE
8
Capa 1
10
70.864242
20
87.289940
11
70.421015
21
86.021158
0
LINE
8
Capa 1
10
70.421015
20
86.021158
11
69.719236
21
84.874198
0
LINE
8
Capa 1
10
69.719236
20
84.874198
11
68.789124
21
83.875805
0
LINE
8
Capa 1
10
68.789124
20
83.875805
11
67.660897
21
83.052723
0
LINE
8
Capa 1
10
67.660897
20
83.052723
11
66.364773
21
82.431695
0
LINE
8
Capa 1
10
66.364773
20
82.431695
11
64.930972
21
82.039466
0
LINE
8
Capa 1
10
64.930972
20
82.039466
11
63.389710
21
81.902780
0
LINE
8
Capa 1
10
63.389710
20
81.902780
11
61.647700
21
81.902800
0
LINE
8
Capa 1
10
61.647700
20
81.902800
11
60.106438
21
82.039486
0
LINE
8
Capa 1
10
60.106438
20
82.039486
11
58.672637
21
82.431715
0
LINE
8
Capa 1
10
58.672637
20
82.431715
11
57.376513
21
83.052743
0
LINE
8
Capa 1
10
57.376513
20
83.052743
11
56.248286
21
83.875825
0
LINE
8
Capa 1
10
56.248286
20
83.875825
11
55.318174
21
84.874218
0
LINE
8
Capa 1
10
55.318174
20
84.874218
11
54.616395
21
86.021177
0
LINE
8
Capa 1
10
54.616395
20
86.021177
11
54.173168
21
87.289960
0
LINE
8
Capa 1
10
54.173168
20
87.289960
11
54.018710
21
88.653820
0
LINE
8
Capa 1
10
54.018710
20
88.653820
11
54.018700
21
97.151500
0
LINE
8
Capa 1
10
54.018700
20
97.151500
11
54.173158
21
98.515382
0
LINE
8
Capa 1
10
54.173158
20
98.515382
11
54.616385
21
99.784221
0
LINE
8
Capa 1
10
54.616385
20
99.784221
11
55.318164
21
100.931260
0
LINE
8
Capa 1
10
55.318164
20
100.931260
11
56.248276
21
101.929745
0
LINE
8
Capa 1
10
56.248276
20
101.929745
11
57.376503
21
102.752919
0
LINE
8
Capa 1
10
57.376503
20
102.752919
11
58.672627
21
103.374027
0
LINE
8
Capa 1
10
58.672627
20
103.374027
11
60.106428
21
103.766312
0
LINE
8
Capa 1
10
60.106428
20
103.766312
11
61.647690
21
103.903020
0
LINE
8
Capa 1
10
61.647690
20
103.903020
11
61.647700
21
103.903070
0
LINE
8
Capa 1
10
86.525300
20
103.903070
11
88.267200
21
103.903000
0
LINE
8
Capa 1
10
88.267200
20
103.903000
11
89.808464
21
103.766293
0
LINE
8
Capa 1
10
89.808464
20
103.766293
11
91.242267
21
103.374008
0
LINE
8
Capa 1
10
91.242267
20
103.374008
11
92.538391
21
102.752902
0
LINE
8
Capa 1
10
92.538391
20
102.752902
11
93.666618
21
101.929729
0
LINE
8
Capa 1
10
93.666618
20
101.929729
11
94.596729
21
100.931245
0
LINE
8
Capa 1
10
94.596729
20
100.931245
11
95.298506
21
99.784205
0
LINE
8
Capa 1
10
95.298506
20
99.784205
11
95.741733
21
98.515365
0
LINE
8
Capa 1
10
95.741733
20
98.515365
11
95.896190
21
97.151480
0
LINE
8
Capa 1
10
95.896190
20
97.151480
11
95.896200
21
88.653800
0
LINE
8
Capa 1
10
95.896200
20
88.653800
11
95.741743
21
87.289937
0
LINE
8
Capa 1
10
95.741743
20
87.289937
11
95.298516
21
86.021153
0
LINE
8
Capa 1
10
95.298516
20
86.021153
11
94.596739
21
84.874194
0
LINE
8
Capa 1
10
94.596739
20
84.874194
11
93.666627
21
83.875801
0
LINE
8
Capa 1
10
93.666627
20
83.875801
11
92.538401
21
83.052720
0
LINE
8
Capa 1
10
92.538401
20
83.052720
11
91.242277
21
82.431694
0
LINE
8
Capa 1
10
91.242277
20
82.431694
11
89.808474
21
82.039466
0
LINE
8
Capa 1
10
89.808474
20
82.039466
11
88.267210
21
81.902780
0
LINE
8
Capa 1
10
88.267210
20
81.902780
11
86.525200
21
81.902800
0
LINE
8
Capa 1
10
86.525200
20
81.902800
11
84.983938
21
82.039486
0
LINE
8
Capa 1
10
84.983938
20
82.039486
11
83.550135
21
82.431714
0
LINE
8
Capa 1
10
83.550135
20
82.431714
11
82.254010
21
83.052740
0
LINE
8
Capa 1
10
82.254010
20
83.052740
11
81.125781
21
83.875821
0
LINE
8
Capa 1
10
81.125781
20
83.875821
11
80.195667
21
84.874214
0
LINE
8
Capa 1
10
80.195667
20
84.874214
11
79.493887
21
86.021173
0
LINE
8
Capa 1
10
79.493887
20
86.021173
11
79.050658
21
87.289957
0
LINE
8
Capa 1
10
79.050658
20
87.289957
11
78.896200
21
88.653820
0
LINE
8
Capa 1
10
78.896200
20
88.653820
11
78.896200
21
97.151500
0
LINE
8
Capa 1
10
78.896200
20
97.151500
11
79.050658
21
98.515385
0
LINE
8
Capa 1
10
79.050658
20
98.515385
11
79.493887
21
99.784225
0
LINE
8
Capa 1
10
79.493887
20
99.784225
11
80.195667
21
100.931265
0
LINE
8
Capa 1
10
80.195667
20
100.931265
11
81.125781
21
101.929749
0
LINE
8
Capa 1
10
81.125781
20
101.929749
11
82.254010
21
102.752922
0
LINE
8
Capa 1
10
82.254010
20
102.752922
11
83.550135
21
103.374028
0
LINE
8
Capa 1
10
83.550135
20
103.374028
11
84.983938
21
103.766313
0
LINE
8
Capa 1
10
84.983938
20
103.766313
11
86.525200
21
103.903020
0
LINE
8
Capa 1
10
86.525200
20
103.903020
11
86.525300
21
103.903070
0
LINE
8
Capa 1
10
111.402800
20
103.903070
11
113.144000
21
103.903000
0
LINE
8
Capa 1
10
113.144000
20
103.903000
11
114.685282
21
103.766293
0
LINE
8
Capa 1
10
114.685282
20
103.766293
11
116.119094
21
103.374010
0
LINE
8
Capa 1
10
116.119094
20
103.374010
11
117.415221
21
102.752904
0
LINE
8
Capa 1
10
117.415221
20
102.752904
11
118.543445
21
101.929733
0
LINE
8
Capa 1
10
118.543445
20
101.929733
11
119.473551
21
100.931249
0
LINE
8
Capa 1
10
119.473551
20
100.931249
11
120.175323
21
99.784209
0
LINE
8
Capa 1
10
120.175323
20
99.784209
11
120.618545
21
98.515368
0
LINE
8
Capa 1
10
120.618545
20
98.515368
11
120.773000
21
97.151480
0
LINE
8
Capa 1
10
120.773000
20
97.151480
11
120.773000
21
88.653800
0
LINE
8
Capa 1
10
120.773000
20
88.653800
11
120.618545
21
87.289934
0
LINE
8
Capa 1
10
120.618545
20
87.289934
11
120.175323
21
86.021149
0
LINE
8
Capa 1
10
120.175323
20
86.021149
11
119.473551
21
84.874189
0
LINE
8
Capa 1
10
119.473551
20
84.874189
11
118.543445
21
83.875798
0
LINE
8
Capa 1
10
118.543445
20
83.875798
11
117.415221
21
83.052717
0
LINE
8
Capa 1
10
117.415221
20
83.052717
11
116.119094
21
82.431692
0
LINE
8
Capa 1
10
116.119094
20
82.431692
11
114.685282
21
82.039465
0
LINE
8
Capa 1
10
114.685282
20
82.039465
11
113.144000
21
81.902780
0
LINE
8
Capa 1
10
113.144000
20
81.902780
11
111.403000
21
81.902800
0
LINE
8
Capa 1
10
111.403000
20
81.902800
11
109.861696
21
82.039485
0
LINE
8
Capa 1
10
109.861696
20
82.039485
11
108.427826
21
82.431712
0
LINE
8
Capa 1
10
108.427826
20
82.431712
11
107.131618
21
83.052737
0
LINE
8
Capa 1
10
107.131618
20
83.052737
11
106.003300
21
83.875818
0
LINE
8
Capa 1
10
106.003300
20
83.875818
11
105.073100
21
84.874209
0
LINE
8
Capa 1
10
105.073100
20
84.874209
11
104.371247
21
86.021169
0
LINE
8
Capa 1
10
104.371247
20
86.021169
11
103.927967
21
87.289954
0
LINE
8
Capa 1
10
103.927967
20
87.289954
11
103.773490
21
88.653820
0
LINE
8
Capa 1
10
103.773490
20
88.653820
11
103.773000
21
97.151500
0
LINE
8
Capa 1
10
103.773000
20
97.151500
11
103.927477
21
98.515388
0
LINE
8
Capa 1
10
103.927477
20
98.515388
11
104.370757
21
99.784229
0
LINE
8
Capa 1
10
104.370757
20
99.784229
11
105.072610
21
100.931269
0
LINE
8
Capa 1
10
105.072610
20
100.931269
11
106.002810
21
101.929753
0
LINE
8
Capa 1
10
106.002810
20
101.929753
11
107.131128
21
102.752924
0
LINE
8
Capa 1
10
107.131128
20
102.752924
11
108.427336
21
103.374030
0
LINE
8
Capa 1
10
108.427336
20
103.374030
11
109.861206
21
103.766313
0
LINE
8
Capa 1
10
109.861206
20
103.766313
11
111.402510
21
103.903020
0
LINE
8
Capa 1
10
111.402510
20
103.903020
11
111.402800
21
103.903070
0
LINE
8
Capa 1
10
12.763900
20
70.570170
11
14.285468
21
70.416771
0
LINE
8
Capa 1
10
14.285468
20
70.416771
11
15.702661
21
69.976841
0
LINE
8
Capa 1
10
15.702661
20
69.976841
11
16.985120
21
69.280739
0
LINE
8
Capa 1
10
16.985120
20
69.280739
11
18.102486
21
68.358826
0
LINE
8
Capa 1
10
18.102486
20
68.358826
11
19.024399
21
67.241460
0
LINE
8
Capa 1
10
19.024399
20
67.241460
11
19.720501
21
65.959001
0
LINE
8
Capa 1
10
19.720501
20
65.959001
11
20.160431
21
64.541808
0
LINE
8
Capa 1
10
20.160431
20
64.541808
11
20.313830
21
63.020240
0
LINE
8
Capa 1
10
20.313830
20
63.020240
11
20.160429
21
61.498674
0
LINE
8
Capa 1
10
20.160429
20
61.498674
11
19.720498
21
60.081482
0
LINE
8
Capa 1
10
19.720498
20
60.081482
11
19.024396
21
58.799024
0
LINE
8
Capa 1
10
19.024396
20
58.799024
11
18.102483
21
57.681660
0
LINE
8
Capa 1
10
18.102483
20
57.681660
11
16.985117
21
56.759749
0
LINE
8
Capa 1
10
16.985117
20
56.759749
11
15.702659
21
56.063648
0
LINE
8
Capa 1
10
15.702659
20
56.063648
11
14.285467
21
55.623719
0
LINE
8
Capa 1
10
14.285467
20
55.623719
11
12.763900
21
55.470320
0
LINE
8
Capa 1
10
12.763900
20
55.470320
11
11.242333
21
55.623719
0
LINE
8
Capa 1
10
11.242333
20
55.623719
11
9.825141
21
56.063648
0
LINE
8
Capa 1
10
9.825141
20
56.063648
11
8.542683
21
56.759749
0
LINE
8
Capa 1
10
8.542683
20
56.759749
11
7.425317
21
57.681660
0
LINE
8
Capa 1
10
7.425317
20
57.681660
11
6.503404
21
58.799024
0
LINE
8
Capa 1
10
6.503404
20
58.799024
11
5.807302
21
60.081482
0
LINE
8
Capa 1
10
5.807302
20
60.081482
11
5.367371
21
61.498674
0
LINE
8
Capa 1
10
5.367371
20
61.498674
11
5.213970
21
63.020240
0
LINE
8
Capa 1
10
5.213970
20
63.020240
11
5.367369
21
64.541808
0
LINE
8
Capa 1
10
5.367369
20
64.541808
11
5.807299
21
65.959001
0
LINE
8
Capa 1
10
5.807299
20
65.959001
11
6.503401
21
67.241460
0
LINE
8
Capa 1
10
6.503401
20
67.241460
11
7.425314
21
68.358826
0
LINE
8
Capa 1
10
7.425314
20
68.358826
11
8.542680
21
69.280739
0
LINE
8
Capa 1
10
8.542680
20
69.280739
11
9.825139
21
69.976841
0
LINE
8
Capa 1
10
9.825139
20
69.976841
11
11.242332
21
70.416771
0
LINE
8
Capa 1
10
11.242332
20
70.416771
11
12.763900
21
70.570170
0
LINE
8
Capa 1
10
12.763900
20
70.570170
11
12.763900
21
70.570170
0
LINE
8
Capa 1
10
37.641500
20
70.570170
11
39.163068
21
70.416771
0
LINE
8
Capa 1
10
39.163068
20
70.416771
11
40.580261
21
69.976841
0
LINE
8
Capa 1
10
40.580261
20
69.976841
11
41.862720
21
69.280739
0
LINE
8
Capa 1
10
41.862720
20
69.280739
11
42.980086
21
68.358826
0
LINE
8
Capa 1
10
42.980086
20
68.358826
11
43.901999
21
67.241460
0
LINE
8
Capa 1
10
43.901999
20
67.241460
11
44.598101
21
65.959001
0
LINE
8
Capa 1
10
44.598101
20
65.959001
11
45.038031
21
64.541808
0
LINE
8
Capa 1
10
45.038031
20
64.541808
11
45.191430
21
63.020240
0
LINE
8
Capa 1
10
45.191430
20
63.020240
11
45.038029
21
61.498674
0
LINE
8
Capa 1
10
45.038029
20
61.498674
11
44.598098
21
60.081482
0
LINE
8
Capa 1
10
44.598098
20
60.081482
11
43.901996
21
58.799024
0
LINE
8
Capa 1
10
43.901996
20
58.799024
11
42.980083
21
57.681660
0
LINE
8
Capa 1
10
42.980083
20
57.681660
11
41.862717
21
56.759749
0
LINE
8
Capa 1
10
41.862717
20
56.759749
11
40.580259
21
56.063648
0
LINE
8
Capa 1
10
40.580259
20
56.063648
11
39.163067
21
55.623719
0
LINE
8
Capa 1
10
39.163067
20
55.623719
11
37.641500
21
55.470320
0
LINE
8
Capa 1
10
37.641500
20
55.470320
11
36.119933
21
55.623719
0
LINE
8
Capa 1
10
36.119933
20
55.623719
11
34.702741
21
56.063648
0
LINE
8
Capa 1
10
34.702741
20
56.063648
11
33.420283
21
56.759749
0
LINE
8
Capa 1
10
33.420283
20
56.759749
11
32.302917
21
57.681660
0
LINE
8
Capa 1
10
32.302917
20
57.681660
11
31.381004
21
58.799024
0
LINE
8
Capa 1
10
31.381004
20
58.799024
11
30.684902
21
60.081482
0
LINE
8
Capa 1
10
30.684902
20
60.081482
11
30.244971
21
61.498674
0
LINE
8
Capa 1
10
30.244971
20
61.498674
11
30.091570
21
63.020240
0
LINE
8
Capa 1
10
30.091570
20
63.020240
11
30.244969
21
64.541808
0
LINE
8
Capa 1
10
30.244969
20
64.541808
11
30.684899
21
65.959001
0
LINE
8
Capa 1
10
30.684899
20
65.959001
11
31.381001
21
67.241460
0
LINE
8
Capa 1
10
31.381001
20
67.241460
11
32.302914
21
68.358826
0
LINE
8
Capa 1
10
32.302914
20
68.358826
11
33.420280
21
69.280739
0
LINE
8
Capa 1
10
33.420280
20
69.280739
11
34.702739
21
69.976841
0
LINE
8
Capa 1
10
34.702739
20
69.976841
11
36.119932
21
70.416771
0
LINE
8
Capa 1
10
36.119932
20
70.416771
11
37.641500
21
70.570170
0
LINE
8
Capa 1
10
37.641500
20
70.570170
11
37.641500
21
70.570170
0
LINE
8
Capa 1
10
62.519100
20
70.570170
11
64.040668
21
70.416771
0
LINE
8
Capa 1
10
64.040668
20
70.416771
11
65.457861
21
69.976841
0
LINE
8
Capa 1
10
65.457861
20
69.976841
11
66.740320
21
69.280739
0
LINE
8
Capa 1
10
66.740320
20
69.280739
11
67.857686
21
68.358826
0
LINE
8
Capa 1
10
67.857686
20
68.358826
11
68.779599
21
67.241460
0
LINE
8
Capa 1
10
68.779599
20
67.241460
11
69.475701
21
65.959001
0
LINE
8
Capa 1
10
69.475701
20
65.959001
11
69.915631
21
64.541808
0
LINE
8
Capa 1
10
69.915631
20
64.541808
11
70.069030
21
63.020240
0
LINE
8
Capa 1
10
70.069030
20
63.020240
11
69.915629
21
61.498674
0
LINE
8
Capa 1
10
69.915629
20
61.498674
11
69.475698
21
60.081482
0
LINE
8
Capa 1
10
69.475698
20
60.081482
11
68.779596
21
58.799024
0
LINE
8
Capa 1
10
68.779596
20
58.799024
11
67.857683
21
57.681660
0
LINE
8
Capa 1
10
67.857683
20
57.681660
11
66.740317
21
56.759749
0
LINE
8
Capa 1
10
66.740317
20
56.759749
11
65.457859
21
56.063648
0
LINE
8
Capa 1
10
65.457859
20
56.063648
11
64.040667
21
55.623719
0
LINE
8
Capa 1
10
64.040667
20
55.623719
11
62.519100
21
55.470320
0
LINE
8
Capa 1
10
62.519100
20
55.470320
11
61.039237
21
55.616654
0
LINE
8
Capa 1
10
61.039237
20
55.616654
11
59.629723
21
56.044896
0
LINE
8
Capa 1
10
59.629723
20
56.044896
11
58.330170
21
56.738639
0
LINE
8
Capa 1
10
58.330170
20
56.738639
11
57.180188
21
57.681480
0
LINE
8
Capa 1
10
57.180188
20
57.681480
11
56.237268
21
58.831398
0
LINE
8
Capa 1
10
56.237268
20
58.831398
11
55.543435
21
60.130903
0
LINE
8
Capa 1
10
55.543435
20
60.130903
11
55.115096
21
61.540387
0
LINE
8
Capa 1
10
55.115096
20
61.540387
11
54.968660
21
63.020240
0
LINE
8
Capa 1
10
54.968660
20
63.020240
11
55.115094
21
64.500095
0
LINE
8
Capa 1
10
55.115094
20
64.500095
11
55.543432
21
65.909580
0
LINE
8
Capa 1
10
55.543432
20
65.909580
11
56.237264
21
67.209087
0
LINE
8
Capa 1
10
56.237264
20
67.209087
11
57.180184
21
68.359007
0
LINE
8
Capa 1
10
57.180184
20
68.359007
11
58.330167
21
69.301849
0
LINE
8
Capa 1
10
58.330167
20
69.301849
11
59.629721
21
69.995593
0
LINE
8
Capa 1
10
59.629721
20
69.995593
11
61.039235
21
70.423835
0
LINE
8
Capa 1
10
61.039235
20
70.423835
11
62.519100
21
70.570170
0
LINE
8
Capa 1
10
62.519100
20
70.570170
11
62.519100
21
70.570170
0
LINE
8
Capa 1
10
87.396100
20
70.570170
11
88.917668
21
70.416771
0
LINE
8
Capa 1
10
88.917668
20
70.416771
11
90.334861
21
69.976841
0
LINE
8
Capa 1
10
90.334861
20
69.976841
11
91.617320
21
69.280739
0
LINE
8
Capa 1
10
91.617320
20
69.280739
11
92.734686
21
68.358826
0
LINE
8
Capa 1
10
92.734686
20
68.358826
11
93.656599
21
67.241460
0
LINE
8
Capa 1
10
93.656599
20
67.241460
11
94.352701
21
65.959001
0
LINE
8
Capa 1
10
94.352701
20
65.959001
11
94.792631
21
64.541808
0
LINE
8
Capa 1
10
94.792631
20
64.541808
11
94.946030
21
63.020240
0
LINE
8
Capa 1
10
94.946030
20
63.020240
11
94.792629
21
61.498674
0
LINE
8
Capa 1
10
94.792629
20
61.498674
11
94.352698
21
60.081482
0
LINE
8
Capa 1
10
94.352698
20
60.081482
11
93.656596
21
58.799024
0
LINE
8
Capa 1
10
93.656596
20
58.799024
11
92.734683
21
57.681660
0
LINE
8
Capa 1
10
92.734683
20
57.681660
11
91.617317
21
56.759749
0
LINE
8
Capa 1
10
91.617317
20
56.759749
11
90.334859
21
56.063648
0
LINE
8
Capa 1
10
90.334859
20
56.063648
11
88.917667
21
55.623719
0
LINE
8
Capa 1
10
88.917667
20
55.623719
11
87.396100
21
55.470320
0
LINE
8
Capa 1
10
87.396100
20
55.470320
11
85.874535
21
55.623721
0
LINE
8
Capa 1
10
85.874535
20
55.623721
11
84.457344
21
56.063651
0
LINE
8
Capa 1
10
84.457344
20
56.063651
11
83.174888
21
56.759752
0
LINE
8
Capa 1
10
83.174888
20
56.759752
11
82.057524
21
57.681664
0
LINE
8
Capa 1
10
82.057524
20
57.681664
11
81.135612
21
58.799028
0
LINE
8
Capa 1
10
81.135612
20
58.799028
11
80.439511
21
60.081484
0
LINE
8
Capa 1
10
80.439511
20
60.081484
11
79.999581
21
61.498675
0
LINE
8
Capa 1
10
79.999581
20
61.498675
11
79.846180
21
63.020240
0
LINE
8
Capa 1
10
79.846180
20
63.020240
11
79.999579
21
64.541807
0
LINE
8
Capa 1
10
79.999579
20
64.541807
11
80.439508
21
65.958999
0
LINE
8
Capa 1
10
80.439508
20
65.958999
11
81.135609
21
67.241457
0
LINE
8
Capa 1
10
81.135609
20
67.241457
11
82.057520
21
68.358823
0
LINE
8
Capa 1
10
82.057520
20
68.358823
11
83.174884
21
69.280736
0
LINE
8
Capa 1
10
83.174884
20
69.280736
11
84.457342
21
69.976838
0
LINE
8
Capa 1
10
84.457342
20
69.976838
11
85.874534
21
70.416769
0
LINE
8
Capa 1
10
85.874534
20
70.416769
11
87.396100
21
70.570170
0
LINE
8
Capa 1
10
87.396100
20
70.570170
11
87.396100
21
70.570170
0
LINE
8
Capa 1
10
112.273700
20
70.570170
11
113.795266
21
70.416769
0
LINE
8
Capa 1
10
113.795266
20
70.416769
11
115.212458
21
69.976838
0
LINE
8
Capa 1
10
115.212458
20
69.976838
11
116.494916
21
69.280736
0
LINE
8
Capa 1
10
116.494916
20
69.280736
11
117.612280
21
68.358823
0
LINE
8
Capa 1
10
117.612280
20
68.358823
11
118.534191
21
67.241457
0
LINE
8
Capa 1
10
118.534191
20
67.241457
11
119.230292
21
65.958999
0
LINE
8
Capa 1
10
119.230292
20
65.958999
11
119.670221
21
64.541807
0
LINE
8
Capa 1
10
119.670221
20
64.541807
11
119.823620
21
63.020240
0
LINE
8
Capa 1
10
119.823620
20
63.020240
11
119.670219
21
61.498675
0
LINE
8
Capa 1
10
119.670219
20
61.498675
11
119.230289
21
60.081484
0
LINE
8
Capa 1
10
119.230289
20
60.081484
11
118.534188
21
58.799028
0
LINE
8
Capa 1
10
118.534188
20
58.799028
11
117.612276
21
57.681664
0
LINE
8
Capa 1
10
117.612276
20
57.681664
11
116.494912
21
56.759752
0
LINE
8
Capa 1
10
116.494912
20
56.759752
11
115.212456
21
56.063651
0
LINE
8
Capa 1
10
115.212456
20
56.063651
11
113.795265
21
55.623721
0
LINE
8
Capa 1
10
113.795265
20
55.623721
11
112.273700
21
55.470320
0
LINE
8
Capa 1
10
112.273700
20
55.470320
11
110.752133
21
55.623719
0
LINE
8
Capa 1
10
110.752133
20
55.623719
11
109.334941
21
56.063648
0
LINE
8
Capa 1
10
109.334941
20
56.063648
11
108.052483
21
56.759749
0
LINE
8
Capa 1
10
108.052483
20
56.759749
11
106.935117
21
57.681660
0
LINE
8
Capa 1
10
106.935117
20
57.681660
11
106.013204
21
58.799024
0
LINE
8
Capa 1
10
106.013204
20
58.799024
11
105.317102
21
60.081482
0
LINE
8
Capa 1
10
105.317102
20
60.081482
11
104.877171
21
61.498674
0
LINE
8
Capa 1
10
104.877171
20
61.498674
11
104.723770
21
63.020240
0
LINE
8
Capa 1
10
104.723770
20
63.020240
11
104.877169
21
64.541808
0
LINE
8
Capa 1
10
104.877169
20
64.541808
11
105.317099
21
65.959001
0
LINE
8
Capa 1
10
105.317099
20
65.959001
11
106.013201
21
67.241460
0
LINE
8
Capa 1
10
106.013201
20
67.241460
11
106.935114
21
68.358826
0
LINE
8
Capa 1
10
106.935114
20
68.358826
11
108.052480
21
69.280739
0
LINE
8
Capa 1
10
108.052480
20
69.280739
11
109.334939
21
69.976841
0
LINE
8
Capa 1
10
109.334939
20
69.976841
11
110.752132
21
70.416771
0
LINE
8
Capa 1
10
110.752132
20
70.416771
11
112.273700
21
70.570170
0
LINE
8
Capa 1
10
112.273700
20
70.570170
11
112.273700
21
70.570170
0
LINE
8
Capa 1
10
28.141400
20
53.593470
11
47.141600
21
53.593400
0
LINE
8
Capa 1
10
47.141600
20
53.593400
11
47.141600
21
34.593500
0
LINE
8
Capa 1
10
47.141600
20
34.593500
11
28.141200
21
34.593500
0
LINE
8
Capa 1
10
28.141200
20
34.593500
11
28.141400
21
53.593470
0
LINE
8
Capa 1
10
53.029800
20
53.593470
11
72.030000
21
53.593400
0
LINE
8
Capa 1
10
72.030000
20
53.593400
11
72.030000
21
34.593500
0
LINE
8
Capa 1
10
72.030000
20
34.593500
11
53.029600
21
34.593500
0
LINE
8
Capa 1
10
53.029600
20
34.593500
11
53.029800
21
53.593470
0
LINE
8
Capa 1
10
77.918700
20
53.593470
11
96.918400
21
53.593400
0
LINE
8
Capa 1
10
96.918400
20
53.593400
11
96.918400
21
34.593500
0
LINE
8
Capa 1
10
96.918400
20
34.593500
11
77.918500
21
34.593500
0
LINE
8
Capa 1
10
77.918500
20
34.593500
11
77.918700
21
53.593470
0
LINE
8
Capa 1
10
102.807100
20
53.593470
11
121.807000
21
53.593400
0
LINE
8
Capa 1
10
121.807000
20
53.593400
11
121.807000
21
34.593500
0
LINE
8
Capa 1
10
121.807000
20
34.593500
11
102.807000
21
34.593500
0
LINE
8
Capa 1
10
102.807000
20
34.593500
11
102.807100
21
53.593470
0
LINE
8
Capa 1
10
3.264300
20
42.748170
11
22.264000
21
42.748100
0
LINE
8
Capa 1
10
22.264000
20
42.748100
11
22.264000
21
23.748200
0
LINE
8
Capa 1
10
22.264000
20
23.748200
11
3.264170
21
23.748200
0
LINE
8
Capa 1
10
3.264170
20
23.748200
11
3.264300
21
42.748170
0
LINE
8
Capa 1
10
28.141300
20
31.886270
11
47.141600
21
31.886200
0
LINE
8
Capa 1
10
47.141600
20
31.886200
11
47.141600
21
12.886300
0
LINE
8
Capa 1
10
47.141600
20
12.886300
11
28.141200
21
12.886300
0
LINE
8
Capa 1
10
28.141200
20
12.886300
11
28.141300
21
31.886270
0
LINE
8
Capa 1
10
53.029700
20
31.886270
11
72.030000
21
31.886200
0
LINE
8
Capa 1
10
72.030000
20
31.886200
11
72.030000
21
12.886300
0
LINE
8
Capa 1
10
72.030000
20
12.886300
11
53.029600
21
12.886300
0
LINE
8
Capa 1
10
53.029600
20
12.886300
11
53.029700
21
31.886270
0
LINE
8
Capa 1
10
77.918600
20
31.886270
11
96.918400
21
31.886200
0
LINE
8
Capa 1
10
96.918400
20
31.886200
11
96.918400
21
12.886300
0
LINE
8
Capa 1
10
96.918400
20
12.886300
11
77.918500
21
12.886300
0
LINE
8
Capa 1
10
77.918500
20
12.886300
11
77.918600
21
31.886270
0
LINE
8
Capa 1
10
102.807000
20
31.886270
11
121.807000
21
31.886200
0
LINE
8
Capa 1
10
121.807000
20
31.886200
11
121.807000
21
12.886300
0
LINE
8
Capa 1
10
121.807000
20
12.886300
11
102.807000
21
12.886300
0
LINE
8
Capa 1
10
102.807000
20
12.886300
11
102.807000
21
31.886270
0
LINE
8
Capa 1
10
24.740900
20
16.263400
11
25.353260
21
16.141538
0
LINE
8
Capa 1
10
25.353260
20
16.141538
11
25.872355
21
15.794587
0
LINE
8
Capa 1
10
25.872355
20
15.794587
11
26.219137
21
15.275379
0
LINE
8
Capa 1
10
26.219137
20
15.275379
11
26.340800
21
14.662980
0
LINE
8
Capa 1
10
26.340800
20
14.662980
11
26.215045
21
14.040244
0
LINE
8
Capa 1
10
26.215045
20
14.040244
11
25.872171
21
13.531709
0
LINE
8
Capa 1
10
25.872171
20
13.531709
11
25.363636
21
13.188835
0
LINE
8
Capa 1
10
25.363636
20
13.188835
11
24.740900
21
13.063080
0
LINE
8
Capa 1
10
24.740900
20
13.063080
11
24.118164
21
13.188835
0
LINE
8
Capa 1
10
24.118164
20
13.188835
11
23.609629
21
13.531709
0
LINE
8
Capa 1
10
23.609629
20
13.531709
11
23.266755
21
14.040244
0
LINE
8
Capa 1
10
23.266755
20
14.040244
11
23.141000
21
14.662980
0
LINE
8
Capa 1
10
23.141000
20
14.662980
11
23.262663
21
15.275379
0
LINE
8
Capa 1
10
23.262663
20
15.275379
11
23.609445
21
15.794587
0
LINE
8
Capa 1
10
23.609445
20
15.794587
11
24.128540
21
16.141538
0
LINE
8
Capa 1
10
24.128540
20
16.141538
11
24.740900
21
16.263400
0
LINE
8
Capa 1
10
24.740900
20
16.263400
11
24.740900
21
16.263400
0
LINE
8
Capa 1
10
99.506900
20
16.263400
11
100.119420
21
16.141688
0
LINE
8
Capa 1
10
100.119420
20
16.141688
11
100.638691
21
15.794771
0
LINE
8
Capa 1
10
100.638691
20
15.794771
11
100.985608
21
15.275500
0
LINE
8
Capa 1
10
100.985608
20
15.275500
11
101.107320
21
14.662980
0
LINE
8
Capa 1
10
101.107320
20
14.662980
11
100.985458
21
14.050620
0
LINE
8
Capa 1
10
100.985458
20
14.050620
11
100.638507
21
13.531525
0
LINE
8
Capa 1
10
100.638507
20
13.531525
11
100.119299
21
13.184743
0
LINE
8
Capa 1
10
100.119299
20
13.184743
11
99.506900
21
13.063080
0
LINE
8
Capa 1
10
99.506900
20
13.063080
11
98.884164
21
13.188835
0
LINE
8
Capa 1
10
98.884164
20
13.188835
11
98.375629
21
13.531709
0
LINE
8
Capa 1
10
98.375629
20
13.531709
11
98.032755
21
14.040244
0
LINE
8
Capa 1
10
98.032755
20
14.040244
11
97.907000
21
14.662980
0
LINE
8
Capa 1
10
97.907000
20
14.662980
11
98.028663
21
15.275379
0
LINE
8
Capa 1
10
98.028663
20
15.275379
11
98.375445
21
15.794587
0
LINE
8
Capa 1
10
98.375445
20
15.794587
11
98.894540
21
16.141538
0
LINE
8
Capa 1
10
98.894540
20
16.141538
11
99.506900
21
16.263400
0
LINE
8
Capa 1
10
99.506900
20
16.263400
11
99.506900
21
16.263400
 0 
ENDSEC
 0 
EOF