999
"DXF R12 Output" (www.mydxf.blogspot.com)
 0 
SECTION
 2 
HEADER
 9 
$ACADVER
 1 
AC1009
 9 
$EXTMIN
 10 
 0 
 20 
 0 
 9 
$EXTMAX
 10 
 8.5 
 20 
 11 
 0 
ENDSEC
 0 
SECTION
 2 
ENTITIES
0
LINE
8
Capa 1
10
0.041570
20
97.958300
11
0.041570
21
0.041750
0
LINE
8
Capa 1
10
0.041570
20
0.041750
11
125.042000
21
0.041750
0
LINE
8
Capa 1
10
125.042000
20
0.041750
11
125.042000
21
97.958300
0
LINE
8
Capa 1
10
125.042000
20
97.958300
11
0.041570
21
97.958300
0
LINE
8
Capa 1
10
24.741370
20
95.937240
11
25.353730
21
95.815378
0
LINE
8
Capa 1
10
25.353730
20
95.815378
11
25.872825
21
95.468427
0
LINE
8
Capa 1
10
25.872825
20
95.468427
11
26.219607
21
94.949219
0
LINE
8
Capa 1
10
26.219607
20
94.949219
11
26.341270
21
94.336820
0
LINE
8
Capa 1
10
26.341270
20
94.336820
11
26.215515
21
93.714084
0
LINE
8
Capa 1
10
26.215515
20
93.714084
11
25.872641
21
93.205549
0
LINE
8
Capa 1
10
25.872641
20
93.205549
11
25.364106
21
92.862675
0
LINE
8
Capa 1
10
25.364106
20
92.862675
11
24.741370
21
92.736920
0
LINE
8
Capa 1
10
24.741370
20
92.736920
11
24.118634
21
92.862675
0
LINE
8
Capa 1
10
24.118634
20
92.862675
11
23.610099
21
93.205549
0
LINE
8
Capa 1
10
23.610099
20
93.205549
11
23.267225
21
93.714084
0
LINE
8
Capa 1
10
23.267225
20
93.714084
11
23.141470
21
94.336820
0
LINE
8
Capa 1
10
23.141470
20
94.336820
11
23.263133
21
94.949219
0
LINE
8
Capa 1
10
23.263133
20
94.949219
11
23.609915
21
95.468427
0
LINE
8
Capa 1
10
23.609915
20
95.468427
11
24.129010
21
95.815378
0
LINE
8
Capa 1
10
24.129010
20
95.815378
11
24.741370
21
95.937240
0
LINE
8
Capa 1
10
24.741370
20
95.937240
11
24.741370
21
95.937240
0
LINE
8
Capa 1
10
99.507370
20
95.937240
11
100.119890
21
95.815528
0
LINE
8
Capa 1
10
100.119890
20
95.815528
11
100.639161
21
95.468611
0
LINE
8
Capa 1
10
100.639161
20
95.468611
11
100.986078
21
94.949340
0
LINE
8
Capa 1
10
100.986078
20
94.949340
11
101.107790
21
94.336820
0
LINE
8
Capa 1
10
101.107790
20
94.336820
11
100.985928
21
93.724460
0
LINE
8
Capa 1
10
100.985928
20
93.724460
11
100.638977
21
93.205365
0
LINE
8
Capa 1
10
100.638977
20
93.205365
11
100.119769
21
92.858583
0
LINE
8
Capa 1
10
100.119769
20
92.858583
11
99.507370
21
92.736920
0
LINE
8
Capa 1
10
99.507370
20
92.736920
11
98.884634
21
92.862675
0
LINE
8
Capa 1
10
98.884634
20
92.862675
11
98.376099
21
93.205549
0
LINE
8
Capa 1
10
98.376099
20
93.205549
11
98.033225
21
93.714084
0
LINE
8
Capa 1
10
98.033225
20
93.714084
11
97.907470
21
94.336820
0
LINE
8
Capa 1
10
97.907470
20
94.336820
11
98.029133
21
94.949219
0
LINE
8
Capa 1
10
98.029133
20
94.949219
11
98.375915
21
95.468427
0
LINE
8
Capa 1
10
98.375915
20
95.468427
11
98.895010
21
95.815378
0
LINE
8
Capa 1
10
98.895010
20
95.815378
11
99.507370
21
95.937240
0
LINE
8
Capa 1
10
99.507370
20
95.937240
11
99.507370
21
95.937240
0
LINE
8
Capa 1
10
62.541670
20
95.010160
11
63.154190
21
94.888448
0
LINE
8
Capa 1
10
63.154190
20
94.888448
11
63.673461
21
94.541531
0
LINE
8
Capa 1
10
63.673461
20
94.541531
11
64.020378
21
94.022260
0
LINE
8
Capa 1
10
64.020378
20
94.022260
11
64.142090
21
93.409740
0
LINE
8
Capa 1
10
64.142090
20
93.409740
11
64.020228
21
92.797380
0
LINE
8
Capa 1
10
64.020228
20
92.797380
11
63.673277
21
92.278285
0
LINE
8
Capa 1
10
63.673277
20
92.278285
11
63.154069
21
91.931503
0
LINE
8
Capa 1
10
63.154069
20
91.931503
11
62.541670
21
91.809840
0
LINE
8
Capa 1
10
62.541670
20
91.809840
11
61.918934
21
91.935595
0
LINE
8
Capa 1
10
61.918934
20
91.935595
11
61.410399
21
92.278469
0
LINE
8
Capa 1
10
61.410399
20
92.278469
11
61.067525
21
92.787004
0
LINE
8
Capa 1
10
61.067525
20
92.787004
11
60.941770
21
93.409740
0
LINE
8
Capa 1
10
60.941770
20
93.409740
11
61.063433
21
94.022139
0
LINE
8
Capa 1
10
61.063433
20
94.022139
11
61.410215
21
94.541347
0
LINE
8
Capa 1
10
61.410215
20
94.541347
11
61.929310
21
94.888298
0
LINE
8
Capa 1
10
61.929310
20
94.888298
11
62.541670
21
95.010160
0
LINE
8
Capa 1
10
62.541670
20
95.010160
11
62.541670
21
95.010160
0
LINE
8
Capa 1
10
62.541670
20
6.190260
11
63.154187
21
6.068549
0
LINE
8
Capa 1
10
63.154187
20
6.068549
11
63.673457
21
5.721634
0
LINE
8
Capa 1
10
63.673457
20
5.721634
11
64.020375
21
5.202366
0
LINE
8
Capa 1
10
64.020375
20
5.202366
11
64.142090
21
4.589850
0
LINE
8
Capa 1
10
64.142090
20
4.589850
11
64.020231
21
3.977487
0
LINE
8
Capa 1
10
64.020231
20
3.977487
11
63.673281
21
3.458389
0
LINE
8
Capa 1
10
63.673281
20
3.458389
11
63.154072
21
3.111604
0
LINE
8
Capa 1
10
63.154072
20
3.111604
11
62.541670
21
2.989940
0
LINE
8
Capa 1
10
62.541670
20
2.989940
11
61.918932
21
3.115696
0
LINE
8
Capa 1
10
61.918932
20
3.115696
11
61.410396
21
3.458573
0
LINE
8
Capa 1
10
61.410396
20
3.458573
11
61.067522
21
3.967111
0
LINE
8
Capa 1
10
61.067522
20
3.967111
11
60.941770
21
4.589850
0
LINE
8
Capa 1
10
60.941770
20
4.589850
11
61.063435
21
5.202246
0
LINE
8
Capa 1
10
61.063435
20
5.202246
11
61.410219
21
5.721451
0
LINE
8
Capa 1
10
61.410219
20
5.721451
11
61.929313
21
6.068399
0
LINE
8
Capa 1
10
61.929313
20
6.068399
11
62.541670
21
6.190260
0
LINE
8
Capa 1
10
62.541670
20
6.190260
11
62.541670
21
6.190260
0
LINE
8
Capa 1
10
24.741370
20
5.263190
11
25.353730
21
5.141328
0
LINE
8
Capa 1
10
25.353730
20
5.141328
11
25.872825
21
4.794377
0
LINE
8
Capa 1
10
25.872825
20
4.794377
11
26.219607
21
4.275169
0
LINE
8
Capa 1
10
26.219607
20
4.275169
11
26.341270
21
3.662770
0
LINE
8
Capa 1
10
26.341270
20
3.662770
11
26.215515
21
3.040034
0
LINE
8
Capa 1
10
26.215515
20
3.040034
11
25.872641
21
2.531499
0
LINE
8
Capa 1
10
25.872641
20
2.531499
11
25.364106
21
2.188625
0
LINE
8
Capa 1
10
25.364106
20
2.188625
11
24.741370
21
2.062870
0
LINE
8
Capa 1
10
24.741370
20
2.062870
11
24.118634
21
2.188625
0
LINE
8
Capa 1
10
24.118634
20
2.188625
11
23.610099
21
2.531499
0
LINE
8
Capa 1
10
23.610099
20
2.531499
11
23.267225
21
3.040034
0
LINE
8
Capa 1
10
23.267225
20
3.040034
11
23.141470
21
3.662770
0
LINE
8
Capa 1
10
23.141470
20
3.662770
11
23.263133
21
4.275169
0
LINE
8
Capa 1
10
23.263133
20
4.275169
11
23.609915
21
4.794377
0
LINE
8
Capa 1
10
23.609915
20
4.794377
11
24.129010
21
5.141328
0
LINE
8
Capa 1
10
24.129010
20
5.141328
11
24.741370
21
5.263190
0
LINE
8
Capa 1
10
24.741370
20
5.263190
11
24.741370
21
5.263190
0
LINE
8
Capa 1
10
99.507370
20
5.263190
11
100.119890
21
5.141478
0
LINE
8
Capa 1
10
100.119890
20
5.141478
11
100.639161
21
4.794561
0
LINE
8
Capa 1
10
100.639161
20
4.794561
11
100.986078
21
4.275290
0
LINE
8
Capa 1
10
100.986078
20
4.275290
11
101.107790
21
3.662770
0
LINE
8
Capa 1
10
101.107790
20
3.662770
11
100.985928
21
3.050410
0
LINE
8
Capa 1
10
100.985928
20
3.050410
11
100.638977
21
2.531315
0
LINE
8
Capa 1
10
100.638977
20
2.531315
11
100.119769
21
2.184533
0
LINE
8
Capa 1
10
100.119769
20
2.184533
11
99.507370
21
2.062870
0
LINE
8
Capa 1
10
99.507370
20
2.062870
11
98.884634
21
2.188625
0
LINE
8
Capa 1
10
98.884634
20
2.188625
11
98.376099
21
2.531499
0
LINE
8
Capa 1
10
98.376099
20
2.531499
11
98.033225
21
3.040034
0
LINE
8
Capa 1
10
98.033225
20
3.040034
11
97.907470
21
3.662770
0
LINE
8
Capa 1
10
97.907470
20
3.662770
11
98.029133
21
4.275169
0
LINE
8
Capa 1
10
98.029133
20
4.275169
11
98.375915
21
4.794377
0
LINE
8
Capa 1
10
98.375915
20
4.794377
11
98.895010
21
5.141328
0
LINE
8
Capa 1
10
98.895010
20
5.141328
11
99.507370
21
5.263190
0
LINE
8
Capa 1
10
99.507370
20
5.263190
11
99.507370
21
5.263190
 0 
ENDSEC
 0 
EOF