999
"DXF R12 Output" (www.mydxf.blogspot.com)
 0 
SECTION
 2 
HEADER
 9 
$ACADVER
 1 
AC1009
 9 
$EXTMIN
 10 
 0 
 20 
 0 
 9 
$EXTMAX
 10 
 8.5 
 20 
 11 
 0 
ENDSEC
 0 
SECTION
 2 
ENTITIES
0
LINE
8
Capa 1
10
10.037900
20
120.038000
11
10.037900
21
115.038000
0
LINE
8
Capa 1
10
10.037900
20
115.038000
11
9.936255
21
114.030343
0
LINE
8
Capa 1
10
9.936255
20
114.030343
11
9.644852
21
113.091819
0
LINE
8
Capa 1
10
9.644852
20
113.091819
11
9.183801
21
112.242531
0
LINE
8
Capa 1
10
9.183801
20
112.242531
11
8.573213
21
111.502584
0
LINE
8
Capa 1
10
8.573213
20
111.502584
11
7.833197
21
110.892083
0
LINE
8
Capa 1
10
7.833197
20
110.892083
11
6.983864
21
110.431132
0
LINE
8
Capa 1
10
6.983864
20
110.431132
11
6.045325
21
110.139836
0
LINE
8
Capa 1
10
6.045325
20
110.139836
11
5.037690
21
110.038300
0
LINE
8
Capa 1
10
5.037690
20
110.038300
11
0.037979
21
110.038000
0
LINE
8
Capa 1
10
0.037979
20
110.038000
11
0.037979
21
10.038000
0
LINE
8
Capa 1
10
0.037979
20
10.038000
11
5.037670
21
10.038000
0
LINE
8
Capa 1
10
5.037670
20
10.038000
11
6.045308
21
9.936460
0
LINE
8
Capa 1
10
6.045308
20
9.936460
11
6.983850
21
9.645162
0
LINE
8
Capa 1
10
6.983850
20
9.645162
11
7.833183
21
9.184210
0
LINE
8
Capa 1
10
7.833183
20
9.184210
11
8.573199
21
8.573707
0
LINE
8
Capa 1
10
8.573199
20
8.573707
11
9.183787
21
7.833760
0
LINE
8
Capa 1
10
9.183787
20
7.833760
11
9.644836
21
6.984472
0
LINE
8
Capa 1
10
9.644836
20
6.984472
11
9.936237
21
6.045947
0
LINE
8
Capa 1
10
9.936237
20
6.045947
11
10.037880
21
5.038290
0
LINE
8
Capa 1
10
10.037880
20
5.038290
11
10.037900
21
0.038050
0
LINE
8
Capa 1
10
10.037900
20
0.038050
11
110.001000
21
0.038050
0
LINE
8
Capa 1
10
110.001000
20
0.038050
11
110.001000
21
5.038250
0
LINE
8
Capa 1
10
110.001000
20
5.038250
11
110.102639
21
6.045907
0
LINE
8
Capa 1
10
110.102639
20
6.045907
11
110.394030
21
6.984432
0
LINE
8
Capa 1
10
110.394030
20
6.984432
11
110.855067
21
7.833720
0
LINE
8
Capa 1
10
110.855067
20
7.833720
11
111.465644
21
8.573668
0
LINE
8
Capa 1
10
111.465644
20
8.573668
11
112.205653
21
9.184170
0
LINE
8
Capa 1
10
112.205653
20
9.184170
11
113.054988
21
9.645122
0
LINE
8
Capa 1
10
113.054988
20
9.645122
11
113.993543
21
9.936420
0
LINE
8
Capa 1
10
113.993543
20
9.936420
11
115.001210
21
10.037960
0
LINE
8
Capa 1
10
115.001210
20
10.037960
11
120.001000
21
10.038000
0
LINE
8
Capa 1
10
120.001000
20
10.038000
11
120.001000
21
110.038000
0
LINE
8
Capa 1
10
120.001000
20
110.038000
11
115.001000
21
110.038000
0
LINE
8
Capa 1
10
115.001000
20
110.038000
11
113.993333
21
110.139536
0
LINE
8
Capa 1
10
113.993333
20
110.139536
11
113.054778
21
110.430832
0
LINE
8
Capa 1
10
113.054778
20
110.430832
11
112.205443
21
110.891783
0
LINE
8
Capa 1
10
112.205443
20
110.891783
11
111.465434
21
111.502284
0
LINE
8
Capa 1
10
111.465434
20
111.502284
11
110.854857
21
112.242231
0
LINE
8
Capa 1
10
110.854857
20
112.242231
11
110.393820
21
113.091519
0
LINE
8
Capa 1
10
110.393820
20
113.091519
11
110.102429
21
114.030043
0
LINE
8
Capa 1
10
110.102429
20
114.030043
11
110.000790
21
115.037700
0
LINE
8
Capa 1
10
110.000790
20
115.037700
11
110.001000
21
120.038000
0
LINE
8
Capa 1
10
110.001000
20
120.038000
11
10.037900
21
120.038000
0
LINE
8
Capa 1
10
22.584900
20
107.504400
11
23.197260
21
107.382538
0
LINE
8
Capa 1
10
23.197260
20
107.382538
11
23.716355
21
107.035587
0
LINE
8
Capa 1
10
23.716355
20
107.035587
11
24.063137
21
106.516379
0
LINE
8
Capa 1
10
24.063137
20
106.516379
11
24.184800
21
105.903980
0
LINE
8
Capa 1
10
24.184800
20
105.903980
11
24.059045
21
105.281244
0
LINE
8
Capa 1
10
24.059045
20
105.281244
11
23.716171
21
104.772709
0
LINE
8
Capa 1
10
23.716171
20
104.772709
11
23.207636
21
104.429835
0
LINE
8
Capa 1
10
23.207636
20
104.429835
11
22.584900
21
104.304080
0
LINE
8
Capa 1
10
22.584900
20
104.304080
11
21.962164
21
104.429835
0
LINE
8
Capa 1
10
21.962164
20
104.429835
11
21.453629
21
104.772709
0
LINE
8
Capa 1
10
21.453629
20
104.772709
11
21.110755
21
105.281244
0
LINE
8
Capa 1
10
21.110755
20
105.281244
11
20.985000
21
105.903980
0
LINE
8
Capa 1
10
20.985000
20
105.903980
11
21.106663
21
106.516379
0
LINE
8
Capa 1
10
21.106663
20
106.516379
11
21.453445
21
107.035587
0
LINE
8
Capa 1
10
21.453445
20
107.035587
11
21.972540
21
107.382538
0
LINE
8
Capa 1
10
21.972540
20
107.382538
11
22.584900
21
107.504400
0
LINE
8
Capa 1
10
22.584900
20
107.504400
11
22.584900
21
107.504400
0
LINE
8
Capa 1
10
97.491400
20
107.504400
11
98.103760
21
107.382538
0
LINE
8
Capa 1
10
98.103760
20
107.382538
11
98.622855
21
107.035587
0
LINE
8
Capa 1
10
98.622855
20
107.035587
11
98.969637
21
106.516379
0
LINE
8
Capa 1
10
98.969637
20
106.516379
11
99.091300
21
105.903980
0
LINE
8
Capa 1
10
99.091300
20
105.903980
11
98.965545
21
105.281244
0
LINE
8
Capa 1
10
98.965545
20
105.281244
11
98.622671
21
104.772709
0
LINE
8
Capa 1
10
98.622671
20
104.772709
11
98.114136
21
104.429835
0
LINE
8
Capa 1
10
98.114136
20
104.429835
11
97.491400
21
104.304080
0
LINE
8
Capa 1
10
97.491400
20
104.304080
11
96.868664
21
104.429835
0
LINE
8
Capa 1
10
96.868664
20
104.429835
11
96.360129
21
104.772709
0
LINE
8
Capa 1
10
96.360129
20
104.772709
11
96.017255
21
105.281244
0
LINE
8
Capa 1
10
96.017255
20
105.281244
11
95.891500
21
105.903980
0
LINE
8
Capa 1
10
95.891500
20
105.903980
11
96.013163
21
106.516379
0
LINE
8
Capa 1
10
96.013163
20
106.516379
11
96.359945
21
107.035587
0
LINE
8
Capa 1
10
96.359945
20
107.035587
11
96.879040
21
107.382538
0
LINE
8
Capa 1
10
96.879040
20
107.382538
11
97.491400
21
107.504400
0
LINE
8
Capa 1
10
97.491400
20
107.504400
11
97.491400
21
107.504400
0
LINE
8
Capa 1
10
9.412500
20
100.765790
11
11.154100
21
100.766000
0
LINE
8
Capa 1
10
11.154100
20
100.766000
11
12.695347
21
100.629287
0
LINE
8
Capa 1
10
12.695347
20
100.629287
11
14.129142
21
100.236987
0
LINE
8
Capa 1
10
14.129142
20
100.236987
11
15.425265
21
99.615862
0
LINE
8
Capa 1
10
15.425265
20
99.615862
11
16.553495
21
98.792673
0
LINE
8
Capa 1
10
16.553495
20
98.792673
11
17.483613
21
97.794179
0
LINE
8
Capa 1
10
17.483613
20
97.794179
11
18.185398
21
96.647142
0
LINE
8
Capa 1
10
18.185398
20
96.647142
11
18.628630
21
95.378322
0
LINE
8
Capa 1
10
18.628630
20
95.378322
11
18.783090
21
94.014480
0
LINE
8
Capa 1
10
18.783090
20
94.014480
11
18.783100
21
85.516500
0
LINE
8
Capa 1
10
18.783100
20
85.516500
11
18.628640
21
84.152683
0
LINE
8
Capa 1
10
18.628640
20
84.152683
11
18.185406
21
82.883924
0
LINE
8
Capa 1
10
18.185406
20
82.883924
11
17.483620
21
81.736970
0
LINE
8
Capa 1
10
17.483620
20
81.736970
11
16.553501
21
80.738571
0
LINE
8
Capa 1
10
16.553501
20
80.738571
11
15.425270
21
79.915476
0
LINE
8
Capa 1
10
15.425270
20
79.915476
11
14.129148
21
79.294433
0
LINE
8
Capa 1
10
14.129148
20
79.294433
11
12.695354
21
78.902191
0
LINE
8
Capa 1
10
12.695354
20
78.902191
11
11.154110
21
78.765500
0
LINE
8
Capa 1
10
11.154110
20
78.765500
11
9.412600
21
78.765500
0
LINE
8
Capa 1
10
9.412600
20
78.765500
11
7.871333
21
78.902191
0
LINE
8
Capa 1
10
7.871333
20
78.902191
11
6.437481
21
79.294433
0
LINE
8
Capa 1
10
6.437481
20
79.294433
11
5.141275
21
79.915476
0
LINE
8
Capa 1
10
5.141275
20
79.915476
11
4.012949
21
80.738571
0
LINE
8
Capa 1
10
4.012949
20
80.738571
11
3.082734
21
81.736970
0
LINE
8
Capa 1
10
3.082734
20
81.736970
11
2.380865
21
82.883924
0
LINE
8
Capa 1
10
2.380865
20
82.883924
11
1.937572
21
84.152683
0
LINE
8
Capa 1
10
1.937572
20
84.152683
11
1.783090
21
85.516500
0
LINE
8
Capa 1
10
1.783090
20
85.516500
11
1.783090
21
94.014200
0
LINE
8
Capa 1
10
1.783090
20
94.014200
11
1.937572
21
95.378042
0
LINE
8
Capa 1
10
1.937572
20
95.378042
11
2.380865
21
96.646862
0
LINE
8
Capa 1
10
2.380865
20
96.646862
11
3.082734
21
97.793899
0
LINE
8
Capa 1
10
3.082734
20
97.793899
11
4.012949
21
98.792393
0
LINE
8
Capa 1
10
4.012949
20
98.792393
11
5.141275
21
99.615582
0
LINE
8
Capa 1
10
5.141275
20
99.615582
11
6.437481
21
100.236707
0
LINE
8
Capa 1
10
6.437481
20
100.236707
11
7.871333
21
100.629007
0
LINE
8
Capa 1
10
7.871333
20
100.629007
11
9.412600
21
100.765720
0
LINE
8
Capa 1
10
9.412600
20
100.765720
11
9.412500
21
100.765790
0
LINE
8
Capa 1
10
34.289500
20
100.765790
11
36.031600
21
100.766000
0
LINE
8
Capa 1
10
36.031600
20
100.766000
11
37.572847
21
100.629287
0
LINE
8
Capa 1
10
37.572847
20
100.629287
11
39.006642
21
100.236989
0
LINE
8
Capa 1
10
39.006642
20
100.236989
11
40.302765
21
99.615865
0
LINE
8
Capa 1
10
40.302765
20
99.615865
11
41.430995
21
98.792676
0
LINE
8
Capa 1
10
41.430995
20
98.792676
11
42.361113
21
97.794183
0
LINE
8
Capa 1
10
42.361113
20
97.794183
11
43.062898
21
96.647146
0
LINE
8
Capa 1
10
43.062898
20
96.647146
11
43.506130
21
95.378325
0
LINE
8
Capa 1
10
43.506130
20
95.378325
11
43.660590
21
94.014480
0
LINE
8
Capa 1
10
43.660590
20
94.014480
11
43.660600
21
85.516500
0
LINE
8
Capa 1
10
43.660600
20
85.516500
11
43.506140
21
84.152681
0
LINE
8
Capa 1
10
43.506140
20
84.152681
11
43.062908
21
82.883920
0
LINE
8
Capa 1
10
43.062908
20
82.883920
11
42.361123
21
81.736966
0
LINE
8
Capa 1
10
42.361123
20
81.736966
11
41.431005
21
80.738567
0
LINE
8
Capa 1
10
41.431005
20
80.738567
11
40.302775
21
79.915473
0
LINE
8
Capa 1
10
40.302775
20
79.915473
11
39.006652
21
79.294432
0
LINE
8
Capa 1
10
39.006652
20
79.294432
11
37.572857
21
78.902191
0
LINE
8
Capa 1
10
37.572857
20
78.902191
11
36.031610
21
78.765500
0
LINE
8
Capa 1
10
36.031610
20
78.765500
11
34.289600
21
78.765500
0
LINE
8
Capa 1
10
34.289600
20
78.765500
11
32.748353
21
78.902191
0
LINE
8
Capa 1
10
32.748353
20
78.902191
11
31.314558
21
79.294432
0
LINE
8
Capa 1
10
31.314558
20
79.294432
11
30.018435
21
79.915473
0
LINE
8
Capa 1
10
30.018435
20
79.915473
11
28.890205
21
80.738568
0
LINE
8
Capa 1
10
28.890205
20
80.738568
11
27.960087
21
81.736966
0
LINE
8
Capa 1
10
27.960087
20
81.736966
11
27.258302
21
82.883920
0
LINE
8
Capa 1
10
27.258302
20
82.883920
11
26.815070
21
84.152681
0
LINE
8
Capa 1
10
26.815070
20
84.152681
11
26.660610
21
85.516500
0
LINE
8
Capa 1
10
26.660610
20
85.516500
11
26.660600
21
94.014200
0
LINE
8
Capa 1
10
26.660600
20
94.014200
11
26.815060
21
95.378045
0
LINE
8
Capa 1
10
26.815060
20
95.378045
11
27.258292
21
96.646866
0
LINE
8
Capa 1
10
27.258292
20
96.646866
11
27.960077
21
97.793903
0
LINE
8
Capa 1
10
27.960077
20
97.793903
11
28.890195
21
98.792396
0
LINE
8
Capa 1
10
28.890195
20
98.792396
11
30.018425
21
99.615585
0
LINE
8
Capa 1
10
30.018425
20
99.615585
11
31.314548
21
100.236709
0
LINE
8
Capa 1
10
31.314548
20
100.236709
11
32.748343
21
100.629007
0
LINE
8
Capa 1
10
32.748343
20
100.629007
11
34.289590
21
100.765720
0
LINE
8
Capa 1
10
34.289590
20
100.765720
11
34.289500
21
100.765790
0
LINE
8
Capa 1
10
59.167100
20
100.765790
11
60.909200
21
100.766000
0
LINE
8
Capa 1
10
60.909200
20
100.766000
11
62.450447
21
100.629288
0
LINE
8
Capa 1
10
62.450447
20
100.629288
11
63.884242
21
100.236990
0
LINE
8
Capa 1
10
63.884242
20
100.236990
11
65.180365
21
99.615868
0
LINE
8
Capa 1
10
65.180365
20
99.615868
11
66.308595
21
98.792680
0
LINE
8
Capa 1
10
66.308595
20
98.792680
11
67.238713
21
97.794188
0
LINE
8
Capa 1
10
67.238713
20
97.794188
11
67.940498
21
96.647150
0
LINE
8
Capa 1
10
67.940498
20
96.647150
11
68.383730
21
95.378328
0
LINE
8
Capa 1
10
68.383730
20
95.378328
11
68.538190
21
94.014480
0
LINE
8
Capa 1
10
68.538190
20
94.014480
11
68.538200
21
85.516500
0
LINE
8
Capa 1
10
68.538200
20
85.516500
11
68.383740
21
84.152678
0
LINE
8
Capa 1
10
68.383740
20
84.152678
11
67.940508
21
82.883915
0
LINE
8
Capa 1
10
67.940508
20
82.883915
11
67.238723
21
81.736961
0
LINE
8
Capa 1
10
67.238723
20
81.736961
11
66.308605
21
80.738564
0
LINE
8
Capa 1
10
66.308605
20
80.738564
11
65.180375
21
79.915471
0
LINE
8
Capa 1
10
65.180375
20
79.915471
11
63.884252
21
79.294430
0
LINE
8
Capa 1
10
63.884252
20
79.294430
11
62.450457
21
78.902191
0
LINE
8
Capa 1
10
62.450457
20
78.902191
11
60.909210
21
78.765500
0
LINE
8
Capa 1
10
60.909210
20
78.765500
11
59.167200
21
78.765500
0
LINE
8
Capa 1
10
59.167200
20
78.765500
11
57.625949
21
78.902191
0
LINE
8
Capa 1
10
57.625949
20
78.902191
11
56.192152
21
79.294430
0
LINE
8
Capa 1
10
56.192152
20
79.294430
11
54.896028
21
79.915471
0
LINE
8
Capa 1
10
54.896028
20
79.915471
11
53.767796
21
80.738564
0
LINE
8
Capa 1
10
53.767796
20
80.738564
11
52.837678
21
81.736961
0
LINE
8
Capa 1
10
52.837678
20
81.736961
11
52.135892
21
82.883915
0
LINE
8
Capa 1
10
52.135892
20
82.883915
11
51.692660
21
84.152678
0
LINE
8
Capa 1
10
51.692660
20
84.152678
11
51.538200
21
85.516500
0
LINE
8
Capa 1
10
51.538200
20
85.516500
11
51.538200
21
94.014200
0
LINE
8
Capa 1
10
51.538200
20
94.014200
11
51.692660
21
95.378048
0
LINE
8
Capa 1
10
51.692660
20
95.378048
11
52.135892
21
96.646870
0
LINE
8
Capa 1
10
52.135892
20
96.646870
11
52.837678
21
97.793908
0
LINE
8
Capa 1
10
52.837678
20
97.793908
11
53.767796
21
98.792400
0
LINE
8
Capa 1
10
53.767796
20
98.792400
11
54.896028
21
99.615588
0
LINE
8
Capa 1
10
54.896028
20
99.615588
11
56.192152
21
100.236710
0
LINE
8
Capa 1
10
56.192152
20
100.236710
11
57.625949
21
100.629008
0
LINE
8
Capa 1
10
57.625949
20
100.629008
11
59.167200
21
100.765720
0
LINE
8
Capa 1
10
59.167200
20
100.765720
11
59.167100
21
100.765790
0
LINE
8
Capa 1
10
84.044600
20
100.765790
11
85.786200
21
100.766000
0
LINE
8
Capa 1
10
85.786200
20
100.766000
11
87.327450
21
100.629288
0
LINE
8
Capa 1
10
87.327450
20
100.629288
11
88.761246
21
100.236990
0
LINE
8
Capa 1
10
88.761246
20
100.236990
11
90.057369
21
99.615868
0
LINE
8
Capa 1
10
90.057369
20
99.615868
11
91.185599
21
98.792680
0
LINE
8
Capa 1
10
91.185599
20
98.792680
11
92.115715
21
97.794188
0
LINE
8
Capa 1
10
92.115715
20
97.794188
11
92.817499
21
96.647150
0
LINE
8
Capa 1
10
92.817499
20
96.647150
11
93.260731
21
95.378328
0
LINE
8
Capa 1
10
93.260731
20
95.378328
11
93.415190
21
94.014480
0
LINE
8
Capa 1
10
93.415190
20
94.014480
11
93.415200
21
85.516500
0
LINE
8
Capa 1
10
93.415200
20
85.516500
11
93.260741
21
84.152678
0
LINE
8
Capa 1
10
93.260741
20
84.152678
11
92.817509
21
82.883915
0
LINE
8
Capa 1
10
92.817509
20
82.883915
11
92.115725
21
81.736961
0
LINE
8
Capa 1
10
92.115725
20
81.736961
11
91.185609
21
80.738564
0
LINE
8
Capa 1
10
91.185609
20
80.738564
11
90.057379
21
79.915471
0
LINE
8
Capa 1
10
90.057379
20
79.915471
11
88.761256
21
79.294430
0
LINE
8
Capa 1
10
88.761256
20
79.294430
11
87.327460
21
78.902191
0
LINE
8
Capa 1
10
87.327460
20
78.902191
11
85.786210
21
78.765500
0
LINE
8
Capa 1
10
85.786210
20
78.765500
11
84.044700
21
78.765500
0
LINE
8
Capa 1
10
84.044700
20
78.765500
11
82.503428
21
78.902190
0
LINE
8
Capa 1
10
82.503428
20
78.902190
11
81.069572
21
79.294429
0
LINE
8
Capa 1
10
81.069572
20
79.294429
11
79.773366
21
79.915468
0
LINE
8
Capa 1
10
79.773366
20
79.915468
11
78.645041
21
80.738560
0
LINE
8
Capa 1
10
78.645041
20
80.738560
11
77.714829
21
81.736957
0
LINE
8
Capa 1
10
77.714829
20
81.736957
11
77.012962
21
82.883911
0
LINE
8
Capa 1
10
77.012962
20
82.883911
11
76.569672
21
84.152675
0
LINE
8
Capa 1
10
76.569672
20
84.152675
11
76.415190
21
85.516500
0
LINE
8
Capa 1
10
76.415190
20
85.516500
11
76.415200
21
94.014200
0
LINE
8
Capa 1
10
76.415200
20
94.014200
11
76.569682
21
95.378048
0
LINE
8
Capa 1
10
76.569682
20
95.378048
11
77.012972
21
96.646870
0
LINE
8
Capa 1
10
77.012972
20
96.646870
11
77.714839
21
97.793908
0
LINE
8
Capa 1
10
77.714839
20
97.793908
11
78.645051
21
98.792400
0
LINE
8
Capa 1
10
78.645051
20
98.792400
11
79.773376
21
99.615588
0
LINE
8
Capa 1
10
79.773376
20
99.615588
11
81.069582
21
100.236710
0
LINE
8
Capa 1
10
81.069582
20
100.236710
11
82.503438
21
100.629008
0
LINE
8
Capa 1
10
82.503438
20
100.629008
11
84.044710
21
100.765720
0
LINE
8
Capa 1
10
84.044710
20
100.765720
11
84.044600
21
100.765790
0
LINE
8
Capa 1
10
108.921600
20
100.765790
11
110.664000
21
100.766000
0
LINE
8
Capa 1
10
110.664000
20
100.766000
11
112.205204
21
100.629288
0
LINE
8
Capa 1
10
112.205204
20
100.629288
11
113.638979
21
100.236991
0
LINE
8
Capa 1
10
113.638979
20
100.236991
11
114.935099
21
99.615870
0
LINE
8
Capa 1
10
114.935099
20
99.615870
11
116.063339
21
98.792684
0
LINE
8
Capa 1
10
116.063339
20
98.792684
11
116.993473
21
97.794192
0
LINE
8
Capa 1
10
116.993473
20
97.794192
11
117.695277
21
96.647154
0
LINE
8
Capa 1
10
117.695277
20
96.647154
11
118.138524
21
95.378330
0
LINE
8
Capa 1
10
118.138524
20
95.378330
11
118.292990
21
94.014480
0
LINE
8
Capa 1
10
118.292990
20
94.014480
11
118.293000
21
85.516500
0
LINE
8
Capa 1
10
118.293000
20
85.516500
11
118.138534
21
84.152675
0
LINE
8
Capa 1
10
118.138534
20
84.152675
11
117.695287
21
82.883911
0
LINE
8
Capa 1
10
117.695287
20
82.883911
11
116.993483
21
81.736957
0
LINE
8
Capa 1
10
116.993483
20
81.736957
11
116.063349
21
80.738560
0
LINE
8
Capa 1
10
116.063349
20
80.738560
11
114.935109
21
79.915468
0
LINE
8
Capa 1
10
114.935109
20
79.915468
11
113.638989
21
79.294429
0
LINE
8
Capa 1
10
113.638989
20
79.294429
11
112.205214
21
78.902190
0
LINE
8
Capa 1
10
112.205214
20
78.902190
11
110.664010
21
78.765500
0
LINE
8
Capa 1
10
110.664010
20
78.765500
11
108.922000
21
78.765500
0
LINE
8
Capa 1
10
108.922000
20
78.765500
11
107.380796
21
78.902190
0
LINE
8
Capa 1
10
107.380796
20
78.902190
11
105.947021
21
79.294427
0
LINE
8
Capa 1
10
105.947021
20
79.294427
11
104.650901
21
79.915465
0
LINE
8
Capa 1
10
104.650901
20
79.915465
11
103.522661
21
80.738556
0
LINE
8
Capa 1
10
103.522661
20
80.738556
11
102.592527
21
81.736953
0
LINE
8
Capa 1
10
102.592527
20
81.736953
11
101.890723
21
82.883907
0
LINE
8
Capa 1
10
101.890723
20
82.883907
11
101.447476
21
84.152672
0
LINE
8
Capa 1
10
101.447476
20
84.152672
11
101.293010
21
85.516500
0
LINE
8
Capa 1
10
101.293010
20
85.516500
11
101.293000
21
94.014200
0
LINE
8
Capa 1
10
101.293000
20
94.014200
11
101.447466
21
95.378050
0
LINE
8
Capa 1
10
101.447466
20
95.378050
11
101.890713
21
96.646874
0
LINE
8
Capa 1
10
101.890713
20
96.646874
11
102.592517
21
97.793912
0
LINE
8
Capa 1
10
102.592517
20
97.793912
11
103.522651
21
98.792404
0
LINE
8
Capa 1
10
103.522651
20
98.792404
11
104.650891
21
99.615590
0
LINE
8
Capa 1
10
104.650891
20
99.615590
11
105.947011
21
100.236711
0
LINE
8
Capa 1
10
105.947011
20
100.236711
11
107.380786
21
100.629008
0
LINE
8
Capa 1
10
107.380786
20
100.629008
11
108.921990
21
100.765720
0
LINE
8
Capa 1
10
108.921990
20
100.765720
11
108.921600
21
100.765790
0
LINE
8
Capa 1
10
10.283300
20
70.607900
11
11.804867
21
70.454501
0
LINE
8
Capa 1
10
11.804867
20
70.454501
11
13.222059
21
70.014572
0
LINE
8
Capa 1
10
13.222059
20
70.014572
11
14.504517
21
69.318471
0
LINE
8
Capa 1
10
14.504517
20
69.318471
11
15.621883
21
68.396560
0
LINE
8
Capa 1
10
15.621883
20
68.396560
11
16.543796
21
67.279196
0
LINE
8
Capa 1
10
16.543796
20
67.279196
11
17.239898
21
65.996738
0
LINE
8
Capa 1
10
17.239898
20
65.996738
11
17.679829
21
64.579546
0
LINE
8
Capa 1
10
17.679829
20
64.579546
11
17.833230
21
63.057980
0
LINE
8
Capa 1
10
17.833230
20
63.057980
11
17.679831
21
61.536412
0
LINE
8
Capa 1
10
17.679831
20
61.536412
11
17.239901
21
60.119219
0
LINE
8
Capa 1
10
17.239901
20
60.119219
11
16.543799
21
58.836760
0
LINE
8
Capa 1
10
16.543799
20
58.836760
11
15.621886
21
57.719394
0
LINE
8
Capa 1
10
15.621886
20
57.719394
11
14.504520
21
56.797481
0
LINE
8
Capa 1
10
14.504520
20
56.797481
11
13.222061
21
56.101379
0
LINE
8
Capa 1
10
13.222061
20
56.101379
11
11.804868
21
55.661449
0
LINE
8
Capa 1
10
11.804868
20
55.661449
11
10.283300
21
55.508050
0
LINE
8
Capa 1
10
10.283300
20
55.508050
11
8.761732
21
55.661449
0
LINE
8
Capa 1
10
8.761732
20
55.661449
11
7.344539
21
56.101379
0
LINE
8
Capa 1
10
7.344539
20
56.101379
11
6.062080
21
56.797481
0
LINE
8
Capa 1
10
6.062080
20
56.797481
11
4.944714
21
57.719394
0
LINE
8
Capa 1
10
4.944714
20
57.719394
11
4.022801
21
58.836760
0
LINE
8
Capa 1
10
4.022801
20
58.836760
11
3.326699
21
60.119219
0
LINE
8
Capa 1
10
3.326699
20
60.119219
11
2.886769
21
61.536412
0
LINE
8
Capa 1
10
2.886769
20
61.536412
11
2.733370
21
63.057980
0
LINE
8
Capa 1
10
2.733370
20
63.057980
11
2.886771
21
64.579546
0
LINE
8
Capa 1
10
2.886771
20
64.579546
11
3.326702
21
65.996738
0
LINE
8
Capa 1
10
3.326702
20
65.996738
11
4.022804
21
67.279196
0
LINE
8
Capa 1
10
4.022804
20
67.279196
11
4.944717
21
68.396560
0
LINE
8
Capa 1
10
4.944717
20
68.396560
11
6.062083
21
69.318471
0
LINE
8
Capa 1
10
6.062083
20
69.318471
11
7.344541
21
70.014572
0
LINE
8
Capa 1
10
7.344541
20
70.014572
11
8.761733
21
70.454501
0
LINE
8
Capa 1
10
8.761733
20
70.454501
11
10.283300
21
70.607900
0
LINE
8
Capa 1
10
10.283300
20
70.607900
11
10.283300
21
70.607900
0
LINE
8
Capa 1
10
35.160900
20
70.607900
11
36.682467
21
70.454501
0
LINE
8
Capa 1
10
36.682467
20
70.454501
11
38.099659
21
70.014572
0
LINE
8
Capa 1
10
38.099659
20
70.014572
11
39.382117
21
69.318471
0
LINE
8
Capa 1
10
39.382117
20
69.318471
11
40.499483
21
68.396560
0
LINE
8
Capa 1
10
40.499483
20
68.396560
11
41.421396
21
67.279196
0
LINE
8
Capa 1
10
41.421396
20
67.279196
11
42.117498
21
65.996738
0
LINE
8
Capa 1
10
42.117498
20
65.996738
11
42.557429
21
64.579546
0
LINE
8
Capa 1
10
42.557429
20
64.579546
11
42.710830
21
63.057980
0
LINE
8
Capa 1
10
42.710830
20
63.057980
11
42.557431
21
61.536412
0
LINE
8
Capa 1
10
42.557431
20
61.536412
11
42.117501
21
60.119219
0
LINE
8
Capa 1
10
42.117501
20
60.119219
11
41.421399
21
58.836760
0
LINE
8
Capa 1
10
41.421399
20
58.836760
11
40.499486
21
57.719394
0
LINE
8
Capa 1
10
40.499486
20
57.719394
11
39.382120
21
56.797481
0
LINE
8
Capa 1
10
39.382120
20
56.797481
11
38.099661
21
56.101379
0
LINE
8
Capa 1
10
38.099661
20
56.101379
11
36.682468
21
55.661449
0
LINE
8
Capa 1
10
36.682468
20
55.661449
11
35.160900
21
55.508050
0
LINE
8
Capa 1
10
35.160900
20
55.508050
11
33.681035
21
55.654385
0
LINE
8
Capa 1
10
33.681035
20
55.654385
11
32.271521
21
56.082627
0
LINE
8
Capa 1
10
32.271521
20
56.082627
11
30.971967
21
56.776371
0
LINE
8
Capa 1
10
30.971967
20
56.776371
11
29.821984
21
57.719213
0
LINE
8
Capa 1
10
29.821984
20
57.719213
11
28.879064
21
58.869133
0
LINE
8
Capa 1
10
28.879064
20
58.869133
11
28.185232
21
60.168640
0
LINE
8
Capa 1
10
28.185232
20
60.168640
11
27.756894
21
61.578125
0
LINE
8
Capa 1
10
27.756894
20
61.578125
11
27.610460
21
63.057980
0
LINE
8
Capa 1
10
27.610460
20
63.057980
11
27.756896
21
64.537833
0
LINE
8
Capa 1
10
27.756896
20
64.537833
11
28.185235
21
65.947317
0
LINE
8
Capa 1
10
28.185235
20
65.947317
11
28.879068
21
67.246822
0
LINE
8
Capa 1
10
28.879068
20
67.246822
11
29.821988
21
68.396740
0
LINE
8
Capa 1
10
29.821988
20
68.396740
11
30.971970
21
69.339581
0
LINE
8
Capa 1
10
30.971970
20
69.339581
11
32.271523
21
70.033324
0
LINE
8
Capa 1
10
32.271523
20
70.033324
11
33.681037
21
70.461566
0
LINE
8
Capa 1
10
33.681037
20
70.461566
11
35.160900
21
70.607900
0
LINE
8
Capa 1
10
35.160900
20
70.607900
11
35.160900
21
70.607900
0
LINE
8
Capa 1
10
60.037900
20
70.607900
11
61.559467
21
70.454501
0
LINE
8
Capa 1
10
61.559467
20
70.454501
11
62.976659
21
70.014572
0
LINE
8
Capa 1
10
62.976659
20
70.014572
11
64.259117
21
69.318471
0
LINE
8
Capa 1
10
64.259117
20
69.318471
11
65.376483
21
68.396560
0
LINE
8
Capa 1
10
65.376483
20
68.396560
11
66.298396
21
67.279196
0
LINE
8
Capa 1
10
66.298396
20
67.279196
11
66.994498
21
65.996738
0
LINE
8
Capa 1
10
66.994498
20
65.996738
11
67.434429
21
64.579546
0
LINE
8
Capa 1
10
67.434429
20
64.579546
11
67.587830
21
63.057980
0
LINE
8
Capa 1
10
67.587830
20
63.057980
11
67.434431
21
61.536412
0
LINE
8
Capa 1
10
67.434431
20
61.536412
11
66.994501
21
60.119219
0
LINE
8
Capa 1
10
66.994501
20
60.119219
11
66.298399
21
58.836760
0
LINE
8
Capa 1
10
66.298399
20
58.836760
11
65.376486
21
57.719394
0
LINE
8
Capa 1
10
65.376486
20
57.719394
11
64.259120
21
56.797481
0
LINE
8
Capa 1
10
64.259120
20
56.797481
11
62.976661
21
56.101379
0
LINE
8
Capa 1
10
62.976661
20
56.101379
11
61.559468
21
55.661449
0
LINE
8
Capa 1
10
61.559468
20
55.661449
11
60.037900
21
55.508050
0
LINE
8
Capa 1
10
60.037900
20
55.508050
11
58.516334
21
55.661451
0
LINE
8
Capa 1
10
58.516334
20
55.661451
11
57.099142
21
56.101382
0
LINE
8
Capa 1
10
57.099142
20
56.101382
11
55.816684
21
56.797484
0
LINE
8
Capa 1
10
55.816684
20
56.797484
11
54.699320
21
57.719397
0
LINE
8
Capa 1
10
54.699320
20
57.719397
11
53.777409
21
58.836763
0
LINE
8
Capa 1
10
53.777409
20
58.836763
11
53.081308
21
60.119221
0
LINE
8
Capa 1
10
53.081308
20
60.119221
11
52.641379
21
61.536413
0
LINE
8
Capa 1
10
52.641379
20
61.536413
11
52.487980
21
63.057980
0
LINE
8
Capa 1
10
52.487980
20
63.057980
11
52.641381
21
64.579545
0
LINE
8
Capa 1
10
52.641381
20
64.579545
11
53.081311
21
65.996736
0
LINE
8
Capa 1
10
53.081311
20
65.996736
11
53.777412
21
67.279192
0
LINE
8
Capa 1
10
53.777412
20
67.279192
11
54.699324
21
68.396556
0
LINE
8
Capa 1
10
54.699324
20
68.396556
11
55.816688
21
69.318468
0
LINE
8
Capa 1
10
55.816688
20
69.318468
11
57.099144
21
70.014569
0
LINE
8
Capa 1
10
57.099144
20
70.014569
11
58.516335
21
70.454499
0
LINE
8
Capa 1
10
58.516335
20
70.454499
11
60.037900
21
70.607900
0
LINE
8
Capa 1
10
60.037900
20
70.607900
11
60.037900
21
70.607900
0
LINE
8
Capa 1
10
84.915500
20
70.607900
11
86.437067
21
70.454501
0
LINE
8
Capa 1
10
86.437067
20
70.454501
11
87.854259
21
70.014572
0
LINE
8
Capa 1
10
87.854259
20
70.014572
11
89.136717
21
69.318471
0
LINE
8
Capa 1
10
89.136717
20
69.318471
11
90.254083
21
68.396560
0
LINE
8
Capa 1
10
90.254083
20
68.396560
11
91.175996
21
67.279196
0
LINE
8
Capa 1
10
91.175996
20
67.279196
11
91.872098
21
65.996738
0
LINE
8
Capa 1
10
91.872098
20
65.996738
11
92.312029
21
64.579546
0
LINE
8
Capa 1
10
92.312029
20
64.579546
11
92.465430
21
63.057980
0
LINE
8
Capa 1
10
92.465430
20
63.057980
11
92.312031
21
61.536412
0
LINE
8
Capa 1
10
92.312031
20
61.536412
11
91.872101
21
60.119219
0
LINE
8
Capa 1
10
91.872101
20
60.119219
11
91.175999
21
58.836760
0
LINE
8
Capa 1
10
91.175999
20
58.836760
11
90.254086
21
57.719394
0
LINE
8
Capa 1
10
90.254086
20
57.719394
11
89.136720
21
56.797481
0
LINE
8
Capa 1
10
89.136720
20
56.797481
11
87.854261
21
56.101379
0
LINE
8
Capa 1
10
87.854261
20
56.101379
11
86.437068
21
55.661449
0
LINE
8
Capa 1
10
86.437068
20
55.661449
11
84.915500
21
55.508050
0
LINE
8
Capa 1
10
84.915500
20
55.508050
11
83.393934
21
55.661451
0
LINE
8
Capa 1
10
83.393934
20
55.661451
11
81.976742
21
56.101382
0
LINE
8
Capa 1
10
81.976742
20
56.101382
11
80.694284
21
56.797484
0
LINE
8
Capa 1
10
80.694284
20
56.797484
11
79.576920
21
57.719397
0
LINE
8
Capa 1
10
79.576920
20
57.719397
11
78.655009
21
58.836763
0
LINE
8
Capa 1
10
78.655009
20
58.836763
11
77.958908
21
60.119221
0
LINE
8
Capa 1
10
77.958908
20
60.119221
11
77.518979
21
61.536413
0
LINE
8
Capa 1
10
77.518979
20
61.536413
11
77.365580
21
63.057980
0
LINE
8
Capa 1
10
77.365580
20
63.057980
11
77.518981
21
64.579545
0
LINE
8
Capa 1
10
77.518981
20
64.579545
11
77.958911
21
65.996736
0
LINE
8
Capa 1
10
77.958911
20
65.996736
11
78.655012
21
67.279192
0
LINE
8
Capa 1
10
78.655012
20
67.279192
11
79.576924
21
68.396556
0
LINE
8
Capa 1
10
79.576924
20
68.396556
11
80.694288
21
69.318468
0
LINE
8
Capa 1
10
80.694288
20
69.318468
11
81.976744
21
70.014569
0
LINE
8
Capa 1
10
81.976744
20
70.014569
11
83.393935
21
70.454499
0
LINE
8
Capa 1
10
83.393935
20
70.454499
11
84.915500
21
70.607900
0
LINE
8
Capa 1
10
84.915500
20
70.607900
11
84.915500
21
70.607900
0
LINE
8
Capa 1
10
109.793100
20
70.607900
11
111.314665
21
70.454499
0
LINE
8
Capa 1
10
111.314665
20
70.454499
11
112.731856
21
70.014569
0
LINE
8
Capa 1
10
112.731856
20
70.014569
11
114.014312
21
69.318468
0
LINE
8
Capa 1
10
114.014312
20
69.318468
11
115.131676
21
68.396556
0
LINE
8
Capa 1
10
115.131676
20
68.396556
11
116.053588
21
67.279192
0
LINE
8
Capa 1
10
116.053588
20
67.279192
11
116.749689
21
65.996736
0
LINE
8
Capa 1
10
116.749689
20
65.996736
11
117.189619
21
64.579545
0
LINE
8
Capa 1
10
117.189619
20
64.579545
11
117.343020
21
63.057980
0
LINE
8
Capa 1
10
117.343020
20
63.057980
11
117.189621
21
61.536413
0
LINE
8
Capa 1
10
117.189621
20
61.536413
11
116.749692
21
60.119221
0
LINE
8
Capa 1
10
116.749692
20
60.119221
11
116.053591
21
58.836763
0
LINE
8
Capa 1
10
116.053591
20
58.836763
11
115.131680
21
57.719397
0
LINE
8
Capa 1
10
115.131680
20
57.719397
11
114.014316
21
56.797484
0
LINE
8
Capa 1
10
114.014316
20
56.797484
11
112.731858
21
56.101382
0
LINE
8
Capa 1
10
112.731858
20
56.101382
11
111.314666
21
55.661451
0
LINE
8
Capa 1
10
111.314666
20
55.661451
11
109.793100
21
55.508050
0
LINE
8
Capa 1
10
109.793100
20
55.508050
11
108.313234
21
55.654383
0
LINE
8
Capa 1
10
108.313234
20
55.654383
11
106.903718
21
56.082624
0
LINE
8
Capa 1
10
106.903718
20
56.082624
11
105.604163
21
56.776368
0
LINE
8
Capa 1
10
105.604163
20
56.776368
11
104.454178
21
57.719210
0
LINE
8
Capa 1
10
104.454178
20
57.719210
11
103.511256
21
58.869130
0
LINE
8
Capa 1
10
103.511256
20
58.869130
11
102.817423
21
60.168638
0
LINE
8
Capa 1
10
102.817423
20
60.168638
11
102.389085
21
61.578124
0
LINE
8
Capa 1
10
102.389085
20
61.578124
11
102.242650
21
63.057980
0
LINE
8
Capa 1
10
102.242650
20
63.057980
11
102.389086
21
64.537835
0
LINE
8
Capa 1
10
102.389086
20
64.537835
11
102.817426
21
65.947319
0
LINE
8
Capa 1
10
102.817426
20
65.947319
11
103.511260
21
67.246825
0
LINE
8
Capa 1
10
103.511260
20
67.246825
11
104.454181
21
68.396744
0
LINE
8
Capa 1
10
104.454181
20
68.396744
11
105.604166
21
69.339584
0
LINE
8
Capa 1
10
105.604166
20
69.339584
11
106.903720
21
70.033327
0
LINE
8
Capa 1
10
106.903720
20
70.033327
11
108.313235
21
70.461567
0
LINE
8
Capa 1
10
108.313235
20
70.461567
11
109.793100
21
70.607900
0
LINE
8
Capa 1
10
109.793100
20
70.607900
11
109.793100
21
70.607900
0
LINE
8
Capa 1
10
25.660800
20
54.689500
11
44.660600
21
54.689500
0
LINE
8
Capa 1
10
44.660600
20
54.689500
11
44.660600
21
35.689600
0
LINE
8
Capa 1
10
44.660600
20
35.689600
11
25.660700
21
35.689600
0
LINE
8
Capa 1
10
25.660700
20
35.689600
11
25.660800
21
54.689500
0
LINE
8
Capa 1
10
50.538400
20
54.689500
11
69.538100
21
54.689500
0
LINE
8
Capa 1
10
69.538100
20
54.689500
11
69.538100
21
35.689600
0
LINE
8
Capa 1
10
69.538100
20
35.689600
11
50.538300
21
35.689600
0
LINE
8
Capa 1
10
50.538300
20
35.689600
11
50.538400
21
54.689500
0
LINE
8
Capa 1
10
75.415400
20
54.689500
11
94.415700
21
54.689500
0
LINE
8
Capa 1
10
94.415700
20
54.689500
11
94.415700
21
35.689600
0
LINE
8
Capa 1
10
94.415700
20
35.689600
11
75.415300
21
35.689600
0
LINE
8
Capa 1
10
75.415300
20
35.689600
11
75.415400
21
54.689500
0
LINE
8
Capa 1
10
100.292900
20
54.689500
11
119.293000
21
54.689500
0
LINE
8
Capa 1
10
119.293000
20
54.689500
11
119.293000
21
35.689600
0
LINE
8
Capa 1
10
119.293000
20
35.689600
11
100.293000
21
35.689600
0
LINE
8
Capa 1
10
100.293000
20
35.689600
11
100.292900
21
54.689500
0
LINE
8
Capa 1
10
0.783200
20
44.637900
11
19.783500
21
44.637900
0
LINE
8
Capa 1
10
19.783500
20
44.637900
11
19.783500
21
25.638000
0
LINE
8
Capa 1
10
19.783500
20
25.638000
11
0.783153
21
25.638000
0
LINE
8
Capa 1
10
0.783153
20
25.638000
11
0.783200
21
44.637900
0
LINE
8
Capa 1
10
25.660800
20
34.586300
11
44.660600
21
34.586300
0
LINE
8
Capa 1
10
44.660600
20
34.586300
11
44.660600
21
15.586400
0
LINE
8
Capa 1
10
44.660600
20
15.586400
11
25.660700
21
15.586400
0
LINE
8
Capa 1
10
25.660700
20
15.586400
11
25.660800
21
34.586300
0
LINE
8
Capa 1
10
50.538400
20
34.586300
11
69.538100
21
34.586300
0
LINE
8
Capa 1
10
69.538100
20
34.586300
11
69.538100
21
15.586400
0
LINE
8
Capa 1
10
69.538100
20
15.586400
11
50.538300
21
15.586400
0
LINE
8
Capa 1
10
50.538300
20
15.586400
11
50.538400
21
34.586300
0
LINE
8
Capa 1
10
75.415400
20
34.586300
11
94.415700
21
34.586300
0
LINE
8
Capa 1
10
94.415700
20
34.586300
11
94.415700
21
15.586400
0
LINE
8
Capa 1
10
94.415700
20
15.586400
11
75.415300
21
15.586400
0
LINE
8
Capa 1
10
75.415300
20
15.586400
11
75.415400
21
34.586300
0
LINE
8
Capa 1
10
100.293000
20
34.586300
11
119.293000
21
34.586300
0
LINE
8
Capa 1
10
119.293000
20
34.586300
11
119.293000
21
15.586400
0
LINE
8
Capa 1
10
119.293000
20
15.586400
11
100.293000
21
15.586400
0
LINE
8
Capa 1
10
100.293000
20
15.586400
11
100.293000
21
34.586300
0
LINE
8
Capa 1
10
22.585100
20
15.771900
11
23.197460
21
15.650038
0
LINE
8
Capa 1
10
23.197460
20
15.650038
11
23.716555
21
15.303087
0
LINE
8
Capa 1
10
23.716555
20
15.303087
11
24.063337
21
14.783879
0
LINE
8
Capa 1
10
24.063337
20
14.783879
11
24.185000
21
14.171480
0
LINE
8
Capa 1
10
24.185000
20
14.171480
11
24.059245
21
13.548744
0
LINE
8
Capa 1
10
24.059245
20
13.548744
11
23.716371
21
13.040209
0
LINE
8
Capa 1
10
23.716371
20
13.040209
11
23.207836
21
12.697335
0
LINE
8
Capa 1
10
23.207836
20
12.697335
11
22.585100
21
12.571580
0
LINE
8
Capa 1
10
22.585100
20
12.571580
11
21.962364
21
12.697335
0
LINE
8
Capa 1
10
21.962364
20
12.697335
11
21.453829
21
13.040209
0
LINE
8
Capa 1
10
21.453829
20
13.040209
11
21.110955
21
13.548744
0
LINE
8
Capa 1
10
21.110955
20
13.548744
11
20.985200
21
14.171480
0
LINE
8
Capa 1
10
20.985200
20
14.171480
11
21.106863
21
14.783879
0
LINE
8
Capa 1
10
21.106863
20
14.783879
11
21.453645
21
15.303087
0
LINE
8
Capa 1
10
21.453645
20
15.303087
11
21.972740
21
15.650038
0
LINE
8
Capa 1
10
21.972740
20
15.650038
11
22.585100
21
15.771900
0
LINE
8
Capa 1
10
22.585100
20
15.771900
11
22.585100
21
15.771900
0
LINE
8
Capa 1
10
97.491600
20
15.771900
11
98.103960
21
15.650038
0
LINE
8
Capa 1
10
98.103960
20
15.650038
11
98.623055
21
15.303087
0
LINE
8
Capa 1
10
98.623055
20
15.303087
11
98.969837
21
14.783879
0
LINE
8
Capa 1
10
98.969837
20
14.783879
11
99.091500
21
14.171480
0
LINE
8
Capa 1
10
99.091500
20
14.171480
11
98.965745
21
13.548744
0
LINE
8
Capa 1
10
98.965745
20
13.548744
11
98.622871
21
13.040209
0
LINE
8
Capa 1
10
98.622871
20
13.040209
11
98.114336
21
12.697335
0
LINE
8
Capa 1
10
98.114336
20
12.697335
11
97.491600
21
12.571580
0
LINE
8
Capa 1
10
97.491600
20
12.571580
11
96.868864
21
12.697335
0
LINE
8
Capa 1
10
96.868864
20
12.697335
11
96.360329
21
13.040209
0
LINE
8
Capa 1
10
96.360329
20
13.040209
11
96.017455
21
13.548744
0
LINE
8
Capa 1
10
96.017455
20
13.548744
11
95.891700
21
14.171480
0
LINE
8
Capa 1
10
95.891700
20
14.171480
11
96.013363
21
14.783879
0
LINE
8
Capa 1
10
96.013363
20
14.783879
11
96.360145
21
15.303087
0
LINE
8
Capa 1
10
96.360145
20
15.303087
11
96.879240
21
15.650038
0
LINE
8
Capa 1
10
96.879240
20
15.650038
11
97.491600
21
15.771900
0
LINE
8
Capa 1
10
97.491600
20
15.771900
11
97.491600
21
15.771900
 0 
ENDSEC
 0 
EOF