999
"DXF R12 Output" (www.mydxf.blogspot.com)
 0 
SECTION
 2 
HEADER
 9 
$ACADVER
 1 
AC1009
 9 
$EXTMIN
 10 
 0 
 20 
 0 
 9 
$EXTMAX
 10 
 8.5 
 20 
 11 
 0 
ENDSEC
 0 
SECTION
 2 
ENTITIES
0
LINE
8
Capa 1
10
-0.000030
20
119.916000
11
-0.000030
21
-0.000350
0
LINE
8
Capa 1
10
-0.000030
20
-0.000350
11
124.917000
21
-0.000350
0
LINE
8
Capa 1
10
124.917000
20
-0.000350
11
124.917000
21
119.916000
0
LINE
8
Capa 1
10
124.917000
20
119.916000
11
-0.000030
21
119.916000
0
LINE
8
Capa 1
10
4.728880
20
116.809730
11
5.222907
21
116.731230
0
LINE
8
Capa 1
10
5.222907
20
116.731230
11
5.454934
21
116.635130
0
LINE
8
Capa 1
10
5.454934
20
116.635130
11
5.860077
21
116.341090
0
LINE
8
Capa 1
10
5.860077
20
116.341090
11
6.153816
21
115.937026
0
LINE
8
Capa 1
10
6.153816
20
115.937026
11
6.308629
21
115.462070
0
LINE
8
Capa 1
10
6.308629
20
115.462070
11
6.309145
21
115.460070
0
LINE
8
Capa 1
10
6.309145
20
115.460070
11
6.309662
21
115.456070
0
LINE
8
Capa 1
10
6.309662
20
115.456070
11
6.328782
21
115.209570
0
LINE
8
Capa 1
10
6.328782
20
115.209570
11
6.207343
21
114.600310
0
LINE
8
Capa 1
10
6.207343
20
114.600310
11
6.204743
21
114.595310
0
LINE
8
Capa 1
10
6.204743
20
114.595310
11
5.863162
21
114.083200
0
LINE
8
Capa 1
10
5.863162
20
114.083200
11
5.855362
21
114.075200
0
LINE
8
Capa 1
10
5.855362
20
114.075200
11
5.343249
21
113.733620
0
LINE
8
Capa 1
10
5.343249
20
113.733620
11
5.338049
21
113.730620
0
LINE
8
Capa 1
10
5.338049
20
113.730620
11
4.728784
21
113.609180
0
LINE
8
Capa 1
10
4.728784
20
113.609180
11
4.119519
21
113.730620
0
LINE
8
Capa 1
10
4.119519
20
113.730620
11
4.113319
21
113.733620
0
LINE
8
Capa 1
10
4.113319
20
113.733620
11
3.601722
21
114.075200
0
LINE
8
Capa 1
10
3.601722
20
114.075200
11
3.593922
21
114.083200
0
LINE
8
Capa 1
10
3.593922
20
114.083200
11
3.251824
21
114.595310
0
LINE
8
Capa 1
10
3.251824
20
114.595310
11
3.249724
21
114.600310
0
LINE
8
Capa 1
10
3.249724
20
114.600310
11
3.128284
21
115.209570
0
LINE
8
Capa 1
10
3.128284
20
115.209570
11
3.249724
21
115.819870
0
LINE
8
Capa 1
10
3.249724
20
115.819870
11
3.251824
21
115.823870
0
LINE
8
Capa 1
10
3.251824
20
115.823870
11
3.594955
21
116.338050
0
LINE
8
Capa 1
10
3.594955
20
116.338050
11
3.600155
21
116.343050
0
LINE
8
Capa 1
10
3.600155
20
116.343050
11
4.114336
21
116.686190
0
LINE
8
Capa 1
10
4.114336
20
116.686190
11
4.118436
21
116.688190
0
LINE
8
Capa 1
10
4.118436
20
116.688190
11
4.728734
21
116.809630
0
LINE
8
Capa 1
10
4.728734
20
116.809630
11
4.728880
21
116.809730
0
LINE
8
Capa 1
10
120.146880
20
116.809730
11
120.641430
21
116.731230
0
LINE
8
Capa 1
10
120.641430
20
116.731230
11
120.872420
21
116.635630
0
LINE
8
Capa 1
10
120.872420
20
116.635630
11
120.873420
21
116.635120
0
LINE
8
Capa 1
10
120.873420
20
116.635120
11
120.873940
21
116.634600
0
LINE
8
Capa 1
10
120.873940
20
116.634600
11
121.087360
21
116.503860
0
LINE
8
Capa 1
10
121.087360
20
116.503860
11
121.276500
21
116.342630
0
LINE
8
Capa 1
10
121.276500
20
116.342630
11
121.278500
21
116.340630
0
LINE
8
Capa 1
10
121.278500
20
116.340630
11
121.280500
21
116.338630
0
LINE
8
Capa 1
10
121.280500
20
116.338630
11
121.442250
21
116.149490
0
LINE
8
Capa 1
10
121.442250
20
116.149490
11
121.572990
21
115.936070
0
LINE
8
Capa 1
10
121.572990
20
115.936070
11
121.573510
21
115.935550
0
LINE
8
Capa 1
10
121.573510
20
115.935550
11
121.573510
21
115.935040
0
LINE
8
Capa 1
10
121.573510
20
115.935040
11
121.669110
21
115.705080
0
LINE
8
Capa 1
10
121.669110
20
115.705080
11
121.669620
21
115.703080
0
LINE
8
Capa 1
10
121.669620
20
115.703080
11
121.669620
21
115.702560
0
LINE
8
Capa 1
10
121.669620
20
115.702560
11
121.669620
21
115.702040
0
LINE
8
Capa 1
10
121.669620
20
115.702040
11
121.727520
21
115.461750
0
LINE
8
Capa 1
10
121.727520
20
115.461750
11
121.728040
21
115.458750
0
LINE
8
Capa 1
10
121.728040
20
115.458750
11
121.728550
21
115.454750
0
LINE
8
Capa 1
10
121.728550
20
115.454750
11
121.747650
21
115.208250
0
LINE
8
Capa 1
10
121.747650
20
115.208250
11
121.626210
21
114.598990
0
LINE
8
Capa 1
10
121.626210
20
114.598990
11
121.623210
21
114.593990
0
LINE
8
Capa 1
10
121.623210
20
114.593990
11
121.281630
21
114.081880
0
LINE
8
Capa 1
10
121.281630
20
114.081880
11
121.273630
21
114.073880
0
LINE
8
Capa 1
10
121.273630
20
114.073880
11
120.763070
21
113.732820
0
LINE
8
Capa 1
10
120.763070
20
113.732820
11
120.756070
21
113.729820
0
LINE
8
Capa 1
10
120.756070
20
113.729820
11
120.147320
21
113.608380
0
LINE
8
Capa 1
10
120.147320
20
113.608380
11
119.538570
21
113.729820
0
LINE
8
Capa 1
10
119.538570
20
113.729820
11
119.531570
21
113.732820
0
LINE
8
Capa 1
10
119.531570
20
113.732820
11
119.021010
21
114.073880
0
LINE
8
Capa 1
10
119.021010
20
114.073880
11
119.013010
21
114.081880
0
LINE
8
Capa 1
10
119.013010
20
114.081880
11
118.672470
21
114.591410
0
LINE
8
Capa 1
10
118.672470
20
114.591410
11
118.667470
21
114.601410
0
LINE
8
Capa 1
10
118.667470
20
114.601410
11
118.547060
21
115.208610
0
LINE
8
Capa 1
10
118.547060
20
115.208610
11
118.667470
21
115.815810
0
LINE
8
Capa 1
10
118.667470
20
115.815810
11
118.672470
21
115.826110
0
LINE
8
Capa 1
10
118.672470
20
115.826110
11
119.013010
21
116.335640
0
LINE
8
Capa 1
10
119.013010
20
116.335640
11
119.021010
21
116.343640
0
LINE
8
Capa 1
10
119.021010
20
116.343640
11
119.531570
21
116.684700
0
LINE
8
Capa 1
10
119.531570
20
116.684700
11
119.538570
21
116.687700
0
LINE
8
Capa 1
10
119.538570
20
116.687700
11
120.147320
21
116.809140
0
LINE
8
Capa 1
10
120.147320
20
116.809140
11
120.146880
21
116.809730
0
LINE
8
Capa 1
10
24.699980
20
106.895090
11
25.312340
21
106.773228
0
LINE
8
Capa 1
10
25.312340
20
106.773228
11
25.831435
21
106.426277
0
LINE
8
Capa 1
10
25.831435
20
106.426277
11
26.178217
21
105.907069
0
LINE
8
Capa 1
10
26.178217
20
105.907069
11
26.299880
21
105.294670
0
LINE
8
Capa 1
10
26.299880
20
105.294670
11
26.174125
21
104.671934
0
LINE
8
Capa 1
10
26.174125
20
104.671934
11
25.831251
21
104.163399
0
LINE
8
Capa 1
10
25.831251
20
104.163399
11
25.322716
21
103.820525
0
LINE
8
Capa 1
10
25.322716
20
103.820525
11
24.699980
21
103.694770
0
LINE
8
Capa 1
10
24.699980
20
103.694770
11
24.077244
21
103.820525
0
LINE
8
Capa 1
10
24.077244
20
103.820525
11
23.568709
21
104.163399
0
LINE
8
Capa 1
10
23.568709
20
104.163399
11
23.225835
21
104.671934
0
LINE
8
Capa 1
10
23.225835
20
104.671934
11
23.100080
21
105.294670
0
LINE
8
Capa 1
10
23.100080
20
105.294670
11
23.221743
21
105.907069
0
LINE
8
Capa 1
10
23.221743
20
105.907069
11
23.568525
21
106.426277
0
LINE
8
Capa 1
10
23.568525
20
106.426277
11
24.087620
21
106.773228
0
LINE
8
Capa 1
10
24.087620
20
106.773228
11
24.699980
21
106.895090
0
LINE
8
Capa 1
10
24.699980
20
106.895090
11
24.699980
21
106.895090
0
LINE
8
Capa 1
10
99.465980
20
106.895090
11
100.078500
21
106.773378
0
LINE
8
Capa 1
10
100.078500
20
106.773378
11
100.597771
21
106.426461
0
LINE
8
Capa 1
10
100.597771
20
106.426461
11
100.944688
21
105.907190
0
LINE
8
Capa 1
10
100.944688
20
105.907190
11
101.066400
21
105.294670
0
LINE
8
Capa 1
10
101.066400
20
105.294670
11
100.944538
21
104.682310
0
LINE
8
Capa 1
10
100.944538
20
104.682310
11
100.597587
21
104.163215
0
LINE
8
Capa 1
10
100.597587
20
104.163215
11
100.078379
21
103.816433
0
LINE
8
Capa 1
10
100.078379
20
103.816433
11
99.465980
21
103.694770
0
LINE
8
Capa 1
10
99.465980
20
103.694770
11
98.843244
21
103.820525
0
LINE
8
Capa 1
10
98.843244
20
103.820525
11
98.334709
21
104.163399
0
LINE
8
Capa 1
10
98.334709
20
104.163399
11
97.991835
21
104.671934
0
LINE
8
Capa 1
10
97.991835
20
104.671934
11
97.866080
21
105.294670
0
LINE
8
Capa 1
10
97.866080
20
105.294670
11
97.987743
21
105.907069
0
LINE
8
Capa 1
10
97.987743
20
105.907069
11
98.334525
21
106.426277
0
LINE
8
Capa 1
10
98.334525
20
106.426277
11
98.853620
21
106.773228
0
LINE
8
Capa 1
10
98.853620
20
106.773228
11
99.465980
21
106.895090
0
LINE
8
Capa 1
10
99.465980
20
106.895090
11
99.465980
21
106.895090
0
LINE
8
Capa 1
10
12.722980
20
98.860440
11
13.899027
21
98.744109
0
LINE
8
Capa 1
10
13.899027
20
98.744109
11
15.019159
21
98.403747
0
LINE
8
Capa 1
10
15.019159
20
98.403747
11
16.051898
21
97.852393
0
LINE
8
Capa 1
10
16.051898
20
97.852393
11
16.965767
21
97.103084
0
LINE
8
Capa 1
10
16.965767
20
97.103084
11
17.715077
21
96.189217
0
LINE
8
Capa 1
10
17.715077
20
96.189217
11
18.266433
21
95.156478
0
LINE
8
Capa 1
10
18.266433
20
95.156478
11
18.606797
21
94.036347
0
LINE
8
Capa 1
10
18.606797
20
94.036347
11
18.723130
21
92.860300
0
LINE
8
Capa 1
10
18.723130
20
92.860300
11
18.626738
21
91.785427
0
LINE
8
Capa 1
10
18.626738
20
91.785427
11
18.347911
21
90.769208
0
LINE
8
Capa 1
10
18.347911
20
90.769208
11
17.902345
21
89.830219
0
LINE
8
Capa 1
10
17.902345
20
89.830219
11
17.305742
21
88.987035
0
LINE
8
Capa 1
10
17.305742
20
88.987035
11
16.573799
21
88.258231
0
LINE
8
Capa 1
10
16.573799
20
88.258231
11
15.722215
21
87.662384
0
LINE
8
Capa 1
10
15.722215
20
87.662384
11
14.766689
21
87.218068
0
LINE
8
Capa 1
10
14.766689
20
87.218068
11
13.722920
21
86.943860
0
LINE
8
Capa 1
10
13.722920
20
86.943860
11
13.722600
21
87.860400
0
LINE
8
Capa 1
10
13.722600
20
87.860400
11
11.722800
21
87.860400
0
LINE
8
Capa 1
10
11.722800
20
87.860400
11
11.722800
21
86.944200
0
LINE
8
Capa 1
10
11.722800
20
86.944200
11
10.679031
21
87.218408
0
LINE
8
Capa 1
10
10.679031
20
87.218408
11
9.723505
21
87.662724
0
LINE
8
Capa 1
10
9.723505
20
87.662724
11
8.871921
21
88.258571
0
LINE
8
Capa 1
10
8.871921
20
88.258571
11
8.139978
21
88.987375
0
LINE
8
Capa 1
10
8.139978
20
88.987375
11
7.543375
21
89.830559
0
LINE
8
Capa 1
10
7.543375
20
89.830559
11
7.097809
21
90.769548
0
LINE
8
Capa 1
10
7.097809
20
90.769548
11
6.818982
21
91.785767
0
LINE
8
Capa 1
10
6.818982
20
91.785767
11
6.722590
21
92.860640
0
LINE
8
Capa 1
10
6.722590
20
92.860640
11
6.838923
21
94.036687
0
LINE
8
Capa 1
10
6.838923
20
94.036687
11
7.179287
21
95.156818
0
LINE
8
Capa 1
10
7.179287
20
95.156818
11
7.730643
21
96.189557
0
LINE
8
Capa 1
10
7.730643
20
96.189557
11
8.479953
21
97.103424
0
LINE
8
Capa 1
10
8.479953
20
97.103424
11
9.393822
21
97.852733
0
LINE
8
Capa 1
10
9.393822
20
97.852733
11
10.426561
21
98.404087
0
LINE
8
Capa 1
10
10.426561
20
98.404087
11
11.546693
21
98.744449
0
LINE
8
Capa 1
10
11.546693
20
98.744449
11
12.722740
21
98.860780
0
LINE
8
Capa 1
10
12.722740
20
98.860780
11
12.722980
21
98.860440
0
LINE
8
Capa 1
10
37.600580
20
98.860440
11
38.776627
21
98.744109
0
LINE
8
Capa 1
10
38.776627
20
98.744109
11
39.896759
21
98.403747
0
LINE
8
Capa 1
10
39.896759
20
98.403747
11
40.929498
21
97.852393
0
LINE
8
Capa 1
10
40.929498
20
97.852393
11
41.843367
21
97.103084
0
LINE
8
Capa 1
10
41.843367
20
97.103084
11
42.592677
21
96.189217
0
LINE
8
Capa 1
10
42.592677
20
96.189217
11
43.144033
21
95.156478
0
LINE
8
Capa 1
10
43.144033
20
95.156478
11
43.484397
21
94.036347
0
LINE
8
Capa 1
10
43.484397
20
94.036347
11
43.600730
21
92.860300
0
LINE
8
Capa 1
10
43.600730
20
92.860300
11
43.504338
21
91.785427
0
LINE
8
Capa 1
10
43.504338
20
91.785427
11
43.225511
21
90.769208
0
LINE
8
Capa 1
10
43.225511
20
90.769208
11
42.779945
21
89.830219
0
LINE
8
Capa 1
10
42.779945
20
89.830219
11
42.183342
21
88.987035
0
LINE
8
Capa 1
10
42.183342
20
88.987035
11
41.451399
21
88.258231
0
LINE
8
Capa 1
10
41.451399
20
88.258231
11
40.599815
21
87.662384
0
LINE
8
Capa 1
10
40.599815
20
87.662384
11
39.644289
21
87.218068
0
LINE
8
Capa 1
10
39.644289
20
87.218068
11
38.600520
21
86.943860
0
LINE
8
Capa 1
10
38.600520
20
86.943860
11
38.600200
21
87.860400
0
LINE
8
Capa 1
10
38.600200
20
87.860400
11
36.600300
21
87.860400
0
LINE
8
Capa 1
10
36.600300
20
87.860400
11
36.600300
21
86.944200
0
LINE
8
Capa 1
10
36.600300
20
86.944200
11
35.556531
21
87.218408
0
LINE
8
Capa 1
10
35.556531
20
87.218408
11
34.601005
21
87.662724
0
LINE
8
Capa 1
10
34.601005
20
87.662724
11
33.749421
21
88.258571
0
LINE
8
Capa 1
10
33.749421
20
88.258571
11
33.017478
21
88.987375
0
LINE
8
Capa 1
10
33.017478
20
88.987375
11
32.420875
21
89.830559
0
LINE
8
Capa 1
10
32.420875
20
89.830559
11
31.975309
21
90.769548
0
LINE
8
Capa 1
10
31.975309
20
90.769548
11
31.696482
21
91.785767
0
LINE
8
Capa 1
10
31.696482
20
91.785767
11
31.600090
21
92.860640
0
LINE
8
Capa 1
10
31.600090
20
92.860640
11
31.716423
21
94.036687
0
LINE
8
Capa 1
10
31.716423
20
94.036687
11
32.056787
21
95.156818
0
LINE
8
Capa 1
10
32.056787
20
95.156818
11
32.608143
21
96.189557
0
LINE
8
Capa 1
10
32.608143
20
96.189557
11
33.357453
21
97.103424
0
LINE
8
Capa 1
10
33.357453
20
97.103424
11
34.271322
21
97.852733
0
LINE
8
Capa 1
10
34.271322
20
97.852733
11
35.304061
21
98.404087
0
LINE
8
Capa 1
10
35.304061
20
98.404087
11
36.424193
21
98.744449
0
LINE
8
Capa 1
10
36.424193
20
98.744449
11
37.600240
21
98.860780
0
LINE
8
Capa 1
10
37.600240
20
98.860780
11
37.600580
21
98.860440
0
LINE
8
Capa 1
10
62.478180
20
98.860440
11
63.654227
21
98.744109
0
LINE
8
Capa 1
10
63.654227
20
98.744109
11
64.774359
21
98.403747
0
LINE
8
Capa 1
10
64.774359
20
98.403747
11
65.807098
21
97.852393
0
LINE
8
Capa 1
10
65.807098
20
97.852393
11
66.720967
21
97.103084
0
LINE
8
Capa 1
10
66.720967
20
97.103084
11
67.470277
21
96.189217
0
LINE
8
Capa 1
10
67.470277
20
96.189217
11
68.021633
21
95.156478
0
LINE
8
Capa 1
10
68.021633
20
95.156478
11
68.361997
21
94.036347
0
LINE
8
Capa 1
10
68.361997
20
94.036347
11
68.478330
21
92.860300
0
LINE
8
Capa 1
10
68.478330
20
92.860300
11
68.381938
21
91.785427
0
LINE
8
Capa 1
10
68.381938
20
91.785427
11
68.103111
21
90.769208
0
LINE
8
Capa 1
10
68.103111
20
90.769208
11
67.657545
21
89.830219
0
LINE
8
Capa 1
10
67.657545
20
89.830219
11
67.060942
21
88.987035
0
LINE
8
Capa 1
10
67.060942
20
88.987035
11
66.328999
21
88.258231
0
LINE
8
Capa 1
10
66.328999
20
88.258231
11
65.477415
21
87.662384
0
LINE
8
Capa 1
10
65.477415
20
87.662384
11
64.521889
21
87.218068
0
LINE
8
Capa 1
10
64.521889
20
87.218068
11
63.478120
21
86.943860
0
LINE
8
Capa 1
10
63.478120
20
86.943860
11
63.477800
21
87.860400
0
LINE
8
Capa 1
10
63.477800
20
87.860400
11
61.477900
21
87.860400
0
LINE
8
Capa 1
10
61.477900
20
87.860400
11
61.477900
21
86.944200
0
LINE
8
Capa 1
10
61.477900
20
86.944200
11
60.434131
21
87.218408
0
LINE
8
Capa 1
10
60.434131
20
87.218408
11
59.478605
21
87.662724
0
LINE
8
Capa 1
10
59.478605
20
87.662724
11
58.627021
21
88.258571
0
LINE
8
Capa 1
10
58.627021
20
88.258571
11
57.895078
21
88.987375
0
LINE
8
Capa 1
10
57.895078
20
88.987375
11
57.298475
21
89.830559
0
LINE
8
Capa 1
10
57.298475
20
89.830559
11
56.852909
21
90.769548
0
LINE
8
Capa 1
10
56.852909
20
90.769548
11
56.574082
21
91.785767
0
LINE
8
Capa 1
10
56.574082
20
91.785767
11
56.477690
21
92.860640
0
LINE
8
Capa 1
10
56.477690
20
92.860640
11
56.594023
21
94.036687
0
LINE
8
Capa 1
10
56.594023
20
94.036687
11
56.934387
21
95.156818
0
LINE
8
Capa 1
10
56.934387
20
95.156818
11
57.485743
21
96.189557
0
LINE
8
Capa 1
10
57.485743
20
96.189557
11
58.235053
21
97.103424
0
LINE
8
Capa 1
10
58.235053
20
97.103424
11
59.148922
21
97.852733
0
LINE
8
Capa 1
10
59.148922
20
97.852733
11
60.181661
21
98.404087
0
LINE
8
Capa 1
10
60.181661
20
98.404087
11
61.301793
21
98.744449
0
LINE
8
Capa 1
10
61.301793
20
98.744449
11
62.477840
21
98.860780
0
LINE
8
Capa 1
10
62.477840
20
98.860780
11
62.478180
21
98.860440
0
LINE
8
Capa 1
10
87.355180
20
98.860440
11
88.531227
21
98.744109
0
LINE
8
Capa 1
10
88.531227
20
98.744109
11
89.651359
21
98.403747
0
LINE
8
Capa 1
10
89.651359
20
98.403747
11
90.684098
21
97.852393
0
LINE
8
Capa 1
10
90.684098
20
97.852393
11
91.597967
21
97.103084
0
LINE
8
Capa 1
10
91.597967
20
97.103084
11
92.347277
21
96.189217
0
LINE
8
Capa 1
10
92.347277
20
96.189217
11
92.898633
21
95.156478
0
LINE
8
Capa 1
10
92.898633
20
95.156478
11
93.238997
21
94.036347
0
LINE
8
Capa 1
10
93.238997
20
94.036347
11
93.355330
21
92.860300
0
LINE
8
Capa 1
10
93.355330
20
92.860300
11
93.258938
21
91.785427
0
LINE
8
Capa 1
10
93.258938
20
91.785427
11
92.980111
21
90.769208
0
LINE
8
Capa 1
10
92.980111
20
90.769208
11
92.534545
21
89.830219
0
LINE
8
Capa 1
10
92.534545
20
89.830219
11
91.937942
21
88.987035
0
LINE
8
Capa 1
10
91.937942
20
88.987035
11
91.205999
21
88.258231
0
LINE
8
Capa 1
10
91.205999
20
88.258231
11
90.354415
21
87.662384
0
LINE
8
Capa 1
10
90.354415
20
87.662384
11
89.398889
21
87.218068
0
LINE
8
Capa 1
10
89.398889
20
87.218068
11
88.355120
21
86.943860
0
LINE
8
Capa 1
10
88.355120
20
86.943860
11
88.354800
21
87.860400
0
LINE
8
Capa 1
10
88.354800
20
87.860400
11
86.354900
21
87.860400
0
LINE
8
Capa 1
10
86.354900
20
87.860400
11
86.354900
21
86.944200
0
LINE
8
Capa 1
10
86.354900
20
86.944200
11
85.311130
21
87.218407
0
LINE
8
Capa 1
10
85.311130
20
87.218407
11
84.355602
21
87.662722
0
LINE
8
Capa 1
10
84.355602
20
87.662722
11
83.504017
21
88.258568
0
LINE
8
Capa 1
10
83.504017
20
88.258568
11
82.772072
21
88.987372
0
LINE
8
Capa 1
10
82.772072
20
88.987372
11
82.175467
21
89.830556
0
LINE
8
Capa 1
10
82.175467
20
89.830556
11
81.729901
21
90.769546
0
LINE
8
Capa 1
10
81.729901
20
90.769546
11
81.451072
21
91.785766
0
LINE
8
Capa 1
10
81.451072
20
91.785766
11
81.354680
21
92.860640
0
LINE
8
Capa 1
10
81.354680
20
92.860640
11
81.471013
21
94.036687
0
LINE
8
Capa 1
10
81.471013
20
94.036687
11
81.811377
21
95.156818
0
LINE
8
Capa 1
10
81.811377
20
95.156818
11
82.362733
21
96.189557
0
LINE
8
Capa 1
10
82.362733
20
96.189557
11
83.112043
21
97.103424
0
LINE
8
Capa 1
10
83.112043
20
97.103424
11
84.025912
21
97.852733
0
LINE
8
Capa 1
10
84.025912
20
97.852733
11
85.058651
21
98.404087
0
LINE
8
Capa 1
10
85.058651
20
98.404087
11
86.178783
21
98.744449
0
LINE
8
Capa 1
10
86.178783
20
98.744449
11
87.354830
21
98.860780
0
LINE
8
Capa 1
10
87.354830
20
98.860780
11
87.355180
21
98.860440
0
LINE
8
Capa 1
10
112.232780
20
98.860440
11
113.408827
21
98.744109
0
LINE
8
Capa 1
10
113.408827
20
98.744109
11
114.528959
21
98.403747
0
LINE
8
Capa 1
10
114.528959
20
98.403747
11
115.561698
21
97.852393
0
LINE
8
Capa 1
10
115.561698
20
97.852393
11
116.475567
21
97.103084
0
LINE
8
Capa 1
10
116.475567
20
97.103084
11
117.224877
21
96.189217
0
LINE
8
Capa 1
10
117.224877
20
96.189217
11
117.776233
21
95.156478
0
LINE
8
Capa 1
10
117.776233
20
95.156478
11
118.116597
21
94.036347
0
LINE
8
Capa 1
10
118.116597
20
94.036347
11
118.232930
21
92.860300
0
LINE
8
Capa 1
10
118.232930
20
92.860300
11
118.136538
21
91.785427
0
LINE
8
Capa 1
10
118.136538
20
91.785427
11
117.857711
21
90.769208
0
LINE
8
Capa 1
10
117.857711
20
90.769208
11
117.412145
21
89.830219
0
LINE
8
Capa 1
10
117.412145
20
89.830219
11
116.815542
21
88.987035
0
LINE
8
Capa 1
10
116.815542
20
88.987035
11
116.083599
21
88.258231
0
LINE
8
Capa 1
10
116.083599
20
88.258231
11
115.232015
21
87.662384
0
LINE
8
Capa 1
10
115.232015
20
87.662384
11
114.276489
21
87.218068
0
LINE
8
Capa 1
10
114.276489
20
87.218068
11
113.232720
21
86.943860
0
LINE
8
Capa 1
10
113.232720
20
86.943860
11
113.232000
21
87.860400
0
LINE
8
Capa 1
10
113.232000
20
87.860400
11
111.232000
21
87.860400
0
LINE
8
Capa 1
10
111.232000
20
87.860400
11
111.232000
21
86.944200
0
LINE
8
Capa 1
10
111.232000
20
86.944200
11
110.188231
21
87.218408
0
LINE
8
Capa 1
10
110.188231
20
87.218408
11
109.232705
21
87.662724
0
LINE
8
Capa 1
10
109.232705
20
87.662724
11
108.381121
21
88.258571
0
LINE
8
Capa 1
10
108.381121
20
88.258571
11
107.649178
21
88.987375
0
LINE
8
Capa 1
10
107.649178
20
88.987375
11
107.052575
21
89.830559
0
LINE
8
Capa 1
10
107.052575
20
89.830559
11
106.607009
21
90.769548
0
LINE
8
Capa 1
10
106.607009
20
90.769548
11
106.328182
21
91.785767
0
LINE
8
Capa 1
10
106.328182
20
91.785767
11
106.231790
21
92.860640
0
LINE
8
Capa 1
10
106.231790
20
92.860640
11
106.348123
21
94.036687
0
LINE
8
Capa 1
10
106.348123
20
94.036687
11
106.688487
21
95.156818
0
LINE
8
Capa 1
10
106.688487
20
95.156818
11
107.239843
21
96.189557
0
LINE
8
Capa 1
10
107.239843
20
96.189557
11
107.989153
21
97.103424
0
LINE
8
Capa 1
10
107.989153
20
97.103424
11
108.903022
21
97.852733
0
LINE
8
Capa 1
10
108.903022
20
97.852733
11
109.935761
21
98.404087
0
LINE
8
Capa 1
10
109.935761
20
98.404087
11
111.055893
21
98.744449
0
LINE
8
Capa 1
10
111.055893
20
98.744449
11
112.231940
21
98.860780
0
LINE
8
Capa 1
10
112.231940
20
98.860780
11
112.232780
21
98.860440
0
LINE
8
Capa 1
10
12.723080
20
66.277940
11
14.062497
21
66.011529
0
LINE
8
Capa 1
10
14.062497
20
66.011529
11
15.198000
21
65.252817
0
LINE
8
Capa 1
10
15.198000
20
65.252817
11
15.956715
21
64.117316
0
LINE
8
Capa 1
10
15.956715
20
64.117316
11
16.223130
21
62.777900
0
LINE
8
Capa 1
10
16.223130
20
62.777900
11
15.956718
21
61.438481
0
LINE
8
Capa 1
10
15.956718
20
61.438481
11
15.198004
21
60.302976
0
LINE
8
Capa 1
10
15.198004
20
60.302976
11
14.062499
21
59.544262
0
LINE
8
Capa 1
10
14.062499
20
59.544262
11
12.723080
21
59.277850
0
LINE
8
Capa 1
10
12.723080
20
59.277850
11
11.383664
21
59.544265
0
LINE
8
Capa 1
10
11.383664
20
59.544265
11
10.248163
21
60.302980
0
LINE
8
Capa 1
10
10.248163
20
60.302980
11
9.489451
21
61.438483
0
LINE
8
Capa 1
10
9.489451
20
61.438483
11
9.223040
21
62.777900
0
LINE
8
Capa 1
10
9.223040
20
62.777900
11
9.489454
21
64.117314
0
LINE
8
Capa 1
10
9.489454
20
64.117314
11
10.248166
21
65.252814
0
LINE
8
Capa 1
10
10.248166
20
65.252814
11
11.383666
21
66.011526
0
LINE
8
Capa 1
10
11.383666
20
66.011526
11
12.723080
21
66.277940
0
LINE
8
Capa 1
10
12.723080
20
66.277940
11
12.723080
21
66.277940
0
LINE
8
Capa 1
10
37.600680
20
66.277940
11
38.940094
21
66.011526
0
LINE
8
Capa 1
10
38.940094
20
66.011526
11
40.075594
21
65.252814
0
LINE
8
Capa 1
10
40.075594
20
65.252814
11
40.834306
21
64.117314
0
LINE
8
Capa 1
10
40.834306
20
64.117314
11
41.100720
21
62.777900
0
LINE
8
Capa 1
10
41.100720
20
62.777900
11
40.834309
21
61.438483
0
LINE
8
Capa 1
10
40.834309
20
61.438483
11
40.075597
21
60.302980
0
LINE
8
Capa 1
10
40.075597
20
60.302980
11
38.940096
21
59.544265
0
LINE
8
Capa 1
10
38.940096
20
59.544265
11
37.600680
21
59.277850
0
LINE
8
Capa 1
10
37.600680
20
59.277850
11
36.261261
21
59.544262
0
LINE
8
Capa 1
10
36.261261
20
59.544262
11
35.125756
21
60.302976
0
LINE
8
Capa 1
10
35.125756
20
60.302976
11
34.367042
21
61.438481
0
LINE
8
Capa 1
10
34.367042
20
61.438481
11
34.100630
21
62.777900
0
LINE
8
Capa 1
10
34.100630
20
62.777900
11
34.367045
21
64.117316
0
LINE
8
Capa 1
10
34.367045
20
64.117316
11
35.125760
21
65.252817
0
LINE
8
Capa 1
10
35.125760
20
65.252817
11
36.261263
21
66.011529
0
LINE
8
Capa 1
10
36.261263
20
66.011529
11
37.600680
21
66.277940
0
LINE
8
Capa 1
10
37.600680
20
66.277940
11
37.600680
21
66.277940
0
LINE
8
Capa 1
10
62.478280
20
66.277940
11
63.840497
21
66.002753
0
LINE
8
Capa 1
10
63.840497
20
66.002753
11
64.952864
21
65.252633
0
LINE
8
Capa 1
10
64.952864
20
65.252633
11
65.702822
21
64.140157
0
LINE
8
Capa 1
10
65.702822
20
64.140157
11
65.977810
21
62.777900
0
LINE
8
Capa 1
10
65.977810
20
62.777900
11
65.702825
21
61.415640
0
LINE
8
Capa 1
10
65.702825
20
61.415640
11
64.952868
21
60.303160
0
LINE
8
Capa 1
10
64.952868
20
60.303160
11
63.840499
21
59.553038
0
LINE
8
Capa 1
10
63.840499
20
59.553038
11
62.478280
21
59.277850
0
LINE
8
Capa 1
10
62.478280
20
59.277850
11
61.138861
21
59.544262
0
LINE
8
Capa 1
10
61.138861
20
59.544262
11
60.003356
21
60.302976
0
LINE
8
Capa 1
10
60.003356
20
60.302976
11
59.244642
21
61.438481
0
LINE
8
Capa 1
10
59.244642
20
61.438481
11
58.978230
21
62.777900
0
LINE
8
Capa 1
10
58.978230
20
62.777900
11
59.244645
21
64.117316
0
LINE
8
Capa 1
10
59.244645
20
64.117316
11
60.003360
21
65.252817
0
LINE
8
Capa 1
10
60.003360
20
65.252817
11
61.138863
21
66.011529
0
LINE
8
Capa 1
10
61.138863
20
66.011529
11
62.478280
21
66.277940
0
LINE
8
Capa 1
10
62.478280
20
66.277940
11
62.478280
21
66.277940
0
LINE
8
Capa 1
10
87.355280
20
66.277940
11
88.694697
21
66.011529
0
LINE
8
Capa 1
10
88.694697
20
66.011529
11
89.830200
21
65.252817
0
LINE
8
Capa 1
10
89.830200
20
65.252817
11
90.588915
21
64.117316
0
LINE
8
Capa 1
10
90.588915
20
64.117316
11
90.855330
21
62.777900
0
LINE
8
Capa 1
10
90.855330
20
62.777900
11
90.588918
21
61.438481
0
LINE
8
Capa 1
10
90.588918
20
61.438481
11
89.830204
21
60.302976
0
LINE
8
Capa 1
10
89.830204
20
60.302976
11
88.694699
21
59.544262
0
LINE
8
Capa 1
10
88.694699
20
59.544262
11
87.355280
21
59.277850
0
LINE
8
Capa 1
10
87.355280
20
59.277850
11
86.015864
21
59.544265
0
LINE
8
Capa 1
10
86.015864
20
59.544265
11
84.880363
21
60.302980
0
LINE
8
Capa 1
10
84.880363
20
60.302980
11
84.121651
21
61.438483
0
LINE
8
Capa 1
10
84.121651
20
61.438483
11
83.855240
21
62.777900
0
LINE
8
Capa 1
10
83.855240
20
62.777900
11
84.121654
21
64.117314
0
LINE
8
Capa 1
10
84.121654
20
64.117314
11
84.880366
21
65.252814
0
LINE
8
Capa 1
10
84.880366
20
65.252814
11
86.015866
21
66.011526
0
LINE
8
Capa 1
10
86.015866
20
66.011526
11
87.355280
21
66.277940
0
LINE
8
Capa 1
10
87.355280
20
66.277940
11
87.355280
21
66.277940
0
LINE
8
Capa 1
10
11.723180
20
56.977740
11
13.722600
21
56.978100
0
LINE
8
Capa 1
10
13.722600
20
56.978100
11
13.722600
21
55.978100
0
LINE
8
Capa 1
10
13.722600
20
55.978100
11
11.722800
21
55.978100
0
LINE
8
Capa 1
10
11.722800
20
55.978100
11
11.723180
21
56.977740
0
LINE
8
Capa 1
10
36.600780
20
56.977740
11
38.600200
21
56.978100
0
LINE
8
Capa 1
10
38.600200
20
56.978100
11
38.600200
21
55.978100
0
LINE
8
Capa 1
10
38.600200
20
55.978100
11
36.600300
21
55.978100
0
LINE
8
Capa 1
10
36.600300
20
55.978100
11
36.600780
21
56.977740
0
LINE
8
Capa 1
10
61.477780
20
56.977740
11
63.477800
21
56.978100
0
LINE
8
Capa 1
10
63.477800
20
56.978100
11
63.477800
21
55.978100
0
LINE
8
Capa 1
10
63.477800
20
55.978100
11
61.477400
21
55.978100
0
LINE
8
Capa 1
10
61.477400
20
55.978100
11
61.477780
21
56.977740
0
LINE
8
Capa 1
10
86.355380
20
56.977740
11
88.354800
21
56.978100
0
LINE
8
Capa 1
10
88.354800
20
56.978100
11
88.354800
21
55.978100
0
LINE
8
Capa 1
10
88.354800
20
55.978100
11
86.354900
21
55.978100
0
LINE
8
Capa 1
10
86.354900
20
55.978100
11
86.355380
21
56.977740
0
LINE
8
Capa 1
10
111.232880
20
56.977740
11
113.232000
21
56.978100
0
LINE
8
Capa 1
10
113.232000
20
56.978100
11
113.232000
21
55.978100
0
LINE
8
Capa 1
10
113.232000
20
55.978100
11
111.232000
21
55.978100
0
LINE
8
Capa 1
10
111.232000
20
55.978100
11
111.232880
21
56.977740
0
LINE
8
Capa 1
10
30.600580
20
51.050960
11
44.600300
21
51.051300
0
LINE
8
Capa 1
10
44.600300
20
51.051300
11
44.600300
21
37.051700
0
LINE
8
Capa 1
10
44.600300
20
37.051700
11
30.600200
21
37.051700
0
LINE
8
Capa 1
10
30.600200
20
37.051700
11
30.600580
21
51.050960
0
LINE
8
Capa 1
10
55.488980
20
51.050960
11
69.488800
21
51.051300
0
LINE
8
Capa 1
10
69.488800
20
51.051300
11
69.488800
21
37.051700
0
LINE
8
Capa 1
10
69.488800
20
37.051700
11
55.488600
21
37.051700
0
LINE
8
Capa 1
10
55.488600
20
37.051700
11
55.488980
21
51.050960
0
LINE
8
Capa 1
10
80.377380
20
51.050960
11
94.377200
21
51.051300
0
LINE
8
Capa 1
10
94.377200
20
51.051300
11
94.377200
21
37.051700
0
LINE
8
Capa 1
10
94.377200
20
37.051700
11
80.377000
21
37.051700
0
LINE
8
Capa 1
10
80.377000
20
37.051700
11
80.377380
21
51.050960
0
LINE
8
Capa 1
10
105.266280
20
51.050960
11
119.266000
21
51.051300
0
LINE
8
Capa 1
10
119.266000
20
51.051300
11
119.266000
21
37.051700
0
LINE
8
Capa 1
10
119.266000
20
37.051700
11
105.266000
21
37.051700
0
LINE
8
Capa 1
10
105.266000
20
37.051700
11
105.266280
21
51.050960
0
LINE
8
Capa 1
10
5.722980
20
40.205660
11
19.722800
21
40.206000
0
LINE
8
Capa 1
10
19.722800
20
40.206000
11
19.722800
21
26.206300
0
LINE
8
Capa 1
10
19.722800
20
26.206300
11
5.722620
21
26.206300
0
LINE
8
Capa 1
10
5.722620
20
26.206300
11
5.722980
21
40.205660
0
LINE
8
Capa 1
10
30.600580
20
29.343760
11
44.600300
21
29.344100
0
LINE
8
Capa 1
10
44.600300
20
29.344100
11
44.600300
21
15.343900
0
LINE
8
Capa 1
10
44.600300
20
15.343900
11
30.600200
21
15.343900
0
LINE
8
Capa 1
10
30.600200
20
15.343900
11
30.600580
21
29.343760
0
LINE
8
Capa 1
10
55.488980
20
29.343760
11
69.488800
21
29.344100
0
LINE
8
Capa 1
10
69.488800
20
29.344100
11
69.488800
21
15.343900
0
LINE
8
Capa 1
10
69.488800
20
15.343900
11
55.488600
21
15.343900
0
LINE
8
Capa 1
10
55.488600
20
15.343900
11
55.488980
21
29.343760
0
LINE
8
Capa 1
10
80.377380
20
29.343760
11
94.377200
21
29.344100
0
LINE
8
Capa 1
10
94.377200
20
29.344100
11
94.377200
21
15.343900
0
LINE
8
Capa 1
10
94.377200
20
15.343900
11
80.377000
21
15.343900
0
LINE
8
Capa 1
10
80.377000
20
15.343900
11
80.377380
21
29.343760
0
LINE
8
Capa 1
10
105.266280
20
29.343760
11
119.266000
21
29.344100
0
LINE
8
Capa 1
10
119.266000
20
29.344100
11
119.266000
21
15.343900
0
LINE
8
Capa 1
10
119.266000
20
15.343900
11
105.266000
21
15.343900
0
LINE
8
Capa 1
10
105.266000
20
15.343900
11
105.266280
21
29.343760
0
LINE
8
Capa 1
10
24.699800
20
16.221400
11
25.312160
21
16.099538
0
LINE
8
Capa 1
10
25.312160
20
16.099538
11
25.831255
21
15.752587
0
LINE
8
Capa 1
10
25.831255
20
15.752587
11
26.178037
21
15.233379
0
LINE
8
Capa 1
10
26.178037
20
15.233379
11
26.299700
21
14.620980
0
LINE
8
Capa 1
10
26.299700
20
14.620980
11
26.173945
21
13.998244
0
LINE
8
Capa 1
10
26.173945
20
13.998244
11
25.831071
21
13.489709
0
LINE
8
Capa 1
10
25.831071
20
13.489709
11
25.322536
21
13.146835
0
LINE
8
Capa 1
10
25.322536
20
13.146835
11
24.699800
21
13.021080
0
LINE
8
Capa 1
10
24.699800
20
13.021080
11
24.077064
21
13.146835
0
LINE
8
Capa 1
10
24.077064
20
13.146835
11
23.568529
21
13.489709
0
LINE
8
Capa 1
10
23.568529
20
13.489709
11
23.225655
21
13.998244
0
LINE
8
Capa 1
10
23.225655
20
13.998244
11
23.099900
21
14.620980
0
LINE
8
Capa 1
10
23.099900
20
14.620980
11
23.221563
21
15.233379
0
LINE
8
Capa 1
10
23.221563
20
15.233379
11
23.568345
21
15.752587
0
LINE
8
Capa 1
10
23.568345
20
15.752587
11
24.087440
21
16.099538
0
LINE
8
Capa 1
10
24.087440
20
16.099538
11
24.699800
21
16.221400
0
LINE
8
Capa 1
10
24.699800
20
16.221400
11
24.699800
21
16.221400
0
LINE
8
Capa 1
10
99.465800
20
16.221400
11
100.078320
21
16.099688
0
LINE
8
Capa 1
10
100.078320
20
16.099688
11
100.597591
21
15.752771
0
LINE
8
Capa 1
10
100.597591
20
15.752771
11
100.944508
21
15.233500
0
LINE
8
Capa 1
10
100.944508
20
15.233500
11
101.066220
21
14.620980
0
LINE
8
Capa 1
10
101.066220
20
14.620980
11
100.944358
21
14.008620
0
LINE
8
Capa 1
10
100.944358
20
14.008620
11
100.597407
21
13.489525
0
LINE
8
Capa 1
10
100.597407
20
13.489525
11
100.078199
21
13.142743
0
LINE
8
Capa 1
10
100.078199
20
13.142743
11
99.465800
21
13.021080
0
LINE
8
Capa 1
10
99.465800
20
13.021080
11
98.843064
21
13.146835
0
LINE
8
Capa 1
10
98.843064
20
13.146835
11
98.334529
21
13.489709
0
LINE
8
Capa 1
10
98.334529
20
13.489709
11
97.991655
21
13.998244
0
LINE
8
Capa 1
10
97.991655
20
13.998244
11
97.865900
21
14.620980
0
LINE
8
Capa 1
10
97.865900
20
14.620980
11
97.987563
21
15.233379
0
LINE
8
Capa 1
10
97.987563
20
15.233379
11
98.334345
21
15.752587
0
LINE
8
Capa 1
10
98.334345
20
15.752587
11
98.853440
21
16.099538
0
LINE
8
Capa 1
10
98.853440
20
16.099538
11
99.465800
21
16.221400
0
LINE
8
Capa 1
10
99.465800
20
16.221400
11
99.465800
21
16.221400
0
LINE
8
Capa 1
10
4.728900
20
6.306760
11
4.972813
21
6.287660
0
LINE
8
Capa 1
10
4.972813
20
6.287660
11
4.992453
21
6.283660
0
LINE
8
Capa 1
10
4.992453
20
6.283660
11
5.213628
21
6.230460
0
LINE
8
Capa 1
10
5.213628
20
6.230460
11
5.238438
21
6.221460
0
LINE
8
Capa 1
10
5.238438
20
6.221460
11
5.442560
21
6.137260
0
LINE
8
Capa 1
10
5.442560
20
6.137260
11
5.470980
21
6.122260
0
LINE
8
Capa 1
10
5.470980
20
6.122260
11
5.658049
21
6.007540
0
LINE
8
Capa 1
10
5.658049
20
6.007540
11
5.681299
21
5.990540
0
LINE
8
Capa 1
10
5.681299
20
5.990540
11
5.849247
21
5.846880
0
LINE
8
Capa 1
10
5.849247
20
5.846880
11
5.869397
21
5.827280
0
LINE
8
Capa 1
10
5.869397
20
5.827280
11
6.013574
21
5.657770
0
LINE
8
Capa 1
10
6.013574
20
5.657770
11
6.028564
21
5.637070
0
LINE
8
Capa 1
10
6.028564
20
5.637070
11
6.146387
21
5.445880
0
LINE
8
Capa 1
10
6.146387
20
5.445880
11
6.158267
21
5.423180
0
LINE
8
Capa 1
10
6.158267
20
5.423180
11
6.246117
21
5.211310
0
LINE
8
Capa 1
10
6.246117
20
5.211310
11
6.251817
21
5.194810
0
LINE
8
Capa 1
10
6.251817
20
5.194810
11
6.306077
21
4.970020
0
LINE
8
Capa 1
10
6.306077
20
4.970020
11
6.309677
21
4.950420
0
LINE
8
Capa 1
10
6.309677
20
4.950420
11
6.328797
21
4.706510
0
LINE
8
Capa 1
10
6.328797
20
4.706510
11
6.207357
21
4.097760
0
LINE
8
Capa 1
10
6.207357
20
4.097760
11
6.204257
21
4.090760
0
LINE
8
Capa 1
10
6.204257
20
4.090760
11
5.863193
21
3.580200
0
LINE
8
Capa 1
10
5.863193
20
3.580200
11
5.855393
21
3.572200
0
LINE
8
Capa 1
10
5.855393
20
3.572200
11
5.345863
21
3.231650
0
LINE
8
Capa 1
10
5.345863
20
3.231650
11
5.336063
21
3.226650
0
LINE
8
Capa 1
10
5.336063
20
3.226650
11
4.728865
21
3.106240
0
LINE
8
Capa 1
10
4.728865
20
3.106240
11
4.121667
21
3.226650
0
LINE
8
Capa 1
10
4.121667
20
3.226650
11
4.111327
21
3.231650
0
LINE
8
Capa 1
10
4.111327
20
3.231650
11
3.601797
21
3.572200
0
LINE
8
Capa 1
10
3.601797
20
3.572200
11
3.593997
21
3.580200
0
LINE
8
Capa 1
10
3.593997
20
3.580200
11
3.252932
21
4.090760
0
LINE
8
Capa 1
10
3.252932
20
4.090760
11
3.249832
21
4.097760
0
LINE
8
Capa 1
10
3.249832
20
4.097760
11
3.128393
21
4.706510
0
LINE
8
Capa 1
10
3.128393
20
4.706510
11
3.249832
21
5.315250
0
LINE
8
Capa 1
10
3.249832
20
5.315250
11
3.252932
21
5.322250
0
LINE
8
Capa 1
10
3.252932
20
5.322250
11
3.593997
21
5.832810
0
LINE
8
Capa 1
10
3.593997
20
5.832810
11
3.601797
21
5.840810
0
LINE
8
Capa 1
10
3.601797
20
5.840810
11
4.113394
21
6.182400
0
LINE
8
Capa 1
10
4.113394
20
6.182400
11
4.119594
21
6.185400
0
LINE
8
Capa 1
10
4.119594
20
6.185400
11
4.728859
21
6.306840
0
LINE
8
Capa 1
10
4.728859
20
6.306840
11
4.728900
21
6.306760
0
LINE
8
Capa 1
10
120.146900
20
6.306760
11
120.390820
21
6.287660
0
LINE
8
Capa 1
10
120.390820
20
6.287660
11
120.411020
21
6.283660
0
LINE
8
Capa 1
10
120.411020
20
6.283660
11
120.630640
21
6.230960
0
LINE
8
Capa 1
10
120.630640
20
6.230960
11
120.660140
21
6.220660
0
LINE
8
Capa 1
10
120.660140
20
6.220660
11
120.859090
21
6.138460
0
LINE
8
Capa 1
10
120.859090
20
6.138460
11
120.892690
21
6.120360
0
LINE
8
Capa 1
10
120.892690
20
6.120360
11
121.074080
21
6.009260
0
LINE
8
Capa 1
10
121.074080
20
6.009260
11
121.102980
21
5.988060
0
LINE
8
Capa 1
10
121.102980
20
5.988060
11
121.267310
21
5.846990
0
LINE
8
Capa 1
10
121.267310
20
5.846990
11
121.287510
21
5.826790
0
LINE
8
Capa 1
10
121.287510
20
5.826790
11
121.428590
21
5.662460
0
LINE
8
Capa 1
10
121.428590
20
5.662460
11
121.449790
21
5.633560
0
LINE
8
Capa 1
10
121.449790
20
5.633560
11
121.560890
21
5.452180
0
LINE
8
Capa 1
10
121.560890
20
5.452180
11
121.578990
21
5.418580
0
LINE
8
Capa 1
10
121.578990
20
5.418580
11
121.661190
21
5.219620
0
LINE
8
Capa 1
10
121.661190
20
5.219620
11
121.671490
21
5.190220
0
LINE
8
Capa 1
10
121.671490
20
5.190220
11
121.724190
21
4.970590
0
LINE
8
Capa 1
10
121.724190
20
4.970590
11
121.728190
21
4.950390
0
LINE
8
Capa 1
10
121.728190
20
4.950390
11
121.747290
21
4.706480
0
LINE
8
Capa 1
10
121.747290
20
4.706480
11
121.625850
21
4.097730
0
LINE
8
Capa 1
10
121.625850
20
4.097730
11
121.622850
21
4.090730
0
LINE
8
Capa 1
10
121.622850
20
4.090730
11
121.281790
21
3.580170
0
LINE
8
Capa 1
10
121.281790
20
3.580170
11
121.273790
21
3.572170
0
LINE
8
Capa 1
10
121.273790
20
3.572170
11
120.765810
21
3.232140
0
LINE
8
Capa 1
10
120.765810
20
3.232140
11
120.753910
21
3.227140
0
LINE
8
Capa 1
10
120.753910
20
3.227140
11
120.147230
21
3.106730
0
LINE
8
Capa 1
10
120.147230
20
3.106730
11
119.540550
21
3.227140
0
LINE
8
Capa 1
10
119.540550
20
3.227140
11
119.528650
21
3.232140
0
LINE
8
Capa 1
10
119.528650
20
3.232140
11
119.020670
21
3.572170
0
LINE
8
Capa 1
10
119.020670
20
3.572170
11
119.012670
21
3.580170
0
LINE
8
Capa 1
10
119.012670
20
3.580170
11
118.672640
21
4.088150
0
LINE
8
Capa 1
10
118.672640
20
4.088150
11
118.667640
21
4.100050
0
LINE
8
Capa 1
10
118.667640
20
4.100050
11
118.547230
21
4.706730
0
LINE
8
Capa 1
10
118.547230
20
4.706730
11
118.667640
21
5.313410
0
LINE
8
Capa 1
10
118.667640
20
5.313410
11
118.672640
21
5.325310
0
LINE
8
Capa 1
10
118.672640
20
5.325310
11
119.012670
21
5.833290
0
LINE
8
Capa 1
10
119.012670
20
5.833290
11
119.020670
21
5.841290
0
LINE
8
Capa 1
10
119.020670
20
5.841290
11
119.531230
21
6.182360
0
LINE
8
Capa 1
10
119.531230
20
6.182360
11
119.538230
21
6.185360
0
LINE
8
Capa 1
10
119.538230
20
6.185360
11
120.146980
21
6.306800
0
LINE
8
Capa 1
10
120.146980
20
6.306800
11
120.146900
21
6.306760
 0 
ENDSEC
 0 
EOF