<?xml version="1.0" encoding="UTF-8" standalone="no"?>
<!-- Created with Inkscape (http://www.inkscape.org/) -->

<svg
   width="49.949444mm"
   height="120.0759mm"
   viewBox="0 0 49.949444 120.0759"
   version="1.1"
   id="svg73664"
   inkscape:version="1.2.2 (b0a8486, 2022-12-01)"
   sodipodi:docname="2mm-White-Front_Leyer.svg"
   xmlns:inkscape="http://www.inkscape.org/namespaces/inkscape"
   xmlns:sodipodi="http://sodipodi.sourceforge.net/DTD/sodipodi-0.dtd"
   xmlns="http://www.w3.org/2000/svg"
   xmlns:svg="http://www.w3.org/2000/svg">
  <sodipodi:namedview
     id="namedview73666"
     pagecolor="#ffffff"
     bordercolor="#666666"
     borderopacity="1.0"
     inkscape:showpageshadow="2"
     inkscape:pageopacity="0.0"
     inkscape:pagecheckerboard="0"
     inkscape:deskcolor="#d1d1d1"
     inkscape:document-units="mm"
     showgrid="false"
     inkscape:zoom="2.5714465"
     inkscape:cx="94.49934"
     inkscape:cy="226.91508"
     inkscape:current-layer="layer1" />
  <defs
     id="defs73661" />
  <g
     inkscape:label="Capa 1"
     inkscape:groupmode="layer"
     id="layer1"
     transform="translate(-76.531608,-88.462045)">
    <path
       id="rect3678"
       style="display:inline;fill:none;fill-opacity:1;stroke:#000000;stroke-width:0.076;stroke-linecap:round;stroke-miterlimit:4;stroke-dasharray:none"
       d="m 86.569515,88.500045 v 5.00021 c -1.71e-4,2.76139 -2.238844,4.99981 -5.000212,4.9997 H 76.569608 V 198.50004 h 4.999695 c 2.761368,-1.1e-4 5.000041,2.23832 5.000212,4.99971 v 5.0002 h 29.873625 v -5.0002 c 1.7e-4,-2.76139 2.23885,-4.99982 5.00021,-4.99971 h 4.9997 V 98.499955 h -4.9997 c -2.76136,1.1e-4 -5.00004,-2.23831 -5.00021,-4.9997 v -5.00021 z m -5.313371,12.533595 a 1.6,1.6 0 0 1 1.599902,1.5999 1.6,1.6 0 0 1 -1.599902,1.59991 1.6,1.6 0 0 1 -1.599902,-1.59991 1.6,1.6 0 0 1 1.599902,-1.5999 z m 40.500366,0 a 1.6,1.6 0 0 1 1.59991,1.5999 1.6,1.6 0 0 1 -1.59991,1.59991 1.6,1.6 0 0 1 -1.60042,-1.59991 1.6,1.6 0 0 1 1.60042,-1.5999 z m -32.024398,21.09277 c 3.323997,0 6.000151,2.67617 6.000151,6.00015 v 9.99991 c 0,3.324 -2.676154,6.00015 -6.000151,6.00015 -3.323996,0 -6.00015,-2.67615 -6.00015,-6.00015 v -9.99991 c 0,-3.32399 2.676154,-6.00015 6.00015,-6.00015 z m 14.048238,3.22514 h 18.99987 v 56.99961 H 103.78035 Z M 80.231917,148.4447 h 19.000391 v 38.43125 H 80.231917 Z m 1.024227,44.32133 a 1.6,1.6 0 0 1 1.599902,1.5999 1.6,1.6 0 0 1 -1.599902,1.5999 1.6,1.6 0 0 1 -1.599902,-1.5999 1.6,1.6 0 0 1 1.599902,-1.5999 z m 40.500366,0 a 1.6,1.6 0 0 1 1.59991,1.5999 1.6,1.6 0 0 1 -1.59991,1.5999 1.6,1.6 0 0 1 -1.60042,-1.5999 1.6,1.6 0 0 1 1.60042,-1.5999 z" />
  </g>
</svg>
