<?xml version="1.0" encoding="UTF-8" standalone="no"?>
<!-- Created with Inkscape (http://www.inkscape.org/) -->

<svg
   width="49.999569mm"
   height="119.99995mm"
   viewBox="0 0 49.999569 119.99995"
   version="1.1"
   id="svg12637"
   inkscape:version="1.2.2 (b0a8486, 2022-12-01)"
   sodipodi:docname="2mm-White-Front_Leyer.svg"
   xmlns:inkscape="http://www.inkscape.org/namespaces/inkscape"
   xmlns:sodipodi="http://sodipodi.sourceforge.net/DTD/sodipodi-0.dtd"
   xmlns="http://www.w3.org/2000/svg"
   xmlns:svg="http://www.w3.org/2000/svg">
  <sodipodi:namedview
     id="namedview12639"
     pagecolor="#ffffff"
     bordercolor="#666666"
     borderopacity="1.0"
     inkscape:showpageshadow="2"
     inkscape:pageopacity="0.0"
     inkscape:pagecheckerboard="0"
     inkscape:deskcolor="#d1d1d1"
     inkscape:document-units="mm"
     showgrid="false"
     inkscape:zoom="2.5730741"
     inkscape:cx="94.439567"
     inkscape:cy="226.77155"
     inkscape:current-layer="layer1" />
  <defs
     id="defs12634" />
  <g
     inkscape:label="Capa 1"
     inkscape:groupmode="layer"
     id="layer1"
     transform="translate(196.20135,75.61633)">
    <path
       id="rect3678"
       style="display:inline;fill:none;fill-opacity:1;stroke:#000000;stroke-width:0.076;stroke-linecap:round;stroke-miterlimit:4;stroke-dasharray:none"
       d="m -186.15362,-75.57833 v 4.99659 c -1.7e-4,2.75964 -2.24124,4.99671 -5.00538,4.9966 h -5.00435 v 99.93705 h 5.00435 c 2.76414,-1.1e-4 5.00521,2.23696 5.00538,4.9966 v 4.99711 h 29.90412 v -4.99711 c 1.7e-4,-2.75964 2.24124,-4.99671 5.00538,-4.9966 h 5.00434 v -99.93705 h -5.00434 c -2.76414,1.1e-4 -5.00521,-2.23696 -5.00538,-4.9966 v -4.99659 z m -5.32319,12.5336 c 0.88358,5e-5 1.59985,0.71633 1.5999,1.5999 -5e-5,0.88358 -0.71632,1.59986 -1.5999,1.59991 -0.88378,2.3e-4 -1.60037,-0.71613 -1.60042,-1.59991 6e-5,-0.88377 0.71664,-1.60013 1.60042,-1.5999 z m 40.49985,0 c 0.88378,-2.3e-4 1.60037,0.71613 1.60042,1.5999 -5e-5,0.88378 -0.71663,1.60014 -1.60042,1.59991 -0.88358,-5e-5 -1.59985,-0.71633 -1.5999,-1.59991 6e-5,-0.88357 0.71633,-1.59985 1.5999,-1.5999 z m -32.02388,21.09277 c 3.32399,0 6.00015,2.67616 6.00015,6.00015 v 9.99991 c 0,3.324 -2.67616,6.00015 -6.00015,6.00015 -3.324,0 -6.00015,-2.67615 -6.00015,-6.00015 v -9.99991 c 0,-3.32399 2.67615,-6.00015 6.00015,-6.00015 z m 14.04824,3.22513 h 18.99987 v 56.99962 h -18.99987 z m -23.54844,23.09316 h 19.00039 v 38.43125 h -19.00039 z m 1.02423,44.32133 c 0.88358,5e-5 1.59985,0.71632 1.5999,1.5999 -5e-5,0.88358 -0.71632,1.59985 -1.5999,1.5999 -0.88378,2.3e-4 -1.60036,-0.71612 -1.60042,-1.5999 6e-5,-0.88378 0.71664,-1.60013 1.60042,-1.5999 z m 40.49985,0 c 0.88378,-2.3e-4 1.60037,0.71612 1.60042,1.5999 -5e-5,0.88378 -0.71664,1.60013 -1.60042,1.5999 -0.88357,-5e-5 -1.59984,-0.71632 -1.5999,-1.5999 6e-5,-0.88358 0.71633,-1.59985 1.5999,-1.5999 z" />
  </g>
</svg>
