<?xml version="1.0" encoding="UTF-8" standalone="no"?>
<!-- Created with Inkscape (http://www.inkscape.org/) -->

<svg
   width="50.076046mm"
   height="120.0759mm"
   viewBox="0 0 50.076046 120.0759"
   version="1.1"
   id="svg69483"
   inkscape:version="1.2.2 (b0a8486, 2022-12-01)"
   sodipodi:docname="3mm-Translucent-Middle_Layer.svg"
   xmlns:inkscape="http://www.inkscape.org/namespaces/inkscape"
   xmlns:sodipodi="http://sodipodi.sourceforge.net/DTD/sodipodi-0.dtd"
   xmlns="http://www.w3.org/2000/svg"
   xmlns:svg="http://www.w3.org/2000/svg">
  <sodipodi:namedview
     id="namedview69485"
     pagecolor="#ffffff"
     bordercolor="#666666"
     borderopacity="1.0"
     inkscape:showpageshadow="2"
     inkscape:pageopacity="0.0"
     inkscape:pagecheckerboard="0"
     inkscape:deskcolor="#d1d1d1"
     inkscape:document-units="mm"
     showgrid="false"
     inkscape:zoom="2.5714465"
     inkscape:cx="94.49934"
     inkscape:cy="226.91508"
     inkscape:current-layer="layer1" />
  <defs
     id="defs69480" />
  <g
     inkscape:label="Capa 1"
     inkscape:groupmode="layer"
     id="layer1"
     transform="translate(-76.468304,-88.462045)">
    <path
       id="rect3678-3"
       style="display:inline;fill:none;fill-opacity:1;stroke:#000000;stroke-width:0.076;stroke-linecap:round;stroke-miterlimit:4;stroke-dasharray:none"
       d="m 86.506211,88.500045 v 5.00021 c -1.68e-4,2.76139 -2.238842,4.99982 -5.000212,4.9997 H 76.506304 V 198.50004 h 4.999695 c 2.76137,-1.1e-4 5.000044,2.23832 5.000212,4.99971 v 5.0002 h 30.000239 v -5.0002 c 1.6e-4,-2.76139 2.23884,-4.99982 5.00021,-4.99971 h 4.99969 V 98.499955 h -4.99969 c -2.76137,1.2e-4 -5.00005,-2.23831 -5.00021,-4.9997 v -5.00021 z M 81.19284,101.03364 c 0.883577,5e-5 1.599847,0.71633 1.599902,1.5999 -4.9e-5,0.88358 -0.716321,1.59986 -1.599902,1.59991 -0.883582,-5e-5 -1.599853,-0.71633 -1.599902,-1.59991 5.5e-5,-0.88357 0.716324,-1.59985 1.599902,-1.5999 z m 40.50037,0 c 0.88358,5e-5 1.59985,0.71633 1.5999,1.5999 -5e-5,0.88358 -0.71632,1.59986 -1.5999,1.59991 -0.88378,2.3e-4 -1.60037,-0.71613 -1.60042,-1.59991 6e-5,-0.88377 0.71664,-1.60013 1.60042,-1.5999 z m -32.895149,21.09277 h 1.741495 c 4.22652,0 7.628992,3.01141 7.628992,6.75153 v 8.49767 c 0,3.74012 -3.402472,6.75101 -7.628992,6.75101 h -1.741495 c -4.226521,0 -7.629509,-3.01088 -7.629509,-6.75101 v -8.49767 c 0,-3.74012 3.402988,-6.75153 7.629509,-6.75153 z m 14.918989,3.22514 h 18.99987 v 56.99961 H 103.71705 Z M 80.168613,148.4447 h 19.000391 v 38.43125 H 80.168613 Z m 1.024227,44.32133 c 0.883577,5e-5 1.599847,0.71632 1.599902,1.5999 -5.5e-5,0.88358 -0.716325,1.59985 -1.599902,1.5999 -0.883578,-5e-5 -1.599847,-0.71632 -1.599902,-1.5999 5.5e-5,-0.88358 0.716324,-1.59985 1.599902,-1.5999 z m 40.50037,0 c 0.88358,5e-5 1.59985,0.71632 1.5999,1.5999 -5e-5,0.88358 -0.71632,1.59985 -1.5999,1.5999 -0.88378,2.3e-4 -1.60036,-0.71612 -1.60042,-1.5999 6e-5,-0.88378 0.71664,-1.60013 1.60042,-1.5999 z" />
  </g>
</svg>
