<?xml version="1.0" encoding="UTF-8" standalone="no"?>
<!-- Created with Inkscape (http://www.inkscape.org/) -->

<svg
   width="50.000019mm"
   height="119.99988mm"
   viewBox="0 0 50.000019 119.99988"
   version="1.1"
   id="svg4185"
   inkscape:version="1.2.2 (b0a8486, 2022-12-01)"
   sodipodi:docname="3mm-Black-Back_Layer.svg"
   xmlns:inkscape="http://www.inkscape.org/namespaces/inkscape"
   xmlns:sodipodi="http://sodipodi.sourceforge.net/DTD/sodipodi-0.dtd"
   xmlns="http://www.w3.org/2000/svg"
   xmlns:svg="http://www.w3.org/2000/svg">
  <sodipodi:namedview
     id="namedview4187"
     pagecolor="#ffffff"
     bordercolor="#666666"
     borderopacity="1.0"
     inkscape:showpageshadow="2"
     inkscape:pageopacity="0.0"
     inkscape:pagecheckerboard="0"
     inkscape:deskcolor="#d1d1d1"
     inkscape:document-units="mm"
     showgrid="false"
     inkscape:zoom="2.5730755"
     inkscape:cx="94.439513"
     inkscape:cy="226.77142"
     inkscape:current-layer="layer1" />
  <defs
     id="defs4182" />
  <g
     inkscape:label="Capa 1"
     inkscape:groupmode="layer"
     id="layer1"
     transform="translate(-76.506319,-88.500057)">
    <path
       id="rect11527"
       style="display:inline;fill:none;fill-opacity:1;stroke:#000000;stroke-width:0.0537162;stroke-linecap:round;stroke-miterlimit:4;stroke-dasharray:none"
       d="M 76.533177,88.526915 V 208.47308 H 126.47948 V 88.526915 Z m 4.723226,3.41116 a 1.6,1.6 0 0 1 1.599902,1.59991 1.6,1.6 0 0 1 -1.599902,1.5999 1.6,1.6 0 0 1 -1.600419,-1.5999 1.6,1.6 0 0 1 1.600419,-1.59991 z m 40.499857,0 a 1.6,1.6 0 0 1 1.60042,1.59991 1.6,1.6 0 0 1 -1.60042,1.5999 1.6,1.6 0 0 1 -1.59991,-1.5999 1.6,1.6 0 0 1 1.59991,-1.59991 z M 89.70705,127.16486 a 6,6 0 0 1 6.000151,6.00015 6,6 0 0 1 -5.000212,5.91644 v -0.91622 h -1.999878 v 0.91622 a 6,6 0 0 1 -5.000212,-5.91644 6,6 0 0 1 6.000151,-6.00015 z m 16.54783,0.72451 h 14.00018 v 14.00018 h -14.00018 z m 0,19.00039 h 14.00018 v 13.99967 h -14.00018 z m -23.54792,4.09277 h 14.00018 v 14.00018 H 82.70696 Z m 23.54792,14.9071 h 14.00018 v 14.00018 h -14.00018 z m -23.54792,4.52479 H 96.70714 V 184.4146 H 82.70696 Z m -1.450557,31.52366 a 1.6,1.6 0 0 1 1.599902,1.5999 1.6,1.6 0 0 1 -1.599902,1.5999 1.6,1.6 0 0 1 -1.600419,-1.5999 1.6,1.6 0 0 1 1.600419,-1.5999 z m 40.499857,0 a 1.6,1.6 0 0 1 1.60042,1.5999 1.6,1.6 0 0 1 -1.60042,1.5999 1.6,1.6 0 0 1 -1.59991,-1.5999 1.6,1.6 0 0 1 1.59991,-1.5999 z" />
  </g>
</svg>
