<?xml version="1.0" encoding="UTF-8" standalone="no"?>
<!-- Created with Inkscape (http://www.inkscape.org/) -->

<svg
   width="49.999565mm"
   height="119.99995mm"
   viewBox="0 0 49.999565 119.99995"
   version="1.1"
   id="svg6924"
   inkscape:version="1.2.2 (b0a8486, 2022-12-01)"
   sodipodi:docname="3mm-Translucent-Middle_Layer.svg"
   xmlns:inkscape="http://www.inkscape.org/namespaces/inkscape"
   xmlns:sodipodi="http://sodipodi.sourceforge.net/DTD/sodipodi-0.dtd"
   xmlns="http://www.w3.org/2000/svg"
   xmlns:svg="http://www.w3.org/2000/svg">
  <sodipodi:namedview
     id="namedview6926"
     pagecolor="#ffffff"
     bordercolor="#666666"
     borderopacity="1.0"
     inkscape:showpageshadow="2"
     inkscape:pageopacity="0.0"
     inkscape:pagecheckerboard="0"
     inkscape:deskcolor="#d1d1d1"
     inkscape:document-units="mm"
     showgrid="false"
     inkscape:zoom="2.5730741"
     inkscape:cx="94.439567"
     inkscape:cy="226.77155"
     inkscape:current-layer="layer1" />
  <defs
     id="defs6921" />
  <g
     inkscape:label="Capa 1"
     inkscape:groupmode="layer"
     id="layer1"
     transform="translate(-76.506545,-88.500025)">
    <path
       id="rect3678-3"
       style="display:inline;fill:none;fill-opacity:1;stroke:#000000;stroke-width:0.076;stroke-linecap:round;stroke-miterlimit:4;stroke-dasharray:none"
       d="m 86.528948,88.538025 v 4.99659 c -1.67e-4,2.75964 -2.235319,4.99672 -4.99246,4.9966 h -4.991943 v 99.937045 h 4.991943 c 2.757141,-1.2e-4 4.992293,2.23696 4.99246,4.9966 v 4.99711 h 29.954762 v -4.99711 c 1.6e-4,-2.75964 2.23532,-4.99672 4.99246,-4.9966 h 4.99194 V 98.531215 h -4.99194 c -2.75714,1.2e-4 -4.9923,-2.23696 -4.99246,-4.9966 v -4.99659 z m -5.297867,12.533595 c 0.883577,5e-5 1.599847,0.71633 1.599902,1.5999 -5e-5,0.88358 -0.716321,1.59986 -1.599902,1.59991 -0.883784,2.3e-4 -1.60037,-0.71613 -1.600419,-1.59991 5.5e-5,-0.88377 0.716639,-1.60013 1.600419,-1.5999 z m 40.499849,0 c 0.88378,-2.2e-4 1.60037,0.71613 1.60042,1.5999 -5e-5,0.88378 -0.71663,1.60015 -1.60042,1.59991 -0.88358,-5e-5 -1.59985,-0.71633 -1.5999,-1.59991 6e-5,-0.88357 0.71633,-1.59985 1.5999,-1.5999 z M 88.836301,122.1644 h 1.741496 c 4.22652,0 7.628992,3.0114 7.628992,6.75153 v 8.49766 c 0,3.74012 -3.402472,6.75101 -7.628992,6.75101 h -1.741496 c -4.22652,0 -7.629508,-3.01088 -7.629508,-6.75101 v -8.49766 c 0,-3.74013 3.402988,-6.75153 7.629508,-6.75153 z m 14.918989,3.22513 h 18.99987 v 56.99962 h -18.99987 z m -23.548436,23.09315 h 19.00039 v 38.43125 h -19.00039 z m 1.024227,44.32133 c 0.883577,5e-5 1.599847,0.71632 1.599902,1.5999 -5.5e-5,0.88358 -0.716325,1.59985 -1.599902,1.5999 -0.88378,2.3e-4 -1.600364,-0.71612 -1.600419,-1.5999 5.5e-5,-0.88378 0.716639,-1.60013 1.600419,-1.5999 z m 40.499849,0 c 0.88378,-2.3e-4 1.60037,0.71612 1.60042,1.5999 -5e-5,0.88378 -0.71664,1.60013 -1.60042,1.5999 -0.88357,-5e-5 -1.59984,-0.71632 -1.5999,-1.5999 6e-5,-0.88358 0.71633,-1.59985 1.5999,-1.5999 z" />
  </g>
</svg>
