<?xml version="1.0" encoding="UTF-8" standalone="no"?>
<!-- Created with Inkscape (http://www.inkscape.org/) -->

<svg
   width="50.000019mm"
   height="97.99968mm"
   viewBox="0 0 50.000019 97.99968"
   version="1.1"
   id="svg1430"
   inkscape:version="1.2.2 (b0a8486, 2022-12-01)"
   sodipodi:docname="3mm-Black-Microcontroller_Layer.svg"
   xmlns:inkscape="http://www.inkscape.org/namespaces/inkscape"
   xmlns:sodipodi="http://sodipodi.sourceforge.net/DTD/sodipodi-0.dtd"
   xmlns="http://www.w3.org/2000/svg"
   xmlns:svg="http://www.w3.org/2000/svg">
  <sodipodi:namedview
     id="namedview1432"
     pagecolor="#ffffff"
     bordercolor="#666666"
     borderopacity="1.0"
     inkscape:showpageshadow="2"
     inkscape:pageopacity="0.0"
     inkscape:pagecheckerboard="0"
     inkscape:deskcolor="#d1d1d1"
     inkscape:document-units="mm"
     showgrid="false"
     inkscape:zoom="3.1507118"
     inkscape:cx="94.581801"
     inkscape:cy="185.19624"
     inkscape:current-layer="layer1" />
  <defs
     id="defs1427" />
  <g
     inkscape:label="Capa 1"
     inkscape:groupmode="layer"
     id="layer1"
     transform="translate(120.43331,3.0183396)">
    <path
       id="rect11527-5"
       style="display:inline;fill:none;fill-opacity:1;stroke:#000000;stroke-width:0.0537172;stroke-linecap:round;stroke-miterlimit:4;stroke-dasharray:none"
       d="m -120.40645,-2.991481 v 97.945962 h 49.9463 V -2.991481 Z m 4.6979,1.544608 a 1.6,1.6 0 0 1 1.5999,1.599903 1.6,1.6 0 0 1 -1.5999,1.599902 1.6,1.6 0 0 1 -1.60042,-1.599902 1.6,1.6 0 0 1 1.60042,-1.599903 z m 40.499853,0 a 1.6,1.6 0 0 1 1.600419,1.599903 1.6,1.6 0 0 1 -1.600419,1.599902 1.6,1.6 0 0 1 -1.599902,-1.599902 1.6,1.6 0 0 1 1.599902,-1.599903 z m -20.186881,1.456242 a 1.6,1.6 0 0 1 1.600419,1.599902 1.6,1.6 0 0 1 -1.600419,1.599903 1.6,1.6 0 0 1 -1.599903,-1.599903 1.6,1.6 0 0 1 1.599903,-1.599902 z m 0,88.819902 a 1.6,1.6 0 0 1 1.600419,1.5999 1.6,1.6 0 0 1 -1.600419,1.5999 1.6,1.6 0 0 1 -1.599903,-1.5999 1.6,1.6 0 0 1 1.599903,-1.5999 z m -20.312972,1.45624 a 1.6,1.6 0 0 1 1.5999,1.5999 1.6,1.6 0 0 1 -1.5999,1.59991 1.6,1.6 0 0 1 -1.60042,-1.59991 1.6,1.6 0 0 1 1.60042,-1.5999 z m 40.499853,0 a 1.6,1.6 0 0 1 1.600419,1.5999 1.6,1.6 0 0 1 -1.600419,1.59991 1.6,1.6 0 0 1 -1.599902,-1.59991 1.6,1.6 0 0 1 1.599902,-1.5999 z" />
  </g>
</svg>
