<?xml version="1.0" encoding="UTF-8" standalone="no"?>
<!-- Created with Inkscape (http://www.inkscape.org/) -->

<svg
   width="119.99992mm"
   height="119.99993mm"
   viewBox="0 0 119.99992 119.99993"
   version="1.1"
   id="svg83716"
   xmlns="http://www.w3.org/2000/svg"
   xmlns:svg="http://www.w3.org/2000/svg">
  <defs
     id="defs83713" />
  <g
     id="layer1"
     transform="translate(-41.506366,-88.500037)">
    <path
       id="rect3678"
       style="display:inline;fill:none;fill-opacity:1;stroke:#000000;stroke-width:0.075976;stroke-linecap:round;stroke-miterlimit:4;stroke-dasharray:none"
       d="m 51.544261,88.538025 v 4.99659 c -1.7e-4,2.75964 -2.238915,4.99672 -5.000212,4.9966 h -4.999695 v 99.937045 h 4.999695 c 2.761297,-1.1e-4 5.000042,2.23697 5.000212,4.9966 v 4.99712 h 99.924129 v -4.99712 c 1.7e-4,-2.75963 2.23882,-4.99671 5.00021,-4.9966 h 4.9997 V 98.531215 h -4.9997 c -2.76139,1.2e-4 -5.00004,-2.23696 -5.00021,-4.9966 v -4.99659 z m 12.508797,12.495365 a 1.6,1.6 0 0 1 1.599902,1.60042 1.6,1.6 0 0 1 -1.599902,1.5999 1.6,1.6 0 0 1 -1.599903,-1.5999 1.6,1.6 0 0 1 1.599903,-1.60042 z m 74.906542,0 a 1.6,1.6 0 0 1 1.5999,1.60042 1.6,1.6 0 0 1 -1.5999,1.5999 1.6,1.6 0 0 1 -1.59991,-1.5999 1.6,1.6 0 0 1 1.59991,-1.60042 z M 51.751483,107.772 c 3.323901,0 6.000151,2.67615 6.000151,6.00014 v 9.99991 c 0,3.32367 -2.67625,6.00015 -6.000151,6.00015 -3.323888,0 -6.000151,-2.67648 -6.000151,-6.00015 v -9.99991 c 0,-3.324 2.676263,-6.00014 6.000151,-6.00014 z m 24.877551,0 c 3.323904,0 5.999634,2.67615 5.999634,6.00014 v 9.99991 c 0,3.32368 -2.67573,6.00015 -5.999634,6.00015 -3.323872,0 -6.00015,-2.67647 -6.00015,-6.00015 v -9.99991 c 0,-3.324 2.676278,-6.00014 6.00015,-6.00014 z m 24.877036,0 c 3.32387,0 6.00015,2.67615 6.00015,6.00014 v 9.99991 c 0,3.32369 -2.67628,6.00015 -6.00015,6.00015 -3.323908,0 -5.999635,-2.67646 -5.999635,-6.00015 v -9.99991 c 0,-3.324 2.675727,-6.00014 5.999635,-6.00014 z m 24.87755,0 c 3.32391,0 6.00015,2.67615 6.00015,6.00014 v 9.99991 c 0,3.3237 -2.67624,6.00015 -6.00015,6.00015 -3.32391,0 -6.00015,-2.67645 -6.00015,-6.00015 v -9.99991 c 0,-3.324 2.67624,-6.00014 6.00015,-6.00014 z m 24.87755,0 c 3.32371,0 5.99963,2.67615 5.99963,6.00014 v 9.99991 c 0,3.32372 -2.67592,6.00015 -5.99963,6.00015 -3.324,0 -6.00015,-2.67644 -6.00015,-6.00015 v -9.99991 c 0,-3.324 2.67615,-6.00014 6.00015,-6.00014 z m -99.509687,30.15784 a 7.5500002,7.5500002 0 0 1 7.549927,7.54993 7.5500002,7.5500002 0 0 1 -7.549927,7.54992 7.5500002,7.5500002 0 0 1 -7.549927,-7.54992 7.5500002,7.5500002 0 0 1 7.549927,-7.54993 z m 24.877551,0 a 7.5500002,7.5500002 0 0 1 7.549927,7.54993 7.5500002,7.5500002 0 0 1 -7.549927,7.54992 7.5500002,7.5500002 0 0 1 -7.550443,-7.54992 7.5500002,7.5500002 0 0 1 7.550443,-7.54993 z m 24.877036,0 a 7.5500002,7.5500002 0 0 1 7.54993,7.54993 7.5500002,7.5500002 0 0 1 -7.54993,7.54992 7.5500002,7.5500002 0 0 1 -7.549928,-7.54992 7.5500002,7.5500002 0 0 1 7.549928,-7.54993 z m 24.87755,0 a 7.5500002,7.5500002 0 0 1 7.54993,7.54993 7.5500002,7.5500002 0 0 1 -7.54993,7.54992 7.5500002,7.5500002 0 0 1 -7.54993,-7.54992 7.5500002,7.5500002 0 0 1 7.54993,-7.54993 z m 24.87755,0 a 7.5500002,7.5500002 0 0 1 7.54992,7.54993 7.5500002,7.5500002 0 0 1 -7.54992,7.54992 7.5500002,7.5500002 0 0 1 -7.55045,-7.54992 7.5500002,7.5500002 0 0 1 7.55045,-7.54993 z m -84.132331,15.91841 h 18.999874 v 18.99987 H 67.128839 Z m 24.877551,0 h 18.99987 v 18.99987 H 92.00639 Z m 24.87703,0 h 19.00039 v 18.99987 h -19.00039 z m 24.87755,0 h 18.99988 v 18.99987 h -18.99988 z m -99.509682,10.05158 h 19.00039 v 18.99987 h -19.00039 z m 99.509682,9.55135 h 18.99988 v 19.00039 h -18.99988 z m -74.632131,0.50023 h 18.999874 v 18.99988 H 67.128839 Z m 24.877551,0 h 18.99987 v 18.99988 H 92.00639 Z m 24.87703,0 h 19.00039 v 18.99988 h -19.00039 z m -52.830362,18.81436 a 1.6,1.6 0 0 1 1.599902,1.60042 1.6,1.6 0 0 1 -1.599902,1.5999 1.6,1.6 0 0 1 -1.599903,-1.5999 1.6,1.6 0 0 1 1.599903,-1.60042 z m 74.906542,0 a 1.6,1.6 0 0 1 1.5999,1.60042 1.6,1.6 0 0 1 -1.5999,1.5999 1.6,1.6 0 0 1 -1.59991,-1.5999 1.6,1.6 0 0 1 1.59991,-1.60042 z" />
  </g>
</svg>
