<?xml version="1.0" encoding="UTF-8" standalone="no"?>
<!-- Created with Inkscape (http://www.inkscape.org/) -->

<svg
   width="125.03786mm"
   height="119.99993mm"
   viewBox="0 0 125.03786 119.99993"
   version="1.1"
   id="svg68980"
   inkscape:version="1.2.2 (b0a8486, 2022-12-01)"
   sodipodi:docname="2mm-White-Front_Leyer.svg"
   xmlns:inkscape="http://www.inkscape.org/namespaces/inkscape"
   xmlns:sodipodi="http://sodipodi.sourceforge.net/DTD/sodipodi-0.dtd"
   xmlns="http://www.w3.org/2000/svg"
   xmlns:svg="http://www.w3.org/2000/svg">
  <sodipodi:namedview
     id="namedview68982"
     pagecolor="#ffffff"
     bordercolor="#666666"
     borderopacity="1.0"
     inkscape:showpageshadow="2"
     inkscape:pageopacity="0.0"
     inkscape:pagecheckerboard="0"
     inkscape:deskcolor="#d1d1d1"
     inkscape:document-units="mm"
     showgrid="false"
     inkscape:zoom="0.914906"
     inkscape:cx="236.08983"
     inkscape:cy="226.79925"
     inkscape:current-layer="layer1" />
  <defs
     id="defs68977" />
  <g
     inkscape:label="Capa 1"
     inkscape:groupmode="layer"
     id="layer1"
     transform="translate(-38.987401,-88.500037)">
    <path
       id="rect3678"
       style="display:inline;fill:none;fill-opacity:1;stroke:#000000;stroke-width:0.075976;stroke-linecap:round;stroke-miterlimit:4;stroke-dasharray:none"
       d="m 49.025296,88.538025 v 4.99659 c -1.7e-4,2.75964 -2.238888,4.99672 -5.000212,4.9966 h -4.999695 v 99.937045 h 4.999695 c 2.761324,-1.1e-4 5.000042,2.23697 5.000212,4.9966 v 4.99712 H 153.98737 v -4.99712 c 1.7e-4,-2.75963 2.23882,-4.99671 5.00021,-4.9966 h 4.99969 V 98.531215 h -4.99969 c -2.76139,1.2e-4 -5.00004,-2.23696 -5.00021,-4.9966 v -4.99659 z m 14.702978,13.024535 a 1.6,1.6 0 0 1 1.599902,1.60042 1.6,1.6 0 0 1 -1.599902,1.5999 1.6,1.6 0 0 1 -1.599902,-1.5999 1.6,1.6 0 0 1 1.599902,-1.60042 z m 74.765976,0 a 1.6,1.6 0 0 1 1.60042,1.60042 1.6,1.6 0 0 1 -1.60042,1.5999 1.6,1.6 0 0 1 -1.5999,-1.5999 1.6,1.6 0 0 1 1.5999,-1.60042 z m -86.743023,3.03443 c 3.323943,0 6.000151,2.67616 6.000151,6.00015 v 9.99991 c 0,3.32381 -2.676208,6.00015 -6.000151,6.00015 -3.32393,0 -5.999634,-2.67634 -5.999634,-6.00015 v -9.99991 c 0,-3.324 2.675704,-6.00015 5.999634,-6.00015 z m 24.877552,0 c 3.323928,0 6.00015,2.67616 6.00015,6.00015 v 9.99991 c 0,3.32382 -2.676222,6.00015 -6.00015,6.00015 -3.323946,0 -6.000151,-2.67633 -6.000151,-6.00015 v -9.99991 c 0,-3.324 2.676205,-6.00015 6.000151,-6.00015 z m 24.877551,0 c 3.32395,0 5.99963,2.67616 5.99963,6.00015 v 9.99991 c 0,3.32383 -2.67568,6.00015 -5.99963,6.00015 -3.323949,0 -6.000151,-2.67632 -6.000151,-6.00015 v -9.99991 c 0,-3.324 2.676202,-6.00015 6.000151,-6.00015 z m 24.87703,0 c 3.32396,0 6.00015,2.67616 6.00015,6.00015 v 9.99991 c 0,3.32384 -2.67619,6.00015 -6.00015,6.00015 -3.32393,0 -5.99963,-2.67631 -5.99963,-6.00015 v -9.99991 c 0,-3.324 2.6757,-6.00015 5.99963,-6.00015 z m 24.87756,0 c 3.32385,0 6.00015,2.67616 6.00015,6.00015 v 9.99991 c 0,3.32385 -2.6763,6.00015 -6.00015,6.00015 -3.324,0 -6.00015,-2.6763 -6.00015,-6.00015 v -9.99991 c 0,-3.324 2.67615,-6.00015 6.00015,-6.00015 z m -99.509693,33.33285 a 7.5500002,7.5500002 0 0 1 7.549927,7.54993 7.5500002,7.5500002 0 0 1 -7.549927,7.54992 7.5500002,7.5500002 0 0 1 -7.549926,-7.54992 7.5500002,7.5500002 0 0 1 7.549926,-7.54993 z m 24.877552,0 a 7.5500002,7.5500002 0 0 1 7.549926,7.54993 7.5500002,7.5500002 0 0 1 -7.549926,7.54992 7.5500002,7.5500002 0 0 1 -7.549927,-7.54992 7.5500002,7.5500002 0 0 1 7.549927,-7.54993 z m 24.877551,0 a 7.5500002,7.5500002 0 0 1 7.54993,7.54993 7.5500002,7.5500002 0 0 1 -7.54993,7.54992 7.5500002,7.5500002 0 0 1 -7.550444,-7.54992 7.5500002,7.5500002 0 0 1 7.550444,-7.54993 z m 24.87703,0 a 7.5500002,7.5500002 0 0 1 7.54993,7.54993 7.5500002,7.5500002 0 0 1 -7.54993,7.54992 7.5500002,7.5500002 0 0 1 -7.54992,-7.54992 7.5500002,7.5500002 0 0 1 7.54992,-7.54993 z m 24.87756,0 a 7.5500002,7.5500002 0 0 1 7.54992,7.54993 7.5500002,7.5500002 0 0 1 -7.54992,7.54992 7.5500002,7.5500002 0 0 1 -7.54993,-7.54992 7.5500002,7.5500002 0 0 1 7.54993,-7.54993 z m -84.132337,16.97674 h 19.000391 v 18.99988 H 67.128583 Z m 24.888404,0 h 19.000393 v 18.99988 H 92.016987 Z m 24.888923,0 h 18.99987 v 18.99988 h -18.99987 z m 24.8884,0 h 18.99987 v 18.99988 h -18.99987 z m -99.542761,10.84533 h 18.999874 v 18.99988 H 42.251549 Z m 24.877034,10.86187 h 19.000391 v 18.99988 H 67.128583 Z m 24.888404,0 h 19.000393 v 18.99988 H 92.016987 Z m 24.888923,0 h 18.99987 v 18.99988 h -18.99987 z m 24.8884,0 h 18.99987 v 18.99988 H 141.79431 Z M 63.728274,192.2366 a 1.6,1.6 0 0 1 1.599902,1.60042 1.6,1.6 0 0 1 -1.599902,1.5999 1.6,1.6 0 0 1 -1.599902,-1.5999 1.6,1.6 0 0 1 1.599902,-1.60042 z m 74.765976,0 a 1.6,1.6 0 0 1 1.60042,1.60042 1.6,1.6 0 0 1 -1.60042,1.5999 1.6,1.6 0 0 1 -1.5999,-1.5999 1.6,1.6 0 0 1 1.5999,-1.60042 z" />
  </g>
</svg>
