<?xml version="1.0" encoding="UTF-8" standalone="no"?>
<!-- Created with Inkscape (http://www.inkscape.org/) -->

<svg
   width="120.00042mm"
   height="98.000206mm"
   viewBox="0 0 120.00042 98.000206"
   version="1.1"
   id="svg58722"
   xmlns="http://www.w3.org/2000/svg"
   xmlns:svg="http://www.w3.org/2000/svg">
  <defs
     id="defs58719" />
  <g
     id="layer1"
     transform="translate(175.96613,11.694359)">
    <path
       id="rect11527-5"
       style="display:inline;fill:none;fill-opacity:1;stroke:#000000;stroke-width:0.0831903;stroke-linecap:round;stroke-miterlimit:4;stroke-dasharray:none"
       d="M -175.92453,-11.652764 V 86.264253 H -56.0073 v -97.917017 z m 22.50508,1.491899 a 1.6,1.6 0 0 1 1.59991,1.600419 1.6,1.6 0 0 1 -1.59991,1.599902 1.6,1.6 0 0 1 -1.5999,-1.599902 1.6,1.6 0 0 1 1.5999,-1.600419 z m 74.906543,0 a 1.6,1.6 0 0 1 1.599902,1.600419 1.6,1.6 0 0 1 -1.599902,1.599902 1.6,1.6 0 0 1 -1.599902,-1.599902 1.6,1.6 0 0 1 1.599902,-1.600419 z m -37.453013,2.377116 a 1.6,1.567972 0 0 1 1.5999,1.568379 1.6,1.567972 0 0 1 -1.5999,1.567863 1.6,1.567972 0 0 1 -1.5999,-1.567863 1.6,1.567972 0 0 1 1.5999,-1.568379 z m 0,87.042232 a 1.6,1.567972 0 0 1 1.5999,1.56838 1.6,1.567972 0 0 1 -1.5999,1.56786 1.6,1.567972 0 0 1 -1.5999,-1.56786 1.6,1.567972 0 0 1 1.5999,-1.56838 z m -37.45353,2.31304 a 1.6,1.6 0 0 1 1.59991,1.60042 1.6,1.6 0 0 1 -1.59991,1.5999 1.6,1.6 0 0 1 -1.5999,-1.5999 1.6,1.6 0 0 1 1.5999,-1.60042 z m 74.906543,0 a 1.6,1.6 0 0 1 1.599902,1.60042 1.6,1.6 0 0 1 -1.599902,1.5999 1.6,1.6 0 0 1 -1.599902,-1.5999 1.6,1.6 0 0 1 1.599902,-1.60042 z" />
  </g>
</svg>
