<?xml version="1.0" encoding="UTF-8" standalone="no"?>
<!-- Created with Inkscape (http://www.inkscape.org/) -->

<svg
   width="120.00042mm"
   height="119.9999mm"
   viewBox="0 0 120.00042 119.9999"
   version="1.1"
   id="svg68587"
   xmlns="http://www.w3.org/2000/svg"
   xmlns:svg="http://www.w3.org/2000/svg">
  <defs
     id="defs68584" />
  <g
     id="layer1"
     transform="translate(-41.506117,-88.500047)">
    <path
       id="rect11527"
       style="display:inline;fill:none;fill-opacity:1;stroke:#000000;stroke-width:0.083196;stroke-linecap:round;stroke-miterlimit:4;stroke-dasharray:none"
       d="M 41.547715,88.541645 V 208.45835 H 161.46494 V 88.541645 Z m 4.708756,3.35793 a 1.6,1.6 0 0 1 1.599903,1.60042 1.6,1.6 0 0 1 -1.599903,1.5999 1.6,1.6 0 0 1 -1.600419,-1.5999 1.6,1.6 0 0 1 1.600419,-1.60042 z m 110.500229,0 a 1.6,1.6 0 0 1 1.5999,1.60042 1.6,1.6 0 0 1 -1.5999,1.5999 1.6,1.6 0 0 1 -1.60042,-1.5999 1.6,1.6 0 0 1 1.60042,-1.60042 z m -92.703382,9.133815 a 1.6,1.6 0 0 1 0.494543,0.0786 1.6,1.6 0 0 1 0.230994,0.0956 1.6,1.6 0 0 1 0.001,5.2e-4 1.6,1.6 0 0 1 5.17e-4,5.1e-4 1.6,1.6 0 0 1 0.213424,0.13075 1.6,1.6 0 0 1 0.190686,0.16278 1.6,1.6 0 0 1 0.163297,0.1912 1.6,1.6 0 0 1 0.130742,0.21342 1.6,1.6 0 0 1 5.17e-4,5.2e-4 1.6,1.6 0 0 1 0,5.2e-4 1.6,1.6 0 0 1 0.0956,0.22996 1.6,1.6 0 0 1 5.17e-4,0.002 1.6,1.6 0 0 1 0,5.2e-4 1.6,1.6 0 0 1 0,5.2e-4 1.6,1.6 0 0 1 0.05788,0.24029 1.6,1.6 0 0 1 5.17e-4,0.003 1.6,1.6 0 0 1 5.17e-4,0.004 1.6,1.6 0 0 1 0.01912,0.24649 1.6,1.6 0 0 1 -0.120406,0.6072 1.6,1.6 0 0 1 -0.0047,0.01 1.6,1.6 0 0 1 -0.340548,0.50953 1.6,1.6 0 0 1 -0.0078,0.008 1.6,1.6 0 0 1 -0.510563,0.34107 1.6,1.6 0 0 1 -0.0072,0.003 1.6,1.6 0 0 1 -0.608748,0.12145 1.6,1.6 0 0 1 -0.608749,-0.12145 1.6,1.6 0 0 1 -0.0072,-0.003 1.6,1.6 0 0 1 -0.510563,-0.34107 1.6,1.6 0 0 1 -0.0078,-0.008 1.6,1.6 0 0 1 -0.341581,-0.51211 1.6,1.6 0 0 1 -0.0026,-0.005 1.6,1.6 0 0 1 -0.12144,-0.60927 1.6,1.6 0 0 1 0.12144,-0.60926 1.6,1.6 0 0 1 0.0026,-0.006 1.6,1.6 0 0 1 0.341581,-0.51159 1.6,1.6 0 0 1 0.0078,-0.008 1.6,1.6 0 0 1 0.510563,-0.34106 1.6,1.6 0 0 1 0.0072,-0.003 1.6,1.6 0 0 1 0.608749,-0.12144 z m 74.906542,0 a 1.6,1.6 0 0 1 0.49454,0.0786 1.6,1.6 0 0 1 0.23151,0.0961 1.6,1.6 0 0 1 0.21446,0.13126 1.6,1.6 0 0 1 0.19068,0.16278 1.6,1.6 0 0 1 0.1633,0.1912 1.6,1.6 0 0 1 0.13074,0.21342 1.6,1.6 0 0 1 5.2e-4,5.2e-4 1.6,1.6 0 0 1 0,5.2e-4 1.6,1.6 0 0 1 0.15399,0.47335 1.6,1.6 0 0 1 5.2e-4,0.002 1.6,1.6 0 0 1 5.2e-4,0.004 1.6,1.6 0 0 1 0.0191,0.2465 1.6,1.6 0 0 1 -0.12144,0.60927 1.6,1.6 0 0 1 -0.003,0.005 1.6,1.6 0 0 1 -0.34158,0.51211 1.6,1.6 0 0 1 -0.008,0.008 1.6,1.6 0 0 1 -0.51057,0.34106 1.6,1.6 0 0 1 -0.007,0.003 1.6,1.6 0 0 1 -0.60874,0.12144 1.6,1.6 0 0 1 -0.60875,-0.12144 1.6,1.6 0 0 1 -0.007,-0.003 1.6,1.6 0 0 1 -0.50953,-0.34003 1.6,1.6 0 0 1 -0.0103,-0.0103 1.6,1.6 0 0 1 -0.339,-0.50798 1.6,1.6 0 0 1 -0.005,-0.01 1.6,1.6 0 0 1 -0.12041,-0.6072 1.6,1.6 0 0 1 0.12041,-0.6072 1.6,1.6 0 0 1 0.005,-0.0103 1.6,1.6 0 0 1 0.339,-0.50798 1.6,1.6 0 0 1 0.0103,-0.0103 1.6,1.6 0 0 1 0.50953,-0.34003 1.6,1.6 0 0 1 0.007,-0.003 1.6,1.6 0 0 1 0.60875,-0.12144 z m -87.208117,11.73882 c 3.313706,-8e-5 6.000234,2.68632 6.000151,6.00015 1.58e-4,2.92802 -2.113245,5.42854 -5.000212,5.91644 v -0.91623 h -1.999878 v 0.91623 c -2.886971,-0.4879 -5.00037,-2.98842 -5.000212,-5.91644 -8.2e-5,-3.31383 2.686457,-6.00023 6.000151,-6.00015 z m 24.877551,0 c 3.313706,-8e-5 6.000234,2.68632 6.000151,6.00015 1.58e-4,2.92802 -2.113245,5.42854 -5.000212,5.91644 v -0.91623 h -1.999878 v 0.91623 c -2.886967,-0.4879 -5.000369,-2.98842 -5.000211,-5.91644 -8.3e-5,-3.31383 2.686484,-6.00023 6.00015,-6.00015 z m 24.877036,0 c 3.31367,-8e-5 6.00023,2.68632 6.00015,6.00015 1.6e-4,2.92802 -2.11324,5.42854 -5.00021,5.91644 v -0.91623 h -1.99988 v 0.91623 c -2.886967,-0.4879 -5.00037,-2.98842 -5.000212,-5.91644 -8.3e-5,-3.31383 2.686445,-6.00023 6.000152,-6.00015 z m 24.87755,0 c 3.31371,-8e-5 6.00023,2.68632 6.00015,6.00015 1.6e-4,2.92802 -2.11324,5.42854 -5.00021,5.91644 v -0.91623 h -1.99988 v 0.91623 c -2.88697,-0.4879 -5.00037,-2.98842 -5.00021,-5.91644 -8e-5,-3.31383 2.68644,-6.00023 6.00015,-6.00015 z m 24.87755,0 c 3.31343,-8e-5 6.00023,2.68632 6.00015,6.00015 1.6e-4,2.92802 -2.11352,5.42854 -5.00021,5.91644 v -0.91623 h -1.99988 v 0.91623 c -2.88709,-0.4879 -5.00037,-2.98842 -5.00021,-5.91644 -8e-5,-3.31383 2.68632,-6.00023 6.00015,-6.00015 z m -99.509687,29.40751 a 3.5,3.5 0 0 1 3.500045,3.50004 3.5,3.5 0 0 1 -3.500045,3.50005 3.5,3.5 0 0 1 -3.500045,-3.50005 3.5,3.5 0 0 1 3.500045,-3.50004 z m 24.877551,0 a 3.5,3.5 0 0 1 3.500045,3.50004 3.5,3.5 0 0 1 -3.500045,3.50005 3.5,3.5 0 0 1 -3.500044,-3.50005 3.5,3.5 0 0 1 3.500044,-3.50004 z m 24.877036,0 a 3.5,3.5 0 0 1 3.50004,3.50004 3.5,3.5 0 0 1 -3.50004,3.50005 3.5,3.5 0 0 1 -3.500046,-3.50005 3.5,3.5 0 0 1 3.500046,-3.50004 z m 24.87755,0 a 3.5,3.5 0 0 1 3.50004,3.50004 3.5,3.5 0 0 1 -3.50004,3.50005 3.5,3.5 0 0 1 -3.50004,-3.50005 3.5,3.5 0 0 1 3.50004,-3.50004 z m 24.87755,0 a 3.5,3.5 0 0 1 3.50004,3.50004 3.5,3.5 0 0 1 -3.50004,3.50005 3.5,3.5 0 0 1 -3.50005,-3.50005 3.5,3.5 0 0 1 3.50005,-3.50004 z m -100.509626,9.3002 h 1.999878 v 0.99994 h -1.999878 z m 24.877035,0 h 2.000394 v 0.99994 h -2.000394 z m 24.877551,0 h 1.99988 v 0.99994 h -1.99988 z m 24.87755,0 h 1.99988 v 0.99994 h -1.99988 z m 24.87755,0 h 1.99988 v 0.99994 h -1.99988 z m -80.632285,4.86843 h 13.999662 v 13.99966 H 69.629205 Z m 24.877034,0 h 14.000181 v 13.99966 H 94.506239 Z m 24.877551,0 h 14.00018 v 13.99966 h -14.00018 z m 24.87755,0 H 158.261 v 13.99966 H 144.26134 Z M 44.751654,166.39993 H 58.751833 V 180.3996 H 44.751654 Z m 24.877551,10.05159 h 13.999662 v 13.99966 H 69.629205 Z m 24.877034,0 h 14.000181 v 13.99966 H 94.506239 Z m 24.877551,0 h 14.00018 v 13.99966 h -14.00018 z m 24.87755,0 H 158.261 v 13.99966 h -13.99966 z m -80.208022,16.31425 a 1.6,1.6 0 0 1 0.246496,0.0191 1.6,1.6 0 0 1 0.0041,5.1e-4 1.6,1.6 0 0 1 0.0021,5.2e-4 1.6,1.6 0 0 1 0.241846,0.0584 1.6,1.6 0 0 1 0.230994,0.0956 1.6,1.6 0 0 1 0.001,5.1e-4 1.6,1.6 0 0 1 5.17e-4,5.2e-4 1.6,1.6 0 0 1 0.213424,0.13074 1.6,1.6 0 0 1 0.190686,0.16278 1.6,1.6 0 0 1 0.163297,0.19121 1.6,1.6 0 0 1 0.130742,0.21342 1.6,1.6 0 0 1 5.17e-4,5.2e-4 1.6,1.6 0 0 1 0,5.1e-4 1.6,1.6 0 0 1 0.0956,0.22997 1.6,1.6 0 0 1 5.17e-4,0.002 1.6,1.6 0 0 1 0,5.2e-4 1.6,1.6 0 0 1 0,5.1e-4 1.6,1.6 0 0 1 0.05788,0.2403 1.6,1.6 0 0 1 5.17e-4,0.003 1.6,1.6 0 0 1 5.17e-4,0.004 1.6,1.6 0 0 1 0.01912,0.24649 1.6,1.6 0 0 1 -0.120406,0.60719 1.6,1.6 0 0 1 -0.0047,0.0103 1.6,1.6 0 0 1 -0.340548,0.50953 1.6,1.6 0 0 1 -0.0078,0.008 1.6,1.6 0 0 1 -0.510563,0.34106 1.6,1.6 0 0 1 -0.0072,0.003 1.6,1.6 0 0 1 -0.608748,0.12144 1.6,1.6 0 0 1 -0.608749,-0.12144 1.6,1.6 0 0 1 -0.0072,-0.003 1.6,1.6 0 0 1 -0.510563,-0.34106 1.6,1.6 0 0 1 -0.0078,-0.008 1.6,1.6 0 0 1 -0.341581,-0.51212 1.6,1.6 0 0 1 -0.0026,-0.005 1.6,1.6 0 0 1 -0.12144,-0.60926 1.6,1.6 0 0 1 0.12144,-0.60927 1.6,1.6 0 0 1 0.0026,-0.006 1.6,1.6 0 0 1 0.341581,-0.51159 1.6,1.6 0 0 1 0.0078,-0.008 1.6,1.6 0 0 1 0.510563,-0.34107 1.6,1.6 0 0 1 0.0072,-0.003 1.6,1.6 0 0 1 0.608749,-0.12144 z m 74.906542,0 a 1.6,1.6 0 0 1 0.24649,0.0191 1.6,1.6 0 0 1 0.004,5.1e-4 1.6,1.6 0 0 1 0.001,5.2e-4 1.6,1.6 0 0 1 0.2434,0.0584 1.6,1.6 0 0 1 0.23151,0.0961 1.6,1.6 0 0 1 0.21446,0.13126 1.6,1.6 0 0 1 0.19068,0.16278 1.6,1.6 0 0 1 0.1633,0.19121 1.6,1.6 0 0 1 0.13074,0.21342 1.6,1.6 0 0 1 5.2e-4,5.2e-4 1.6,1.6 0 0 1 0,5.1e-4 1.6,1.6 0 0 1 0.15399,0.47336 1.6,1.6 0 0 1 5.2e-4,0.002 1.6,1.6 0 0 1 5.2e-4,0.004 1.6,1.6 0 0 1 0.0191,0.2465 1.6,1.6 0 0 1 -0.12144,0.60926 1.6,1.6 0 0 1 -0.003,0.005 1.6,1.6 0 0 1 -0.34158,0.51212 1.6,1.6 0 0 1 -0.008,0.008 1.6,1.6 0 0 1 -0.51057,0.34107 1.6,1.6 0 0 1 -0.007,0.003 1.6,1.6 0 0 1 -0.60875,0.12144 1.6,1.6 0 0 1 -0.60874,-0.12144 1.6,1.6 0 0 1 -0.007,-0.003 1.6,1.6 0 0 1 -0.50953,-0.34003 1.6,1.6 0 0 1 -0.0103,-0.0103 1.6,1.6 0 0 1 -0.339,-0.50798 1.6,1.6 0 0 1 -0.005,-0.0103 1.6,1.6 0 0 1 -0.12041,-0.6072 1.6,1.6 0 0 1 0.12041,-0.6072 1.6,1.6 0 0 1 0.005,-0.01 1.6,1.6 0 0 1 0.339,-0.50798 1.6,1.6 0 0 1 0.0103,-0.0103 1.6,1.6 0 0 1 0.50953,-0.34003 1.6,1.6 0 0 1 0.007,-0.003 1.6,1.6 0 0 1 0.60874,-0.12144 z m -92.703389,9.13382 a 1.6,1.6 0 0 1 1.599903,1.5999 1.6,1.6 0 0 1 -1.599903,1.60041 1.6,1.6 0 0 1 -1.600419,-1.60041 1.6,1.6 0 0 1 1.600419,-1.5999 z m 110.500229,0 a 1.6,1.6 0 0 1 1.5999,1.60042 1.6,1.6 0 0 1 -1.5999,1.59989 1.6,1.6 0 0 1 -1.60042,-1.59989 1.6,1.6 0 0 1 1.60042,-1.60042 z" />
  </g>
</svg>
