<?xml version="1.0" encoding="UTF-8" standalone="no"?>
<!-- Created with Inkscape (http://www.inkscape.org/) -->

<svg
   width="120.0387mm"
   height="120.0759mm"
   viewBox="0 0 120.0387 120.0759"
   version="1.1"
   id="svg76596"
   xmlns="http://www.w3.org/2000/svg"
   xmlns:svg="http://www.w3.org/2000/svg">
  <defs
     id="defs76593" />
  <g
     id="layer1"
     transform="translate(-41.486979,-88.462045)">
    <path
       id="rect3678-3"
       style="display:inline;opacity:0.559875;fill:none;fill-opacity:1;stroke:#000000;stroke-width:0.076;stroke-linecap:round;stroke-miterlimit:4;stroke-dasharray:none"
       d="m 51.524885,88.500045 v 5.00021 c -1.66e-4,2.76139 -2.238926,4.99982 -5.000212,4.9997 H 41.524979 V 198.50004 h 4.999694 c 2.761286,-1.1e-4 5.000046,2.23832 5.000212,4.99971 v 5.0002 h 99.962895 v -5.0002 c 1.6e-4,-2.76139 2.23882,-4.99982 5.00021,-4.99971 h 4.99969 V 98.499955 h -4.99969 c -2.76139,1.2e-4 -5.00005,-2.23831 -5.00021,-4.9997 v -5.00021 z m 12.547038,12.533605 a 1.6,1.6 0 0 1 1.599902,1.60042 1.6,1.6 0 0 1 -1.599902,1.5999 1.6,1.6 0 0 1 -1.599903,-1.5999 1.6,1.6 0 0 1 1.599903,-1.60042 z m 74.906537,0 a 1.6,1.6 0 0 1 1.5999,1.60042 1.6,1.6 0 0 1 -1.5999,1.5999 1.6,1.6 0 0 1 -1.5999,-1.5999 1.6,1.6 0 0 1 1.5999,-1.60042 z m -88.07886,6.73861 h 1.741496 c 4.226396,0 7.628992,3.0117 7.628992,6.75152 v 8.49768 c 0,3.73981 -3.402596,6.751 -7.628992,6.751 H 50.8996 c -4.226386,0 -7.629508,-3.01119 -7.629508,-6.751 v -8.49768 c 0,-3.73982 3.403122,-6.75152 7.629508,-6.75152 z m 24.877035,0 h 1.742012 c 4.2264,0 7.628992,3.01169 7.628992,6.75152 v 8.49768 c 0,3.73982 -3.402592,6.751 -7.628992,6.751 h -1.742012 c -4.2264,0 -7.628992,-3.01118 -7.628992,-6.751 v -8.49768 c 0,-3.73983 3.402592,-6.75152 7.628992,-6.75152 z m 24.877555,0 h 1.74201 c 4.2264,0 7.62899,3.01168 7.62899,6.75152 v 8.49768 c 0,3.73983 -3.40259,6.751 -7.62899,6.751 h -1.74201 c -4.226408,0 -7.628996,-3.01117 -7.628996,-6.751 v -8.49768 c 0,-3.73984 3.402588,-6.75152 7.628996,-6.75152 z m 24.87755,0 h 1.74149 c 4.22641,0 7.62899,3.01168 7.62899,6.75152 v 8.49768 c 0,3.73983 -3.40258,6.751 -7.62899,6.751 h -1.74149 c -4.22641,0 -7.62951,-3.01116 -7.62951,-6.751 v -8.49768 c 0,-3.73984 3.4031,-6.75152 7.62951,-6.75152 z m 24.87703,0 h 1.74202 c 4.22625,0 7.62899,3.01167 7.62899,6.75152 v 8.49768 c 0,3.73984 -3.40274,6.751 -7.62899,6.751 h -1.74202 c -4.22625,0 -7.62899,-3.01115 -7.62899,-6.751 v -8.49768 c 0,-3.73985 3.40274,-6.75152 7.62899,-6.75152 z M 51.770348,137.9301 a 7.5500002,7.5500002 0 0 1 7.549927,7.54992 7.5500002,7.5500002 0 0 1 -7.549927,7.54993 7.5500002,7.5500002 0 0 1 -7.549927,-7.54993 7.5500002,7.5500002 0 0 1 7.549927,-7.54992 z m 24.877551,0 a 7.5500002,7.5500002 0 0 1 7.549927,7.54992 7.5500002,7.5500002 0 0 1 -7.549927,7.54993 7.5500002,7.5500002 0 0 1 -7.550443,-7.54993 7.5500002,7.5500002 0 0 1 7.550443,-7.54992 z m 24.877031,0 a 7.5500002,7.5500002 0 0 1 7.54993,7.54992 7.5500002,7.5500002 0 0 1 -7.54993,7.54993 7.5500002,7.5500002 0 0 1 -7.549923,-7.54993 7.5500002,7.5500002 0 0 1 7.549923,-7.54992 z m 24.87755,0 a 7.5500002,7.5500002 0 0 1 7.54993,7.54992 7.5500002,7.5500002 0 0 1 -7.54993,7.54993 7.5500002,7.5500002 0 0 1 -7.54992,-7.54993 7.5500002,7.5500002 0 0 1 7.54992,-7.54992 z m 24.87756,0 a 7.5500002,7.5500002 0 0 1 7.54992,7.54992 7.5500002,7.5500002 0 0 1 -7.54992,7.54993 7.5500002,7.5500002 0 0 1 -7.55045,-7.54993 7.5500002,7.5500002 0 0 1 7.55045,-7.54992 z m -84.132336,15.91841 h 18.999874 v 18.99987 H 67.147704 Z m 24.877551,0 h 18.999875 v 18.99987 H 92.025255 Z m 24.877035,0 h 19.00039 v 18.99987 h -19.00039 z m 24.87755,0 h 18.99988 v 18.99987 h -18.99988 z m -99.509687,10.05158 h 19.00039 v 18.99987 h -19.00039 z m 24.877551,10.05159 h 18.999874 v 18.99988 H 67.147704 Z m 24.877551,0 h 18.999875 v 18.99988 H 92.025255 Z m 24.877035,0 h 19.00039 v 18.99988 h -19.00039 z m 24.87755,0 h 18.99988 v 18.99988 h -18.99988 z m -77.707917,18.81436 a 1.6,1.6 0 0 1 1.599902,1.60042 1.6,1.6 0 0 1 -1.599902,1.5999 1.6,1.6 0 0 1 -1.599903,-1.5999 1.6,1.6 0 0 1 1.599903,-1.60042 z m 74.906537,0 a 1.6,1.6 0 0 1 1.5999,1.60042 1.6,1.6 0 0 1 -1.5999,1.5999 1.6,1.6 0 0 1 -1.5999,-1.5999 1.6,1.6 0 0 1 1.5999,-1.60042 z" />
  </g>
</svg>
