<?xml version="1.0" encoding="UTF-8" standalone="no"?>
<!-- Created with Inkscape (http://www.inkscape.org/) -->

<svg
   width="125.08331mm"
   height="97.999695mm"
   viewBox="0 0 125.08331 97.999695"
   version="1.1"
   id="svg3877"
   inkscape:version="1.2.2 (b0a8486, 2022-12-01)"
   sodipodi:docname="3mm-Black-Microcontroller_Layer.svg"
   xmlns:inkscape="http://www.inkscape.org/namespaces/inkscape"
   xmlns:sodipodi="http://sodipodi.sourceforge.net/DTD/sodipodi-0.dtd"
   xmlns="http://www.w3.org/2000/svg"
   xmlns:svg="http://www.w3.org/2000/svg">
  <sodipodi:namedview
     id="namedview3879"
     pagecolor="#ffffff"
     bordercolor="#666666"
     borderopacity="1.0"
     inkscape:showpageshadow="2"
     inkscape:pageopacity="0.0"
     inkscape:pagecheckerboard="0"
     inkscape:deskcolor="#d1d1d1"
     inkscape:document-units="mm"
     showgrid="false"
     inkscape:zoom="3.1507113"
     inkscape:cx="236.45454"
     inkscape:cy="185.19627"
     inkscape:current-layer="layer1" />
  <defs
     id="defs3874" />
  <g
     inkscape:label="Capa 1"
     inkscape:groupmode="layer"
     id="layer1"
     transform="translate(2.5399979e-4,-11.000108)">
    <path
       id="rect11527-5"
       style="display:inline;fill:none;fill-opacity:1;stroke:#000000;stroke-width:0.0831903;stroke-linecap:round;stroke-miterlimit:4;stroke-dasharray:none"
       d="M 0.04134115,11.041703 V 108.95821 H 125.04146 V 11.041703 Z M 24.741125,13.062769 a 1.6,1.6 0 0 1 1.599903,1.600419 1.6,1.6 0 0 1 -1.599903,1.599902 1.6,1.6 0 0 1 -1.599902,-1.599902 1.6,1.6 0 0 1 1.599902,-1.600419 z m 74.765979,0 a 1.6,1.6 0 0 1 1.600416,1.600419 1.6,1.6 0 0 1 -1.600416,1.599902 1.6,1.6 0 0 1 -1.599902,-1.599902 1.6,1.6 0 0 1 1.599902,-1.600419 z m -36.965702,0.927075 a 1.6,1.6 0 0 1 1.600419,1.600419 1.6,1.6 0 0 1 -1.600419,1.599902 1.6,1.6 0 0 1 -1.599902,-1.599902 1.6,1.6 0 0 1 1.599902,-1.600419 z m 39.541768,80.010103 h 17.99994 v 9.999903 h -17.99994 z m -39.541768,8.809803 a 1.6,1.6 0 0 1 1.600419,1.60041 1.6,1.6 0 0 1 -1.600419,1.59991 1.6,1.6 0 0 1 -1.599902,-1.59991 1.6,1.6 0 0 1 1.599902,-1.60041 z m -37.800277,0.92707 a 1.6,1.6 0 0 1 1.599903,1.60042 1.6,1.6 0 0 1 -1.599903,1.5999 1.6,1.6 0 0 1 -1.599902,-1.5999 1.6,1.6 0 0 1 1.599902,-1.60042 z m 74.765979,0 a 1.6,1.6 0 0 1 1.600416,1.60042 1.6,1.6 0 0 1 -1.600416,1.5999 1.6,1.6 0 0 1 -1.599902,-1.5999 1.6,1.6 0 0 1 1.599902,-1.60042 z" />
  </g>
</svg>
