<?xml version="1.0" encoding="UTF-8" standalone="no"?>
<!-- Created with Inkscape (http://www.inkscape.org/) -->

<svg
   width="124.99964mm"
   height="119.99995mm"
   viewBox="0 0 124.99964 119.99995"
   version="1.1"
   id="svg64782"
   inkscape:version="1.2.2 (b0a8486, 2022-12-01)"
   sodipodi:docname="3mm-Translucent-Middle_Layer.svg"
   xmlns:inkscape="http://www.inkscape.org/namespaces/inkscape"
   xmlns:sodipodi="http://sodipodi.sourceforge.net/DTD/sodipodi-0.dtd"
   xmlns="http://www.w3.org/2000/svg"
   xmlns:svg="http://www.w3.org/2000/svg">
  <sodipodi:namedview
     id="namedview64784"
     pagecolor="#ffffff"
     bordercolor="#666666"
     borderopacity="1.0"
     inkscape:showpageshadow="2"
     inkscape:pageopacity="0.0"
     inkscape:pagecheckerboard="0"
     inkscape:deskcolor="#d1d1d1"
     inkscape:document-units="mm"
     showgrid="false"
     inkscape:zoom="0.914906"
     inkscape:cx="236.08983"
     inkscape:cy="226.79925"
     inkscape:current-layer="layer1" />
  <defs
     id="defs64779" />
  <g
     inkscape:label="Capa 1"
     inkscape:groupmode="layer"
     id="layer1"
     transform="translate(-39.006509,-88.500025)">
    <path
       id="rect3678-3"
       style="display:inline;fill:none;fill-opacity:1;stroke:#000000;stroke-width:0.076;stroke-linecap:round;stroke-miterlimit:4;stroke-dasharray:none"
       d="m 49.041832,88.538025 v 4.99659 c -1.66e-4,2.75964 -2.238562,4.99672 -4.999178,4.9966 h -4.998145 v 99.937045 h 4.998145 c 2.760616,-1.1e-4 4.999012,2.23697 4.999178,4.9966 v 4.99712 H 153.97083 v -4.99712 c 1.6e-4,-2.75963 2.2385,-4.99671 4.99918,-4.9966 h 4.99814 V 98.531215 h -4.99814 c -2.76068,1.2e-4 -4.99902,-2.23696 -4.99918,-4.9966 v -4.99659 z m 14.705562,13.024535 a 1.6,1.6 0 0 1 1.599902,1.60042 1.6,1.6 0 0 1 -1.599902,1.5999 1.6,1.6 0 0 1 -1.599902,-1.5999 1.6,1.6 0 0 1 1.599902,-1.60042 z m 74.765976,0 a 1.6,1.6 0 0 1 1.60042,1.60042 1.6,1.6 0 0 1 -1.60042,1.5999 1.6,1.6 0 0 1 -1.5999,-1.5999 1.6,1.6 0 0 1 1.5999,-1.60042 z m -87.613771,3.03443 h 1.742013 c 4.226448,0 7.628992,3.01159 7.628992,6.75152 v 8.49768 c 0,3.73994 -3.402544,6.75102 -7.628992,6.75102 h -1.742013 c -4.226435,0 -7.628991,-3.01107 -7.628991,-6.75102 v -8.49768 c 0,-3.73993 3.402556,-6.75152 7.628991,-6.75152 z m 24.877552,0 h 1.741495 c 4.226452,0 7.628992,3.01158 7.628992,6.75152 v 8.49768 c 0,3.73995 -3.40254,6.75102 -7.628992,6.75102 h -1.741495 c -4.226452,0 -7.629509,-3.01106 -7.629509,-6.75102 v -8.49768 c 0,-3.73994 3.403057,-6.75152 7.629509,-6.75152 z m 24.877029,0 h 1.74202 c 4.22645,0 7.62899,3.01156 7.62899,6.75152 v 8.49768 c 0,3.73996 -3.40254,6.75102 -7.62899,6.75102 h -1.74202 c -4.226451,0 -7.628986,-3.01106 -7.628986,-6.75102 v -8.49768 c 0,-3.73996 3.402535,-6.75152 7.628986,-6.75152 z m 24.87756,0 h 1.74201 c 4.22646,0 7.62899,3.01155 7.62899,6.75152 v 8.49768 c 0,3.73997 -3.40253,6.75102 -7.62899,6.75102 h -1.74201 c -4.22645,0 -7.629,-3.01105 -7.629,-6.75102 v -8.49768 c 0,-3.73997 3.40255,-6.75152 7.629,-6.75152 z m 24.87755,0 h 1.74149 c 4.22652,0 7.629,3.01154 7.629,6.75152 v 8.49768 c 0,3.73998 -3.40248,6.75102 -7.629,6.75102 h -1.74149 c -4.22652,0 -7.62951,-3.01104 -7.62951,-6.75102 v -8.49768 c 0,-3.73998 3.40299,-6.75152 7.62951,-6.75152 z m -98.638943,33.33285 a 7.5500002,7.5500002 0 0 1 7.549927,7.54993 7.5500002,7.5500002 0 0 1 -7.549927,7.54992 7.5500002,7.5500002 0 0 1 -7.549926,-7.54992 7.5500002,7.5500002 0 0 1 7.549926,-7.54993 z m 24.877552,0 a 7.5500002,7.5500002 0 0 1 7.549926,7.54993 7.5500002,7.5500002 0 0 1 -7.549926,7.54992 7.5500002,7.5500002 0 0 1 -7.549927,-7.54992 7.5500002,7.5500002 0 0 1 7.549927,-7.54993 z m 24.877551,0 a 7.5500002,7.5500002 0 0 1 7.54993,7.54993 7.5500002,7.5500002 0 0 1 -7.54993,7.54992 7.5500002,7.5500002 0 0 1 -7.550444,-7.54992 7.5500002,7.5500002 0 0 1 7.550444,-7.54993 z m 24.87703,0 a 7.5500002,7.5500002 0 0 1 7.54993,7.54993 7.5500002,7.5500002 0 0 1 -7.54993,7.54992 7.5500002,7.5500002 0 0 1 -7.54992,-7.54992 7.5500002,7.5500002 0 0 1 7.54992,-7.54993 z m 24.87756,0 a 7.5500002,7.5500002 0 0 1 7.54992,7.54993 7.5500002,7.5500002 0 0 1 -7.54992,7.54992 7.5500002,7.5500002 0 0 1 -7.54993,-7.54992 7.5500002,7.5500002 0 0 1 7.54993,-7.54993 z m -84.132337,16.97674 h 19.000391 v 18.99988 H 67.147703 Z m 24.888404,0 H 111.0365 v 18.99988 H 92.036107 Z m 24.888923,0 h 18.99987 v 18.99988 h -18.99987 z m 24.8884,0 h 18.99987 v 18.99988 h -18.99987 z m -99.542761,10.84533 h 18.999874 v 18.99988 H 42.270669 Z m 24.877034,10.86187 h 19.000391 v 18.99988 H 67.147703 Z m 24.888404,0 H 111.0365 v 18.99988 H 92.036107 Z m 24.888923,0 h 18.99987 v 18.99988 h -18.99987 z m 24.8884,0 h 18.99987 v 18.99988 H 141.81343 Z M 63.747394,192.2366 a 1.6,1.6 0 0 1 1.599902,1.60042 1.6,1.6 0 0 1 -1.599902,1.5999 1.6,1.6 0 0 1 -1.599902,-1.5999 1.6,1.6 0 0 1 1.599902,-1.60042 z m 74.765976,0 a 1.6,1.6 0 0 1 1.60042,1.60042 1.6,1.6 0 0 1 -1.60042,1.5999 1.6,1.6 0 0 1 -1.5999,-1.5999 1.6,1.6 0 0 1 1.5999,-1.60042 z" />
  </g>
</svg>
