<?xml version="1.0" encoding="UTF-8" standalone="no"?>
<!-- Created with Inkscape (http://www.inkscape.org/) -->

<svg
   width="124.91692mm"
   height="119.9167mm"
   viewBox="0 0 124.91692 119.9167"
   version="1.1"
   id="svg59245"
   inkscape:version="1.2.2 (b0a8486, 2022-12-01)"
   sodipodi:docname="3mm-Black-Back_Layer.svg"
   xmlns:inkscape="http://www.inkscape.org/namespaces/inkscape"
   xmlns:sodipodi="http://sodipodi.sourceforge.net/DTD/sodipodi-0.dtd"
   xmlns="http://www.w3.org/2000/svg"
   xmlns:svg="http://www.w3.org/2000/svg">
  <sodipodi:namedview
     id="namedview59247"
     pagecolor="#ffffff"
     bordercolor="#666666"
     borderopacity="1.0"
     inkscape:showpageshadow="2"
     inkscape:pageopacity="0.0"
     inkscape:pagecheckerboard="0"
     inkscape:deskcolor="#d1d1d1"
     inkscape:document-units="mm"
     showgrid="false"
     inkscape:zoom="0.914906"
     inkscape:cx="236.08983"
     inkscape:cy="226.79925"
     inkscape:current-layer="layer1" />
  <defs
     id="defs59242" />
  <g
     inkscape:label="Capa 1"
     inkscape:groupmode="layer"
     id="layer1"
     transform="translate(-39.04787,-88.541645)">
    <path
       id="rect11527"
       style="display:inline;fill:none;fill-opacity:1;stroke:#000000;stroke-width:0.083196;stroke-linecap:round;stroke-miterlimit:4;stroke-dasharray:none"
       d="M 39.04787,88.541645 V 208.45835 H 163.96479 V 88.541645 Z m 4.72891,3.10627 a 1.6,1.6 0 0 1 0.494027,0.0785 1.6,1.6 0 0 1 0.232027,0.0961 1.6,1.6 0 0 1 0.405143,0.29404 1.6,1.6 0 0 1 0.448552,0.87902 1.6,1.6 0 0 1 5.16e-4,0.002 1.6,1.6 0 0 1 5.17e-4,0.004 1.6,1.6 0 0 1 0.01912,0.2465 1.6,1.6 0 0 1 -0.121439,0.60926 1.6,1.6 0 0 1 -0.0026,0.005 1.6,1.6 0 0 1 -0.341581,0.51211 1.6,1.6 0 0 1 -0.0078,0.008 1.6,1.6 0 0 1 -0.512113,0.34158 1.6,1.6 0 0 1 -0.0052,0.003 1.6,1.6 0 0 1 -0.609265,0.12144 1.6,1.6 0 0 1 -0.609265,-0.12144 1.6,1.6 0 0 1 -0.0062,-0.003 1.6,1.6 0 0 1 -0.511597,-0.34158 1.6,1.6 0 0 1 -0.0078,-0.008 1.6,1.6 0 0 1 -0.342098,-0.51211 1.6,1.6 0 0 1 -0.0021,-0.005 1.6,1.6 0 0 1 -0.12144,-0.60926 1.6,1.6 0 0 1 0.12144,-0.6103 1.6,1.6 0 0 1 0.0021,-0.004 1.6,1.6 0 0 1 0.343131,-0.51418 1.6,1.6 0 0 1 0.0052,-0.005 1.6,1.6 0 0 1 0.514181,-0.34314 1.6,1.6 0 0 1 0.0041,-0.002 1.6,1.6 0 0 1 0.610298,-0.12144 z m 115.41776,0 a 1.6,1.6 0 0 1 0.49455,0.0785 1.6,1.6 0 0 1 0.23099,0.0956 1.6,1.6 0 0 1 10e-4,5.1e-4 1.6,1.6 0 0 1 5.2e-4,5.2e-4 1.6,1.6 0 0 1 0.21342,0.13074 1.6,1.6 0 0 1 0.18914,0.16123 1.6,1.6 0 0 1 0.002,0.002 1.6,1.6 0 0 1 0.002,0.002 1.6,1.6 0 0 1 0.16175,0.18914 1.6,1.6 0 0 1 0.13074,0.21342 1.6,1.6 0 0 1 5.2e-4,5.2e-4 1.6,1.6 0 0 1 0,5.1e-4 1.6,1.6 0 0 1 0.0956,0.22996 1.6,1.6 0 0 1 5.1e-4,0.002 1.6,1.6 0 0 1 0,5.2e-4 1.6,1.6 0 0 1 0,5.2e-4 1.6,1.6 0 0 1 0.0579,0.24029 1.6,1.6 0 0 1 5.2e-4,0.003 1.6,1.6 0 0 1 5.1e-4,0.004 1.6,1.6 0 0 1 0.0191,0.2465 1.6,1.6 0 0 1 -0.12144,0.60926 1.6,1.6 0 0 1 -0.003,0.005 1.6,1.6 0 0 1 -0.34158,0.51211 1.6,1.6 0 0 1 -0.008,0.008 1.6,1.6 0 0 1 -0.51056,0.34106 1.6,1.6 0 0 1 -0.007,0.003 1.6,1.6 0 0 1 -0.60875,0.12144 1.6,1.6 0 0 1 -0.60875,-0.12144 1.6,1.6 0 0 1 -0.007,-0.003 1.6,1.6 0 0 1 -0.51056,-0.34106 1.6,1.6 0 0 1 -0.008,-0.008 1.6,1.6 0 0 1 -0.34054,-0.50953 1.6,1.6 0 0 1 -0.005,-0.01 1.6,1.6 0 0 1 -0.12041,-0.6072 1.6,1.6 0 0 1 0.12041,-0.6072 1.6,1.6 0 0 1 0.005,-0.0103 1.6,1.6 0 0 1 0.34054,-0.50953 1.6,1.6 0 0 1 0.008,-0.008 1.6,1.6 0 0 1 0.51056,-0.34106 1.6,1.6 0 0 1 0.007,-0.003 1.6,1.6 0 0 1 0.60875,-0.12144 z m -95.446886,9.914645 a 1.6,1.6 0 0 1 1.599902,1.60042 1.6,1.6 0 0 1 -1.599902,1.5999 1.6,1.6 0 0 1 -1.599902,-1.5999 1.6,1.6 0 0 1 1.599902,-1.60042 z m 74.765976,0 a 1.6,1.6 0 0 1 1.60042,1.60042 1.6,1.6 0 0 1 -1.60042,1.5999 1.6,1.6 0 0 1 -1.5999,-1.5999 1.6,1.6 0 0 1 1.5999,-1.60042 z m -86.743023,8.03465 a 6,6 0 0 1 6.000151,6.00014 6,6 0 0 1 -5.000212,5.91644 v -0.91623 h -1.999878 v 0.91623 a 6,6 0 0 1 -5.000211,-5.91644 6,6 0 0 1 6.00015,-6.00014 z m 24.877552,0 a 6,6 0 0 1 6.00015,6.00014 6,6 0 0 1 -5.000211,5.91644 v -0.91623 H 75.64822 v 0.91623 a 6,6 0 0 1 -5.000212,-5.91644 6,6 0 0 1 6.000151,-6.00014 z m 24.877551,0 a 6,6 0 0 1 6.00015,6.00014 6,6 0 0 1 -5.00021,5.91644 v -0.91623 h -1.99988 v 0.91623 a 6,6 0 0 1 -5.000211,-5.91644 6,6 0 0 1 6.000151,-6.00014 z m 24.87703,0 a 6,6 0 0 1 6.00015,6.00014 6,6 0 0 1 -5.00021,5.91644 v -0.91623 h -1.99987 v 0.91623 a 6,6 0 0 1 -5.00022,-5.91644 6,6 0 0 1 6.00015,-6.00014 z m 24.87756,0 a 6,6 0 0 1 6.00015,6.00014 6,6 0 0 1 -5.00021,5.91644 v -0.91623 h -1.99988 v 0.91623 a 6,6 0 0 1 -5.00021,-5.91644 6,6 0 0 1 6.00015,-6.00014 z m -99.509693,32.58251 a 3.5,3.5 0 0 1 3.500045,3.50004 3.5,3.5 0 0 1 -3.500045,3.50005 3.5,3.5 0 0 1 -3.500044,-3.50005 3.5,3.5 0 0 1 3.500044,-3.50004 z m 24.877552,0 a 3.5,3.5 0 0 1 3.500044,3.50004 3.5,3.5 0 0 1 -3.500044,3.50005 3.5,3.5 0 0 1 -3.500045,-3.50005 3.5,3.5 0 0 1 3.500045,-3.50004 z m 24.877551,0 a 3.5,3.5 0 0 1 3.49953,3.50004 3.5,3.5 0 0 1 -3.49953,3.50005 3.5,3.5 0 0 1 -3.500045,-3.50005 3.5,3.5 0 0 1 3.500045,-3.50004 z m 24.87703,0 a 3.5,3.5 0 0 1 3.50005,3.50004 3.5,3.5 0 0 1 -3.50005,3.50005 3.5,3.5 0 0 1 -3.50004,-3.50005 3.5,3.5 0 0 1 3.50004,-3.50004 z m -75.632072,9.3002 h 1.999878 v 0.99994 h -1.999878 z m 24.877552,0 h 1.999878 v 0.99994 H 75.64822 Z m 24.87703,0 h 2.0004 v 0.99994 h -2.0004 z m 24.87756,0 h 1.99987 v 0.99994 h -1.99987 z m 24.87755,0 h 1.99988 v 0.99994 h -1.99988 z m -80.632291,5.92678 h 14.000179 v 13.99965 H 69.648069 Z m 24.888403,0 h 14.000178 v 13.99965 H 94.536472 Z m 24.888408,0 h 14.00018 v 13.99965 h -14.00018 z m 24.88892,0 h 13.99966 v 13.99965 H 144.3138 Z m -99.543282,10.84532 h 14.000179 v 13.99966 H 44.770518 Z m 24.877551,10.86187 h 14.000179 v 14.00018 H 69.648069 Z m 24.888403,0 h 14.000178 v 14.00018 H 94.536472 Z m 24.888408,0 h 14.00018 v 14.00018 h -14.00018 z m 24.88892,0 h 13.99966 v 14.00018 H 144.3138 Z M 63.747654,192.2366 a 1.6,1.6 0 0 1 1.599902,1.60042 1.6,1.6 0 0 1 -1.599902,1.5999 1.6,1.6 0 0 1 -1.599902,-1.5999 1.6,1.6 0 0 1 1.599902,-1.60042 z m 74.765976,0 a 1.6,1.6 0 0 1 1.60042,1.60042 1.6,1.6 0 0 1 -1.60042,1.5999 1.6,1.6 0 0 1 -1.5999,-1.5999 1.6,1.6 0 0 1 1.5999,-1.60042 z m -94.73685,9.91464 a 1.6,1.6 0 0 1 0.243913,0.0191 1.6,1.6 0 0 1 0.01964,0.004 1.6,1.6 0 0 1 0.221175,0.0532 1.6,1.6 0 0 1 0.02481,0.009 1.6,1.6 0 0 1 0.204122,0.0842 1.6,1.6 0 0 1 0.02842,0.015 1.6,1.6 0 0 1 0.187069,0.11472 1.6,1.6 0 0 1 0.02325,0.017 1.6,1.6 0 0 1 0.167948,0.14366 1.6,1.6 0 0 1 0.02015,0.0196 1.6,1.6 0 0 1 0.144177,0.16951 1.6,1.6 0 0 1 0.01499,0.0207 1.6,1.6 0 0 1 0.117823,0.19119 1.6,1.6 0 0 1 0.01188,0.0227 1.6,1.6 0 0 1 0.08785,0.21187 1.6,1.6 0 0 1 0.0057,0.0165 1.6,1.6 0 0 1 0.05426,0.22479 1.6,1.6 0 0 1 0.0036,0.0196 1.6,1.6 0 0 1 0.01912,0.24391 1.6,1.6 0 0 1 -0.12144,0.60875 1.6,1.6 0 0 1 -0.0031,0.007 1.6,1.6 0 0 1 -0.341064,0.51056 1.6,1.6 0 0 1 -0.0078,0.008 1.6,1.6 0 0 1 -0.50953,0.34055 1.6,1.6 0 0 1 -0.0098,0.005 1.6,1.6 0 0 1 -0.607198,0.12041 1.6,1.6 0 0 1 -0.607198,-0.12041 1.6,1.6 0 0 1 -0.01034,-0.005 1.6,1.6 0 0 1 -0.50953,-0.34055 1.6,1.6 0 0 1 -0.0078,-0.008 1.6,1.6 0 0 1 -0.341065,-0.51056 1.6,1.6 0 0 1 -0.0031,-0.007 1.6,1.6 0 0 1 -0.121439,-0.60875 1.6,1.6 0 0 1 0.121439,-0.60874 1.6,1.6 0 0 1 0.0031,-0.007 1.6,1.6 0 0 1 0.341065,-0.51056 1.6,1.6 0 0 1 0.0078,-0.008 1.6,1.6 0 0 1 0.511597,-0.34159 1.6,1.6 0 0 1 0.0062,-0.003 1.6,1.6 0 0 1 0.609265,-0.12144 z m 115.41776,0 a 1.6,1.6 0 0 1 0.24392,0.0191 1.6,1.6 0 0 1 0.0202,0.004 1.6,1.6 0 0 1 0.21962,0.0527 1.6,1.6 0 0 1 0.0295,0.0103 1.6,1.6 0 0 1 0.19895,0.0822 1.6,1.6 0 0 1 0.0336,0.0181 1.6,1.6 0 0 1 0.18139,0.1111 1.6,1.6 0 0 1 0.0289,0.0212 1.6,1.6 0 0 1 0.16433,0.14107 1.6,1.6 0 0 1 0.0202,0.0202 1.6,1.6 0 0 1 0.14108,0.16433 1.6,1.6 0 0 1 0.0212,0.0289 1.6,1.6 0 0 1 0.1111,0.18138 1.6,1.6 0 0 1 0.0181,0.0336 1.6,1.6 0 0 1 0.0822,0.19896 1.6,1.6 0 0 1 0.0103,0.0294 1.6,1.6 0 0 1 0.0527,0.21963 1.6,1.6 0 0 1 0.004,0.0202 1.6,1.6 0 0 1 0.0191,0.24391 1.6,1.6 0 0 1 -0.12144,0.60875 1.6,1.6 0 0 1 -0.003,0.007 1.6,1.6 0 0 1 -0.34106,0.51056 1.6,1.6 0 0 1 -0.008,0.008 1.6,1.6 0 0 1 -0.50798,0.34003 1.6,1.6 0 0 1 -0.0119,0.005 1.6,1.6 0 0 1 -0.60668,0.12041 1.6,1.6 0 0 1 -0.60668,-0.12041 1.6,1.6 0 0 1 -0.0119,-0.005 1.6,1.6 0 0 1 -0.50798,-0.34003 1.6,1.6 0 0 1 -0.008,-0.008 1.6,1.6 0 0 1 -0.34003,-0.50798 1.6,1.6 0 0 1 -0.005,-0.0119 1.6,1.6 0 0 1 -0.12041,-0.60668 1.6,1.6 0 0 1 0.12041,-0.60668 1.6,1.6 0 0 1 0.005,-0.0119 1.6,1.6 0 0 1 0.34003,-0.50798 1.6,1.6 0 0 1 0.008,-0.008 1.6,1.6 0 0 1 0.51056,-0.34107 1.6,1.6 0 0 1 0.007,-0.003 1.6,1.6 0 0 1 0.60875,-0.12144 z" />
  </g>
</svg>
