<?xml version="1.0" encoding="UTF-8" standalone="no"?>
<!-- Created with Inkscape (http://www.inkscape.org/) -->

<svg
   width="125.00011mm"
   height="119.99991mm"
   viewBox="0 0 125.00011 119.99991"
   version="1.1"
   id="svg4756"
   inkscape:version="1.2.2 (b0a8486, 2022-12-01)"
   sodipodi:docname="3mm-Black-Back_Layer.svg"
   xmlns:inkscape="http://www.inkscape.org/namespaces/inkscape"
   xmlns:sodipodi="http://sodipodi.sourceforge.net/DTD/sodipodi-0.dtd"
   xmlns="http://www.w3.org/2000/svg"
   xmlns:svg="http://www.w3.org/2000/svg">
  <sodipodi:namedview
     id="namedview4758"
     pagecolor="#ffffff"
     bordercolor="#666666"
     borderopacity="1.0"
     inkscape:showpageshadow="2"
     inkscape:pageopacity="0.0"
     inkscape:pagecheckerboard="0"
     inkscape:deskcolor="#d1d1d1"
     inkscape:document-units="mm"
     showgrid="false"
     inkscape:zoom="1.2865374"
     inkscape:cx="236.29316"
     inkscape:cy="227.35444"
     inkscape:current-layer="layer1" />
  <defs
     id="defs4753" />
  <g
     inkscape:label="Capa 1"
     inkscape:groupmode="layer"
     id="layer1"
     transform="translate(162.27124,37.153798)">
    <path
       id="rect11527"
       style="display:inline;fill:none;fill-opacity:1;stroke:#000000;stroke-width:0.083196;stroke-linecap:round;stroke-miterlimit:4;stroke-dasharray:none"
       d="M -162.22964,-37.1122 V 82.80451 H -37.31272 V -37.1122 Z m 4.72891,3.10627 c 0.16777,10e-5 0.33449,0.0266 0.49403,0.0785 0.0797,0.0259 0.15732,0.058 0.23202,0.0961 0.14964,0.0761 0.28637,0.17538 0.40515,0.29404 0.2384,0.23843 0.39538,0.54607 0.44855,0.87902 l 5.2e-4,0.002 c 1.7e-4,10e-4 3.4e-4,0.003 5.1e-4,0.004 0.0127,0.0815 0.0191,0.16448 0.0191,0.24702 -2.8e-4,0.20907 -0.0415,0.41555 -0.12144,0.60875 -8.5e-4,0.002 -0.002,0.003 -0.003,0.005 -0.0796,0.1912 -0.19564,0.36514 -0.34158,0.51212 -0.003,0.003 -0.005,0.005 -0.008,0.008 -0.14698,0.14591 -0.32091,0.26194 -0.51211,0.34158 -0.002,0.001 -0.003,0.002 -0.005,0.003 -0.1932,0.0799 -0.40019,0.12116 -0.60927,0.12144 -0.20907,-2.8e-4 -0.41606,-0.0415 -0.60926,-0.12144 -0.002,-0.001 -0.004,-0.002 -0.006,-0.003 -0.19102,-0.0797 -0.36477,-0.19572 -0.5116,-0.34158 -0.003,-0.003 -0.005,-0.005 -0.008,-0.008 -0.14612,-0.14694 -0.2623,-0.32087 -0.3421,-0.51212 -6.9e-4,-0.002 -0.001,-0.003 -0.002,-0.005 -0.0799,-0.1932 -0.12115,-0.39968 -0.12144,-0.60875 1.5e-4,-0.20942 0.0414,-0.41729 0.12144,-0.61082 6.9e-4,-10e-4 0.001,-0.003 0.002,-0.004 0.0799,-0.19207 0.19642,-0.36672 0.34314,-0.51418 0.002,-0.002 0.003,-0.003 0.005,-0.005 0.14745,-0.14672 0.32211,-0.26327 0.51418,-0.34314 0.001,-6.7e-4 0.003,-10e-4 0.004,-0.002 0.19352,-0.08 0.40087,-0.12129 0.61029,-0.12144 z m 115.41776,0 c 0.16795,5e-5 0.33484,0.0265 0.49455,0.0785 0.0794,0.0258 0.1566,0.0578 0.23099,0.0956 l 10e-4,5.1e-4 5.2e-4,5.2e-4 c 0.0744,0.0379 0.1458,0.0816 0.21342,0.13074 0.0671,0.0488 0.13037,0.10266 0.18914,0.16123 l 0.002,0.002 0.002,0.002 c 0.0588,0.0588 0.11283,0.12198 0.16175,0.18913 0.0491,0.0676 0.0928,0.13899 0.13074,0.21343 l 5.2e-4,5.1e-4 v 5.2e-4 c 0.0378,0.074 0.0698,0.15094 0.0956,0.22996 l 5.2e-4,0.002 v 5.1e-4 5.2e-4 c 0.0255,0.0785 0.0448,0.15883 0.0579,0.2403 l 5.2e-4,0.003 c 1.7e-4,10e-4 3.5e-4,0.003 5.2e-4,0.004 0.0127,0.0816 0.0191,0.16396 0.0191,0.2465 -2.9e-4,0.20907 -0.0415,0.41607 -0.12144,0.60927 -10e-4,0.002 -0.002,0.003 -0.003,0.005 -0.0796,0.1912 -0.19565,0.36514 -0.34158,0.51212 l -0.008,0.008 c -0.14657,0.14558 -0.31995,0.2614 -0.51056,0.34106 -0.002,10e-4 -0.005,0.002 -0.007,0.003 -0.19304,0.0798 -0.39985,0.12109 -0.60875,0.12144 -0.2089,-3.5e-4 -0.41571,-0.0416 -0.60875,-0.12144 -0.002,-9.9e-4 -0.005,-0.002 -0.007,-0.003 -0.19061,-0.0797 -0.364,-0.19548 -0.51057,-0.34106 l -0.008,-0.008 c -0.14528,-0.14631 -0.26093,-0.31933 -0.34055,-0.50953 -0.002,-0.003 -0.003,-0.007 -0.005,-0.0103 -0.0793,-0.19263 -0.12018,-0.39889 -0.12041,-0.6072 2.3e-4,-0.20831 0.0411,-0.41456 0.12041,-0.60719 0.002,-0.003 0.003,-0.007 0.005,-0.0103 0.0796,-0.1902 0.19527,-0.36322 0.34055,-0.50953 l 0.008,-0.008 c 0.14657,-0.14558 0.31996,-0.2614 0.51057,-0.34106 0.002,-0.001 0.005,-0.002 0.007,-0.003 0.19304,-0.0798 0.39985,-0.12108 0.60875,-0.12143 z m -95.44688,9.91464 c 0.88377,5e-5 1.60013,0.71664 1.5999,1.60042 -6e-5,0.88358 -0.71633,1.59985 -1.5999,1.5999 -0.88358,-5e-5 -1.59985,-0.71632 -1.59991,-1.5999 -2.3e-4,-0.88378 0.71613,-1.60037 1.59991,-1.60042 z m 74.765974,0 c 0.883986,-2.3e-4 1.600646,0.71644 1.600416,1.60042 -6e-5,0.88378 -0.71664,1.60013 -1.600416,1.5999 -0.883576,-5e-5 -1.599847,-0.71632 -1.599902,-1.5999 -2.32e-4,-0.88378 0.716123,-1.60037 1.599902,-1.60042 z m -86.743024,8.03465 c 3.31382,-8e-5 6.00023,2.68632 6.00015,6.00015 1.6e-4,2.92802 -2.11313,5.42854 -5.00021,5.91644 v -0.91623 h -1.99988 v 0.91623 c -2.88708,-0.4879 -5.00037,-2.98842 -5.00021,-5.91644 -8e-5,-3.31383 2.68633,-6.00023 6.00015,-6.00015 z m 24.87755,0 c 3.31382,-8e-5 6.00023,2.68632 6.00015,6.00015 1.6e-4,2.92802 -2.11313,5.42854 -5.00021,5.91644 v -0.91623 h -1.99988 v 0.91623 c -2.88708,-0.4879 -5.00037,-2.98842 -5.00021,-5.91644 -8e-5,-3.31383 2.68633,-6.00023 6.00015,-6.00015 z m 24.877551,0 c 3.31382,-8e-5 6.000233,2.68632 6.00015,6.00015 1.58e-4,2.92802 -2.11313,5.42854 -5.000211,5.91644 v -0.91623 h -1.99988 v 0.91623 c -2.88708,-0.4879 -5.00037,-2.98842 -5.00021,-5.91644 -8e-5,-3.31383 2.68633,-6.00023 6.000151,-6.00015 z m 24.877034,0 c 3.31382,-8e-5 6.000234,2.68632 6.000151,6.00015 1.58e-4,2.92802 -2.113131,5.42854 -5.000212,5.91644 v -0.91623 h -1.999878 v 0.91623 c -2.887081,-0.4879 -5.000369,-2.98842 -5.000211,-5.91644 -8.3e-5,-3.31383 2.686332,-6.00023 6.00015,-6.00015 z m 24.877555,0 c 3.31381,-8e-5 6.00023,2.68632 6.00015,6.00015 1.6e-4,2.92802 -2.11314,5.42854 -5.00021,5.91644 v -0.91623 h -1.99988 v 0.91623 c -2.88709,-0.4879 -5.00037,-2.98842 -5.00021,-5.91644 -8e-5,-3.31383 2.68632,-6.00023 6.00015,-6.00015 z m -99.50969,32.58251 c 1.93302,-2e-5 3.50007,1.56701 3.50004,3.50004 3e-5,1.93303 -1.56701,3.50007 -3.50004,3.50005 -1.93303,2e-5 -3.50007,-1.56702 -3.50005,-3.50005 -2e-5,-1.93303 1.56702,-3.50006 3.50005,-3.50004 z m 24.87755,0 c 1.93302,-2e-5 3.50007,1.56701 3.50004,3.50004 3e-5,1.93303 -1.56701,3.50007 -3.50004,3.50005 -1.93303,2e-5 -3.50007,-1.56702 -3.50004,-3.50005 -3e-5,-1.93303 1.56701,-3.50006 3.50004,-3.50004 z m 24.877551,0 c 1.932824,2.6e-4 3.49955,1.56721 3.499528,3.50004 2.8e-5,1.93283 -1.5667,3.49979 -3.499528,3.50005 -1.933031,2e-5 -3.500071,-1.56702 -3.500041,-3.50005 -3e-5,-1.93303 1.56702,-3.50006 3.500041,-3.50004 z m 24.877034,0 c 1.933026,-2e-5 3.500067,1.56701 3.500045,3.50004 2.8e-5,1.93303 -1.567015,3.50007 -3.500045,3.50005 -1.933029,2e-5 -3.500072,-1.56702 -3.500044,-3.50005 -2.2e-5,-1.93303 1.567019,-3.50006 3.500044,-3.50004 z m 24.877555,0 a 3.5,3.5 0 0 1 3.50004,3.50004 3.5,3.5 0 0 1 -3.50004,3.50005 3.5,3.5 0 0 1 -3.50005,-3.50005 3.5,3.5 0 0 1 3.50005,-3.50004 z m -100.50963,9.30021 h 1.99988 v 0.99993 h -1.99988 z m 24.87755,0 h 1.99988 v 0.99993 h -1.99988 z m 24.87704,0 h 2.00039 v 0.99993 h -2.00039 z m 24.877546,0 h 1.999878 v 0.99993 h -1.999878 z m 24.877554,0 h 1.99988 v 0.99993 h -1.99988 z m -80.63229,5.92677 h 14.00018 v 13.99966 h -14.00018 z m 24.8884,0 h 14.000182 v 13.99966 h -14.000182 z m 24.888407,0 h 14.000179 v 13.99966 h -14.000179 z m 24.888923,0 h 13.99966 v 13.99966 h -13.99966 z m -99.54328,10.84533 h 14.00018 v 13.99966 h -14.00018 z m 24.87755,10.86187 h 14.00018 v 14.00018 h -14.00018 z m 24.8884,0 h 14.000182 v 14.00018 h -14.000182 z m 24.888407,0 h 14.000179 v 14.00018 h -14.000179 z m 24.888923,0 h 13.99966 v 14.00018 h -13.99966 z m -80.56614,13.12271 c 0.88377,5e-5 1.60013,0.71664 1.5999,1.60042 -6e-5,0.88358 -0.71633,1.59985 -1.5999,1.5999 -0.88358,-5e-5 -1.59985,-0.71632 -1.59991,-1.5999 -2.3e-4,-0.88378 0.71613,-1.60037 1.59991,-1.60042 z m 74.765974,0 c 0.883986,-2.3e-4 1.600646,0.71644 1.600416,1.60042 -6e-5,0.88378 -0.71664,1.60013 -1.600416,1.5999 -0.883576,-5e-5 -1.599847,-0.71632 -1.599902,-1.5999 -2.32e-4,-0.88378 0.716123,-1.60037 1.599902,-1.60042 z m -94.736854,9.91464 c 0.0817,1.3e-4 0.16322,0.007 0.24391,0.0191 0.007,0.001 0.0131,0.003 0.0196,0.004 0.0749,0.0125 0.14881,0.0302 0.22118,0.0532 0.008,0.003 0.0166,0.006 0.0248,0.009 0.0699,0.0233 0.1381,0.0515 0.20412,0.0842 0.01,0.005 0.019,0.01 0.0284,0.015 0.0649,0.0339 0.12741,0.0722 0.18706,0.11472 0.008,0.006 0.0156,0.0113 0.0233,0.017 0.0592,0.044 0.11534,0.092 0.16795,0.14366 0.007,0.006 0.0135,0.013 0.0202,0.0196 0.0519,0.0531 0.10011,0.10972 0.14418,0.1695 0.005,0.007 0.01,0.0138 0.015,0.0207 0.0437,0.0609 0.0831,0.12479 0.11783,0.1912 0.004,0.008 0.008,0.0151 0.0119,0.0227 0.0343,0.0684 0.0637,0.13924 0.0879,0.21187 0.002,0.005 0.004,0.011 0.006,0.0165 0.0235,0.0735 0.0416,0.14865 0.0543,0.22479 0.001,0.007 0.002,0.0131 0.004,0.0196 0.0126,0.0807 0.019,0.16224 0.0191,0.24391 -3.5e-4,0.2089 -0.0416,0.41571 -0.12144,0.60875 -10e-4,0.002 -0.002,0.005 -0.003,0.007 -0.0797,0.19061 -0.19548,0.36399 -0.34106,0.51056 -0.003,0.003 -0.005,0.005 -0.008,0.008 -0.14632,0.14529 -0.31933,0.26093 -0.50953,0.34055 -0.003,0.002 -0.007,0.003 -0.01,0.005 -0.19263,0.0793 -0.39889,0.12017 -0.6072,0.1204 -0.20831,-2.3e-4 -0.41457,-0.0411 -0.6072,-0.1204 -0.003,-0.002 -0.007,-0.003 -0.0103,-0.005 -0.1902,-0.0796 -0.36322,-0.19526 -0.50953,-0.34055 -0.003,-0.003 -0.005,-0.005 -0.008,-0.008 -0.14559,-0.14657 -0.26141,-0.31995 -0.34107,-0.51056 -0.001,-0.002 -0.002,-0.005 -0.003,-0.007 -0.0798,-0.19304 -0.12109,-0.39985 -0.12144,-0.60875 3.5e-4,-0.2089 0.0416,-0.41571 0.12144,-0.60875 0.001,-0.002 0.002,-0.005 0.003,-0.007 0.0797,-0.19061 0.19548,-0.364 0.34107,-0.51057 0.003,-0.003 0.005,-0.005 0.008,-0.008 0.14683,-0.14588 0.32057,-0.26188 0.51159,-0.34158 0.002,-0.001 0.004,-0.002 0.006,-0.003 0.19321,-0.0799 0.4002,-0.12116 0.60927,-0.12144 z m 115.41776,0 c 0.0817,1.3e-4 0.16322,0.007 0.24392,0.0191 0.007,0.001 0.0135,0.003 0.0202,0.004 0.0744,0.0124 0.14775,0.03 0.21962,0.0527 0.01,0.003 0.0197,0.007 0.0295,0.0103 0.0681,0.0229 0.13455,0.0504 0.19895,0.0822 0.0113,0.006 0.0225,0.0119 0.0336,0.0181 0.0629,0.033 0.12346,0.0701 0.18139,0.11111 0.01,0.007 0.0194,0.014 0.0289,0.0212 0.0579,0.0433 0.1128,0.0904 0.16433,0.14108 0.007,0.007 0.0135,0.0134 0.0202,0.0202 0.0507,0.0515 0.0978,0.10644 0.14108,0.16434 0.007,0.01 0.0142,0.0192 0.0212,0.0289 0.041,0.0579 0.0781,0.11853 0.1111,0.18139 0.006,0.0111 0.0122,0.0223 0.0181,0.0336 0.0318,0.0644 0.0593,0.13086 0.0822,0.19895 0.004,0.01 0.007,0.0197 0.0103,0.0295 0.0227,0.0719 0.0403,0.14526 0.0527,0.21962 10e-4,0.007 0.003,0.0135 0.004,0.0202 0.0126,0.0807 0.019,0.16224 0.0191,0.24391 -3.5e-4,0.2089 -0.0416,0.41571 -0.12144,0.60875 -9.9e-4,0.002 -0.002,0.005 -0.003,0.007 -0.0797,0.19061 -0.19548,0.36399 -0.34106,0.51056 l -0.008,0.008 c -0.1459,0.14494 -0.31837,0.26039 -0.50798,0.34003 -0.004,0.002 -0.008,0.003 -0.0119,0.005 -0.19247,0.0792 -0.39855,0.12011 -0.60668,0.12041 -0.20813,-3e-4 -0.41421,-0.0412 -0.60668,-0.12041 -0.004,-0.002 -0.008,-0.003 -0.0119,-0.005 -0.18961,-0.0796 -0.36208,-0.19509 -0.50798,-0.34003 l -0.008,-0.008 c -0.14494,-0.1459 -0.26039,-0.31837 -0.34003,-0.50798 -0.002,-0.004 -0.003,-0.008 -0.005,-0.0119 -0.0792,-0.19247 -0.12011,-0.39855 -0.12041,-0.60668 3e-4,-0.20813 0.0412,-0.41421 0.12041,-0.60668 0.002,-0.004 0.003,-0.008 0.005,-0.0119 0.0796,-0.18961 0.19509,-0.36208 0.34003,-0.50798 l 0.008,-0.008 c 0.14657,-0.14558 0.31996,-0.26141 0.51057,-0.34107 0.002,-0.001 0.005,-0.002 0.007,-0.003 0.19304,-0.0798 0.39985,-0.12109 0.60875,-0.12144 z" />
  </g>
</svg>
