<?xml version="1.0" encoding="UTF-8" standalone="no"?>
<!-- Created with Inkscape (http://www.inkscape.org/) -->

<svg
   width="59.999989mm"
   height="119.99995mm"
   viewBox="0 0 59.999989 119.99995"
   version="1.1"
   id="svg33248"
   inkscape:version="1.2.2 (b0a8486, 2022-12-01)"
   sodipodi:docname="engrave_NoVectorizedText.svg"
   xmlns:inkscape="http://www.inkscape.org/namespaces/inkscape"
   xmlns:sodipodi="http://sodipodi.sourceforge.net/DTD/sodipodi-0.dtd"
   xmlns="http://www.w3.org/2000/svg"
   xmlns:svg="http://www.w3.org/2000/svg">
  <sodipodi:namedview
     id="namedview33250"
     pagecolor="#ffffff"
     bordercolor="#666666"
     borderopacity="1.0"
     inkscape:showpageshadow="2"
     inkscape:pageopacity="0.0"
     inkscape:pagecheckerboard="0"
     inkscape:deskcolor="#d1d1d1"
     inkscape:document-units="mm"
     showgrid="false"
     inkscape:zoom="2.5730741"
     inkscape:cx="113.48294"
     inkscape:cy="226.77155"
     inkscape:current-layer="layer1" />
  <defs
     id="defs33245" />
  <g
     inkscape:label="Capa 1"
     inkscape:groupmode="layer"
     id="layer1"
     transform="translate(-2.4056122e-4,-2.4000122e-4)">
    <path
       id="rect3678"
       style="display:inline;fill:none;fill-opacity:1;stroke:#000000;stroke-width:0.076;stroke-linecap:round;stroke-miterlimit:4;stroke-dasharray:none"
       d="m 10.031429,0.03824 v 4.99711 c -1.66e-4,2.75964 -2.2375708,4.9962 -4.997111,4.99608 H 0.03824056 v 99.93705 H 5.034318 c 2.7595402,-1.2e-4 4.996945,2.23696 4.997111,4.9966 v 4.99711 h 39.937097 v -4.99711 c 1.66e-4,-2.75964 2.237574,-4.99672 4.997111,-4.9966 h 4.996594 V 10.03143 H 54.965637 C 52.2061,10.03155 49.968692,7.79499 49.968526,5.03535 V 0.03824 Z m -6.1649983,12.8111 c 0.8835823,5e-5 1.5998526,0.71633 1.5999023,1.59991 -5.52e-5,0.88358 -0.7163239,1.59985 -1.5999023,1.5999 -0.8835784,-5e-5 -1.5998472,-0.71632 -1.5999024,-1.5999 4.97e-5,-0.88358 0.7163201,-1.59986 1.5999024,-1.59991 z m 52.3828493,0 c 0.883582,5e-5 1.599852,0.71633 1.599902,1.59991 -5.5e-5,0.88358 -0.716324,1.59985 -1.599902,1.5999 -0.883579,-5e-5 -1.599848,-0.71632 -1.599903,-1.5999 5e-5,-0.88358 0.71632,-1.59986 1.599903,-1.59991 z m -24.122042,7.23729 h 19.00039 c 0,12.50001 0,25.00003 0,37.50004 h -19.00039 c 0,-12.50001 0,-25.00003 0,-37.50004 z M 5.4120727,30.98519 H 24.412463 c 0,18.66656 0,37.33312 0,55.99968 H 5.4120727 c 0,-18.66656 0,-37.33312 0,-55.99968 z M 32.127238,66.84812 h 19.00039 c 0,12.50001 0,25.00002 0,37.50003 h -19.00039 c 0,-12.50001 0,-25.00002 0,-37.50003 z M 3.8664307,104.02673 c 0.8835784,5e-5 1.5998471,0.71632 1.5999023,1.5999 -5.52e-5,0.88358 -0.7163239,1.59985 -1.5999023,1.5999 -0.8835784,-5e-5 -1.5998472,-0.71632 -1.5999024,-1.5999 5.52e-5,-0.88358 0.716324,-1.59985 1.5999024,-1.5999 z m 52.3828493,0 c 0.883578,5e-5 1.599847,0.71632 1.599902,1.5999 -5.5e-5,0.88358 -0.716324,1.59985 -1.599902,1.5999 -0.883579,-5e-5 -1.599848,-0.71632 -1.599903,-1.5999 5.5e-5,-0.88358 0.716324,-1.59985 1.599903,-1.5999 z"
       sodipodi:nodetypes="cccccccccccccccccccccccccccccccccccccccccccccccccccc" />
    <text
       xml:space="preserve"
       style="font-style:normal;font-weight:normal;font-size:4.93889px;line-height:1.25;font-family:sans-serif;letter-spacing:0px;word-spacing:0px;display:inline;fill:#000000;fill-opacity:1;stroke:none;stroke-width:0.264583"
       x="19.821194"
       y="7.5423293"
       id="text12344"
       inkscape:label="Title  Text"><tspan
         sodipodi:role="line"
         id="tspan12342"
         x="19.821194"
         y="7.5423293"
         style="font-style:normal;font-variant:normal;font-weight:normal;font-stretch:normal;font-size:4.93889px;font-family:'MS 33558';-inkscape-font-specification:'MS 33558, ';fill:#000000;stroke-width:0.264583">Social</tspan></text>
    <text
       id="text14353"
       y="19.052233"
       x="29.051647"
       style="font-style:normal;font-weight:normal;font-size:2.82222px;line-height:1.25;font-family:sans-serif;letter-spacing:0px;word-spacing:0px;display:inline;fill:#000000;fill-opacity:1;stroke:none;stroke-width:0.264583"
       xml:space="preserve"
       inkscape:label="Chat Window Text"><tspan
         style="font-style:normal;font-variant:normal;font-weight:normal;font-stretch:normal;font-size:2.82222px;font-family:'MS 33558';-inkscape-font-specification:'MS 33558, ';fill:#000000;stroke-width:0.264583"
         y="19.052233"
         x="29.051647"
         id="tspan14351"
         sodipodi:role="line">CHAT WINDOW</tspan></text>
    <text
       xml:space="preserve"
       style="font-style:normal;font-weight:normal;font-size:2.82222px;line-height:1.25;font-family:sans-serif;letter-spacing:0px;word-spacing:0px;display:inline;fill:#000000;fill-opacity:1;stroke:none;stroke-width:0.264583"
       x="35.58234"
       y="65.622925"
       id="text14794"
       inkscape:label="Invites Text"><tspan
         sodipodi:role="line"
         x="35.58234"
         y="65.622925"
         style="font-style:normal;font-variant:normal;font-weight:normal;font-stretch:normal;font-size:2.82222px;font-family:'MS 33558';-inkscape-font-specification:'MS 33558, ';fill:#000000;stroke-width:0.264583"
         id="tspan8048">invites</tspan></text>
  </g>
</svg>
