<?xml version="1.0" encoding="UTF-8" standalone="no"?>
<!-- Created with Inkscape (http://www.inkscape.org/) -->

<svg
   width="7.0000901mm"
   height="7.0000892mm"
   viewBox="0 0 7.0000901 7.0000892"
   version="1.1"
   id="svg5"
   inkscape:version="1.2.2 (b0a8486, 2022-12-01)"
   sodipodi:docname="washer-m3-black.svg"
   xmlns:inkscape="http://www.inkscape.org/namespaces/inkscape"
   xmlns:sodipodi="http://sodipodi.sourceforge.net/DTD/sodipodi-0.dtd"
   xmlns:xlink="http://www.w3.org/1999/xlink"
   xmlns="http://www.w3.org/2000/svg"
   xmlns:svg="http://www.w3.org/2000/svg">
  <sodipodi:namedview
     id="namedview7"
     pagecolor="#ffffff"
     bordercolor="#666666"
     borderopacity="1.0"
     inkscape:showpageshadow="2"
     inkscape:pageopacity="0.0"
     inkscape:pagecheckerboard="0"
     inkscape:deskcolor="#d1d1d1"
     inkscape:document-units="mm"
     showgrid="false"
     inkscape:zoom="22.054911"
     inkscape:cx="12.695585"
     inkscape:cy="13.262352"
     inkscape:current-layer="layer1" />
  <defs
     id="defs2">
    <linearGradient
       inkscape:collect="always"
       id="linearGradient2573">
      <stop
         style="stop-color:#666666;stop-opacity:1"
         offset="0"
         id="stop2569" />
      <stop
         style="stop-color:#1a1a1a;stop-opacity:1"
         offset="1"
         id="stop2571" />
    </linearGradient>
    <linearGradient
       inkscape:collect="always"
       xlink:href="#linearGradient2573"
       id="linearGradient2575"
       x1="57.112633"
       y1="56.209583"
       x2="63.142216"
       y2="60.14098"
       gradientUnits="userSpaceOnUse" />
  </defs>
  <g
     inkscape:label="M3 Washer"
     inkscape:groupmode="layer"
     id="layer1"
     transform="translate(-56.763977,-54.179639)">
    <path
       id="path1514"
       style="fill:url(#linearGradient2575);fill-opacity:1;stroke-width:0.02;stroke-linecap:round;stroke-miterlimit:10;stop-color:#000000"
       d="m 60.264022,54.179639 a 3.5,3.5 0 0 0 -3.500045,3.500044 3.5,3.5 0 0 0 3.500045,3.500045 3.5,3.5 0 0 0 3.500045,-3.500045 3.5,3.5 0 0 0 -3.500045,-3.500044 z m 0,1.900142 a 1.6,1.6 0 0 1 1.599902,1.599902 1.6,1.6 0 0 1 -1.599902,1.599903 1.6,1.6 0 0 1 -1.599903,-1.599903 1.6,1.6 0 0 1 1.599903,-1.599902 z" />
  </g>
</svg>
