<?xml version="1.0" encoding="UTF-8" standalone="no"?>
<!-- Created with Inkscape (http://www.inkscape.org/) -->

<svg
   width="9.9999056mm"
   height="9.9999056mm"
   viewBox="0 0 9.9999056 9.9999056"
   version="1.1"
   id="svg8"
   inkscape:version="1.2.2 (b0a8486, 2022-12-01)"
   sodipodi:docname="FrontView.svg"
   xmlns:inkscape="http://www.inkscape.org/namespaces/inkscape"
   xmlns:sodipodi="http://sodipodi.sourceforge.net/DTD/sodipodi-0.dtd"
   xmlns:xlink="http://www.w3.org/1999/xlink"
   xmlns="http://www.w3.org/2000/svg"
   xmlns:svg="http://www.w3.org/2000/svg"
   xmlns:rdf="http://www.w3.org/1999/02/22-rdf-syntax-ns#"
   xmlns:cc="http://creativecommons.org/ns#"
   xmlns:dc="http://purl.org/dc/elements/1.1/">
  <defs
     id="defs2">
    <linearGradient
       inkscape:collect="always"
       id="linearGradient987">
      <stop
         style="stop-color:#000000;stop-opacity:1;"
         offset="0"
         id="stop983" />
      <stop
         style="stop-color:#4d4d4d;stop-opacity:1"
         offset="1"
         id="stop985" />
    </linearGradient>
    <linearGradient
       inkscape:collect="always"
       id="linearGradient979">
      <stop
         style="stop-color:#333333;stop-opacity:1;"
         offset="0"
         id="stop975" />
      <stop
         style="stop-color:#b3b3b3;stop-opacity:1"
         offset="1"
         id="stop977" />
    </linearGradient>
    <linearGradient
       inkscape:collect="always"
       xlink:href="#linearGradient979"
       id="linearGradient981"
       x1="978.93518"
       y1="842.68219"
       x2="978.93518"
       y2="880.34564"
       gradientUnits="userSpaceOnUse" />
    <linearGradient
       inkscape:collect="always"
       xlink:href="#linearGradient987"
       id="linearGradient989"
       x1="986.55811"
       y1="872.85809"
       x2="986.55811"
       y2="850.21484"
       gradientUnits="userSpaceOnUse" />
  </defs>
  <sodipodi:namedview
     id="base"
     pagecolor="#ffffff"
     bordercolor="#666666"
     borderopacity="1.0"
     inkscape:pageopacity="0.0"
     inkscape:pageshadow="2"
     inkscape:zoom="22.170007"
     inkscape:cx="14.027961"
     inkscape:cy="18.425795"
     inkscape:document-units="mm"
     inkscape:current-layer="svg8"
     showgrid="false"
     inkscape:window-width="3440"
     inkscape:window-height="1376"
     inkscape:window-x="0"
     inkscape:window-y="27"
     inkscape:window-maximized="1"
     fit-margin-top="0"
     fit-margin-left="0"
     fit-margin-right="0"
     fit-margin-bottom="0"
     inkscape:showpageshadow="2"
     inkscape:pagecheckerboard="0"
     inkscape:deskcolor="#d1d1d1" />
  <metadata
     id="metadata5">
    <rdf:RDF>
      <cc:Work
         rdf:about="">
        <dc:format>image/svg+xml</dc:format>
        <dc:type
           rdf:resource="http://purl.org/dc/dcmitype/StillImage" />
        <dc:title />
      </cc:Work>
    </rdf:RDF>
  </metadata>
  <g
     inkscape:groupmode="layer"
     id="layer2"
     inkscape:label="Cube"
     style="opacity:1"
     transform="translate(-256.0562,-222.9559)">
    <path
       style="opacity:0.97600002;vector-effect:none;fill:url(#linearGradient981);fill-opacity:1;stroke:none;stroke-width:2.65644383;stroke-linecap:butt;stroke-linejoin:miter;stroke-miterlimit:10;stroke-dasharray:none;stroke-dashoffset:0;stroke-opacity:1"
       d="m 968.52734,842.66797 c -0.41877,0 -0.75586,0.33709 -0.75586,0.75586 v 36.2832 c 0,0.41877 0.33709,0.75586 0.75586,0.75586 h 36.28316 c 0.4188,0 0.7559,-0.33709 0.7559,-0.75586 v -36.2832 c 0,-0.41877 -0.3371,-0.75586 -0.7559,-0.75586 z m 18.14258,13.22851 a 5.6692913,5.6692913 0 0 1 5.66797,5.66797 5.6692913,5.6692913 0 0 1 -5.66797,5.66993 5.6692913,5.6692913 0 0 1 -5.66992,-5.66993 5.6692913,5.6692913 0 0 1 5.66992,-5.66797 z"
       id="rect939"
       transform="scale(0.26458333)"
       inkscape:connector-curvature="0" />
    <path
       style="opacity:0.97600002;vector-effect:none;fill:url(#linearGradient989);fill-opacity:1;stroke:none;stroke-width:5.74413395;stroke-linecap:butt;stroke-linejoin:miter;stroke-miterlimit:10;stroke-dasharray:none;stroke-dashoffset:0;stroke-opacity:1"
       d="m 986.66992,850.22656 a 11.338583,11.338583 0 0 0 -11.33984,11.33789 11.338583,11.338583 0 0 0 11.33984,11.33985 11.338583,11.338583 0 0 0 11.33789,-11.33985 11.338583,11.338583 0 0 0 -11.33789,-11.33789 z m 0,5.66992 a 5.6692913,5.6692913 0 0 1 5.66797,5.66797 5.6692913,5.6692913 0 0 1 -5.66797,5.66993 5.6692913,5.6692913 0 0 1 -5.66992,-5.66993 5.6692913,5.6692913 0 0 1 5.66992,-5.66797 z"
       transform="scale(0.26458333)"
       id="path943"
       inkscape:connector-curvature="0" />
  </g>
</svg>
