<?xml version="1.0" encoding="UTF-8" standalone="no"?>
<!-- Created with Inkscape (http://www.inkscape.org/) -->

<svg
   width="59.999889mm"
   height="119.99983mm"
   viewBox="0 0 59.999889 119.99983"
   version="1.1"
   id="svg24759"
   inkscape:version="1.2.2 (b0a8486, 2022-12-01)"
   sodipodi:docname="3mm-Black-Back_Layer.svg"
   xmlns:inkscape="http://www.inkscape.org/namespaces/inkscape"
   xmlns:sodipodi="http://sodipodi.sourceforge.net/DTD/sodipodi-0.dtd"
   xmlns="http://www.w3.org/2000/svg"
   xmlns:svg="http://www.w3.org/2000/svg">
  <sodipodi:namedview
     id="namedview24761"
     pagecolor="#ffffff"
     bordercolor="#666666"
     borderopacity="1.0"
     inkscape:showpageshadow="2"
     inkscape:pageopacity="0.0"
     inkscape:pagecheckerboard="0"
     inkscape:deskcolor="#d1d1d1"
     inkscape:document-units="mm"
     showgrid="false"
     inkscape:zoom="2.5730765"
     inkscape:cx="113.48283"
     inkscape:cy="226.77134"
     inkscape:current-layer="layer1" />
  <defs
     id="defs24756" />
  <g
     inkscape:label="Capa 1"
     inkscape:groupmode="layer"
     id="layer1"
     transform="translate(-3.3219772e-5,-3.7649772e-5)">
    <path
       id="rect11527"
       style="display:inline;fill:none;fill-opacity:1;stroke:#000000;stroke-width:0.0588447;stroke-linecap:round;stroke-miterlimit:4;stroke-dasharray:none"
       d="M 0.02945557,0.02946 V 119.97045 H 59.970499 V 0.02946 Z M 4.7878214,3.47627 A 1.6,1.6 0 0 1 6.3877238,5.07618 1.6,1.6 0 0 1 4.7878214,6.67608 1.6,1.6 0 0 1 3.1879191,5.07618 1.6,1.6 0 0 1 4.7878214,3.47627 Z m 50.5002766,0 A 1.6,1.6 0 0 1 56.888,5.07618 1.6,1.6 0 0 1 55.288098,6.67608 1.6,1.6 0 0 1 53.688196,5.07618 1.6,1.6 0 0 1 55.288098,3.47627 Z M 3.8664307,12.84934 a 1.6,1.6 0 0 1 1.5999023,1.59991 1.6,1.6 0 0 1 -1.5999023,1.5999 1.6,1.6 0 0 1 -1.5999024,-1.5999 1.6,1.6 0 0 1 1.5999024,-1.59991 z m 52.3828493,0 a 1.6,1.6 0 0 1 1.599902,1.59991 1.6,1.6 0 0 1 -1.599902,1.5999 1.6,1.6 0 0 1 -1.599903,-1.5999 1.6,1.6 0 0 1 1.599903,-1.59991 z m -21.621936,9.7374 H 48.627523 V 36.58691 H 34.627344 Z M 7.9121785,33.48478 H 21.912357 V 47.48496 H 7.9121785 Z M 34.627344,41.0869 H 48.627523 V 55.08708 H 34.627344 Z M 7.9121785,51.98494 H 21.912357 V 65.98512 H 7.9121785 Z M 34.627344,69.34822 H 48.627523 V 83.3484 H 34.627344 Z M 7.9121785,70.4851 H 21.912357 V 84.48477 H 7.9121785 Z M 34.627344,87.84838 h 14.000179 v 13.99967 H 34.627344 Z M 3.8664307,104.02673 a 1.6,1.6 0 0 1 1.5999023,1.5999 1.6,1.6 0 0 1 -1.5999023,1.5999 1.6,1.6 0 0 1 -1.5999024,-1.5999 1.6,1.6 0 0 1 1.5999024,-1.5999 z m 52.3828493,0 a 1.6,1.6 0 0 1 1.599902,1.5999 1.6,1.6 0 0 1 -1.599902,1.5999 1.6,1.6 0 0 1 -1.599903,-1.5999 1.6,1.6 0 0 1 1.599903,-1.5999 z m -51.4614586,9.44903 a 1.6,1.6 0 0 1 1.5999024,1.60042 1.6,1.6 0 0 1 -1.5999024,1.5999 1.6,1.6 0 0 1 -1.5999023,-1.5999 1.6,1.6 0 0 1 1.5999023,-1.60042 z m 50.5002766,0 a 1.6,1.6 0 0 1 1.599902,1.60042 1.6,1.6 0 0 1 -1.599902,1.5999 1.6,1.6 0 0 1 -1.599902,-1.5999 1.6,1.6 0 0 1 1.599902,-1.60042 z" />
  </g>
</svg>
