<?xml version="1.0" encoding="UTF-8" standalone="no"?>
<!-- Created with Inkscape (http://www.inkscape.org/) -->

<svg
   width="365.39993mm"
   height="205.39987mm"
   viewBox="0 0 365.39993 205.39988"
   version="1.1"
   id="svg1"
   xml:space="preserve"
   inkscape:version="1.3 (0e150ed, 2023-07-21)"
   sodipodi:docname="BottomPanel.svg"
   xmlns:inkscape="http://www.inkscape.org/namespaces/inkscape"
   xmlns:sodipodi="http://sodipodi.sourceforge.net/DTD/sodipodi-0.dtd"
   xmlns:xlink="http://www.w3.org/1999/xlink"
   xmlns="http://www.w3.org/2000/svg"
   xmlns:svg="http://www.w3.org/2000/svg"><sodipodi:namedview
     id="namedview1"
     pagecolor="#ffffff"
     bordercolor="#666666"
     borderopacity="1.0"
     inkscape:showpageshadow="2"
     inkscape:pageopacity="0.0"
     inkscape:pagecheckerboard="0"
     inkscape:deskcolor="#d1d1d1"
     inkscape:document-units="mm"
     inkscape:zoom="1.4071015"
     inkscape:cx="690.78173"
     inkscape:cy="388.03171"
     inkscape:current-layer="layer4"
     showgrid="false"
     showguides="false" /><defs
     id="defs1"><linearGradient
       inkscape:collect="always"
       id="linearGradient3744"><stop
         style="stop-color:#1a1a1a;stop-opacity:1;"
         offset="0"
         id="stop3740" /><stop
         style="stop-color:#999999;stop-opacity:1"
         offset="1"
         id="stop3742" /></linearGradient><radialGradient
       xlink:href="#linearGradient3744"
       id="radialGradient4"
       gradientUnits="userSpaceOnUse"
       gradientTransform="matrix(1.3730705,2.403681,-1.6069367,0.91448843,186.15183,-257.29528)"
       cx="112.08553"
       cy="141.86414"
       fx="112.08553"
       fy="141.86414"
       r="4.97227" /><radialGradient
       xlink:href="#linearGradient3744"
       id="radialGradient5"
       gradientUnits="userSpaceOnUse"
       gradientTransform="matrix(1.3654555,2.3948741,-1.5980247,0.91113781,185.74013,-255.83346)"
       cx="112.08553"
       cy="141.86414"
       fx="112.08553"
       fy="141.86414"
       r="4.97227" /><radialGradient
       inkscape:collect="always"
       xlink:href="#linearGradient3744"
       id="radialGradient3746"
       cx="112.08553"
       cy="141.86414"
       fx="112.08553"
       fy="141.86414"
       r="4.97227"
       gradientTransform="matrix(1.3654555,2.3948741,-1.5980247,0.91113781,185.74013,-255.83346)"
       gradientUnits="userSpaceOnUse" /><radialGradient
       inkscape:collect="always"
       xlink:href="#linearGradient3744"
       id="radialGradient4198"
       gradientUnits="userSpaceOnUse"
       gradientTransform="matrix(1.3730705,2.403681,-1.6069367,0.91448843,186.15183,-257.29528)"
       cx="112.08553"
       cy="141.86414"
       fx="112.08553"
       fy="141.86414"
       r="4.97227" /><radialGradient
       xlink:href="#linearGradient3744"
       id="radialGradient9"
       gradientUnits="userSpaceOnUse"
       gradientTransform="matrix(1.3730705,2.403681,-1.6069367,0.91448843,186.15183,-257.29528)"
       cx="112.08553"
       cy="141.86414"
       fx="112.08553"
       fy="141.86414"
       r="4.97227" /><radialGradient
       xlink:href="#linearGradient3744"
       id="radialGradient10"
       gradientUnits="userSpaceOnUse"
       gradientTransform="matrix(1.3654555,2.3948741,-1.5980247,0.91113781,185.74013,-255.83346)"
       cx="112.08553"
       cy="141.86414"
       fx="112.08553"
       fy="141.86414"
       r="4.97227" /><radialGradient
       xlink:href="#linearGradient3744"
       id="radialGradient12"
       gradientUnits="userSpaceOnUse"
       gradientTransform="matrix(1.3730705,2.403681,-1.6069367,0.91448843,186.15183,-257.29528)"
       cx="112.08553"
       cy="141.86414"
       fx="112.08553"
       fy="141.86414"
       r="4.97227" /><radialGradient
       xlink:href="#linearGradient3744"
       id="radialGradient13"
       gradientUnits="userSpaceOnUse"
       gradientTransform="matrix(1.3654555,2.3948741,-1.5980247,0.91113781,185.74013,-255.83346)"
       cx="112.08553"
       cy="141.86414"
       fx="112.08553"
       fy="141.86414"
       r="4.97227" /><radialGradient
       xlink:href="#linearGradient3744"
       id="radialGradient16"
       gradientUnits="userSpaceOnUse"
       gradientTransform="matrix(1.3730705,2.403681,-1.6069367,0.91448843,186.15183,-257.29528)"
       cx="112.08553"
       cy="141.86414"
       fx="112.08553"
       fy="141.86414"
       r="4.97227" /><radialGradient
       xlink:href="#linearGradient3744"
       id="radialGradient17"
       gradientUnits="userSpaceOnUse"
       gradientTransform="matrix(1.3654555,2.3948741,-1.5980247,0.91113781,185.74013,-255.83346)"
       cx="112.08553"
       cy="141.86414"
       fx="112.08553"
       fy="141.86414"
       r="4.97227" /></defs><g
     inkscape:label="Guides"
     inkscape:groupmode="layer"
     id="layer1"
     style="display:inline"
     transform="translate(42.699922,-57.300139)"><g
       id="layer2"
       inkscape:label="Bean MakerBeam"
       style="fill:url(#radialGradient3746);fill-opacity:1"
       transform="rotate(90,81.800321,19.883278)"><path
         id="rect3390"
         style="opacity:1;fill:url(#radialGradient4198);fill-opacity:1;stroke-width:0.1;stroke-miterlimit:10;-inkscape-stroke:none;stop-color:#000000"
         d="m 112.10783,141.68362 c -0.10655,0.005 -0.19071,0.0929 -0.19071,0.20072 v 0.60218 2.49665 c 0,0.1112 0.0897,0.20072 0.2011,0.20072 h 0.60332 c 0.11141,0 0.20058,-0.0895 0.20058,-0.20072 v -1.12272 l 0.0233,-0.0964 0.0478,-0.0648 0.11693,-0.0368 0.11899,0.028 1.68798,1.94447 v 1.04873 1.04875 l -1.68798,1.94447 -0.11899,0.028 -0.11693,-0.0368 -0.0478,-0.0648 -0.0233,-0.0965 5.1e-4,-1.1228 c 5e-5,-0.1112 -0.0897,-0.20069 -0.20109,-0.20072 l -0.60332,-1.6e-4 c -0.11141,-3e-5 -0.2011,0.0897 -0.2011,0.20088 v 2.49674 0.60217 c 0,0.1112 0.0897,0.20072 0.2011,0.20072 h 0.61318 2.50366 c 0.003,0 0.007,1.7e-4 0.0104,0 0.10654,-0.005 0.1721,-0.0929 0.1721,-0.20072 v -0.60217 c 0,-0.11118 -0.0897,-0.20072 -0.20109,-0.20072 h -1.11423 l -0.0899,-0.0213 -0.0655,-0.0477 -0.0369,-0.11617 0.028,-0.1193 1.96115,-1.69198 h 1.01746 1.01748 l 1.96114,1.69198 0.0281,0.1193 -0.0369,0.11617 -0.0655,0.0477 -0.0899,0.0213 h -1.11258 c -0.11141,0 -0.2011,0.0895 -0.2011,0.20072 v 0.60217 c 0,0.10778 0.0639,0.19571 0.17046,0.20072 h 5.1e-4 c 0.003,1.7e-4 0.027,0 0.0307,0 h 2.48341 0.6137 c 0.11141,0 0.20111,-0.0895 0.20111,-0.20072 v -0.60217 -2.49674 c 0,-0.1112 -0.0897,-0.20072 -0.20111,-0.20072 h -0.6033 c -0.11141,0 -0.19565,0.0895 -0.19565,0.20072 v 1.1228 l -0.0283,0.0965 -0.0478,0.0648 -0.11692,0.0368 -0.119,-0.028 -1.68798,-1.94447 v -1.04875 -1.04873 l 1.68798,-1.94447 0.119,-0.028 0.11692,0.0368 0.0478,0.0648 0.0283,0.0964 v 1.12272 c 0,0.11121 0.0842,0.20072 0.19565,0.20072 h 0.6033 c 0.11142,0 0.20111,-0.0895 0.20111,-0.20072 v -2.49665 -0.60218 c 0,-0.11121 -0.0897,-0.20072 -0.20111,-0.20072 h -0.6137 -2.50366 c -0.003,0 -0.007,-1.8e-4 -0.0101,0 h 0.0197 c -0.10651,0.005 -0.19086,0.0929 -0.19091,0.20072 l -2.8e-4,0.60218 c -5e-5,0.11121 0.0903,0.20071 0.20163,0.20071 h 1.11258 l 0.0899,0.0213 0.0655,0.0477 0.0369,0.11618 -0.0281,0.11929 -1.96113,1.69184 h -1.01747 -1.01747 l -1.96114,-1.69184 -0.0281,-0.11929 0.0369,-0.11618 0.0655,-0.0477 0.0899,-0.0213 h 1.11423 c 0.11141,0 0.2011,-0.0895 0.2011,-0.20071 v -0.60218 c 0,-0.10778 -0.0656,-0.19571 -0.17211,-0.20072 -0.003,-1.8e-4 -0.007,0 -0.0104,0 h -2.50366 -0.6137 c -0.004,0 -0.007,-1.8e-4 -0.0104,0 z m 4.80933,3.74528 c 0.69424,-3e-5 1.25704,0.56171 1.25702,1.25464 4e-5,0.69294 -0.56277,1.25469 -1.25702,1.25466 -0.69425,3e-5 -1.25706,-0.56172 -1.25702,-1.25466 -2e-5,-0.69293 0.56278,-1.25467 1.25702,-1.25464 z"
         sodipodi:nodetypes="cscsssscccccccccccccsssscsscscssscccccccccccccsssccscsscsssscccccccccccccsssscsscsccssscccccccccccccssscscsccccccc" /></g><g
       id="g7"
       inkscape:label="Bean MakerBeam"
       style="fill:url(#radialGradient10);fill-opacity:1"
       transform="rotate(90,266.80039,204.88335)"><path
         id="path6"
         style="opacity:1;fill:url(#radialGradient9);fill-opacity:1;stroke-width:0.1;stroke-miterlimit:10;-inkscape-stroke:none;stop-color:#000000"
         d="m 112.10783,141.68362 c -0.10655,0.005 -0.19071,0.0929 -0.19071,0.20072 v 0.60218 2.49665 c 0,0.1112 0.0897,0.20072 0.2011,0.20072 h 0.60332 c 0.11141,0 0.20058,-0.0895 0.20058,-0.20072 v -1.12272 l 0.0233,-0.0964 0.0478,-0.0648 0.11693,-0.0368 0.11899,0.028 1.68798,1.94447 v 1.04873 1.04875 l -1.68798,1.94447 -0.11899,0.028 -0.11693,-0.0368 -0.0478,-0.0648 -0.0233,-0.0965 5.1e-4,-1.1228 c 5e-5,-0.1112 -0.0897,-0.20069 -0.20109,-0.20072 l -0.60332,-1.6e-4 c -0.11141,-3e-5 -0.2011,0.0897 -0.2011,0.20088 v 2.49674 0.60217 c 0,0.1112 0.0897,0.20072 0.2011,0.20072 h 0.61318 2.50366 c 0.003,0 0.007,1.7e-4 0.0104,0 0.10654,-0.005 0.1721,-0.0929 0.1721,-0.20072 v -0.60217 c 0,-0.11118 -0.0897,-0.20072 -0.20109,-0.20072 h -1.11423 l -0.0899,-0.0213 -0.0655,-0.0477 -0.0369,-0.11617 0.028,-0.1193 1.96115,-1.69198 h 1.01746 1.01748 l 1.96114,1.69198 0.0281,0.1193 -0.0369,0.11617 -0.0655,0.0477 -0.0899,0.0213 h -1.11258 c -0.11141,0 -0.2011,0.0895 -0.2011,0.20072 v 0.60217 c 0,0.10778 0.0639,0.19571 0.17046,0.20072 h 5.1e-4 c 0.003,1.7e-4 0.027,0 0.0307,0 h 2.48341 0.6137 c 0.11141,0 0.20111,-0.0895 0.20111,-0.20072 v -0.60217 -2.49674 c 0,-0.1112 -0.0897,-0.20072 -0.20111,-0.20072 h -0.6033 c -0.11141,0 -0.19565,0.0895 -0.19565,0.20072 v 1.1228 l -0.0283,0.0965 -0.0478,0.0648 -0.11692,0.0368 -0.119,-0.028 -1.68798,-1.94447 v -1.04875 -1.04873 l 1.68798,-1.94447 0.119,-0.028 0.11692,0.0368 0.0478,0.0648 0.0283,0.0964 v 1.12272 c 0,0.11121 0.0842,0.20072 0.19565,0.20072 h 0.6033 c 0.11142,0 0.20111,-0.0895 0.20111,-0.20072 v -2.49665 -0.60218 c 0,-0.11121 -0.0897,-0.20072 -0.20111,-0.20072 h -0.6137 -2.50366 c -0.003,0 -0.007,-1.8e-4 -0.0101,0 h 0.0197 c -0.10651,0.005 -0.19086,0.0929 -0.19091,0.20072 l -2.8e-4,0.60218 c -5e-5,0.11121 0.0903,0.20071 0.20163,0.20071 h 1.11258 l 0.0899,0.0213 0.0655,0.0477 0.0369,0.11618 -0.0281,0.11929 -1.96113,1.69184 h -1.01747 -1.01747 l -1.96114,-1.69184 -0.0281,-0.11929 0.0369,-0.11618 0.0655,-0.0477 0.0899,-0.0213 h 1.11423 c 0.11141,0 0.2011,-0.0895 0.2011,-0.20071 v -0.60218 c 0,-0.10778 -0.0656,-0.19571 -0.17211,-0.20072 -0.003,-1.8e-4 -0.007,0 -0.0104,0 h -2.50366 -0.6137 c -0.004,0 -0.007,-1.8e-4 -0.0104,0 z m 4.80933,3.74528 c 0.69424,-3e-5 1.25704,0.56171 1.25702,1.25464 4e-5,0.69294 -0.56277,1.25469 -1.25702,1.25466 -0.69425,3e-5 -1.25706,-0.56172 -1.25702,-1.25466 -2e-5,-0.69293 0.56278,-1.25467 1.25702,-1.25464 z"
         sodipodi:nodetypes="cscsssscccccccccccccsssscsscscssscccccccccccccsssccscsscsssscccccccccccccsssscsscsccssscccccccccccccssscscsccccccc" /></g><g
       id="g2"><rect
         style="fill:#4d4d4d;stroke-width:0.076"
         id="rect10"
         width="3"
         height="360"
         x="53.500111"
         y="-320.00006"
         transform="rotate(90)" /><rect
         style="fill:#000080;stroke-width:0.0759999"
         id="rect11"
         width="3"
         height="2.6999998"
         x="53.500111"
         y="-322.7001"
         transform="rotate(90)" /><rect
         style="fill:#000080;stroke-width:0.0759999"
         id="rect12"
         width="3"
         height="2.6999998"
         x="53.500111"
         y="39.999954"
         transform="rotate(90)" /></g><g
       id="g12"
       inkscape:label="Bean MakerBeam"
       style="fill:url(#radialGradient13);fill-opacity:1"
       transform="rotate(90,161.80036,309.88338)"><path
         id="path12"
         style="opacity:1;fill:url(#radialGradient12);fill-opacity:1;stroke-width:0.1;stroke-miterlimit:10;-inkscape-stroke:none;stop-color:#000000"
         d="m 112.10783,141.68362 c -0.10655,0.005 -0.19071,0.0929 -0.19071,0.20072 v 0.60218 2.49665 c 0,0.1112 0.0897,0.20072 0.2011,0.20072 h 0.60332 c 0.11141,0 0.20058,-0.0895 0.20058,-0.20072 v -1.12272 l 0.0233,-0.0964 0.0478,-0.0648 0.11693,-0.0368 0.11899,0.028 1.68798,1.94447 v 1.04873 1.04875 l -1.68798,1.94447 -0.11899,0.028 -0.11693,-0.0368 -0.0478,-0.0648 -0.0233,-0.0965 5.1e-4,-1.1228 c 5e-5,-0.1112 -0.0897,-0.20069 -0.20109,-0.20072 l -0.60332,-1.6e-4 c -0.11141,-3e-5 -0.2011,0.0897 -0.2011,0.20088 v 2.49674 0.60217 c 0,0.1112 0.0897,0.20072 0.2011,0.20072 h 0.61318 2.50366 c 0.003,0 0.007,1.7e-4 0.0104,0 0.10654,-0.005 0.1721,-0.0929 0.1721,-0.20072 v -0.60217 c 0,-0.11118 -0.0897,-0.20072 -0.20109,-0.20072 h -1.11423 l -0.0899,-0.0213 -0.0655,-0.0477 -0.0369,-0.11617 0.028,-0.1193 1.96115,-1.69198 h 1.01746 1.01748 l 1.96114,1.69198 0.0281,0.1193 -0.0369,0.11617 -0.0655,0.0477 -0.0899,0.0213 h -1.11258 c -0.11141,0 -0.2011,0.0895 -0.2011,0.20072 v 0.60217 c 0,0.10778 0.0639,0.19571 0.17046,0.20072 h 5.1e-4 c 0.003,1.7e-4 0.027,0 0.0307,0 h 2.48341 0.6137 c 0.11141,0 0.20111,-0.0895 0.20111,-0.20072 v -0.60217 -2.49674 c 0,-0.1112 -0.0897,-0.20072 -0.20111,-0.20072 h -0.6033 c -0.11141,0 -0.19565,0.0895 -0.19565,0.20072 v 1.1228 l -0.0283,0.0965 -0.0478,0.0648 -0.11692,0.0368 -0.119,-0.028 -1.68798,-1.94447 v -1.04875 -1.04873 l 1.68798,-1.94447 0.119,-0.028 0.11692,0.0368 0.0478,0.0648 0.0283,0.0964 v 1.12272 c 0,0.11121 0.0842,0.20072 0.19565,0.20072 h 0.6033 c 0.11142,0 0.20111,-0.0895 0.20111,-0.20072 v -2.49665 -0.60218 c 0,-0.11121 -0.0897,-0.20072 -0.20111,-0.20072 h -0.6137 -2.50366 c -0.003,0 -0.007,-1.8e-4 -0.0101,0 h 0.0197 c -0.10651,0.005 -0.19086,0.0929 -0.19091,0.20072 l -2.8e-4,0.60218 c -5e-5,0.11121 0.0903,0.20071 0.20163,0.20071 h 1.11258 l 0.0899,0.0213 0.0655,0.0477 0.0369,0.11618 -0.0281,0.11929 -1.96113,1.69184 h -1.01747 -1.01747 l -1.96114,-1.69184 -0.0281,-0.11929 0.0369,-0.11618 0.0655,-0.0477 0.0899,-0.0213 h 1.11423 c 0.11141,0 0.2011,-0.0895 0.2011,-0.20071 v -0.60218 c 0,-0.10778 -0.0656,-0.19571 -0.17211,-0.20072 -0.003,-1.8e-4 -0.007,0 -0.0104,0 h -2.50366 -0.6137 c -0.004,0 -0.007,-1.8e-4 -0.0104,0 z m 4.80933,3.74528 c 0.69424,-3e-5 1.25704,0.56171 1.25702,1.25464 4e-5,0.69294 -0.56277,1.25469 -1.25702,1.25466 -0.69425,3e-5 -1.25706,-0.56172 -1.25702,-1.25466 -2e-5,-0.69293 0.56278,-1.25467 1.25702,-1.25464 z"
         sodipodi:nodetypes="cscsssscccccccccccccsssscsscscssscccccccccccccsssccscsscsssscccccccccccccsssscsscsccssscccccccccccccssscscsccccccc" /></g><g
       id="g1"
       transform="rotate(90,140.00006,190.00014)"><rect
         style="fill:#4d4d4d;stroke-width:0.076"
         id="rect13"
         width="3"
         height="200"
         x="3.5000677"
         y="-210.00006"
         transform="rotate(90)" /><rect
         style="fill:#000080;stroke-width:0.0759999"
         id="rect14"
         width="3"
         height="2.6999998"
         x="3.5000677"
         y="-212.70007"
         transform="rotate(90)" /><rect
         style="fill:#000080;stroke-width:0.0759999"
         id="rect15"
         width="3"
         height="2.6999998"
         x="3.5000677"
         y="-10.000061"
         transform="rotate(90)" /></g><g
       id="g16"
       inkscape:label="Bean MakerBeam"
       style="fill:url(#radialGradient17);fill-opacity:1"
       transform="rotate(90,-23.19971,124.88331)"><path
         id="path16"
         style="opacity:1;fill:url(#radialGradient16);fill-opacity:1;stroke-width:0.1;stroke-miterlimit:10;-inkscape-stroke:none;stop-color:#000000"
         d="m 112.10783,141.68362 c -0.10655,0.005 -0.19071,0.0929 -0.19071,0.20072 v 0.60218 2.49665 c 0,0.1112 0.0897,0.20072 0.2011,0.20072 h 0.60332 c 0.11141,0 0.20058,-0.0895 0.20058,-0.20072 v -1.12272 l 0.0233,-0.0964 0.0478,-0.0648 0.11693,-0.0368 0.11899,0.028 1.68798,1.94447 v 1.04873 1.04875 l -1.68798,1.94447 -0.11899,0.028 -0.11693,-0.0368 -0.0478,-0.0648 -0.0233,-0.0965 5.1e-4,-1.1228 c 5e-5,-0.1112 -0.0897,-0.20069 -0.20109,-0.20072 l -0.60332,-1.6e-4 c -0.11141,-3e-5 -0.2011,0.0897 -0.2011,0.20088 v 2.49674 0.60217 c 0,0.1112 0.0897,0.20072 0.2011,0.20072 h 0.61318 2.50366 c 0.003,0 0.007,1.7e-4 0.0104,0 0.10654,-0.005 0.1721,-0.0929 0.1721,-0.20072 v -0.60217 c 0,-0.11118 -0.0897,-0.20072 -0.20109,-0.20072 h -1.11423 l -0.0899,-0.0213 -0.0655,-0.0477 -0.0369,-0.11617 0.028,-0.1193 1.96115,-1.69198 h 1.01746 1.01748 l 1.96114,1.69198 0.0281,0.1193 -0.0369,0.11617 -0.0655,0.0477 -0.0899,0.0213 h -1.11258 c -0.11141,0 -0.2011,0.0895 -0.2011,0.20072 v 0.60217 c 0,0.10778 0.0639,0.19571 0.17046,0.20072 h 5.1e-4 c 0.003,1.7e-4 0.027,0 0.0307,0 h 2.48341 0.6137 c 0.11141,0 0.20111,-0.0895 0.20111,-0.20072 v -0.60217 -2.49674 c 0,-0.1112 -0.0897,-0.20072 -0.20111,-0.20072 h -0.6033 c -0.11141,0 -0.19565,0.0895 -0.19565,0.20072 v 1.1228 l -0.0283,0.0965 -0.0478,0.0648 -0.11692,0.0368 -0.119,-0.028 -1.68798,-1.94447 v -1.04875 -1.04873 l 1.68798,-1.94447 0.119,-0.028 0.11692,0.0368 0.0478,0.0648 0.0283,0.0964 v 1.12272 c 0,0.11121 0.0842,0.20072 0.19565,0.20072 h 0.6033 c 0.11142,0 0.20111,-0.0895 0.20111,-0.20072 v -2.49665 -0.60218 c 0,-0.11121 -0.0897,-0.20072 -0.20111,-0.20072 h -0.6137 -2.50366 c -0.003,0 -0.007,-1.8e-4 -0.0101,0 h 0.0197 c -0.10651,0.005 -0.19086,0.0929 -0.19091,0.20072 l -2.8e-4,0.60218 c -5e-5,0.11121 0.0903,0.20071 0.20163,0.20071 h 1.11258 l 0.0899,0.0213 0.0655,0.0477 0.0369,0.11618 -0.0281,0.11929 -1.96113,1.69184 h -1.01747 -1.01747 l -1.96114,-1.69184 -0.0281,-0.11929 0.0369,-0.11618 0.0655,-0.0477 0.0899,-0.0213 h 1.11423 c 0.11141,0 0.2011,-0.0895 0.2011,-0.20071 v -0.60218 c 0,-0.10778 -0.0656,-0.19571 -0.17211,-0.20072 -0.003,-1.8e-4 -0.007,0 -0.0104,0 h -2.50366 -0.6137 c -0.004,0 -0.007,-1.8e-4 -0.0104,0 z m 4.80933,3.74528 c 0.69424,-3e-5 1.25704,0.56171 1.25702,1.25464 4e-5,0.69294 -0.56277,1.25469 -1.25702,1.25466 -0.69425,3e-5 -1.25706,-0.56172 -1.25702,-1.25466 -2e-5,-0.69293 0.56278,-1.25467 1.25702,-1.25464 z"
         sodipodi:nodetypes="cscsssscccccccccccccsssscsscscssscccccccccccccsssccscsscsssscccccccccccccsssscsscsccssscccccccccccccssscscsccccccc" /></g><g
       id="g4"
       transform="rotate(90,-45.000011,5.0000695)"><rect
         style="fill:#4d4d4d;stroke-width:0.076"
         id="rect2"
         width="3"
         height="200"
         x="3.5000677"
         y="-210.00006"
         transform="rotate(90)" /><rect
         style="fill:#000080;stroke-width:0.0759999"
         id="rect3"
         width="3"
         height="2.6999998"
         x="3.5000677"
         y="-212.70007"
         transform="rotate(90)" /><rect
         style="fill:#000080;stroke-width:0.0759999"
         id="rect4"
         width="3"
         height="2.6999998"
         x="3.5000677"
         y="-10.000061"
         transform="rotate(90)" /></g><g
       id="g3"><rect
         style="fill:#4d4d4d;stroke-width:0.076"
         id="rect5"
         width="3"
         height="360"
         x="263.50018"
         y="-320.00006"
         transform="rotate(90)" /><rect
         style="fill:#000080;stroke-width:0.0759999"
         id="rect6"
         width="3"
         height="2.6999998"
         x="263.50018"
         y="-322.7001"
         transform="rotate(90)" /><rect
         style="fill:#000080;stroke-width:0.0759999"
         id="rect7"
         width="3"
         height="2.6999998"
         x="263.50018"
         y="39.999954"
         transform="rotate(90)" /></g></g><g
     inkscape:groupmode="layer"
     id="layer4"
     inkscape:label="Panel"
     transform="translate(42.699922,-57.300139)"><path
       id="rect8"
       style="fill:#000000;stroke:#000000;stroke-width:0"
       d="m -39.999827,57.30014 v 2.700094 h -2.700094 V 260.00043 h 2.700094 v 2.69958 H 319.9999 v -2.69958 H 322.7 V 60.000234 h -2.7001 V 57.30014 Z" /></g></svg>
