<?xml version="1.0" encoding="UTF-8" standalone="no"?>
<!-- Created with Inkscape (http://www.inkscape.org/) -->

<svg
   width="179.99988mm"
   height="120.00043mm"
   viewBox="0 0 179.99988 120.00043"
   version="1.1"
   id="svg6370"
   inkscape:version="1.2.2 (b0a8486, 2022-12-01)"
   sodipodi:docname="engrave_NoVectorizedText.svg"
   xmlns:inkscape="http://www.inkscape.org/namespaces/inkscape"
   xmlns:sodipodi="http://sodipodi.sourceforge.net/DTD/sodipodi-0.dtd"
   xmlns="http://www.w3.org/2000/svg"
   xmlns:svg="http://www.w3.org/2000/svg">
  <sodipodi:namedview
     id="namedview6372"
     pagecolor="#ffffff"
     bordercolor="#666666"
     borderopacity="1.0"
     inkscape:showpageshadow="2"
     inkscape:pageopacity="0.0"
     inkscape:pagecheckerboard="0"
     inkscape:deskcolor="#d1d1d1"
     inkscape:document-units="mm"
     showgrid="false"
     inkscape:zoom="2.5730638"
     inkscape:cx="340.06153"
     inkscape:cy="226.77246"
     inkscape:current-layer="layer1" />
  <defs
     id="defs6367" />
  <g
     inkscape:label="Capa 1"
     inkscape:groupmode="layer"
     id="layer1"
     transform="translate(-2.5225863e-4,-2.5169863e-4)">
    <path
       id="rect3678"
       style="display:inline;fill:none;fill-opacity:1;stroke:#000000;stroke-width:0.0759766;stroke-linecap:round;stroke-miterlimit:4;stroke-dasharray:none"
       d="m 10.038147,0.03824 v 4.99711 c -1.7e-4,2.75965 -2.2388204,4.99672 -5.0002116,4.9966 H 0.03824056 V 109.969 H 5.0379354 c 2.7613912,-1.2e-4 5.0000416,2.23711 5.0002116,4.99659 v 4.99711 H 169.96224 v -4.99711 c 1.7e-4,-2.75948 2.23877,-4.99671 5.00021,-4.99659 h 4.99969 V 10.03195 h -4.99969 c -2.76144,1.2e-4 -5.00004,-2.23695 -5.00021,-4.9966 V 0.03824 Z M 4.7702515,13.0638 A 1.6,1.6 0 0 1 6.3701538,14.6637 1.6,1.6 0 0 1 4.7702515,16.26361 1.6,1.6 0 0 1 3.1703492,14.6637 1.6,1.6 0 0 1 4.7702515,13.0638 Z m 170.4800385,0 a 1.6,1.6 0 0 1 1.5999,1.5999 1.6,1.6 0 0 1 -1.5999,1.59991 1.6,1.6 0 0 1 -1.5999,-1.59991 1.6,1.6 0 0 1 1.5999,-1.5999 z M 117.213,22.70817 a 1.6,1.6 0 0 1 1.59991,1.59991 1.6,1.6 0 0 1 -1.59991,1.5999 1.6,1.6 0 0 1 -1.5999,-1.5999 1.6,1.6 0 0 1 1.5999,-1.59991 z m -104.100622,0.4191 c 3.323964,0 6.000151,2.67615 6.000151,6.00015 v 9.99991 c 0,3.32388 -2.676187,6.00015 -6.000151,6.00015 -3.3239604,0 -6.0001506,-2.67627 -6.0001506,-6.00015 v -9.99991 c 0,-3.324 2.6761902,-6.00015 6.0001506,-6.00015 z m 19.020028,0 c 3.323956,0 5.999633,2.67615 5.999633,6.00015 v 9.99991 c 0,3.32389 -2.675677,6.00015 -5.999633,6.00015 -3.323967,0 -6.000151,-2.67626 -6.000151,-6.00015 v -9.99991 c 0,-3.324 2.676184,-6.00015 6.000151,-6.00015 z m 18.97972,0 c 3.32396,0 6.00015,2.67615 6.00015,6.00015 v 9.99991 c 0,3.3239 -2.67619,6.00015 -6.00015,6.00015 -3.32397,0 -5.999634,-2.67625 -5.999634,-6.00015 v -9.99991 c 0,-3.324 2.675664,-6.00015 5.999634,-6.00015 z m 64.600714,4.18062 h 3.00033 v 74.00014 h -3.00033 z m -26.60045,0.98754 a 7.5500002,7.5500002 0 0 1 7.549927,7.54993 7.5500002,7.5500002 0 0 1 -7.549927,7.54992 7.5500002,7.5500002 0 0 1 -7.549927,-7.54992 7.5500002,7.5500002 0 0 1 7.549927,-7.54993 z m 54.45973,0 a 7.5500002,7.5500002 0 0 1 7.54992,7.54993 7.5500002,7.5500002 0 0 1 -7.54992,7.54992 7.5500002,7.5500002 0 0 1 -7.54993,-7.54992 7.5500002,7.5500002 0 0 1 7.54993,-7.54993 z M 3.6121826,51.30798 H 98.612585 v 57.00014 H 79.612195 V 70.30785 H 60.612321 v 38.00027 H 3.6121826 Z M 143.57212,53.17247 a 7.5500002,7.5500002 0 0 1 7.54992,7.55044 7.5500002,7.5500002 0 0 1 -7.54992,7.54993 7.5500002,7.5500002 0 0 1 -7.54993,-7.54993 7.5500002,7.5500002 0 0 1 7.54993,-7.55044 z m 24.87755,0 a 7.5500002,7.5500002 0 0 1 7.54993,7.55044 7.5500002,7.5500002 0 0 1 -7.54993,7.54993 7.5500002,7.5500002 0 0 1 -7.55044,-7.54993 7.5500002,7.5500002 0 0 1 7.55044,-7.55044 z m -24.87755,24.87755 a 7.5500002,7.5500002 0 0 1 7.54992,7.54992 7.5500002,7.5500002 0 0 1 -7.54992,7.54993 7.5500002,7.5500002 0 0 1 -7.54993,-7.54993 7.5500002,7.5500002 0 0 1 7.54993,-7.54992 z m 24.87755,0 a 7.5500002,7.5500002 0 0 1 7.54993,7.54992 7.5500002,7.5500002 0 0 1 -7.54993,7.54993 7.5500002,7.5500002 0 0 1 -7.55044,-7.54993 7.5500002,7.5500002 0 0 1 7.55044,-7.54992 z M 117.213,102.70794 a 1.6,1.6 0 0 1 1.59991,1.60042 1.6,1.6 0 0 1 -1.59991,1.5999 1.6,1.6 0 0 1 -1.5999,-1.5999 1.6,1.6 0 0 1 1.5999,-1.60042 z m -53.39829,1.02991 a 1.6,1.6 0 0 1 1.599902,1.59991 1.6,1.6 0 0 1 -1.599902,1.5999 1.6,1.6 0 0 1 -1.60042,-1.5999 1.6,1.6 0 0 1 1.60042,-1.59991 z m 111.43558,0 a 1.6,1.6 0 0 1 1.5999,1.59991 1.6,1.6 0 0 1 -1.5999,1.5999 1.6,1.6 0 0 1 -1.5999,-1.5999 1.6,1.6 0 0 1 1.5999,-1.59991 z" />
    <g
       inkscape:groupmode="layer"
       id="layer14"
       inkscape:label="Front Text"
       style="display:inline;fill:#000000"
       transform="translate(2.5698269e-4,-177)">
      <text
         id="text14353"
         y="199.61552"
         x="89.309822"
         style="font-style:normal;font-weight:normal;font-size:2.82222px;line-height:1.25;font-family:sans-serif;text-align:center;letter-spacing:0px;word-spacing:0px;text-anchor:middle;display:inline;fill:#000000;fill-opacity:1;stroke:none;stroke-width:0.264583"
         xml:space="preserve"
         inkscape:label="Zomm Text"><tspan
           style="font-style:normal;font-variant:normal;font-weight:normal;font-stretch:normal;font-size:2.82222px;font-family:'MS 33558';-inkscape-font-specification:'MS 33558, ';text-align:center;text-anchor:middle;fill:#000000;stroke-width:0.264583"
           y="199.61552"
           x="89.309822"
           id="tspan14351"
           sodipodi:role="line">ZOOM</tspan><tspan
           style="font-style:normal;font-variant:normal;font-weight:normal;font-stretch:normal;font-size:2.82222px;font-family:'MS 33558';-inkscape-font-specification:'MS 33558, ';text-align:center;text-anchor:middle;fill:#000000;stroke-width:0.264583"
           y="203.51205"
           x="89.309822"
           sodipodi:role="line"
           id="tspan11993">3rd person</tspan></text>
      <text
         id="text14860"
         y="214.25482"
         x="162.15157"
         style="font-style:normal;font-weight:normal;font-size:2.82222px;line-height:1.25;font-family:sans-serif;letter-spacing:0px;word-spacing:0px;display:inline;fill:#000000;fill-opacity:1;stroke:none;stroke-width:0.264583"
         xml:space="preserve"
         inkscape:label="Offset Text"><tspan
           style="font-style:normal;font-variant:normal;font-weight:normal;font-stretch:normal;font-size:2.82222px;font-family:'MS 33558';-inkscape-font-specification:'MS 33558, ';fill:#000000;stroke-width:0.264583"
           y="214.25482"
           x="162.15157"
           id="tspan14858"
           sodipodi:role="line">Offset</tspan></text>
      <text
         id="text14884"
         y="249.40028"
         x="167.33791"
         style="font-style:normal;font-weight:normal;font-size:3.175px;line-height:1.25;font-family:sans-serif;letter-spacing:0px;word-spacing:0px;display:inline;fill:#000000;fill-opacity:1;stroke:none;stroke-width:0.264583"
         xml:space="preserve"
         inkscape:label="X Text"><tspan
           style="font-style:normal;font-variant:normal;font-weight:normal;font-stretch:normal;font-size:3.175px;font-family:'MS 33558';-inkscape-font-specification:'MS 33558, ';fill:#000000;stroke-width:0.264583"
           y="249.40028"
           x="167.33791"
           id="tspan14882"
           sodipodi:role="line">x</tspan></text>
      <text
         xml:space="preserve"
         style="font-style:normal;font-weight:normal;font-size:3.175px;line-height:1.25;font-family:sans-serif;letter-spacing:0px;word-spacing:0px;display:inline;fill:#000000;fill-opacity:1;stroke:none;stroke-width:0.264583"
         x="142.44157"
         y="249.4008"
         id="text14902"
         inkscape:label="Y Text"><tspan
           sodipodi:role="line"
           id="tspan14900"
           x="142.44157"
           y="249.4008"
           style="font-style:normal;font-variant:normal;font-weight:normal;font-stretch:normal;font-size:3.175px;font-family:'MS 33558';-inkscape-font-specification:'MS 33558, ';fill:#000000;stroke-width:0.264583">Y</tspan></text>
      <text
         id="text14926"
         y="224.51733"
         x="142.57233"
         style="font-style:normal;font-weight:normal;font-size:3.175px;line-height:1.25;font-family:sans-serif;letter-spacing:0px;word-spacing:0px;display:inline;fill:#000000;fill-opacity:1;stroke:none;stroke-width:0.264583"
         xml:space="preserve"
         inkscape:label="Z Text"><tspan
           style="font-style:normal;font-variant:normal;font-weight:normal;font-stretch:normal;font-size:3.175px;font-family:'MS 33558';-inkscape-font-specification:'MS 33558, ';fill:#000000;stroke-width:0.264583"
           y="224.51733"
           x="142.57233"
           id="tspan14924"
           sodipodi:role="line">Z</tspan></text>
      <text
         xml:space="preserve"
         style="font-style:normal;font-weight:normal;font-size:2.82222px;line-height:1.25;font-family:sans-serif;letter-spacing:0px;word-spacing:0px;display:inline;fill:#000000;fill-opacity:1;stroke:none;stroke-width:0.264583"
         x="140.5226"
         y="273.92206"
         id="text14580"
         inkscape:label="FOV Text"><tspan
           sodipodi:role="line"
           id="tspan14578"
           x="140.5226"
           y="273.92206"
           style="font-style:normal;font-variant:normal;font-weight:normal;font-stretch:normal;font-size:2.82222px;font-family:'MS 33558';-inkscape-font-specification:'MS 33558, ';fill:#000000;stroke-width:0.264583">FOV</tspan></text>
      <text
         id="text14584"
         y="273.91937"
         x="165.35965"
         style="font-style:normal;font-weight:normal;font-size:2.82222px;line-height:1.25;font-family:sans-serif;letter-spacing:0px;word-spacing:0px;display:inline;fill:#000000;fill-opacity:1;stroke:none;stroke-width:0.264583"
         xml:space="preserve"
         inkscape:label="DOF Text"><tspan
           style="font-style:normal;font-variant:normal;font-weight:normal;font-stretch:normal;font-size:2.82222px;font-family:'MS 33558';-inkscape-font-specification:'MS 33558, ';fill:#000000;stroke-width:0.264583"
           y="273.91937"
           x="165.35965"
           id="tspan14582"
           sodipodi:role="line">DOF</tspan></text>
      <text
         id="text12452"
         y="191.51753"
         x="117.38385"
         style="font-style:normal;font-weight:normal;font-size:2.82222px;line-height:1.25;font-family:sans-serif;text-align:center;letter-spacing:0px;word-spacing:0px;text-anchor:middle;display:inline;fill:#000000;fill-opacity:1;stroke:none;stroke-width:0.264583"
         xml:space="preserve"
         inkscape:label="Dinamiz Zoom Text"><tspan
           style="font-style:normal;font-variant:normal;font-weight:normal;font-stretch:normal;font-size:2.82222px;font-family:'MS 33558';-inkscape-font-specification:'MS 33558, ';text-align:center;text-anchor:middle;fill:#000000;stroke-width:0.264583"
           y="191.51753"
           x="117.38385"
           id="tspan12450"
           sodipodi:role="line">DINAMIC</tspan><tspan
           style="font-style:normal;font-variant:normal;font-weight:normal;font-stretch:normal;font-size:2.82222px;font-family:'MS 33558';-inkscape-font-specification:'MS 33558, ';text-align:center;text-anchor:middle;fill:#000000;stroke-width:0.264583"
           y="195.41406"
           x="117.38385"
           sodipodi:role="line"
           id="tspan12556">ZOOM</tspan></text>
      <text
         xml:space="preserve"
         style="font-style:normal;font-weight:normal;font-size:4.93889px;line-height:1.25;font-family:sans-serif;letter-spacing:0px;word-spacing:0px;display:inline;fill:#000000;fill-opacity:1;stroke:none;stroke-width:0.264583"
         x="78.224022"
         y="184.21367"
         id="text12344"
         inkscape:label="Title"><tspan
           sodipodi:role="line"
           id="tspan12342"
           x="78.224022"
           y="184.21367"
           style="font-style:normal;font-variant:normal;font-weight:normal;font-stretch:normal;font-size:4.93889px;font-family:'MS 33558';-inkscape-font-specification:'MS 33558, ';fill:#000000;stroke-width:0.264583">CAMERA</tspan></text>
      <text
         id="text14033"
         y="191.80365"
         x="13.262655"
         style="font-style:normal;font-weight:normal;font-size:2.82222px;line-height:1.25;font-family:sans-serif;text-align:center;letter-spacing:0px;word-spacing:0px;text-anchor:middle;display:inline;fill:#000000;fill-opacity:1;stroke:none;stroke-width:0.264583"
         xml:space="preserve"
         inkscape:label="Free Lock Text"><tspan
           style="font-style:normal;font-variant:normal;font-weight:normal;font-stretch:normal;font-size:2.82222px;font-family:'MS 33558';-inkscape-font-specification:'MS 33558, ';text-align:center;text-anchor:middle;fill:#000000;stroke-width:0.264583"
           y="191.80365"
           x="13.262655"
           sodipodi:role="line"
           id="tspan14031">FREE</tspan><tspan
           style="font-style:normal;font-variant:normal;font-weight:normal;font-stretch:normal;font-size:2.82222px;font-family:'MS 33558';-inkscape-font-specification:'MS 33558, ';text-align:center;text-anchor:middle;fill:#000000;stroke-width:0.264583"
           y="195.70018"
           x="13.262655"
           sodipodi:role="line"
           id="tspan14037">LOCK</tspan></text>
      <text
         id="text14054"
         y="191.80635"
         x="32.282505"
         style="font-style:normal;font-weight:normal;font-size:2.82222px;line-height:1.25;font-family:sans-serif;text-align:center;letter-spacing:0px;word-spacing:0px;text-anchor:middle;display:inline;fill:#000000;fill-opacity:1;stroke:none;stroke-width:0.264583"
         xml:space="preserve"
         inkscape:label="Advances Controls 1 Text"><tspan
           style="font-style:normal;font-variant:normal;font-weight:normal;font-stretch:normal;font-size:2.82222px;font-family:'MS 33558';-inkscape-font-specification:'MS 33558, ';text-align:center;text-anchor:middle;fill:#000000;stroke-width:0.264583"
           y="191.80635"
           x="32.282505"
           sodipodi:role="line"
           id="tspan14052">ADVANCED</tspan><tspan
           style="font-style:normal;font-variant:normal;font-weight:normal;font-stretch:normal;font-size:2.82222px;font-family:'MS 33558';-inkscape-font-specification:'MS 33558, ';text-align:center;text-anchor:middle;fill:#000000;stroke-width:0.264583"
           y="195.70288"
           x="32.282505"
           sodipodi:role="line"
           id="tspan14058">CONTROLS</tspan><tspan
           style="font-style:normal;font-variant:normal;font-weight:normal;font-stretch:normal;font-size:2.82222px;font-family:'MS 33558';-inkscape-font-specification:'MS 33558, ';text-align:center;text-anchor:middle;fill:#000000;stroke-width:0.264583"
           y="199.59941"
           x="32.282505"
           sodipodi:role="line"
           id="tspan14060">1</tspan></text>
      <text
         id="text14068"
         y="191.80641"
         x="51.282509"
         style="font-style:normal;font-weight:normal;font-size:2.82222px;line-height:1.25;font-family:sans-serif;text-align:center;letter-spacing:0px;word-spacing:0px;text-anchor:middle;display:inline;fill:#000000;fill-opacity:1;stroke:none;stroke-width:0.264583"
         xml:space="preserve"
         inkscape:label="Advanced Controls 2 Text"><tspan
           style="font-style:normal;font-variant:normal;font-weight:normal;font-stretch:normal;font-size:2.82222px;font-family:'MS 33558';-inkscape-font-specification:'MS 33558, ';text-align:center;text-anchor:middle;fill:#000000;stroke-width:0.264583"
           y="191.80641"
           x="51.282509"
           sodipodi:role="line"
           id="tspan14062">ADVANCED</tspan><tspan
           style="font-style:normal;font-variant:normal;font-weight:normal;font-stretch:normal;font-size:2.82222px;font-family:'MS 33558';-inkscape-font-specification:'MS 33558, ';text-align:center;text-anchor:middle;fill:#000000;stroke-width:0.264583"
           y="195.70294"
           x="51.282509"
           sodipodi:role="line"
           id="tspan14064">CONTROLS</tspan><tspan
           style="font-style:normal;font-variant:normal;font-weight:normal;font-stretch:normal;font-size:2.82222px;font-family:'MS 33558';-inkscape-font-specification:'MS 33558, ';text-align:center;text-anchor:middle;fill:#000000;stroke-width:0.264583"
           y="199.59947"
           x="51.282509"
           sodipodi:role="line"
           id="tspan14066">2</tspan></text>
    </g>
  </g>
</svg>
