<?xml version="1.0" encoding="UTF-8" standalone="no"?>
<!-- Created with Inkscape (http://www.inkscape.org/) -->

<svg
   width="59.999989mm"
   height="119.99995mm"
   viewBox="0 0 59.999989 119.99995"
   version="1.1"
   id="svg1748"
   inkscape:version="1.2.2 (b0a8486, 2022-12-01)"
   sodipodi:docname="engrave_NoVectorizedText.svg"
   xmlns:inkscape="http://www.inkscape.org/namespaces/inkscape"
   xmlns:sodipodi="http://sodipodi.sourceforge.net/DTD/sodipodi-0.dtd"
   xmlns="http://www.w3.org/2000/svg"
   xmlns:svg="http://www.w3.org/2000/svg">
  <sodipodi:namedview
     id="namedview1750"
     pagecolor="#ffffff"
     bordercolor="#666666"
     borderopacity="1.0"
     inkscape:showpageshadow="2"
     inkscape:pageopacity="0.0"
     inkscape:pagecheckerboard="0"
     inkscape:deskcolor="#d1d1d1"
     inkscape:document-units="mm"
     showgrid="false"
     inkscape:zoom="2.5730741"
     inkscape:cx="83.169001"
     inkscape:cy="226.77155"
     inkscape:current-layer="layer1" />
  <defs
     id="defs1745" />
  <g
     inkscape:label="Capa 1"
     inkscape:groupmode="layer"
     id="layer1"
     transform="translate(-2.4056122e-4,-2.4000122e-4)">
    <path
       id="rect3678"
       style="display:inline;fill:none;fill-opacity:1;stroke:#000000;stroke-width:0.076;stroke-linecap:round;stroke-miterlimit:4;stroke-dasharray:none"
       d="m 10.031429,0.03824 v 4.99659 c -1.66e-4,2.75964 -2.2375719,4.99672 -4.997111,4.9966 H 0.03824056 v 99.93705 H 5.034318 c 2.7595391,-1.2e-4 4.996945,2.23696 4.997111,4.9966 v 4.99711 h 39.937097 v -4.99711 c 1.66e-4,-2.75964 2.237574,-4.99672 4.997111,-4.9966 h 4.996594 V 10.03143 H 54.965637 C 52.2061,10.03155 49.968692,7.79447 49.968526,5.03483 V 0.03824 Z M 8.5746704,12.74651 a 1.6,1.6 0 0 1 1.5999026,1.5999 1.6,1.6 0 0 1 -1.5999026,1.5999 1.6,1.6 0 0 1 -1.5999024,-1.5999 1.6,1.6 0 0 1 1.5999024,-1.5999 z m 42.9663696,0 a 1.6,1.6 0 0 1 1.599902,1.5999 1.6,1.6 0 0 1 -1.599902,1.5999 1.6,1.6 0 0 1 -1.599903,-1.5999 1.6,1.6 0 0 1 1.599903,-1.5999 z m -9.169466,14.89263 a 8.1999998,8.1999998 0 0 1 8.200016,8.20002 8.1999998,8.1999998 0 0 1 -8.200016,8.20001 8.1999998,8.1999998 0 0 1 -8.200017,-8.20001 8.1999998,8.1999998 0 0 1 8.200017,-8.20002 z m -27.570411,2.30012 a 5.8999996,5.8999996 0 0 1 5.299935,3.30781 v 5.18211 a 5.8999996,5.8999996 0 0 1 -5.299935,3.30987 5.8999996,5.8999996 0 0 1 -5.2999342,-3.3109 v -5.1785 A 5.8999996,5.8999996 0 0 1 14.801163,29.93926 Z M 6.0817993,54.18429 H 25.08219 V 73.18416 H 6.0817993 Z m 28.9517207,0 H 54.033394 V 73.18416 H 35.03352 Z M 3.8121704,75.53234 a 1.6,1.6 0 0 1 1.5999023,1.5999 1.6,1.6 0 0 1 -1.5999023,1.59991 1.6,1.6 0 0 1 -1.5999024,-1.59991 1.6,1.6 0 0 1 1.5999024,-1.5999 z M 10.175089,83.521 c 3.323991,0 6.000151,2.67615 6.000151,6.00015 v 9.99991 c 0,3.32397 -2.67616,6.00015 -6.000151,6.00015 -3.323989,0 -6.0001501,-2.67618 -6.0001501,-6.00015 v -9.99991 c 0,-3.324 2.6761611,-6.00015 6.0001501,-6.00015 z m 19.000391,0 c 3.323988,0 6.00015,2.67615 6.00015,6.00015 v 9.99991 c 0,3.32396 -2.676162,6.00015 -6.00015,6.00015 -3.323988,0 -6.000151,-2.67619 -6.000151,-6.00015 v -9.99991 c 0,-3.324 2.676163,-6.00015 6.000151,-6.00015 z m 20.043221,3.44992 a 7.5500002,7.5500002 0 0 1 7.550443,7.54993 7.5500002,7.5500002 0 0 1 -7.550443,7.55044 7.5500002,7.5500002 0 0 1 -7.549927,-7.55044 7.5500002,7.5500002 0 0 1 7.549927,-7.54993 z m 6.980452,17.66559 a 1.6,1.6 0 0 1 1.599903,1.5999 1.6,1.6 0 0 1 -1.599903,1.5999 1.6,1.6 0 0 1 -1.600419,-1.5999 1.6,1.6 0 0 1 1.600419,-1.5999 z" />
    <text
       xml:space="preserve"
       style="font-style:normal;font-weight:normal;font-size:4.93889px;line-height:1.25;font-family:sans-serif;letter-spacing:0px;word-spacing:0px;display:inline;fill:#000000;fill-opacity:1;stroke:none;stroke-width:0.264583"
       x="18.148129"
       y="7.576036"
       id="text12344-7"
       inkscape:label="Title"><tspan
         sodipodi:role="line"
         id="tspan12342-2"
         x="18.148129"
         y="7.576036"
         style="font-style:normal;font-variant:normal;font-weight:normal;font-stretch:normal;font-size:4.93889px;font-family:'MS 33558';-inkscape-font-specification:'MS 33558, ';fill:#000000;stroke-width:0.264583">COCKPIT</tspan></text>
    <text
       xml:space="preserve"
       style="font-style:normal;font-weight:normal;font-size:2.82222px;line-height:1.25;font-family:sans-serif;text-align:center;letter-spacing:0px;word-spacing:0px;text-anchor:middle;display:inline;fill:#000000;fill-opacity:1;stroke:none;stroke-width:0.264583"
       x="49.40316"
       y="81.683136"
       id="text14794-7"
       inkscape:label="Cooler Rate Text"><tspan
         sodipodi:role="line"
         id="tspan14792-2"
         x="49.40316"
         y="81.683136"
         style="font-style:normal;font-variant:normal;font-weight:normal;font-stretch:normal;font-size:2.82222px;font-family:'MS 33558';-inkscape-font-specification:'MS 33558, ';text-align:center;text-anchor:middle;fill:#000000;stroke-width:0.264583">COOLER</tspan><tspan
         sodipodi:role="line"
         x="49.40316"
         y="85.579666"
         style="font-style:normal;font-variant:normal;font-weight:normal;font-stretch:normal;font-size:2.82222px;font-family:'MS 33558';-inkscape-font-specification:'MS 33558, ';text-align:center;text-anchor:middle;fill:#000000;stroke-width:0.264583"
         id="tspan1039">RATE</tspan></text>
    <rect
       style="display:inline;opacity:0.976;vector-effect:none;fill:none;fill-opacity:1;stroke:#000000;stroke-width:0.796116;stroke-linecap:butt;stroke-linejoin:miter;stroke-miterlimit:10;stroke-dasharray:none;stroke-dashoffset:0;stroke-opacity:1"
       id="rect1323"
       width="52.229267"
       height="40.758385"
       x="3.943119"
       y="10.992188"
       rx="1.6258911"
       ry="1.5982803" />
    <text
       id="text14353-2"
       y="15.293672"
       x="15.802272"
       style="font-style:normal;font-weight:normal;font-size:2.82222px;line-height:1.25;font-family:sans-serif;letter-spacing:0px;word-spacing:0px;display:inline;fill:#000000;fill-opacity:1;stroke:none;stroke-width:0.264583"
       xml:space="preserve"
       inkscape:label="Selft Destruct Text"><tspan
         style="font-style:normal;font-variant:normal;font-weight:normal;font-stretch:normal;font-size:2.82222px;font-family:'MS 33558';-inkscape-font-specification:'MS 33558, ';fill:#000000;stroke-width:0.264583"
         y="15.293672"
         x="15.802272"
         id="tspan14351-6"
         sodipodi:role="line">SELF DESTRUCT</tspan></text>
    <path
       style="display:inline;fill:#000000;stroke:#ffffff;stroke-width:1;stroke-linecap:butt;stroke-linejoin:miter;stroke-miterlimit:4;stroke-dasharray:none;stroke-opacity:1"
       d="m 23.821839,35.78847 6.586448,0.004"
       id="path2829"
       inkscape:connector-curvature="0"
       sodipodi:nodetypes="cc" />
    <text
       id="text2397"
       y="78.507156"
       x="19.845818"
       style="font-style:normal;font-weight:normal;font-size:2.82222px;line-height:1.25;font-family:sans-serif;text-align:center;letter-spacing:0px;word-spacing:0px;text-anchor:middle;display:inline;fill:#000000;fill-opacity:1;stroke:none;stroke-width:0.264583"
       xml:space="preserve"
       inkscape:label="Doors Text"><tspan
         id="tspan2395"
         style="font-style:normal;font-variant:normal;font-weight:normal;font-stretch:normal;font-size:2.82222px;font-family:'MS 33558';-inkscape-font-specification:'MS 33558, ';text-align:center;text-anchor:middle;fill:#000000;stroke-width:0.264583"
         y="78.507156"
         x="19.845818"
         sodipodi:role="line">DOORS</tspan></text>
    <text
       id="text2916"
       y="82.625694"
       x="29.326828"
       style="font-style:normal;font-weight:normal;font-size:2.82222px;line-height:1.25;font-family:sans-serif;text-align:center;letter-spacing:0px;word-spacing:0px;text-anchor:middle;display:inline;fill:#000000;fill-opacity:1;stroke:none;stroke-width:0.264583"
       xml:space="preserve"
       inkscape:label="Lock Doors Text"><tspan
         id="tspan2914"
         style="font-style:normal;font-variant:normal;font-weight:normal;font-stretch:normal;font-size:2.82222px;font-family:'MS 33558';-inkscape-font-specification:'MS 33558, ';text-align:center;text-anchor:middle;fill:#000000;stroke-width:0.264583"
         y="82.625694"
         x="29.326828"
         sodipodi:role="line">LOCK</tspan></text>
    <text
       xml:space="preserve"
       style="font-style:normal;font-weight:normal;font-size:2.82222px;line-height:1.25;font-family:sans-serif;text-align:center;letter-spacing:0px;word-spacing:0px;text-anchor:middle;display:inline;fill:#000000;fill-opacity:1;stroke:none;stroke-width:0.264583"
       x="29.326828"
       y="109.23024"
       id="text2920"
       inkscape:label="Unlock Doors Text"><tspan
         sodipodi:role="line"
         x="29.326828"
         y="109.23024"
         style="font-style:normal;font-variant:normal;font-weight:normal;font-stretch:normal;font-size:2.82222px;font-family:'MS 33558';-inkscape-font-specification:'MS 33558, ';text-align:center;text-anchor:middle;fill:#000000;stroke-width:0.264583"
         id="tspan2918">UNLOCK</tspan></text>
    <text
       xml:space="preserve"
       style="font-style:normal;font-weight:normal;font-size:2.82222px;line-height:1.25;font-family:sans-serif;text-align:center;letter-spacing:0px;word-spacing:0px;text-anchor:middle;display:inline;fill:#000000;fill-opacity:1;stroke:none;stroke-width:0.264583"
       x="10.372865"
       y="109.23639"
       id="text2908"
       inkscape:label="Open Doors Text"><tspan
         sodipodi:role="line"
         x="10.372865"
         y="109.23639"
         style="font-style:normal;font-variant:normal;font-weight:normal;font-stretch:normal;font-size:2.82222px;font-family:'MS 33558';-inkscape-font-specification:'MS 33558, ';text-align:center;text-anchor:middle;fill:#000000;stroke-width:0.264583"
         id="tspan2906">OPEN</tspan></text>
    <text
       id="text2912"
       y="82.631676"
       x="10.365937"
       style="font-style:normal;font-weight:normal;font-size:2.82222px;line-height:1.25;font-family:sans-serif;text-align:center;letter-spacing:0px;word-spacing:0px;text-anchor:middle;display:inline;fill:#000000;fill-opacity:1;stroke:none;stroke-width:0.264583"
       xml:space="preserve"
       inkscape:label="Close Doors Text"><tspan
         id="tspan2910"
         style="font-style:normal;font-variant:normal;font-weight:normal;font-stretch:normal;font-size:2.82222px;font-family:'MS 33558';-inkscape-font-specification:'MS 33558, ';text-align:center;text-anchor:middle;fill:#000000;stroke-width:0.264583"
         y="82.631676"
         x="10.365937"
         sodipodi:role="line">CLOSE</tspan></text>
  </g>
</svg>
