<?xml version="1.0" encoding="UTF-8" standalone="no"?>
<!-- Created with Inkscape (http://www.inkscape.org/) -->

<svg
   width="50.000004mm"
   height="119.99986mm"
   viewBox="0 0 50.000004 119.99986"
   version="1.1"
   id="svg33068"
   inkscape:version="1.2.2 (b0a8486, 2022-12-01)"
   sodipodi:docname="3mm-Black-Back_Layer.svg"
   xmlns:inkscape="http://www.inkscape.org/namespaces/inkscape"
   xmlns:sodipodi="http://sodipodi.sourceforge.net/DTD/sodipodi-0.dtd"
   xmlns="http://www.w3.org/2000/svg"
   xmlns:svg="http://www.w3.org/2000/svg">
  <sodipodi:namedview
     id="namedview33070"
     pagecolor="#ffffff"
     bordercolor="#666666"
     borderopacity="1.0"
     inkscape:showpageshadow="2"
     inkscape:pageopacity="0.0"
     inkscape:pagecheckerboard="0"
     inkscape:deskcolor="#d1d1d1"
     inkscape:document-units="mm"
     showgrid="false"
     inkscape:zoom="2.5730759"
     inkscape:cx="94.439501"
     inkscape:cy="226.77139"
     inkscape:current-layer="layer1" />
  <defs
     id="defs33065" />
  <g
     inkscape:label="Capa 1"
     inkscape:groupmode="layer"
     id="layer1"
     transform="translate(-76.506327,-88.500065)">
    <path
       id="rect11527"
       style="display:inline;fill:none;fill-opacity:1;stroke:#000000;stroke-width:0.0536992;stroke-linecap:round;stroke-miterlimit:4;stroke-dasharray:none"
       d="M 76.533177,88.526915 V 208.47308 H 126.47948 V 88.526915 Z m 4.76095,3.411159 a 1.6,1.6 0 0 1 1.599902,1.599907 1.6,1.6 0 0 1 -1.599902,1.599896 1.6,1.6 0 0 1 -1.599903,-1.599896 1.6,1.6 0 0 1 1.599903,-1.599907 z m 40.500373,0 a 1.6,1.6 0 0 1 1.5999,1.599907 1.6,1.6 0 0 1 -1.5999,1.599896 1.6,1.6 0 0 1 -1.5999,-1.599896 1.6,1.6 0 0 1 1.5999,-1.599907 z m -40.563419,9.133816 a 1.6,1.6 0 0 1 1.599903,1.59989 1.6,1.6 0 0 1 -1.599903,1.59991 1.6,1.6 0 0 1 -1.599902,-1.59991 1.6,1.6 0 0 1 1.599902,-1.59989 z m 40.500369,0 a 1.6,1.6 0 0 1 1.5999,1.59989 1.6,1.6 0 0 1 -1.5999,1.59991 1.6,1.6 0 0 1 -1.60042,-1.59991 1.6,1.6 0 0 1 1.60042,-1.59989 z m -36.475291,9.9198 h 14.000179 v 13.99966 H 85.256159 Z m 18.500161,0 h 14.00018 v 13.99966 h -14.00018 z m -18.500161,18.49965 h 14.000179 v 14.00018 H 85.256159 Z m 18.500161,0 h 14.00018 v 14.00018 h -14.00018 z m -2.24999,38.32686 a 6,6.0000004 0 0 1 6.00015,6.00015 6,6.0000004 0 0 1 -5.00021,5.91643 v -0.91622 h -1.99988 v 0.91622 a 6,6.0000004 0 0 1 -5.000211,-5.91643 6,6.0000004 0 0 1 6.000151,-6.00015 z m -20.275249,24.98607 a 1.6,1.6 0 0 1 1.599903,1.59991 1.6,1.6 0 0 1 -1.599903,1.59989 1.6,1.6 0 0 1 -1.599902,-1.59989 1.6,1.6 0 0 1 1.599902,-1.59991 z m 40.500369,0 a 1.6,1.6 0 0 1 1.5999,1.59991 1.6,1.6 0 0 1 -1.5999,1.59989 1.6,1.6 0 0 1 -1.60042,-1.59989 1.6,1.6 0 0 1 1.60042,-1.59991 z m -40.437323,9.13381 a 1.6,1.6 0 0 1 1.599902,1.5999 1.6,1.6 0 0 1 -1.599902,1.59991 1.6,1.6 0 0 1 -1.599903,-1.59991 1.6,1.6 0 0 1 1.599903,-1.5999 z m 40.500373,0 a 1.6,1.6 0 0 1 1.5999,1.5999 1.6,1.6 0 0 1 -1.5999,1.59991 1.6,1.6 0 0 1 -1.5999,-1.59991 1.6,1.6 0 0 1 1.5999,-1.5999 z" />
  </g>
</svg>
