<?xml version="1.0" encoding="UTF-8" standalone="no"?>
<!-- Created with Inkscape (http://www.inkscape.org/) -->

<svg
   width="150.00014mm"
   height="97.999695mm"
   viewBox="0 0 150.00014 97.999695"
   version="1.1"
   id="svg20061"
   inkscape:version="1.2.2 (b0a8486, 2022-12-01)"
   sodipodi:docname="3mm-Black-Microcontroller_Layer.svg"
   xmlns:inkscape="http://www.inkscape.org/namespaces/inkscape"
   xmlns:sodipodi="http://sodipodi.sourceforge.net/DTD/sodipodi-0.dtd"
   xmlns="http://www.w3.org/2000/svg"
   xmlns:svg="http://www.w3.org/2000/svg">
  <sodipodi:namedview
     id="namedview20063"
     pagecolor="#ffffff"
     bordercolor="#666666"
     borderopacity="1.0"
     inkscape:showpageshadow="2"
     inkscape:pageopacity="0.0"
     inkscape:pagecheckerboard="0"
     inkscape:deskcolor="#d1d1d1"
     inkscape:document-units="mm"
     showgrid="false"
     inkscape:zoom="3.1507113"
     inkscape:cx="283.42806"
     inkscape:cy="185.19627"
     inkscape:current-layer="layer1" />
  <defs
     id="defs20058" />
  <g
     inkscape:label="Capa 1"
     inkscape:groupmode="layer"
     id="layer1"
     transform="translate(-2.6276021e-4,-11.000108)">
    <path
       id="rect11527-5"
       style="display:inline;fill:none;fill-opacity:1;stroke:#000000;stroke-width:0.0831903;stroke-linecap:round;stroke-miterlimit:4;stroke-dasharray:none"
       d="M 0.04185791,11.041703 V 108.95821 H 149.95881 V 11.041703 Z M 5.120101,13.064836 A 1.6,1.6 0 0 1 6.72052,14.664738 1.6,1.6 0 0 1 5.120101,16.26464 1.6,1.6 0 0 1 3.5201986,14.664738 1.6,1.6 0 0 1 5.120101,13.064836 Z m 139.759949,0 a 1.6,1.6 0 0 1 1.5999,1.599902 1.6,1.6 0 0 1 -1.5999,1.599902 1.6,1.6 0 0 1 -1.5999,-1.599902 1.6,1.6 0 0 1 1.5999,-1.599902 z m -69.879977,0.925008 a 1.6,1.6 0 0 1 1.60042,1.600419 1.6,1.6 0 0 1 -1.60042,1.599902 1.6,1.6 0 0 1 -1.599902,-1.599902 1.6,1.6 0 0 1 1.599902,-1.600419 z M 116.40685,82.86936 h 17.99994 v 9.999907 h -17.99994 z m -41.406777,19.94039 a 1.6,1.6 0 0 1 1.60042,1.60041 1.6,1.6 0 0 1 -1.60042,1.59991 1.6,1.6 0 0 1 -1.599902,-1.59991 1.6,1.6 0 0 1 1.599902,-1.60041 z m -69.8799721,0.92914 a 1.6,1.6 0 0 1 1.6004191,1.5999 1.6,1.6 0 0 1 -1.6004191,1.5999 1.6,1.6 0 0 1 -1.5999024,-1.5999 1.6,1.6 0 0 1 1.5999024,-1.5999 z m 139.7599491,0 a 1.6,1.6 0 0 1 1.5999,1.5999 1.6,1.6 0 0 1 -1.5999,1.5999 1.6,1.6 0 0 1 -1.5999,-1.5999 1.6,1.6 0 0 1 1.5999,-1.5999 z" />
  </g>
</svg>
