<?xml version="1.0" encoding="UTF-8" standalone="no"?>
<!-- Created with Inkscape (http://www.inkscape.org/) -->

<svg
   width="149.99966mm"
   height="119.99995mm"
   viewBox="0 0 149.99966 119.99995"
   version="1.1"
   id="svg22858"
   inkscape:version="1.2.2 (b0a8486, 2022-12-01)"
   sodipodi:docname="3mm-Black-Back_Layer.svg"
   xmlns:inkscape="http://www.inkscape.org/namespaces/inkscape"
   xmlns:sodipodi="http://sodipodi.sourceforge.net/DTD/sodipodi-0.dtd"
   xmlns="http://www.w3.org/2000/svg"
   xmlns:svg="http://www.w3.org/2000/svg">
  <sodipodi:namedview
     id="namedview22860"
     pagecolor="#ffffff"
     bordercolor="#666666"
     borderopacity="1.0"
     inkscape:showpageshadow="2"
     inkscape:pageopacity="0.0"
     inkscape:pagecheckerboard="0"
     inkscape:deskcolor="#d1d1d1"
     inkscape:document-units="mm"
     showgrid="false"
     inkscape:zoom="2.5730741"
     inkscape:cx="283.3187"
     inkscape:cy="226.77155"
     inkscape:current-layer="layer1" />
  <defs
     id="defs22855" />
  <g
     inkscape:label="Capa 1"
     inkscape:groupmode="layer"
     id="layer1"
     transform="translate(-2.4056122e-4,-2.4000122e-4)">
    <path
       id="rect11527"
       style="display:inline;fill:none;fill-opacity:1;stroke:#000000;stroke-width:0.076;stroke-linecap:round;stroke-miterlimit:4;stroke-dasharray:none"
       d="M 0.03824056,0.03824 V 119.96219 H 149.96191 V 0.03824 Z M 4.7671509,3.14451 a 1.6000752,1.6000973 0 0 1 1.1342977,0.47232 1.6000752,1.6000973 0 0 1 0.1607137,0.18811 1.6,1.6 0 0 1 0.00258,0.003 1.6000752,1.6000973 0 0 1 0.00207,0.004 1.6000752,1.6000973 0 0 1 0.120406,0.19586 1.6,1.6 0 0 1 0.014986,0.0289 1.6000752,1.6000973 0 0 1 0.078031,0.18862 1.6,1.6 0 0 1 0.01912,0.0584 1.6000752,1.6000973 0 0 1 0.041858,0.17467 1.6,1.6 0 0 1 5.168e-4,0.003 1.6,1.6 0 0 1 0.011886,0.078 1.6000752,1.6000973 0 0 1 5.167e-4,0.003 1.6000752,1.6000973 0 0 1 0.012402,0.15865 1.6000752,1.6000973 0 0 1 0,5.1e-4 1.6000752,1.6000973 0 0 1 0,5.2e-4 1.6000752,1.6000973 0 0 1 0,5.2e-4 1.6000752,1.6000973 0 0 1 0,5.1e-4 1.6000752,1.6000973 0 0 1 0,5.2e-4 1.6,1.6 0 0 1 0.00362,0.045 1.6,1.6 0 0 1 -0.00413,0.0202 A 1.6000752,1.6000973 0 0 1 6.2538869,5.33571 1.6,1.6 0 0 1 6.2311489,5.38741 1.6000752,1.6000973 0 0 1 5.9179897,5.85508 1.6,1.6 0 0 1 5.8766487,5.89638 1.6000752,1.6000973 0 0 1 5.4079435,6.20954 1.6,1.6 0 0 1 5.3583345,6.23124 1.6000752,1.6000973 0 0 1 4.7935111,6.3439 1.6,1.6 0 0 1 4.7702571,6.3489 1.6,1.6 0 0 1 4.7485531,6.3449 1.6000752,1.6000973 0 0 1 4.1708106,6.22966 1.6,1.6 0 0 1 4.1454896,6.21876 1.6000752,1.6000973 0 0 1 3.6437115,5.88338 1.6,1.6 0 0 1 3.6359615,5.87538 1.6000752,1.6000973 0 0 1 3.1667395,4.74522 1.6000752,1.6000973 0 0 1 4.7671586,3.1448 Z m 140.4865191,0 a 1.6000752,1.6000973 0 0 1 1.5999,1.60042 1.6000752,1.6000973 0 0 1 -0.46767,1.12861 1.6,1.6 0 0 1 -0.0103,0.0103 1.6000752,1.6000973 0 0 1 -0.49919,0.33331 1.6,1.6 0 0 1 -0.0264,0.0119 1.6000752,1.6000973 0 0 1 -0.57774,0.11524 1.6,1.6 0 0 1 -0.0217,0.004 1.6,1.6 0 0 1 -0.0233,-0.005 1.6000752,1.6000973 0 0 1 -0.56482,-0.11266 1.6,1.6 0 0 1 -0.0496,-0.0217 1.6000752,1.6000973 0 0 1 -0.46767,-0.31213 1.6,1.6 0 0 1 -0.0439,-0.0439 1.6000752,1.6000973 0 0 1 -0.3116,-0.46612 1.6,1.6 0 0 1 -0.0227,-0.0517 1.6000752,1.6000973 0 0 1 -0.11214,-0.56689 1.6,1.6 0 0 1 -0.004,-0.0202 1.6,1.6 0 0 1 0.004,-0.0186 1.6000752,1.6000973 0 0 1 0.11576,-0.58187 1.6,1.6 0 0 1 0.01,-0.0233 1.6000752,1.6000973 0 0 1 0.33589,-0.50333 1.6,1.6 0 0 1 0.008,-0.008 1.6000752,1.6000973 0 0 1 1.13016,-0.46922 z M 5.1201009,13.06484 a 1.6,1.6 0 0 1 1.6004191,1.5999 1.6,1.6 0 0 1 -1.6004191,1.5999 1.6,1.6 0 0 1 -1.5999023,-1.5999 1.6,1.6 0 0 1 1.5999023,-1.5999 z m 139.7599491,0 a 1.6,1.6 0 0 1 1.5999,1.5999 1.6,1.6 0 0 1 -1.5999,1.5999 1.6,1.6 0 0 1 -1.5999,-1.5999 1.6,1.6 0 0 1 1.5999,-1.5999 z M 14.814599,22.35367 a 1.6,1.6 0 0 1 1.599903,1.60042 1.6,1.6 0 0 1 -1.599903,1.59991 1.6,1.6 0 0 1 -1.599902,-1.59991 1.6,1.6 0 0 1 1.599902,-1.60042 z m 50.435681,0 A 1.6,1.6 0 0 1 66.850183,23.95409 1.6,1.6 0 0 1 65.25028,25.554 1.6,1.6 0 0 1 63.650378,23.95409 1.6,1.6 0 0 1 65.25028,22.35367 Z M 30.077234,22.49165 H 44.077413 V 36.49131 H 30.077234 Z m 50.435681,0 H 94.512577 V 36.49131 H 80.512915 Z m 28.672675,0 h 14.00018 v 13.99966 h -14.00018 z m 18.50016,0 h 14.00018 V 36.49131 H 127.68575 Z M 13.314949,26.95391 h 2.999817 v 74.00013 h -2.999817 z m 50.435165,0 h 3.000333 v 74.00013 h -3.000333 z m -33.67288,14.0379 H 44.077413 V 54.99148 H 30.077234 Z m 50.435681,0 H 94.512577 V 54.99148 H 80.512915 Z m 28.672675,0 h 14.00018 v 13.99967 h -14.00018 z m 18.50016,0 h 14.00018 V 54.99148 H 127.68575 Z M 30.077234,59.49146 H 44.077413 V 73.49164 H 30.077234 Z m 50.435681,0 H 94.512577 V 73.49164 H 80.512915 Z m 44.922845,19.8267 a 6,6 0 0 1 6.00015,6.00015 6,6 0 0 1 -5.00021,5.91643 v -0.91622 h -1.99988 v 0.91622 a 6,6 0 0 1 -5.00021,-5.91643 6,6 0 0 1 6.00015,-6.00015 z m -110.621161,23.0358 a 1.6,1.6 0 0 1 1.599903,1.5999 1.6,1.6 0 0 1 -1.599903,1.5999 1.6,1.6 0 0 1 -1.599902,-1.5999 1.6,1.6 0 0 1 1.599902,-1.5999 z m 50.435681,0 a 1.6,1.6 0 0 1 1.599903,1.5999 1.6,1.6 0 0 1 -1.599903,1.5999 1.6,1.6 0 0 1 -1.599902,-1.5999 1.6,1.6 0 0 1 1.599902,-1.5999 z m -60.1301791,1.38493 a 1.6,1.6 0 0 1 1.6004191,1.5999 1.6,1.6 0 0 1 -1.6004191,1.5999 1.6,1.6 0 0 1 -1.5999023,-1.5999 1.6,1.6 0 0 1 1.5999023,-1.5999 z m 139.7599491,0 a 1.6,1.6 0 0 1 1.5999,1.5999 1.6,1.6 0 0 1 -1.5999,1.5999 1.6,1.6 0 0 1 -1.5999,-1.5999 1.6,1.6 0 0 1 1.5999,-1.5999 z M 4.7702515,113.65146 a 1.6,1.6 0 0 1 0.081649,0.006 1.6000752,1.6000973 0 0 1 0.074414,0.006 1.6,1.6 0 0 1 0.1808675,0.0279 1.6000752,1.6000973 0 0 1 0.048576,0.0119 1.6,1.6 0 0 1 0.190686,0.06 1.6000752,1.6000973 0 0 1 0.00517,0.002 1.6,1.6 0 0 1 0.012402,0.006 1.6,1.6 0 0 1 0.2030884,0.0982 1.6,1.6 0 0 1 0.5854939,0.58549 1.6,1.6 0 0 1 0.098185,0.20309 1.6000752,1.6000973 0 0 1 0.00568,0.0124 1.6,1.6 0 0 1 0.00155,0.005 1.6,1.6 0 0 1 0.059945,0.19069 1.6000752,1.6000973 0 0 1 0.011886,0.0501 1.6,1.6 0 0 1 0.027388,0.17364 1.6000752,1.6000973 0 0 1 0.00672,0.0801 1.6,1.6 0 0 1 0.0062,0.0817 1.6,1.6 0 0 1 -0.00362,0.0186 1.6000752,1.6000973 0 0 1 -0.1152385,0.58084 1.6,1.6 0 0 1 -0.011886,0.0263 1.6000752,1.6000973 0 0 1 -0.3358968,0.5023 1.6,1.6 0 0 1 -0.00517,0.005 1.6000752,1.6000973 0 0 1 -1.1311971,0.46974 1.6000752,1.6000973 0 0 1 -1.6004191,-1.59991 1.6000752,1.6000973 0 0 1 0.4707723,-1.13223 1.6,1.6 0 0 1 0.00362,-0.004 1.6000752,1.6000973 0 0 1 0.5064291,-0.33848 1.6,1.6 0 0 1 0.02067,-0.009 1.6000752,1.6000973 0 0 1 0.583427,-0.11627 1.6,1.6 0 0 1 0.018604,-0.004 z m 140.4803185,0 a 1.6,1.6 0 0 1 0.0754,0.006 1.6000752,1.6000973 0 0 1 0.10076,0.008 1.6,1.6 0 0 1 0.13746,0.0207 1.6000752,1.6000973 0 0 1 0.12403,0.03 1.6,1.6 0 0 1 0.10542,0.0336 1.6000752,1.6000973 0 0 1 0.15761,0.0656 1.6,1.6 0 0 1 0.0589,0.031 1.6000752,1.6000973 0 0 1 0.16123,0.0987 1.6,1.6 0 0 1 0.0419,0.031 1.6000752,1.6000973 0 0 1 0.15761,0.13487 1.6,1.6 0 0 1 0.0202,0.0202 1.6000752,1.6000973 0 0 1 0.14676,0.17156 1.6,1.6 0 0 1 0.0119,0.0155 1.6000752,1.6000973 0 0 1 0.12609,0.2067 1.6000752,1.6000973 0 0 1 0.17777,0.72967 1.6000752,1.6000973 0 0 1 -1.5999,1.59991 1.6000752,1.6000973 0 0 1 -0.61547,-0.12454 1.6000752,1.6000973 0 0 1 -0.51314,-0.34314 1.6,1.6 0 0 1 -0.0103,-0.0103 1.6000752,1.6000973 0 0 1 -0.33331,-0.4992 1.6,1.6 0 0 1 -0.0119,-0.0263 1.6000752,1.6000973 0 0 1 -0.11524,-0.58084 1.6,1.6 0 0 1 -0.004,-0.0186 1.6,1.6 0 0 1 0.004,-0.0202 1.6000752,1.6000973 0 0 1 0.11265,-0.56792 1.6,1.6 0 0 1 0.0217,-0.0496 1.6000752,1.6000973 0 0 1 0.31316,-0.46871 1.6,1.6 0 0 1 0.0413,-0.0413 1.6000752,1.6000973 0 0 1 0.47129,-0.31471 1.6,1.6 0 0 1 0.0455,-0.0202 1.6000752,1.6000973 0 0 1 0.56999,-0.11318 1.6,1.6 0 0 1 0.0202,-0.004 z" />
  </g>
</svg>
