<?xml version="1.0" encoding="UTF-8" standalone="no"?>
<!-- Created with Inkscape (http://www.inkscape.org/) -->

<svg
   width="59.999989mm"
   height="119.99994mm"
   viewBox="0 0 59.999989 119.99994"
   version="1.1"
   id="svg1"
   inkscape:version="1.3 (0e150ed, 2023-07-21)"
   sodipodi:docname="engrave_NoVectorizedText.svg"
   xmlns:inkscape="http://www.inkscape.org/namespaces/inkscape"
   xmlns:sodipodi="http://sodipodi.sourceforge.net/DTD/sodipodi-0.dtd"
   xmlns="http://www.w3.org/2000/svg"
   xmlns:svg="http://www.w3.org/2000/svg">
  <sodipodi:namedview
     id="namedview1"
     pagecolor="#ffffff"
     bordercolor="#666666"
     borderopacity="1.0"
     inkscape:showpageshadow="2"
     inkscape:pageopacity="0.0"
     inkscape:pagecheckerboard="0"
     inkscape:deskcolor="#d1d1d1"
     inkscape:document-units="mm"
     inkscape:zoom="2.5796888"
     inkscape:cx="113.57959"
     inkscape:cy="226.77154"
     inkscape:current-layer="layer1" />
  <defs
     id="defs1" />
  <g
     inkscape:label="Capa 1"
     inkscape:groupmode="layer"
     id="layer1"
     transform="translate(-2.4056122e-4,-2.4000122e-4)">
    <path
       id="rect3678"
       style="display:inline;fill:none;fill-opacity:1;stroke:#000000;stroke-width:0.076;stroke-linecap:round;stroke-miterlimit:4;stroke-dasharray:none"
       d="m 10.031429,0.03824 v 4.99659 c -1.66e-4,2.75964 -2.2375747,4.99671 -4.997111,4.99659 H 0.03824056 v 99.93706 H 5.034318 c 2.7595363,-1.2e-4 4.996945,2.23695 4.997111,4.99659 v 4.99711 h 39.937097 v -4.99711 c 1.66e-4,-2.75964 2.237577,-4.99671 4.997111,-4.99659 h 4.996594 V 10.03142 H 54.965637 C 52.206103,10.03154 49.968692,7.79447 49.968526,5.03483 V 0.03824 Z m -6.1649984,12.8111 a 1.6,1.6 0 0 1 1.5999024,1.5999 1.6,1.6 0 0 1 -1.5999024,1.59991 1.6,1.6 0 0 1 -1.5999023,-1.59991 1.6,1.6 0 0 1 1.5999023,-1.5999 z m 52.3828494,0 a 1.6,1.6 0 0 1 1.599902,1.5999 1.6,1.6 0 0 1 -1.599902,1.59991 1.6,1.6 0 0 1 -1.599903,-1.59991 1.6,1.6 0 0 1 1.599903,-1.5999 z m -41.687895,4.35839 a 7.7499995,7.7499995 0 0 1 7.749914,7.74992 7.7499995,7.7499995 0 0 1 -7.749914,7.75043 7.7499995,7.7499995 0 0 1 -7.7499145,-7.75043 7.7499995,7.7499995 0 0 1 7.7499145,-7.74992 z m 31.120064,0 a 7.7499995,7.7499995 0 0 1 7.749915,7.74992 7.7499995,7.7499995 0 0 1 -7.749915,7.75043 7.7499995,7.7499995 0 0 1 -7.749914,-7.75043 7.7499995,7.7499995 0 0 1 7.749914,-7.74992 z M 14.561385,42.07081 a 7.7499995,7.7499995 0 0 1 7.749914,7.74992 7.7499995,7.7499995 0 0 1 -7.749914,7.74991 7.7499995,7.7499995 0 0 1 -7.7499145,-7.74991 7.7499995,7.7499995 0 0 1 7.7499145,-7.74992 z m 31.120064,0 a 7.7499995,7.7499995 0 0 1 7.749915,7.74992 7.7499995,7.7499995 0 0 1 -7.749915,7.74991 7.7499995,7.7499995 0 0 1 -7.749914,-7.74991 7.7499995,7.7499995 0 0 1 7.749914,-7.74992 z M 14.561385,66.93389 a 7.7499995,7.7499995 0 0 1 7.749914,7.74992 7.7499995,7.7499995 0 0 1 -7.749914,7.74991 7.7499995,7.7499995 0 0 1 -7.7499145,-7.74991 7.7499995,7.7499995 0 0 1 7.7499145,-7.74992 z m 31.120064,0 a 7.7499995,7.7499995 0 0 1 7.749915,7.74992 7.7499995,7.7499995 0 0 1 -7.749915,7.74991 7.7499995,7.7499995 0 0 1 -7.749914,-7.74991 7.7499995,7.7499995 0 0 1 7.749914,-7.74992 z M 14.561385,91.79646 a 7.7499995,7.7499995 0 0 1 7.749914,7.74991 7.7499995,7.7499995 0 0 1 -7.749914,7.74992 7.7499995,7.7499995 0 0 1 -7.7499145,-7.74992 7.7499995,7.7499995 0 0 1 7.7499145,-7.74991 z m 31.120064,0 a 7.7499995,7.7499995 0 0 1 7.749915,7.74991 7.7499995,7.7499995 0 0 1 -7.749915,7.74992 7.7499995,7.7499995 0 0 1 -7.749914,-7.74992 7.7499995,7.7499995 0 0 1 7.749914,-7.74991 z M 3.8664306,104.02672 a 1.6,1.6 0 0 1 1.5999024,1.5999 1.6,1.6 0 0 1 -1.5999024,1.59991 1.6,1.6 0 0 1 -1.5999023,-1.59991 1.6,1.6 0 0 1 1.5999023,-1.5999 z m 52.3828494,0 a 1.6,1.6 0 0 1 1.599902,1.5999 1.6,1.6 0 0 1 -1.599902,1.59991 1.6,1.6 0 0 1 -1.599903,-1.59991 1.6,1.6 0 0 1 1.599903,-1.5999 z" />
    <text
       xml:space="preserve"
       style="font-style:normal;font-weight:normal;font-size:4.93889px;line-height:1.25;font-family:sans-serif;text-align:center;letter-spacing:0px;word-spacing:0px;text-anchor:middle;display:inline;fill:#000000;fill-opacity:1;stroke:none;stroke-width:0.264583"
       x="30.392996"
       y="5.916841"
       id="text12344-1"
       inkscape:label="Title Text"><tspan
         sodipodi:role="line"
         id="tspan12342-2"
         x="30.392996"
         y="5.916841"
         style="font-style:normal;font-variant:normal;font-weight:normal;font-stretch:normal;font-size:4.93889px;font-family:'MS 33558';-inkscape-font-specification:'MS 33558, ';text-align:center;text-anchor:middle;fill:#000000;stroke-width:0.264583">TARGET</tspan><tspan
         sodipodi:role="line"
         x="30.392996"
         y="12.735782"
         style="font-style:normal;font-variant:normal;font-weight:normal;font-stretch:normal;font-size:4.93889px;font-family:'MS 33558';-inkscape-font-specification:'MS 33558, ';text-align:center;text-anchor:middle;fill:#000000;stroke-width:0.264583"
         id="tspan32652">CYCLING</tspan></text>
    <text
       id="text14353"
       y="16.985994"
       x="7.6824689"
       style="font-style:normal;font-weight:normal;font-size:2.82222px;line-height:1.25;font-family:sans-serif;letter-spacing:0px;word-spacing:0px;display:inline;fill:#000000;fill-opacity:1;stroke:none;stroke-width:0.264583"
       xml:space="preserve"
       inkscape:label="Selection Text"><tspan
         style="font-style:normal;font-variant:normal;font-weight:normal;font-stretch:normal;font-size:2.82222px;font-family:'MS 33558';-inkscape-font-specification:'MS 33558, ';fill:#000000;stroke-width:0.264583"
         y="16.985994"
         x="7.6824689"
         id="tspan14351"
         sodipodi:role="line">Selection</tspan></text>
    <text
       id="text8031"
       y="16.984285"
       x="42.427189"
       style="font-style:normal;font-weight:normal;font-size:2.82222px;line-height:1.25;font-family:sans-serif;letter-spacing:0px;word-spacing:0px;display:inline;fill:#000000;fill-opacity:1;stroke:none;stroke-width:0.264583"
       xml:space="preserve"
       inkscape:label="All Text"><tspan
         style="font-style:normal;font-variant:normal;font-weight:normal;font-stretch:normal;font-size:2.82222px;font-family:'MS 33558';-inkscape-font-specification:'MS 33558, ';fill:#000000;stroke-width:0.264583"
         y="16.984285"
         x="42.427189"
         id="tspan8029"
         sodipodi:role="line">All</tspan></text>
    <text
       id="text8035"
       y="41.849091"
       x="7.7546659"
       style="font-style:normal;font-weight:normal;font-size:2.82222px;line-height:1.25;font-family:sans-serif;letter-spacing:0px;word-spacing:0px;display:inline;fill:#000000;fill-opacity:1;stroke:none;stroke-width:0.264583"
       xml:space="preserve"
       inkscape:label="In View Text"><tspan
         style="font-style:normal;font-variant:normal;font-weight:normal;font-stretch:normal;font-size:2.82222px;font-family:'MS 33558';-inkscape-font-specification:'MS 33558, ';fill:#000000;stroke-width:0.264583"
         y="41.849091"
         x="7.7546659"
         id="tspan8033"
         sodipodi:role="line">In View</tspan></text>
    <text
       id="text8039"
       y="41.849091"
       x="39.902073"
       style="font-style:normal;font-weight:normal;font-size:2.82222px;line-height:1.25;font-family:sans-serif;letter-spacing:0px;word-spacing:0px;display:inline;fill:#000000;fill-opacity:1;stroke:none;stroke-width:0.264583"
       xml:space="preserve"
       inkscape:label="Pinned Text"><tspan
         style="font-style:normal;font-variant:normal;font-weight:normal;font-stretch:normal;font-size:2.82222px;font-family:'MS 33558';-inkscape-font-specification:'MS 33558, ';fill:#000000;stroke-width:0.264583"
         y="41.849091"
         x="39.902073"
         id="tspan8037"
         sodipodi:role="line">Pinned</tspan></text>
    <text
       id="text10221"
       y="66.712524"
       x="37.711975"
       style="font-style:normal;font-weight:normal;font-size:2.82222px;line-height:1.25;font-family:sans-serif;letter-spacing:0px;word-spacing:0px;display:inline;fill:#000000;fill-opacity:1;stroke:none;stroke-width:0.264583"
       xml:space="preserve"
       inkscape:label="Hostiles Text"><tspan
         style="font-style:normal;font-variant:normal;font-weight:normal;font-stretch:normal;font-size:2.82222px;font-family:'MS 33558';-inkscape-font-specification:'MS 33558, ';fill:#000000;stroke-width:0.264583"
         y="66.712524"
         x="37.711975"
         id="tspan10219"
         sodipodi:role="line">Hostiles</tspan></text>
    <text
       id="text10225"
       y="66.705811"
       x="4.6947427"
       style="font-style:normal;font-weight:normal;font-size:2.82222px;line-height:1.25;font-family:sans-serif;letter-spacing:0px;word-spacing:0px;display:inline;fill:#000000;fill-opacity:1;stroke:none;stroke-width:0.264583"
       xml:space="preserve"
       inkscape:label="Attackers Text"><tspan
         style="font-style:normal;font-variant:normal;font-weight:normal;font-stretch:normal;font-size:2.82222px;font-family:'MS 33558';-inkscape-font-specification:'MS 33558, ';fill:#000000;stroke-width:0.264583"
         y="66.705811"
         x="4.6947427"
         id="tspan10223"
         sodipodi:role="line">Attackers</tspan></text>
    <text
       id="text12603"
       y="91.572998"
       x="35.475441"
       style="font-style:normal;font-weight:normal;font-size:2.82222px;line-height:1.25;font-family:sans-serif;letter-spacing:0px;word-spacing:0px;display:inline;fill:#000000;fill-opacity:1;stroke:none;stroke-width:0.264583"
       xml:space="preserve"
       inkscape:label="Sub-Target Text"><tspan
         style="font-style:normal;font-variant:normal;font-weight:normal;font-stretch:normal;font-size:2.82222px;font-family:'MS 33558';-inkscape-font-specification:'MS 33558, ';fill:#000000;stroke-width:0.264583"
         y="91.572998"
         x="35.475441"
         id="tspan12601"
         sodipodi:role="line">Sub-Target</tspan></text>
    <text
       id="text14059"
       y="91.57489"
       x="5.2164454"
       style="font-style:normal;font-weight:normal;font-size:2.82222px;line-height:1.25;font-family:sans-serif;letter-spacing:0px;word-spacing:0px;display:inline;fill:#000000;fill-opacity:1;stroke:none;stroke-width:0.264583"
       xml:space="preserve"
       inkscape:label="Friendlies Text"><tspan
         style="font-style:normal;font-variant:normal;font-weight:normal;font-stretch:normal;font-size:2.82222px;font-family:'MS 33558';-inkscape-font-specification:'MS 33558, ';fill:#000000;stroke-width:0.264583"
         y="91.57489"
         x="5.2164454"
         id="tspan14057"
         sodipodi:role="line">Friendlies</tspan></text>
    <text
       id="text36812"
       y="35.57235"
       x="3.4169593"
       style="font-style:normal;font-weight:normal;font-size:2.11667px;line-height:1.25;font-family:sans-serif;letter-spacing:0px;word-spacing:0px;display:inline;fill:#000000;fill-opacity:1;stroke:none;stroke-width:0.264583"
       xml:space="preserve"
       inkscape:label="Selection Text"><tspan
         style="font-style:normal;font-variant:normal;font-weight:normal;font-stretch:normal;font-size:2.11667px;font-family:'MS 33558';-inkscape-font-specification:'MS 33558, ';fill:#000000;stroke-width:0.264583"
         y="35.57235"
         x="3.4169593"
         id="tspan36810"
         sodipodi:role="line">Reset to Auto</tspan></text>
    <text
       id="text37542"
       y="35.572243"
       x="32.194504"
       style="font-style:normal;font-weight:normal;font-size:2.11667px;line-height:1.25;font-family:sans-serif;letter-spacing:0px;word-spacing:0px;display:inline;fill:#000000;fill-opacity:1;stroke:none;stroke-width:0.264583"
       xml:space="preserve"
       inkscape:label="Selection Text"><tspan
         style="font-style:normal;font-variant:normal;font-weight:normal;font-stretch:normal;font-size:2.11667px;font-family:'MS 33558';-inkscape-font-specification:'MS 33558, ';fill:#000000;stroke-width:0.264583"
         y="35.572243"
         x="32.194504"
         id="tspan37540"
         sodipodi:role="line">Reset to Closest</tspan></text>
    <text
       id="text38272"
       y="60.435982"
       x="4.3288426"
       style="font-style:normal;font-weight:normal;font-size:2.11667px;line-height:1.25;font-family:sans-serif;letter-spacing:0px;word-spacing:0px;display:inline;fill:#000000;fill-opacity:1;stroke:none;stroke-width:0.264583"
       xml:space="preserve"
       inkscape:label="Selection Text"><tspan
         style="font-style:normal;font-variant:normal;font-weight:normal;font-stretch:normal;font-size:2.11667px;font-family:'MS 33558';-inkscape-font-specification:'MS 33558, ';fill:#000000;stroke-width:0.264583"
         y="60.435982"
         x="4.3288426"
         id="tspan38270"
         sodipodi:role="line">Under Reticle</tspan></text>
    <text
       id="text39002"
       y="60.434425"
       x="34.395405"
       style="font-style:normal;font-weight:normal;font-size:2.11667px;line-height:1.25;font-family:sans-serif;letter-spacing:0px;word-spacing:0px;display:inline;fill:#000000;fill-opacity:1;stroke:none;stroke-width:0.264583"
       xml:space="preserve"
       inkscape:label="Selection Text"><tspan
         style="font-style:normal;font-variant:normal;font-weight:normal;font-stretch:normal;font-size:2.11667px;font-family:'MS 33558';-inkscape-font-specification:'MS 33558, ';fill:#000000;stroke-width:0.264583"
         y="60.434425"
         x="34.395405"
         id="tspan39000"
         sodipodi:role="line">Reset to First</tspan></text>
    <text
       id="text40458"
       y="85.298088"
       x="0.91974396"
       style="font-style:normal;font-weight:normal;font-size:2.11667px;line-height:1.25;font-family:sans-serif;letter-spacing:0px;word-spacing:0px;display:inline;fill:#000000;fill-opacity:1;stroke:none;stroke-width:0.264583"
       xml:space="preserve"
       inkscape:label="Selection Text"><tspan
         style="font-style:normal;font-variant:normal;font-weight:normal;font-stretch:normal;font-size:2.11667px;font-family:'MS 33558';-inkscape-font-specification:'MS 33558, ';fill:#000000;stroke-width:0.264583"
         y="85.298088"
         x="0.91974396"
         id="tspan40456"
         sodipodi:role="line">Reset to Closest </tspan></text>
    <text
       id="text40462"
       y="85.298088"
       x="32.039993"
       style="font-style:normal;font-weight:normal;font-size:2.11667px;line-height:1.25;font-family:sans-serif;letter-spacing:0px;word-spacing:0px;display:inline;fill:#000000;fill-opacity:1;stroke:none;stroke-width:0.264583"
       xml:space="preserve"
       inkscape:label="Selection Text"><tspan
         style="font-style:normal;font-variant:normal;font-weight:normal;font-stretch:normal;font-size:2.11667px;font-family:'MS 33558';-inkscape-font-specification:'MS 33558, ';fill:#000000;stroke-width:0.264583"
         y="85.298088"
         x="32.039993"
         id="tspan40460"
         sodipodi:role="line">Reset to Closest </tspan></text>
    <text
       id="text41192"
       y="109.63184"
       x="10.003645"
       style="font-style:normal;font-weight:normal;font-size:2.11667px;line-height:1.25;font-family:sans-serif;letter-spacing:0px;word-spacing:0px;display:inline;fill:#000000;fill-opacity:1;stroke:none;stroke-width:0.264583"
       xml:space="preserve"
       inkscape:label="Selection Text"><tspan
         style="font-style:normal;font-variant:normal;font-weight:normal;font-stretch:normal;font-size:2.11667px;font-family:'MS 33558';-inkscape-font-specification:'MS 33558, ';fill:#000000;stroke-width:0.264583"
         y="109.63184"
         x="10.003645"
         id="tspan41190"
         sodipodi:role="line">Reset to</tspan><tspan
         style="font-style:normal;font-variant:normal;font-weight:normal;font-stretch:normal;font-size:2.11667px;font-family:'MS 33558';-inkscape-font-specification:'MS 33558, ';fill:#000000;stroke-width:0.264583"
         y="112.55425"
         x="10.003645"
         sodipodi:role="line"
         id="tspan41926">Closest </tspan></text>
    <text
       id="text41922"
       y="109.6311"
       x="41.481297"
       style="font-style:normal;font-weight:normal;font-size:2.11667px;line-height:1.25;font-family:sans-serif;text-align:center;letter-spacing:0px;word-spacing:0px;text-anchor:middle;display:inline;fill:#000000;fill-opacity:1;stroke:none;stroke-width:0.264583"
       xml:space="preserve"
       inkscape:label="Selection Text"><tspan
         style="font-style:normal;font-variant:normal;font-weight:normal;font-stretch:normal;font-size:2.11667px;font-family:'MS 33558';-inkscape-font-specification:'MS 33558, ';text-align:center;text-anchor:middle;fill:#000000;stroke-width:0.264583"
         y="109.6311"
         x="41.481297"
         id="tspan41920"
         sodipodi:role="line">Reset to</tspan><tspan
         style="font-style:normal;font-variant:normal;font-weight:normal;font-stretch:normal;font-size:2.11667px;font-family:'MS 33558';-inkscape-font-specification:'MS 33558, ';text-align:center;text-anchor:middle;fill:#000000;stroke-width:0.264583"
         y="112.55351"
         x="41.481297"
         sodipodi:role="line"
         id="tspan41924">Main Target</tspan></text>
  </g>
</svg>
