<?xml version="1.0" encoding="UTF-8" standalone="no"?>
<!-- Created with Inkscape (http://www.inkscape.org/) -->

<svg
   width="69.999786mm"
   height="119.99983mm"
   viewBox="0 0 69.999786 119.99983"
   version="1.1"
   id="svg1"
   inkscape:version="1.3 (0e150ed, 2023-07-21)"
   sodipodi:docname="2mm-White-Front_Leyer.svg"
   xmlns:inkscape="http://www.inkscape.org/namespaces/inkscape"
   xmlns:sodipodi="http://sodipodi.sourceforge.net/DTD/sodipodi-0.dtd"
   xmlns="http://www.w3.org/2000/svg"
   xmlns:svg="http://www.w3.org/2000/svg">
  <sodipodi:namedview
     id="namedview1"
     pagecolor="#ffffff"
     bordercolor="#666666"
     borderopacity="1.0"
     inkscape:showpageshadow="2"
     inkscape:pageopacity="0.0"
     inkscape:pagecheckerboard="0"
     inkscape:deskcolor="#d1d1d1"
     inkscape:document-units="mm"
     inkscape:zoom="2.5796911"
     inkscape:cx="132.18637"
     inkscape:cy="226.77134"
     inkscape:current-layer="layer1" />
  <defs
     id="defs1" />
  <g
     inkscape:label="Capa 1"
     inkscape:groupmode="layer"
     id="layer1"
     transform="translate(-3.938848e-5,-3.999848e-5)">
    <path
       id="rect10964"
       style="display:inline;fill:none;fill-opacity:1;stroke:#000000;stroke-width:0.064;stroke-miterlimit:10;stroke-dasharray:none"
       inkscape:label="White Acrylic"
       d="m 10.033496,0.03204 v 4.99711 c 1.17e-4,2.7599 -2.2385275,4.99746 -5.0002115,4.99763 H 0.03203939 v 99.94687 H 5.0332845 c 2.761684,1.7e-4 5.0003285,2.2373 5.0002115,4.99711 v 4.99711 h 49.93287 v -4.99711 c -1.16e-4,-2.75981 2.239049,-4.99694 5.000728,-4.99711 h 5.000728 V 10.02678 H 64.967094 C 62.205415,10.02661 59.96625,7.78905 59.966366,5.02915 V 0.03204 Z M 4.7506144,13.06329 c 0.8835775,5e-5 1.5998472,0.71632 1.5999024,1.5999 2.32e-4,0.88378 -0.7161218,1.60037 -1.5999024,1.60042 -0.8839824,2.3e-4 -1.6006512,-0.71644 -1.6004191,-1.60042 5.52e-5,-0.88378 0.7166398,-1.60013 1.6004191,-1.5999 z m 60.5001836,0 c 0.883577,5e-5 1.599847,0.71632 1.599902,1.5999 2.32e-4,0.88378 -0.716122,1.60037 -1.599902,1.60042 -0.883782,-5e-5 -1.600135,-0.71664 -1.599903,-1.60042 5.5e-5,-0.88358 0.716324,-1.59985 1.599903,-1.5999 z M 7.251237,16.3804 H 26.251111 V 35.38027 H 7.251237 Z m 31.068905,0 h 19.00039 V 35.38027 H 38.320142 Z M 7.251237,50.42948 H 26.251111 V 69.42987 H 7.251237 Z m 40.5691,7.00112 a 7.7499995,7.7499995 0 0 1 7.749914,7.74992 7.7499995,7.7499995 0 0 1 -7.749914,7.74991 7.7499995,7.7499995 0 0 1 -7.749915,-7.74991 7.7499995,7.7499995 0 0 1 7.749915,-7.74992 z m 0,25.87336 c 3.323973,0 6.00015,2.67615 6.00015,6.00015 v 9.99991 c 0,3.32391 -2.676177,5.99963 -6.00015,5.99963 -3.323973,0 -6.000151,-2.67572 -6.000151,-5.99963 v -9.99991 c 0,-3.324 2.676178,-6.00015 6.000151,-6.00015 z m -40.5691,0.014 h 18.999874 v 18.99988 H 7.251237 Z m -2.5006226,20.41943 c 0.8835775,5e-5 1.5998472,0.71632 1.5999024,1.5999 2.32e-4,0.88378 -0.7161218,1.60037 -1.5999024,1.60042 -0.8839824,2.3e-4 -1.6006512,-0.71644 -1.6004191,-1.60042 5.52e-5,-0.88378 0.7166398,-1.60013 1.6004191,-1.5999 z m 60.5001836,0 c 0.883577,5e-5 1.599847,0.71632 1.599902,1.5999 2.32e-4,0.88378 -0.716122,1.60037 -1.599902,1.60042 -0.883782,-5e-5 -1.600135,-0.71664 -1.599903,-1.60042 5.5e-5,-0.88358 0.716324,-1.59985 1.599903,-1.5999 z" />
  </g>
</svg>
