<?xml version="1.0" encoding="UTF-8" standalone="no"?>
<!-- Created with Inkscape (http://www.inkscape.org/) -->

<svg
   width="69.999786mm"
   height="119.99982mm"
   viewBox="0 0 69.999786 119.99982"
   version="1.1"
   id="svg1"
   inkscape:version="1.3 (0e150ed, 2023-07-21)"
   sodipodi:docname="2mm-White-Front_Leyer.svg"
   xmlns:inkscape="http://www.inkscape.org/namespaces/inkscape"
   xmlns:sodipodi="http://sodipodi.sourceforge.net/DTD/sodipodi-0.dtd"
   xmlns="http://www.w3.org/2000/svg"
   xmlns:svg="http://www.w3.org/2000/svg">
  <sodipodi:namedview
     id="namedview1"
     pagecolor="#ffffff"
     bordercolor="#666666"
     borderopacity="1.0"
     inkscape:showpageshadow="2"
     inkscape:pageopacity="0.0"
     inkscape:pagecheckerboard="0"
     inkscape:deskcolor="#d1d1d1"
     inkscape:document-units="mm"
     inkscape:zoom="2.5796914"
     inkscape:cx="132.18635"
     inkscape:cy="226.77131"
     inkscape:current-layer="layer1" />
  <defs
     id="defs1" />
  <g
     inkscape:label="Capa 1"
     inkscape:groupmode="layer"
     id="layer1"
     transform="translate(-70.114583,-88.370833)">
    <path
       id="rect10964"
       style="display:inline;fill:none;fill-opacity:1;stroke:#000000;stroke-width:0.064;stroke-miterlimit:10;stroke-dasharray:none"
       inkscape:label="White Acrylic"
       d="m 80.14804,88.402833 v 4.99711 c 1.17e-4,2.7599 -2.238525,4.99746 -5.000211,4.99763 h -5.001246 v 99.946867 h 5.001246 c 2.761686,1.7e-4 5.000328,2.2373 5.000211,4.99711 v 4.99711 h 49.93287 v -4.99711 c -1.2e-4,-2.75981 2.23905,-4.99694 5.00073,-4.99711 h 5.00073 V 98.397573 h -5.00073 c -2.76168,-1.7e-4 -5.00085,-2.23773 -5.00073,-4.99763 v -4.99711 z m -5.282882,13.031247 a 1.6,1.6 0 0 1 1.599903,1.5999 1.6,1.6 0 0 1 -1.599903,1.60042 1.6,1.6 0 0 1 -1.600419,-1.60042 1.6,1.6 0 0 1 1.600419,-1.5999 z m 60.500182,0 a 1.6,1.6 0 0 1 1.5999,1.5999 1.6,1.6 0 0 1 -1.5999,1.60042 1.6,1.6 0 0 1 -1.5999,-1.60042 1.6,1.6 0 0 1 1.5999,-1.5999 z m -57.999559,3.31711 h 18.999874 v 18.99987 H 77.365781 Z m 31.068909,0 h 19.00039 v 18.99987 h -19.00039 z m -31.068909,34.04908 h 18.999874 v 19.00039 H 77.365781 Z m 40.569099,10.10119 a 4.6500001,4.6500001 0 0 1 4.64985,4.64985 4.6500001,4.6500001 0 0 1 -4.64985,4.64984 4.6500001,4.6500001 0 0 1 -4.64984,-4.64984 4.6500001,4.6500001 0 0 1 4.64984,-4.64985 z m 0,22.77329 c 3.32398,0 6.00015,2.67615 6.00015,6.00015 v 9.99991 c 0,3.32392 -2.67617,5.99963 -6.00015,5.99963 -3.32397,0 -6.00015,-2.67571 -6.00015,-5.99963 v -9.99991 c 0,-3.324 2.67618,-6.00015 6.00015,-6.00015 z m -40.569099,0.014 h 18.999874 v 18.99988 H 77.365781 Z m -2.500623,20.41943 a 1.6,1.6 0 0 1 1.599903,1.5999 1.6,1.6 0 0 1 -1.599903,1.60042 1.6,1.6 0 0 1 -1.600419,-1.60042 1.6,1.6 0 0 1 1.600419,-1.5999 z m 60.500182,0 a 1.6,1.6 0 0 1 1.5999,1.5999 1.6,1.6 0 0 1 -1.5999,1.60042 1.6,1.6 0 0 1 -1.5999,-1.60042 1.6,1.6 0 0 1 1.5999,-1.5999 z" />
  </g>
</svg>
