<?xml version="1.0" encoding="UTF-8" standalone="no"?>
<!-- Created with Inkscape (http://www.inkscape.org/) -->

<svg
   width="50.000004mm"
   height="119.99987mm"
   viewBox="0 0 50.000004 119.99987"
   version="1.1"
   id="svg102973"
   inkscape:version="1.2.2 (b0a8486, 2022-12-01)"
   sodipodi:docname="3mm-Black-Back_Layer.svg"
   xmlns:inkscape="http://www.inkscape.org/namespaces/inkscape"
   xmlns:sodipodi="http://sodipodi.sourceforge.net/DTD/sodipodi-0.dtd"
   xmlns="http://www.w3.org/2000/svg"
   xmlns:svg="http://www.w3.org/2000/svg">
  <sodipodi:namedview
     id="namedview102975"
     pagecolor="#ffffff"
     bordercolor="#666666"
     borderopacity="1.0"
     inkscape:showpageshadow="2"
     inkscape:pageopacity="0.0"
     inkscape:pagecheckerboard="0"
     inkscape:deskcolor="#d1d1d1"
     inkscape:document-units="mm"
     showgrid="false"
     inkscape:zoom="1.8194393"
     inkscape:cx="94.53462"
     inkscape:cy="227.26782"
     inkscape:current-layer="layer1" />
  <defs
     id="defs102970" />
  <g
     inkscape:label="Capa 1"
     inkscape:groupmode="layer"
     id="layer1"
     transform="translate(-2.2140445e-5,-2.1660445e-5)">
    <path
       id="rect11527"
       style="display:inline;fill:#ffffff;fill-opacity:1;stroke:#000000;stroke-width:0.0536992;stroke-linecap:round;stroke-miterlimit:4;stroke-dasharray:none"
       d="M 0.02687174,0.02687126 V 119.97304 H 49.973177 V 0.02687126 Z M 4.7878215,3.4380302 A 1.6,1.6 0 0 1 6.3877238,5.0379365 1.6,1.6 0 0 1 4.7878215,6.6378329 1.6,1.6 0 0 1 3.1879191,5.0379365 1.6,1.6 0 0 1 4.7878215,3.4380302 Z m 40.5003695,0 A 1.6,1.6 0 0 1 46.888094,5.0379365 1.6,1.6 0 0 1 45.288191,6.6378329 1.6,1.6 0 0 1 43.68829,5.0379365 1.6,1.6 0 0 1 45.288191,3.4380302 Z m -0.06305,9.1332938 v 5.2e-4 a 1.6,1.6 0 0 1 0.181384,0.01189 1.6,1.6 0 0 1 0.04289,0.005 1.6,1.6 0 0 1 0.166915,0.03308 1.6,1.6 0 0 1 0.04341,0.01189 1.6,1.6 0 0 1 0.170532,0.05836 1.6,1.6 0 0 1 0.01912,0.008 1.6,1.6 0 0 1 0.175701,0.08635 1.6,1.6 0 0 1 0.160197,0.107491 1.6,1.6 0 0 1 0.02067,0.01499 1.6,1.6 0 0 1 0.137976,0.120923 1.6,1.6 0 0 1 0.02377,0.02378 1.6,1.6 0 0 1 0.117822,0.134355 1.6,1.6 0 0 1 0.02067,0.02788 1.6,1.6 0 0 1 0.104386,0.156071 1.6,1.6 0 0 1 0.08475,0.171561 1.6,1.6 0 0 1 0.01085,0.02478 1.6,1.6 0 0 1 0.05891,0.175189 1.6,1.6 0 0 1 0.0083,0.02948 1.6,1.6 0 0 1 0.03566,0.180865 1.6,1.6 0 0 1 0.0031,0.02688 1.6,1.6 0 0 1 0.01292,0.191199 1.6,1.6 0 0 1 -0.12144,0.608754 1.6,1.6 0 0 1 -0.0031,0.007 1.6,1.6 0 0 1 -0.341064,0.510556 1.6,1.6 0 0 1 -0.0078,0.008 1.6,1.6 0 0 1 -0.50953,0.340544 1.6,1.6 0 0 1 -0.0098,0.005 1.6,1.6 0 0 1 -0.607198,0.120404 1.6,1.6 0 0 1 -0.607198,-0.120404 1.6,1.6 0 0 1 -0.01033,-0.005 1.6,1.6 0 0 1 -0.509529,-0.340544 1.6,1.6 0 0 1 -0.0078,-0.008 1.6,1.6 0 0 1 -0.341064,-0.510556 1.6,1.6 0 0 1 -0.0031,-0.007 1.6,1.6 0 0 1 -0.121439,-0.608754 1.6,1.6 0 0 1 0.121439,-0.608745 1.6,1.6 0 0 1 0.0031,-0.007 1.6,1.6 0 0 1 0.341064,-0.510567 1.6,1.6 0 0 1 0.0078,-0.008 1.6,1.6 0 0 1 0.511596,-0.341583 1.6,1.6 0 0 1 0.0062,-0.003 1.6,1.6 0 0 1 0.609265,-0.121443 z m -40.5003698,5.2e-4 a 1.6,1.6 0 0 1 0.1813843,0.01189 1.6,1.6 0 0 1 0.042891,0.005 1.6,1.6 0 0 1 0.1669149,0.03308 1.6,1.6 0 0 1 0.043925,0.01189 1.6,1.6 0 0 1 0.1684651,0.05736 1.6,1.6 0 0 1 0.024805,0.01089 1.6,1.6 0 0 1 0.1715658,0.08475 1.6,1.6 0 0 1 0.1560628,0.104384 1.6,1.6 0 0 1 0.027905,0.02069 1.6,1.6 0 0 1 0.1343587,0.117825 1.6,1.6 0 0 1 0.024288,0.02429 1.6,1.6 0 0 1 0.1178222,0.134355 1.6,1.6 0 0 1 0.020671,0.02788 1.6,1.6 0 0 1 0.1043865,0.156061 1.6,1.6 0 0 1 0.084749,0.171572 1.6,1.6 0 0 1 0.010852,0.02478 1.6,1.6 0 0 1 0.058911,0.175179 1.6,1.6 0 0 1 0.00827,0.02948 1.6,1.6 0 0 1 0.035657,0.180866 1.6,1.6 0 0 1 0.0031,0.02688 1.6,1.6 0 0 1 0.012919,0.191199 1.6,1.6 0 0 1 -0.1214396,0.608754 1.6,1.6 0 0 1 -0.0031,0.007 1.6,1.6 0 0 1 -0.3410644,0.510556 1.6,1.6 0 0 1 -0.00775,0.008 1.6,1.6 0 0 1 -0.5079793,0.340025 1.6,1.6 0 0 1 -0.011886,0.005 1.6,1.6 0 0 1 -0.6066813,0.120404 1.6,1.6 0 0 1 -0.6066813,-0.120404 1.6,1.6 0 0 1 -0.011886,-0.005 1.6,1.6 0 0 1 -0.5069458,-0.338996 1.6,1.6 0 0 1 -0.010335,-0.01029 1.6,1.6 0 0 1 -0.3384806,-0.506429 1.6,1.6 0 0 1 -0.00517,-0.01189 1.6,1.6 0 0 1 -0.120406,-0.606685 1.6,1.6 0 0 1 0.120406,-0.606676 1.6,1.6 0 0 1 0.00517,-0.01189 1.6,1.6 0 0 1 0.3384806,-0.50643 1.6,1.6 0 0 1 0.010335,-0.01029 1.6,1.6 0 0 1 0.5095297,-0.340035 1.6,1.6 0 0 1 0.00723,-0.003 1.6,1.6 0 0 1 0.6087483,-0.121433 z m 2.210201,12.65814 H 20.935156 V 39.229645 H 6.9349772 Z m 22.0188108,0 h 14.00018 V 39.229645 H 28.953788 Z M 6.9349772,56.001749 H 20.935156 V 70.00141 H 6.9349772 Z M 17.695044,87.932619 H 31.695223 V 101.93228 H 17.695044 Z m 27.530102,16.371091 v 5.2e-4 a 1.6,1.6 0 0 1 0.181384,0.0119 1.6,1.6 0 0 1 0.04289,0.005 1.6,1.6 0 0 1 0.166915,0.0331 1.6,1.6 0 0 1 0.04341,0.0119 1.6,1.6 0 0 1 0.170532,0.0584 1.6,1.6 0 0 1 0.01912,0.008 1.6,1.6 0 0 1 0.175701,0.0863 1.6,1.6 0 0 1 0.160197,0.10749 1.6,1.6 0 0 1 0.02067,0.015 1.6,1.6 0 0 1 0.137976,0.12093 1.6,1.6 0 0 1 0.02377,0.0238 1.6,1.6 0 0 1 0.117822,0.13436 1.6,1.6 0 0 1 0.02067,0.0279 1.6,1.6 0 0 1 0.104386,0.15606 1.6,1.6 0 0 1 0.08475,0.17156 1.6,1.6 0 0 1 0.01085,0.0248 1.6,1.6 0 0 1 0.05891,0.17519 1.6,1.6 0 0 1 0.0083,0.0295 1.6,1.6 0 0 1 0.03566,0.18086 1.6,1.6 0 0 1 0.0031,0.0269 1.6,1.6 0 0 1 0.01292,0.19121 1.6,1.6 0 0 1 -0.12144,0.60875 1.6,1.6 0 0 1 -0.0031,0.007 1.6,1.6 0 0 1 -0.341064,0.51057 1.6,1.6 0 0 1 -0.0078,0.008 1.6,1.6 0 0 1 -0.50953,0.34056 1.6,1.6 0 0 1 -0.0098,0.005 1.6,1.6 0 0 1 -0.607198,0.1204 1.6,1.6 0 0 1 -0.607198,-0.1204 1.6,1.6 0 0 1 -0.01033,-0.005 1.6,1.6 0 0 1 -0.509529,-0.34056 1.6,1.6 0 0 1 -0.0078,-0.008 1.6,1.6 0 0 1 -0.341064,-0.51057 1.6,1.6 0 0 1 -0.0031,-0.007 1.6,1.6 0 0 1 -0.121439,-0.60875 1.6,1.6 0 0 1 0.121439,-0.60875 1.6,1.6 0 0 1 0.0031,-0.007 1.6,1.6 0 0 1 0.341064,-0.51056 1.6,1.6 0 0 1 0.0078,-0.008 1.6,1.6 0 0 1 0.511596,-0.34158 1.6,1.6 0 0 1 0.0062,-0.003 1.6,1.6 0 0 1 0.609265,-0.12144 z m -40.5003698,5.2e-4 a 1.6,1.6 0 0 1 0.1813843,0.0119 1.6,1.6 0 0 1 0.042891,0.005 1.6,1.6 0 0 1 0.1669149,0.0331 1.6,1.6 0 0 1 0.043925,0.0119 1.6,1.6 0 0 1 0.1684651,0.0574 1.6,1.6 0 0 1 0.024805,0.0109 1.6,1.6 0 0 1 0.1715658,0.0847 1.6,1.6 0 0 1 0.1560628,0.10439 1.6,1.6 0 0 1 0.027905,0.0207 1.6,1.6 0 0 1 0.1343587,0.11782 1.6,1.6 0 0 1 0.024288,0.0243 1.6,1.6 0 0 1 0.1178222,0.13436 1.6,1.6 0 0 1 0.020671,0.0279 1.6,1.6 0 0 1 0.1043865,0.15607 1.6,1.6 0 0 1 0.084749,0.17156 1.6,1.6 0 0 1 0.010852,0.0248 1.6,1.6 0 0 1 0.058911,0.17518 1.6,1.6 0 0 1 0.00827,0.0295 1.6,1.6 0 0 1 0.035657,0.18086 1.6,1.6 0 0 1 0.0031,0.0269 1.6,1.6 0 0 1 0.012919,0.1912 1.6,1.6 0 0 1 -0.1214396,0.60876 1.6,1.6 0 0 1 -0.0031,0.007 1.6,1.6 0 0 1 -0.3410644,0.51057 1.6,1.6 0 0 1 -0.00775,0.008 1.6,1.6 0 0 1 -0.5079793,0.34004 1.6,1.6 0 0 1 -0.011886,0.005 1.6,1.6 0 0 1 -0.6066813,0.11988 1.6,1.6 0 0 1 -0.6066813,-0.11988 1.6,1.6 0 0 1 -0.011886,-0.005 1.6,1.6 0 0 1 -0.5069458,-0.33901 1.6,1.6 0 0 1 -0.010335,-0.0103 1.6,1.6 0 0 1 -0.3384806,-0.50643 1.6,1.6 0 0 1 -0.00517,-0.0119 1.6,1.6 0 0 1 -0.120406,-0.60669 1.6,1.6 0 0 1 0.120406,-0.60667 1.6,1.6 0 0 1 0.00517,-0.0119 1.6,1.6 0 0 1 0.3384806,-0.50643 1.6,1.6 0 0 1 0.010335,-0.0103 1.6,1.6 0 0 1 0.5095297,-0.34002 1.6,1.6 0 0 1 0.00723,-0.003 1.6,1.6 0 0 1 0.6087483,-0.12143 z m 0.063045,9.13381 a 1.6,1.6 0 0 1 1.5999023,1.5999 1.6,1.6 0 0 1 -1.5999023,1.5999 1.6,1.6 0 0 1 -1.5999024,-1.5999 1.6,1.6 0 0 1 1.5999024,-1.5999 z m 40.5003698,0 a 1.6,1.6 0 0 1 1.599903,1.5999 1.6,1.6 0 0 1 -1.599903,1.5999 1.6,1.6 0 0 1 -1.599901,-1.5999 1.6,1.6 0 0 1 1.599901,-1.5999 z" />
  </g>
</svg>
