<?xml version="1.0" encoding="UTF-8" standalone="no"?>
<!-- Created with Inkscape (http://www.inkscape.org/) -->

<svg
   width="70.000351mm"
   height="97.999672mm"
   viewBox="0 0 70.000351 97.999672"
   version="1.1"
   id="svg1"
   inkscape:version="1.3 (0e150ed, 2023-07-21)"
   sodipodi:docname="3mm-Black-Microcontroller_Layer.svg"
   xmlns:inkscape="http://www.inkscape.org/namespaces/inkscape"
   xmlns:sodipodi="http://sodipodi.sourceforge.net/DTD/sodipodi-0.dtd"
   xmlns="http://www.w3.org/2000/svg"
   xmlns:svg="http://www.w3.org/2000/svg">
  <sodipodi:namedview
     id="namedview1"
     pagecolor="#ffffff"
     bordercolor="#666666"
     borderopacity="1.0"
     inkscape:showpageshadow="2"
     inkscape:pageopacity="0.0"
     inkscape:pagecheckerboard="0"
     inkscape:deskcolor="#d1d1d1"
     inkscape:document-units="mm"
     inkscape:zoom="3.1588116"
     inkscape:cx="132.32825"
     inkscape:cy="185.19623"
     inkscape:current-layer="layer1" />
  <defs
     id="defs1" />
  <g
     inkscape:label="Capa 1"
     inkscape:groupmode="layer"
     id="layer1"
     transform="translate(2.458808e-4,-11.000116)">
    <path
       id="rect11527-5"
       style="display:inline;fill:none;fill-opacity:1;stroke:#000000;stroke-width:0.063537;stroke-linecap:round;stroke-miterlimit:4;stroke-dasharray:none"
       d="M 0.03152262,11.031885 V 108.96802 H 45.370357 v -2.46806 a 2.5,2.5 0 0 1 2.500106,-2.50011 2.5,2.5 0 0 1 2.500106,2.50011 v 2.46806 h 19.59777 V 11.031885 Z m 4.71909178,2.031401 a 1.6,1.6 0 0 1 1.5999024,1.599902 1.6,1.6 0 0 1 -1.5999024,1.600419 1.6,1.6 0 0 1 -1.6004191,-1.600419 1.6,1.6 0 0 1 1.6004191,-1.599902 z m 60.5001836,0 a 1.6,1.6 0 0 1 1.599902,1.599902 1.6,1.6 0 0 1 -1.599902,1.600419 1.6,1.6 0 0 1 -1.599903,-1.600419 1.6,1.6 0 0 1 1.599903,-1.599902 z m -30.25035,0.927075 a 1.6,1.6 0 0 1 1.599902,1.599902 1.6,1.6 0 0 1 -1.599902,1.60042 1.6,1.6 0 0 1 -1.599903,-1.60042 1.6,1.6 0 0 1 1.599903,-1.599902 z m 0,88.819899 a 1.6,1.6 0 0 1 1.599902,1.60042 1.6,1.6 0 0 1 -1.599902,1.5999 1.6,1.6 0 0 1 -1.599903,-1.5999 1.6,1.6 0 0 1 1.599903,-1.60042 z m -30.2498336,0.92707 a 1.6,1.6 0 0 1 1.5999024,1.59991 1.6,1.6 0 0 1 -1.5999024,1.60042 1.6,1.6 0 0 1 -1.6004191,-1.60042 1.6,1.6 0 0 1 1.6004191,-1.59991 z m 60.5001836,0 a 1.6,1.6 0 0 1 1.599902,1.59991 1.6,1.6 0 0 1 -1.599902,1.60042 1.6,1.6 0 0 1 -1.599903,-1.60042 1.6,1.6 0 0 1 1.599903,-1.59991 z" />
  </g>
</svg>
