<?xml version="1.0" encoding="UTF-8" standalone="no"?>
<!-- Created with Inkscape (http://www.inkscape.org/) -->

<svg
   width="70.000298mm"
   height="119.99983mm"
   viewBox="0 0 70.000298 119.99983"
   version="1.1"
   id="svg1"
   inkscape:version="1.3 (0e150ed, 2023-07-21)"
   sodipodi:docname="3mm-Translucent-Middle_Layer.svg"
   xmlns:inkscape="http://www.inkscape.org/namespaces/inkscape"
   xmlns:sodipodi="http://sodipodi.sourceforge.net/DTD/sodipodi-0.dtd"
   xmlns="http://www.w3.org/2000/svg"
   xmlns:svg="http://www.w3.org/2000/svg">
  <sodipodi:namedview
     id="namedview1"
     pagecolor="#ffffff"
     bordercolor="#666666"
     borderopacity="1.0"
     inkscape:showpageshadow="2"
     inkscape:pageopacity="0.0"
     inkscape:pagecheckerboard="0"
     inkscape:deskcolor="#d1d1d1"
     inkscape:document-units="mm"
     inkscape:zoom="2.5796911"
     inkscape:cx="132.18637"
     inkscape:cy="226.77134"
     inkscape:current-layer="layer1" />
  <defs
     id="defs1" />
  <g
     inkscape:label="Capa 1"
     inkscape:groupmode="layer"
     id="layer1"
     transform="translate(-3.938848e-5,-5.5999848e-4)">
    <path
       id="path10977"
       style="display:inline;fill:none;stroke:#000000;stroke-width:0.064;stroke-miterlimit:10;stroke-dasharray:none"
       inkscape:label="Translucent Acrylic"
       d="m 10.030395,0.03256 v 4.99711 c 1.16e-4,2.7597 -2.2383728,4.99745 -4.9991776,4.99762 H 0.03203939 v 99.94636 H 5.0312174 c 2.7608048,1.7e-4 4.9992936,2.23772 4.9991776,4.99763 v 4.99711 H 59.9705 v -4.99711 c -1.17e-4,-2.75991 2.237861,-4.99746 4.998661,-4.99763 h 4.999178 V 10.02729 H 64.969161 C 62.208361,10.02712 59.970383,7.78937 59.9705,5.02967 V 0.03256 Z M 4.7506144,13.06329 a 1.6,1.6 0 0 1 1.5999024,1.5999 1.6,1.6 0 0 1 -1.5999024,1.60042 1.6,1.6 0 0 1 -1.6004191,-1.60042 1.6,1.6 0 0 1 1.6004191,-1.5999 z m 60.5001836,0 a 1.6,1.6 0 0 1 1.599902,1.5999 1.6,1.6 0 0 1 -1.599902,1.60042 1.6,1.6 0 0 1 -1.599903,-1.60042 1.6,1.6 0 0 1 1.599903,-1.5999 z M 7.251237,16.3804 H 26.251111 V 35.38027 H 7.251237 Z m 31.068905,0 h 19.00039 V 35.38027 H 38.320142 Z M 7.251237,50.42948 H 26.251111 V 69.42987 H 7.251237 Z m 40.5691,6.75101 a 8,8 0 0 1 8.000028,8.00003 8,8 0 0 1 -8.000028,8.00003 8,8 0 0 1 -8.000029,-8.00003 8,8 0 0 1 8.000029,-8.00003 z m -0.870748,26.12347 h 1.741496 c 4.226492,0 7.628991,3.01088 7.628991,6.75101 v 8.49767 c 0,3.74013 -3.402499,6.75101 -7.628991,6.75101 h -1.741496 c -4.226492,0 -7.629508,-3.01088 -7.629508,-6.75101 v -8.49767 c 0,-3.74013 3.403016,-6.75101 7.629508,-6.75101 z m -39.698352,0.014 h 18.999874 v 18.99988 H 7.251237 Z m -2.5006226,20.41943 a 1.6,1.6 0 0 1 1.5999024,1.5999 1.6,1.6 0 0 1 -1.5999024,1.60042 1.6,1.6 0 0 1 -1.6004191,-1.60042 1.6,1.6 0 0 1 1.6004191,-1.5999 z m 60.5001836,0 a 1.6,1.6 0 0 1 1.599902,1.5999 1.6,1.6 0 0 1 -1.599902,1.60042 1.6,1.6 0 0 1 -1.599903,-1.60042 1.6,1.6 0 0 1 1.599903,-1.5999 z" />
  </g>
</svg>
