<?xml version="1.0" encoding="UTF-8" standalone="no"?>
<!-- Created with Inkscape (http://www.inkscape.org/) -->

<svg
   width="50.000004mm"
   height="120.00039mm"
   viewBox="0 0 50.000004 120.00039"
   version="1.1"
   id="svg107154"
   inkscape:version="1.2.2 (b0a8486, 2022-12-01)"
   sodipodi:docname="3mm-Translucent-Middle_Layer.svg"
   xmlns:inkscape="http://www.inkscape.org/namespaces/inkscape"
   xmlns:sodipodi="http://sodipodi.sourceforge.net/DTD/sodipodi-0.dtd"
   xmlns="http://www.w3.org/2000/svg"
   xmlns:svg="http://www.w3.org/2000/svg">
  <sodipodi:namedview
     id="namedview107156"
     pagecolor="#ffffff"
     bordercolor="#666666"
     borderopacity="1.0"
     inkscape:showpageshadow="2"
     inkscape:pageopacity="0.0"
     inkscape:pagecheckerboard="0"
     inkscape:deskcolor="#d1d1d1"
     inkscape:document-units="mm"
     showgrid="false"
     inkscape:zoom="2.5730646"
     inkscape:cx="94.439915"
     inkscape:cy="226.77239"
     inkscape:current-layer="layer1" />
  <defs
     id="defs107151" />
  <g
     inkscape:label="Capa 1"
     inkscape:groupmode="layer"
     id="layer1"
     transform="translate(2.3529882e-4,2.3909882e-4)">
    <path
       id="rect3678-3"
       style="display:inline;fill:none;fill-opacity:1;stroke:#000000;stroke-width:0.0759182;stroke-linecap:round;stroke-miterlimit:4;stroke-dasharray:none"
       d="m 10.022644,0.03772 v 4.99711 c -1.65e-4,2.75964 -2.2352775,4.99672 -4.99246,4.9966 H 0.0377238 v 99.93705 h 4.9924601 c 2.7571825,-1.2e-4 4.9922951,2.23696 4.9924601,4.9966 v 4.99711 h 29.954761 v -4.99711 c 1.65e-4,-2.75964 2.235273,-4.99672 4.99246,-4.9966 h 4.991943 V 10.03143 h -4.991943 c -2.757187,1.2e-4 -4.992295,-2.23696 -4.99246,-4.9966 V 0.03772 Z M 4.4348714,22.72988 H 23.434745 V 41.72975 H 4.4348714 Z m 22.0188106,0 H 45.454073 V 41.72975 H 26.453682 Z M 4.4348714,53.50164 H 23.434745 V 72.50152 H 4.4348714 Z M 15.194938,85.43251 h 18.999874 v 18.99988 H 15.194938 Z"
       sodipodi:insensitive="true" />
  </g>
</svg>
