<?xml version="1.0" encoding="UTF-8" standalone="no"?>
<!-- Created with Inkscape (http://www.inkscape.org/) -->

<svg
   width="70.000298mm"
   height="119.99983mm"
   viewBox="0 0 70.000298 119.99983"
   version="1.1"
   id="svg1"
   inkscape:version="1.3 (0e150ed, 2023-07-21)"
   sodipodi:docname="3mm-Black-Back_Layer.svg"
   xmlns:inkscape="http://www.inkscape.org/namespaces/inkscape"
   xmlns:sodipodi="http://sodipodi.sourceforge.net/DTD/sodipodi-0.dtd"
   xmlns="http://www.w3.org/2000/svg"
   xmlns:svg="http://www.w3.org/2000/svg">
  <sodipodi:namedview
     id="namedview1"
     pagecolor="#ffffff"
     bordercolor="#666666"
     borderopacity="1.0"
     inkscape:showpageshadow="2"
     inkscape:pageopacity="0.0"
     inkscape:pagecheckerboard="0"
     inkscape:deskcolor="#d1d1d1"
     inkscape:document-units="mm"
     inkscape:zoom="2.5796911"
     inkscape:cx="132.18637"
     inkscape:cy="226.77134"
     inkscape:current-layer="layer1" />
  <defs
     id="defs1" />
  <g
     inkscape:label="Capa 1"
     inkscape:groupmode="layer"
     id="layer1"
     transform="translate(-3.938848e-5,-3.999848e-5)">
    <path
       id="rect11527"
       style="display:inline;fill:none;fill-opacity:1;stroke:#000000;stroke-width:0.064;stroke-linecap:round;stroke-miterlimit:4;stroke-dasharray:none"
       d="M 0.03203939,0.03204 V 119.96787 H 69.968339 V 0.03204 Z M 4.7506144,3.40031 C 5.634395,3.40036 6.3507488,4.11695 6.3505168,5.00073 6.3504616,5.88431 5.6341919,6.60058 4.7506144,6.60063 3.8668351,6.60086 3.1502505,5.88451 3.1501953,5.00073 3.1499632,4.11675 3.866632,3.40008 4.7506144,3.40031 Z m 60.4996666,0 c 0.88378,5e-5 1.600134,0.71664 1.599902,1.60042 -5.5e-5,0.88358 -0.716325,1.59985 -1.599902,1.5999 -0.883578,-5e-5 -1.599848,-0.71632 -1.599903,-1.5999 C 63.650146,4.11695 64.3665,3.40036 65.250281,3.40031 Z M 4.7506144,13.06329 c 0.8835775,5e-5 1.5998472,0.71632 1.5999024,1.5999 2.32e-4,0.88378 -0.7161218,1.60037 -1.5999024,1.60042 -0.8839824,2.3e-4 -1.6006512,-0.71644 -1.6004191,-1.60042 5.52e-5,-0.88378 0.7166398,-1.60013 1.6004191,-1.5999 z m 60.5001836,0 c 0.883577,5e-5 1.599847,0.71632 1.599902,1.5999 2.32e-4,0.88378 -0.716122,1.60037 -1.599902,1.60042 -0.883782,-5e-5 -1.600135,-0.71664 -1.599903,-1.60042 5.5e-5,-0.88358 0.716324,-1.59985 1.599903,-1.5999 z M 9.7513428,18.87998 H 23.751522 V 32.88016 H 9.7513428 Z m 31.0689042,0 H 54.820426 V 32.88016 H 40.820247 Z M 9.7513428,52.92959 H 23.751522 V 66.92976 H 9.7513428 Z m 38.0689942,7.60108 c 2.568002,9e-5 4.649762,2.08185 4.649845,4.64985 -8.8e-5,2.568 -2.081847,4.64975 -4.649845,4.64984 -2.567999,-9e-5 -4.649757,-2.08184 -4.649845,-4.64984 8.3e-5,-2.568 2.081842,-4.64976 4.649845,-4.64985 z m 0.05013,10.90011 c 0.690196,-3e-5 1.249799,0.55934 1.250053,1.24954 2.8e-5,0.6904 -0.559658,1.25008 -1.250053,1.25005 -0.690395,3e-5 -1.250081,-0.55965 -1.250053,-1.25005 2.54e-4,-0.6902 0.559857,-1.24957 1.250053,-1.24954 z M 9.7513428,85.81802 H 23.751522 V 99.8182 H 9.7513428 Z m 38.0689942,2.48563 c 3.313823,-8e-5 6.000233,2.68633 6.00015,6.00015 1.58e-4,2.92802 -2.113127,5.42854 -5.000211,5.91644 v -0.91622 h -1.999878 v 0.91622 c -2.887084,-0.4879 -5.00037,-2.98842 -5.000212,-5.91644 -8.3e-5,-3.31382 2.686328,-6.00023 6.000151,-6.00015 z M 4.7506144,103.73734 c 0.8835775,5e-5 1.5998472,0.71632 1.5999024,1.5999 2.32e-4,0.88378 -0.7161218,1.60037 -1.5999024,1.60042 -0.8839824,2.3e-4 -1.6006512,-0.71644 -1.6004191,-1.60042 5.52e-5,-0.88378 0.7166398,-1.60013 1.6004191,-1.5999 z m 60.5001836,0 a 1.6,1.6 0 0 1 1.599902,1.5999 1.6,1.6 0 0 1 -1.599902,1.60042 1.6,1.6 0 0 1 -1.599903,-1.60042 1.6,1.6 0 0 1 1.599903,-1.5999 z m -60.5007004,9.66297 c 0.8835815,5e-5 1.5998527,0.71633 1.5999024,1.59991 2.265e-4,0.88377 -0.7161256,1.60036 -1.5999024,1.60041 -0.8839785,2.3e-4 -1.6006457,-0.71644 -1.6004191,-1.60041 4.97e-5,-0.88378 0.7166359,-1.60014 1.6004191,-1.59991 z m 60.5001834,0 c 0.883581,5e-5 1.599852,0.71633 1.599902,1.59991 2.26e-4,0.88377 -0.716126,1.60036 -1.599902,1.60041 -0.883777,-5e-5 -1.600129,-0.71664 -1.599903,-1.60041 5e-5,-0.88358 0.716321,-1.59986 1.599903,-1.59991 z" />
  </g>
</svg>
