<?xml version="1.0" encoding="UTF-8" standalone="no"?>
<!-- Created with Inkscape (http://www.inkscape.org/) -->

<svg
   width="50.000004mm"
   height="98.000175mm"
   viewBox="0 0 50.000004 98.000175"
   version="1.1"
   id="svg93522"
   inkscape:version="1.2.2 (b0a8486, 2022-12-01)"
   sodipodi:docname="3mm-Black-Microcontroller_Layer.svg"
   xmlns:inkscape="http://www.inkscape.org/namespaces/inkscape"
   xmlns:sodipodi="http://sodipodi.sourceforge.net/DTD/sodipodi-0.dtd"
   xmlns="http://www.w3.org/2000/svg"
   xmlns:svg="http://www.w3.org/2000/svg">
  <sodipodi:namedview
     id="namedview93524"
     pagecolor="#ffffff"
     bordercolor="#666666"
     borderopacity="1.0"
     inkscape:showpageshadow="2"
     inkscape:pageopacity="0.0"
     inkscape:pagecheckerboard="0"
     inkscape:deskcolor="#d1d1d1"
     inkscape:document-units="mm"
     showgrid="false"
     inkscape:zoom="2.2278784"
     inkscape:cx="94.260084"
     inkscape:cy="185.60259"
     inkscape:current-layer="layer1" />
  <defs
     id="defs93519" />
  <g
     inkscape:label="Capa 1"
     inkscape:groupmode="layer"
     id="layer1"
     transform="translate(-2.3339988e-5,-10.99987)">
    <path
       id="rect11527-5"
       style="display:inline;fill:none;fill-opacity:1;stroke:#000000;stroke-width:0.0536968;stroke-linecap:round;stroke-miterlimit:4;stroke-dasharray:none"
       d="M 0.02687174,11.026718 V 108.9732 H 49.973177 V 11.026718 Z m 4.69790446,1.545125 a 1.6,1.6 0 0 1 1.5999023,1.599903 1.6,1.6 0 0 1 -1.5999023,1.599902 1.6,1.6 0 0 1 -1.5999023,-1.599902 1.6,1.6 0 0 1 1.5999023,-1.599903 z m 40.5003698,0 a 1.6,1.6 0 0 1 1.599903,1.599903 1.6,1.6 0 0 1 -1.599903,1.599902 1.6,1.6 0 0 1 -1.600419,-1.599902 1.6,1.6 0 0 1 1.600419,-1.599903 z m -20.225122,1.418002 a 1.6,1.6 0 0 1 1.599903,1.600419 1.6,1.6 0 0 1 -1.599903,1.599902 1.6,1.6 0 0 1 -1.599902,-1.599902 1.6,1.6 0 0 1 1.599902,-1.600419 z m 0,88.819905 a 1.6,1.6 0 0 1 1.599903,1.60042 1.6,1.6 0 0 1 -1.599903,1.5999 1.6,1.6 0 0 1 -1.599902,-1.5999 1.6,1.6 0 0 1 1.599902,-1.60042 z m -20.2752478,1.49448 a 1.6,1.6 0 0 1 1.5999023,1.5999 1.6,1.6 0 0 1 -1.5999023,1.59991 1.6,1.6 0 0 1 -1.5999024,-1.59991 1.6,1.6 0 0 1 1.5999024,-1.5999 z m 40.5003698,0 a 1.6,1.6 0 0 1 1.599903,1.5999 1.6,1.6 0 0 1 -1.599903,1.59991 1.6,1.6 0 0 1 -1.600419,-1.59991 1.6,1.6 0 0 1 1.600419,-1.5999 z" />
  </g>
</svg>
