<?xml version="1.0" encoding="UTF-8" standalone="no"?>
<!-- Created with Inkscape (http://www.inkscape.org/) -->

<svg
   width="90.076195mm"
   height="120.07643mm"
   viewBox="0 0 90.076195 120.07643"
   version="1.1"
   id="svg23080"
   inkscape:version="1.2.2 (b0a8486, 2022-12-01)"
   sodipodi:docname="2mm-White-Front_Leyer.svg"
   xmlns:inkscape="http://www.inkscape.org/namespaces/inkscape"
   xmlns:sodipodi="http://sodipodi.sourceforge.net/DTD/sodipodi-0.dtd"
   xmlns="http://www.w3.org/2000/svg"
   xmlns:svg="http://www.w3.org/2000/svg">
  <sodipodi:namedview
     id="namedview23082"
     pagecolor="#ffffff"
     bordercolor="#666666"
     borderopacity="1.0"
     inkscape:showpageshadow="2"
     inkscape:pageopacity="0.0"
     inkscape:pagecheckerboard="0"
     inkscape:deskcolor="#d1d1d1"
     inkscape:document-units="mm"
     showgrid="false"
     inkscape:zoom="2.5714351"
     inkscape:cx="170.3329"
     inkscape:cy="226.91609"
     inkscape:current-layer="layer1" />
  <defs
     id="defs23077" />
  <g
     inkscape:label="Capa 1"
     inkscape:groupmode="layer"
     id="layer1"
     transform="translate(0.038,0.038)">
    <path
       id="rect10964"
       style="display:inline;fill:none;fill-opacity:1;stroke:#000000;stroke-width:0.076;stroke-miterlimit:10;stroke-dasharray:none"
       inkscape:label="White Acrylic"
       d="M 9.9782023,0 V 4.99969 C 9.9783183,7.76108 7.7446455,9.99974 4.9893595,9.99991 H 0 v 100.00061 h 4.9893595 c 2.755286,1.7e-4 4.9889588,2.23898 4.9888428,5.00021 v 4.9997 H 80.021989 v -4.9997 c -1.16e-4,-2.76123 2.233559,-5.00005 4.988842,-5.00021 h 4.98936 V 9.99991 h -4.98936 C 82.255548,9.99974 80.021873,7.76108 80.021989,4.99969 V 0 Z M 4.970756,13.11341 c 0.8835757,5e-5 1.5998471,0.71632 1.5999023,1.5999 -4.97e-5,0.88358 -0.7163227,1.59986 -1.5999023,1.59991 -0.8835796,-5e-5 -1.5998527,-0.71633 -1.5999024,-1.59991 5.52e-5,-0.88358 0.7163267,-1.59985 1.5999024,-1.5999 z m 80.356335,0 c 0.883576,5e-5 1.599848,0.71632 1.599903,1.5999 -5e-5,0.88358 -0.716323,1.59986 -1.599903,1.59991 -0.883781,2.3e-4 -1.600369,-0.71613 -1.600419,-1.59991 5.5e-5,-0.88378 0.716642,-1.60013 1.600419,-1.5999 z M 17.58704,19.10633 H 36.586914 V 38.10672 H 17.58704 Z m 40.723612,1.30018 c 4.528734,-10e-6 8.200023,3.67129 8.200017,8.20001 1.1e-5,4.52875 -3.67128,8.20003 -8.200017,8.20002 -4.528734,1e-5 -8.200027,-3.67127 -8.200016,-8.20002 -6e-6,-4.52872 3.671286,-8.20002 8.200016,-8.20001 z M 45.990474,50.61138 H 64.990348 V 69.61125 H 45.990474 Z m 33.723006,1.78956 a 7.7499995,7.7499995 0 0 1 7.749915,7.74991 7.7499995,7.7499995 0 0 1 -7.749915,7.75043 7.7499995,7.7499995 0 0 1 -7.749914,-7.75043 7.7499995,7.7499995 0 0 1 7.749914,-7.74991 z m -68.667126,0.0517 a 7.7499995,7.7499995 0 0 1 7.749914,7.74992 7.7499995,7.7499995 0 0 1 -7.749914,7.75043 7.7499995,7.7499995 0 0 1 -7.7504312,-7.75043 7.7499995,7.7499995 0 0 1 7.7504312,-7.74992 z m 23.818701,0 a 7.7499995,7.7499995 0 0 1 7.749915,7.74992 7.7499995,7.7499995 0 0 1 -7.749915,7.75043 7.7499995,7.7499995 0 0 1 -7.749914,-7.75043 7.7499995,7.7499995 0 0 1 7.749914,-7.74992 z M 58.29825,70.19885 H 77.298124 V 89.19924 H 58.29825 Z m -45.371907,0.62063 h 19.00039 V 89.81935 H 12.926343 Z M 35.648987,90.91644 H 54.64886 v 18.99988 H 35.648987 Z M 4.970756,103.78746 c 0.8835796,5e-5 1.5998526,0.71633 1.5999023,1.59991 -5.52e-5,0.88355 -0.7163266,1.59985 -1.5999023,1.5999 -0.8835757,-5e-5 -1.5998472,-0.71635 -1.5999024,-1.5999 4.97e-5,-0.88358 0.7163228,-1.59986 1.5999024,-1.59991 z m 80.356335,0 c 0.88358,5e-5 1.599853,0.71633 1.599903,1.59991 -5.5e-5,0.88355 -0.716327,1.59985 -1.599903,1.5999 -0.883777,2.3e-4 -1.600364,-0.71615 -1.600419,-1.5999 5e-5,-0.88378 0.716638,-1.60014 1.600419,-1.59991 z" />
  </g>
</svg>
