<?xml version="1.0" encoding="UTF-8" standalone="no"?>
<!-- Created with Inkscape (http://www.inkscape.org/) -->

<svg
   width="90.000191mm"
   height="120.00043mm"
   viewBox="0 0 90.000191 120.00043"
   version="1.1"
   id="svg66854"
   inkscape:version="1.2.2 (b0a8486, 2022-12-01)"
   sodipodi:docname="2mm-White-Front_Leyer.svg"
   xmlns:inkscape="http://www.inkscape.org/namespaces/inkscape"
   xmlns:sodipodi="http://sodipodi.sourceforge.net/DTD/sodipodi-0.dtd"
   xmlns="http://www.w3.org/2000/svg"
   xmlns:svg="http://www.w3.org/2000/svg">
  <sodipodi:namedview
     id="namedview66856"
     pagecolor="#ffffff"
     bordercolor="#666666"
     borderopacity="1.0"
     inkscape:showpageshadow="2"
     inkscape:pageopacity="0.0"
     inkscape:pagecheckerboard="0"
     inkscape:deskcolor="#d1d1d1"
     inkscape:document-units="mm"
     showgrid="false"
     inkscape:zoom="1.8194308"
     inkscape:cx="169.83333"
     inkscape:cy="227.26888"
     inkscape:current-layer="layer1" />
  <defs
     id="defs66851" />
  <g
     inkscape:label="Capa 1"
     inkscape:groupmode="layer"
     id="layer1"
     transform="translate(119.90078,-124.21497)">
    <path
       id="rect10964"
       style="display:inline;fill:none;fill-opacity:1;stroke:#000000;stroke-width:0.08;stroke-miterlimit:10;stroke-dasharray:none"
       inkscape:label="White Acrylic"
       d="m -109.92258,124.21497 v 4.99969 c 1.2e-4,2.76139 -2.23355,5.00005 -4.98884,5.00022 h -4.98936 v 100.00061 h 4.98936 c 2.75529,1.7e-4 4.98896,2.23895 4.98884,5.00021 v 4.9997 h 70.043789 v -4.9997 c -1.16e-4,-2.76126 2.23355,-5.00005 4.988842,-5.00021 h 4.98936 V 134.21488 h -4.98936 c -2.755292,-1.7e-4 -4.988958,-2.23883 -4.988842,-5.00022 v -4.99969 z m -5.00744,13.11341 a 1.6,1.6 0 0 1 1.5999,1.5999 1.6,1.6 0 0 1 -1.5999,1.59991 1.6,1.6 0 0 1 -1.59991,-1.59991 1.6,1.6 0 0 1 1.59991,-1.5999 z m 80.356331,0 a 1.6,1.6 0 0 1 1.599903,1.5999 1.6,1.6 0 0 1 -1.599903,1.59991 1.6,1.6 0 0 1 -1.600419,-1.59991 1.6,1.6 0 0 1 1.600419,-1.5999 z m -67.740051,5.99292 h 18.999874 v 19.00039 h -18.999874 z m 40.723612,1.30018 a 8.1999998,8.1999998 0 0 1 8.200017,8.20001 8.1999998,8.1999998 0 0 1 -8.200017,8.20002 8.1999998,8.1999998 0 0 1 -8.200016,-8.20002 8.1999998,8.1999998 0 0 1 8.200016,-8.20001 z m -12.320178,30.20487 h 18.999874 v 18.99987 h -18.999874 z m 33.723006,1.98954 a 7.5500002,7.5500002 0 0 1 7.549927,7.54993 7.5500002,7.5500002 0 0 1 -7.549927,7.55044 7.5500002,7.5500002 0 0 1 -7.549926,-7.55044 7.5500002,7.5500002 0 0 1 7.549926,-7.54993 z m -68.66713,0.0517 a 7.5500002,7.5500002 0 0 1 7.54993,7.54993 7.5500002,7.5500002 0 0 1 -7.54993,7.55044 7.5500002,7.5500002 0 0 1 -7.55044,-7.55044 7.5500002,7.5500002 0 0 1 7.55044,-7.54993 z m 23.818705,0 a 7.5500002,7.5500002 0 0 1 7.549927,7.54993 7.5500002,7.5500002 0 0 1 -7.549927,7.55044 7.5500002,7.5500002 0 0 1 -7.549927,-7.55044 7.5500002,7.5500002 0 0 1 7.549927,-7.54993 z m 23.433195,17.54622 h 18.999874 V 213.4142 H -61.60253 Z m -45.37191,0.62063 h 19.000393 v 18.99987 h -19.000393 z m 22.722647,20.09697 h 18.999873 v 18.99988 h -18.999873 z m -30.678227,12.87102 a 1.6,1.6 0 0 1 1.5999,1.59992 1.6,1.6 0 0 1 -1.5999,1.59989 1.6,1.6 0 0 1 -1.59991,-1.59989 1.6,1.6 0 0 1 1.59991,-1.59992 z m 80.356331,0 a 1.6,1.6 0 0 1 1.599903,1.59992 1.6,1.6 0 0 1 -1.599903,1.59989 1.6,1.6 0 0 1 -1.600419,-1.59989 1.6,1.6 0 0 1 1.600419,-1.59992 z" />
  </g>
</svg>
