<?xml version="1.0" encoding="UTF-8" standalone="no"?>
<!-- Created with Inkscape (http://www.inkscape.org/) -->

<svg
   width="89.999939mm"
   height="119.99965mm"
   viewBox="0 0 89.999939 119.99965"
   version="1.1"
   id="svg60858"
   inkscape:version="1.2.2 (b0a8486, 2022-12-01)"
   sodipodi:docname="3mm-Translucent-Middle_Layer.svg"
   xmlns:inkscape="http://www.inkscape.org/namespaces/inkscape"
   xmlns:sodipodi="http://sodipodi.sourceforge.net/DTD/sodipodi-0.dtd"
   xmlns="http://www.w3.org/2000/svg"
   xmlns:svg="http://www.w3.org/2000/svg">
  <sodipodi:namedview
     id="namedview60860"
     pagecolor="#ffffff"
     bordercolor="#666666"
     borderopacity="1.0"
     inkscape:showpageshadow="2"
     inkscape:pageopacity="0.0"
     inkscape:pagecheckerboard="0"
     inkscape:deskcolor="#d1d1d1"
     inkscape:document-units="mm"
     showgrid="false"
     inkscape:zoom="1.8194426"
     inkscape:cx="169.83223"
     inkscape:cy="227.2674"
     inkscape:current-layer="layer1" />
  <defs
     id="defs60855" />
  <g
     inkscape:label="Capa 1"
     inkscape:groupmode="layer"
     id="layer1"
     transform="translate(11.74291,-121.90183)">
    <path
       id="path10977"
       style="display:inline;opacity:0.89887;fill:none;stroke:#000000;stroke-width:0.1;stroke-miterlimit:10;stroke-dasharray:none"
       inkscape:label="Translucent Acrylic"
       d="m -1.7069563,121.95183 v 4.99556 c 1.161e-4,2.75895 -2.235421,4.9959 -4.9929769,4.99607 H -11.69291 v 99.9169 h 4.9929768 c 2.7575559,1.7e-4 4.993093,2.237 4.9929769,4.99608 v 4.99504 H 68.220558 v -4.99504 c -1.16e-4,-2.75908 2.235423,-4.99591 4.992977,-4.99608 h 4.993494 v -99.9169 h -4.993494 c -2.757554,-1.7e-4 -4.993093,-2.23712 -4.992977,-4.99607 v -4.99556 z m -5.0653239,13.06328 a 1.6,1.6 0 0 1 1.5999023,1.5999 1.6,1.6 0 0 1 -1.5999023,1.59991 1.6,1.6 0 0 1 -1.5999024,-1.59991 1.6,1.6 0 0 1 1.5999024,-1.5999 z m 80.3563352,0 a 1.6,1.6 0 0 1 1.599903,1.5999 1.6,1.6 0 0 1 -1.599903,1.59991 1.6,1.6 0 0 1 -1.600419,-1.59991 1.6,1.6 0 0 1 1.600419,-1.5999 z m -67.740051,5.99292 h 18.999874 v 19.00039 H 5.844004 Z m 40.723612,1.30018 a 8.1999998,8.1999998 0 0 1 8.200017,8.20001 8.1999998,8.1999998 0 0 1 -8.200017,8.20002 8.1999998,8.1999998 0 0 1 -8.200016,-8.20002 8.1999998,8.1999998 0 0 1 8.200016,-8.20001 z m -12.320178,30.20487 h 18.999874 v 18.99987 H 34.247438 Z m 33.723006,1.98954 a 7.5500002,7.5500002 0 0 1 7.549927,7.54993 7.5500002,7.5500002 0 0 1 -7.549927,7.55044 7.5500002,7.5500002 0 0 1 -7.549926,-7.55044 7.5500002,7.5500002 0 0 1 7.549926,-7.54993 z m -68.667126,0.0517 a 7.5500002,7.5500002 0 0 1 7.549927,7.54993 7.5500002,7.5500002 0 0 1 -7.549927,7.55044 7.5500002,7.5500002 0 0 1 -7.5504436,-7.55044 7.5500002,7.5500002 0 0 1 7.5504436,-7.54993 z m 23.818701,0 a 7.5500002,7.5500002 0 0 1 7.549927,7.54993 7.5500002,7.5500002 0 0 1 -7.549927,7.55044 7.5500002,7.5500002 0 0 1 -7.549927,-7.55044 7.5500002,7.5500002 0 0 1 7.549927,-7.54993 z m 23.433195,17.54622 h 18.999874 v 19.00039 H 46.555214 Z m -45.371907,0.62063 h 19.00039 v 18.99987 H 1.183307 Z m 22.722644,20.09696 h 18.999873 v 18.99988 H 23.905951 Z m -30.6782312,12.87103 a 1.6,1.6 0 0 1 1.5999023,1.59991 1.6,1.6 0 0 1 -1.5999023,1.5999 1.6,1.6 0 0 1 -1.5999024,-1.5999 1.6,1.6 0 0 1 1.5999024,-1.59991 z m 80.3563352,0 a 1.6,1.6 0 0 1 1.599903,1.59991 1.6,1.6 0 0 1 -1.599903,1.5999 1.6,1.6 0 0 1 -1.600419,-1.5999 1.6,1.6 0 0 1 1.600419,-1.59991 z" />
  </g>
</svg>
