<?xml version="1.0" encoding="UTF-8" standalone="no"?>
<!-- Created with Inkscape (http://www.inkscape.org/) -->

<svg
   width="89.999893mm"
   height="97.999916mm"
   viewBox="0 0 89.999893 97.999916"
   version="1.1"
   id="svg5176"
   inkscape:version="1.2.2 (b0a8486, 2022-12-01)"
   sodipodi:docname="3mm-Black-Microcontroller_Layer.svg"
   xmlns:inkscape="http://www.inkscape.org/namespaces/inkscape"
   xmlns:sodipodi="http://sodipodi.sourceforge.net/DTD/sodipodi-0.dtd"
   xmlns="http://www.w3.org/2000/svg"
   xmlns:svg="http://www.w3.org/2000/svg">
  <sodipodi:namedview
     id="namedview5178"
     pagecolor="#ffffff"
     bordercolor="#666666"
     borderopacity="1.0"
     inkscape:showpageshadow="2"
     inkscape:pageopacity="0.0"
     inkscape:pagecheckerboard="0"
     inkscape:deskcolor="#d1d1d1"
     inkscape:document-units="mm"
     showgrid="false"
     inkscape:zoom="3.1507042"
     inkscape:cx="170.1207"
     inkscape:cy="185.19669"
     inkscape:current-layer="layer1" />
  <defs
     id="defs5173" />
  <g
     inkscape:label="Capa 1"
     inkscape:groupmode="layer"
     id="layer1"
     transform="translate(-1.510008e-4,-10.999996)">
    <path
       id="rect11527-5"
       style="display:inline;fill:none;fill-opacity:1;stroke:#000000;stroke-width:0.072045;stroke-linecap:round;stroke-miterlimit:4;stroke-dasharray:none"
       d="M 0.0361735,11.036018 V 108.96389 H 89.964018 V 11.036018 Z M 4.970756,13.11341 A 1.6,1.6 0 0 1 6.5706584,14.713313 1.6,1.6 0 0 1 4.970756,16.313215 1.6,1.6 0 0 1 3.3708537,14.713313 1.6,1.6 0 0 1 4.970756,13.11341 Z m 80.356335,0 a 1.6,1.6 0 0 1 1.599903,1.599903 1.6,1.6 0 0 1 -1.599903,1.599902 1.6,1.6 0 0 1 -1.600419,-1.599902 1.6,1.6 0 0 1 1.600419,-1.599903 z m -40.327254,0.926559 a 1.6,1.6 0 0 1 1.599903,1.599902 1.6,1.6 0 0 1 -1.599903,1.599903 1.6,1.6 0 0 1 -1.599902,-1.599903 1.6,1.6 0 0 1 1.599902,-1.599902 z m 24.32358,74.934961 h 17.999935 v 9.999906 H 69.323417 Z m -24.32358,13.88494 a 1.6,1.6 0 0 1 1.599903,1.5999 1.6,1.6 0 0 1 -1.599903,1.60042 1.6,1.6 0 0 1 -1.599902,-1.60042 1.6,1.6 0 0 1 1.599902,-1.5999 z m -40.029081,0.92759 a 1.6,1.6 0 0 1 1.5999024,1.59991 1.6,1.6 0 0 1 -1.5999024,1.5999 1.6,1.6 0 0 1 -1.5999023,-1.5999 1.6,1.6 0 0 1 1.5999023,-1.59991 z m 80.356335,0 a 1.6,1.6 0 0 1 1.599903,1.59991 1.6,1.6 0 0 1 -1.599903,1.5999 1.6,1.6 0 0 1 -1.600419,-1.5999 1.6,1.6 0 0 1 1.600419,-1.59991 z" />
  </g>
</svg>
