<?xml version="1.0" encoding="UTF-8" standalone="no"?>
<!-- Created with Inkscape (http://www.inkscape.org/) -->

<svg
   width="89.999939mm"
   height="119.99965mm"
   viewBox="0 0 89.999939 119.99965"
   version="1.1"
   id="svg8657"
   inkscape:version="1.2.2 (b0a8486, 2022-12-01)"
   sodipodi:docname="3mm-Translucent-Middle_Layer.svg"
   xmlns:inkscape="http://www.inkscape.org/namespaces/inkscape"
   xmlns:sodipodi="http://sodipodi.sourceforge.net/DTD/sodipodi-0.dtd"
   xmlns="http://www.w3.org/2000/svg"
   xmlns:svg="http://www.w3.org/2000/svg">
  <sodipodi:namedview
     id="namedview8659"
     pagecolor="#ffffff"
     bordercolor="#666666"
     borderopacity="1.0"
     inkscape:showpageshadow="2"
     inkscape:pageopacity="0.0"
     inkscape:pagecheckerboard="0"
     inkscape:deskcolor="#d1d1d1"
     inkscape:document-units="mm"
     showgrid="false"
     inkscape:zoom="2.5730804"
     inkscape:cx="170.22398"
     inkscape:cy="226.77099"
     inkscape:current-layer="layer1" />
  <defs
     id="defs8654" />
  <g
     inkscape:label="Capa 1"
     inkscape:groupmode="layer"
     id="layer1"
     transform="translate(-1.2613925e-4,-1.2999925e-4)">
    <path
       id="path10977"
       style="display:inline;opacity:0.89887;fill:none;stroke:#000000;stroke-width:0.1;stroke-miterlimit:10;stroke-dasharray:none"
       inkscape:label="Translucent Acrylic"
       d="m 10.03608,0.05013 v 4.99556 c 1.16e-4,2.75892 -2.2354295,4.9959 -4.992977,4.99607 H 0.05012614 v 99.9169 H 5.043103 c 2.7575475,1.7e-4 4.993093,2.237 4.992977,4.99608 v 4.99504 h 69.927514 v -4.99504 c -1.16e-4,-2.75908 2.235432,-4.99591 4.992977,-4.99608 h 4.993494 V 10.04176 H 84.956571 C 82.199026,10.04159 79.963478,7.80461 79.963594,5.04569 V 0.05013 Z M 4.970756,13.11341 a 1.6,1.6 0 0 1 1.5999023,1.5999 1.6,1.6 0 0 1 -1.5999023,1.59991 1.6,1.6 0 0 1 -1.5999024,-1.59991 1.6,1.6 0 0 1 1.5999024,-1.5999 z m 80.356335,0 a 1.6,1.6 0 0 1 1.599903,1.5999 1.6,1.6 0 0 1 -1.599903,1.59991 1.6,1.6 0 0 1 -1.600419,-1.59991 1.6,1.6 0 0 1 1.600419,-1.5999 z M 17.58704,19.10633 H 36.586914 V 38.10672 H 17.58704 Z m 40.723612,1.30018 a 8.1999998,8.1999998 0 0 1 8.200017,8.20001 8.1999998,8.1999998 0 0 1 -8.200017,8.20002 8.1999998,8.1999998 0 0 1 -8.200016,-8.20002 8.1999998,8.1999998 0 0 1 8.200016,-8.20001 z M 45.990474,50.61138 H 64.990348 V 69.61125 H 45.990474 Z m 33.723006,1.78956 a 7.7499995,7.7499995 0 0 1 7.749915,7.74991 7.7499995,7.7499995 0 0 1 -7.749915,7.75043 7.7499995,7.7499995 0 0 1 -7.749914,-7.75043 7.7499995,7.7499995 0 0 1 7.749914,-7.74991 z m -68.667126,0.0517 a 7.7499995,7.7499995 0 0 1 7.749914,7.74992 7.7499995,7.7499995 0 0 1 -7.749914,7.75043 7.7499995,7.7499995 0 0 1 -7.7504312,-7.75043 7.7499995,7.7499995 0 0 1 7.7504312,-7.74992 z m 23.818701,0 a 7.7499995,7.7499995 0 0 1 7.749915,7.74992 7.7499995,7.7499995 0 0 1 -7.749915,7.75043 7.7499995,7.7499995 0 0 1 -7.749914,-7.75043 7.7499995,7.7499995 0 0 1 7.749914,-7.74992 z M 58.29825,70.19885 H 77.298124 V 89.19924 H 58.29825 Z m -45.371907,0.62063 h 19.00039 V 89.81935 H 12.926343 Z M 35.648987,90.91644 H 54.64886 v 18.99988 H 35.648987 Z M 4.970756,103.78746 a 1.6,1.6 0 0 1 1.5999023,1.59991 1.6,1.6 0 0 1 -1.5999023,1.5999 1.6,1.6 0 0 1 -1.5999024,-1.5999 1.6,1.6 0 0 1 1.5999024,-1.59991 z m 80.356335,0 a 1.6,1.6 0 0 1 1.599903,1.59991 1.6,1.6 0 0 1 -1.599903,1.5999 1.6,1.6 0 0 1 -1.600419,-1.5999 1.6,1.6 0 0 1 1.600419,-1.59991 z" />
  </g>
</svg>
