<?xml version="1.0" encoding="UTF-8" standalone="no"?>
<!-- Created with Inkscape (http://www.inkscape.org/) -->

<svg
   width="89.999939mm"
   height="119.99965mm"
   viewBox="0 0 89.999939 119.99965"
   version="1.1"
   id="svg24150"
   inkscape:version="1.2.2 (b0a8486, 2022-12-01)"
   sodipodi:docname="3mm-Translucent-Middle_Layer.svg"
   xmlns:inkscape="http://www.inkscape.org/namespaces/inkscape"
   xmlns:sodipodi="http://sodipodi.sourceforge.net/DTD/sodipodi-0.dtd"
   xmlns="http://www.w3.org/2000/svg"
   xmlns:svg="http://www.w3.org/2000/svg">
  <sodipodi:namedview
     id="namedview24152"
     pagecolor="#ffffff"
     bordercolor="#666666"
     borderopacity="1.0"
     inkscape:showpageshadow="2"
     inkscape:pageopacity="0.0"
     inkscape:pagecheckerboard="0"
     inkscape:deskcolor="#d1d1d1"
     inkscape:document-units="mm"
     showgrid="false"
     inkscape:zoom="2.5730804"
     inkscape:cx="170.22398"
     inkscape:cy="226.77099"
     inkscape:current-layer="layer1" />
  <defs
     id="defs24147" />
  <g
     inkscape:label="Capa 1"
     inkscape:groupmode="layer"
     id="layer1"
     transform="translate(-1.2613925e-4,-1.2999925e-4)">
    <path
       id="path10977"
       style="display:inline;opacity:0.89887;fill:none;stroke:#000000;stroke-width:0.1;stroke-miterlimit:10;stroke-dasharray:none"
       inkscape:label="Translucent Acrylic"
       d="m 10.03608,0.05013 v 4.99556 c 1.16e-4,2.75876 -2.2354728,4.9959 -4.992977,4.99607 H 0.05012614 v 99.9169 H 5.043103 c 2.7575042,1.7e-4 4.993093,2.237 4.992977,4.99608 v 4.99504 h 69.927514 v -4.99504 c -1.16e-4,-2.75908 2.23548,-4.99591 4.992977,-4.99608 h 4.993494 V 10.04176 H 84.956571 C 82.199074,10.04159 79.963478,7.80445 79.963594,5.04569 V 0.05013 Z M 45.908826,10.38386 H 70.788961 V 49.5639 h -5.760372 v 1.08572 3.35742 14.34176 1.3007 0.58756 H 77.336365 V 89.23693 H 58.336491 V 73.34694 70.23706 69.6495 H 46.028198 V 54.00704 l -0.077,-4.44314 h -0.04237 V 47.11805 Z M 5.0089966,13.15114 c 0.8835766,5e-5 1.5998471,0.71632 1.5999023,1.5999 -5.52e-5,0.88358 -0.7163257,1.59985 -1.5999023,1.5999 -0.8835767,-5e-5 -1.5998471,-0.71632 -1.5999024,-1.5999 5.53e-5,-0.88358 0.7163257,-1.59985 1.5999024,-1.5999 z m 80.3558184,0 c 0.883577,5e-5 1.599847,0.71632 1.599903,1.5999 -5.6e-5,0.88358 -0.716326,1.59985 -1.599903,1.5999 -0.883576,-5e-5 -1.599847,-0.71633 -1.599902,-1.5999 5.5e-5,-0.88358 0.716326,-1.59985 1.599902,-1.5999 z M 17.625281,19.14457 H 36.625155 V 38.14444 H 17.625281 Z m -6.541203,33.34628 c 4.280134,5e-5 7.749871,3.46978 7.749914,7.74992 -4.9e-5,4.28012 -3.469784,7.74986 -7.749914,7.74991 -4.2801301,-4e-5 -7.7498652,-3.46979 -7.7499146,-7.74991 4.39e-5,-4.28014 3.4697806,-7.74987 7.7499146,-7.74992 z m 23.819218,0 c 4.280134,5e-5 7.74987,3.46978 7.749914,7.74992 -4.9e-5,4.28012 -3.469784,7.74986 -7.749914,7.74991 -4.280131,-4e-5 -7.749865,-3.46979 -7.749915,-7.74991 4.4e-5,-4.28014 3.469781,-7.74987 7.749915,-7.74992 z m 44.847908,1.53583 c 4.280131,4e-5 7.749865,3.46979 7.749915,7.74991 -4.4e-5,4.28014 -3.46978,7.74987 -7.749915,7.74992 -4.280132,-5e-5 -7.74987,-3.46978 -7.749914,-7.74992 4.9e-5,-4.28012 3.469785,-7.74987 7.749914,-7.74991 z M 12.964583,70.85717 H 31.964457 V 89.85756 H 12.964583 Z m 22.722128,20.09748 h 19.00039 v 18.99988 H 35.686711 Z M 5.0089966,103.82519 c 0.8835766,5e-5 1.5998471,0.71632 1.5999023,1.5999 -5.52e-5,0.88358 -0.7163257,1.59985 -1.5999023,1.5999 -0.8835767,-5e-5 -1.5998471,-0.71632 -1.5999024,-1.5999 5.53e-5,-0.88358 0.7163257,-1.59985 1.5999024,-1.5999 z m 80.3558184,0 c 0.883577,5e-5 1.599847,0.71632 1.599903,1.5999 -5.6e-5,0.88358 -0.716326,1.59985 -1.599903,1.5999 -0.883576,-5e-5 -1.599847,-0.71632 -1.599902,-1.5999 5.5e-5,-0.88358 0.716326,-1.59985 1.599902,-1.5999 z" />
  </g>
</svg>
