<?xml version="1.0" encoding="UTF-8" standalone="no"?>
<!-- Created with Inkscape (http://www.inkscape.org/) -->

<svg
   width="89.999893mm"
   height="119.99961mm"
   viewBox="0 0 89.999893 119.99961"
   version="1.1"
   id="svg21411"
   inkscape:version="1.2.2 (b0a8486, 2022-12-01)"
   sodipodi:docname="3mm-Black-Back_Layer.svg"
   xmlns:inkscape="http://www.inkscape.org/namespaces/inkscape"
   xmlns:sodipodi="http://sodipodi.sourceforge.net/DTD/sodipodi-0.dtd"
   xmlns="http://www.w3.org/2000/svg"
   xmlns:svg="http://www.w3.org/2000/svg">
  <sodipodi:namedview
     id="namedview21413"
     pagecolor="#ffffff"
     bordercolor="#666666"
     borderopacity="1.0"
     inkscape:showpageshadow="2"
     inkscape:pageopacity="0.0"
     inkscape:pagecheckerboard="0"
     inkscape:deskcolor="#d1d1d1"
     inkscape:document-units="mm"
     showgrid="false"
     inkscape:zoom="2.5730813"
     inkscape:cx="170.22393"
     inkscape:cy="226.77092"
     inkscape:current-layer="layer1" />
  <defs
     id="defs21408" />
  <g
     inkscape:label="Capa 1"
     inkscape:groupmode="layer"
     id="layer1"
     transform="translate(-1.4879915e-4,-1.5529915e-4)">
    <path
       id="rect11527"
       style="display:inline;fill:none;fill-opacity:1;stroke:#000000;stroke-width:0.0720494;stroke-linecap:round;stroke-miterlimit:4;stroke-dasharray:none"
       d="M 0.0361735,0.03618 V 119.96374 H 89.964017 V 0.03618 Z M 4.7495809,3.44992 A 1.6,1.6 0 0 1 6.3494832,5.04983 1.6,1.6 0 0 1 4.7495809,6.64973 1.6,1.6 0 0 1 3.1496785,5.04983 1.6,1.6 0 0 1 4.7495809,3.44992 Z m 80.5005121,0 a 1.6,1.6 0 0 1 1.599902,1.59991 1.6,1.6 0 0 1 -1.599902,1.5999 1.6,1.6 0 0 1 -1.599902,-1.5999 1.6,1.6 0 0 1 1.599902,-1.59991 z M 5.0089965,13.15114 a 1.6,1.6 0 0 1 1.5999024,1.5999 1.6,1.6 0 0 1 -1.5999024,1.59991 1.6,1.6 0 0 1 -1.5999023,-1.59991 1.6,1.6 0 0 1 1.5999023,-1.5999 z m 80.3558185,0 a 1.6,1.6 0 0 1 1.599902,1.5999 1.6,1.6 0 0 1 -1.599902,1.59991 1.6,1.6 0 0 1 -1.599903,-1.59991 1.6,1.6 0 0 1 1.599903,-1.5999 z m -27.015922,7.29361 a 8.1999998,8.1999998 0 0 1 8.200016,8.1995 8.1999998,8.1999998 0 0 1 -8.200016,8.20002 8.1999998,8.1999998 0 0 1 -8.200016,-8.20002 8.1999998,8.1999998 0 0 1 8.200016,-8.1995 z M 20.124869,21.64468 H 34.125048 V 35.64434 H 20.124869 Z M 48.528304,53.14973 H 62.528483 V 67.14939 H 48.528304 Z m -37.444226,3.79099 a 3.5,3.5 0 0 1 3.500044,3.50004 3.5,3.5 0 0 1 -3.500044,3.50005 3.5,3.5 0 0 1 -3.5000448,-3.50005 3.5,3.5 0 0 1 3.5000448,-3.50004 z m 23.819217,0 a 3.5,3.5 0 0 1 3.500045,3.50004 3.5,3.5 0 0 1 -3.500045,3.50005 3.5,3.5 0 0 1 -3.500044,-3.50005 3.5,3.5 0 0 1 3.500044,-3.50004 z m 44.847909,1.53582 a 3.5,3.5 0 0 1 3.500045,3.50004 3.5,3.5 0 0 1 -3.500045,3.50005 3.5,3.5 0 0 1 -3.500045,-3.50005 3.5,3.5 0 0 1 3.500045,-3.50004 z m -69.667065,7.76438 h 1.999877 v 0.99994 h -1.999877 z m 23.819217,0 h 1.999878 v 0.99994 h -1.999878 z m 44.847909,1.53583 h 1.999878 v 0.99994 h -1.999878 z m -17.915186,4.96042 h 14.00018 v 13.99966 h -14.00018 z m -45.37139,0.62011 H 29.464351 V 87.35746 H 15.464689 Z m 22.722127,20.09749 h 14.000179 v 13.99966 H 38.186816 Z M 5.0089965,103.82519 a 1.6,1.6 0 0 1 1.5999024,1.5999 1.6,1.6 0 0 1 -1.5999024,1.59991 1.6,1.6 0 0 1 -1.5999023,-1.59991 1.6,1.6 0 0 1 1.5999023,-1.5999 z m 80.3558185,0 a 1.6,1.6 0 0 1 1.599902,1.5999 1.6,1.6 0 0 1 -1.599902,1.59991 1.6,1.6 0 0 1 -1.599903,-1.59991 1.6,1.6 0 0 1 1.599903,-1.5999 z m -80.6152341,9.62474 a 1.6,1.6 0 0 1 1.5999023,1.5999 1.6,1.6 0 0 1 -1.5999023,1.5999 1.6,1.6 0 0 1 -1.5999024,-1.5999 1.6,1.6 0 0 1 1.5999024,-1.5999 z m 80.5005121,0 a 1.6,1.6 0 0 1 1.599902,1.5999 1.6,1.6 0 0 1 -1.599902,1.5999 1.6,1.6 0 0 1 -1.599902,-1.5999 1.6,1.6 0 0 1 1.599902,-1.5999 z" />
  </g>
</svg>
