<?xml version="1.0" encoding="UTF-8" standalone="no"?>
<!-- Created with Inkscape (http://www.inkscape.org/) -->

<svg
   width="89.999893mm"
   height="119.99962mm"
   viewBox="0 0 89.999893 119.99962"
   version="1.1"
   id="svg56314"
   inkscape:version="1.2.2 (b0a8486, 2022-12-01)"
   sodipodi:docname="3mm-Black-Back_Layer.svg"
   xmlns:inkscape="http://www.inkscape.org/namespaces/inkscape"
   xmlns:sodipodi="http://sodipodi.sourceforge.net/DTD/sodipodi-0.dtd"
   xmlns="http://www.w3.org/2000/svg"
   xmlns:svg="http://www.w3.org/2000/svg">
  <sodipodi:namedview
     id="namedview56316"
     pagecolor="#ffffff"
     bordercolor="#666666"
     borderopacity="1.0"
     inkscape:showpageshadow="2"
     inkscape:pageopacity="0.0"
     inkscape:pagecheckerboard="0"
     inkscape:deskcolor="#d1d1d1"
     inkscape:document-units="mm"
     showgrid="false"
     inkscape:zoom="1.8194431"
     inkscape:cx="169.83219"
     inkscape:cy="227.26734"
     inkscape:current-layer="layer1" />
  <defs
     id="defs56311" />
  <g
     inkscape:label="Capa 1"
     inkscape:groupmode="layer"
     id="layer1"
     transform="translate(73.340746,-105.9963)">
    <path
       id="rect11527"
       style="display:inline;fill:none;fill-opacity:1;stroke:#000000;stroke-width:0.0720494;stroke-linecap:round;stroke-miterlimit:4;stroke-dasharray:none"
       d="M -73.304721,106.03232 V 225.95989 H 16.623124 V 106.03232 Z m 4.713924,3.41375 c 0.883576,5e-5 1.599848,0.71632 1.599903,1.5999 2.32e-4,0.88378 -0.716124,1.60037 -1.599903,1.60042 -0.88398,2.3e-4 -1.600651,-0.71644 -1.600419,-1.60042 5.6e-5,-0.88378 0.716642,-1.60013 1.600419,-1.5999 z m 80.499996,0 c 0.883576,5e-5 1.599848,0.71632 1.599903,1.5999 2.32e-4,0.88378 -0.716124,1.60037 -1.599903,1.60042 -0.883778,-5e-5 -1.600134,-0.71664 -1.599902,-1.60042 5.5e-5,-0.88358 0.716327,-1.59985 1.599902,-1.5999 z m -80.279337,9.66349 c 0.883576,5e-5 1.599847,0.71632 1.599902,1.5999 -5e-5,0.88358 -0.716323,1.59986 -1.599902,1.59991 -0.88358,-5e-5 -1.599853,-0.71633 -1.599903,-1.59991 5.6e-5,-0.88358 0.716327,-1.59985 1.599903,-1.5999 z m 80.356335,0 c 0.883576,5e-5 1.599848,0.71632 1.599903,1.5999 -5e-5,0.88358 -0.716323,1.59986 -1.599903,1.59991 -0.883781,2.3e-4 -1.600369,-0.71613 -1.600419,-1.59991 5.5e-5,-0.88378 0.716642,-1.60013 1.600419,-1.5999 z m -27.016439,7.2931 a 8.1999998,8.1999998 0 0 1 8.200017,8.20001 8.1999998,8.1999998 0 0 1 -8.200017,8.20002 8.1999998,8.1999998 0 0 1 -8.200016,-8.20002 8.1999998,8.1999998 0 0 1 8.200016,-8.20001 z m -38.223506,1.19992 h 14.000179 v 14.00018 h -14.000179 z m 28.403434,31.50506 h 13.999662 v 14.00018 h -13.999662 z m 31.2229,3.73982 a 3.5,3.5 0 0 1 3.500045,3.49953 3.5,3.5 0 0 1 -3.500045,3.50004 3.5,3.5 0 0 1 -3.500044,-3.50004 3.5,3.5 0 0 1 3.500044,-3.49953 z m -68.667126,0.0517 c 1.932619,2.6e-4 3.499263,1.56693 3.499528,3.49952 2.8e-5,1.93283 -1.566702,3.49979 -3.499528,3.50005 -1.933028,2e-5 -3.500072,-1.56702 -3.500045,-3.50005 2.65e-4,-1.9328 1.567224,-3.49954 3.500045,-3.49952 z m 23.818701,0 c 1.932821,-2e-5 3.49978,1.56672 3.500045,3.49952 2.8e-5,1.93303 -1.567017,3.50007 -3.500045,3.50005 -1.933028,2e-5 -3.500073,-1.56702 -3.500045,-3.50005 2.65e-4,-1.9328 1.567224,-3.49954 3.500045,-3.49952 z m 43.848486,9.24801 h 1.999878 v 0.99994 H 5.372647 Z m -68.667643,0.0517 h 2.000395 v 0.99994 h -2.000395 z m 23.819218,0 h 1.999878 v 0.99994 h -1.999878 z m 26.93324,6.49624 H 1.457641 v 14.00014 h -14.000179 z m -45.371908,0.62064 h 14.000179 v 13.99966 h -14.000179 z m 22.722644,20.09696 h 13.999663 v 14.00014 h -13.999663 z m -33.178336,10.3709 c 0.883579,5e-5 1.599852,0.71633 1.599902,1.59991 -5.5e-5,0.88355 -0.716326,1.59985 -1.599902,1.5999 -0.883576,-5e-5 -1.599847,-0.71635 -1.599903,-1.5999 5e-5,-0.88358 0.716323,-1.59986 1.599903,-1.59991 z m 80.356335,0 c 0.88358,5e-5 1.599853,0.71633 1.599903,1.59991 -5.5e-5,0.88355 -0.716327,1.59985 -1.599903,1.5999 -0.883777,2.3e-4 -1.600364,-0.71615 -1.600419,-1.5999 5e-5,-0.88378 0.716638,-1.60014 1.600419,-1.59991 z m -80.576994,9.66246 c 0.88358,5e-5 1.599853,0.71633 1.599903,1.59991 -5.5e-5,0.88355 -0.716327,1.59985 -1.599903,1.5999 -0.883777,2.3e-4 -1.600363,-0.71615 -1.600419,-1.5999 5e-5,-0.88378 0.716638,-1.60014 1.600419,-1.59991 z m 80.499996,0 c 0.88358,5e-5 1.599853,0.71633 1.599903,1.59991 -5.5e-5,0.88355 -0.716327,1.59985 -1.599903,1.5999 -0.883575,-5e-5 -1.599847,-0.71635 -1.599902,-1.5999 5e-5,-0.88358 0.716323,-1.59986 1.599902,-1.59991 z" />
  </g>
</svg>
