<?xml version="1.0" encoding="UTF-8" standalone="no"?>
<!-- Created with Inkscape (http://www.inkscape.org/) -->

<svg
   width="125.03786mm"
   height="119.99992mm"
   viewBox="0 0 125.03786 119.99992"
   version="1.1"
   id="svg5781"
   inkscape:version="1.2.2 (b0a8486, 2022-12-01)"
   sodipodi:docname="engrave_NoVectorizedText.svg"
   xmlns:inkscape="http://www.inkscape.org/namespaces/inkscape"
   xmlns:sodipodi="http://sodipodi.sourceforge.net/DTD/sodipodi-0.dtd"
   xmlns="http://www.w3.org/2000/svg"
   xmlns:svg="http://www.w3.org/2000/svg">
  <sodipodi:namedview
     id="namedview5783"
     pagecolor="#ffffff"
     bordercolor="#666666"
     borderopacity="1.0"
     inkscape:showpageshadow="2"
     inkscape:pageopacity="0.0"
     inkscape:pagecheckerboard="0"
     inkscape:deskcolor="#d1d1d1"
     inkscape:document-units="mm"
     showgrid="false"
     inkscape:zoom="2.5730746"
     inkscape:cx="236.29319"
     inkscape:cy="226.77151"
     inkscape:current-layer="layer14-6" />
  <defs
     id="defs5778" />
  <g
     inkscape:label="Capa 1"
     inkscape:groupmode="layer"
     id="layer1"
     transform="translate(-2.5256038e-4,-2.5200038e-4)">
    <path
       id="rect3678"
       style="display:inline;fill:none;fill-opacity:1;stroke:#000000;stroke-width:0.075976;stroke-linecap:round;stroke-miterlimit:4;stroke-dasharray:none"
       d="m 10.038147,0.03824 v 4.99659 c -1.7e-4,2.75964 -2.2388872,4.99672 -5.0002117,4.9966 H 0.03824056 v 99.93705 H 5.0379353 c 2.7613245,-1.2e-4 5.0000417,2.23696 5.0002117,4.9966 v 4.99711 H 115.00022 v -4.99711 c 1.7e-4,-2.75964 2.23882,-4.99672 5.00021,-4.9966 h 4.99969 V 10.03143 h -4.99969 c -2.76139,1.2e-4 -5.00004,-2.23696 -5.00021,-4.9966 V 0.03824 Z m 14.702978,13.02453 a 1.6,1.6 0 0 1 1.599902,1.60042 1.6,1.6 0 0 1 -1.599902,1.5999 1.6,1.6 0 0 1 -1.599902,-1.5999 1.6,1.6 0 0 1 1.599902,-1.60042 z m 74.765979,0 a 1.6,1.6 0 0 1 1.600416,1.60042 1.6,1.6 0 0 1 -1.600416,1.5999 1.6,1.6 0 0 1 -1.599902,-1.5999 1.6,1.6 0 0 1 1.599902,-1.60042 z m -86.743026,3.03444 c 3.323943,0 6.000151,2.67615 6.000151,6.00015 v 9.99991 c 0,3.32381 -2.676208,6.00015 -6.000151,6.00015 -3.3239293,0 -5.9996331,-2.67634 -5.9996331,-6.00015 v -9.99991 c 0,-3.324 2.6757038,-6.00015 5.9996331,-6.00015 z m 24.877552,0 c 3.323928,0 6.00015,2.67615 6.00015,6.00015 v 9.99991 c 0,3.32382 -2.676222,6.00015 -6.00015,6.00015 -3.323946,0 -6.000151,-2.67633 -6.000151,-6.00015 v -9.99991 c 0,-3.324 2.676205,-6.00015 6.000151,-6.00015 z m 24.877551,0 c 3.323949,0 5.999634,2.67615 5.999634,6.00015 v 9.99991 c 0,3.32383 -2.675685,6.00015 -5.999634,6.00015 -3.323949,0 -6.000151,-2.67632 -6.000151,-6.00015 v -9.99991 c 0,-3.324 2.676202,-6.00015 6.000151,-6.00015 z m 24.877034,0 c 3.323952,0 6.000151,2.67615 6.000151,6.00015 v 9.99991 c 0,3.32384 -2.676199,6.00015 -6.000151,6.00015 -3.323936,0 -5.999633,-2.67631 -5.999633,-6.00015 v -9.99991 c 0,-3.324 2.675697,-6.00015 5.999633,-6.00015 z m 24.877555,0 c 3.32385,0 6.00015,2.67615 6.00015,6.00015 v 9.99991 c 0,3.32385 -2.6763,6.00015 -6.00015,6.00015 -3.324,0 -6.00015,-2.6763 -6.00015,-6.00015 v -9.99991 c 0,-3.324 2.67615,-6.00015 6.00015,-6.00015 z M 12.764078,49.43006 a 7.5500002,7.5500002 0 0 1 7.549927,7.54992 7.5500002,7.5500002 0 0 1 -7.549927,7.54993 7.5500002,7.5500002 0 0 1 -7.549926,-7.54993 7.5500002,7.5500002 0 0 1 7.549926,-7.54992 z m 24.877552,0 a 7.5500002,7.5500002 0 0 1 7.549926,7.54992 7.5500002,7.5500002 0 0 1 -7.549926,7.54993 7.5500002,7.5500002 0 0 1 -7.549927,-7.54993 7.5500002,7.5500002 0 0 1 7.549927,-7.54992 z m 24.877551,0 a 7.5500002,7.5500002 0 0 1 7.549927,7.54992 7.5500002,7.5500002 0 0 1 -7.549927,7.54993 7.5500002,7.5500002 0 0 1 -7.550444,-7.54993 7.5500002,7.5500002 0 0 1 7.550444,-7.54992 z m 24.877034,0 a 7.5500002,7.5500002 0 0 1 7.549927,7.54992 7.5500002,7.5500002 0 0 1 -7.549927,7.54993 7.5500002,7.5500002 0 0 1 -7.549926,-7.54993 7.5500002,7.5500002 0 0 1 7.549926,-7.54992 z m 24.877555,0 a 7.5500002,7.5500002 0 0 1 7.54992,7.54992 7.5500002,7.5500002 0 0 1 -7.54992,7.54993 7.5500002,7.5500002 0 0 1 -7.54993,-7.54993 7.5500002,7.5500002 0 0 1 7.54993,-7.54992 z M 28.141434,66.4068 H 47.141825 V 85.40667 H 28.141434 Z m 24.888404,0 h 19.00039 v 18.99987 h -19.00039 z m 24.88892,0 H 96.918632 V 85.40667 H 77.918758 Z m 24.888402,0 h 18.99987 V 85.40667 H 102.80716 Z M 3.2644002,77.25213 H 22.264274 V 96.25201 H 3.2644002 Z M 28.141434,88.114 h 19.000391 v 18.99988 H 28.141434 Z m 24.888404,0 h 19.00039 v 18.99988 h -19.00039 z m 24.88892,0 h 18.999874 v 18.99988 H 77.918758 Z m 24.888402,0 h 18.99987 v 18.99988 h -18.99987 z m -78.066035,15.62282 a 1.6,1.6 0 0 1 1.599902,1.60042 1.6,1.6 0 0 1 -1.599902,1.5999 1.6,1.6 0 0 1 -1.599902,-1.5999 1.6,1.6 0 0 1 1.599902,-1.60042 z m 74.765979,0 a 1.6,1.6 0 0 1 1.600416,1.60042 1.6,1.6 0 0 1 -1.600416,1.5999 1.6,1.6 0 0 1 -1.599902,-1.5999 1.6,1.6 0 0 1 1.599902,-1.60042 z" />
    <g
       inkscape:groupmode="layer"
       id="layer14-6"
       inkscape:label="Front Text"
       style="display:inline"
       transform="translate(0.49648531,-177)">
      <text
         xml:space="preserve"
         style="font-style:normal;font-weight:normal;font-size:3.52778px;line-height:1.25;font-family:sans-serif;text-align:center;letter-spacing:0px;word-spacing:0px;text-anchor:middle;display:inline;opacity:1;fill:#000000;fill-opacity:1;stroke:none;stroke-width:0.264583"
         x="111.9688"
         y="225.52907"
         id="text15098"
         inkscape:label="Throttle Text"><tspan
           id="tspan15096"
           sodipodi:role="line"
           x="111.9688"
           y="225.52907"
           style="font-style:normal;font-variant:normal;font-weight:normal;font-stretch:normal;font-size:2.82222px;font-family:'MS 33558';-inkscape-font-specification:'MS 33558, ';text-align:center;text-anchor:middle;fill:#000000;stroke-width:0.264583">Throttle</tspan></text>
      <rect
         style="display:inline;opacity:1;fill:none;fill-opacity:1;stroke:#000000;stroke-width:0.57599;stroke-linecap:round;stroke-miterlimit:10;stroke-dasharray:none"
         id="rect15092"
         width="20.548929"
         height="63.315929"
         x="101.50279"
         y="221.77002"
         ry="1.6598452"
         rx="1.5950849"
         inkscape:label="Throttle Boundary Line" />
      <text
         xml:space="preserve"
         style="font-style:normal;font-weight:normal;font-size:2.82222px;line-height:1.25;font-family:sans-serif;letter-spacing:0px;word-spacing:0px;display:inline;opacity:1;fill:#000000;fill-opacity:1;stroke:none;stroke-width:0.264583"
         x="108.71385"
         y="218.20499"
         id="text10841"
         inkscape:label="Off Thrusters Text"><tspan
           sodipodi:role="line"
           id="tspan10839"
           x="108.71385"
           y="218.20499"
           style="font-style:normal;font-variant:normal;font-weight:normal;font-stretch:normal;font-size:2.82222px;font-family:'MS 33558';-inkscape-font-specification:'MS 33558, ';fill:#000000;stroke-width:0.264583">OFF</tspan></text>
      <text
         id="text14373"
         y="192.73085"
         x="111.94773"
         style="font-style:normal;font-weight:normal;font-size:3.52778px;line-height:1.25;font-family:sans-serif;text-align:center;letter-spacing:0px;word-spacing:0px;text-anchor:middle;display:inline;opacity:1;fill:#000000;fill-opacity:1;stroke:none;stroke-width:0.264583"
         xml:space="preserve"
         inkscape:label="Thrusters Text"><tspan
           style="font-style:normal;font-variant:normal;font-weight:normal;font-stretch:normal;font-size:2.82222px;font-family:'MS 33558';-inkscape-font-specification:'MS 33558, ';text-align:center;text-anchor:middle;fill:#000000;stroke-width:0.264583"
           y="192.73085"
           x="111.94773"
           id="tspan14371"
           sodipodi:role="line">Thrusters</tspan><tspan
           y="197.14058"
           x="111.94773"
           sodipodi:role="line"
           id="tspan14375" /></text>
      <text
         id="text10837"
         y="218.20499"
         x="83.836472"
         style="font-style:normal;font-weight:normal;font-size:2.82222px;line-height:1.25;font-family:sans-serif;letter-spacing:0px;word-spacing:0px;display:inline;opacity:1;fill:#000000;fill-opacity:1;stroke:none;stroke-width:0.264583"
         xml:space="preserve"
         inkscape:label="Off Engines Text"><tspan
           style="font-style:normal;font-variant:normal;font-weight:normal;font-stretch:normal;font-size:2.82222px;font-family:'MS 33558';-inkscape-font-specification:'MS 33558, ';fill:#000000;stroke-width:0.264583"
           y="218.20499"
           x="83.836472"
           id="tspan10835"
           sodipodi:role="line">OFF</tspan></text>
      <text
         xml:space="preserve"
         style="font-style:normal;font-weight:normal;font-size:2.82222px;line-height:1.25;font-family:sans-serif;letter-spacing:0px;word-spacing:0px;display:inline;opacity:1;fill:#000000;fill-opacity:1;stroke:none;stroke-width:0.264583"
         x="80.122971"
         y="192.73686"
         id="text14369"
         inkscape:label="Engines Text"><tspan
           sodipodi:role="line"
           id="tspan14367"
           x="80.122971"
           y="192.73686"
           style="font-style:normal;font-variant:normal;font-weight:normal;font-stretch:normal;font-size:2.82222px;font-family:'MS 33558';-inkscape-font-specification:'MS 33558, ';fill:#000000;stroke-width:0.264583">Engines</tspan></text>
      <text
         xml:space="preserve"
         style="font-style:normal;font-weight:normal;font-size:2.82222px;line-height:1.25;font-family:sans-serif;letter-spacing:0px;word-spacing:0px;display:inline;opacity:1;fill:#000000;fill-opacity:1;stroke:none;stroke-width:0.264583"
         x="58.959087"
         y="218.20499"
         id="text10827"
         inkscape:label="Off Weapons Text"><tspan
           sodipodi:role="line"
           id="tspan10825"
           x="58.959087"
           y="218.20499"
           style="font-style:normal;font-variant:normal;font-weight:normal;font-stretch:normal;font-size:2.82222px;font-family:'MS 33558';-inkscape-font-specification:'MS 33558, ';fill:#000000;stroke-width:0.264583">OFF</tspan></text>
      <text
         id="text14365"
         y="192.73181"
         x="53.899246"
         style="font-style:normal;font-weight:normal;font-size:2.82222px;line-height:1.25;font-family:sans-serif;letter-spacing:0px;word-spacing:0px;display:inline;opacity:1;fill:#000000;fill-opacity:1;stroke:none;stroke-width:0.264583"
         xml:space="preserve"
         inkscape:label="Weapons Text"><tspan
           style="font-style:normal;font-variant:normal;font-weight:normal;font-stretch:normal;font-size:2.82222px;font-family:'MS 33558';-inkscape-font-specification:'MS 33558, ';fill:#000000;stroke-width:0.264583"
           y="192.73181"
           x="53.899246"
           id="tspan14363"
           sodipodi:role="line">Weapons</tspan></text>
      <text
         id="text10823"
         y="218.20499"
         x="34.081707"
         style="font-style:normal;font-weight:normal;font-size:2.82222px;line-height:1.25;font-family:sans-serif;letter-spacing:0px;word-spacing:0px;display:inline;opacity:1;fill:#000000;fill-opacity:1;stroke:none;stroke-width:0.264583"
         xml:space="preserve"
         inkscape:label="Off Shields Text"><tspan
           style="font-style:normal;font-variant:normal;font-weight:normal;font-stretch:normal;font-size:2.82222px;font-family:'MS 33558';-inkscape-font-specification:'MS 33558, ';fill:#000000;stroke-width:0.264583"
           y="218.20499"
           x="34.081707"
           id="tspan10821"
           sodipodi:role="line">OFF</tspan></text>
      <text
         xml:space="preserve"
         style="font-style:normal;font-weight:normal;font-size:2.82222px;line-height:1.25;font-family:sans-serif;letter-spacing:0px;word-spacing:0px;display:inline;opacity:1;fill:#000000;fill-opacity:1;stroke:none;stroke-width:0.264583"
         x="30.34234"
         y="192.72974"
         id="text14361"
         inkscape:label="Shields Text"><tspan
           sodipodi:role="line"
           id="tspan14359"
           x="30.34234"
           y="192.72974"
           style="font-style:normal;font-variant:normal;font-weight:normal;font-stretch:normal;font-size:2.82222px;font-family:'MS 33558';-inkscape-font-specification:'MS 33558, ';fill:#000000;stroke-width:0.264583">Shields</tspan></text>
      <text
         xml:space="preserve"
         style="font-style:normal;font-weight:normal;font-size:2.82222px;line-height:1.25;font-family:sans-serif;letter-spacing:0px;word-spacing:0px;display:inline;opacity:1;fill:#000000;fill-opacity:1;stroke:none;stroke-width:0.264583"
         x="9.2043219"
         y="218.20499"
         id="text14794"
         inkscape:label="Off Power Text"><tspan
           sodipodi:role="line"
           id="tspan14792"
           x="9.2043219"
           y="218.20499"
           style="font-style:normal;font-variant:normal;font-weight:normal;font-stretch:normal;font-size:2.82222px;font-family:'MS 33558';-inkscape-font-specification:'MS 33558, ';fill:#000000;stroke-width:0.264583">OFF</tspan></text>
      <text
         id="text14353"
         y="192.7299"
         x="6.4857545"
         style="font-style:normal;font-weight:normal;font-size:2.82222px;line-height:1.25;font-family:sans-serif;letter-spacing:0px;word-spacing:0px;display:inline;opacity:1;fill:#000000;fill-opacity:1;stroke:none;stroke-width:0.264583"
         xml:space="preserve"
         inkscape:label="Power Text"><tspan
           style="font-style:normal;font-variant:normal;font-weight:normal;font-stretch:normal;font-size:2.82222px;font-family:'MS 33558';-inkscape-font-specification:'MS 33558, ';fill:#000000;stroke-width:0.264583"
           y="192.7299"
           x="6.4857545"
           id="tspan14351"
           sodipodi:role="line">power</tspan></text>
      <text
         xml:space="preserve"
         style="font-style:normal;font-weight:normal;font-size:4.93889px;line-height:1.25;font-family:sans-serif;letter-spacing:0px;word-spacing:0px;display:inline;opacity:1;fill:#000000;fill-opacity:1;stroke:none;stroke-width:0.264583"
         x="51.904045"
         y="184.46678"
         id="text12344-6"
         inkscape:label="Title"><tspan
           sodipodi:role="line"
           id="tspan12342-8"
           x="51.904045"
           y="184.46678"
           style="font-style:normal;font-variant:normal;font-weight:normal;font-stretch:normal;font-size:4.93889px;font-family:'MS 33558';-inkscape-font-specification:'MS 33558, ';fill:#000000;stroke-width:0.264583">power</tspan></text>
    </g>
  </g>
</svg>
