<?xml version="1.0" encoding="UTF-8" standalone="no"?>
<!-- Created with Inkscape (http://www.inkscape.org/) -->
<svg xmlns:inkscape="http://www.inkscape.org/namespaces/inkscape" xmlns:rdf="http://www.w3.org/1999/02/22-rdf-syntax-ns#" xmlns="http://www.w3.org/2000/svg" xmlns:sodipodi="http://sodipodi.sourceforge.net/DTD/sodipodi-0.dtd" xmlns:cc="http://creativecommons.org/ns#" xmlns:xlink="http://www.w3.org/1999/xlink" xmlns:dc="http://purl.org/dc/elements/1.1/" xmlns:svg="http://www.w3.org/2000/svg" xmlns:ns1="http://sozi.baierouge.fr" id="svg2" sodipodi:docname="Interupteur M-A.svg" viewBox="0 0 531.5 708.66" version="1.1" inkscape:version="0.47 r22583">
  <defs id="defs4">
    <radialGradient id="radialGradient3695" fx="-974.19" fy="-451.07" gradientUnits="userSpaceOnUse" cy="-450.32" cx="-971.19" gradientTransform="matrix(1 0 0 1.3353 0 65.34)" r="262.92" inkscape:collect="always">
      <stop id="stop3691" style="stop-color:#ffffff" offset="0"/>
      <stop id="stop3693" style="stop-color:#ffffff;stop-opacity:.40698" offset="1"/>
    </radialGradient>
    <linearGradient id="linearGradient3708" y2="-247.41" gradientUnits="userSpaceOnUse" x2="-1223.7" y1="90.156" x1="-1223.7" inkscape:collect="always">
      <stop id="stop3704" style="stop-color:#ffffff" offset="0"/>
      <stop id="stop3706" style="stop-color:#ffffff;stop-opacity:0" offset="1"/>
    </linearGradient>
  </defs>
  <sodipodi:namedview id="base" bordercolor="#666666" inkscape:pageshadow="2" inkscape:guide-bbox="true" pagecolor="#ffffff" inkscape:window-height="676" inkscape:window-maximized="1" inkscape:zoom="0.35355339" inkscape:window-x="1578" showgrid="false" borderopacity="1.0" inkscape:current-layer="layer1" inkscape:cx="316.99214" inkscape:cy="364.66561" showguides="true" inkscape:window-y="206" inkscape:window-width="724" showborder="false" inkscape:pageopacity="0.0" inkscape:document-units="px"/>
  <g id="layer1" inkscape:label="Calque 1" inkscape:groupmode="layer" transform="translate(1491.4 547.64)">
    <rect id="rect2816" style="color:#000000;fill:#212121" ry="20" height="708.66" width="531.5" y="-547.64" x="-1491.4"/>
    <path id="rect3684" style="opacity:.41085;color:#000000;fill:url(#radialGradient3695)" d="m-1471.3-545.95c-6.6316 0.334-12.378 3.8982-15.737 9.144 3.1085-2.006 6.8021-3.1724 10.792-3.1724h489.17c11.027 0 19.905 8.8777 19.905 19.905v665.49c0 3.9807-1.1752 7.6573-3.1724 10.761 5.4976-3.535 9.144-9.6839 9.144-16.733v-665.49c0-11.027-8.8777-19.905-19.905-19.905h-489.17c-0.3445 0-0.6861-0.0171-1.0264 0z"/>
    <path id="rect2818" sodipodi:nodetypes="ccczcccczcc" style="color:#000000;fill:#000000" d="m-1369.1-476.77h286.9c8.864 0 16 7.136 16 16 0 0 35 158.74 35 267.46s-35 267.46-35 267.46c0 8.864-7.136 16-16 16h-286.9c-8.864 0-16-7.136-16-16 0 0-35-158.74-35-267.46s35-267.46 35-267.46c0-8.864 7.136-16 16-16z"/>
    <path id="path2821" sodipodi:nodetypes="ccczcccczcc" style="color:#000000;fill:#3c3c3c" d="m-1369.1-342.49h286.9c8.864 0 11.959 3.678 16 12.21 0 0 27 55.937 27 135.5 0 79.558-27 272.73-27 272.73 0 6.7644-7.136 12.21-16 12.21h-286.9c-8.864 0-16-5.4457-16-12.21 0 0-27-193.17-27-272.73 0-79.558 27-135.5 27-135.5 0-6.7644 7.136-12.21 16-12.21z"/>
    <path id="path2825" sodipodi:rx="41.42857" sodipodi:ry="42.857143" style="color:#000000;stroke:#ffffff;stroke-width:10;fill:none" sodipodi:type="arc" d="m-1168.6-19.066c0 23.669-18.548 42.857-41.429 42.857-22.88 0-41.429-19.188-41.429-42.857s18.548-42.857 41.429-42.857c22.88 0 41.429 19.188 41.429 42.857z" transform="matrix(1.9617 0 0 1.9617 1147.9 14.335)" sodipodi:cy="-19.066389" sodipodi:cx="-1210"/>
    <rect id="rect2827" style="color:#000000;fill:#ffffff" ry="0" height="125.71" width="19.6" y="-320.21" x="-1235.5"/>
    <path id="rect2829" sodipodi:nodetypes="ccccccccc" style="opacity:0.142;color:#000000;fill:#ffffff" d="m-1371.7-474.78h290.86c6.5105 0 11.429 4.9315 11.429 11.429l-6 107.14c0 6.2486-5.1867 11.429-11.429 11.429h-278.86c-6.2419 0-11.428-5.18-11.428-11.429l-6-107.14c0-6.4971 4.918-11.429 11.428-11.429z"/>
    <path id="path3679" style="color:#000000;fill:#cccccf" sodipodi:nodetypes="cccsssssccscc" transform="translate(-764.14)" d="m-303.89-455.2c-1.6247 37.086-2.9052 70.912-4.4402 108.01 0.40711 2.6022 0.42384 2.9296 1.8294 4.2857 7.4772 8.6209 13.981 26.168 17.469 41.47 0.005 0.022 0.0262 0.0405 0.0312 0.0625 0.006 0.0191-0.006 0.0434 0 0.0625 17.867 55.232 18.446 113.96 12.875 170.97-0.00085 0.0103 0.00085 0.0209 0 0.0312-3.621 43.919-8.6134 87.693-14 131.41 11.768-66.002 20.803-132.5 21.125-199.47-0.001-0.0674-0.001-0.0778 0-0.0312-1.9394-87.508-16.455-171.01-33.8-256.76-0.15271-0.86615-1.0294-0.76207-1.089-0.0299z"/>
    <path id="path3697" style="opacity:.27907;color:#000000;fill:url(#linearGradient3708)" d="m-1045.1-179.41c-136.83 0-262.76 22.686-362.81 60.75 7.5919 87.904 22.781 196.59 22.781 196.59 0 6.7644 7.136 12.219 16 12.219h286.91c8.8641 0 16-5.4543 16-12.219 0 0 23.873-170.79 26.719-257.31-1.8664-0.008-3.7233-0.0312-5.5938-0.0312z"/>
  </g>
  <metadata>
    <rdf:RDF>
      <cc:Work>
        <dc:format>image/svg+xml</dc:format>
        <dc:type rdf:resource="http://purl.org/dc/dcmitype/StillImage"/>
        <cc:license rdf:resource="http://creativecommons.org/licenses/publicdomain/"/>
        <dc:publisher>
          <cc:Agent rdf:about="http://openclipart.org/">
            <dc:title>Openclipart</dc:title>
          </cc:Agent>
        </dc:publisher>
        <dc:title>switch on/off</dc:title>
        <dc:date>2010-05-25T12:53:40</dc:date>
        <dc:description/>
        <dc:source>https://openclipart.org/detail/62737/switch-on/off-by-clemzo</dc:source>
        <dc:creator>
          <cc:Agent>
            <dc:title>Clemzo</dc:title>
          </cc:Agent>
        </dc:creator>
        <dc:subject>
          <rdf:Bag>
            <rdf:li>M/A</rdf:li>
            <rdf:li>arret</rdf:li>
            <rdf:li>interupteur</rdf:li>
            <rdf:li>marche</rdf:li>
            <rdf:li>off</rdf:li>
            <rdf:li>on</rdf:li>
            <rdf:li>switch</rdf:li>
          </rdf:Bag>
        </dc:subject>
      </cc:Work>
      <cc:License rdf:about="http://creativecommons.org/licenses/publicdomain/">
        <cc:permits rdf:resource="http://creativecommons.org/ns#Reproduction"/>
        <cc:permits rdf:resource="http://creativecommons.org/ns#Distribution"/>
        <cc:permits rdf:resource="http://creativecommons.org/ns#DerivativeWorks"/>
      </cc:License>
    </rdf:RDF>
  </metadata>
</svg>