<?xml version="1.0" encoding="UTF-8" standalone="no"?>
<!-- Created with Inkscape (http://www.inkscape.org/) -->

<svg
   width="49.94944mm"
   height="120.07591mm"
   viewBox="0 0 49.94944 120.07591"
   version="1.1"
   id="svg42615"
   inkscape:version="1.2.2 (b0a8486, 2022-12-01)"
   sodipodi:docname="2mm-White-Front_Leyer.svg"
   xmlns:inkscape="http://www.inkscape.org/namespaces/inkscape"
   xmlns:sodipodi="http://sodipodi.sourceforge.net/DTD/sodipodi-0.dtd"
   xmlns="http://www.w3.org/2000/svg"
   xmlns:svg="http://www.w3.org/2000/svg">
  <sodipodi:namedview
     id="namedview42617"
     pagecolor="#ffffff"
     bordercolor="#666666"
     borderopacity="1.0"
     inkscape:showpageshadow="2"
     inkscape:pageopacity="0.0"
     inkscape:pagecheckerboard="0"
     inkscape:deskcolor="#d1d1d1"
     inkscape:document-units="mm"
     showgrid="false"
     inkscape:zoom="2.5714462"
     inkscape:cx="94.499352"
     inkscape:cy="226.91511"
     inkscape:current-layer="layer1" />
  <defs
     id="defs42612" />
  <g
     inkscape:label="Capa 1"
     inkscape:groupmode="layer"
     id="layer1"
     transform="translate(-76.531609,-88.462046)">
    <path
       id="rect3678"
       style="display:inline;fill:none;fill-opacity:1;stroke:#000000;stroke-width:0.076;stroke-linecap:round;stroke-miterlimit:4;stroke-dasharray:none"
       d="m 86.569515,88.500046 v 5.000211 c -1.68e-4,2.761366 -2.238848,4.999812 -5.000212,4.999695 H 76.569609 V 198.50005 h 4.999694 c 2.761364,-1.2e-4 5.000043,2.23833 5.000212,4.9997 v 5.00021 h 29.873625 v -5.00021 c 1.7e-4,-2.76137 2.23885,-4.99982 5.00021,-4.9997 h 4.9997 V 98.499952 h -4.9997 c -2.76136,1.17e-4 -5.00004,-2.238329 -5.00021,-4.999695 v -5.000211 z m 4.781103,10.086206 H 110.35049 V 117.58613 H 91.350618 Z m -9.085233,2.520778 a 1.6,1.6 0 0 1 1.600419,1.5999 1.6,1.6 0 0 1 -1.600419,1.5999 1.6,1.6 0 0 1 -1.599902,-1.5999 1.6,1.6 0 0 1 1.599902,-1.5999 z m 38.481375,0 a 1.6,1.6 0 0 1 1.5999,1.5999 1.6,1.6 0 0 1 -1.5999,1.5999 1.6,1.6 0 0 1 -1.5999,-1.5999 1.6,1.6 0 0 1 1.5999,-1.5999 z m -19.24069,20.72535 a 7.5500002,7.5500002 0 0 1 7.54993,7.54993 7.5500002,7.5500002 0 0 1 -7.54993,7.54992 7.5500002,7.5500002 0 0 1 -7.549926,-7.54992 7.5500002,7.5500002 0 0 1 7.549926,-7.54993 z m -18.997806,32.90187 h 37.995616 v 18.99987 H 82.508264 Z m 18.997806,23.26834 a 7.5500002,7.5500002 0 0 1 7.54993,7.55045 7.5500002,7.5500002 0 0 1 -7.54993,7.54992 7.5500002,7.5500002 0 0 1 -7.549926,-7.54992 7.5500002,7.5500002 0 0 1 7.549926,-7.55045 z m -19.240685,14.18363 a 1.6,1.6 0 0 1 1.600419,1.5999 1.6,1.6 0 0 1 -1.600419,1.59991 1.6,1.6 0 0 1 -1.599902,-1.59991 1.6,1.6 0 0 1 1.599902,-1.5999 z m 38.481375,0 a 1.6,1.6 0 0 1 1.5999,1.5999 1.6,1.6 0 0 1 -1.5999,1.59991 1.6,1.6 0 0 1 -1.5999,-1.59991 1.6,1.6 0 0 1 1.5999,-1.5999 z" />
  </g>
</svg>
