<?xml version="1.0" encoding="UTF-8" standalone="no"?>
<!-- Created with Inkscape (http://www.inkscape.org/) -->

<svg
   width="50.000019mm"
   height="120.07585mm"
   viewBox="0 0 50.000019 120.07585"
   version="1.1"
   id="svg34616"
   inkscape:version="1.2.2 (b0a8486, 2022-12-01)"
   sodipodi:docname="3mm-Black-Back_Layer.svg"
   xmlns:inkscape="http://www.inkscape.org/namespaces/inkscape"
   xmlns:sodipodi="http://sodipodi.sourceforge.net/DTD/sodipodi-0.dtd"
   xmlns="http://www.w3.org/2000/svg"
   xmlns:svg="http://www.w3.org/2000/svg">
  <sodipodi:namedview
     id="namedview34618"
     pagecolor="#ffffff"
     bordercolor="#666666"
     borderopacity="1.0"
     inkscape:showpageshadow="2"
     inkscape:pageopacity="0.0"
     inkscape:pagecheckerboard="0"
     inkscape:deskcolor="#d1d1d1"
     inkscape:document-units="mm"
     showgrid="false"
     inkscape:zoom="2.5714475"
     inkscape:cx="94.499304"
     inkscape:cy="226.91499"
     inkscape:current-layer="layer1" />
  <defs
     id="defs34613" />
  <g
     inkscape:label="Capa 1"
     inkscape:groupmode="layer"
     id="layer1"
     transform="translate(-76.506318,-88.462077)">
    <path
       id="rect11527"
       style="display:inline;fill:none;fill-opacity:1;stroke:#000000;stroke-width:0.0537162;stroke-linecap:round;stroke-miterlimit:4;stroke-dasharray:none"
       d="M 76.533176,88.488935 V 208.51107 H 126.47948 V 88.488935 Z m 4.76095,3.41116 a 1.6,1.6 0 0 1 1.599903,1.59991 1.6,1.6 0 0 1 -1.599903,1.5999 1.6,1.6 0 0 1 -1.599902,-1.5999 1.6,1.6 0 0 1 1.599902,-1.59991 z m 40.500374,0 a 1.6,1.6 0 0 1 1.5999,1.59991 1.6,1.6 0 0 1 -1.5999,1.5999 1.6,1.6 0 0 1 -1.59991,-1.5999 1.6,1.6 0 0 1 1.59991,-1.59991 z m -27.968839,9.186015 h 13.999659 v 14.00017 H 93.825661 Z m -11.585339,0.0212 a 1.6,1.6 0 0 1 1.600419,1.59991 1.6,1.6 0 0 1 -1.600419,1.5999 1.6,1.6 0 0 1 -1.599903,-1.5999 1.6,1.6 0 0 1 1.599903,-1.59991 z m 38.481368,0 a 1.6,1.6 0 0 1 1.59991,1.59991 1.6,1.6 0 0 1 -1.59991,1.5999 1.6,1.6 0 0 1 -1.5999,-1.5999 1.6,1.6 0 0 1 1.5999,-1.59991 z m -19.24068,24.97523 a 3.5,3.5 0 0 1 3.50004,3.50004 3.5,3.5 0 0 1 -3.50004,3.50004 3.5,3.5 0 0 1 -3.500047,-3.50004 3.5,3.5 0 0 1 3.500047,-3.50004 z m -0.99994,9.3002 h 1.99988 v 0.99994 h -1.99988 z M 84.983307,157.2341 h 13.999662 v 14.00018 H 84.983307 Z m 18.995743,0 h 13.99966 v 14.00018 h -13.99966 z m -2.49804,25.01915 a 3.5,3.5 0 0 1 3.50004,3.50004 3.5,3.5 0 0 1 -3.50004,3.50005 3.5,3.5 0 0 1 -3.500047,-3.50005 3.5,3.5 0 0 1 3.500047,-3.50004 z m -0.99994,9.29969 h 1.99988 v 0.99993 h -1.99988 z m -18.240748,0.63355 a 1.6,1.6 0 0 1 1.600419,1.5999 1.6,1.6 0 0 1 -1.600419,1.5999 1.6,1.6 0 0 1 -1.599903,-1.5999 1.6,1.6 0 0 1 1.599903,-1.5999 z m 38.481368,0 a 1.6,1.6 0 0 1 1.59991,1.5999 1.6,1.6 0 0 1 -1.59991,1.5999 1.6,1.6 0 0 1 -1.5999,-1.5999 1.6,1.6 0 0 1 1.5999,-1.5999 z m -39.427564,9.71362 a 1.6,1.6 0 0 1 1.599903,1.5999 1.6,1.6 0 0 1 -1.599903,1.5999 1.6,1.6 0 0 1 -1.599902,-1.5999 1.6,1.6 0 0 1 1.599902,-1.5999 z m 40.500374,0 a 1.6,1.6 0 0 1 1.5999,1.5999 1.6,1.6 0 0 1 -1.5999,1.5999 1.6,1.6 0 0 1 -1.59991,-1.5999 1.6,1.6 0 0 1 1.59991,-1.5999 z" />
  </g>
</svg>
