<?xml version="1.0" encoding="UTF-8" standalone="no"?>
<!-- Created with Inkscape (http://www.inkscape.org/) -->

<svg
   width="49.999569mm"
   height="119.99995mm"
   viewBox="0 0 49.999569 119.99995"
   version="1.1"
   id="svg5601"
   inkscape:version="1.2.2 (b0a8486, 2022-12-01)"
   sodipodi:docname="3mm-Translucent-Middle_Layer.svg"
   xmlns:inkscape="http://www.inkscape.org/namespaces/inkscape"
   xmlns:sodipodi="http://sodipodi.sourceforge.net/DTD/sodipodi-0.dtd"
   xmlns="http://www.w3.org/2000/svg"
   xmlns:svg="http://www.w3.org/2000/svg">
  <sodipodi:namedview
     id="namedview5603"
     pagecolor="#ffffff"
     bordercolor="#666666"
     borderopacity="1.0"
     inkscape:showpageshadow="2"
     inkscape:pageopacity="0.0"
     inkscape:pagecheckerboard="0"
     inkscape:deskcolor="#d1d1d1"
     inkscape:document-units="mm"
     showgrid="false"
     inkscape:zoom="2.5730741"
     inkscape:cx="94.439567"
     inkscape:cy="226.77155"
     inkscape:current-layer="layer1" />
  <defs
     id="defs5598" />
  <g
     inkscape:label="Capa 1"
     inkscape:groupmode="layer"
     id="layer1"
     transform="translate(-2.4056122e-4,-2.4000122e-4)">
    <path
       id="rect3678-3"
       style="display:inline;fill:none;fill-opacity:1;stroke:#000000;stroke-width:0.076;stroke-linecap:round;stroke-miterlimit:4;stroke-dasharray:none"
       d="m 10.022644,0.03824 v 4.99659 c -1.68e-4,2.75964 -2.2353484,4.99672 -4.9924601,4.9966 H 0.03824056 v 99.93705 H 5.0301839 c 2.7571117,-1.2e-4 4.9922921,2.23696 4.9924601,4.9966 v 4.99711 h 29.954761 v -4.99711 c 1.64e-4,-2.75964 2.235334,-4.99672 4.99246,-4.9966 h 4.991943 V 10.03143 h -4.991943 c -2.757126,1.2e-4 -4.992296,-2.23696 -4.99246,-4.9966 V 0.03824 Z M 5.7340169,12.35842 a 1.6,1.6 0 0 1 1.6004191,1.5999 1.6,1.6 0 0 1 -1.6004191,1.5999 1.6,1.6 0 0 1 -1.5999024,-1.5999 1.6,1.6 0 0 1 1.5999024,-1.5999 z m 38.4813721,0 a 1.6,1.6 0 0 1 1.599902,1.5999 1.6,1.6 0 0 1 -1.599902,1.5999 1.6,1.6 0 0 1 -1.599903,-1.5999 1.6,1.6 0 0 1 1.599903,-1.5999 z M 3.0220377,17.55087 H 22.022428 V 36.55126 H 3.0220377 Z m 25.1509193,0 H 47.172831 V 36.55126 H 28.172957 Z m 9.499679,23.91172 a 7.7499995,7.7499995 0 0 1 7.750431,7.74991 7.7499995,7.7499995 0 0 1 -7.750431,7.74991 7.7499995,7.7499995 0 0 1 -7.749915,-7.74991 7.7499995,7.7499995 0 0 1 7.749915,-7.74991 z M 6.0022176,66.27244 H 43.997831 V 85.27231 H 6.0022176 Z M 25.000024,94.16945 c 4.280119,5e-5 7.749866,3.46977 7.749915,7.74991 -4.9e-5,4.28014 -3.469796,7.74986 -7.749915,7.74991 -4.280118,-5e-5 -7.749865,-3.46977 -7.749914,-7.74991 4.9e-5,-4.28014 3.469796,-7.74986 7.749914,-7.74991 z m -19.2660071,9.55497 c 0.8837685,-2.3e-4 1.6003639,0.71612 1.6004191,1.5999 -5.52e-5,0.88378 -0.7166506,1.60013 -1.6004191,1.5999 -0.8835667,-5e-5 -1.5998472,-0.71632 -1.5999024,-1.5999 5.52e-5,-0.88358 0.7163357,-1.59985 1.5999024,-1.5999 z m 38.4813721,0 c 0.883565,5e-5 1.599847,0.71632 1.599902,1.5999 -5.5e-5,0.88358 -0.716337,1.59985 -1.599902,1.5999 -0.883566,-5e-5 -1.599848,-0.71632 -1.599903,-1.5999 5.5e-5,-0.88358 0.716337,-1.59985 1.599903,-1.5999 z" />
  </g>
</svg>
