<?xml version="1.0" encoding="UTF-8" standalone="no"?>
<!-- Created with Inkscape (http://www.inkscape.org/) -->

<svg
   width="50.000019mm"
   height="119.99989mm"
   viewBox="0 0 50.000019 119.99989"
   version="1.1"
   id="svg91762"
   inkscape:version="1.2.2 (b0a8486, 2022-12-01)"
   sodipodi:docname="3mm-Black-Back_Layer.svg"
   xmlns:inkscape="http://www.inkscape.org/namespaces/inkscape"
   xmlns:sodipodi="http://sodipodi.sourceforge.net/DTD/sodipodi-0.dtd"
   xmlns="http://www.w3.org/2000/svg"
   xmlns:svg="http://www.w3.org/2000/svg">
  <sodipodi:namedview
     id="namedview91764"
     pagecolor="#ffffff"
     bordercolor="#666666"
     borderopacity="1.0"
     inkscape:showpageshadow="2"
     inkscape:pageopacity="0.0"
     inkscape:pagecheckerboard="0"
     inkscape:deskcolor="#d1d1d1"
     inkscape:document-units="mm"
     showgrid="false"
     inkscape:zoom="2.5730752"
     inkscape:cx="94.439525"
     inkscape:cy="226.77145"
     inkscape:current-layer="layer1" />
  <defs
     id="defs91759" />
  <g
     inkscape:label="Capa 1"
     inkscape:groupmode="layer"
     id="layer1"
     transform="translate(-76.506318,-88.500057)">
    <path
       id="rect11527"
       style="display:inline;fill:none;fill-opacity:1;stroke:#000000;stroke-width:0.0537162;stroke-linecap:round;stroke-miterlimit:4;stroke-dasharray:none"
       d="M 76.533176,88.526915 V 208.47309 H 126.47948 V 88.526915 Z m 4.76095,3.40858 v 5.2e-4 c 0.883569,5e-5 1.599853,0.71599 1.599903,1.59886 -5.5e-5,0.88302 -0.716338,1.59882 -1.599903,1.59887 -0.0054,0 -0.01068,6e-5 -0.01602,0 a 1.6,1.6 0 0 1 -0.0217,0.004 1.6,1.6 0 0 1 -0.0279,-0.006 c -0.170322,-0.007 -0.334239,-0.0401 -0.486792,-0.0961 a 1.6,1.6 0 0 1 -0.217041,-0.0992 c -0.08095,-0.0445 -0.157273,-0.0957 -0.228926,-0.15296 a 1.6,1.6 0 0 1 -0.639755,-1.24592 1.6,1.6 0 0 1 0.284221,-0.85525 c 0.002,-0.003 0.0041,-0.007 0.0062,-0.01 0.01387,-0.0216 0.02802,-0.0427 0.04289,-0.0636 a 1.6,1.6 0 0 1 0.261482,-0.2868 c 0.09813,-0.0845 0.206797,-0.15713 0.323495,-0.21601 a 1.6,1.6 0 0 1 0.129708,-0.0584 c 0.182635,-0.0725 0.38167,-0.11213 0.590145,-0.11214 z m 40.500374,0 v 5.2e-4 c 0.81382,4e-5 1.48541,0.60736 1.58646,1.39319 0.009,0.0674 0.0134,0.13596 0.0134,0.20567 a 1.6,1.6 0 0 1 0,5.2e-4 1.6,1.6 0 0 1 0,5.2e-4 1.6,1.6 0 0 1 0,5.2e-4 1.6,1.6 0 0 1 0,5.1e-4 1.6,1.6 0 0 1 0,5.2e-4 v 5.2e-4 c -4.2e-4,0.21527 -0.0433,0.42037 -0.12092,0.60771 a 1.6,1.6 0 0 1 -0.003,0.008 c -0.0794,0.18868 -0.19438,0.35917 -0.3359,0.50281 a 1.6,1.6 0 0 1 -0.0222,0.0217 c -0.14051,0.13721 -0.30607,0.24877 -0.48937,0.32711 a 1.6,1.6 0 0 1 -0.0367,0.0155 c -0.17656,0.0703 -0.36849,0.10991 -0.56948,0.11266 a 1.6,1.6 0 0 1 -0.0222,0.005 1.6,1.6 0 0 1 -0.0222,-0.005 c -0.20099,-0.003 -0.39291,-0.0424 -0.56947,-0.11266 a 1.6,1.6 0 0 1 -0.0367,-0.0155 c -0.18331,-0.0783 -0.34886,-0.1899 -0.48938,-0.32711 a 1.6,1.6 0 0 1 -0.0222,-0.0217 c -0.14072,-0.14283 -0.25502,-0.3123 -0.33434,-0.49971 -2.2e-4,-5e-4 -3.1e-4,-1e-4 -5.2e-4,-0.002 a 1.6,1.6 0 0 1 -0.005,-0.0124 c -0.0769,-0.18665 -0.11947,-0.39085 -0.11989,-0.60513 0,-0.001 0,-0.002 0,-0.003 5e-5,-0.88294 0.71633,-1.59882 1.5999,-1.59887 z m -27.28826,9.188585 h 14.00018 v 14.00017 H 94.50624 Z m -12.265918,0.0212 a 1.6,1.6 0 0 1 1.600419,1.59991 1.6,1.6 0 0 1 -1.600419,1.5999 1.6,1.6 0 0 1 -1.599903,-1.5999 1.6,1.6 0 0 1 1.599903,-1.59991 z m 38.481368,0 a 1.6,1.6 0 0 1 1.59991,1.59991 1.6,1.6 0 0 1 -1.59991,1.5999 1.6,1.6 0 0 1 -1.5999,-1.5999 1.6,1.6 0 0 1 1.5999,-1.59991 z m -19.21536,24.97522 a 3.5,3.5 0 0 1 3.50004,3.50005 3.5,3.5 0 0 1 -3.50004,3.50004 3.5,3.5 0 0 1 -3.500046,-3.50004 3.5,3.5 0 0 1 3.500046,-3.50005 z m -0.99994,9.30021 h 1.99988 v 0.99994 h -1.99988 z M 85.008628,157.27207 H 99.00829 v 14.00018 H 85.008628 Z m 18.995742,0 h 13.99966 v 14.00018 h -13.99966 z m -2.49804,25.01915 a 3.5,3.5 0 0 1 3.50004,3.50004 3.5,3.5 0 0 1 -3.50004,3.50005 3.5,3.5 0 0 1 -3.500046,-3.50005 3.5,3.5 0 0 1 3.500046,-3.50004 z m -0.99994,9.29969 h 1.99988 v 0.99993 h -1.99988 z m -18.266068,0.63355 a 1.6,1.6 0 0 1 1.600419,1.5999 1.6,1.6 0 0 1 -1.600419,1.5999 1.6,1.6 0 0 1 -1.599903,-1.5999 1.6,1.6 0 0 1 1.599903,-1.5999 z m 38.481368,0 a 1.6,1.6 0 0 1 1.59991,1.5999 1.6,1.6 0 0 1 -1.59991,1.5999 1.6,1.6 0 0 1 -1.5999,-1.5999 1.6,1.6 0 0 1 1.5999,-1.5999 z m -39.427564,9.6418 c 0.883565,4e-5 1.599848,0.71585 1.599903,1.59886 -2.7e-5,0.42248 -0.164181,0.80658 -0.432015,1.09244 a 1.6,1.6 0 0 1 -1.205612,0.58032 1.6,1.6 0 0 1 -1.600419,-1.5999 1.6,1.6 0 0 1 0.04599,-0.23151 c 0.01047,-0.10602 0.03133,-0.20909 0.06149,-0.30799 a 1.6,1.6 0 0 1 0.03669,-0.10646 c 0.230612,-0.59986 0.812531,-1.02573 1.493966,-1.02576 z m 40.500374,0 c 0.88357,4e-5 1.59984,0.71585 1.5999,1.59886 0,0.0189 -4.5e-4,0.0376 -0.001,0.0563 a 1.6,1.6 0 0 1 0.001,0.0165 1.6,1.6 0 0 1 -0.002,0.009 c -3e-5,5.2e-4 2e-5,0.001 0,0.002 -0.008,0.15763 -0.0393,0.30934 -0.0899,0.45165 a 1.6,1.6 0 0 1 -1.50792,1.1374 1.6,1.6 0 0 1 -1.50895,-1.13998 c -0.05,-0.14156 -0.0808,-0.2924 -0.0889,-0.44907 -3e-5,-5.1e-4 2e-5,-0.001 0,-0.002 a 1.6,1.6 0 0 1 -0.002,-0.009 1.6,1.6 0 0 1 0.002,-0.007 c -8.8e-4,-0.0218 -0.001,-0.0436 -0.002,-0.0656 5e-5,-0.88301 0.71634,-1.59881 1.5999,-1.59886 z" />
  </g>
</svg>
