<?xml version="1.0" encoding="UTF-8" standalone="no"?>
<!-- Created with Inkscape (http://www.inkscape.org/) -->

<svg
   width="50.000023mm"
   height="97.999672mm"
   viewBox="0 0 50.000023 97.999672"
   version="1.1"
   id="svg65087"
   inkscape:version="1.2.2 (b0a8486, 2022-12-01)"
   sodipodi:docname="3mm-Black-Microcontroller_Layer.svg"
   xmlns:inkscape="http://www.inkscape.org/namespaces/inkscape"
   xmlns:sodipodi="http://sodipodi.sourceforge.net/DTD/sodipodi-0.dtd"
   xmlns="http://www.w3.org/2000/svg"
   xmlns:svg="http://www.w3.org/2000/svg">
  <sodipodi:namedview
     id="namedview65089"
     pagecolor="#ffffff"
     bordercolor="#666666"
     borderopacity="1.0"
     inkscape:showpageshadow="2"
     inkscape:pageopacity="0.0"
     inkscape:pagecheckerboard="0"
     inkscape:deskcolor="#d1d1d1"
     inkscape:document-units="mm"
     showgrid="false"
     inkscape:zoom="3.1507121"
     inkscape:cx="94.581794"
     inkscape:cy="185.19623"
     inkscape:current-layer="layer1" />
  <defs
     id="defs65084" />
  <g
     inkscape:label="Capa 1"
     inkscape:groupmode="layer"
     id="layer1"
     transform="translate(-1.3140144e-5,-11.000376)">
    <path
       id="rect11527-5"
       style="display:inline;fill:none;fill-opacity:1;stroke:#000000;stroke-width:0.0537172;stroke-linecap:round;stroke-miterlimit:4;stroke-dasharray:none"
       d="M 0.02687174,11.027235 V 108.97319 H 49.973177 V 11.027235 Z M 5.7340169,12.35842 A 1.6,1.6 0 0 1 7.334436,13.958322 1.6,1.6 0 0 1 5.7340169,15.558224 1.6,1.6 0 0 1 4.1341145,13.958322 1.6,1.6 0 0 1 5.7340169,12.35842 Z m 38.4813721,0 a 1.6,1.6 0 0 1 1.599902,1.599902 1.6,1.6 0 0 1 -1.599902,1.599902 1.6,1.6 0 0 1 -1.599903,-1.599902 1.6,1.6 0 0 1 1.599903,-1.599902 z m -19.215365,1.631425 c 0.883779,5.4e-5 1.600134,0.71664 1.599903,1.600419 -5.4e-5,0.883577 -0.716326,1.599848 -1.599903,1.599902 -0.883577,-5.4e-5 -1.599848,-0.716325 -1.599902,-1.599902 -2.31e-4,-0.883779 0.716123,-1.600365 1.599902,-1.600419 z m 0,88.819905 c 0.883776,5e-5 1.600129,0.71665 1.599903,1.60041 -5e-5,0.88358 -0.716322,1.59986 -1.599903,1.59991 -0.88358,-5e-5 -1.599852,-0.71633 -1.599902,-1.59991 -2.26e-4,-0.88376 0.716127,-1.60036 1.599902,-1.60041 z m -19.2660071,0.91467 c 0.8837784,-2.3e-4 1.6003639,0.71612 1.6004191,1.5999 -5.52e-5,0.88378 -0.7166407,1.60013 -1.6004191,1.5999 -0.8835766,-5e-5 -1.5998472,-0.71632 -1.5999024,-1.5999 5.52e-5,-0.88358 0.7163258,-1.59985 1.5999024,-1.5999 z m 38.4813721,0 c 0.883576,5e-5 1.599847,0.71632 1.599902,1.5999 -5.5e-5,0.88358 -0.716326,1.59985 -1.599902,1.5999 -0.883577,-5e-5 -1.599848,-0.71632 -1.599903,-1.5999 5.5e-5,-0.88358 0.716326,-1.59985 1.599903,-1.5999 z" />
  </g>
</svg>
