<?xml version="1.0" encoding="UTF-8" standalone="no"?>
<!-- Created with Inkscape (http://www.inkscape.org/) -->

<svg
   width="50.076046mm"
   height="120.0759mm"
   viewBox="0 0 50.076046 120.0759"
   version="1.1"
   id="svg38434"
   inkscape:version="1.2.2 (b0a8486, 2022-12-01)"
   sodipodi:docname="3mm-Translucent-Middle_Layer.svg"
   xmlns:inkscape="http://www.inkscape.org/namespaces/inkscape"
   xmlns:sodipodi="http://sodipodi.sourceforge.net/DTD/sodipodi-0.dtd"
   xmlns="http://www.w3.org/2000/svg"
   xmlns:svg="http://www.w3.org/2000/svg">
  <sodipodi:namedview
     id="namedview38436"
     pagecolor="#ffffff"
     bordercolor="#666666"
     borderopacity="1.0"
     inkscape:showpageshadow="2"
     inkscape:pageopacity="0.0"
     inkscape:pagecheckerboard="0"
     inkscape:deskcolor="#d1d1d1"
     inkscape:document-units="mm"
     showgrid="false"
     inkscape:zoom="2.5714465"
     inkscape:cx="94.49934"
     inkscape:cy="226.91508"
     inkscape:current-layer="layer1" />
  <defs
     id="defs38431" />
  <g
     inkscape:label="Capa 1"
     inkscape:groupmode="layer"
     id="layer1"
     transform="translate(-76.468304,-88.462045)">
    <path
       id="rect3678-3"
       style="display:inline;fill:none;fill-opacity:1;stroke:#000000;stroke-width:0.076;stroke-linecap:round;stroke-miterlimit:4;stroke-dasharray:none"
       d="m 86.506211,88.500045 v 5.00021 c -1.68e-4,2.76139 -2.238844,4.99982 -5.000212,4.9997 H 76.506304 V 198.50004 h 4.999695 c 2.761368,-1.1e-4 5.000044,2.23832 5.000212,4.99971 v 5.0002 h 30.000239 v -5.0002 c 1.6e-4,-2.76139 2.23884,-4.99982 5.00021,-4.99971 h 4.99969 V 98.499955 h -4.99969 c -2.76137,1.2e-4 -5.00005,-2.23831 -5.00021,-4.9997 v -5.00021 z m 4.781103,10.08621 H 110.28719 V 117.58612 H 91.287314 Z m -9.085233,2.520765 c 0.883781,-2.3e-4 1.600369,0.71613 1.600419,1.59991 -5.5e-5,0.88375 -0.716642,1.60013 -1.600419,1.5999 -0.883576,-5e-5 -1.599848,-0.71635 -1.599903,-1.5999 5e-5,-0.88358 0.716323,-1.59986 1.599903,-1.59991 z m 38.481369,0 c 0.88358,5e-5 1.59985,0.71633 1.59991,1.59991 -6e-5,0.88355 -0.71633,1.59985 -1.59991,1.5999 -0.88357,-5e-5 -1.59985,-0.71635 -1.5999,-1.5999 5e-5,-0.88358 0.71632,-1.59986 1.5999,-1.59991 z m -19.24068,20.72535 a 7.5500002,7.5500002 0 0 1 7.54992,7.54993 7.5500002,7.5500002 0 0 1 -7.54992,7.54993 7.5500002,7.5500002 0 0 1 -7.54993,-7.54993 7.5500002,7.5500002 0 0 1 7.54993,-7.54993 z m -18.99781,32.90187 h 37.99561 v 18.99987 H 82.44496 Z m 18.99781,23.26835 a 7.5500002,7.5500002 0 0 1 7.54992,7.55044 7.5500002,7.5500002 0 0 1 -7.54992,7.54993 7.5500002,7.5500002 0 0 1 -7.54993,-7.54993 7.5500002,7.5500002 0 0 1 7.54993,-7.55044 z m -19.240689,14.18363 c 0.883777,-2.3e-4 1.600364,0.71612 1.600419,1.5999 -5.5e-5,0.88378 -0.716642,1.60013 -1.600419,1.5999 -0.883576,-5e-5 -1.599848,-0.71632 -1.599903,-1.5999 5.5e-5,-0.88358 0.716327,-1.59985 1.599903,-1.5999 z m 38.481369,0 c 0.88358,5e-5 1.59985,0.71632 1.59991,1.5999 -6e-5,0.88358 -0.71633,1.59985 -1.59991,1.5999 -0.88357,-5e-5 -1.59985,-0.71632 -1.5999,-1.5999 6e-5,-0.88358 0.71633,-1.59985 1.5999,-1.5999 z" />
  </g>
</svg>
