<?xml version="1.0" encoding="UTF-8" standalone="no"?>
<!-- Created with Inkscape (http://www.inkscape.org/) -->

<svg
   width="49.999565mm"
   height="119.99995mm"
   viewBox="0 0 49.999565 119.99995"
   version="1.1"
   id="svg97409"
   inkscape:version="1.2.2 (b0a8486, 2022-12-01)"
   sodipodi:docname="3mm-Translucent-Middle_Layer.svg"
   xmlns:inkscape="http://www.inkscape.org/namespaces/inkscape"
   xmlns:sodipodi="http://sodipodi.sourceforge.net/DTD/sodipodi-0.dtd"
   xmlns="http://www.w3.org/2000/svg"
   xmlns:svg="http://www.w3.org/2000/svg">
  <sodipodi:namedview
     id="namedview97411"
     pagecolor="#ffffff"
     bordercolor="#666666"
     borderopacity="1.0"
     inkscape:showpageshadow="2"
     inkscape:pageopacity="0.0"
     inkscape:pagecheckerboard="0"
     inkscape:deskcolor="#d1d1d1"
     inkscape:document-units="mm"
     showgrid="false"
     inkscape:zoom="2.5730741"
     inkscape:cx="94.439567"
     inkscape:cy="226.77155"
     inkscape:current-layer="layer1" />
  <defs
     id="defs97406" />
  <g
     inkscape:label="Capa 1"
     inkscape:groupmode="layer"
     id="layer1"
     transform="translate(-76.506545,-88.500025)">
    <path
       id="rect3678-3"
       style="display:inline;fill:none;fill-opacity:1;stroke:#000000;stroke-width:0.076;stroke-linecap:round;stroke-miterlimit:4;stroke-dasharray:none"
       d="m 86.528949,88.538025 v 4.99659 c -1.68e-4,2.75964 -2.235318,4.99672 -4.99246,4.9966 h -4.991944 v 99.937045 h 4.991944 c 2.757142,-1.2e-4 4.992292,2.23696 4.99246,4.9966 v 4.99711 h 29.954761 v -4.99711 c 1.6e-4,-2.75964 2.23531,-4.99672 4.99246,-4.9966 h 4.99194 V 98.531215 h -4.99194 c -2.75715,1.2e-4 -4.9923,-2.23696 -4.99246,-4.9966 v -4.99659 z m 5.477185,10.08621 H 111.00652 V 117.62411 H 92.006134 Z M 82.240322,101.145 c 0.883782,-2.3e-4 1.600369,0.71613 1.600419,1.59991 -5.5e-5,0.88376 -0.716641,1.60013 -1.600419,1.5999 -0.883577,-5e-5 -1.599848,-0.71634 -1.599903,-1.5999 5e-5,-0.88358 0.716322,-1.59986 1.599903,-1.59991 z m 38.481368,0 c 0.88358,5e-5 1.59986,0.71633 1.59991,1.59991 -6e-5,0.88356 -0.71633,1.59985 -1.59991,1.5999 -0.88357,-5e-5 -1.59984,-0.71634 -1.5999,-1.5999 5e-5,-0.88358 0.71632,-1.59986 1.5999,-1.59991 z m -19.21536,20.72535 a 7.5500002,7.5500002 0 0 1 7.54993,7.54993 7.5500002,7.5500002 0 0 1 -7.54993,7.54993 7.5500002,7.5500002 0 0 1 -7.549928,-7.54993 7.5500002,7.5500002 0 0 1 7.549928,-7.54993 z m -18.997808,32.90187 h 37.995618 v 18.99987 H 82.508522 Z m 18.997808,23.26835 a 7.5500002,7.5500002 0 0 1 7.54993,7.55044 7.5500002,7.5500002 0 0 1 -7.54993,7.54993 7.5500002,7.5500002 0 0 1 -7.549928,-7.54993 7.5500002,7.5500002 0 0 1 7.549928,-7.55044 z M 82.240322,192.2242 c 0.883778,-2.3e-4 1.600364,0.71612 1.600419,1.5999 -5.5e-5,0.88378 -0.716641,1.60013 -1.600419,1.5999 -0.883577,-5e-5 -1.599848,-0.71632 -1.599903,-1.5999 5.5e-5,-0.88358 0.716326,-1.59985 1.599903,-1.5999 z m 38.481368,0 c 0.88358,5e-5 1.59985,0.71632 1.59991,1.5999 -6e-5,0.88358 -0.71633,1.59985 -1.59991,1.5999 -0.88357,-5e-5 -1.59984,-0.71632 -1.5999,-1.5999 6e-5,-0.88358 0.71633,-1.59985 1.5999,-1.5999 z" />
  </g>
</svg>
