<?xml version="1.0" encoding="UTF-8" standalone="no"?>
<!-- Created with Inkscape (http://www.inkscape.org/) -->

<svg
   width="50.000023mm"
   height="119.99989mm"
   viewBox="0 0 50.000023 119.99989"
   version="1.1"
   id="svg15399"
   inkscape:version="1.2.2 (b0a8486, 2022-12-01)"
   sodipodi:docname="3mm-Black-Back_Layer.svg"
   xmlns:inkscape="http://www.inkscape.org/namespaces/inkscape"
   xmlns:sodipodi="http://sodipodi.sourceforge.net/DTD/sodipodi-0.dtd"
   xmlns="http://www.w3.org/2000/svg"
   xmlns:svg="http://www.w3.org/2000/svg">
  <sodipodi:namedview
     id="namedview15401"
     pagecolor="#ffffff"
     bordercolor="#666666"
     borderopacity="1.0"
     inkscape:showpageshadow="2"
     inkscape:pageopacity="0.0"
     inkscape:pagecheckerboard="0"
     inkscape:deskcolor="#d1d1d1"
     inkscape:document-units="mm"
     showgrid="false"
     inkscape:zoom="2.5730752"
     inkscape:cx="94.439525"
     inkscape:cy="226.77145"
     inkscape:current-layer="layer1" />
  <defs
     id="defs15396" />
  <g
     inkscape:label="Capa 1"
     inkscape:groupmode="layer"
     id="layer1"
     transform="translate(-1.3639332e-5,-1.1899332e-5)">
    <path
       id="rect11527"
       style="display:inline;fill:none;fill-opacity:1;stroke:#000000;stroke-width:0.0537162;stroke-linecap:round;stroke-miterlimit:4;stroke-dasharray:none"
       d="M 0.02687174,0.02687 V 119.97304 H 49.973177 V 0.02687 Z M 4.7878214,3.43545 v 5.2e-4 c 0.8835566,5e-5 1.5998533,0.71613 1.5999024,1.59886 -5.46e-5,0.88302 -0.7163497,1.59882 -1.5999024,1.59887 -0.00535,0 -0.010683,6e-5 -0.01602,0 -0.00723,10e-4 -0.01446,0.003 -0.021704,0.004 -0.00932,-0.002 -0.018621,-0.004 -0.027905,-0.006 C 4.5518733,6.6247 4.3879505,6.5916 4.2354005,6.5356 4.1606855,6.508 4.0881362,6.4748 4.0183594,6.4364 3.9374074,6.3919 3.8610862,6.3407 3.7894328,6.28344 3.3960881,5.98848 3.1601783,5.52906 3.1496786,5.03752 3.1605126,4.73109 3.25917,4.43423 3.433899,4.18227 c 0.00204,-0.003 0.00414,-0.007 0.0062,-0.01 C 3.453969,4.15067 3.46812,4.12957 3.48299,4.10867 3.558188,4.00281 3.6459984,3.90651 3.7444727,3.82187 3.8426027,3.73737 3.9512706,3.66474 4.0679672,3.60586 4.1103162,3.58446 4.1535952,3.56496 4.1976751,3.54746 4.3803079,3.47496 4.5793485,3.43533 4.7878199,3.43532 Z m 40.5003696,0 v 5.2e-4 c 0.813825,4e-5 1.485412,0.60736 1.586467,1.39319 0.0087,0.0674 0.01343,0.13596 0.01344,0.20567 v 5.2e-4 5.2e-4 5.2e-4 5.1e-4 5.2e-4 5.2e-4 c -4.23e-4,0.21527 -0.04333,0.42037 -0.120923,0.60771 -0.001,0.003 -0.0021,0.005 -0.0031,0.008 -0.07938,0.18868 -0.194394,0.35917 -0.335896,0.50281 -0.0073,0.007 -0.01474,0.0145 -0.02222,0.0217 -0.140514,0.13721 -0.306071,0.24877 -0.489376,0.32711 -0.01216,0.005 -0.0244,0.0105 -0.03669,0.0155 -0.176559,0.0703 -0.368486,0.10991 -0.569475,0.11266 -0.0074,0.002 -0.0148,0.003 -0.02222,0.005 -0.0074,-0.002 -0.01482,-0.003 -0.02222,-0.005 -0.200989,-0.003 -0.392916,-0.0424 -0.569475,-0.11266 -0.01229,-0.005 -0.02453,-0.0102 -0.03669,-0.0155 -0.183305,-0.0783 -0.348862,-0.1899 -0.489376,-0.32711 -0.0075,-0.007 -0.01488,-0.0144 -0.02222,-0.0217 -0.140705,-0.14283 -0.255021,-0.3123 -0.334346,-0.49971 -2.12e-4,-5e-4 -3.05e-4,8e-4 -5.17e-4,-0.002 -0.0018,-0.004 -0.0035,-0.008 -0.0052,-0.0124 -0.0769,-0.18665 -0.119468,-0.39085 -0.119889,-0.60513 -2e-6,-10e-4 0,-0.002 0,-0.003 4.9e-5,-0.88294 0.716348,-1.59882 1.599902,-1.59887 z M 5.7340169,12.35842 a 1.6,1.6 0 0 1 1.6004191,1.5999 1.6,1.6 0 0 1 -1.6004191,1.5999 1.6,1.6 0 0 1 -1.5999024,-1.5999 1.6,1.6 0 0 1 1.5999024,-1.5999 z m 38.4813721,0 a 1.6,1.6 0 0 1 1.599902,1.5999 1.6,1.6 0 0 1 -1.599902,1.5999 1.6,1.6 0 0 1 -1.599903,-1.5999 1.6,1.6 0 0 1 1.599903,-1.5999 z M 5.5221435,20.05097 H 19.522322 V 34.05115 H 5.5221435 Z m 25.1509195,0 H 44.672725 V 34.05115 H 30.673063 Z m 6.999573,25.86147 a 3.5,3.5 0 0 1 3.500044,3.50005 3.5,3.5 0 0 1 -3.500044,3.50004 3.5,3.5 0 0 1 -3.499528,-3.50004 3.5,3.5 0 0 1 3.499528,-3.50005 z m -0.999939,9.30021 h 2.000394 v 0.99994 H 36.672697 Z M 8.5023234,68.77203 H 22.501985 V 82.77221 H 8.5023234 Z m 18.9957396,0 H 41.497725 V 82.77221 H 27.498063 Z M 25.000024,98.6193 c 1.933022,-2e-5 3.500073,1.56702 3.500045,3.50005 2.2e-5,1.93303 -1.567027,3.50006 -3.500045,3.50004 -1.933018,2e-5 -3.500067,-1.56701 -3.500045,-3.50004 -2.8e-5,-1.93303 1.567023,-3.50007 3.500045,-3.50005 z m -19.2660071,5.10512 c 0.8837676,-2.3e-4 1.6003639,0.71612 1.6004191,1.5999 -5.52e-5,0.88378 -0.7166515,1.60013 -1.6004191,1.5999 -0.8835658,-5e-5 -1.5998472,-0.71632 -1.5999024,-1.5999 5.52e-5,-0.88358 0.7163366,-1.59985 1.5999024,-1.5999 z m 38.4813721,0 c 0.883564,5e-5 1.599847,0.71632 1.599902,1.5999 -5.5e-5,0.88358 -0.716338,1.59985 -1.599902,1.5999 -0.883565,-5e-5 -1.599848,-0.71632 -1.599903,-1.5999 5.5e-5,-0.88358 0.716338,-1.59985 1.599903,-1.5999 z m -20.215304,4.19509 h 1.999878 v 0.99994 h -1.999878 z m -19.2122636,5.4467 c 0.8835527,5e-5 1.5998478,0.71585 1.5999024,1.59887 -2.62e-5,0.42248 -0.1641851,0.80658 -0.432015,1.09244 -0.297809,0.36025 -0.7382741,0.57227 -1.2056112,0.58032 -0.8837676,2.3e-4 -1.6003639,-0.71612 -1.6004191,-1.5999 0.00961,-0.0782 0.024984,-0.15558 0.045992,-0.23151 0.010467,-0.10602 0.031332,-0.20909 0.061495,-0.30799 0.010977,-0.0359 0.023215,-0.0714 0.03669,-0.10646 0.2306078,-0.59986 0.8125403,-1.02573 1.4939659,-1.02577 z m 40.5003696,0 c 0.883579,5e-5 1.599848,0.71585 1.599903,1.59887 -1e-6,0.0189 -5.2e-4,0.0376 -0.001,0.0563 3.62e-4,0.005 7.63e-4,0.011 0.001,0.0165 -6.91e-4,0.003 -0.0014,0.006 -0.0021,0.009 -2.6e-5,5.2e-4 2.6e-5,0.001 0,0.002 -0.0082,0.15763 -0.03932,0.30934 -0.08992,0.45165 -0.201371,0.66702 -0.811244,1.12704 -1.507919,1.1374 -0.69775,-0.0103 -1.308403,-0.47158 -1.508951,-1.13998 -0.05005,-0.14156 -0.08078,-0.2924 -0.08888,-0.44907 -2.6e-5,-5.1e-4 2.6e-5,-10e-4 0,-0.002 -7.09e-4,-0.003 -0.0014,-0.006 -0.0021,-0.009 5.28e-4,-0.002 9.5e-4,-0.005 0.0016,-0.007 -8.82e-4,-0.0218 -0.0015,-0.0436 -0.0016,-0.0656 5.5e-5,-0.88302 0.716352,-1.59882 1.599902,-1.59887 z" />
  </g>
</svg>
