<?xml version="1.0" encoding="UTF-8" standalone="no"?>
<!-- Created with Inkscape (http://www.inkscape.org/) -->

<svg
   width="179.99988mm"
   height="120.00043mm"
   viewBox="0 0 179.99988 120.00043"
   version="1.1"
   id="svg89970"
   inkscape:version="1.2.2 (b0a8486, 2022-12-01)"
   sodipodi:docname="2mm-White-Front_Leyer.svg"
   xmlns:inkscape="http://www.inkscape.org/namespaces/inkscape"
   xmlns:sodipodi="http://sodipodi.sourceforge.net/DTD/sodipodi-0.dtd"
   xmlns="http://www.w3.org/2000/svg"
   xmlns:svg="http://www.w3.org/2000/svg">
  <sodipodi:namedview
     id="namedview89972"
     pagecolor="#ffffff"
     bordercolor="#666666"
     borderopacity="1.0"
     inkscape:showpageshadow="2"
     inkscape:pageopacity="0.0"
     inkscape:pagecheckerboard="0"
     inkscape:deskcolor="#d1d1d1"
     inkscape:document-units="mm"
     showgrid="false"
     inkscape:zoom="2.5730638"
     inkscape:cx="340.06153"
     inkscape:cy="226.77246"
     inkscape:current-layer="layer1" />
  <defs
     id="defs89967" />
  <g
     inkscape:label="Capa 1"
     inkscape:groupmode="layer"
     id="layer1"
     transform="translate(-11.506393,-88.499782)">
    <path
       id="rect3678"
       style="display:inline;fill:none;fill-opacity:1;stroke:#000000;stroke-width:0.0759766;stroke-linecap:round;stroke-miterlimit:4;stroke-dasharray:none"
       d="m 21.544287,88.53777 v 4.99711 c -1.7e-4,2.75965 -2.23882,4.99672 -5.000212,4.9966 h -4.999694 v 99.93705 h 4.999694 c 2.761392,-1.2e-4 5.000042,2.23711 5.000212,4.99659 v 4.99711 H 181.46838 v -4.99711 c 1.7e-4,-2.75948 2.23877,-4.99671 5.00021,-4.99659 h 4.99969 V 98.53148 h -4.99969 c -2.76144,1.2e-4 -5.00004,-2.23695 -5.00021,-4.9966 v -4.99711 z m -5.267896,13.02556 a 1.6,1.6 0 0 1 1.599903,1.5999 1.6,1.6 0 0 1 -1.599903,1.59991 1.6,1.6 0 0 1 -1.599902,-1.59991 1.6,1.6 0 0 1 1.599902,-1.5999 z m 170.480039,0 a 1.6,1.6 0 0 1 1.5999,1.5999 1.6,1.6 0 0 1 -1.5999,1.59991 1.6,1.6 0 0 1 -1.5999,-1.59991 1.6,1.6 0 0 1 1.5999,-1.5999 z m -58.03729,9.64437 a 1.6,1.6 0 0 1 1.59991,1.59991 1.6,1.6 0 0 1 -1.59991,1.5999 1.6,1.6 0 0 1 -1.5999,-1.5999 1.6,1.6 0 0 1 1.5999,-1.59991 z m -104.100622,0.4191 c 3.323964,0 6.000151,2.67615 6.000151,6.00015 v 9.99991 c 0,3.32388 -2.676187,6.00015 -6.000151,6.00015 -3.32396,0 -6.000151,-2.67627 -6.000151,-6.00015 v -9.99991 c 0,-3.324 2.676191,-6.00015 6.000151,-6.00015 z m 19.020028,0 c 3.323956,0 5.999633,2.67615 5.999633,6.00015 v 9.99991 c 0,3.32389 -2.675677,6.00015 -5.999633,6.00015 -3.323967,0 -6.000151,-2.67626 -6.000151,-6.00015 v -9.99991 c 0,-3.324 2.676184,-6.00015 6.000151,-6.00015 z m 18.97972,0 c 3.32396,0 6.00015,2.67615 6.00015,6.00015 v 9.99991 c 0,3.3239 -2.67619,6.00015 -6.00015,6.00015 -3.32397,0 -5.999634,-2.67625 -5.999634,-6.00015 v -9.99991 c 0,-3.324 2.675664,-6.00015 5.999634,-6.00015 z m 64.600714,4.18062 h 3.00033 v 74.00014 h -3.00033 z m -26.60045,0.98754 a 7.5500002,7.5500002 0 0 1 7.54993,7.54993 7.5500002,7.5500002 0 0 1 -7.54993,7.54992 7.5500002,7.5500002 0 0 1 -7.549927,-7.54992 7.5500002,7.5500002 0 0 1 7.549927,-7.54993 z m 54.45973,0 a 7.5500002,7.5500002 0 0 1 7.54992,7.54993 7.5500002,7.5500002 0 0 1 -7.54992,7.54992 7.5500002,7.5500002 0 0 1 -7.54993,-7.54992 7.5500002,7.5500002 0 0 1 7.54993,-7.54993 z M 15.118323,139.80751 h 95.000407 v 57.00014 H 91.118335 V 158.80738 H 72.118461 v 38.00027 H 15.118323 Z M 155.07826,141.672 a 7.5500002,7.5500002 0 0 1 7.54992,7.55044 7.5500002,7.5500002 0 0 1 -7.54992,7.54993 7.5500002,7.5500002 0 0 1 -7.54993,-7.54993 7.5500002,7.5500002 0 0 1 7.54993,-7.55044 z m 24.87755,0 a 7.5500002,7.5500002 0 0 1 7.54993,7.55044 7.5500002,7.5500002 0 0 1 -7.54993,7.54993 7.5500002,7.5500002 0 0 1 -7.55044,-7.54993 7.5500002,7.5500002 0 0 1 7.55044,-7.55044 z m -24.87755,24.87755 a 7.5500002,7.5500002 0 0 1 7.54992,7.54992 7.5500002,7.5500002 0 0 1 -7.54992,7.54993 7.5500002,7.5500002 0 0 1 -7.54993,-7.54993 7.5500002,7.5500002 0 0 1 7.54993,-7.54992 z m 24.87755,0 a 7.5500002,7.5500002 0 0 1 7.54993,7.54992 7.5500002,7.5500002 0 0 1 -7.54993,7.54993 7.5500002,7.5500002 0 0 1 -7.55044,-7.54993 7.5500002,7.5500002 0 0 1 7.55044,-7.54992 z m -51.23667,24.65792 a 1.6,1.6 0 0 1 1.59991,1.60042 1.6,1.6 0 0 1 -1.59991,1.5999 1.6,1.6 0 0 1 -1.5999,-1.5999 1.6,1.6 0 0 1 1.5999,-1.60042 z m -53.39829,1.02991 a 1.6,1.6 0 0 1 1.599902,1.59991 1.6,1.6 0 0 1 -1.599902,1.5999 1.6,1.6 0 0 1 -1.60042,-1.5999 1.6,1.6 0 0 1 1.60042,-1.59991 z m 111.43558,0 a 1.6,1.6 0 0 1 1.5999,1.59991 1.6,1.6 0 0 1 -1.5999,1.5999 1.6,1.6 0 0 1 -1.5999,-1.5999 1.6,1.6 0 0 1 1.5999,-1.59991 z" />
  </g>
</svg>
