<?xml version="1.0" encoding="UTF-8" standalone="no"?>
<!-- Created with Inkscape (http://www.inkscape.org/) -->

<svg
   width="179.99939mm"
   height="119.99995mm"
   viewBox="0 0 179.99939 119.99995"
   version="1.1"
   id="svg84337"
   inkscape:version="1.2.2 (b0a8486, 2022-12-01)"
   sodipodi:docname="3mm-Translucent-Middle_Layer.svg"
   xmlns:inkscape="http://www.inkscape.org/namespaces/inkscape"
   xmlns:sodipodi="http://sodipodi.sourceforge.net/DTD/sodipodi-0.dtd"
   xmlns="http://www.w3.org/2000/svg"
   xmlns:svg="http://www.w3.org/2000/svg">
  <sodipodi:namedview
     id="namedview84339"
     pagecolor="#ffffff"
     bordercolor="#666666"
     borderopacity="1.0"
     inkscape:showpageshadow="2"
     inkscape:pageopacity="0.0"
     inkscape:pagecheckerboard="0"
     inkscape:deskcolor="#d1d1d1"
     inkscape:document-units="mm"
     showgrid="false"
     inkscape:zoom="2.5730741"
     inkscape:cx="340.06017"
     inkscape:cy="226.77155"
     inkscape:current-layer="layer1" />
  <defs
     id="defs84334" />
  <g
     inkscape:label="Capa 1"
     inkscape:groupmode="layer"
     id="layer1"
     transform="translate(-2.4056122e-4,-2.4000122e-4)">
    <path
       id="rect3678-3"
       style="display:inline;fill:none;fill-opacity:1;stroke:#000000;stroke-width:0.076;stroke-linecap:round;stroke-miterlimit:4;stroke-dasharray:none"
       d="m 10.035563,0.03824 v 4.99659 c -1.66e-4,2.75964 -2.2379968,4.99672 -4.9986611,4.9966 H 0.03824056 v 99.93705 H 5.0369019 c 2.7606643,-1.2e-4 4.9984951,2.23696 4.9986611,4.9966 v 4.99711 H 169.96431 v -4.99711 c 1.6e-4,-2.75964 2.23863,-4.99672 4.99917,-4.9966 h 4.99815 V 10.03143 h -4.99815 c -2.76054,1.2e-4 -4.99901,-2.23696 -4.99917,-4.9966 V 0.03824 Z M 4.7702515,13.0638 A 1.6,1.6 0 0 1 6.3701538,14.6637 1.6,1.6 0 0 1 4.7702515,16.26361 1.6,1.6 0 0 1 3.1703492,14.6637 1.6,1.6 0 0 1 4.7702515,13.0638 Z m 170.4800385,0 a 1.6,1.6 0 0 1 1.5999,1.5999 1.6,1.6 0 0 1 -1.5999,1.59991 1.6,1.6 0 0 1 -1.5999,-1.59991 1.6,1.6 0 0 1 1.5999,-1.5999 z M 117.213,22.70817 a 1.6,1.6 0 0 1 1.59991,1.59991 1.6,1.6 0 0 1 -1.59991,1.5999 1.6,1.6 0 0 1 -1.5999,-1.5999 1.6,1.6 0 0 1 1.5999,-1.59991 z m -104.97137,0.4191 h 1.741496 c 4.226476,0 7.628992,3.01089 7.628992,6.75101 v 8.49767 c 0,3.74013 -3.402516,6.75153 -7.628992,6.75153 H 12.24163 c -4.2264726,0 -7.6295084,-3.0114 -7.6295084,-6.75153 v -8.49767 c 0,-3.74012 3.4030358,-6.75101 7.6295084,-6.75101 z m 19.019511,0 h 1.742013 c 4.22647,0 7.628991,3.01089 7.628991,6.75101 v 8.49767 c 0,3.74013 -3.402521,6.75153 -7.628991,6.75153 h -1.742013 c -4.22648,0 -7.628992,-3.0114 -7.628992,-6.75153 v -8.49767 c 0,-3.74012 3.402512,-6.75101 7.628992,-6.75101 z m 18.980237,0 h 1.742012 c 4.226484,0 7.628992,3.01089 7.628992,6.75101 v 8.49767 c 0,3.74013 -3.402508,6.75153 -7.628992,6.75153 h -1.742012 c -4.226484,0 -7.628992,-3.0114 -7.628992,-6.75153 v -8.49767 c 0,-3.74012 3.402508,-6.75101 7.628992,-6.75101 z m 65.471462,4.18062 h 3.00033 v 74.00014 h -3.00033 z m -26.60045,0.98754 a 7.5500002,7.5500002 0 0 1 7.549927,7.54993 7.5500002,7.5500002 0 0 1 -7.549927,7.54992 7.5500002,7.5500002 0 0 1 -7.549927,-7.54992 7.5500002,7.5500002 0 0 1 7.549927,-7.54993 z m 54.45973,0 a 7.5500002,7.5500002 0 0 1 7.54992,7.54993 7.5500002,7.5500002 0 0 1 -7.54992,7.54992 7.5500002,7.5500002 0 0 1 -7.54993,-7.54992 7.5500002,7.5500002 0 0 1 7.54993,-7.54993 z M 3.6121826,51.30798 H 98.612585 v 57.00014 H 79.612195 V 70.30785 H 60.612321 v 38.00027 H 3.6121826 Z M 143.57212,53.17247 a 7.5500002,7.5500002 0 0 1 7.54992,7.55044 7.5500002,7.5500002 0 0 1 -7.54992,7.54993 7.5500002,7.5500002 0 0 1 -7.54993,-7.54993 7.5500002,7.5500002 0 0 1 7.54993,-7.55044 z m 24.87755,0 a 7.5500002,7.5500002 0 0 1 7.54993,7.55044 7.5500002,7.5500002 0 0 1 -7.54993,7.54993 7.5500002,7.5500002 0 0 1 -7.55044,-7.54993 7.5500002,7.5500002 0 0 1 7.55044,-7.55044 z m -24.87755,24.87755 a 7.5500002,7.5500002 0 0 1 7.54992,7.54992 7.5500002,7.5500002 0 0 1 -7.54992,7.54993 7.5500002,7.5500002 0 0 1 -7.54993,-7.54993 7.5500002,7.5500002 0 0 1 7.54993,-7.54992 z m 24.87755,0 a 7.5500002,7.5500002 0 0 1 7.54993,7.54992 7.5500002,7.5500002 0 0 1 -7.54993,7.54993 7.5500002,7.5500002 0 0 1 -7.55044,-7.54993 7.5500002,7.5500002 0 0 1 7.55044,-7.54992 z M 117.213,102.70794 a 1.6,1.6 0 0 1 1.59991,1.60042 1.6,1.6 0 0 1 -1.59991,1.5999 1.6,1.6 0 0 1 -1.5999,-1.5999 1.6,1.6 0 0 1 1.5999,-1.60042 z m -53.39829,1.02991 a 1.6,1.6 0 0 1 1.599902,1.59991 1.6,1.6 0 0 1 -1.599902,1.5999 1.6,1.6 0 0 1 -1.60042,-1.5999 1.6,1.6 0 0 1 1.60042,-1.59991 z m 111.43558,0 a 1.6,1.6 0 0 1 1.5999,1.59991 1.6,1.6 0 0 1 -1.5999,1.5999 1.6,1.6 0 0 1 -1.5999,-1.5999 1.6,1.6 0 0 1 1.5999,-1.59991 z" />
  </g>
</svg>
