<?xml version="1.0" encoding="UTF-8" standalone="no"?>
<!-- Created with Inkscape (http://www.inkscape.org/) -->

<svg
   width="180.00038mm"
   height="119.9999mm"
   viewBox="0 0 180.00038 119.9999"
   version="1.1"
   id="svg77215"
   inkscape:version="1.2.2 (b0a8486, 2022-12-01)"
   sodipodi:docname="3mm-Black-Back_Layer.svg"
   xmlns:inkscape="http://www.inkscape.org/namespaces/inkscape"
   xmlns:sodipodi="http://sodipodi.sourceforge.net/DTD/sodipodi-0.dtd"
   xmlns="http://www.w3.org/2000/svg"
   xmlns:svg="http://www.w3.org/2000/svg">
  <sodipodi:namedview
     id="namedview77217"
     pagecolor="#ffffff"
     bordercolor="#666666"
     borderopacity="1.0"
     inkscape:showpageshadow="2"
     inkscape:pageopacity="0.0"
     inkscape:pagecheckerboard="0"
     inkscape:deskcolor="#d1d1d1"
     inkscape:document-units="mm"
     showgrid="false"
     inkscape:zoom="2.573075"
     inkscape:cx="340.06004"
     inkscape:cy="226.77147"
     inkscape:current-layer="layer1" />
  <defs
     id="defs77212" />
  <g
     inkscape:label="Capa 1"
     inkscape:groupmode="layer"
     id="layer1"
     transform="translate(-11.506138,-88.500047)">
    <path
       id="rect11527"
       style="display:inline;fill:none;fill-opacity:1;stroke:#000000;stroke-width:0.083196;stroke-linecap:round;stroke-miterlimit:4;stroke-dasharray:none"
       d="M 11.547736,88.541645 V 208.45835 H 191.46492 V 88.541645 Z m 4.728911,3.10627 a 1.6,1.6 0 0 1 1.599902,1.60042 1.6,1.6 0 0 1 -1.599902,1.5999 1.6,1.6 0 0 1 -1.60042,-1.5999 1.6,1.6 0 0 1 1.60042,-1.60042 z m 170.480033,0.25166 a 1.6,1.6 0 0 1 1.60042,1.60042 1.6,1.6 0 0 1 -1.60042,1.5999 1.6,1.6 0 0 1 -1.5999,-1.5999 1.6,1.6 0 0 1 1.5999,-1.60042 z M 16.276647,101.56358 a 1.6,1.6 0 0 1 1.599902,1.5999 1.6,1.6 0 0 1 -1.599902,1.59991 1.6,1.6 0 0 1 -1.599903,-1.59991 1.6,1.6 0 0 1 1.599903,-1.5999 z m 170.480033,0 a 1.6,1.6 0 0 1 1.5999,1.5999 1.6,1.6 0 0 1 -1.5999,1.59991 1.6,1.6 0 0 1 -1.5999,-1.59991 1.6,1.6 0 0 1 1.5999,-1.5999 z m -58.03729,9.64437 a 1.6,1.6 0 0 1 1.59991,1.59991 1.6,1.6 0 0 1 -1.59991,1.5999 1.6,1.6 0 0 1 -1.5999,-1.5999 1.6,1.6 0 0 1 1.5999,-1.59991 z m -1.50016,4.59972 h 3.00033 v 74.00014 h -3.00033 z m -102.600457,0.81909 a 6,6 0 0 1 6.000151,6.00014 6,6 0 0 1 -5.000212,5.91643 v -0.91622 h -1.999878 v 0.91622 a 6,6 0 0 1 -5.000212,-5.91643 6,6 0 0 1 6.000151,-6.00014 z m 19.020028,0 a 6,6 0 0 1 6.00015,6.00014 6,6 0 0 1 -5.000211,5.91643 v -0.91622 h -1.999878 v 0.91622 a 6,6 0 0 1 -5.000212,-5.91643 6,6 0 0 1 6.000151,-6.00014 z m 18.97972,0 a 6,6 0 0 1 6.00015,6.00014 6,6 0 0 1 -5.000211,5.91643 v -0.91622 h -1.999878 v 0.91622 a 6,6 0 0 1 -5.000212,-5.91643 6,6 0 0 1 6.000151,-6.00014 z m 38.000269,4.41833 a 3.5,3.5 0 0 1 3.50004,3.50004 3.5,3.5 0 0 1 -3.50004,3.50004 3.5,3.5 0 0 1 -3.50005,-3.50004 3.5,3.5 0 0 1 3.50005,-3.50004 z m 54.45972,0 a 3.5,3.5 0 0 1 3.50004,3.50004 3.5,3.5 0 0 1 -3.50004,3.50004 3.5,3.5 0 0 1 -3.50005,-3.50004 3.5,3.5 0 0 1 3.50005,-3.50004 z m -55.459664,9.3002 h 1.999874 v 0.99994 h -1.999874 z m 54.459724,0 h 1.99988 v 0.99994 h -1.99988 z M 17.618683,142.30787 h 14.000179 v 14.00017 H 17.618683 Z m 18.999874,0 h 14.000179 v 14.00017 H 36.618557 Z m 19.000391,0 H 69.61861 v 14.00017 H 55.618948 Z m 18.999874,0 h 13.999662 v 14.00017 H 74.618822 Z m 18.999874,0 h 14.000184 v 14.00017 H 93.618696 Z m 61.459814,3.61476 a 3.5,3.5 0 0 1 3.50004,3.50005 3.5,3.5 0 0 1 -3.50004,3.50004 3.5,3.5 0 0 1 -3.50005,-3.50004 3.5,3.5 0 0 1 3.50005,-3.50005 z m 24.87755,0 a 3.5,3.5 0 0 1 3.50004,3.50005 3.5,3.5 0 0 1 -3.50004,3.50004 3.5,3.5 0 0 1 -3.50005,-3.50004 3.5,3.5 0 0 1 3.50005,-3.50005 z m -25.87749,9.29969 h 1.99988 v 0.99994 h -1.99988 z m 24.87755,0 h 1.99988 v 0.99994 h -1.99988 z m -161.337437,6.08542 h 14.000179 v 14.00018 H 17.618683 Z m 18.999874,0 h 14.000179 v 14.00018 H 36.618557 Z m 19.000391,0 H 69.61861 v 14.00018 H 55.618948 Z m 37.999748,0 h 14.000184 v 14.00018 H 93.618696 Z m 61.459814,9.49193 a 3.5,3.5 0 0 1 3.50004,3.50005 3.5,3.5 0 0 1 -3.50004,3.50004 3.5,3.5 0 0 1 -3.50005,-3.50004 3.5,3.5 0 0 1 3.50005,-3.50005 z m 24.87755,0 a 3.5,3.5 0 0 1 3.50004,3.50005 3.5,3.5 0 0 1 -3.50004,3.50004 3.5,3.5 0 0 1 -3.50005,-3.50004 3.5,3.5 0 0 1 3.50005,-3.50005 z M 55.618948,179.8079 H 69.61861 v 14.00018 H 55.618948 Z m 98.459622,0.29197 h 1.99988 v 0.99994 h -1.99988 z m 24.87755,0 h 1.99988 v 0.99994 h -1.99988 z M 17.618683,180.30814 H 31.618862 V 194.3078 H 17.618683 Z m 18.999874,0 H 50.618736 V 194.3078 H 36.618557 Z m 57.000139,0 H 107.61888 V 194.3078 H 93.618696 Z m 35.100694,10.89958 a 1.6,1.6 0 0 1 1.59991,1.60042 1.6,1.6 0 0 1 -1.59991,1.5999 1.6,1.6 0 0 1 -1.5999,-1.5999 1.6,1.6 0 0 1 1.5999,-1.60042 z m -53.398285,1.02991 a 1.6,1.6 0 0 1 1.599902,1.59991 1.6,1.6 0 0 1 -1.599902,1.5999 1.6,1.6 0 0 1 -1.60042,-1.5999 1.6,1.6 0 0 1 1.60042,-1.59991 z m 111.435575,0 a 1.6,1.6 0 0 1 1.5999,1.59991 1.6,1.6 0 0 1 -1.5999,1.5999 1.6,1.6 0 0 1 -1.5999,-1.5999 1.6,1.6 0 0 1 1.5999,-1.59991 z m -170.480033,9.91361 a 1.6,1.6 0 0 1 1.599902,1.5999 1.6,1.6 0 0 1 -1.599902,1.59991 1.6,1.6 0 0 1 -1.60042,-1.59991 1.6,1.6 0 0 1 1.60042,-1.5999 z m 170.480033,0 a 1.6,1.6 0 0 1 1.60042,1.5999 1.6,1.6 0 0 1 -1.60042,1.59991 1.6,1.6 0 0 1 -1.5999,-1.59991 1.6,1.6 0 0 1 1.5999,-1.5999 z" />
  </g>
</svg>
