<?xml version="1.0" encoding="UTF-8" standalone="no"?>
<!-- Created with Inkscape (http://www.inkscape.org/) -->

<svg
   width="180.00038mm"
   height="97.999695mm"
   viewBox="0 0 180.00038 97.999695"
   version="1.1"
   id="svg1"
   inkscape:version="1.3 (0e150ed, 2023-07-21)"
   sodipodi:docname="3mm-Black-Microcontroller_Layer.svg"
   xmlns:inkscape="http://www.inkscape.org/namespaces/inkscape"
   xmlns:sodipodi="http://sodipodi.sourceforge.net/DTD/sodipodi-0.dtd"
   xmlns="http://www.w3.org/2000/svg"
   xmlns:svg="http://www.w3.org/2000/svg">
  <sodipodi:namedview
     id="namedview1"
     pagecolor="#ffffff"
     bordercolor="#666666"
     borderopacity="1.0"
     inkscape:showpageshadow="2"
     inkscape:pageopacity="0.0"
     inkscape:pagecheckerboard="0"
     inkscape:deskcolor="#d1d1d1"
     inkscape:document-units="mm"
     inkscape:zoom="3.1588109"
     inkscape:cx="340.00136"
     inkscape:cy="185.19627"
     inkscape:current-layer="layer1" />
  <defs
     id="defs1" />
  <g
     inkscape:label="Capa 1"
     inkscape:groupmode="layer"
     id="layer1"
     transform="translate(2.5399979e-4,-11.000108)">
    <path
       id="rect11527-5"
       style="display:inline;fill:none;fill-opacity:1;stroke:#000000;stroke-width:0.0831903;stroke-linecap:round;stroke-miterlimit:4;stroke-dasharray:none"
       d="M 0.04134115,11.041703 V 108.95821 H 179.95853 V 11.041703 Z m 4.72891035,2.022099 a 1.6,1.6 0 0 1 1.5999024,1.599902 1.6,1.6 0 0 1 -1.5999024,1.599903 1.6,1.6 0 0 1 -1.5999023,-1.599903 1.6,1.6 0 0 1 1.5999023,-1.599902 z m 170.4800385,0 a 1.6,1.6 0 0 1 1.5999,1.599902 1.6,1.6 0 0 1 -1.5999,1.599903 1.6,1.6 0 0 1 -1.5999,-1.599903 1.6,1.6 0 0 1 1.5999,-1.599902 z m -85.250615,0.926042 a 1.6,1.6 0 0 1 1.599902,1.600419 1.6,1.6 0 0 1 -1.599902,1.599902 1.6,1.6 0 0 1 -1.600419,-1.599902 1.6,1.6 0 0 1 1.600419,-1.600419 z m 45.015345,76.635632 h 17.99993 v 9.999904 H 135.01502 Z M 89.999675,102.80975 a 1.6,1.6 0 0 1 1.599902,1.60041 1.6,1.6 0 0 1 -1.599902,1.59991 1.6,1.6 0 0 1 -1.600419,-1.59991 1.6,1.6 0 0 1 1.600419,-1.60041 z m -26.184965,0.9281 a 1.6,1.6 0 0 1 1.599902,1.59991 1.6,1.6 0 0 1 -1.599902,1.5999 1.6,1.6 0 0 1 -1.600419,-1.5999 1.6,1.6 0 0 1 1.600419,-1.59991 z m 111.43558,0 a 1.6,1.6 0 0 1 1.5999,1.59991 1.6,1.6 0 0 1 -1.5999,1.5999 1.6,1.6 0 0 1 -1.5999,-1.5999 1.6,1.6 0 0 1 1.5999,-1.59991 z" />
  </g>
</svg>
