<?xml version="1.0" encoding="UTF-8" standalone="no"?>
<!-- Created with Inkscape (http://www.inkscape.org/) -->

<svg
   width="124.99964mm"
   height="119.99995mm"
   viewBox="0 0 124.99964 119.99995"
   version="1.1"
   id="svg55020"
   inkscape:version="1.2.2 (b0a8486, 2022-12-01)"
   sodipodi:docname="2mm-White-Front_Leyer.svg"
   xmlns:inkscape="http://www.inkscape.org/namespaces/inkscape"
   xmlns:sodipodi="http://sodipodi.sourceforge.net/DTD/sodipodi-0.dtd"
   xmlns="http://www.w3.org/2000/svg"
   xmlns:svg="http://www.w3.org/2000/svg">
  <sodipodi:namedview
     id="namedview55022"
     pagecolor="#ffffff"
     bordercolor="#666666"
     borderopacity="1.0"
     inkscape:showpageshadow="2"
     inkscape:pageopacity="0.0"
     inkscape:pagecheckerboard="0"
     inkscape:deskcolor="#d1d1d1"
     inkscape:document-units="mm"
     showgrid="false"
     inkscape:zoom="2.5730741"
     inkscape:cx="236.29324"
     inkscape:cy="226.77155"
     inkscape:current-layer="layer1" />
  <defs
     id="defs55017" />
  <g
     inkscape:label="Capa 1"
     inkscape:groupmode="layer"
     id="layer1"
     transform="translate(-39.006509,-88.500025)">
    <path
       id="rect3678"
       style="display:inline;fill:none;fill-opacity:1;stroke:#000000;stroke-width:0.075976;stroke-linecap:round;stroke-miterlimit:4;stroke-dasharray:none"
       d="m 49.044656,88.538265 v 4.99659 c -1.7e-4,2.75964 -2.238834,4.99672 -5.000212,4.9966 H 39.044749 V 198.4685 h 4.999695 c 2.761378,-1.2e-4 5.000042,2.23696 5.000212,4.9966 v 4.99712 H 154.00673 v -4.99712 c 1.7e-4,-2.75964 2.23882,-4.99672 5.00021,-4.9966 h 4.99969 V 98.531455 h -4.99969 c -2.76139,1.2e-4 -5.00004,-2.23696 -5.00021,-4.9966 v -4.99659 z m 4.981091,12.461765 h 94.999883 v 95.00042 H 54.025747 Z m -10.248987,0.56276 c 0.883781,5e-5 1.600134,0.71665 1.599902,1.60043 -5.5e-5,0.88358 -0.716324,1.59985 -1.599902,1.5999 -0.883779,2.2e-4 -1.600364,-0.71612 -1.600419,-1.5999 -2.32e-4,-0.88398 0.716437,-1.60065 1.600419,-1.60043 z m 115.41776,0 c 0.88378,6e-5 1.60013,0.71665 1.5999,1.60043 -6e-5,0.88358 -0.71632,1.59984 -1.5999,1.5999 -0.88358,-6e-5 -1.59984,-0.71632 -1.5999,-1.5999 -2.3e-4,-0.88378 0.71612,-1.60036 1.5999,-1.60043 z M 43.77676,192.23685 c 0.883781,4e-5 1.600134,0.71663 1.599902,1.60041 -5.5e-5,0.88358 -0.716325,1.59985 -1.599902,1.5999 -0.883779,2.3e-4 -1.600364,-0.71612 -1.600419,-1.5999 -2.32e-4,-0.88398 0.716437,-1.60064 1.600419,-1.60041 z m 115.41776,0 c 0.88378,6e-5 1.60013,0.71663 1.5999,1.60041 -6e-5,0.88358 -0.71632,1.59984 -1.5999,1.5999 -0.88358,-6e-5 -1.59984,-0.71632 -1.5999,-1.5999 -2.3e-4,-0.88378 0.71612,-1.60036 1.5999,-1.60041 z" />
  </g>
</svg>
