<?xml version="1.0" encoding="UTF-8" standalone="no"?>
<!-- Created with Inkscape (http://www.inkscape.org/) -->

<svg
   width="124.99962mm"
   height="119.99993mm"
   viewBox="0 0 124.99962 119.99993"
   version="1.1"
   id="svg53794"
   inkscape:version="1.2.2 (b0a8486, 2022-12-01)"
   sodipodi:docname="2mm-White-Front_Leyer.svg"
   xmlns:inkscape="http://www.inkscape.org/namespaces/inkscape"
   xmlns:sodipodi="http://sodipodi.sourceforge.net/DTD/sodipodi-0.dtd"
   xmlns="http://www.w3.org/2000/svg"
   xmlns:svg="http://www.w3.org/2000/svg">
  <sodipodi:namedview
     id="namedview53796"
     pagecolor="#ffffff"
     bordercolor="#666666"
     borderopacity="1.0"
     inkscape:showpageshadow="2"
     inkscape:pageopacity="0.0"
     inkscape:pagecheckerboard="0"
     inkscape:deskcolor="#d1d1d1"
     inkscape:document-units="mm"
     showgrid="false"
     inkscape:zoom="2.5730744"
     inkscape:cx="236.29321"
     inkscape:cy="226.77152"
     inkscape:current-layer="layer1" />
  <defs
     id="defs53791" />
  <g
     inkscape:label="Capa 1"
     inkscape:groupmode="layer"
     id="layer1"
     transform="translate(-39.006521,-88.500037)">
    <path
       id="rect3678"
       style="display:inline;fill:none;fill-opacity:1;stroke:#000000;stroke-width:0.075976;stroke-linecap:round;stroke-miterlimit:4;stroke-dasharray:none"
       d="m 49.041315,88.538025 v 4.99659 c -1.7e-4,2.75964 -2.2382,4.99672 -4.998661,4.9966 h -4.998145 v 99.937045 h 4.998145 c 2.760461,-1.1e-4 4.998491,2.23697 4.998661,4.9966 v 4.99712 H 153.97135 v -4.99712 c 1.7e-4,-2.75963 2.23811,-4.99671 4.99866,-4.9966 h 4.99814 V 98.531215 h -4.99814 c -2.76055,1.2e-4 -4.99849,-2.23696 -4.99866,-4.9966 v -4.99659 z m 4.984192,12.461775 c 31.666627,0 63.333253,0 94.999883,0 0,31.66679 0,63.3336 0,95.00041 -31.66663,0 -63.333256,0 -94.999883,0 0,-31.6668 0,-63.33361 0,-95.00041 z m -10.248987,0.56276 c 0.883782,4e-5 1.600134,0.71664 1.599902,1.60042 -5.5e-5,0.88358 -0.716324,1.59985 -1.599902,1.5999 -0.88378,2.2e-4 -1.600364,-0.71612 -1.600419,-1.5999 -2.32e-4,-0.88398 0.716436,-1.60065 1.600419,-1.60042 z m 115.41776,0 c 0.88378,5e-5 1.60013,0.71664 1.5999,1.60042 -6e-5,0.88358 -0.71632,1.59984 -1.5999,1.5999 -0.88358,-6e-5 -1.59984,-0.71632 -1.5999,-1.5999 -2.3e-4,-0.88378 0.71612,-1.60036 1.5999,-1.60042 z M 43.77652,192.23661 c 0.883782,5e-5 1.600134,0.71663 1.599902,1.60041 -5.5e-5,0.88358 -0.716324,1.59986 -1.599902,1.5999 -0.88378,2.3e-4 -1.600364,-0.71611 -1.600419,-1.5999 -2.32e-4,-0.88398 0.716436,-1.60064 1.600419,-1.60041 z m 115.41776,0 c 0.88378,6e-5 1.60013,0.71663 1.5999,1.60041 -6e-5,0.88358 -0.71632,1.59984 -1.5999,1.5999 -0.88358,-6e-5 -1.59984,-0.71632 -1.5999,-1.5999 -2.3e-4,-0.88378 0.71612,-1.60036 1.5999,-1.60041 z"
       sodipodi:nodetypes="cccccccccccccccccccccccccccccccccccccccccc" />
  </g>
</svg>
