<?xml version="1.0" encoding="UTF-8" standalone="no"?>
<!-- Created with Inkscape (http://www.inkscape.org/) -->

<svg
   width="124.99964mm"
   height="119.99995mm"
   viewBox="0 0 124.99964 119.99995"
   version="1.1"
   id="svg50113"
   inkscape:version="1.2.2 (b0a8486, 2022-12-01)"
   sodipodi:docname="3mm-Translucent-Middle_Layer.svg"
   xmlns:inkscape="http://www.inkscape.org/namespaces/inkscape"
   xmlns:sodipodi="http://sodipodi.sourceforge.net/DTD/sodipodi-0.dtd"
   xmlns="http://www.w3.org/2000/svg"
   xmlns:svg="http://www.w3.org/2000/svg">
  <sodipodi:namedview
     id="namedview50115"
     pagecolor="#ffffff"
     bordercolor="#666666"
     borderopacity="1.0"
     inkscape:showpageshadow="2"
     inkscape:pageopacity="0.0"
     inkscape:pagecheckerboard="0"
     inkscape:deskcolor="#d1d1d1"
     inkscape:document-units="mm"
     showgrid="false"
     inkscape:zoom="0.914906"
     inkscape:cx="236.08983"
     inkscape:cy="226.79925"
     inkscape:current-layer="layer1" />
  <defs
     id="defs50110" />
  <g
     inkscape:label="Capa 1"
     inkscape:groupmode="layer"
     id="layer1"
     transform="translate(-39.006509,-88.500025)">
    <path
       id="rect3678-3"
       style="display:inline;fill:none;fill-opacity:1;stroke:#000000;stroke-width:0.076;stroke-linecap:round;stroke-miterlimit:4;stroke-dasharray:none"
       d="m 49.041832,88.538025 v 4.99659 c -1.66e-4,2.75964 -2.238503,4.99672 -4.999178,4.9966 h -4.998145 v 99.937045 h 4.998145 c 2.760675,-1.1e-4 4.999012,2.23697 4.999178,4.9966 v 4.99712 H 153.97083 v -4.99712 c 1.6e-4,-2.75963 2.2385,-4.99671 4.99918,-4.9966 h 4.99814 V 98.531215 h -4.99814 c -2.76068,1.2e-4 -4.99902,-2.23696 -4.99918,-4.9966 v -4.99659 z M 43.77652,101.56256 a 1.6,1.6 0 0 1 1.599902,1.60042 1.6,1.6 0 0 1 -1.599902,1.5999 1.6,1.6 0 0 1 -1.600419,-1.5999 1.6,1.6 0 0 1 1.600419,-1.60042 z m 115.41776,0 a 1.6,1.6 0 0 1 1.5999,1.60042 1.6,1.6 0 0 1 -1.5999,1.5999 1.6,1.6 0 0 1 -1.5999,-1.5999 1.6,1.6 0 0 1 1.5999,-1.60042 z M 48.025356,101.99974 H 67.02523 v 93 H 48.025356 Z m 21.999691,0 h 19.000391 v 93 H 70.025047 Z m 22.000208,0 h 18.999875 v 93 H 92.025255 Z m 22.000205,0 h 18.99988 v 93 h -18.99988 z m 21.99969,0 h 18.99988 v 93 h -18.99988 z m -92.24863,90.23687 a 1.6,1.6 0 0 1 1.599902,1.60041 1.6,1.6 0 0 1 -1.599902,1.5999 1.6,1.6 0 0 1 -1.600419,-1.5999 1.6,1.6 0 0 1 1.600419,-1.60041 z m 115.41776,0 a 1.6,1.6 0 0 1 1.5999,1.60041 1.6,1.6 0 0 1 -1.5999,1.5999 1.6,1.6 0 0 1 -1.5999,-1.5999 1.6,1.6 0 0 1 1.5999,-1.60041 z" />
  </g>
</svg>
