<?xml version="1.0" encoding="UTF-8" standalone="no"?>
<!-- Created with Inkscape (http://www.inkscape.org/) -->

<svg
   width="125.00011mm"
   height="119.9999mm"
   viewBox="0 0 125.00011 119.9999"
   version="1.1"
   id="svg44995"
   inkscape:version="1.2.2 (b0a8486, 2022-12-01)"
   sodipodi:docname="3mm-Black-Back_Layer.svg"
   xmlns:inkscape="http://www.inkscape.org/namespaces/inkscape"
   xmlns:sodipodi="http://sodipodi.sourceforge.net/DTD/sodipodi-0.dtd"
   xmlns="http://www.w3.org/2000/svg"
   xmlns:svg="http://www.w3.org/2000/svg">
  <sodipodi:namedview
     id="namedview44997"
     pagecolor="#ffffff"
     bordercolor="#666666"
     borderopacity="1.0"
     inkscape:showpageshadow="2"
     inkscape:pageopacity="0.0"
     inkscape:pagecheckerboard="0"
     inkscape:deskcolor="#d1d1d1"
     inkscape:document-units="mm"
     showgrid="false"
     inkscape:zoom="1.2865375"
     inkscape:cx="236.29315"
     inkscape:cy="227.35443"
     inkscape:current-layer="layer1" />
  <defs
     id="defs44992" />
  <g
     inkscape:label="Capa 1"
     inkscape:groupmode="layer"
     id="layer1"
     transform="translate(-39.006272,-88.500047)">
    <path
       id="rect11527"
       style="display:inline;fill:none;fill-opacity:1;stroke:#000000;stroke-width:0.083196;stroke-linecap:round;stroke-miterlimit:4;stroke-dasharray:none"
       d="M 39.04787,88.541645 V 208.45835 H 163.96479 V 88.541645 Z m 4.72891,3.10627 a 1.6,1.6 0 0 1 0.24598,0.0191 1.6,1.6 0 0 1 0.0041,5.2e-4 1.6,1.6 0 0 1 0.0036,0.001 1.6,1.6 0 0 1 0.239262,0.0574 1.6,1.6 0 0 1 0.0015,5.2e-4 1.6,1.6 0 0 1 0.0016,5.1e-4 1.6,1.6 0 0 1 0.228409,0.0946 1.6,1.6 0 0 1 0.0021,10e-4 1.6,1.6 0 0 1 0.0026,0.002 1.6,1.6 0 0 1 0.210839,0.12971 1.6,1.6 0 0 1 5.17e-4,0 1.6,1.6 0 0 1 5.17e-4,5.2e-4 1.6,1.6 0 0 1 0.183968,0.15658 1.6,1.6 0 0 1 0.0124,0.0124 1.6,1.6 0 0 1 0.154512,0.18138 1.6,1.6 0 0 1 0.0026,0.003 1.6,1.6 0 0 1 0.0021,0.004 1.6,1.6 0 0 1 0.126091,0.20516 1.6,1.6 0 0 1 0.0052,0.0103 1.6,1.6 0 0 1 0.09147,0.22169 1.6,1.6 0 0 1 0.0036,0.0109 1.6,1.6 0 0 1 10e-4,0.003 1.6,1.6 0 0 1 0.05581,0.23564 1.6,1.6 0 0 1 5.17e-4,10e-4 1.6,1.6 0 0 1 5.16e-4,0.004 1.6,1.6 0 0 1 0.01912,0.24649 1.6,1.6 0 0 1 -0.121439,0.60875 1.6,1.6 0 0 1 -0.0031,0.007 1.6,1.6 0 0 1 -0.340548,0.51005 1.6,1.6 0 0 1 -0.0093,0.009 1.6,1.6 0 0 1 -0.509529,0.34055 1.6,1.6 0 0 1 -0.0072,0.003 1.6,1.6 0 0 1 -0.608749,0.12144 1.6,1.6 0 0 1 -0.607715,-0.12041 1.6,1.6 0 0 1 -0.0098,-0.005 1.6,1.6 0 0 1 -0.506945,-0.33848 1.6,1.6 0 0 1 -0.01189,-0.0114 1.6,1.6 0 0 1 -0.339515,-0.50901 1.6,1.6 0 0 1 -0.0031,-0.007 1.6,1.6 0 0 1 -0.121439,-0.60875 1.6,1.6 0 0 1 0.121439,-0.60978 1.6,1.6 0 0 1 0.0026,-0.005 1.6,1.6 0 0 1 0.340548,-0.51056 1.6,1.6 0 0 1 0.01033,-0.0103 1.6,1.6 0 0 1 0.510563,-0.34055 1.6,1.6 0 0 1 0.0052,-0.003 1.6,1.6 0 0 1 0.609782,-0.12144 z m 115.41776,0 h 5.2e-4 a 1.6,1.6 0 0 1 0.49403,0.0785 1.6,1.6 0 0 1 0.23099,0.0956 1.6,1.6 0 0 1 10e-4,5.1e-4 1.6,1.6 0 0 1 5.2e-4,5.2e-4 1.6,1.6 0 0 1 0.21342,0.13074 1.6,1.6 0 0 1 0.18914,0.16123 1.6,1.6 0 0 1 0.002,0.002 1.6,1.6 0 0 1 0.002,0.002 1.6,1.6 0 0 1 0.16175,0.18913 1.6,1.6 0 0 1 0.13074,0.21343 1.6,1.6 0 0 1 5.2e-4,5.1e-4 1.6,1.6 0 0 1 0,5.2e-4 1.6,1.6 0 0 1 0.0956,0.22996 1.6,1.6 0 0 1 5.2e-4,0.002 1.6,1.6 0 0 1 0.0579,0.24029 1.6,1.6 0 0 1 5.2e-4,0.003 1.6,1.6 0 0 1 5.2e-4,0.004 1.6,1.6 0 0 1 0.0191,0.24649 1.6,1.6 0 0 1 -0.12144,0.60927 1.6,1.6 0 0 1 -0.003,0.005 1.6,1.6 0 0 1 -0.34158,0.51211 1.6,1.6 0 0 1 -0.008,0.008 1.6,1.6 0 0 1 -0.51056,0.34107 1.6,1.6 0 0 1 -0.007,0.003 1.6,1.6 0 0 1 -0.60875,0.12144 1.6,1.6 0 0 1 -0.60875,-0.12144 1.6,1.6 0 0 1 -0.007,-0.003 1.6,1.6 0 0 1 -0.51057,-0.34107 1.6,1.6 0 0 1 -0.008,-0.008 1.6,1.6 0 0 1 -0.34055,-0.50953 1.6,1.6 0 0 1 -0.005,-0.0103 1.6,1.6 0 0 1 -0.12041,-0.6072 1.6,1.6 0 0 1 0.12041,-0.6072 1.6,1.6 0 0 1 0.005,-0.0103 1.6,1.6 0 0 1 0.34055,-0.50953 1.6,1.6 0 0 1 0.008,-0.008 1.6,1.6 0 0 1 0.51057,-0.34107 1.6,1.6 0 0 1 0.007,-0.003 1.6,1.6 0 0 1 0.60823,-0.12144 z M 43.77678,101.56256 a 1.6,1.6 0 0 1 1.599902,1.60042 1.6,1.6 0 0 1 -1.599902,1.5999 1.6,1.6 0 0 1 -1.600419,-1.5999 1.6,1.6 0 0 1 1.600419,-1.60042 z m 115.41776,0 a 1.6,1.6 0 0 1 1.5999,1.60042 1.6,1.6 0 0 1 -1.5999,1.5999 1.6,1.6 0 0 1 -1.5999,-1.5999 1.6,1.6 0 0 1 1.5999,-1.60042 z m -108.668818,2.93728 h 13.999662 v 14.00018 H 50.525722 Z m 21.999691,0 h 14.000179 v 14.00018 H 72.525413 Z m 22.000207,0 h 13.99966 v 14.00018 H 94.52562 Z m 21.99969,0 h 14.00018 v 14.00018 h -14.00018 z m 22.00021,0 h 14.00018 v 14.00018 H 138.52552 Z M 50.525722,123 h 13.999662 v 13.99966 H 50.525722 Z m 21.999691,0 h 14.000179 v 13.99966 H 72.525413 Z m 22.000207,0 h 13.99966 v 13.99966 H 94.52562 Z m 21.99969,0 h 14.00018 v 13.99966 h -14.00018 z m 22.00021,0 h 14.00018 v 13.99966 h -14.00018 z m -87.999798,18.49965 h 13.999662 v 14.00017 H 50.525722 Z m 21.999691,0 h 14.000179 v 14.00017 H 72.525413 Z m 22.000207,0 h 13.99966 v 14.00017 H 94.52562 Z m 21.99969,0 h 14.00018 v 14.00017 h -14.00018 z m 22.00021,0 h 14.00018 v 14.00017 h -14.00018 z m -87.999798,18.50016 h 13.999662 v 14.00018 H 50.525722 Z m 21.999691,0 h 14.000179 v 14.00018 H 72.525413 Z m 22.000207,0 h 13.99966 v 14.00018 H 94.52562 Z m 21.99969,0 h 14.00018 v 14.00018 h -14.00018 z m 22.00021,0 h 14.00018 v 14.00018 h -14.00018 z m -87.999798,18.50016 h 13.999662 v 13.99966 H 50.525722 Z m 21.999691,0 h 14.000179 v 13.99966 H 72.525413 Z m 22.000207,0 h 13.99966 v 13.99966 H 94.52562 Z m 21.99969,0 h 14.00018 v 13.99966 h -14.00018 z m 22.00021,0 h 14.00018 v 13.99966 h -14.00018 z m -94.74874,13.73664 a 1.6,1.6 0 0 1 1.599902,1.60041 1.6,1.6 0 0 1 -1.599902,1.5999 1.6,1.6 0 0 1 -1.600419,-1.5999 1.6,1.6 0 0 1 1.600419,-1.60041 z m 115.41776,0 a 1.6,1.6 0 0 1 1.5999,1.60041 1.6,1.6 0 0 1 -1.5999,1.5999 1.6,1.6 0 0 1 -1.5999,-1.5999 1.6,1.6 0 0 1 1.5999,-1.60041 z m -115.41776,9.91463 a 1.6,1.6 0 0 1 1.599902,1.5999 1.6,1.6 0 0 1 -1.599902,1.59991 1.6,1.6 0 0 1 -1.600419,-1.59991 1.6,1.6 0 0 1 1.600419,-1.5999 z m 115.41776,0 a 1.6,1.6 0 0 1 1.5999,1.5999 1.6,1.6 0 0 1 -1.5999,1.59991 1.6,1.6 0 0 1 -1.5999,-1.59991 1.6,1.6 0 0 1 1.5999,-1.5999 z" />
  </g>
</svg>
