<?xml version="1.0" encoding="UTF-8" standalone="no"?>
<!-- Created with Inkscape (http://www.inkscape.org/) -->

<svg
   width="125.00011mm"
   height="119.9999mm"
   viewBox="0 0 125.00011 119.9999"
   version="1.1"
   id="svg46148"
   inkscape:version="1.2.2 (b0a8486, 2022-12-01)"
   sodipodi:docname="3mm-Black-Back_Layer.svg"
   xmlns:inkscape="http://www.inkscape.org/namespaces/inkscape"
   xmlns:sodipodi="http://sodipodi.sourceforge.net/DTD/sodipodi-0.dtd"
   xmlns="http://www.w3.org/2000/svg"
   xmlns:svg="http://www.w3.org/2000/svg">
  <sodipodi:namedview
     id="namedview46150"
     pagecolor="#ffffff"
     bordercolor="#666666"
     borderopacity="1.0"
     inkscape:showpageshadow="2"
     inkscape:pageopacity="0.0"
     inkscape:pagecheckerboard="0"
     inkscape:deskcolor="#d1d1d1"
     inkscape:document-units="mm"
     showgrid="false"
     inkscape:zoom="2.573075"
     inkscape:cx="236.29315"
     inkscape:cy="226.77147"
     inkscape:current-layer="layer1" />
  <defs
     id="defs46145" />
  <g
     inkscape:label="Capa 1"
     inkscape:groupmode="layer"
     id="layer1"
     transform="translate(-39.006272,-88.500047)">
    <path
       id="rect11527"
       style="display:inline;fill:none;fill-opacity:1;stroke:#000000;stroke-width:0.083196;stroke-linecap:round;stroke-miterlimit:4;stroke-dasharray:none"
       d="M 39.04787,88.541645 V 208.45835 H 163.96479 V 88.541645 Z m 4.708756,3.35793 a 1.6,1.6 0 0 1 1.599903,1.60042 1.6,1.6 0 0 1 -1.599903,1.5999 1.6,1.6 0 0 1 -1.600419,-1.5999 1.6,1.6 0 0 1 1.600419,-1.60042 z m 115.499924,0 a 1.6,1.6 0 0 1 1.59991,1.60042 1.6,1.6 0 0 1 -1.59991,1.5999 1.6,1.6 0 0 1 -1.5999,-1.5999 1.6,1.6 0 0 1 1.5999,-1.60042 z M 43.77678,101.56256 a 1.6,1.6 0 0 1 1.599902,1.60042 1.6,1.6 0 0 1 -1.599902,1.5999 1.6,1.6 0 0 1 -1.600419,-1.5999 1.6,1.6 0 0 1 1.600419,-1.60042 z m 115.41776,0 a 1.6,1.6 0 0 1 1.5999,1.60042 1.6,1.6 0 0 1 -1.5999,1.5999 1.6,1.6 0 0 1 -1.5999,-1.5999 1.6,1.6 0 0 1 1.5999,-1.60042 z m -102.668667,1.93735 h 13.999662 v 14.00018 H 56.525873 Z m 18.999873,0 h 14.00018 v 14.00018 h -14.00018 z m 18.999874,0 h 14.00018 v 14.00018 H 94.52562 Z m 18.99987,0 h 14.00018 v 14.00018 h -14.00018 z m 19.00039,0 h 13.99967 v 14.00018 h -13.99966 z m -76.000007,18.99987 h 13.999662 v 14.00018 H 56.525873 Z m 18.999873,0 h 14.00018 v 14.00018 h -14.00018 z m 18.999874,0 h 14.00018 v 14.00018 H 94.52562 Z m 18.99987,0 h 14.00018 v 14.00018 h -14.00018 z m 19.00039,0 h 13.99967 v 14.00018 h -13.99966 z m -76.000007,19.00039 h 13.999662 v 13.99966 H 56.525873 Z m 18.999873,0 h 14.00018 v 13.99966 h -14.00018 z m 18.999874,0 h 14.00018 v 13.99966 H 94.52562 Z m 18.99987,0 h 14.00018 v 13.99966 h -14.00018 z m 19.00039,0 h 13.99967 v 13.99966 h -13.99966 z m -76.000007,18.99988 h 13.999662 v 14.00018 H 56.525873 Z m 18.999873,0 h 14.00018 v 14.00018 h -14.00018 z m 18.999874,0 h 14.00018 v 14.00018 H 94.52562 Z m 18.99987,0 h 14.00018 v 14.00018 h -14.00018 z m 19.00039,0 h 13.99967 v 14.00018 H 132.52589 Z M 56.525873,179.49992 H 70.525535 V 193.5001 H 56.525873 Z m 18.999873,0 h 14.00018 v 14.00018 h -14.00018 z m 18.999874,0 H 108.5258 V 193.5001 H 94.52562 Z m 18.99987,0 h 14.00018 v 14.00018 h -14.00018 z m 19.00039,0 h 13.99967 v 14.00018 h -13.99966 z m -88.7491,12.73669 a 1.6,1.6 0 0 1 1.599902,1.60041 1.6,1.6 0 0 1 -1.599902,1.5999 1.6,1.6 0 0 1 -1.600419,-1.5999 1.6,1.6 0 0 1 1.600419,-1.60041 z m 115.41776,0 a 1.6,1.6 0 0 1 1.5999,1.60041 1.6,1.6 0 0 1 -1.5999,1.5999 1.6,1.6 0 0 1 -1.5999,-1.5999 1.6,1.6 0 0 1 1.5999,-1.60041 z m -115.437914,9.66298 a 1.6,1.6 0 0 1 1.599903,1.60042 1.6,1.6 0 0 1 -1.599903,1.59989 1.6,1.6 0 0 1 -1.600419,-1.59989 1.6,1.6 0 0 1 1.600419,-1.60042 z m 115.499924,0 a 1.6,1.6 0 0 1 1.59991,1.60042 1.6,1.6 0 0 1 -1.59991,1.59989 1.6,1.6 0 0 1 -1.5999,-1.59989 1.6,1.6 0 0 1 1.5999,-1.60042 z" />
  </g>
</svg>
