<?xml version="1.0" encoding="UTF-8" standalone="no"?>
<!-- Created with Inkscape (http://www.inkscape.org/) -->

<svg
   width="125.00011mm"
   height="97.999695mm"
   viewBox="0 0 125.00011 97.999695"
   version="1.1"
   id="svg2357"
   inkscape:version="1.2.2 (b0a8486, 2022-12-01)"
   sodipodi:docname="3mm-Black-Microcontroller_Layer.svg"
   xmlns:inkscape="http://www.inkscape.org/namespaces/inkscape"
   xmlns:sodipodi="http://sodipodi.sourceforge.net/DTD/sodipodi-0.dtd"
   xmlns="http://www.w3.org/2000/svg"
   xmlns:svg="http://www.w3.org/2000/svg">
  <sodipodi:namedview
     id="namedview2359"
     pagecolor="#ffffff"
     bordercolor="#666666"
     borderopacity="1.0"
     inkscape:showpageshadow="2"
     inkscape:pageopacity="0.0"
     inkscape:pagecheckerboard="0"
     inkscape:deskcolor="#d1d1d1"
     inkscape:document-units="mm"
     showgrid="false"
     inkscape:zoom="3.1507113"
     inkscape:cx="236.13715"
     inkscape:cy="185.19627"
     inkscape:current-layer="layer1" />
  <defs
     id="defs2354" />
  <g
     inkscape:label="Capa 1"
     inkscape:groupmode="layer"
     id="layer1"
     transform="translate(2.5399979e-4,-11.000108)">
    <path
       id="rect11527-5"
       style="display:inline;fill:none;fill-opacity:1;stroke:#000000;stroke-width:0.0831903;stroke-linecap:round;stroke-miterlimit:4;stroke-dasharray:none"
       d="M 0.04134115,11.041703 V 108.95821 H 124.95826 V 11.041703 Z M 4.7702515,13.062769 A 1.6,1.6 0 0 1 6.3701538,14.663188 1.6,1.6 0 0 1 4.7702515,16.26309 1.6,1.6 0 0 1 3.1698324,14.663188 1.6,1.6 0 0 1 4.7702515,13.062769 Z m 115.4177585,0 a 1.6,1.6 0 0 1 1.59991,1.600419 1.6,1.6 0 0 1 -1.59991,1.599902 1.6,1.6 0 0 1 -1.5999,-1.599902 1.6,1.6 0 0 1 1.5999,-1.600419 z m -57.646608,0.927075 a 1.6,1.6 0 0 1 1.600419,1.600419 1.6,1.6 0 0 1 -1.600419,1.599902 1.6,1.6 0 0 1 -1.599902,-1.599902 1.6,1.6 0 0 1 1.599902,-1.600419 z M 88.17808,93.999947 h 18.00045 v 9.999903 H 88.17808 Z m -25.636678,8.809803 a 1.6,1.6 0 0 1 1.600419,1.60041 1.6,1.6 0 0 1 -1.600419,1.59991 1.6,1.6 0 0 1 -1.599902,-1.59991 1.6,1.6 0 0 1 1.599902,-1.60041 z m -57.7711505,0.92707 a 1.6,1.6 0 0 1 1.5999023,1.60042 1.6,1.6 0 0 1 -1.5999023,1.5999 1.6,1.6 0 0 1 -1.6004191,-1.5999 1.6,1.6 0 0 1 1.6004191,-1.60042 z m 115.4177585,0 a 1.6,1.6 0 0 1 1.59991,1.60042 1.6,1.6 0 0 1 -1.59991,1.5999 1.6,1.6 0 0 1 -1.5999,-1.5999 1.6,1.6 0 0 1 1.5999,-1.60042 z" />
  </g>
</svg>
