<?xml version="1.0" encoding="UTF-8" standalone="no"?>
<!-- Created with Inkscape (http://www.inkscape.org/) -->

<svg
   width="124.99964mm"
   height="119.99995mm"
   viewBox="0 0 124.99964 119.99995"
   version="1.1"
   id="svg50113"
   inkscape:version="1.2.2 (b0a8486, 2022-12-01)"
   sodipodi:docname="3mm-Translucent-Middle_Layer.svg"
   xmlns:inkscape="http://www.inkscape.org/namespaces/inkscape"
   xmlns:sodipodi="http://sodipodi.sourceforge.net/DTD/sodipodi-0.dtd"
   xmlns="http://www.w3.org/2000/svg"
   xmlns:svg="http://www.w3.org/2000/svg">
  <sodipodi:namedview
     id="namedview50115"
     pagecolor="#ffffff"
     bordercolor="#666666"
     borderopacity="1.0"
     inkscape:showpageshadow="2"
     inkscape:pageopacity="0.0"
     inkscape:pagecheckerboard="0"
     inkscape:deskcolor="#d1d1d1"
     inkscape:document-units="mm"
     showgrid="false"
     inkscape:zoom="2.5730741"
     inkscape:cx="236.29324"
     inkscape:cy="226.77155"
     inkscape:current-layer="layer1" />
  <defs
     id="defs50110" />
  <g
     inkscape:label="Capa 1"
     inkscape:groupmode="layer"
     id="layer1"
     transform="translate(-39.006509,-88.500025)">
    <path
       id="rect3678-3"
       style="display:inline;fill:none;fill-opacity:1;stroke:#000000;stroke-width:0.076;stroke-linecap:round;stroke-miterlimit:4;stroke-dasharray:none"
       d="m 49.042072,88.538266 v 4.99659 c -1.66e-4,2.75964 -2.238506,4.99672 -4.999178,4.9966 h -4.998145 v 99.937054 h 4.998145 c 2.760672,-1.2e-4 4.999012,2.23696 4.999178,4.9966 v 4.99711 H 153.97107 v -4.99711 c 1.6e-4,-2.75964 2.2385,-4.99672 4.99918,-4.9966 h 4.99814 V 98.531456 h -4.99814 c -2.76068,1.2e-4 -4.99902,-2.23696 -4.99918,-4.9966 v -4.99659 z m 4.964555,12.461774 h 94.999883 v 95.00041 H 54.006627 Z M 43.77676,101.5628 c 0.883781,5e-5 1.600134,0.71664 1.599902,1.60042 -5.5e-5,0.88358 -0.716325,1.59985 -1.599902,1.5999 -0.883779,2.3e-4 -1.600364,-0.71612 -1.600419,-1.5999 -2.32e-4,-0.88398 0.716437,-1.60065 1.600419,-1.60042 z m 115.41776,0 c 0.88378,6e-5 1.60013,0.71664 1.5999,1.60042 -6e-5,0.88358 -0.71632,1.59984 -1.5999,1.5999 -0.88358,-6e-5 -1.59984,-0.71632 -1.5999,-1.5999 -2.3e-4,-0.88378 0.71612,-1.60036 1.5999,-1.60042 z M 43.77676,192.23685 c 0.883781,5e-5 1.600134,0.71664 1.599902,1.60042 -5.5e-5,0.88358 -0.716325,1.59985 -1.599902,1.5999 -0.883779,2.3e-4 -1.600364,-0.71612 -1.600419,-1.5999 -2.32e-4,-0.88398 0.716437,-1.60065 1.600419,-1.60042 z m 115.41776,0 c 0.88378,6e-5 1.60013,0.71664 1.5999,1.60042 -6e-5,0.88358 -0.71632,1.59984 -1.5999,1.5999 -0.88358,-6e-5 -1.59984,-0.71632 -1.5999,-1.5999 -2.3e-4,-0.88378 0.71612,-1.60036 1.5999,-1.60042 z" />
  </g>
</svg>
