<?xml version="1.0" encoding="UTF-8" standalone="no"?>
<!-- Created with Inkscape (http://www.inkscape.org/) -->

<svg
   width="125.00011mm"
   height="119.9999mm"
   viewBox="0 0 125.00011 119.9999"
   version="1.1"
   id="svg44995"
   inkscape:version="1.2.2 (b0a8486, 2022-12-01)"
   sodipodi:docname="3mm-Black-Back_Layer.svg"
   xmlns:inkscape="http://www.inkscape.org/namespaces/inkscape"
   xmlns:sodipodi="http://sodipodi.sourceforge.net/DTD/sodipodi-0.dtd"
   xmlns="http://www.w3.org/2000/svg"
   xmlns:svg="http://www.w3.org/2000/svg">
  <sodipodi:namedview
     id="namedview44997"
     pagecolor="#ffffff"
     bordercolor="#666666"
     borderopacity="1.0"
     inkscape:showpageshadow="2"
     inkscape:pageopacity="0.0"
     inkscape:pagecheckerboard="0"
     inkscape:deskcolor="#d1d1d1"
     inkscape:document-units="mm"
     showgrid="false"
     inkscape:zoom="2.573075"
     inkscape:cx="236.29315"
     inkscape:cy="226.77147"
     inkscape:current-layer="layer1" />
  <defs
     id="defs44992" />
  <g
     inkscape:label="Capa 1"
     inkscape:groupmode="layer"
     id="layer1"
     transform="translate(-39.006272,-88.500047)">
    <path
       id="rect11527"
       style="display:inline;fill:none;fill-opacity:1;stroke:#000000;stroke-width:0.083196;stroke-linecap:round;stroke-miterlimit:4;stroke-dasharray:none"
       d="M 39.047613,88.541906 V 208.45862 H 163.96453 V 88.541906 Z m 120.146667,3.10575 v 5.2e-4 h 5.2e-4 c 0.16777,10e-5 0.33449,0.0266 0.49403,0.0785 0.0794,0.0258 0.1566,0.0578 0.23099,0.0956 l 0.001,5.1e-4 5.2e-4,5.2e-4 c 0.0744,0.0379 0.1458,0.0816 0.21342,0.13074 0.0671,0.0488 0.13037,0.10266 0.18914,0.16123 l 0.002,0.002 0.002,0.002 c 0.0588,0.0588 0.11283,0.12198 0.16175,0.18913 0.0491,0.0676 0.0928,0.13898 0.13074,0.21343 l 5.2e-4,5.1e-4 v 5.2e-4 c 0.0378,0.074 0.0698,0.15094 0.0956,0.22996 l 5.2e-4,0.002 c 0.0255,0.0785 0.0448,0.15831 0.0579,0.23978 l 5.2e-4,0.003 c 1.8e-4,10e-4 3.5e-4,0.003 5.2e-4,0.004 0.0127,0.0815 0.0191,0.16397 0.0191,0.2465 -2.8e-4,0.20907 -0.0415,0.41605 -0.12144,0.60926 -0.001,0.002 -0.002,0.003 -0.003,0.005 -0.0796,0.1912 -0.19565,0.36513 -0.34158,0.51211 l -0.008,0.008 c -0.14657,0.14533 -0.31995,0.2614 -0.51056,0.34106 -0.002,0.001 -0.005,0.002 -0.007,0.003 -0.19304,0.0798 -0.39985,0.12109 -0.60875,0.12144 -0.2089,-3.5e-4 -0.41571,-0.0416 -0.60875,-0.12144 -0.002,-9.9e-4 -0.005,-0.002 -0.007,-0.003 -0.19061,-0.0797 -0.364,-0.19572 -0.51057,-0.34106 l -0.008,-0.008 c -0.14529,-0.14631 -0.26093,-0.31933 -0.34055,-0.50953 -0.002,-0.003 -0.003,-0.007 -0.005,-0.0103 -0.0793,-0.19263 -0.12018,-0.39889 -0.12041,-0.6072 2.3e-4,-0.20831 0.0411,-0.41457 0.12041,-0.6072 0.002,-0.003 0.003,-0.007 0.005,-0.0103 0.0796,-0.1902 0.19526,-0.36322 0.34055,-0.50953 l 0.008,-0.008 c 0.14657,-0.14559 0.31996,-0.26141 0.51057,-0.34107 0.002,-10e-4 0.005,-0.002 0.007,-0.003 0.19288,-0.0798 0.39951,-0.12102 0.60823,-0.12144 z m -115.417757,5.2e-4 c 0.08236,3e-5 0.164603,0.006 0.24598,0.0191 0.0014,1.7e-4 0.0027,3.4e-4 0.0041,5.2e-4 0.0012,3.3e-4 0.0024,7e-4 0.0036,0.001 0.08111,0.013 0.161102,0.0322 0.239262,0.0574 l 0.0016,5.2e-4 0.0016,5.1e-4 c 0.07846,0.0256 0.154829,0.0572 0.228409,0.0946 l 0.0021,0.001 c 8.6e-4,6.7e-4 0.0017,10e-4 0.0026,0.002 0.07352,0.0377 0.144017,0.0811 0.210839,0.12971 h 5.17e-4 l 5.17e-4,5.2e-4 c 0.06518,0.0475 0.126679,0.0998 0.183968,0.15658 0.0042,0.004 0.0083,0.008 0.0124,0.0124 0.05594,0.0565 0.107591,0.11716 0.154513,0.18138 8.61e-4,0.001 0.0017,0.002 0.0026,0.003 6.92e-4,0.001 0.0014,0.003 0.0021,0.004 0.04712,0.0651 0.08927,0.1337 0.12609,0.20516 0.0017,0.003 0.0035,0.007 0.0052,0.0103 0.03599,0.0715 0.06657,0.14561 0.09147,0.22169 0.0012,0.004 0.0024,0.007 0.0036,0.0109 l 0.001,0.003 c 0.02453,0.077 0.04319,0.1558 0.05581,0.23564 l 5.17e-4,0.001 c 1.74e-4,10e-4 3.46e-4,0.003 5.17e-4,0.004 0.01272,0.0815 0.01911,0.16396 0.01912,0.24649 -3.52e-4,0.2089 -0.04161,0.41571 -0.12144,0.60875 -0.001,0.002 -0.0021,0.005 -0.0031,0.007 -0.07957,0.19039 -0.19521,0.36358 -0.340548,0.51005 -0.0031,0.003 -0.0062,0.006 -0.0093,0.009 -0.146308,0.14529 -0.319334,0.26093 -0.509529,0.34055 l -0.0072,0.003 c -0.193038,0.0798 -0.399856,0.12109 -0.608749,0.12144 -0.208477,-1.6e-4 -0.414927,-0.0411 -0.607715,-0.12041 -0.0033,-0.002 -0.0066,-0.003 -0.0098,-0.005 -0.189108,-0.0793 -0.36122,-0.19421 -0.506945,-0.33848 -0.004,-0.004 -0.0079,-0.008 -0.01189,-0.0114 -0.144859,-0.14625 -0.260143,-0.31908 -0.339515,-0.50901 -0.001,-0.002 -0.0021,-0.005 -0.0031,-0.007 -0.07983,-0.19304 -0.121087,-0.39985 -0.121439,-0.60875 2.17e-4,-0.20925 0.04148,-0.41642 0.121439,-0.60978 8.57e-4,-0.002 0.0017,-0.003 0.0026,-0.005 0.07951,-0.19032 0.195156,-0.36394 0.340548,-0.51056 0.0034,-0.003 0.0069,-0.007 0.01034,-0.0103 0.146616,-0.1454 0.32,-0.26104 0.510563,-0.34055 0.0017,-0.001 0.0034,-0.002 0.0052,-0.003 0.193359,-0.08 0.400541,-0.12122 0.609782,-0.12144 z m 0,9.914644 c 0.883759,5e-5 1.600134,0.71664 1.599902,1.60042 -5.5e-5,0.88358 -0.716346,1.59985 -1.599902,1.5999 -0.883758,2.3e-4 -1.600364,-0.71612 -1.600419,-1.5999 -2.32e-4,-0.88398 0.716458,-1.60065 1.600419,-1.60042 z m 115.417757,0 c 0.88378,6e-5 1.60013,0.71664 1.5999,1.60042 -6e-5,0.88358 -0.71632,1.59984 -1.5999,1.5999 -0.88358,-6e-5 -1.59984,-0.71632 -1.5999,-1.5999 -2.3e-4,-0.88378 0.71612,-1.60036 1.5999,-1.60042 z m -102.668664,1.93735 h 13.999662 v 14.00018 H 56.525616 Z m 18.999873,0 h 14.00018 v 14.00018 h -14.00018 z m 18.999874,0 h 14.000177 v 14.00018 H 94.525363 Z m 18.999877,0 h 14.00018 v 14.00018 h -14.00018 z m 19.00039,0 h 13.99966 v 14.00018 h -13.99966 z m -76.000014,18.99987 h 13.999662 v 14.00018 H 56.525616 Z m 18.999873,0 h 14.00018 v 14.00018 h -14.00018 z m 18.999874,0 h 14.000177 v 14.00018 H 94.525363 Z m 18.999877,0 h 14.00018 v 14.00018 h -14.00018 z m 19.00039,0 h 13.99966 v 14.00018 h -13.99966 z m -76.000014,19.00039 h 13.999662 v 13.99966 H 56.525616 Z m 18.999873,0 h 14.00018 v 13.99966 h -14.00018 z m 18.999874,0 h 14.000177 v 13.99966 H 94.525363 Z m 18.999877,0 h 14.00018 v 13.99966 h -14.00018 z m 19.00039,0 h 13.99966 v 13.99966 h -13.99966 z m -76.000014,18.99988 h 13.999662 v 14.00018 H 56.525616 Z m 18.999873,0 h 14.00018 v 14.00018 h -14.00018 z m 18.999874,0 h 14.000177 v 14.00018 H 94.525363 Z m 18.999877,0 h 14.00018 v 14.00018 h -14.00018 z m 19.00039,0 h 13.99966 v 14.00018 h -13.99966 z m -76.000014,18.99987 h 13.999662 v 14.00018 H 56.525616 Z m 18.999873,0 h 14.00018 v 14.00018 h -14.00018 z m 18.999874,0 h 14.000177 v 14.00018 H 94.525363 Z m 18.999877,0 h 14.00018 v 14.00018 h -14.00018 z m 19.00039,0 h 13.99966 v 14.00018 h -13.99966 z m -88.749107,12.73669 c 0.883759,5e-5 1.600134,0.71664 1.599902,1.60042 -5.5e-5,0.88358 -0.716346,1.59985 -1.599902,1.5999 -0.883758,2.3e-4 -1.600364,-0.71612 -1.600419,-1.5999 -2.32e-4,-0.88398 0.716458,-1.60065 1.600419,-1.60042 z m 115.417757,0 c 0.88378,6e-5 1.60013,0.71664 1.5999,1.60042 -6e-5,0.88358 -0.71632,1.59984 -1.5999,1.5999 -0.88358,-6e-5 -1.59984,-0.71632 -1.5999,-1.5999 -2.3e-4,-0.88378 0.71612,-1.60036 1.5999,-1.60042 z m -115.417757,9.91464 c 0.883556,5e-5 1.599847,0.71632 1.599902,1.5999 -4.9e-5,0.88358 -0.716342,1.59986 -1.599902,1.59991 -0.883762,2.3e-4 -1.600369,-0.71613 -1.600419,-1.59991 5.5e-5,-0.88378 0.716661,-1.60013 1.600419,-1.5999 z m 115.417757,0 c 0.88358,6e-5 1.59984,0.71632 1.5999,1.5999 -5e-5,0.88358 -0.71632,1.59985 -1.5999,1.59991 -0.88358,-6e-5 -1.59985,-0.71633 -1.5999,-1.59991 6e-5,-0.88358 0.71632,-1.59984 1.5999,-1.5999 z" />
  </g>
</svg>
