<?xml version="1.0" encoding="UTF-8" standalone="no"?>
<!-- Created with Inkscape (http://www.inkscape.org/) -->

<svg
   width="59.999989mm"
   height="119.99994mm"
   viewBox="0 0 59.999989 119.99994"
   version="1.1"
   id="svg1"
   inkscape:version="1.3 (0e150ed, 2023-07-21)"
   sodipodi:docname="engrave_NoVectorizedText.svg"
   xmlns:inkscape="http://www.inkscape.org/namespaces/inkscape"
   xmlns:sodipodi="http://sodipodi.sourceforge.net/DTD/sodipodi-0.dtd"
   xmlns="http://www.w3.org/2000/svg"
   xmlns:svg="http://www.w3.org/2000/svg">
  <sodipodi:namedview
     id="namedview1"
     pagecolor="#ffffff"
     bordercolor="#666666"
     borderopacity="1.0"
     inkscape:showpageshadow="2"
     inkscape:pageopacity="0.0"
     inkscape:pagecheckerboard="0"
     inkscape:deskcolor="#d1d1d1"
     inkscape:document-units="mm"
     inkscape:zoom="2.5796888"
     inkscape:cx="113.57959"
     inkscape:cy="226.77154"
     inkscape:current-layer="layer1" />
  <defs
     id="defs1" />
  <g
     inkscape:label="Capa 1"
     inkscape:groupmode="layer"
     id="layer1"
     transform="translate(-2.4056122e-4,-2.4000122e-4)">
    <path
       id="rect3678"
       style="display:inline;fill:none;fill-opacity:1;stroke:#000000;stroke-width:0.076;stroke-linecap:round;stroke-miterlimit:4;stroke-dasharray:none"
       d="m 10.031429,0.03824 v 4.99659 c -1.66e-4,2.75964 -2.2375663,4.99671 -4.997111,4.99659 H 0.03824056 v 99.93706 H 5.034318 c 2.7595447,-1.2e-4 4.996945,2.23695 4.997111,4.99659 v 4.99711 h 39.937097 v -4.99711 c 1.66e-4,-2.75964 2.237568,-4.99671 4.997111,-4.99659 h 4.996594 V 10.03142 H 54.965637 C 52.206094,10.03154 49.968692,7.79447 49.968526,5.03483 V 0.03824 Z M 20.210652,10.55129 H 39.210526 V 29.55168 H 20.210652 Z M 3.8664306,12.84934 a 1.6,1.6 0 0 1 1.5999024,1.5999 1.6,1.6 0 0 1 -1.5999024,1.59991 1.6,1.6 0 0 1 -1.5999023,-1.59991 1.6,1.6 0 0 1 1.5999023,-1.5999 z m 52.3828494,0 a 1.6,1.6 0 0 1 1.599902,1.5999 1.6,1.6 0 0 1 -1.599902,1.59991 1.6,1.6 0 0 1 -1.599903,-1.59991 1.6,1.6 0 0 1 1.599903,-1.5999 z M 20.210652,32.78507 H 39.210526 V 51.78495 H 20.210652 Z M 36.756929,65.81303 H 55.75732 V 84.81291 H 36.756929 Z m -24.575244,1.75028 a 7.7499995,7.7499995 0 0 1 7.749915,7.74992 7.7499995,7.7499995 0 0 1 -7.749915,7.74991 7.7499995,7.7499995 0 0 1 -7.7499142,-7.74991 7.7499995,7.7499995 0 0 1 7.7499142,-7.74992 z m 17.528646,25.85631 a 7.7499995,7.7499995 0 0 1 7.749915,7.74991 7.7499995,7.7499995 0 0 1 -7.749915,7.74992 7.7499995,7.7499995 0 0 1 -7.749915,-7.74992 7.7499995,7.7499995 0 0 1 7.749915,-7.74991 z m -25.8439004,10.6071 a 1.6,1.6 0 0 1 1.5999024,1.5999 1.6,1.6 0 0 1 -1.5999024,1.59991 1.6,1.6 0 0 1 -1.5999023,-1.59991 1.6,1.6 0 0 1 1.5999023,-1.5999 z m 52.3828494,0 a 1.6,1.6 0 0 1 1.599902,1.5999 1.6,1.6 0 0 1 -1.599902,1.59991 1.6,1.6 0 0 1 -1.599903,-1.59991 1.6,1.6 0 0 1 1.599903,-1.5999 z" />
    <text
       xml:space="preserve"
       style="font-style:normal;font-weight:normal;font-size:2.82222px;line-height:1.25;font-family:sans-serif;letter-spacing:0px;word-spacing:0px;display:inline;fill:#000000;fill-opacity:1;stroke:none;stroke-width:0.264583"
       x="25.344383"
       y="59.268112"
       id="text14794-6"
       inkscape:label="Beam Text"><tspan
         sodipodi:role="line"
         id="tspan14792-0"
         x="25.344383"
         y="59.268112"
         style="font-style:normal;font-variant:normal;font-weight:normal;font-stretch:normal;font-size:2.82222px;font-family:'MS 33558';-inkscape-font-specification:'MS 33558, ';fill:#000000;stroke-width:0.264583">Beam</tspan></text>
    <text
       xml:space="preserve"
       style="font-style:normal;font-weight:normal;font-size:4.93889px;line-height:1.25;font-family:sans-serif;letter-spacing:0px;word-spacing:0px;display:inline;fill:#000000;fill-opacity:1;stroke:none;stroke-width:0.264583"
       x="16.440395"
       y="7.466599"
       id="text12344-6"
       inkscape:label="Title Text"><tspan
         sodipodi:role="line"
         id="tspan12342-2"
         x="16.440395"
         y="7.466599"
         style="font-style:normal;font-variant:normal;font-weight:normal;font-stretch:normal;font-size:4.93889px;font-family:'MS 33558';-inkscape-font-specification:'MS 33558, ';fill:#000000;stroke-width:0.264583">SALVAGE</tspan></text>
    <text
       xml:space="preserve"
       style="font-style:normal;font-weight:normal;font-size:2.82222px;line-height:1.25;font-family:sans-serif;letter-spacing:0px;word-spacing:0px;display:inline;fill:#000000;fill-opacity:1;stroke:none;stroke-width:0.264583"
       x="5.2980962"
       y="65.249268"
       id="text8797"
       inkscape:label="Beam Spacing Text"><tspan
         sodipodi:role="line"
         id="tspan8795"
         x="5.2980962"
         y="65.249268"
         style="font-style:normal;font-variant:normal;font-weight:normal;font-stretch:normal;font-size:2.82222px;font-family:'MS 33558';-inkscape-font-specification:'MS 33558, ';fill:#000000;stroke-width:0.264583">Spacing</tspan></text>
    <text
       xml:space="preserve"
       style="font-style:normal;font-weight:normal;font-size:2.82222px;line-height:1.25;font-family:sans-serif;letter-spacing:0px;word-spacing:0px;display:inline;fill:#000000;fill-opacity:1;stroke:none;stroke-width:0.264583"
       x="42.594082"
       y="65.249268"
       id="text10983"
       inkscape:label="Beam Axis Text"><tspan
         sodipodi:role="line"
         id="tspan10981"
         x="42.594082"
         y="65.249268"
         style="font-style:normal;font-variant:normal;font-weight:normal;font-stretch:normal;font-size:2.82222px;font-family:'MS 33558';-inkscape-font-specification:'MS 33558, ';fill:#000000;stroke-width:0.264583">AXIS</tspan></text>
    <text
       xml:space="preserve"
       style="font-style:normal;font-weight:normal;font-size:2.82222px;line-height:1.25;font-family:sans-serif;letter-spacing:0px;word-spacing:0px;display:inline;fill:#000000;fill-opacity:1;stroke:none;stroke-width:0.264583"
       x="14.427127"
       y="91.610336"
       id="text11995"
       inkscape:label="Beam Text"><tspan
         sodipodi:role="line"
         id="tspan11993"
         x="14.427127"
         y="91.610336"
         style="font-style:normal;font-variant:normal;font-weight:normal;font-stretch:normal;font-size:2.82222px;font-family:'MS 33558';-inkscape-font-specification:'MS 33558, ';fill:#000000;stroke-width:0.264583">Cycle Modifiers</tspan></text>
  </g>
</svg>
