<?xml version="1.0" encoding="UTF-8" standalone="no"?>
<!-- Created with Inkscape (http://www.inkscape.org/) -->

<svg
   width="90.200188mm"
   height="120.20043mm"
   viewBox="0 0 90.200188 120.20043"
   version="1.1"
   id="svg2320"
   inkscape:version="1.2.2 (b0a8486, 2022-12-01)"
   sodipodi:docname="engrave_NoVectorizedText.svg"
   xmlns:inkscape="http://www.inkscape.org/namespaces/inkscape"
   xmlns:sodipodi="http://sodipodi.sourceforge.net/DTD/sodipodi-0.dtd"
   xmlns="http://www.w3.org/2000/svg"
   xmlns:svg="http://www.w3.org/2000/svg">
  <sodipodi:namedview
     id="namedview2322"
     pagecolor="#ffffff"
     bordercolor="#666666"
     borderopacity="1.0"
     inkscape:showpageshadow="2"
     inkscape:pageopacity="0.0"
     inkscape:pagecheckerboard="0"
     inkscape:deskcolor="#d1d1d1"
     inkscape:document-units="mm"
     showgrid="false"
     inkscape:zoom="2.5687824"
     inkscape:cx="170.5088"
     inkscape:cy="227.15042"
     inkscape:current-layer="layer1" />
  <defs
     id="defs2317" />
  <g
     inkscape:label="Capa 1"
     inkscape:groupmode="layer"
     id="layer1"
     transform="translate(0.1,0.1)">
    <path
       id="rect10964"
       style="display:inline;fill:none;fill-opacity:1;stroke:#000000;stroke-width:0.2;stroke-miterlimit:10"
       inkscape:label="White Acrylic"
       d="M 9.9782023,0 V 4.99969 C 9.9783183,7.76108 7.7446539,9.99974 4.9893595,9.99991 H 0 v 100.00061 h 4.9893595 c 2.7552944,1.7e-4 4.9889588,2.23895 4.9888428,5.00021 v 4.9997 H 80.021989 v -4.9997 c -1.16e-4,-2.76126 2.23355,-5.00005 4.988842,-5.00021 h 4.98936 V 9.99991 h -4.98936 C 82.255539,9.99974 80.021873,7.76108 80.021989,4.99969 V 0 Z M 4.970756,13.11341 a 1.6,1.6 0 0 1 1.5999023,1.5999 1.6,1.6 0 0 1 -1.5999023,1.59991 1.6,1.6 0 0 1 -1.5999024,-1.59991 1.6,1.6 0 0 1 1.5999024,-1.5999 z m 80.356335,0 a 1.6,1.6 0 0 1 1.599903,1.5999 1.6,1.6 0 0 1 -1.599903,1.59991 1.6,1.6 0 0 1 -1.600419,-1.59991 1.6,1.6 0 0 1 1.600419,-1.5999 z M 17.58704,19.10633 H 36.586914 V 38.10672 H 17.58704 Z m 40.723612,1.30018 a 8.1999998,8.1999998 0 0 1 8.200017,8.20001 8.1999998,8.1999998 0 0 1 -8.200017,8.20002 8.1999998,8.1999998 0 0 1 -8.200016,-8.20002 8.1999998,8.1999998 0 0 1 8.200016,-8.20001 z M 45.990474,50.61138 H 64.990348 V 69.61125 H 45.990474 Z m 33.723006,1.98954 a 7.5500002,7.5500002 0 0 1 7.549927,7.54993 7.5500002,7.5500002 0 0 1 -7.549927,7.55044 7.5500002,7.5500002 0 0 1 -7.549926,-7.55044 7.5500002,7.5500002 0 0 1 7.549926,-7.54993 z m -68.667126,0.0517 a 7.5500002,7.5500002 0 0 1 7.549927,7.54993 7.5500002,7.5500002 0 0 1 -7.549927,7.55044 7.5500002,7.5500002 0 0 1 -7.5504434,-7.55044 7.5500002,7.5500002 0 0 1 7.5504434,-7.54993 z m 23.818701,0 a 7.5500002,7.5500002 0 0 1 7.549927,7.54993 7.5500002,7.5500002 0 0 1 -7.549927,7.55044 7.5500002,7.5500002 0 0 1 -7.549927,-7.55044 7.5500002,7.5500002 0 0 1 7.549927,-7.54993 z M 58.29825,70.19884 H 77.298124 V 89.19923 H 58.29825 Z m -45.371907,0.62063 h 19.00039 V 89.81934 H 12.926343 Z M 35.648987,90.91643 H 54.64886 v 18.99988 H 35.648987 Z M 4.970756,103.78746 a 1.6,1.6 0 0 1 1.5999023,1.59991 1.6,1.6 0 0 1 -1.5999023,1.5999 1.6,1.6 0 0 1 -1.5999024,-1.5999 1.6,1.6 0 0 1 1.5999024,-1.59991 z m 80.356335,0 a 1.6,1.6 0 0 1 1.599903,1.59991 1.6,1.6 0 0 1 -1.599903,1.5999 1.6,1.6 0 0 1 -1.600419,-1.5999 1.6,1.6 0 0 1 1.600419,-1.59991 z" />
    <text
       xml:space="preserve"
       style="font-style:normal;font-weight:normal;font-size:4.93889px;line-height:1.25;font-family:sans-serif;letter-spacing:0px;word-spacing:0px;display:inline;fill:#000000;fill-opacity:1;stroke:none;stroke-width:0.264583"
       x="32.422367"
       y="7.4663515"
       id="text12344"
       inkscape:label="Title Text"><tspan
         sodipodi:role="line"
         id="tspan12342"
         x="32.422367"
         y="7.4663515"
         style="font-style:normal;font-variant:normal;font-weight:normal;font-stretch:normal;font-size:4.93889px;font-family:'MS 33558';-inkscape-font-specification:'MS 33558, ';fill:#000000;stroke-width:0.264583">missiles</tspan></text>
    <text
       id="text14353-9"
       y="45.790417"
       x="62.368458"
       style="font-style:normal;font-weight:normal;font-size:2.82222px;line-height:1.25;font-family:sans-serif;letter-spacing:0px;word-spacing:0px;display:inline;fill:#000000;fill-opacity:1;stroke:none;stroke-width:0.264583"
       xml:space="preserve"
       inkscape:label="Bombs Text"><tspan
         style="font-style:normal;font-variant:normal;font-weight:normal;font-stretch:normal;font-size:2.82222px;font-family:'MS 33558';-inkscape-font-specification:'MS 33558, ';fill:#000000;stroke-width:0.264583"
         y="45.790417"
         x="62.368458"
         id="tspan14351-1"
         sodipodi:role="line">BOMBS</tspan></text>
    <text
       xml:space="preserve"
       style="font-style:normal;font-weight:normal;font-size:2.46944px;line-height:1.25;font-family:sans-serif;text-align:center;letter-spacing:0px;word-spacing:0px;text-anchor:middle;display:inline;fill:#000000;fill-opacity:1;stroke:none;stroke-width:0.264583"
       x="79.880966"
       y="48.753689"
       id="text1999"
       inkscape:label="Hud Range Text"><tspan
         sodipodi:role="line"
         id="tspan1997"
         x="79.880966"
         y="48.753689"
         style="font-style:normal;font-variant:normal;font-weight:normal;font-stretch:normal;font-size:2.46944px;font-family:'MS 33558';-inkscape-font-specification:'MS 33558, ';text-align:center;text-anchor:middle;fill:#000000;stroke-width:0.264583">HUD</tspan><tspan
         sodipodi:role="line"
         x="79.880966"
         y="52.163151"
         style="font-style:normal;font-variant:normal;font-weight:normal;font-stretch:normal;font-size:2.46944px;font-family:'MS 33558';-inkscape-font-specification:'MS 33558, ';text-align:center;text-anchor:middle;fill:#000000;stroke-width:0.264583"
         id="tspan2001">Range</tspan></text>
    <text
       id="text14353"
       y="48.001522"
       x="11.237678"
       style="font-style:normal;font-weight:normal;font-size:2.82222px;line-height:1.25;font-family:sans-serif;text-align:center;letter-spacing:0px;word-spacing:0px;text-anchor:middle;display:inline;fill:#000000;fill-opacity:1;stroke:none;stroke-width:0.264583"
       xml:space="preserve"
       inkscape:label="Missile Type Text"><tspan
         style="font-style:normal;font-variant:normal;font-weight:normal;font-stretch:normal;font-size:2.82222px;font-family:'MS 33558';-inkscape-font-specification:'MS 33558, ';text-align:center;text-anchor:middle;fill:#000000;stroke-width:0.264583"
         y="48.001522"
         x="11.237678"
         id="tspan14351"
         sodipodi:role="line">Missile</tspan><tspan
         style="font-style:normal;font-variant:normal;font-weight:normal;font-stretch:normal;font-size:2.82222px;font-family:'MS 33558';-inkscape-font-specification:'MS 33558, ';text-align:center;text-anchor:middle;fill:#000000;stroke-width:0.264583"
         y="51.898056"
         x="11.237678"
         sodipodi:role="line"
         id="tspan67041">Type</tspan></text>
    <text
       xml:space="preserve"
       style="font-style:normal;font-weight:normal;font-size:2.82222px;line-height:1.25;font-family:sans-serif;text-align:center;letter-spacing:0px;word-spacing:0px;text-anchor:middle;display:inline;fill:#000000;fill-opacity:1;stroke:none;stroke-width:0.264583"
       x="35.035664"
       y="47.995876"
       id="text2045"
       inkscape:label="Armed Missiles Text"><tspan
         sodipodi:role="line"
         id="tspan2043"
         x="35.035664"
         y="47.995876"
         style="font-style:normal;font-variant:normal;font-weight:normal;font-stretch:normal;font-size:2.82222px;font-family:'MS 33558';-inkscape-font-specification:'MS 33558, ';text-align:center;text-anchor:middle;fill:#000000;stroke-width:0.264583">Armed</tspan><tspan
         sodipodi:role="line"
         x="35.035664"
         y="51.89241"
         style="font-style:normal;font-variant:normal;font-weight:normal;font-stretch:normal;font-size:2.82222px;font-family:'MS 33558';-inkscape-font-specification:'MS 33558, ';text-align:center;text-anchor:middle;fill:#000000;stroke-width:0.264583"
         id="tspan65587">Missiles</tspan></text>
    <rect
       style="display:inline;opacity:0.976;vector-effect:none;fill:none;fill-opacity:1;stroke:#000000;stroke-width:0.727579;stroke-linecap:butt;stroke-linejoin:miter;stroke-miterlimit:10;stroke-dasharray:none;stroke-dashoffset:0;stroke-opacity:1"
       id="rect2047"
       width="43.673058"
       height="47.929401"
       x="45.249599"
       y="41.834347"
       rx="1.5889335"
       ry="1.3963184"
       inkscape:label="Bombs Rectangle" />
  </g>
</svg>
