<?xml version="1.0" encoding="UTF-8" standalone="no"?>
<!-- Created with Inkscape (http://www.inkscape.org/) -->

<svg
   width="59.999989mm"
   height="119.99994mm"
   viewBox="0 0 59.999989 119.99994"
   version="1.1"
   id="svg73957"
   inkscape:version="1.2.2 (b0a8486, 2022-12-01)"
   sodipodi:docname="2mm-White-Front_Leyer.svg"
   xmlns:inkscape="http://www.inkscape.org/namespaces/inkscape"
   xmlns:sodipodi="http://sodipodi.sourceforge.net/DTD/sodipodi-0.dtd"
   xmlns="http://www.w3.org/2000/svg"
   xmlns:svg="http://www.w3.org/2000/svg">
  <sodipodi:namedview
     id="namedview73959"
     pagecolor="#ffffff"
     bordercolor="#666666"
     borderopacity="1.0"
     inkscape:showpageshadow="2"
     inkscape:pageopacity="0.0"
     inkscape:pagecheckerboard="0"
     inkscape:deskcolor="#d1d1d1"
     inkscape:document-units="mm"
     showgrid="false"
     inkscape:zoom="2.5730742"
     inkscape:cx="113.48293"
     inkscape:cy="226.77154"
     inkscape:current-layer="layer1" />
  <defs
     id="defs73954" />
  <g
     inkscape:label="Capa 1"
     inkscape:groupmode="layer"
     id="layer1"
     transform="translate(-2.4056122e-4,-2.4000122e-4)">
    <path
       id="rect3678"
       style="display:inline;fill:none;fill-opacity:1;stroke:#000000;stroke-width:0.076;stroke-linecap:round;stroke-miterlimit:4;stroke-dasharray:none"
       d="m 10.031429,0.03824 v 4.99659 c -1.66e-4,2.75964 -2.2375747,4.99671 -4.997111,4.99659 H 0.03824056 v 99.93706 H 5.034318 c 2.7595363,-1.2e-4 4.996945,2.23695 4.997111,4.99659 v 4.99711 h 39.937097 v -4.99711 c 1.66e-4,-2.75964 2.237577,-4.99671 4.997111,-4.99659 h 4.996594 V 10.03142 H 54.965637 C 52.206103,10.03154 49.968692,7.79447 49.968526,5.03483 V 0.03824 Z m -6.1649984,12.8111 a 1.6,1.6 0 0 1 1.5999024,1.5999 1.6,1.6 0 0 1 -1.5999024,1.59991 1.6,1.6 0 0 1 -1.5999023,-1.59991 1.6,1.6 0 0 1 1.5999023,-1.5999 z m 52.3828494,0 a 1.6,1.6 0 0 1 1.599902,1.5999 1.6,1.6 0 0 1 -1.599902,1.59991 1.6,1.6 0 0 1 -1.599903,-1.59991 1.6,1.6 0 0 1 1.599903,-1.5999 z m -41.687895,4.35839 a 7.7499995,7.7499995 0 0 1 7.749914,7.74992 7.7499995,7.7499995 0 0 1 -7.749914,7.75043 7.7499995,7.7499995 0 0 1 -7.7499145,-7.75043 7.7499995,7.7499995 0 0 1 7.7499145,-7.74992 z m 31.120064,0 a 7.7499995,7.7499995 0 0 1 7.749915,7.74992 7.7499995,7.7499995 0 0 1 -7.749915,7.75043 7.7499995,7.7499995 0 0 1 -7.749914,-7.75043 7.7499995,7.7499995 0 0 1 7.749914,-7.74992 z M 14.561385,42.07081 a 7.7499995,7.7499995 0 0 1 7.749914,7.74992 7.7499995,7.7499995 0 0 1 -7.749914,7.74991 7.7499995,7.7499995 0 0 1 -7.7499145,-7.74991 7.7499995,7.7499995 0 0 1 7.7499145,-7.74992 z m 31.120064,0 a 7.7499995,7.7499995 0 0 1 7.749915,7.74992 7.7499995,7.7499995 0 0 1 -7.749915,7.74991 7.7499995,7.7499995 0 0 1 -7.749914,-7.74991 7.7499995,7.7499995 0 0 1 7.749914,-7.74992 z M 14.561385,66.93389 a 7.7499995,7.7499995 0 0 1 7.749914,7.74992 7.7499995,7.7499995 0 0 1 -7.749914,7.74991 7.7499995,7.7499995 0 0 1 -7.7499145,-7.74991 7.7499995,7.7499995 0 0 1 7.7499145,-7.74992 z m 31.120064,0 a 7.7499995,7.7499995 0 0 1 7.749915,7.74992 7.7499995,7.7499995 0 0 1 -7.749915,7.74991 7.7499995,7.7499995 0 0 1 -7.749914,-7.74991 7.7499995,7.7499995 0 0 1 7.749914,-7.74992 z M 14.561385,91.79646 a 7.7499995,7.7499995 0 0 1 7.749914,7.74991 7.7499995,7.7499995 0 0 1 -7.749914,7.74992 7.7499995,7.7499995 0 0 1 -7.7499145,-7.74992 7.7499995,7.7499995 0 0 1 7.7499145,-7.74991 z m 31.120064,0 a 7.7499995,7.7499995 0 0 1 7.749915,7.74991 7.7499995,7.7499995 0 0 1 -7.749915,7.74992 7.7499995,7.7499995 0 0 1 -7.749914,-7.74992 7.7499995,7.7499995 0 0 1 7.749914,-7.74991 z M 3.8664306,104.02672 a 1.6,1.6 0 0 1 1.5999024,1.5999 1.6,1.6 0 0 1 -1.5999024,1.59991 1.6,1.6 0 0 1 -1.5999023,-1.59991 1.6,1.6 0 0 1 1.5999023,-1.5999 z m 52.3828494,0 a 1.6,1.6 0 0 1 1.599902,1.5999 1.6,1.6 0 0 1 -1.599902,1.59991 1.6,1.6 0 0 1 -1.599903,-1.59991 1.6,1.6 0 0 1 1.599903,-1.5999 z" />
  </g>
</svg>
