<?xml version="1.0" encoding="UTF-8" standalone="no"?>
<!-- Created with Inkscape (http://www.inkscape.org/) -->

<svg
   width="59.999989mm"
   height="97.999741mm"
   viewBox="0 0 59.999989 97.999741"
   version="1.1"
   id="svg61810"
   inkscape:version="1.2.2 (b0a8486, 2022-12-01)"
   sodipodi:docname="3mm-Black-Microcontroller_Layer.svg"
   xmlns:inkscape="http://www.inkscape.org/namespaces/inkscape"
   xmlns:sodipodi="http://sodipodi.sourceforge.net/DTD/sodipodi-0.dtd"
   xmlns="http://www.w3.org/2000/svg"
   xmlns:svg="http://www.w3.org/2000/svg">
  <sodipodi:namedview
     id="namedview61812"
     pagecolor="#ffffff"
     bordercolor="#666666"
     borderopacity="1.0"
     inkscape:showpageshadow="2"
     inkscape:pageopacity="0.0"
     inkscape:pagecheckerboard="0"
     inkscape:deskcolor="#d1d1d1"
     inkscape:document-units="mm"
     showgrid="false"
     inkscape:zoom="3.1507099"
     inkscape:cx="113.3078"
     inkscape:cy="185.19636"
     inkscape:current-layer="layer1" />
  <defs
     id="defs61807" />
  <g
     inkscape:label="Capa 1"
     inkscape:groupmode="layer"
     id="layer1"
     transform="translate(-2.4056122e-4,-11.000087)">
    <path
       id="rect11527-5"
       style="display:inline;fill:none;fill-opacity:1;stroke:#000000;stroke-width:0.076;stroke-linecap:round;stroke-miterlimit:4;stroke-dasharray:none"
       d="M 0.03824056,11.038087 V 108.96183 H 41.523564 v -2.46187 a 2.5,2.5 0 0 1 2.500105,-2.50011 2.5,2.5 0 0 1 2.500106,2.50011 v 2.46187 H 59.962231 V 11.038087 Z M 3.8664307,12.849346 A 1.6,1.6 0 0 1 5.466333,14.449249 1.6,1.6 0 0 1 3.8664307,16.049151 1.6,1.6 0 0 1 2.2665283,14.449249 1.6,1.6 0 0 1 3.8664307,12.849346 Z m 52.3828493,0 a 1.6,1.6 0 0 1 1.599902,1.599903 1.6,1.6 0 0 1 -1.599902,1.599902 1.6,1.6 0 0 1 -1.599903,-1.599902 1.6,1.6 0 0 1 1.599903,-1.599903 z m -26.21132,1.216463 a 1.6,1.6 0 0 1 0.192753,0.01189 1.6,1.6 0 0 1 0.187585,0.03411 1.6,1.6 0 0 1 0.0026,5.17e-4 1.6,1.6 0 0 1 0.0021,5.17e-4 1.6,1.6 0 0 1 0.182418,0.05736 1.6,1.6 0 0 1 0.176217,0.07906 1.6,1.6 0 0 1 0.160713,0.09715 1.6,1.6 0 0 1 0.0047,0.0026 1.6,1.6 0 0 1 0.0041,0.0031 1.6,1.6 0 0 1 0.147278,0.115755 1.6,1.6 0 0 1 5.17e-4,5.17e-4 1.6,1.6 0 0 1 5.17e-4,5.17e-4 1.6,1.6 0 0 1 0.131258,0.130741 1.6,1.6 0 0 1 0.0083,0.0093 1.6,1.6 0 0 1 0.001,10e-4 1.6,1.6 0 0 1 0.114721,0.147278 1.6,1.6 0 0 1 0.0956,0.157096 1.6,1.6 0 0 1 0.0047,0.0083 1.6,1.6 0 0 1 0.0016,0.0036 1.6,1.6 0 0 1 0.07648,0.170015 1.6,1.6 0 0 1 10e-4,0.0026 1.6,1.6 0 0 1 0.001,0.0031 1.6,1.6 0 0 1 0.05581,0.1788 1.6,1.6 0 0 1 5.16e-4,0.0026 1.6,1.6 0 0 1 5.17e-4,0.0026 1.6,1.6 0 0 1 0.03256,0.174666 1.6,1.6 0 0 1 5.17e-4,0.0036 1.6,1.6 0 0 1 0.0021,0.01654 1.6,1.6 0 0 1 0.01085,0.185519 1.6,1.6 0 0 1 -0.077,0.488859 1.6,1.6 0 0 1 -0.0041,0.01137 1.6,1.6 0 0 1 -0.221175,0.434082 1.6,1.6 0 0 1 -0.0083,0.01085 1.6,1.6 0 0 1 -0.344165,0.344165 1.6,1.6 0 0 1 -0.0098,0.0072 1.6,1.6 0 0 1 -0.436666,0.222726 1.6,1.6 0 0 1 -0.0078,0.0026 1.6,1.6 0 0 1 -0.490926,0.07803 1.6,1.6 0 0 1 -0.490926,-0.07803 1.6,1.6 0 0 1 -0.0078,-0.0026 1.6,1.6 0 0 1 -0.436666,-0.222726 1.6,1.6 0 0 1 -0.0098,-0.0072 1.6,1.6 0 0 1 -0.344165,-0.344165 1.6,1.6 0 0 1 -0.0083,-0.01085 1.6,1.6 0 0 1 -0.221176,-0.434082 1.6,1.6 0 0 1 -0.0041,-0.01137 1.6,1.6 0 0 1 -0.077,-0.488859 1.6,1.6 0 0 1 0.07751,-0.49041 1.6,1.6 0 0 1 0.0031,-0.0093 1.6,1.6 0 0 1 0.221692,-0.434598 1.6,1.6 0 0 1 0.0083,-0.01137 1.6,1.6 0 0 1 0.344682,-0.344682 1.6,1.6 0 0 1 0.0088,-0.0067 1.6,1.6 0 0 1 0.437182,-0.222725 1.6,1.6 0 0 1 0.0078,-0.0026 1.6,1.6 0 0 1 0.490926,-0.07803 z m 0,88.820421 a 1.6,1.6 0 0 1 0.163814,0.01 1.6,1.6 0 0 1 0.05168,0.006 1.6,1.6 0 0 1 0.149861,0.0274 1.6,1.6 0 0 1 0.05064,0.0134 1.6,1.6 0 0 1 0.129191,0.0408 1.6,1.6 0 0 1 0.02997,0.0103 1.6,1.6 0 0 1 0.144694,0.0646 1.6,1.6 0 0 1 0.04703,0.0248 1.6,1.6 0 0 1 0.137976,0.0837 1.6,1.6 0 0 1 0.0186,0.014 1.6,1.6 0 0 1 0.113171,0.0889 1.6,1.6 0 0 1 0.03721,0.0315 1.6,1.6 0 0 1 0.111104,0.1111 1.6,1.6 0 0 1 0.03152,0.0372 1.6,1.6 0 0 1 0.08888,0.11317 1.6,1.6 0 0 1 0.01395,0.0186 1.6,1.6 0 0 1 0.08372,0.13797 1.6,1.6 0 0 1 0.0248,0.047 1.6,1.6 0 0 1 0.0646,0.14469 1.6,1.6 0 0 1 0.0098,0.0284 1.6,1.6 0 0 1 0.04393,0.14056 1.6,1.6 0 0 1 0.0093,0.0351 1.6,1.6 0 0 1 0.02894,0.15503 1.6,1.6 0 0 1 0.0057,0.0527 1.6,1.6 0 0 1 0.0098,0.1633 1.6,1.6 0 0 1 -0.077,0.48886 1.6,1.6 0 0 1 -0.0041,0.0114 1.6,1.6 0 0 1 -0.220658,0.43253 1.6,1.6 0 0 1 -0.01034,0.0145 1.6,1.6 0 0 1 -0.340547,0.34055 1.6,1.6 0 0 1 -0.01447,0.0103 1.6,1.6 0 0 1 -0.434082,0.22118 1.6,1.6 0 0 1 -0.0078,0.003 1.6,1.6 0 0 1 -0.490926,0.078 1.6,1.6 0 0 1 -0.490926,-0.078 1.6,1.6 0 0 1 -0.0078,-0.003 1.6,1.6 0 0 1 -0.434082,-0.22118 1.6,1.6 0 0 1 -0.01447,-0.0103 1.6,1.6 0 0 1 -0.340548,-0.34055 1.6,1.6 0 0 1 -0.01034,-0.0145 1.6,1.6 0 0 1 -0.220659,-0.43253 1.6,1.6 0 0 1 -0.0041,-0.0114 1.6,1.6 0 0 1 -0.077,-0.48886 1.6,1.6 0 0 1 0.077,-0.48834 1.6,1.6 0 0 1 0.0047,-0.014 1.6,1.6 0 0 1 0.220142,-0.43047 1.6,1.6 0 0 1 0.01034,-0.0145 1.6,1.6 0 0 1 0.340548,-0.34055 1.6,1.6 0 0 1 0.01447,-0.0103 1.6,1.6 0 0 1 0.430465,-0.22014 1.6,1.6 0 0 1 0.01395,-0.005 1.6,1.6 0 0 1 0.488342,-0.077 z m -26.1715293,1.1405 a 1.6,1.6 0 0 1 1.5999023,1.5999 1.6,1.6 0 0 1 -1.5999023,1.5999 1.6,1.6 0 0 1 -1.5999024,-1.5999 1.6,1.6 0 0 1 1.5999024,-1.5999 z m 52.3828493,0 a 1.6,1.6 0 0 1 1.599902,1.5999 1.6,1.6 0 0 1 -1.599902,1.5999 1.6,1.6 0 0 1 -1.599903,-1.5999 1.6,1.6 0 0 1 1.599903,-1.5999 z" />
  </g>
</svg>
