<?xml version="1.0" encoding="UTF-8" standalone="no"?>
<!-- Created with Inkscape (http://www.inkscape.org/) -->

<svg
   width="59.999989mm"
   height="119.99994mm"
   viewBox="0 0 59.999989 119.99994"
   version="1.1"
   id="svg65271"
   inkscape:version="1.2.2 (b0a8486, 2022-12-01)"
   sodipodi:docname="3mm-Black-Back_Layer.svg"
   xmlns:inkscape="http://www.inkscape.org/namespaces/inkscape"
   xmlns:sodipodi="http://sodipodi.sourceforge.net/DTD/sodipodi-0.dtd"
   xmlns="http://www.w3.org/2000/svg"
   xmlns:svg="http://www.w3.org/2000/svg">
  <sodipodi:namedview
     id="namedview65273"
     pagecolor="#ffffff"
     bordercolor="#666666"
     borderopacity="1.0"
     inkscape:showpageshadow="2"
     inkscape:pageopacity="0.0"
     inkscape:pagecheckerboard="0"
     inkscape:deskcolor="#d1d1d1"
     inkscape:document-units="mm"
     showgrid="false"
     inkscape:zoom="2.5730742"
     inkscape:cx="113.48293"
     inkscape:cy="226.77154"
     inkscape:current-layer="layer1" />
  <defs
     id="defs65268" />
  <g
     inkscape:label="Capa 1"
     inkscape:groupmode="layer"
     id="layer1"
     transform="translate(-2.4056122e-4,-2.4000122e-4)">
    <path
       id="path51165"
       style="display:inline;fill:none;fill-opacity:1;stroke:#000000;stroke-width:0.076;stroke-linecap:round;stroke-miterlimit:4;stroke-dasharray:none"
       d="M 0.03824056,0.03824 V 119.96218 H 59.962231 V 0.03824 Z M 4.7878214,3.47627 a 1.6,1.6 0 0 1 1.5999024,1.5999 1.6,1.6 0 0 1 -1.5999024,1.5999 1.6,1.6 0 0 1 -1.5999023,-1.5999 1.6,1.6 0 0 1 1.5999023,-1.5999 z m 50.5002766,0 a 1.6,1.6 0 0 1 1.599902,1.5999 1.6,1.6 0 0 1 -1.599902,1.5999 1.6,1.6 0 0 1 -1.599902,-1.5999 1.6,1.6 0 0 1 1.599902,-1.5999 z M 3.8664306,12.84934 a 1.6,1.6 0 0 1 1.5999024,1.5999 1.6,1.6 0 0 1 -1.5999024,1.59991 1.6,1.6 0 0 1 -1.5999023,-1.59991 1.6,1.6 0 0 1 1.5999023,-1.5999 z m 52.3828494,0 a 1.6,1.6 0 0 1 1.599902,1.5999 1.6,1.6 0 0 1 -1.599902,1.59991 1.6,1.6 0 0 1 -1.599903,-1.59991 1.6,1.6 0 0 1 1.599903,-1.5999 z m -41.687895,8.80825 a 3.5,3.5 0 0 1 3.500045,3.50004 3.5,3.5 0 0 1 -3.500045,3.50005 3.5,3.5 0 0 1 -3.500045,-3.50005 3.5,3.5 0 0 1 3.500045,-3.50004 z m 31.120064,0 a 3.5,3.5 0 0 1 3.500045,3.50004 3.5,3.5 0 0 1 -3.500045,3.50005 3.5,3.5 0 0 1 -3.500045,-3.50005 3.5,3.5 0 0 1 3.500045,-3.50004 z M 13.561446,30.9578 h 1.999878 v 0.99993 h -1.999878 z m 31.120064,0 h 1.999878 v 0.99993 H 44.68151 Z M 14.561385,46.52067 a 3.5,3.5 0 0 1 3.500045,3.50005 3.5,3.5 0 0 1 -3.500045,3.50004 3.5,3.5 0 0 1 -3.500045,-3.50004 3.5,3.5 0 0 1 3.500045,-3.50005 z m 31.120064,0 a 3.5,3.5 0 0 1 3.500045,3.50005 3.5,3.5 0 0 1 -3.500045,3.50004 3.5,3.5 0 0 1 -3.500045,-3.50004 3.5,3.5 0 0 1 3.500045,-3.50005 z m -32.120003,9.30021 h 1.999878 v 0.99994 h -1.999878 z m 31.120064,0 h 1.999878 v 0.99994 H 44.68151 Z M 14.561385,71.38375 a 3.5,3.5 0 0 1 3.500045,3.50005 3.5,3.5 0 0 1 -3.500045,3.50004 3.5,3.5 0 0 1 -3.500045,-3.50004 3.5,3.5 0 0 1 3.500045,-3.50005 z m 31.120064,0 a 3.5,3.5 0 0 1 3.500045,3.50005 3.5,3.5 0 0 1 -3.500045,3.50004 3.5,3.5 0 0 1 -3.500045,-3.50004 3.5,3.5 0 0 1 3.500045,-3.50005 z m -32.120003,9.29969 h 1.999878 v 0.99994 h -1.999878 z m 31.120064,0 h 1.999878 v 0.99994 H 44.68151 Z M 14.561385,96.24632 a 3.5,3.5 0 0 1 3.500045,3.50004 3.5,3.5 0 0 1 -3.500045,3.50005 3.5,3.5 0 0 1 -3.500045,-3.50005 3.5,3.5 0 0 1 3.500045,-3.50004 z m 31.120064,0 a 3.5,3.5 0 0 1 3.500045,3.50004 3.5,3.5 0 0 1 -3.500045,3.50005 3.5,3.5 0 0 1 -3.500045,-3.50005 3.5,3.5 0 0 1 3.500045,-3.50004 z m -41.8150184,7.7804 a 1.6,1.6 0 0 1 1.5999024,1.5999 1.6,1.6 0 0 1 -1.5999024,1.59991 1.6,1.6 0 0 1 -1.5999023,-1.59991 1.6,1.6 0 0 1 1.5999023,-1.5999 z m 52.3828494,0 a 1.6,1.6 0 0 1 1.599902,1.5999 1.6,1.6 0 0 1 -1.599902,1.59991 1.6,1.6 0 0 1 -1.599903,-1.59991 1.6,1.6 0 0 1 1.599903,-1.5999 z m -42.687834,1.5198 h 1.999878 v 0.99994 h -1.999878 z m 31.120064,0 h 1.999878 v 0.99994 H 44.68151 Z m -39.8936886,7.92924 a 1.6,1.6 0 0 1 1.5999024,1.60042 1.6,1.6 0 0 1 -1.5999024,1.5999 1.6,1.6 0 0 1 -1.5999023,-1.5999 1.6,1.6 0 0 1 1.5999023,-1.60042 z m 50.5002766,0 a 1.6,1.6 0 0 1 1.599902,1.60042 1.6,1.6 0 0 1 -1.599902,1.5999 1.6,1.6 0 0 1 -1.599902,-1.5999 1.6,1.6 0 0 1 1.599902,-1.60042 z" />
  </g>
</svg>
