<?xml version="1.0" encoding="UTF-8" standalone="no"?>
<!-- Created with Inkscape (http://www.inkscape.org/) -->

<svg
   width="119.9999mm"
   height="119.99991mm"
   viewBox="0 0 119.9999 119.99991"
   version="1.1"
   id="svg63989"
   inkscape:version="1.2.2 (b0a8486, 2022-12-01)"
   sodipodi:docname="3mm-Black-Back_Layer.svg"
   xmlns:inkscape="http://www.inkscape.org/namespaces/inkscape"
   xmlns:sodipodi="http://sodipodi.sourceforge.net/DTD/sodipodi-0.dtd"
   xmlns="http://www.w3.org/2000/svg"
   xmlns:svg="http://www.w3.org/2000/svg">
  <sodipodi:namedview
     id="namedview63991"
     pagecolor="#ffffff"
     bordercolor="#666666"
     borderopacity="1.0"
     inkscape:showpageshadow="2"
     inkscape:pageopacity="0.0"
     inkscape:pagecheckerboard="0"
     inkscape:deskcolor="#d1d1d1"
     inkscape:document-units="mm"
     showgrid="false"
     inkscape:zoom="2.5730749"
     inkscape:cx="226.57716"
     inkscape:cy="226.77148"
     inkscape:current-layer="layer1" />
  <defs
     id="defs63986" />
  <g
     inkscape:label="Capa 1"
     inkscape:groupmode="layer"
     id="layer1"
     transform="translate(-2.5991037e-4,-2.6200037e-4)">
    <path
       id="rect11527"
       style="display:inline;fill:none;fill-opacity:1;stroke:#000000;stroke-width:0.083196;stroke-linecap:round;stroke-miterlimit:4;stroke-dasharray:none"
       d="M 0.04185791,0.04186 V 119.95857 H 119.95856 V 0.04186 Z M 4.7883382,3.43803 a 1.6,1.6 0 0 1 1.5999023,1.59991 1.6,1.6 0 0 1 -1.5999023,1.5999 1.6,1.6 0 0 1 -1.600419,-1.5999 1.6,1.6 0 0 1 1.600419,-1.59991 z m 110.5002318,0 a 1.6,1.6 0 0 1 1.5999,1.59991 1.6,1.6 0 0 1 -1.5999,1.5999 1.6,1.6 0 0 1 -1.59991,-1.5999 1.6,1.6 0 0 1 1.59991,-1.59991 z M 4.4472737,13.10101 a 1.6,1.6 0 0 1 1.5999025,1.5999 1.6,1.6 0 0 1 -1.5999024,1.5999 1.6,1.6 0 0 1 -1.5999023,-1.5999 1.6,1.6 0 0 1 1.5999022,-1.5999 z m 111.5564963,0 a 1.6,1.6 0 0 1 1.60042,1.5999 1.6,1.6 0 0 1 -1.60042,1.5999 1.6,1.6 0 0 1 -1.5999,-1.5999 1.6,1.6 0 0 1 1.5999,-1.5999 z M 5.1624755,21.07623 H 19.162654 V 35.07641 H 5.1624755 Z m 18.5001625,0 H 37.662817 V 35.07641 H 23.662638 Z m 18.500163,0 H 56.162463 V 35.07641 H 42.162801 Z m 21.674646,0 H 77.837626 V 35.07641 H 63.837447 Z m 18.500162,0 H 96.337788 V 35.07641 H 82.337609 Z m 18.500161,0 h 13.99966 V 35.07641 H 100.83777 Z M 23.662638,39.72419 H 37.662817 V 53.72437 H 23.662638 Z m 18.500163,0 H 56.162463 V 53.72437 H 42.162801 Z m 21.674646,0 H 77.837626 V 53.72437 H 63.837447 Z m 18.500162,0 H 96.337788 V 53.72437 H 82.337609 Z M 23.662638,65.39653 H 37.662817 V 79.39619 H 23.662638 Z m 58.674971,0 H 96.337788 V 79.39619 H 82.337609 Z M 23.662638,94.38287 h 14.000179 v 13.99966 H 23.662638 Z m 29.337227,0 h 14.000179 v 13.99966 H 52.999865 Z m 29.337744,0 h 14.000179 v 13.99966 H 82.337609 Z m -78.2649893,9.39219 a 1.6,1.6 0 0 1 1.5999023,1.5999 1.6,1.6 0 0 1 -1.5999023,1.59991 1.6,1.6 0 0 1 -1.5999024,-1.59991 1.6,1.6 0 0 1 1.5999024,-1.5999 z m 111.6200603,0 a 1.6,1.6 0 0 1 1.5999,1.5999 1.6,1.6 0 0 1 -1.5999,1.59991 1.6,1.6 0 0 1 -1.59991,-1.59991 1.6,1.6 0 0 1 1.59991,-1.5999 z M 4.7883382,113.43804 a 1.6,1.6 0 0 1 1.5999023,1.5999 1.6,1.6 0 0 1 -1.5999023,1.5999 1.6,1.6 0 0 1 -1.600419,-1.5999 1.6,1.6 0 0 1 1.600419,-1.5999 z m 110.5002318,0 a 1.6,1.6 0 0 1 1.5999,1.5999 1.6,1.6 0 0 1 -1.5999,1.5999 1.6,1.6 0 0 1 -1.59991,-1.5999 1.6,1.6 0 0 1 1.59991,-1.5999 z" />
  </g>
</svg>
