<?xml version="1.0" encoding="UTF-8" standalone="no"?>
<!-- Created with Inkscape (http://www.inkscape.org/) -->

<svg
   width="119.99994mm"
   height="119.99995mm"
   viewBox="0 0 119.99994 119.99995"
   version="1.1"
   id="svg85544"
   inkscape:version="1.2.2 (b0a8486, 2022-12-01)"
   sodipodi:docname="3mm-Translucent-Middle_Layer.svg"
   xmlns:inkscape="http://www.inkscape.org/namespaces/inkscape"
   xmlns:sodipodi="http://sodipodi.sourceforge.net/DTD/sodipodi-0.dtd"
   xmlns="http://www.w3.org/2000/svg"
   xmlns:svg="http://www.w3.org/2000/svg">
  <sodipodi:namedview
     id="namedview85546"
     pagecolor="#ffffff"
     bordercolor="#666666"
     borderopacity="1.0"
     inkscape:showpageshadow="2"
     inkscape:pageopacity="0.0"
     inkscape:pagecheckerboard="0"
     inkscape:deskcolor="#d1d1d1"
     inkscape:document-units="mm"
     showgrid="false"
     inkscape:zoom="2.5730741"
     inkscape:cx="226.57723"
     inkscape:cy="226.77155"
     inkscape:current-layer="layer1" />
  <defs
     id="defs85541" />
  <g
     inkscape:label="Capa 1"
     inkscape:groupmode="layer"
     id="layer1"
     transform="translate(-2.4056122e-4,-2.4000122e-4)">
    <path
       id="rect3678-3"
       style="display:inline;fill:none;fill-opacity:1;stroke:#000000;stroke-width:0.076;stroke-linecap:round;stroke-miterlimit:4;stroke-dasharray:none"
       d="m 10.035046,0.03824 v 4.99659 c -1.65e-4,2.75964 -2.2382153,4.99672 -4.998661,4.9966 H 0.03824056 v 99.93705 H 5.036385 c 2.7604457,-1.2e-4 4.998496,2.23696 4.998661,4.9966 v 4.99711 h 99.930334 v -4.99711 c 1.6e-4,-2.75964 2.23816,-4.99672 4.99866,-4.9966 h 4.99814 V 10.03143 h -4.99814 c -2.7605,1.2e-4 -4.9985,-2.23696 -4.99866,-4.9966 V 0.03824 Z M 4.4472737,13.10101 a 1.6,1.6 0 0 1 1.5999025,1.5999 1.6,1.6 0 0 1 -1.5999024,1.5999 1.6,1.6 0 0 1 -1.5999023,-1.5999 1.6,1.6 0 0 1 1.5999022,-1.5999 z m 111.5564963,0 a 1.6,1.6 0 0 1 1.60042,1.5999 1.6,1.6 0 0 1 -1.60042,1.5999 1.6,1.6 0 0 1 -1.5999,-1.5999 1.6,1.6 0 0 1 1.5999,-1.5999 z M 2.6623698,18.57613 H 21.162532 21.66276 39.662695 40.162406 58.662569 V 37.2246 37.57652 56.22448 H 40.162406 39.662695 21.162532 V 37.57652 H 2.6623698 Z m 58.6749712,0 h 18.500163 0.500227 17.999935 0.499711 18.500163 V 37.57652 H 98.837377 V 56.22448 H 80.337731 79.837504 61.337341 V 37.57652 37.2246 Z M 21.162532,62.89642 H 40.162406 V 81.89629 H 21.162532 Z m 58.674972,0 H 98.837377 V 81.89629 H 79.837504 Z M 21.162532,91.88276 h 18.999874 v 18.99988 H 21.162532 Z m 29.337744,0 H 69.50015 v 18.99988 H 50.500276 Z m 29.337228,0 h 18.999873 v 18.99988 H 79.837504 Z m -75.7648844,11.8923 a 1.6,1.6 0 0 1 1.5999023,1.5999 1.6,1.6 0 0 1 -1.5999023,1.59991 1.6,1.6 0 0 1 -1.5999024,-1.59991 1.6,1.6 0 0 1 1.5999024,-1.5999 z m 111.6200604,0 a 1.6,1.6 0 0 1 1.5999,1.5999 1.6,1.6 0 0 1 -1.5999,1.59991 1.6,1.6 0 0 1 -1.59991,-1.59991 1.6,1.6 0 0 1 1.59991,-1.5999 z" />
  </g>
</svg>
