<?xml version="1.0" encoding="UTF-8" standalone="no"?>
<!-- Created with Inkscape (http://www.inkscape.org/) -->

<svg
   width="120.00042mm"
   height="97.999695mm"
   viewBox="0 0 120.00042 97.999695"
   version="1.1"
   id="svg60534"
   inkscape:version="1.2.2 (b0a8486, 2022-12-01)"
   sodipodi:docname="3mm-Black-Microcontroller_Layer.svg"
   xmlns:inkscape="http://www.inkscape.org/namespaces/inkscape"
   xmlns:sodipodi="http://sodipodi.sourceforge.net/DTD/sodipodi-0.dtd"
   xmlns="http://www.w3.org/2000/svg"
   xmlns:svg="http://www.w3.org/2000/svg">
  <sodipodi:namedview
     id="namedview60536"
     pagecolor="#ffffff"
     bordercolor="#666666"
     borderopacity="1.0"
     inkscape:showpageshadow="2"
     inkscape:pageopacity="0.0"
     inkscape:pagecheckerboard="0"
     inkscape:deskcolor="#d1d1d1"
     inkscape:document-units="mm"
     showgrid="false"
     inkscape:zoom="3.1507113"
     inkscape:cx="226.61549"
     inkscape:cy="185.19627"
     inkscape:current-layer="layer1" />
  <defs
     id="defs60531" />
  <g
     inkscape:label="Capa 1"
     inkscape:groupmode="layer"
     id="layer1"
     transform="translate(2.5399979e-4,-11.000108)">
    <path
       id="rect11527-5"
       style="display:inline;fill:none;fill-opacity:1;stroke:#000000;stroke-width:0.0831903;stroke-linecap:round;stroke-miterlimit:4;stroke-dasharray:none"
       d="M 0.04134115,11.041703 V 108.95821 H 119.95857 V 11.041703 Z m 4.40593265,2.059306 a 1.6,1.6 0 0 1 1.5999023,1.599902 1.6,1.6 0 0 1 -1.5999023,1.599903 1.6,1.6 0 0 1 -1.5999024,-1.599903 1.6,1.6 0 0 1 1.5999024,-1.599902 z m 111.5564962,0 a 1.6,1.6 0 0 1 1.60042,1.599902 1.6,1.6 0 0 1 -1.60042,1.599903 1.6,1.6 0 0 1 -1.5999,-1.599903 1.6,1.6 0 0 1 1.5999,-1.599902 z m -55.965574,0.927075 a 1.6,1.6 0 0 1 1.599902,1.599903 1.6,1.6 0 0 1 -1.599902,1.599902 1.6,1.6 0 0 1 -1.599903,-1.599902 1.6,1.6 0 0 1 1.599903,-1.599903 z m 30.499947,68.125041 h 17.999927 v 9.999906 H 90.538143 Z M 60.038196,102.84799 a 1.6,1.6 0 0 1 1.599902,1.5999 1.6,1.6 0 0 1 -1.599902,1.5999 1.6,1.6 0 0 1 -1.599903,-1.5999 1.6,1.6 0 0 1 1.599903,-1.5999 z m -55.9655764,0.92707 a 1.6,1.6 0 0 1 1.5999024,1.59991 1.6,1.6 0 0 1 -1.5999024,1.5999 1.6,1.6 0 0 1 -1.5999023,-1.5999 1.6,1.6 0 0 1 1.5999023,-1.59991 z m 111.6200604,0 a 1.6,1.6 0 0 1 1.5999,1.59991 1.6,1.6 0 0 1 -1.5999,1.5999 1.6,1.6 0 0 1 -1.59991,-1.5999 1.6,1.6 0 0 1 1.59991,-1.59991 z" />
  </g>
</svg>
